%TF.GenerationSoftware,KiCad,Pcbnew,8.0.7-8.0.7-0~ubuntu22.04.1*%
%TF.CreationDate,2024-12-10T13:55:57+09:00*%
%TF.ProjectId,MRM5-tester,4d524d35-2d74-4657-9374-65722e6b6963,rev?*%
%TF.SameCoordinates,Original*%
%TF.FileFunction,Copper,L2,Bot*%
%TF.FilePolarity,Positive*%
%FSLAX46Y46*%
G04 Gerber Fmt 4.6, Leading zero omitted, Abs format (unit mm)*
G04 Created by KiCad (PCBNEW 8.0.7-8.0.7-0~ubuntu22.04.1) date 2024-12-10 13:55:57*
%MOMM*%
%LPD*%
G01*
G04 APERTURE LIST*
%TA.AperFunction,ComponentPad*%
%ADD10R,1.400000X1.800000*%
%TD*%
%TA.AperFunction,ComponentPad*%
%ADD11O,1.400000X1.800000*%
%TD*%
%TA.AperFunction,ComponentPad*%
%ADD12R,1.700000X1.700000*%
%TD*%
%TA.AperFunction,ComponentPad*%
%ADD13O,1.700000X1.700000*%
%TD*%
%TA.AperFunction,ComponentPad*%
%ADD14C,3.500000*%
%TD*%
%TA.AperFunction,ComponentPad*%
%ADD15R,1.500000X1.500000*%
%TD*%
%TA.AperFunction,ComponentPad*%
%ADD16C,1.500000*%
%TD*%
%TA.AperFunction,ComponentPad*%
%ADD17C,2.400000*%
%TD*%
%TA.AperFunction,ComponentPad*%
%ADD18O,2.400000X2.400000*%
%TD*%
%TA.AperFunction,ComponentPad*%
%ADD19C,1.200000*%
%TD*%
%TA.AperFunction,ComponentPad*%
%ADD20C,1.600000*%
%TD*%
%TA.AperFunction,ComponentPad*%
%ADD21C,1.400000*%
%TD*%
%TA.AperFunction,SMDPad,CuDef*%
%ADD22C,2.000000*%
%TD*%
%TA.AperFunction,ViaPad*%
%ADD23C,0.600000*%
%TD*%
%TA.AperFunction,ViaPad*%
%ADD24C,0.800000*%
%TD*%
%TA.AperFunction,Conductor*%
%ADD25C,0.500000*%
%TD*%
%TA.AperFunction,Conductor*%
%ADD26C,0.300000*%
%TD*%
%TA.AperFunction,Conductor*%
%ADD27C,0.200000*%
%TD*%
%TA.AperFunction,Conductor*%
%ADD28C,0.800000*%
%TD*%
%TA.AperFunction,Conductor*%
%ADD29C,0.700000*%
%TD*%
%TA.AperFunction,Conductor*%
%ADD30C,1.000000*%
%TD*%
G04 APERTURE END LIST*
D10*
%TO.P,LED7,1,K*%
%TO.N,Net-(LED7-K)*%
X119634000Y-134874000D03*
D11*
%TO.P,LED7,2,A*%
%TO.N,/analog/3V3*%
X122174000Y-134874000D03*
%TD*%
D10*
%TO.P,LED6,1,K*%
%TO.N,Net-(LED6-K)*%
X132842000Y-134874000D03*
D11*
%TO.P,LED6,2,A*%
%TO.N,Net-(LED6-A)*%
X135382000Y-134874000D03*
%TD*%
D10*
%TO.P,LED5,1,K*%
%TO.N,Net-(LED5-K)*%
X128778000Y-134874000D03*
D11*
%TO.P,LED5,2,A*%
%TO.N,Net-(LED5-A)*%
X126238000Y-134874000D03*
%TD*%
D10*
%TO.P,LED4,1,K*%
%TO.N,Net-(LED4-K)*%
X157480000Y-135128000D03*
D11*
%TO.P,LED4,2,A*%
%TO.N,Net-(LED4-A)*%
X160020000Y-135128000D03*
%TD*%
D10*
%TO.P,LED3,1,K*%
%TO.N,Net-(LED3-K)*%
X166624000Y-134874000D03*
D11*
%TO.P,LED3,2,A*%
%TO.N,Net-(LED3-A)*%
X169164000Y-134874000D03*
%TD*%
D10*
%TO.P,LED2,1,K*%
%TO.N,Net-(LED2-K)*%
X176868666Y-134874000D03*
D11*
%TO.P,LED2,2,A*%
%TO.N,Net-(LED2-A)*%
X179408666Y-134874000D03*
%TD*%
D10*
%TO.P,LED1,1,K*%
%TO.N,Net-(LED1-K)*%
X186436000Y-134874000D03*
D11*
%TO.P,LED1,2,A*%
%TO.N,Net-(LED1-A)*%
X188976000Y-134874000D03*
%TD*%
D12*
%TO.P,J5,1*%
%TO.N,GND*%
X185166000Y-99822000D03*
D13*
%TO.P,J5,2*%
%TO.N,/interface/5V*%
X187706000Y-99822000D03*
%TD*%
D12*
%TO.P,J4,1*%
%TO.N,/analog/1V6*%
X151892000Y-99822000D03*
D13*
%TO.P,J4,2*%
%TO.N,/analog/V2p*%
X154432000Y-99822000D03*
%TD*%
D14*
%TO.P,P1,1*%
%TO.N,/interface/Vp_h*%
X106198000Y-67020000D03*
%TD*%
D15*
%TO.P,RT1,1*%
%TO.N,/interface/Vp_h*%
X112922000Y-67274000D03*
D16*
%TO.P,RT1,2*%
%TO.N,/analog/Vp_sh*%
X120422000Y-67274000D03*
%TD*%
D15*
%TO.P,PS1,1,AC_1*%
%TO.N,/power/FL1_out1_sh*%
X153250000Y-70750000D03*
D16*
%TO.P,PS1,2,AC_2*%
%TO.N,/power/FL1_out2_sh*%
X153250000Y-89050000D03*
%TO.P,PS1,3,-V0*%
%TO.N,GND*%
X194850000Y-68450000D03*
%TO.P,PS1,4,+V0*%
%TO.N,/interface/5V*%
X194850000Y-89050000D03*
%TD*%
D14*
%TO.P,P4,1*%
%TO.N,/analog/1V6*%
X106116000Y-103378000D03*
%TD*%
D17*
%TO.P,R24,1*%
%TO.N,/analog/Zfreed*%
X135000000Y-118250000D03*
D18*
%TO.P,R24,2*%
%TO.N,Net-(L1-Pad1)*%
X112140000Y-118250000D03*
%TD*%
D15*
%TO.P,T1,1,1*%
%TO.N,/analog/Vp_ssh*%
X127408000Y-87376000D03*
D16*
%TO.P,T1,2,2*%
%TO.N,/analog/Vn_h*%
X127408000Y-94576000D03*
%TO.P,T1,3,3*%
%TO.N,/analog/V2p*%
X143708000Y-87376000D03*
%TO.P,T1,4,4*%
%TO.N,/analog/1V6*%
X143708000Y-94576000D03*
%TD*%
D14*
%TO.P,P2,1*%
%TO.N,/analog/Vn_h*%
X106198000Y-90134000D03*
%TD*%
D19*
%TO.P,R17,1,1*%
%TO.N,/analog/Vp_sh*%
X122880000Y-73284000D03*
%TO.P,R17,2,2*%
%TO.N,/analog/Vp_ssh*%
X122880000Y-89784000D03*
%TD*%
D15*
%TO.P,RV1,1*%
%TO.N,/analog/Vn_h*%
X108758000Y-82708000D03*
D16*
%TO.P,RV1,2*%
%TO.N,/interface/Vp_h*%
X108758000Y-75208000D03*
%TD*%
D20*
%TO.P,C26,1*%
%TO.N,/interface/5V*%
X193080000Y-97524000D03*
%TO.P,C26,2*%
%TO.N,GND*%
X195580000Y-97524000D03*
%TD*%
D14*
%TO.P,P3,1*%
%TO.N,Net-(L1-Pad2)*%
X106000000Y-119500000D03*
%TD*%
D15*
%TO.P,C20,1*%
%TO.N,/analog/Vn_h*%
X116358000Y-89132000D03*
D16*
%TO.P,C20,2*%
%TO.N,/analog/Vp_sh*%
X116358000Y-74132000D03*
%TD*%
D21*
%TO.P,FL1,1*%
%TO.N,/analog/Vp_sh*%
X130750000Y-67750000D03*
%TO.P,FL1,2*%
%TO.N,/analog/Vn_h*%
X130750000Y-77750000D03*
%TO.P,FL1,3*%
%TO.N,/power/FL1_out2_sh*%
X143750000Y-77750000D03*
%TO.P,FL1,4*%
%TO.N,/power/FL1_out1_sh*%
X143750000Y-67750000D03*
%TD*%
D22*
%TO.P,TP2,1,1*%
%TO.N,/analog/Zfreed*%
X139500000Y-120500000D03*
%TD*%
D12*
%TO.P,J7,1,Pin_1*%
%TO.N,/analog/3V3*%
X161234000Y-119634000D03*
D13*
%TO.P,J7,2,Pin_2*%
%TO.N,/interface/UART_RXD*%
X163774000Y-119634000D03*
%TO.P,J7,3,Pin_3*%
%TO.N,/interface/UART_TXD*%
X166314000Y-119634000D03*
%TO.P,J7,4,Pin_4*%
%TO.N,GND*%
X168854000Y-119634000D03*
%TO.P,J7,5,Pin_5*%
%TO.N,/interface/5V*%
X171394000Y-119634000D03*
%TD*%
D12*
%TO.P,J6,1,Pin_1*%
%TO.N,GND*%
X173934000Y-99822000D03*
D13*
%TO.P,J6,2,Pin_2*%
%TO.N,/interface/STLINK_RST*%
X171394000Y-99822000D03*
%TO.P,J6,3,Pin_3*%
%TO.N,/interface/STLINK_CLK*%
X168854000Y-99822000D03*
%TO.P,J6,4,Pin_4*%
%TO.N,/interface/STLINK_DIO*%
X166314000Y-99822000D03*
%TO.P,J6,5,Pin_5*%
%TO.N,/analog/3V3*%
X163774000Y-99822000D03*
%TD*%
D12*
%TO.P,J2,1,Pin_1*%
%TO.N,GND*%
X148585000Y-108712000D03*
D13*
%TO.P,J2,2,Pin_2*%
%TO.N,/interface/SYNC*%
X151125000Y-108712000D03*
%TD*%
D12*
%TO.P,J1,1,Pin_1*%
%TO.N,/interface/PUSH_BTN*%
X174000000Y-104000000D03*
D13*
%TO.P,J1,2,Pin_2*%
%TO.N,/interface/STLINK_RST*%
X171460000Y-104000000D03*
%TD*%
D22*
%TO.P,TP3,1,1*%
%TO.N,/analog/sigV*%
X143200000Y-101600000D03*
%TD*%
%TO.P,TP1,1,1*%
%TO.N,Net-(U2A--)*%
X137358000Y-101600000D03*
%TD*%
D23*
%TO.N,/analog/3V3*%
X131925000Y-128623000D03*
D24*
%TO.N,/analog/1V6*%
X153162000Y-112776000D03*
X147574000Y-112776000D03*
%TO.N,GND*%
X152908000Y-124714000D03*
D23*
%TO.N,Net-(Q1-B)*%
X191516000Y-131064000D03*
%TO.N,Net-(Q3-B)*%
X163322000Y-128016000D03*
%TO.N,Net-(Q2-B)*%
X172974000Y-127000000D03*
D24*
%TO.N,GND*%
X193548000Y-115062000D03*
X127198000Y-123698000D03*
X128524000Y-112776000D03*
X194818000Y-101600000D03*
X138882000Y-105918000D03*
X146558000Y-97790000D03*
X165250000Y-109000000D03*
X171500000Y-110500000D03*
D23*
X171450000Y-125730000D03*
D24*
X162250000Y-105664000D03*
X140208000Y-117094000D03*
X190500000Y-109750000D03*
X157424000Y-104648000D03*
X167750000Y-110500000D03*
X128722000Y-128778000D03*
X179776000Y-97536000D03*
X185618000Y-114046000D03*
X161000000Y-122500000D03*
X129992000Y-102870000D03*
X162500000Y-111500000D03*
X184856000Y-101854000D03*
X137104000Y-108458000D03*
X111196000Y-100584000D03*
X122372000Y-104140000D03*
X111958000Y-106934000D03*
X129484000Y-108458000D03*
%TO.N,/analog/3V3*%
X168656000Y-122936000D03*
X122000000Y-131000000D03*
X147531000Y-121425000D03*
X150566000Y-128016000D03*
X124404000Y-101346000D03*
X134056000Y-99060000D03*
%TO.N,/interface/5V*%
X196540000Y-109474000D03*
X182372000Y-111760000D03*
X189174000Y-104902000D03*
%TO.N,/analog/1V6*%
X131262000Y-106172000D03*
X126182000Y-106680000D03*
X132786000Y-102870000D03*
X127198000Y-125730000D03*
X123642000Y-111506000D03*
X147518000Y-119126000D03*
X119324000Y-113538000D03*
X124912000Y-99822000D03*
X134818000Y-124714000D03*
X121102000Y-118872000D03*
D23*
%TO.N,/analog/sigV*%
X141930000Y-101346000D03*
X143708000Y-103845000D03*
%TO.N,/mcu/1V6_TFlag*%
X116684000Y-101500000D03*
X159075000Y-122047000D03*
%TO.N,/mcu/1V6_IFlag*%
X144750000Y-111750000D03*
X158735000Y-117856000D03*
%TO.N,/analog/Z_TFlag*%
X149578000Y-119606000D03*
X156535000Y-122047000D03*
%TO.N,/analog/Z_IFlag*%
X154630000Y-119126000D03*
X137231000Y-118237000D03*
%TO.N,/interface/STLINK_RST*%
X158948000Y-105918000D03*
%TO.N,/interface/PUSH_BTN*%
X175750000Y-107000000D03*
%TO.N,/interface/SYNC*%
X155392000Y-108966000D03*
%TO.N,/interface/STLINK_CLK*%
X164028000Y-117348000D03*
%TO.N,/interface/UART_TXD*%
X165044000Y-114300000D03*
X164282000Y-109728000D03*
X177236000Y-111760000D03*
X172156000Y-108204000D03*
%TO.N,/interface/UART_RTS*%
X175966000Y-109982000D03*
X173934000Y-108204000D03*
%TO.N,/interface/STLINK_DIO*%
X161996000Y-117856000D03*
%TO.N,Net-(Q1-B)*%
X157424000Y-123952000D03*
%TO.N,Net-(Q2-B)*%
X157424000Y-122682000D03*
%TO.N,Net-(Q3-B)*%
X156662000Y-124714000D03*
%TO.N,Net-(Q4-B)*%
X149296000Y-125476000D03*
X150820000Y-129540000D03*
%TO.N,Net-(U2A--)*%
X136596000Y-102616000D03*
%TO.N,Net-(C18-Pad1)*%
X139644000Y-101346000D03*
X143708000Y-106426000D03*
D24*
%TO.N,/analog/Zfreed*%
X143454000Y-119126000D03*
D23*
%TO.N,Net-(D1-L1)*%
X187142000Y-110490000D03*
X187523000Y-108077000D03*
%TD*%
D25*
%TO.N,/analog/V2p*%
X154432000Y-99822000D02*
X143708000Y-89098000D01*
X143708000Y-89098000D02*
X143708000Y-87376000D01*
%TO.N,/analog/3V3*%
X131925000Y-128623000D02*
X129484000Y-131064000D01*
D26*
%TO.N,/analog/1V6*%
X147574000Y-112776000D02*
X153162000Y-112776000D01*
%TO.N,GND*%
X155280000Y-118856761D02*
X155280000Y-119126000D01*
X155280000Y-119126000D02*
X155280000Y-119395239D01*
X161000000Y-122500000D02*
X160803000Y-122697000D01*
X160803000Y-122697000D02*
X158583396Y-122697000D01*
X158583396Y-122697000D02*
X155280000Y-119393604D01*
X155280000Y-119393604D02*
X155280000Y-119126000D01*
X140208000Y-117094000D02*
X140462000Y-117348000D01*
X140462000Y-117348000D02*
X153771239Y-117348000D01*
X153771239Y-117348000D02*
X155280000Y-118856761D01*
X152890761Y-118306000D02*
X148766000Y-118306000D01*
X148268000Y-120074000D02*
X152908000Y-124714000D01*
X155280000Y-119395239D02*
X154899239Y-119776000D01*
X154899239Y-119776000D02*
X154360761Y-119776000D01*
X148766000Y-118306000D02*
X148268000Y-118804000D01*
X154360761Y-119776000D02*
X152890761Y-118306000D01*
X148268000Y-118804000D02*
X148268000Y-120074000D01*
X131770000Y-118618000D02*
X131770000Y-125730000D01*
X139364000Y-116250000D02*
X134138000Y-116250000D01*
X140208000Y-117094000D02*
X139364000Y-116250000D01*
X131770000Y-125730000D02*
X128722000Y-128778000D01*
X134138000Y-116250000D02*
X131770000Y-118618000D01*
D27*
%TO.N,/analog/Z_IFlag*%
X154630000Y-119126000D02*
X153360000Y-117856000D01*
X153360000Y-117856000D02*
X137612000Y-117856000D01*
X137612000Y-117856000D02*
X137231000Y-118237000D01*
%TO.N,/analog/Z_TFlag*%
X150312000Y-119126000D02*
X152090000Y-119126000D01*
X149804000Y-119380000D02*
X150058000Y-119380000D01*
X155519000Y-122047000D02*
X156535000Y-122047000D01*
X150058000Y-119380000D02*
X150312000Y-119126000D01*
X149578000Y-119606000D02*
X149804000Y-119380000D01*
X152090000Y-119126000D02*
X152852000Y-119888000D01*
X152852000Y-119888000D02*
X153360000Y-119888000D01*
X153360000Y-119888000D02*
X155519000Y-122047000D01*
D25*
%TO.N,/analog/3V3*%
X129484000Y-131064000D02*
X122064000Y-131064000D01*
X122064000Y-131064000D02*
X122000000Y-131000000D01*
D27*
%TO.N,Net-(Q1-B)*%
X168981000Y-131064000D02*
X191516000Y-131064000D01*
X166695000Y-128778000D02*
X168981000Y-131064000D01*
%TO.N,Net-(Q2-B)*%
X172212000Y-127762000D02*
X172974000Y-127000000D01*
X168092000Y-127762000D02*
X172212000Y-127762000D01*
X168092000Y-127762000D02*
X165044000Y-124714000D01*
X165044000Y-124714000D02*
X159964000Y-124714000D01*
X159964000Y-124714000D02*
X157932000Y-122682000D01*
X157932000Y-122682000D02*
X157424000Y-122682000D01*
D28*
%TO.N,GND*%
X157424000Y-104394000D02*
X156921000Y-103891000D01*
X156972000Y-101278000D02*
X161750000Y-96500000D01*
X156921000Y-103891000D02*
X156921000Y-101651000D01*
X156921000Y-101651000D02*
X156972000Y-101600000D01*
X161750000Y-96500000D02*
X178740000Y-96500000D01*
X156972000Y-101600000D02*
X156972000Y-101278000D01*
X178740000Y-96500000D02*
X179776000Y-97536000D01*
D29*
X129484000Y-109734000D02*
X129484000Y-108458000D01*
X128524000Y-112776000D02*
X128524000Y-110694000D01*
X136000000Y-109562000D02*
X137104000Y-108458000D01*
X133008000Y-109562000D02*
X136000000Y-109562000D01*
X128524000Y-110694000D02*
X129484000Y-109734000D01*
X128524000Y-112776000D02*
X129794000Y-112776000D01*
X129794000Y-112776000D02*
X133008000Y-109562000D01*
D27*
%TO.N,/mcu/1V6_TFlag*%
X116684000Y-101500000D02*
X116684000Y-105818000D01*
X158440000Y-118872000D02*
X158440000Y-121412000D01*
X158440000Y-121412000D02*
X159075000Y-122047000D01*
X116684000Y-105818000D02*
X117546000Y-106680000D01*
X117988000Y-115250000D02*
X131131000Y-115250000D01*
X131131000Y-115250000D02*
X132443000Y-113938000D01*
X117546000Y-106680000D02*
X117546000Y-114808000D01*
X153506000Y-113938000D02*
X158440000Y-118872000D01*
X117546000Y-114808000D02*
X117988000Y-115250000D01*
X132443000Y-113938000D02*
X153506000Y-113938000D01*
D26*
%TO.N,GND*%
X157424000Y-104648000D02*
X149042000Y-104648000D01*
X149042000Y-104648000D02*
X147772000Y-103378000D01*
D29*
X145232000Y-105918000D02*
X145232000Y-106934000D01*
X146558000Y-97790000D02*
X147772000Y-99004000D01*
X147772000Y-99004000D02*
X147772000Y-103378000D01*
X147772000Y-103378000D02*
X145232000Y-105918000D01*
X145232000Y-106934000D02*
X144470000Y-107696000D01*
D28*
%TO.N,/analog/1V6*%
X143708000Y-94576000D02*
X146392000Y-94576000D01*
X146392000Y-94576000D02*
X151892000Y-100076000D01*
D26*
%TO.N,GND*%
X148585000Y-108712000D02*
X145486000Y-108712000D01*
X145486000Y-108712000D02*
X144470000Y-107696000D01*
D25*
%TO.N,/interface/SYNC*%
X151125000Y-108712000D02*
X152085000Y-107752000D01*
X152085000Y-107752000D02*
X154178000Y-107752000D01*
X154178000Y-107752000D02*
X155392000Y-108966000D01*
D26*
%TO.N,GND*%
X192532000Y-114046000D02*
X185618000Y-114046000D01*
D29*
X129484000Y-108458000D02*
X129484000Y-104902000D01*
D26*
X194564000Y-101854000D02*
X184856000Y-101854000D01*
X189662685Y-126416685D02*
X186539370Y-129540000D01*
D29*
X117800000Y-99568000D02*
X112212000Y-99568000D01*
D26*
X160472000Y-107442000D02*
X162250000Y-105664000D01*
X195580000Y-100838000D02*
X195580000Y-97524000D01*
D28*
X157424000Y-106674000D02*
X158192000Y-107442000D01*
D26*
X177461112Y-124996888D02*
X176728000Y-125730000D01*
X171000000Y-106750000D02*
X170500000Y-107250000D01*
X196088000Y-119991370D02*
X189662685Y-126416685D01*
X196088000Y-116134000D02*
X196088000Y-119991370D01*
X198318000Y-86106000D02*
X198318000Y-94786000D01*
X171500000Y-116988000D02*
X171500000Y-110500000D01*
X180250000Y-107000000D02*
X179250000Y-107000000D01*
X198318000Y-94786000D02*
X195580000Y-97524000D01*
D29*
X112212000Y-99568000D02*
X111196000Y-100584000D01*
D26*
X193548000Y-115062000D02*
X192532000Y-114046000D01*
X168854000Y-119634000D02*
X171648000Y-122428000D01*
X193548000Y-115062000D02*
X195016000Y-115062000D01*
X177750000Y-108500000D02*
X175750000Y-108500000D01*
X183078000Y-128016000D02*
X180058888Y-124996888D01*
X170500000Y-109000000D02*
X171506000Y-110006000D01*
X171648000Y-122428000D02*
X171648000Y-125730000D01*
D29*
X122372000Y-104140000D02*
X117800000Y-99568000D01*
D26*
X174000000Y-106750000D02*
X171000000Y-106750000D01*
X190500000Y-109750000D02*
X186204000Y-114046000D01*
X184856000Y-101854000D02*
X184856000Y-102394000D01*
D29*
X129484000Y-104902000D02*
X128722000Y-104140000D01*
D26*
X194818000Y-101600000D02*
X195580000Y-100838000D01*
D29*
X137104000Y-107696000D02*
X137104000Y-108458000D01*
D26*
X157424000Y-104648000D02*
X157424000Y-104394000D01*
X175750000Y-108500000D02*
X174000000Y-106750000D01*
D29*
X128722000Y-104140000D02*
X129992000Y-102870000D01*
D26*
X189738000Y-129032000D02*
X189738000Y-126492000D01*
X195016000Y-82804000D02*
X198318000Y-86106000D01*
X128722000Y-125222000D02*
X128722000Y-128778000D01*
X168854000Y-119634000D02*
X171500000Y-116988000D01*
D28*
X158192000Y-107442000D02*
X160472000Y-107442000D01*
D26*
X179776000Y-97536000D02*
X177490000Y-99822000D01*
D29*
X111196000Y-106172000D02*
X111958000Y-106934000D01*
D26*
X179250000Y-107000000D02*
X177750000Y-108500000D01*
X186539370Y-129540000D02*
X183078000Y-129540000D01*
X171506000Y-110494000D02*
X171500000Y-110500000D01*
X127198000Y-123698000D02*
X128722000Y-125222000D01*
X189738000Y-126492000D02*
X189662685Y-126416685D01*
D29*
X144470000Y-107696000D02*
X140660000Y-107696000D01*
D26*
X183078000Y-129540000D02*
X183078000Y-128016000D01*
D29*
X140660000Y-107696000D02*
X138882000Y-105918000D01*
D26*
X177490000Y-99822000D02*
X173934000Y-99822000D01*
X184856000Y-102394000D02*
X180250000Y-107000000D01*
X194818000Y-101600000D02*
X194564000Y-101854000D01*
D29*
X122372000Y-104140000D02*
X128722000Y-104140000D01*
D26*
X180058888Y-124996888D02*
X177461112Y-124996888D01*
D29*
X138882000Y-105918000D02*
X137104000Y-107696000D01*
D26*
X195016000Y-68046000D02*
X195016000Y-82804000D01*
X189484000Y-129286000D02*
X189738000Y-129032000D01*
X179776000Y-97536000D02*
X182062000Y-99822000D01*
X182062000Y-99822000D02*
X185166000Y-99822000D01*
D28*
X157424000Y-104648000D02*
X157424000Y-106674000D01*
D26*
X186204000Y-114046000D02*
X185618000Y-114046000D01*
X170500000Y-107250000D02*
X170500000Y-109000000D01*
D29*
X111196000Y-100584000D02*
X111196000Y-106172000D01*
D26*
X171506000Y-110006000D02*
X171506000Y-110494000D01*
X195016000Y-115062000D02*
X196088000Y-116134000D01*
D29*
%TO.N,/analog/3V3*%
X147531000Y-121425000D02*
X146743000Y-121425000D01*
D30*
X150566000Y-124460000D02*
X150566000Y-128016000D01*
D26*
X124404000Y-101346000D02*
X124658000Y-101600000D01*
D25*
X133548000Y-127000000D02*
X132532000Y-128016000D01*
D30*
X164596888Y-122996888D02*
X160218000Y-118618000D01*
X160218000Y-111506000D02*
X163774000Y-107950000D01*
D25*
X146743000Y-121425000D02*
X141168000Y-127000000D01*
D30*
X160218000Y-118618000D02*
X160218000Y-111506000D01*
D25*
X141168000Y-127000000D02*
X133548000Y-127000000D01*
D30*
X168628888Y-122996888D02*
X164596888Y-122996888D01*
D25*
X124658000Y-101600000D02*
X131516000Y-101600000D01*
X131516000Y-101600000D02*
X134056000Y-99060000D01*
D30*
X147531000Y-121425000D02*
X150566000Y-124460000D01*
D25*
X132532000Y-128016000D02*
X131925000Y-128623000D01*
D30*
X163774000Y-107950000D02*
X163774000Y-99822000D01*
%TO.N,/interface/5V*%
X194762000Y-107696000D02*
X190698000Y-107696000D01*
X190698000Y-107696000D02*
X189174000Y-106172000D01*
X182316000Y-108966000D02*
X182316000Y-115570000D01*
X189174000Y-104902000D02*
X186380000Y-104902000D01*
X182316000Y-115570000D02*
X178252000Y-119634000D01*
X189174000Y-106172000D02*
X189174000Y-104902000D01*
X186380000Y-104902000D02*
X182316000Y-108966000D01*
X196540000Y-109474000D02*
X194762000Y-107696000D01*
X178252000Y-119634000D02*
X171394000Y-119634000D01*
D26*
%TO.N,/analog/1V6*%
X147518000Y-119126000D02*
X146624000Y-119126000D01*
D30*
X123642000Y-109220000D02*
X126182000Y-106680000D01*
X121102000Y-118872000D02*
X121102000Y-119634000D01*
D28*
X136088000Y-97282000D02*
X136088000Y-99568000D01*
X132786000Y-104648000D02*
X131262000Y-106172000D01*
D26*
X141036000Y-124714000D02*
X134818000Y-124714000D01*
D28*
X136088000Y-97282000D02*
X133294000Y-97282000D01*
X143708000Y-94576000D02*
X141002000Y-97282000D01*
X141002000Y-97282000D02*
X136088000Y-97282000D01*
X132786000Y-102870000D02*
X132786000Y-104648000D01*
X136088000Y-99568000D02*
X132786000Y-102870000D01*
X130754000Y-99822000D02*
X124912000Y-99822000D01*
D30*
X119324000Y-113538000D02*
X121610000Y-113538000D01*
D26*
X146624000Y-119126000D02*
X141036000Y-124714000D01*
D30*
X121610000Y-113538000D02*
X123642000Y-111506000D01*
X123642000Y-111506000D02*
X123642000Y-109220000D01*
D28*
X133294000Y-97282000D02*
X130754000Y-99822000D01*
D30*
X121102000Y-119634000D02*
X127198000Y-125730000D01*
D27*
%TO.N,/analog/sigV*%
X143708000Y-103845000D02*
X143200000Y-103337000D01*
X143200000Y-101600000D02*
X142184000Y-101600000D01*
X143200000Y-103337000D02*
X143200000Y-101600000D01*
X142184000Y-101600000D02*
X141930000Y-101346000D01*
%TO.N,/mcu/1V6_IFlag*%
X153750000Y-111750000D02*
X158735000Y-116735000D01*
X144750000Y-111750000D02*
X153750000Y-111750000D01*
X158735000Y-116735000D02*
X158735000Y-117856000D01*
%TO.N,/analog/Z_IFlag*%
X137231000Y-118237000D02*
X137104000Y-118364000D01*
%TO.N,/interface/STLINK_RST*%
X159964000Y-99822000D02*
X158948000Y-100838000D01*
X171394000Y-99822000D02*
X171394000Y-98552000D01*
X162250000Y-97536000D02*
X159964000Y-99822000D01*
X170378000Y-97536000D02*
X162250000Y-97536000D01*
X171460000Y-104000000D02*
X171460000Y-99888000D01*
X171394000Y-98552000D02*
X170378000Y-97536000D01*
X158948000Y-100838000D02*
X158948000Y-105918000D01*
X171460000Y-99888000D02*
X171394000Y-99822000D01*
%TO.N,/interface/PUSH_BTN*%
X174500000Y-104000000D02*
X174000000Y-104000000D01*
X175750000Y-105250000D02*
X174500000Y-104000000D01*
X175750000Y-107000000D02*
X175750000Y-105250000D01*
%TO.N,/interface/STLINK_CLK*%
X168854000Y-113030000D02*
X168854000Y-99822000D01*
X164028000Y-117348000D02*
X164536000Y-117348000D01*
X164536000Y-117348000D02*
X168854000Y-113030000D01*
%TO.N,/interface/UART_TXD*%
X165044000Y-110490000D02*
X164282000Y-109728000D01*
X165044000Y-114300000D02*
X165044000Y-110490000D01*
X175712000Y-111760000D02*
X177236000Y-111760000D01*
X172156000Y-108204000D02*
X175712000Y-111760000D01*
%TO.N,/interface/UART_RTS*%
X175712000Y-109982000D02*
X175966000Y-109982000D01*
X173934000Y-108204000D02*
X175712000Y-109982000D01*
%TO.N,/interface/STLINK_DIO*%
X166314000Y-114046000D02*
X163012000Y-117348000D01*
X163012000Y-117348000D02*
X162504000Y-117856000D01*
X162504000Y-117856000D02*
X161996000Y-117856000D01*
X166314000Y-99822000D02*
X166314000Y-114046000D01*
%TO.N,Net-(Q1-B)*%
X163901000Y-125984000D02*
X159456000Y-125984000D01*
X159456000Y-125984000D02*
X157424000Y-123952000D01*
X166695000Y-128778000D02*
X163901000Y-125984000D01*
%TO.N,Net-(Q3-B)*%
X159964000Y-128016000D02*
X156662000Y-124714000D01*
X163266000Y-128016000D02*
X159964000Y-128016000D01*
%TO.N,Net-(Q4-B)*%
X149296000Y-129032000D02*
X149550000Y-129286000D01*
X149550000Y-129286000D02*
X150566000Y-129286000D01*
X150566000Y-129286000D02*
X150820000Y-129540000D01*
X149296000Y-125476000D02*
X149296000Y-129032000D01*
D28*
%TO.N,/analog/Vp_ssh*%
X122880000Y-89784000D02*
X122967000Y-89784000D01*
D27*
%TO.N,Net-(U2A--)*%
X136596000Y-102616000D02*
X136596000Y-102362000D01*
X136596000Y-102362000D02*
X137358000Y-101600000D01*
%TO.N,Net-(C18-Pad1)*%
X140152000Y-102870000D02*
X140152000Y-101854000D01*
X143708000Y-106426000D02*
X140152000Y-102870000D01*
X140152000Y-101854000D02*
X139644000Y-101346000D01*
D28*
%TO.N,/analog/Vp_sh*%
X120422000Y-67274000D02*
X117750000Y-69946000D01*
X117750000Y-69946000D02*
X117750000Y-72740000D01*
X117750000Y-72740000D02*
X116358000Y-74132000D01*
D25*
%TO.N,/analog/Zfreed*%
X143454000Y-119126000D02*
X142220000Y-120360000D01*
X142220000Y-120360000D02*
X137110000Y-120360000D01*
X137110000Y-120360000D02*
X135000000Y-118250000D01*
D28*
%TO.N,/analog/Vn_h*%
X121826000Y-94576000D02*
X127408000Y-94576000D01*
X116382000Y-89132000D02*
X121826000Y-94576000D01*
X130592000Y-77632000D02*
X130914000Y-77632000D01*
X116358000Y-86278000D02*
X121864000Y-80772000D01*
X127452000Y-80772000D02*
X130592000Y-77632000D01*
X116358000Y-89132000D02*
X116382000Y-89132000D01*
X116358000Y-89132000D02*
X116358000Y-86278000D01*
X121864000Y-80772000D02*
X127452000Y-80772000D01*
D27*
%TO.N,Net-(D1-L1)*%
X187523000Y-110109000D02*
X187523000Y-108077000D01*
X187142000Y-110490000D02*
X187523000Y-110109000D01*
%TD*%
%TA.AperFunction,Conductor*%
%TO.N,/analog/1V6*%
G36*
X145755677Y-94761685D02*
G01*
X145776319Y-94778319D01*
X150058000Y-99060000D01*
X152557271Y-99060000D01*
X152624310Y-99079685D01*
X152644952Y-99096319D01*
X153059130Y-99510497D01*
X153092615Y-99571820D01*
X153094977Y-99608985D01*
X153076341Y-99821997D01*
X153076341Y-99822000D01*
X153096936Y-100057403D01*
X153096938Y-100057413D01*
X153158094Y-100285655D01*
X153158096Y-100285659D01*
X153158097Y-100285663D01*
X153250983Y-100484857D01*
X153257965Y-100499830D01*
X153257967Y-100499834D01*
X153324748Y-100595206D01*
X153393505Y-100693401D01*
X153560599Y-100860495D01*
X153641378Y-100917057D01*
X153754165Y-100996032D01*
X153754167Y-100996033D01*
X153754170Y-100996035D01*
X153968337Y-101095903D01*
X154196592Y-101157063D01*
X154383903Y-101173451D01*
X154431999Y-101177659D01*
X154432000Y-101177659D01*
X154432001Y-101177659D01*
X154480051Y-101173455D01*
X154667408Y-101157063D01*
X154895663Y-101095903D01*
X155109830Y-100996035D01*
X155303401Y-100860495D01*
X155470495Y-100693401D01*
X155606035Y-100499830D01*
X155705903Y-100285663D01*
X155767063Y-100057408D01*
X155787659Y-99822000D01*
X155767063Y-99586592D01*
X155705903Y-99358337D01*
X155659998Y-99259894D01*
X155649045Y-99236405D01*
X155638553Y-99167327D01*
X155667073Y-99103543D01*
X155725549Y-99065304D01*
X155761427Y-99060000D01*
X157617138Y-99060000D01*
X157684177Y-99079685D01*
X157729932Y-99132489D01*
X157739876Y-99201647D01*
X157710851Y-99265203D01*
X157704819Y-99271681D01*
X156272540Y-100703958D01*
X156272537Y-100703961D01*
X156241442Y-100750500D01*
X156173990Y-100851447D01*
X156173983Y-100851459D01*
X156146813Y-100917056D01*
X156146813Y-100917057D01*
X156106105Y-101015333D01*
X156098296Y-101054592D01*
X156074654Y-101173453D01*
X156071500Y-101189309D01*
X156071500Y-101324087D01*
X156062062Y-101371538D01*
X156061259Y-101373478D01*
X156055105Y-101388334D01*
X156026080Y-101534256D01*
X156026080Y-101534258D01*
X156020500Y-101562308D01*
X156020500Y-103873500D01*
X156000815Y-103940539D01*
X155948011Y-103986294D01*
X155896500Y-103997500D01*
X149362807Y-103997500D01*
X149295768Y-103977815D01*
X149275126Y-103961181D01*
X148658819Y-103344873D01*
X148625334Y-103283550D01*
X148622500Y-103257192D01*
X148622500Y-98920232D01*
X148622499Y-98920228D01*
X148610925Y-98862041D01*
X148589816Y-98755918D01*
X148545100Y-98647965D01*
X148525704Y-98601137D01*
X148525702Y-98601134D01*
X148525700Y-98601129D01*
X148454803Y-98495028D01*
X148432626Y-98461838D01*
X148432622Y-98461834D01*
X148432620Y-98461831D01*
X147386714Y-97415926D01*
X147367010Y-97390248D01*
X147290533Y-97257784D01*
X147163871Y-97117112D01*
X147163870Y-97117111D01*
X147010734Y-97005851D01*
X147010729Y-97005848D01*
X146837807Y-96928857D01*
X146837802Y-96928855D01*
X146692001Y-96897865D01*
X146652646Y-96889500D01*
X146463354Y-96889500D01*
X146430897Y-96896398D01*
X146278197Y-96928855D01*
X146278192Y-96928857D01*
X146105270Y-97005848D01*
X146105265Y-97005851D01*
X145952129Y-97117111D01*
X145825466Y-97257785D01*
X145730821Y-97421715D01*
X145730818Y-97421722D01*
X145672327Y-97601740D01*
X145672326Y-97601744D01*
X145652540Y-97790000D01*
X145672326Y-97978256D01*
X145672327Y-97978259D01*
X145730818Y-98158277D01*
X145730821Y-98158284D01*
X145825467Y-98322216D01*
X145883899Y-98387111D01*
X145952129Y-98462888D01*
X146105265Y-98574148D01*
X146105267Y-98574149D01*
X146105270Y-98574151D01*
X146145730Y-98592165D01*
X146182973Y-98617762D01*
X146538982Y-98973771D01*
X146885181Y-99319969D01*
X146918666Y-99381292D01*
X146921500Y-99407650D01*
X146921500Y-102974348D01*
X146901815Y-103041387D01*
X146885181Y-103062029D01*
X144571375Y-105375834D01*
X144571372Y-105375838D01*
X144478297Y-105515133D01*
X144478296Y-105515136D01*
X144443174Y-105599930D01*
X144443174Y-105599931D01*
X144414184Y-105669917D01*
X144414182Y-105669922D01*
X144404313Y-105719539D01*
X144371927Y-105781449D01*
X144311211Y-105816023D01*
X144241442Y-105812282D01*
X144216911Y-105798690D01*
X144216158Y-105799889D01*
X144057521Y-105700210D01*
X143887249Y-105640630D01*
X143800330Y-105630837D01*
X143735916Y-105603770D01*
X143726533Y-105595298D01*
X140788819Y-102657584D01*
X140755334Y-102596261D01*
X140752500Y-102569903D01*
X140752500Y-101774945D01*
X140752500Y-101774943D01*
X140711577Y-101622216D01*
X140676990Y-101562309D01*
X140632524Y-101485290D01*
X140632521Y-101485286D01*
X140632520Y-101485284D01*
X140520716Y-101373480D01*
X140520715Y-101373479D01*
X140516385Y-101369149D01*
X140516374Y-101369139D01*
X140493231Y-101345996D01*
X141124435Y-101345996D01*
X141124435Y-101346003D01*
X141144630Y-101525249D01*
X141144631Y-101525254D01*
X141204211Y-101695523D01*
X141254116Y-101774945D01*
X141300184Y-101848262D01*
X141427738Y-101975816D01*
X141580478Y-102071789D01*
X141750745Y-102131368D01*
X141750746Y-102131368D01*
X141751592Y-102131664D01*
X141808368Y-102172386D01*
X141824194Y-102198896D01*
X141875826Y-102316606D01*
X142011833Y-102524782D01*
X142011836Y-102524785D01*
X142180256Y-102707738D01*
X142292698Y-102795255D01*
X142376494Y-102860476D01*
X142376496Y-102860477D01*
X142442609Y-102896255D01*
X142534517Y-102945993D01*
X142584108Y-102995212D01*
X142599500Y-103055048D01*
X142599500Y-103250330D01*
X142599499Y-103250348D01*
X142599499Y-103416054D01*
X142599498Y-103416054D01*
X142599499Y-103416057D01*
X142640423Y-103568785D01*
X142640424Y-103568786D01*
X142654438Y-103593061D01*
X142654439Y-103593062D01*
X142719475Y-103705709D01*
X142719481Y-103705717D01*
X142838349Y-103824585D01*
X142838355Y-103824590D01*
X142877298Y-103863533D01*
X142910783Y-103924856D01*
X142912837Y-103937330D01*
X142922630Y-104024249D01*
X142982210Y-104194521D01*
X143078184Y-104347262D01*
X143205738Y-104474816D01*
X143273679Y-104517506D01*
X143340207Y-104559309D01*
X143358478Y-104570789D01*
X143403235Y-104586450D01*
X143528745Y-104630368D01*
X143528750Y-104630369D01*
X143707996Y-104650565D01*
X143708000Y-104650565D01*
X143708004Y-104650565D01*
X143887249Y-104630369D01*
X143887252Y-104630368D01*
X143887255Y-104630368D01*
X144057522Y-104570789D01*
X144210262Y-104474816D01*
X144337816Y-104347262D01*
X144433789Y-104194522D01*
X144493368Y-104024255D01*
X144498389Y-103979692D01*
X144513565Y-103845003D01*
X144513565Y-103844996D01*
X144493369Y-103665750D01*
X144493368Y-103665745D01*
X144467935Y-103593061D01*
X144433789Y-103495478D01*
X144432229Y-103492996D01*
X144383885Y-103416057D01*
X144337816Y-103342738D01*
X144210262Y-103215184D01*
X144109553Y-103151904D01*
X144057523Y-103119211D01*
X144011205Y-103103004D01*
X143954429Y-103062282D01*
X143928682Y-102997329D01*
X143942138Y-102928768D01*
X143990525Y-102878365D01*
X143993144Y-102876907D01*
X144023499Y-102860480D01*
X144023505Y-102860476D01*
X144023504Y-102860476D01*
X144023509Y-102860474D01*
X144219744Y-102707738D01*
X144388164Y-102524785D01*
X144524173Y-102316607D01*
X144624063Y-102088881D01*
X144685108Y-101847821D01*
X144691147Y-101774943D01*
X144705643Y-101600005D01*
X144705643Y-101599994D01*
X144685109Y-101352187D01*
X144685107Y-101352175D01*
X144624063Y-101111118D01*
X144524173Y-100883393D01*
X144388166Y-100675217D01*
X144336481Y-100619072D01*
X144219744Y-100492262D01*
X144023509Y-100339526D01*
X144023507Y-100339525D01*
X144023506Y-100339524D01*
X143804811Y-100221172D01*
X143804802Y-100221169D01*
X143569616Y-100140429D01*
X143324335Y-100099500D01*
X143075665Y-100099500D01*
X142830383Y-100140429D01*
X142595197Y-100221169D01*
X142595188Y-100221172D01*
X142376491Y-100339525D01*
X142376487Y-100339528D01*
X142180257Y-100492261D01*
X142180256Y-100492261D01*
X142159160Y-100515177D01*
X142099271Y-100551166D01*
X142054050Y-100554411D01*
X141930004Y-100540435D01*
X141929996Y-100540435D01*
X141750750Y-100560630D01*
X141750745Y-100560631D01*
X141580476Y-100620211D01*
X141427737Y-100716184D01*
X141300184Y-100843737D01*
X141204211Y-100996476D01*
X141144631Y-101166745D01*
X141144630Y-101166750D01*
X141124435Y-101345996D01*
X140493231Y-101345996D01*
X140474700Y-101327465D01*
X140441215Y-101266142D01*
X140439163Y-101253686D01*
X140429368Y-101166745D01*
X140369789Y-100996478D01*
X140273816Y-100843738D01*
X140146262Y-100716184D01*
X140126809Y-100703961D01*
X139993523Y-100620211D01*
X139823254Y-100560631D01*
X139823249Y-100560630D01*
X139644004Y-100540435D01*
X139643996Y-100540435D01*
X139464750Y-100560630D01*
X139464745Y-100560631D01*
X139294476Y-100620211D01*
X139141737Y-100716184D01*
X139014184Y-100843737D01*
X138932949Y-100973022D01*
X138880614Y-101019313D01*
X138811560Y-101029961D01*
X138747712Y-101001586D01*
X138714399Y-100956860D01*
X138682173Y-100883393D01*
X138546166Y-100675217D01*
X138494481Y-100619072D01*
X138377744Y-100492262D01*
X138181509Y-100339526D01*
X138181507Y-100339525D01*
X138181506Y-100339524D01*
X137962811Y-100221172D01*
X137962802Y-100221169D01*
X137727616Y-100140429D01*
X137482335Y-100099500D01*
X137233665Y-100099500D01*
X136988383Y-100140429D01*
X136753197Y-100221169D01*
X136753188Y-100221172D01*
X136534493Y-100339524D01*
X136347771Y-100484856D01*
X136338256Y-100492262D01*
X136327452Y-100503997D01*
X136169833Y-100675217D01*
X136033826Y-100883393D01*
X135933936Y-101111118D01*
X135872892Y-101352175D01*
X135872890Y-101352187D01*
X135852357Y-101599994D01*
X135852357Y-101600005D01*
X135872890Y-101847812D01*
X135872892Y-101847824D01*
X135934654Y-102091714D01*
X135932029Y-102161534D01*
X135919442Y-102188125D01*
X135870209Y-102266478D01*
X135810633Y-102436737D01*
X135810630Y-102436750D01*
X135790435Y-102615996D01*
X135790435Y-102616003D01*
X135810630Y-102795249D01*
X135810631Y-102795254D01*
X135870211Y-102965523D01*
X135929305Y-103059570D01*
X135966184Y-103118262D01*
X136093738Y-103245816D01*
X136246478Y-103341789D01*
X136291635Y-103357590D01*
X136416745Y-103401368D01*
X136416750Y-103401369D01*
X136595996Y-103421565D01*
X136596000Y-103421565D01*
X136596004Y-103421565D01*
X136775249Y-103401369D01*
X136775252Y-103401368D01*
X136775255Y-103401368D01*
X136945522Y-103341789D01*
X137098262Y-103245816D01*
X137207260Y-103136818D01*
X137268583Y-103103334D01*
X137294941Y-103100500D01*
X137482335Y-103100500D01*
X137727614Y-103059571D01*
X137962810Y-102978828D01*
X138181509Y-102860474D01*
X138377744Y-102707738D01*
X138546164Y-102524785D01*
X138682173Y-102316607D01*
X138782063Y-102088881D01*
X138824014Y-101923219D01*
X138859554Y-101863064D01*
X138921974Y-101831672D01*
X138991457Y-101839010D01*
X139031901Y-101865979D01*
X139141738Y-101975816D01*
X139294478Y-102071789D01*
X139464745Y-102131368D01*
X139464748Y-102131368D01*
X139468454Y-102132665D01*
X139525230Y-102173387D01*
X139550978Y-102238339D01*
X139551500Y-102249707D01*
X139551500Y-102783330D01*
X139551499Y-102783348D01*
X139551499Y-102949054D01*
X139551498Y-102949054D01*
X139592423Y-103101785D01*
X139621358Y-103151900D01*
X139621359Y-103151904D01*
X139621360Y-103151904D01*
X139671479Y-103238714D01*
X139671481Y-103238717D01*
X139790349Y-103357585D01*
X139790355Y-103357590D01*
X142877298Y-106444533D01*
X142910783Y-106505856D01*
X142912837Y-106518330D01*
X142922630Y-106605249D01*
X142922631Y-106605254D01*
X142922632Y-106605255D01*
X142948978Y-106680547D01*
X142952539Y-106750324D01*
X142917810Y-106810952D01*
X142855817Y-106843179D01*
X142831936Y-106845500D01*
X141063651Y-106845500D01*
X140996612Y-106825815D01*
X140975970Y-106809181D01*
X139710715Y-105543926D01*
X139691009Y-105518245D01*
X139682074Y-105502769D01*
X139614533Y-105385784D01*
X139487871Y-105245112D01*
X139477386Y-105237494D01*
X139334734Y-105133851D01*
X139334729Y-105133848D01*
X139161807Y-105056857D01*
X139161802Y-105056855D01*
X139016001Y-105025865D01*
X138976646Y-105017500D01*
X138787354Y-105017500D01*
X138754897Y-105024398D01*
X138602197Y-105056855D01*
X138602192Y-105056857D01*
X138429270Y-105133848D01*
X138429265Y-105133851D01*
X138276129Y-105245111D01*
X138149465Y-105385785D01*
X138072990Y-105518244D01*
X138053284Y-105543925D01*
X136443375Y-107153834D01*
X136443372Y-107153838D01*
X136350297Y-107293133D01*
X136350296Y-107293136D01*
X136315174Y-107377930D01*
X136315174Y-107377931D01*
X136286184Y-107447917D01*
X136286182Y-107447925D01*
X136253500Y-107612228D01*
X136253500Y-108054349D01*
X136233815Y-108121388D01*
X136217181Y-108142030D01*
X135684030Y-108675181D01*
X135622707Y-108708666D01*
X135596349Y-108711500D01*
X132924228Y-108711500D01*
X132759925Y-108744182D01*
X132759917Y-108744184D01*
X132657168Y-108786745D01*
X132605139Y-108808295D01*
X132605130Y-108808300D01*
X132465838Y-108901373D01*
X132465834Y-108901376D01*
X129586181Y-111781030D01*
X129524858Y-111814515D01*
X129455166Y-111809531D01*
X129399233Y-111767659D01*
X129374816Y-111702195D01*
X129374500Y-111693349D01*
X129374500Y-111097651D01*
X129394185Y-111030612D01*
X129410819Y-111009970D01*
X130144624Y-110276165D01*
X130144627Y-110276162D01*
X130237704Y-110136863D01*
X130285762Y-110020839D01*
X130301816Y-109982082D01*
X130334500Y-109817767D01*
X130334500Y-108774149D01*
X130340569Y-108735831D01*
X130348312Y-108712000D01*
X130369674Y-108646256D01*
X130389460Y-108458000D01*
X130369674Y-108269744D01*
X130340569Y-108180168D01*
X130334500Y-108141850D01*
X130334500Y-104818232D01*
X130334499Y-104818228D01*
X130310026Y-104695192D01*
X130301816Y-104653918D01*
X130267383Y-104570789D01*
X130262628Y-104559309D01*
X130237707Y-104499143D01*
X130237700Y-104499130D01*
X130144627Y-104359838D01*
X130144624Y-104359834D01*
X130012469Y-104227679D01*
X129978984Y-104166356D01*
X129983968Y-104096664D01*
X130012467Y-104052319D01*
X130367026Y-103697760D01*
X130404266Y-103672166D01*
X130444730Y-103654151D01*
X130597871Y-103542888D01*
X130724533Y-103402216D01*
X130819179Y-103238284D01*
X130877674Y-103058256D01*
X130897460Y-102870000D01*
X130877674Y-102681744D01*
X130849899Y-102596261D01*
X130822787Y-102512818D01*
X130820792Y-102442977D01*
X130856872Y-102383144D01*
X130919573Y-102352316D01*
X130940718Y-102350500D01*
X131589920Y-102350500D01*
X131687462Y-102331096D01*
X131734913Y-102321658D01*
X131871495Y-102265084D01*
X131931431Y-102225036D01*
X131994416Y-102182952D01*
X134208770Y-99968595D01*
X134270091Y-99935112D01*
X134270427Y-99935039D01*
X134335803Y-99921144D01*
X134508730Y-99844151D01*
X134661871Y-99732888D01*
X134788533Y-99592216D01*
X134883179Y-99428284D01*
X134941674Y-99248256D01*
X134961460Y-99060000D01*
X134941674Y-98871744D01*
X134883179Y-98691716D01*
X134788533Y-98527784D01*
X134661871Y-98387112D01*
X134661870Y-98387111D01*
X134508734Y-98275851D01*
X134508729Y-98275848D01*
X134335807Y-98198857D01*
X134335802Y-98198855D01*
X134190001Y-98167865D01*
X134150646Y-98159500D01*
X133961354Y-98159500D01*
X133928897Y-98166398D01*
X133776197Y-98198855D01*
X133776192Y-98198857D01*
X133603270Y-98275848D01*
X133603265Y-98275851D01*
X133450129Y-98387111D01*
X133323466Y-98527785D01*
X133228821Y-98691715D01*
X133228819Y-98691719D01*
X133173478Y-98862041D01*
X133143228Y-98911403D01*
X131241451Y-100813181D01*
X131180128Y-100846666D01*
X131153770Y-100849500D01*
X125223900Y-100849500D01*
X125156861Y-100829815D01*
X125131750Y-100808472D01*
X125011766Y-100675217D01*
X125009871Y-100673112D01*
X125009870Y-100673111D01*
X124856734Y-100561851D01*
X124856729Y-100561848D01*
X124683807Y-100484857D01*
X124683802Y-100484855D01*
X124538001Y-100453865D01*
X124498646Y-100445500D01*
X124309354Y-100445500D01*
X124276897Y-100452398D01*
X124124197Y-100484855D01*
X124124192Y-100484857D01*
X123951270Y-100561848D01*
X123951265Y-100561851D01*
X123798129Y-100673111D01*
X123671466Y-100813785D01*
X123576821Y-100977715D01*
X123576818Y-100977722D01*
X123520687Y-101150478D01*
X123518326Y-101157744D01*
X123498540Y-101346000D01*
X123518326Y-101534256D01*
X123518327Y-101534258D01*
X123576818Y-101714277D01*
X123576821Y-101714284D01*
X123671467Y-101878216D01*
X123787673Y-102007275D01*
X123798129Y-102018888D01*
X123951265Y-102130148D01*
X123951270Y-102130151D01*
X124124191Y-102207142D01*
X124124197Y-102207144D01*
X124208519Y-102225067D01*
X124235219Y-102230742D01*
X124278328Y-102248929D01*
X124302505Y-102265084D01*
X124439087Y-102321658D01*
X124439091Y-102321658D01*
X124439092Y-102321659D01*
X124584079Y-102350500D01*
X124584082Y-102350500D01*
X129009349Y-102350500D01*
X129076388Y-102370185D01*
X129122143Y-102422989D01*
X129132087Y-102492147D01*
X129103062Y-102555703D01*
X129097030Y-102562181D01*
X128406030Y-103253181D01*
X128344707Y-103286666D01*
X128318349Y-103289500D01*
X122775650Y-103289500D01*
X122708611Y-103269815D01*
X122687969Y-103253181D01*
X118342165Y-98907375D01*
X118342161Y-98907372D01*
X118202866Y-98814297D01*
X118202863Y-98814296D01*
X118093416Y-98768962D01*
X118093414Y-98768961D01*
X118048086Y-98750185D01*
X118048074Y-98750182D01*
X117883771Y-98717500D01*
X117883767Y-98717500D01*
X112128233Y-98717500D01*
X112128228Y-98717500D01*
X111963925Y-98750182D01*
X111963913Y-98750185D01*
X111918583Y-98768962D01*
X111809143Y-98814292D01*
X111809130Y-98814299D01*
X111669838Y-98907372D01*
X111669834Y-98907375D01*
X110820973Y-99756236D01*
X110783731Y-99781833D01*
X110743268Y-99799849D01*
X110590129Y-99911111D01*
X110463466Y-100051785D01*
X110368821Y-100215715D01*
X110368818Y-100215722D01*
X110310327Y-100395740D01*
X110310326Y-100395744D01*
X110290540Y-100584000D01*
X110310326Y-100772256D01*
X110310327Y-100772259D01*
X110339431Y-100861831D01*
X110345500Y-100900149D01*
X110345500Y-106255771D01*
X110378182Y-106420074D01*
X110378184Y-106420082D01*
X110387210Y-106441873D01*
X110442292Y-106574856D01*
X110442299Y-106574869D01*
X110535372Y-106714161D01*
X110535375Y-106714165D01*
X111129283Y-107308072D01*
X111148989Y-107333753D01*
X111225465Y-107466214D01*
X111352129Y-107606888D01*
X111505265Y-107718148D01*
X111505270Y-107718151D01*
X111678192Y-107795142D01*
X111678197Y-107795144D01*
X111863354Y-107834500D01*
X111863355Y-107834500D01*
X112052644Y-107834500D01*
X112052646Y-107834500D01*
X112237803Y-107795144D01*
X112410730Y-107718151D01*
X112563871Y-107606888D01*
X112690533Y-107466216D01*
X112785179Y-107302284D01*
X112843674Y-107122256D01*
X112863460Y-106934000D01*
X112843674Y-106745744D01*
X112785179Y-106565716D01*
X112690533Y-106401784D01*
X112563871Y-106261112D01*
X112556520Y-106255771D01*
X112410734Y-106149851D01*
X112410732Y-106149850D01*
X112370270Y-106131835D01*
X112333026Y-106106237D01*
X112082819Y-105856030D01*
X112049334Y-105794707D01*
X112046500Y-105768349D01*
X112046500Y-100987651D01*
X112066185Y-100920612D01*
X112082819Y-100899970D01*
X112527970Y-100454819D01*
X112589293Y-100421334D01*
X112615651Y-100418500D01*
X117396349Y-100418500D01*
X117463388Y-100438185D01*
X117484030Y-100454819D01*
X121543282Y-104514070D01*
X121562988Y-104539751D01*
X121639465Y-104672214D01*
X121766129Y-104812888D01*
X121919265Y-104924148D01*
X121919270Y-104924151D01*
X122092192Y-105001142D01*
X122092197Y-105001144D01*
X122277354Y-105040500D01*
X122277355Y-105040500D01*
X122466644Y-105040500D01*
X122466646Y-105040500D01*
X122651803Y-105001144D01*
X122651808Y-105001141D01*
X122657986Y-104999135D01*
X122658209Y-104999821D01*
X122702067Y-104990500D01*
X128318349Y-104990500D01*
X128385388Y-105010185D01*
X128406030Y-105026819D01*
X128597181Y-105217970D01*
X128630666Y-105279293D01*
X128633500Y-105305651D01*
X128633500Y-108141850D01*
X128627431Y-108180168D01*
X128623912Y-108191000D01*
X128598326Y-108269744D01*
X128578540Y-108458000D01*
X128598326Y-108646256D01*
X128598327Y-108646259D01*
X128627431Y-108735831D01*
X128633500Y-108774149D01*
X128633500Y-109330348D01*
X128613815Y-109397387D01*
X128597181Y-109418029D01*
X127863375Y-110151834D01*
X127863372Y-110151838D01*
X127770299Y-110291130D01*
X127770292Y-110291143D01*
X127730793Y-110386506D01*
X127706184Y-110445916D01*
X127706181Y-110445925D01*
X127673500Y-110610228D01*
X127673500Y-112459850D01*
X127667431Y-112498168D01*
X127648782Y-112555565D01*
X127638326Y-112587744D01*
X127618540Y-112776000D01*
X127638326Y-112964256D01*
X127638327Y-112964259D01*
X127696818Y-113144277D01*
X127696821Y-113144284D01*
X127791467Y-113308216D01*
X127817834Y-113337499D01*
X127918129Y-113448888D01*
X128071265Y-113560148D01*
X128071270Y-113560151D01*
X128244192Y-113637142D01*
X128244197Y-113637144D01*
X128429354Y-113676500D01*
X128429355Y-113676500D01*
X128618644Y-113676500D01*
X128618646Y-113676500D01*
X128803803Y-113637144D01*
X128803808Y-113637141D01*
X128809986Y-113635135D01*
X128810209Y-113635821D01*
X128854067Y-113626500D01*
X129877768Y-113626500D01*
X129877769Y-113626499D01*
X130042082Y-113593816D01*
X130101307Y-113569284D01*
X130196863Y-113529704D01*
X130336162Y-113436627D01*
X133323969Y-110448818D01*
X133385292Y-110415334D01*
X133411650Y-110412500D01*
X136083768Y-110412500D01*
X136083769Y-110412499D01*
X136248082Y-110379816D01*
X136318335Y-110350716D01*
X136402863Y-110315704D01*
X136542162Y-110222627D01*
X137479028Y-109285759D01*
X137516268Y-109260165D01*
X137556730Y-109242151D01*
X137709871Y-109130888D01*
X137836533Y-108990216D01*
X137931179Y-108826284D01*
X137989674Y-108646256D01*
X138009460Y-108458000D01*
X137989674Y-108269744D01*
X137960569Y-108180168D01*
X137954500Y-108141850D01*
X137954500Y-108099651D01*
X137974185Y-108032612D01*
X137990819Y-108011970D01*
X138390561Y-107612228D01*
X138794320Y-107208468D01*
X138855641Y-107174985D01*
X138925332Y-107179969D01*
X138969680Y-107208470D01*
X140117834Y-108356624D01*
X140117838Y-108356627D01*
X140257132Y-108449701D01*
X140257133Y-108449701D01*
X140257137Y-108449704D01*
X140348589Y-108487584D01*
X140411918Y-108513816D01*
X140537618Y-108538819D01*
X140576228Y-108546499D01*
X140576232Y-108546500D01*
X140576233Y-108546500D01*
X140576234Y-108546500D01*
X140743767Y-108546500D01*
X144349192Y-108546500D01*
X144416231Y-108566185D01*
X144436873Y-108582819D01*
X145071325Y-109217272D01*
X145071328Y-109217275D01*
X145149505Y-109269511D01*
X145158942Y-109275816D01*
X145158943Y-109275817D01*
X145158942Y-109275817D01*
X145177871Y-109288464D01*
X145177872Y-109288464D01*
X145177873Y-109288465D01*
X145296256Y-109337501D01*
X145296260Y-109337501D01*
X145296261Y-109337502D01*
X145421928Y-109362500D01*
X145421931Y-109362500D01*
X147110501Y-109362500D01*
X147177540Y-109382185D01*
X147223295Y-109434989D01*
X147234501Y-109486500D01*
X147234501Y-109609876D01*
X147240908Y-109669483D01*
X147291202Y-109804328D01*
X147291206Y-109804335D01*
X147377452Y-109919544D01*
X147377455Y-109919547D01*
X147492664Y-110005793D01*
X147492671Y-110005797D01*
X147627517Y-110056091D01*
X147627516Y-110056091D01*
X147634444Y-110056835D01*
X147687127Y-110062500D01*
X149482872Y-110062499D01*
X149542483Y-110056091D01*
X149677331Y-110005796D01*
X149792546Y-109919546D01*
X149878796Y-109804331D01*
X149927810Y-109672916D01*
X149969681Y-109616984D01*
X150035145Y-109592566D01*
X150103418Y-109607417D01*
X150131673Y-109628569D01*
X150253599Y-109750495D01*
X150349673Y-109817767D01*
X150447165Y-109886032D01*
X150447167Y-109886033D01*
X150447170Y-109886035D01*
X150661337Y-109985903D01*
X150889592Y-110047063D01*
X151066034Y-110062500D01*
X151124999Y-110067659D01*
X151125000Y-110067659D01*
X151125001Y-110067659D01*
X151183966Y-110062500D01*
X151360408Y-110047063D01*
X151588663Y-109985903D01*
X151802830Y-109886035D01*
X151996401Y-109750495D01*
X152163495Y-109583401D01*
X152299035Y-109389830D01*
X152398903Y-109175663D01*
X152460063Y-108947408D01*
X152480659Y-108712000D01*
X152474124Y-108637307D01*
X152487890Y-108568808D01*
X152536505Y-108518625D01*
X152597652Y-108502500D01*
X153815770Y-108502500D01*
X153882809Y-108522185D01*
X153903451Y-108538819D01*
X154638692Y-109274059D01*
X154661358Y-109310125D01*
X154663188Y-109309244D01*
X154666209Y-109315518D01*
X154666211Y-109315522D01*
X154762184Y-109468262D01*
X154889738Y-109595816D01*
X155042478Y-109691789D01*
X155090147Y-109708469D01*
X155212745Y-109751368D01*
X155212750Y-109751369D01*
X155391996Y-109771565D01*
X155392000Y-109771565D01*
X155392004Y-109771565D01*
X155571249Y-109751369D01*
X155571252Y-109751368D01*
X155571255Y-109751368D01*
X155741522Y-109691789D01*
X155894262Y-109595816D01*
X156021816Y-109468262D01*
X156117789Y-109315522D01*
X156177368Y-109145255D01*
X156183431Y-109091446D01*
X156197565Y-108966003D01*
X156197565Y-108965996D01*
X156177369Y-108786750D01*
X156177368Y-108786745D01*
X156162475Y-108744184D01*
X156117789Y-108616478D01*
X156101245Y-108590149D01*
X156021815Y-108463737D01*
X155894262Y-108336184D01*
X155860981Y-108315272D01*
X155741522Y-108240211D01*
X155741518Y-108240209D01*
X155735244Y-108237188D01*
X155736125Y-108235358D01*
X155700059Y-108212692D01*
X154656421Y-107169052D01*
X154656414Y-107169046D01*
X154582412Y-107119600D01*
X154582313Y-107119535D01*
X154533495Y-107086916D01*
X154533494Y-107086915D01*
X154533492Y-107086914D01*
X154396917Y-107030343D01*
X154396907Y-107030340D01*
X154251920Y-107001500D01*
X154251918Y-107001500D01*
X152011082Y-107001500D01*
X152011080Y-107001500D01*
X151866092Y-107030340D01*
X151866082Y-107030343D01*
X151729508Y-107086913D01*
X151680687Y-107119535D01*
X151680686Y-107119534D01*
X151606589Y-107169044D01*
X151606586Y-107169046D01*
X151436500Y-107339131D01*
X151375176Y-107372615D01*
X151338012Y-107374977D01*
X151125002Y-107356341D01*
X151124999Y-107356341D01*
X150889596Y-107376936D01*
X150889586Y-107376938D01*
X150661344Y-107438094D01*
X150661335Y-107438098D01*
X150447171Y-107537964D01*
X150447169Y-107537965D01*
X150253600Y-107673503D01*
X150131673Y-107795430D01*
X150070350Y-107828914D01*
X150000658Y-107823930D01*
X149944725Y-107782058D01*
X149927810Y-107751081D01*
X149878797Y-107619671D01*
X149878793Y-107619664D01*
X149792547Y-107504455D01*
X149792544Y-107504452D01*
X149677335Y-107418206D01*
X149677328Y-107418202D01*
X149542482Y-107367908D01*
X149542483Y-107367908D01*
X149482883Y-107361501D01*
X149482881Y-107361500D01*
X149482873Y-107361500D01*
X149482864Y-107361500D01*
X147687129Y-107361500D01*
X147687123Y-107361501D01*
X147627516Y-107367908D01*
X147492671Y-107418202D01*
X147492664Y-107418206D01*
X147377455Y-107504452D01*
X147377452Y-107504455D01*
X147291206Y-107619664D01*
X147291202Y-107619671D01*
X147240908Y-107754517D01*
X147234501Y-107814116D01*
X147234500Y-107814135D01*
X147234500Y-107937500D01*
X147214815Y-108004539D01*
X147162011Y-108050294D01*
X147110500Y-108061500D01*
X145806808Y-108061500D01*
X145739769Y-108041815D01*
X145719127Y-108025181D01*
X145619048Y-107925102D01*
X145585563Y-107863779D01*
X145590547Y-107794087D01*
X145619045Y-107749742D01*
X145892627Y-107476162D01*
X145985704Y-107336863D01*
X146041980Y-107201000D01*
X146049816Y-107182082D01*
X146050127Y-107180523D01*
X146082499Y-107017771D01*
X146082500Y-107017768D01*
X146082500Y-106321649D01*
X146102185Y-106254610D01*
X146118814Y-106233973D01*
X147825740Y-104527046D01*
X147887063Y-104493562D01*
X147956755Y-104498546D01*
X148001102Y-104527047D01*
X148536724Y-105062669D01*
X148596636Y-105122581D01*
X148627332Y-105153277D01*
X148733866Y-105224461D01*
X148733872Y-105224464D01*
X148733873Y-105224465D01*
X148852256Y-105273501D01*
X148852260Y-105273501D01*
X148852261Y-105273502D01*
X148977928Y-105298500D01*
X148977931Y-105298500D01*
X156399500Y-105298500D01*
X156466539Y-105318185D01*
X156512294Y-105370989D01*
X156523500Y-105422500D01*
X156523500Y-106762696D01*
X156558103Y-106936659D01*
X156558105Y-106936665D01*
X156584961Y-107001500D01*
X156584960Y-107001500D01*
X156584961Y-107001501D01*
X156625987Y-107100547D01*
X156625988Y-107100549D01*
X156671758Y-107169048D01*
X156671758Y-107169049D01*
X156724532Y-107248031D01*
X156724538Y-107248039D01*
X157617961Y-108141462D01*
X157658097Y-108168280D01*
X157765448Y-108240010D01*
X157765449Y-108240010D01*
X157765453Y-108240013D01*
X157837231Y-108269744D01*
X157929334Y-108307895D01*
X158071555Y-108336184D01*
X158103303Y-108342499D01*
X158103307Y-108342500D01*
X158103308Y-108342500D01*
X158103309Y-108342500D01*
X159080500Y-108342500D01*
X159147539Y-108362185D01*
X159193294Y-108414989D01*
X159204500Y-108466500D01*
X159204500Y-110299736D01*
X159204820Y-110317718D01*
X159205139Y-110326634D01*
X159206103Y-110344620D01*
X159206105Y-110344635D01*
X159231750Y-110462520D01*
X159236688Y-110485218D01*
X159242335Y-110500358D01*
X159261105Y-110550683D01*
X159261107Y-110550687D01*
X159330056Y-110676957D01*
X159330056Y-110676958D01*
X159401129Y-110748032D01*
X159434614Y-110809355D01*
X159429628Y-110879047D01*
X159416549Y-110904602D01*
X159331374Y-111032075D01*
X159331364Y-111032093D01*
X159304210Y-111097651D01*
X159295160Y-111119501D01*
X159255949Y-111214164D01*
X159251573Y-111236160D01*
X159251573Y-111236161D01*
X159217500Y-111407455D01*
X159217500Y-116068901D01*
X159197815Y-116135940D01*
X159145011Y-116181695D01*
X159075853Y-116191639D01*
X159012297Y-116162614D01*
X159005819Y-116156582D01*
X154237590Y-111388355D01*
X154237588Y-111388352D01*
X154118717Y-111269481D01*
X154118709Y-111269475D01*
X154016936Y-111210717D01*
X154016934Y-111210716D01*
X153981790Y-111190425D01*
X153981789Y-111190424D01*
X153969263Y-111187067D01*
X153829057Y-111149499D01*
X153670943Y-111149499D01*
X153663347Y-111149499D01*
X153663331Y-111149500D01*
X145332412Y-111149500D01*
X145265373Y-111129815D01*
X145255097Y-111122445D01*
X145252263Y-111120185D01*
X145252262Y-111120184D01*
X145195496Y-111084515D01*
X145099523Y-111024211D01*
X144929254Y-110964631D01*
X144929249Y-110964630D01*
X144750004Y-110944435D01*
X144749996Y-110944435D01*
X144570750Y-110964630D01*
X144570745Y-110964631D01*
X144400476Y-111024211D01*
X144247737Y-111120184D01*
X144120184Y-111247737D01*
X144024211Y-111400476D01*
X143964631Y-111570745D01*
X143964630Y-111570750D01*
X143944435Y-111749996D01*
X143944435Y-111750003D01*
X143964630Y-111929249D01*
X143964631Y-111929254D01*
X144024211Y-112099523D01*
X144120184Y-112252262D01*
X144247738Y-112379816D01*
X144400478Y-112475789D01*
X144464434Y-112498168D01*
X144570745Y-112535368D01*
X144570750Y-112535369D01*
X144749996Y-112555565D01*
X144750000Y-112555565D01*
X144750004Y-112555565D01*
X144929249Y-112535369D01*
X144929252Y-112535368D01*
X144929255Y-112535368D01*
X145099522Y-112475789D01*
X145252262Y-112379816D01*
X145252267Y-112379810D01*
X145255097Y-112377555D01*
X145257275Y-112376665D01*
X145258158Y-112376111D01*
X145258255Y-112376265D01*
X145319783Y-112351145D01*
X145332412Y-112350500D01*
X153449903Y-112350500D01*
X153516942Y-112370185D01*
X153537584Y-112386819D01*
X158098181Y-116947416D01*
X158131666Y-117008739D01*
X158134500Y-117035097D01*
X158134500Y-117273587D01*
X158114815Y-117340626D01*
X158107450Y-117350896D01*
X158105184Y-117353737D01*
X158058944Y-117427326D01*
X158006609Y-117473617D01*
X157937555Y-117484264D01*
X157873707Y-117455888D01*
X157866270Y-117449034D01*
X153993590Y-113576355D01*
X153993588Y-113576352D01*
X153874717Y-113457481D01*
X153874716Y-113457480D01*
X153772933Y-113398716D01*
X153737785Y-113378423D01*
X153585057Y-113337499D01*
X153426943Y-113337499D01*
X153419347Y-113337499D01*
X153419331Y-113337500D01*
X132363942Y-113337500D01*
X132211213Y-113378423D01*
X132176067Y-113398716D01*
X132176066Y-113398716D01*
X132074287Y-113457477D01*
X132074282Y-113457481D01*
X131962478Y-113569286D01*
X130918584Y-114613181D01*
X130857261Y-114646666D01*
X130830903Y-114649500D01*
X118288097Y-114649500D01*
X118221058Y-114629815D01*
X118200416Y-114613181D01*
X118182819Y-114595584D01*
X118149334Y-114534261D01*
X118146500Y-114507903D01*
X118146500Y-106600945D01*
X118146499Y-106600941D01*
X118145916Y-106598766D01*
X118127796Y-106531137D01*
X118105577Y-106448215D01*
X118050333Y-106352530D01*
X118026520Y-106311284D01*
X117914716Y-106199480D01*
X117914715Y-106199479D01*
X117910385Y-106195149D01*
X117910374Y-106195139D01*
X117320819Y-105605584D01*
X117287334Y-105544261D01*
X117284500Y-105517903D01*
X117284500Y-102082412D01*
X117304185Y-102015373D01*
X117311555Y-102005097D01*
X117313810Y-102002267D01*
X117313816Y-102002262D01*
X117409789Y-101849522D01*
X117469368Y-101679255D01*
X117472552Y-101650999D01*
X117489565Y-101500003D01*
X117489565Y-101499996D01*
X117469369Y-101320750D01*
X117469368Y-101320745D01*
X117460984Y-101296784D01*
X117409789Y-101150478D01*
X117385057Y-101111118D01*
X117324872Y-101015334D01*
X117313816Y-100997738D01*
X117186262Y-100870184D01*
X117170839Y-100860493D01*
X117033523Y-100774211D01*
X116863254Y-100714631D01*
X116863249Y-100714630D01*
X116684004Y-100694435D01*
X116683996Y-100694435D01*
X116504750Y-100714630D01*
X116504745Y-100714631D01*
X116334476Y-100774211D01*
X116181737Y-100870184D01*
X116054184Y-100997737D01*
X115958211Y-101150476D01*
X115898631Y-101320745D01*
X115898630Y-101320750D01*
X115878435Y-101499996D01*
X115878435Y-101500003D01*
X115898630Y-101679249D01*
X115898631Y-101679254D01*
X115958211Y-101849523D01*
X116054185Y-102002263D01*
X116056445Y-102005097D01*
X116057334Y-102007275D01*
X116057889Y-102008158D01*
X116057734Y-102008255D01*
X116082855Y-102069783D01*
X116083500Y-102082412D01*
X116083500Y-105731330D01*
X116083499Y-105731348D01*
X116083499Y-105897054D01*
X116083498Y-105897054D01*
X116124424Y-106049789D01*
X116124425Y-106049790D01*
X116146620Y-106088232D01*
X116146621Y-106088233D01*
X116203477Y-106186712D01*
X116203481Y-106186717D01*
X116322349Y-106305585D01*
X116322355Y-106305590D01*
X116909181Y-106892416D01*
X116942666Y-106953739D01*
X116945500Y-106980097D01*
X116945500Y-114721330D01*
X116945499Y-114721348D01*
X116945499Y-114887054D01*
X116945498Y-114887054D01*
X116945499Y-114887057D01*
X116986423Y-115039785D01*
X117012741Y-115085368D01*
X117065479Y-115176714D01*
X117065481Y-115176717D01*
X117184349Y-115295585D01*
X117184355Y-115295590D01*
X117503139Y-115614374D01*
X117503149Y-115614385D01*
X117507479Y-115618715D01*
X117507480Y-115618716D01*
X117619284Y-115730520D01*
X117619286Y-115730521D01*
X117619290Y-115730524D01*
X117747370Y-115804470D01*
X117756216Y-115809577D01*
X117868019Y-115839534D01*
X117908942Y-115850500D01*
X117908943Y-115850500D01*
X131044331Y-115850500D01*
X131044347Y-115850501D01*
X131051943Y-115850501D01*
X131210054Y-115850501D01*
X131210057Y-115850501D01*
X131362785Y-115809577D01*
X131412904Y-115780639D01*
X131499716Y-115730520D01*
X131611520Y-115618716D01*
X131611520Y-115618714D01*
X131621728Y-115608507D01*
X131621729Y-115608504D01*
X132655416Y-114574819D01*
X132716739Y-114541334D01*
X132743097Y-114538500D01*
X153205903Y-114538500D01*
X153272942Y-114558185D01*
X153293584Y-114574819D01*
X155857583Y-117138819D01*
X155891068Y-117200142D01*
X155886084Y-117269834D01*
X155844212Y-117325767D01*
X155778748Y-117350184D01*
X155769902Y-117350500D01*
X154745047Y-117350500D01*
X154678008Y-117330815D01*
X154657366Y-117314181D01*
X154185913Y-116842727D01*
X154185912Y-116842726D01*
X154081844Y-116773191D01*
X154079366Y-116771535D01*
X153960983Y-116722499D01*
X153960977Y-116722497D01*
X153835310Y-116697500D01*
X153835308Y-116697500D01*
X141090480Y-116697500D01*
X141023441Y-116677815D01*
X140983093Y-116635500D01*
X140940533Y-116561784D01*
X140813871Y-116421112D01*
X140813870Y-116421111D01*
X140660734Y-116309851D01*
X140660729Y-116309848D01*
X140487807Y-116232857D01*
X140487802Y-116232855D01*
X140342001Y-116201865D01*
X140302646Y-116193500D01*
X140302645Y-116193500D01*
X140278808Y-116193500D01*
X140211769Y-116173815D01*
X140191127Y-116157181D01*
X139778674Y-115744727D01*
X139778673Y-115744726D01*
X139757418Y-115730524D01*
X139672127Y-115673535D01*
X139553744Y-115624499D01*
X139553738Y-115624497D01*
X139428071Y-115599500D01*
X139428069Y-115599500D01*
X134073931Y-115599500D01*
X134073929Y-115599500D01*
X133948261Y-115624497D01*
X133948255Y-115624499D01*
X133829874Y-115673534D01*
X133723326Y-115744726D01*
X131264724Y-118203328D01*
X131200841Y-118298938D01*
X131193539Y-118309866D01*
X131193533Y-118309877D01*
X131144499Y-118428255D01*
X131144497Y-118428261D01*
X131119500Y-118553928D01*
X131119500Y-123576500D01*
X131099815Y-123643539D01*
X131047011Y-123689294D01*
X130995500Y-123700500D01*
X128215373Y-123700500D01*
X128148334Y-123680815D01*
X128102579Y-123628011D01*
X128092052Y-123589460D01*
X128083674Y-123509745D01*
X128083672Y-123509740D01*
X128025179Y-123329716D01*
X127930533Y-123165784D01*
X127803871Y-123025112D01*
X127803870Y-123025111D01*
X127650734Y-122913851D01*
X127650729Y-122913848D01*
X127477807Y-122836857D01*
X127477802Y-122836855D01*
X127332001Y-122805865D01*
X127292646Y-122797500D01*
X127103354Y-122797500D01*
X127070897Y-122804398D01*
X126918197Y-122836855D01*
X126918192Y-122836857D01*
X126745270Y-122913848D01*
X126745265Y-122913851D01*
X126592129Y-123025111D01*
X126465466Y-123165785D01*
X126370821Y-123329715D01*
X126370818Y-123329722D01*
X126312327Y-123509740D01*
X126312326Y-123509744D01*
X126292540Y-123698000D01*
X126312326Y-123886256D01*
X126312327Y-123886259D01*
X126370818Y-124066277D01*
X126370821Y-124066284D01*
X126465467Y-124230216D01*
X126592129Y-124370888D01*
X126745272Y-124482153D01*
X126750896Y-124485400D01*
X126749293Y-124488176D01*
X126792074Y-124523966D01*
X126805117Y-124549469D01*
X126823446Y-124598610D01*
X126823448Y-124598613D01*
X126823450Y-124598619D01*
X126840550Y-124629935D01*
X126856935Y-124659942D01*
X126856936Y-124659944D01*
X126943152Y-124775116D01*
X126943168Y-124775134D01*
X127573850Y-125405814D01*
X127589271Y-125424605D01*
X127629878Y-125485378D01*
X127641337Y-125506815D01*
X127669302Y-125574328D01*
X127676358Y-125597586D01*
X127683770Y-125634843D01*
X127683770Y-125634845D01*
X127690617Y-125669264D01*
X127693000Y-125693457D01*
X127693000Y-125766539D01*
X127690617Y-125790733D01*
X127676358Y-125862410D01*
X127669302Y-125885668D01*
X127641335Y-125953187D01*
X127629876Y-125974625D01*
X127589275Y-126035389D01*
X127573854Y-126054180D01*
X127522180Y-126105854D01*
X127503390Y-126121275D01*
X127442628Y-126161875D01*
X127421191Y-126173334D01*
X127353667Y-126201304D01*
X127330405Y-126208360D01*
X127281393Y-126218109D01*
X127258731Y-126222617D01*
X127234541Y-126225000D01*
X127161460Y-126225000D01*
X127137269Y-126222617D01*
X127117553Y-126218695D01*
X127065589Y-126208358D01*
X127042329Y-126201302D01*
X126974811Y-126173335D01*
X126953374Y-126161876D01*
X126892607Y-126121273D01*
X126873816Y-126105852D01*
X125763931Y-124995967D01*
X124652842Y-123884877D01*
X124612580Y-123848712D01*
X124591938Y-123832078D01*
X124591932Y-123832073D01*
X124548054Y-123800433D01*
X124417180Y-123740663D01*
X124350135Y-123720976D01*
X124288072Y-123712053D01*
X124207718Y-123700500D01*
X102983220Y-123700500D01*
X102916181Y-123680815D01*
X102870426Y-123628011D01*
X102859220Y-123576500D01*
X102859220Y-119499992D01*
X103744671Y-119499992D01*
X103744671Y-119500007D01*
X103763964Y-119794363D01*
X103763965Y-119794373D01*
X103763966Y-119794380D01*
X103820315Y-120077671D01*
X103821518Y-120083716D01*
X103821521Y-120083730D01*
X103916349Y-120363080D01*
X104046825Y-120627660D01*
X104046829Y-120627667D01*
X104210725Y-120872955D01*
X104405241Y-121094758D01*
X104627043Y-121289273D01*
X104872335Y-121453172D01*
X105136923Y-121583652D01*
X105416278Y-121678481D01*
X105705620Y-121736034D01*
X105733888Y-121737886D01*
X105999993Y-121755329D01*
X106000000Y-121755329D01*
X106000007Y-121755329D01*
X106235675Y-121739881D01*
X106294380Y-121736034D01*
X106583722Y-121678481D01*
X106863077Y-121583652D01*
X107127665Y-121453172D01*
X107372957Y-121289273D01*
X107594758Y-121094758D01*
X107789273Y-120872957D01*
X107953172Y-120627665D01*
X108083652Y-120363077D01*
X108178481Y-120083722D01*
X108236034Y-119794380D01*
X108250399Y-119575215D01*
X108255329Y-119500007D01*
X108255329Y-119499992D01*
X108236035Y-119205636D01*
X108236034Y-119205620D01*
X108178481Y-118916278D01*
X108083652Y-118636923D01*
X107953172Y-118372336D01*
X107871427Y-118249995D01*
X110434732Y-118249995D01*
X110434732Y-118250004D01*
X110453777Y-118504154D01*
X110477541Y-118608273D01*
X110510492Y-118752637D01*
X110592971Y-118962789D01*
X110603608Y-118989890D01*
X110609156Y-118999500D01*
X110731041Y-119210612D01*
X110889950Y-119409877D01*
X111076783Y-119583232D01*
X111287366Y-119726805D01*
X111287371Y-119726807D01*
X111287372Y-119726808D01*
X111287373Y-119726809D01*
X111409328Y-119785538D01*
X111516992Y-119837387D01*
X111516993Y-119837387D01*
X111516996Y-119837389D01*
X111760542Y-119912513D01*
X112012565Y-119950500D01*
X112267435Y-119950500D01*
X112519458Y-119912513D01*
X112763004Y-119837389D01*
X112992634Y-119726805D01*
X113203217Y-119583232D01*
X113390050Y-119409877D01*
X113548959Y-119210612D01*
X113676393Y-118989888D01*
X113769508Y-118752637D01*
X113826222Y-118504157D01*
X113845268Y-118250000D01*
X113841789Y-118203580D01*
X113826222Y-117995845D01*
X113805542Y-117905242D01*
X113769508Y-117747363D01*
X113676393Y-117510112D01*
X113548959Y-117289388D01*
X113390050Y-117090123D01*
X113203217Y-116916768D01*
X112992634Y-116773195D01*
X112992630Y-116773193D01*
X112992627Y-116773191D01*
X112992626Y-116773190D01*
X112763006Y-116662612D01*
X112763008Y-116662612D01*
X112519466Y-116587489D01*
X112519462Y-116587488D01*
X112519458Y-116587487D01*
X112398231Y-116569214D01*
X112267440Y-116549500D01*
X112267435Y-116549500D01*
X112012565Y-116549500D01*
X112012559Y-116549500D01*
X111855609Y-116573157D01*
X111760542Y-116587487D01*
X111760539Y-116587488D01*
X111760533Y-116587489D01*
X111516992Y-116662612D01*
X111287373Y-116773190D01*
X111287372Y-116773191D01*
X111076782Y-116916768D01*
X110889952Y-117090121D01*
X110889950Y-117090123D01*
X110731041Y-117289388D01*
X110603608Y-117510109D01*
X110510492Y-117747362D01*
X110510490Y-117747369D01*
X110453777Y-117995845D01*
X110434732Y-118249995D01*
X107871427Y-118249995D01*
X107789273Y-118127043D01*
X107674215Y-117995845D01*
X107594758Y-117905241D01*
X107372955Y-117710725D01*
X107127667Y-117546829D01*
X107127660Y-117546825D01*
X106863080Y-117416349D01*
X106583730Y-117321521D01*
X106583724Y-117321519D01*
X106583722Y-117321519D01*
X106294380Y-117263966D01*
X106294373Y-117263965D01*
X106294363Y-117263964D01*
X106000007Y-117244671D01*
X105999993Y-117244671D01*
X105705636Y-117263964D01*
X105705624Y-117263965D01*
X105705620Y-117263966D01*
X105705612Y-117263967D01*
X105705609Y-117263968D01*
X105416283Y-117321518D01*
X105416269Y-117321521D01*
X105136919Y-117416349D01*
X104872334Y-117546828D01*
X104627041Y-117710728D01*
X104405241Y-117905241D01*
X104210728Y-118127041D01*
X104046828Y-118372334D01*
X103916349Y-118636919D01*
X103821521Y-118916269D01*
X103821518Y-118916283D01*
X103763968Y-119205609D01*
X103763964Y-119205636D01*
X103744671Y-119499992D01*
X102859220Y-119499992D01*
X102859220Y-100708000D01*
X102878905Y-100640961D01*
X102931709Y-100595206D01*
X102983220Y-100584000D01*
X106370000Y-100584000D01*
X109417181Y-97536819D01*
X109478504Y-97503334D01*
X109504862Y-97500500D01*
X117713138Y-97500500D01*
X117780177Y-97520185D01*
X117800819Y-97536819D01*
X118816000Y-98552000D01*
X131394000Y-98552000D01*
X135167681Y-94778319D01*
X135229004Y-94744834D01*
X135255362Y-94742000D01*
X145688638Y-94742000D01*
X145755677Y-94761685D01*
G37*
%TD.AperFunction*%
%TA.AperFunction,Conductor*%
G36*
X133218103Y-118192354D02*
G01*
X133274037Y-118234225D01*
X133298423Y-118299269D01*
X133313777Y-118504155D01*
X133350946Y-118667001D01*
X133370492Y-118752637D01*
X133452971Y-118962789D01*
X133463608Y-118989890D01*
X133469156Y-118999500D01*
X133591041Y-119210612D01*
X133749950Y-119409877D01*
X133936783Y-119583232D01*
X134147366Y-119726805D01*
X134147371Y-119726807D01*
X134147372Y-119726808D01*
X134147373Y-119726809D01*
X134269328Y-119785538D01*
X134376992Y-119837387D01*
X134376993Y-119837387D01*
X134376996Y-119837389D01*
X134620542Y-119912513D01*
X134872565Y-119950500D01*
X135127435Y-119950500D01*
X135379458Y-119912513D01*
X135477488Y-119882273D01*
X135547349Y-119881323D01*
X135601717Y-119913084D01*
X136527049Y-120838416D01*
X136631584Y-120942951D01*
X136631587Y-120942953D01*
X136631588Y-120942954D01*
X136754494Y-121025077D01*
X136754498Y-121025079D01*
X136754505Y-121025084D01*
X136791747Y-121040510D01*
X136891088Y-121081659D01*
X137007241Y-121104763D01*
X137026468Y-121108587D01*
X137036081Y-121110500D01*
X137036082Y-121110500D01*
X137036083Y-121110500D01*
X137183918Y-121110500D01*
X138048271Y-121110500D01*
X138115310Y-121130185D01*
X138161065Y-121182989D01*
X138161827Y-121184691D01*
X138175825Y-121216605D01*
X138311833Y-121424782D01*
X138311836Y-121424785D01*
X138480256Y-121607738D01*
X138676491Y-121760474D01*
X138895190Y-121878828D01*
X139130386Y-121959571D01*
X139375665Y-122000500D01*
X139624335Y-122000500D01*
X139869614Y-121959571D01*
X140104810Y-121878828D01*
X140323509Y-121760474D01*
X140519744Y-121607738D01*
X140688164Y-121424785D01*
X140824173Y-121216607D01*
X140824174Y-121216605D01*
X140838173Y-121184691D01*
X140883128Y-121131205D01*
X140949864Y-121110514D01*
X140951729Y-121110500D01*
X142293920Y-121110500D01*
X142391462Y-121091096D01*
X142438913Y-121081658D01*
X142575495Y-121025084D01*
X142633483Y-120986338D01*
X142698416Y-120942952D01*
X143606770Y-120034595D01*
X143668091Y-120001112D01*
X143668427Y-120001039D01*
X143733803Y-119987144D01*
X143906730Y-119910151D01*
X144059871Y-119798888D01*
X144186533Y-119658216D01*
X144281179Y-119494284D01*
X144339674Y-119314256D01*
X144359460Y-119126000D01*
X144339674Y-118937744D01*
X144281179Y-118757716D01*
X144214658Y-118642499D01*
X144198186Y-118574600D01*
X144221039Y-118508573D01*
X144275960Y-118465382D01*
X144322046Y-118456500D01*
X147523159Y-118456500D01*
X147590198Y-118476185D01*
X147635953Y-118528989D01*
X147645897Y-118598147D01*
X147643646Y-118608273D01*
X147643687Y-118608282D01*
X147617500Y-118739928D01*
X147617500Y-119826658D01*
X147597815Y-119893697D01*
X147585669Y-119909609D01*
X147524312Y-119977783D01*
X147492798Y-120016479D01*
X147492794Y-120016484D01*
X147478358Y-120036114D01*
X147478348Y-120036128D01*
X147450844Y-120077671D01*
X147450843Y-120077673D01*
X147395781Y-120210602D01*
X147395779Y-120210608D01*
X147387803Y-120241855D01*
X147381227Y-120252936D01*
X147370998Y-120348075D01*
X147344260Y-120412626D01*
X147286867Y-120452474D01*
X147271902Y-120456436D01*
X147239168Y-120462947D01*
X147239165Y-120462948D01*
X147057089Y-120538367D01*
X147057077Y-120538373D01*
X147034289Y-120553601D01*
X146967612Y-120574480D01*
X146965397Y-120574500D01*
X146659228Y-120574500D01*
X146494925Y-120607182D01*
X146494917Y-120607184D01*
X146340139Y-120671295D01*
X146200837Y-120764373D01*
X146082373Y-120882837D01*
X145989296Y-121022137D01*
X145931419Y-121161864D01*
X145904539Y-121202091D01*
X141948573Y-125158058D01*
X141887250Y-125191543D01*
X141817558Y-125186559D01*
X141779691Y-125164091D01*
X141671606Y-125070433D01*
X141671603Y-125070431D01*
X141671601Y-125070430D01*
X141540735Y-125010664D01*
X141540730Y-125010662D01*
X141540729Y-125010662D01*
X141475839Y-124991608D01*
X141473687Y-124990976D01*
X141426214Y-124984150D01*
X141331270Y-124970500D01*
X135341509Y-124970500D01*
X135341479Y-124970500D01*
X135327087Y-124970705D01*
X135319988Y-124970908D01*
X135305624Y-124971523D01*
X135164606Y-125000085D01*
X135136041Y-125010275D01*
X135107491Y-125020459D01*
X135107307Y-125020525D01*
X135099701Y-125020959D01*
X135078280Y-125030496D01*
X135071117Y-125033363D01*
X135067337Y-125035369D01*
X134952640Y-125086434D01*
X134927990Y-125094444D01*
X134895942Y-125101256D01*
X134872262Y-125106290D01*
X134846482Y-125109000D01*
X134789518Y-125109000D01*
X134763736Y-125106290D01*
X134708012Y-125094445D01*
X134683362Y-125086436D01*
X134606519Y-125052223D01*
X134606516Y-125052222D01*
X134606514Y-125052221D01*
X134606512Y-125052219D01*
X134559255Y-125031179D01*
X134555434Y-125029399D01*
X134548267Y-125025911D01*
X134548044Y-125025831D01*
X134539721Y-125022482D01*
X134537090Y-125021311D01*
X134535438Y-125019907D01*
X134502635Y-125010275D01*
X134502596Y-125010264D01*
X134483926Y-125004775D01*
X134481087Y-125003884D01*
X134480485Y-125003764D01*
X134453967Y-124995967D01*
X134453789Y-124995932D01*
X134439061Y-124991608D01*
X134437465Y-124991108D01*
X134436905Y-124990975D01*
X134294491Y-124970500D01*
X132848746Y-124970500D01*
X132781707Y-124950815D01*
X132761065Y-124934181D01*
X132456819Y-124629935D01*
X132423334Y-124568612D01*
X132420500Y-124542254D01*
X132420500Y-118938807D01*
X132440185Y-118871768D01*
X132456815Y-118851130D01*
X133087091Y-118220853D01*
X133148412Y-118187370D01*
X133218103Y-118192354D01*
G37*
%TD.AperFunction*%
%TD*%
%TA.AperFunction,Conductor*%
%TO.N,GND*%
G36*
X196337736Y-62984726D02*
G01*
X196627796Y-63002271D01*
X196642659Y-63004076D01*
X196924798Y-63055780D01*
X196939335Y-63059363D01*
X197213172Y-63144695D01*
X197227163Y-63150000D01*
X197488743Y-63267727D01*
X197501989Y-63274680D01*
X197747465Y-63423075D01*
X197759776Y-63431573D01*
X197985573Y-63608473D01*
X197996781Y-63618403D01*
X198199596Y-63821218D01*
X198209526Y-63832426D01*
X198329481Y-63985538D01*
X198386422Y-64058217D01*
X198394928Y-64070540D01*
X198543316Y-64316004D01*
X198550275Y-64329263D01*
X198667997Y-64590831D01*
X198673306Y-64604832D01*
X198758635Y-64878663D01*
X198762219Y-64893201D01*
X198813923Y-65175340D01*
X198815728Y-65190205D01*
X198833274Y-65480263D01*
X198833500Y-65487750D01*
X198833500Y-135680249D01*
X198833274Y-135687736D01*
X198815728Y-135977794D01*
X198813923Y-135992659D01*
X198762219Y-136274798D01*
X198758635Y-136289336D01*
X198673306Y-136563167D01*
X198667997Y-136577168D01*
X198550275Y-136838736D01*
X198543316Y-136851995D01*
X198394928Y-137097459D01*
X198386422Y-137109782D01*
X198209526Y-137335573D01*
X198199596Y-137346781D01*
X197996781Y-137549596D01*
X197985573Y-137559526D01*
X197759782Y-137736422D01*
X197747459Y-137744928D01*
X197501995Y-137893316D01*
X197488736Y-137900275D01*
X197227168Y-138017997D01*
X197213167Y-138023306D01*
X196939336Y-138108635D01*
X196924798Y-138112219D01*
X196642659Y-138163923D01*
X196627794Y-138165728D01*
X196337736Y-138183274D01*
X196330249Y-138183500D01*
X105432219Y-138183500D01*
X105432203Y-138183499D01*
X105362465Y-138183499D01*
X105354979Y-138183273D01*
X105064919Y-138165730D01*
X105050054Y-138163925D01*
X104767922Y-138112224D01*
X104753389Y-138108642D01*
X104616460Y-138065975D01*
X104479538Y-138023309D01*
X104465537Y-138017999D01*
X104203973Y-137900280D01*
X104190714Y-137893321D01*
X103945249Y-137744933D01*
X103932926Y-137736427D01*
X103707137Y-137559535D01*
X103695929Y-137549606D01*
X103493104Y-137346783D01*
X103483174Y-137335574D01*
X103483173Y-137335573D01*
X103306276Y-137109781D01*
X103297778Y-137097470D01*
X103149378Y-136851988D01*
X103142429Y-136838746D01*
X103024702Y-136577168D01*
X103019403Y-136563198D01*
X102934060Y-136289322D01*
X102930481Y-136274800D01*
X102904950Y-136135483D01*
X102878775Y-135992659D01*
X102876971Y-135977796D01*
X102859446Y-135688066D01*
X102859220Y-135680579D01*
X102859220Y-133926135D01*
X118433500Y-133926135D01*
X118433500Y-135821870D01*
X118433501Y-135821876D01*
X118439908Y-135881483D01*
X118490202Y-136016328D01*
X118490206Y-136016335D01*
X118576452Y-136131544D01*
X118576455Y-136131547D01*
X118691664Y-136217793D01*
X118691671Y-136217797D01*
X118826517Y-136268091D01*
X118826516Y-136268091D01*
X118833444Y-136268835D01*
X118886127Y-136274500D01*
X120381872Y-136274499D01*
X120441483Y-136268091D01*
X120576331Y-136217796D01*
X120691546Y-136131546D01*
X120777796Y-136016331D01*
X120828091Y-135881483D01*
X120834500Y-135821873D01*
X120834499Y-135605906D01*
X120854183Y-135538870D01*
X120906987Y-135493115D01*
X120976145Y-135483171D01*
X121039701Y-135512196D01*
X121068984Y-135549614D01*
X121137458Y-135684000D01*
X121147240Y-135703199D01*
X121258310Y-135856073D01*
X121391927Y-135989690D01*
X121544801Y-136100760D01*
X121605218Y-136131544D01*
X121713163Y-136186545D01*
X121713165Y-136186545D01*
X121713168Y-136186547D01*
X121809333Y-136217793D01*
X121892881Y-136244940D01*
X122079514Y-136274500D01*
X122079519Y-136274500D01*
X122268486Y-136274500D01*
X122455118Y-136244940D01*
X122458974Y-136243687D01*
X122634832Y-136186547D01*
X122803199Y-136100760D01*
X122956073Y-135989690D01*
X123089690Y-135856073D01*
X123200760Y-135703199D01*
X123286547Y-135534832D01*
X123344940Y-135355118D01*
X123374500Y-135168486D01*
X123374500Y-134579513D01*
X125037500Y-134579513D01*
X125037500Y-135168486D01*
X125067059Y-135355118D01*
X125125454Y-135534836D01*
X125201458Y-135684000D01*
X125211240Y-135703199D01*
X125322310Y-135856073D01*
X125455927Y-135989690D01*
X125608801Y-136100760D01*
X125669218Y-136131544D01*
X125777163Y-136186545D01*
X125777165Y-136186545D01*
X125777168Y-136186547D01*
X125873333Y-136217793D01*
X125956881Y-136244940D01*
X126143514Y-136274500D01*
X126143519Y-136274500D01*
X126332486Y-136274500D01*
X126519118Y-136244940D01*
X126522974Y-136243687D01*
X126698832Y-136186547D01*
X126867199Y-136100760D01*
X127020073Y-135989690D01*
X127153690Y-135856073D01*
X127264760Y-135703199D01*
X127343016Y-135549611D01*
X127390989Y-135498817D01*
X127458810Y-135482021D01*
X127524945Y-135504558D01*
X127568397Y-135559273D01*
X127577500Y-135605906D01*
X127577500Y-135821870D01*
X127577501Y-135821876D01*
X127583908Y-135881483D01*
X127634202Y-136016328D01*
X127634206Y-136016335D01*
X127720452Y-136131544D01*
X127720455Y-136131547D01*
X127835664Y-136217793D01*
X127835671Y-136217797D01*
X127970517Y-136268091D01*
X127970516Y-136268091D01*
X127977444Y-136268835D01*
X128030127Y-136274500D01*
X129525872Y-136274499D01*
X129585483Y-136268091D01*
X129720331Y-136217796D01*
X129835546Y-136131546D01*
X129921796Y-136016331D01*
X129972091Y-135881483D01*
X129978500Y-135821873D01*
X129978499Y-133926135D01*
X131641500Y-133926135D01*
X131641500Y-135821870D01*
X131641501Y-135821876D01*
X131647908Y-135881483D01*
X131698202Y-136016328D01*
X131698206Y-136016335D01*
X131784452Y-136131544D01*
X131784455Y-136131547D01*
X131899664Y-136217793D01*
X131899671Y-136217797D01*
X132034517Y-136268091D01*
X132034516Y-136268091D01*
X132041444Y-136268835D01*
X132094127Y-136274500D01*
X133589872Y-136274499D01*
X133649483Y-136268091D01*
X133784331Y-136217796D01*
X133899546Y-136131546D01*
X133985796Y-136016331D01*
X134036091Y-135881483D01*
X134042500Y-135821873D01*
X134042499Y-135605906D01*
X134062183Y-135538870D01*
X134114987Y-135493115D01*
X134184145Y-135483171D01*
X134247701Y-135512196D01*
X134276984Y-135549614D01*
X134345458Y-135684000D01*
X134355240Y-135703199D01*
X134466310Y-135856073D01*
X134599927Y-135989690D01*
X134752801Y-136100760D01*
X134813218Y-136131544D01*
X134921163Y-136186545D01*
X134921165Y-136186545D01*
X134921168Y-136186547D01*
X135017333Y-136217793D01*
X135100881Y-136244940D01*
X135287514Y-136274500D01*
X135287519Y-136274500D01*
X135476486Y-136274500D01*
X135663118Y-136244940D01*
X135666974Y-136243687D01*
X135842832Y-136186547D01*
X136011199Y-136100760D01*
X136164073Y-135989690D01*
X136297690Y-135856073D01*
X136408760Y-135703199D01*
X136494547Y-135534832D01*
X136552940Y-135355118D01*
X136582500Y-135168486D01*
X136582500Y-134579513D01*
X136552940Y-134392881D01*
X136504383Y-134243441D01*
X136494547Y-134213168D01*
X136494545Y-134213165D01*
X136494545Y-134213163D01*
X136408759Y-134044800D01*
X136385155Y-134012312D01*
X136297690Y-133891927D01*
X136164073Y-133758310D01*
X136011199Y-133647240D01*
X135842836Y-133561454D01*
X135663118Y-133503059D01*
X135476486Y-133473500D01*
X135476481Y-133473500D01*
X135287519Y-133473500D01*
X135287514Y-133473500D01*
X135100881Y-133503059D01*
X134921163Y-133561454D01*
X134752800Y-133647240D01*
X134665579Y-133710610D01*
X134599927Y-133758310D01*
X134599925Y-133758312D01*
X134599924Y-133758312D01*
X134466312Y-133891924D01*
X134466312Y-133891925D01*
X134466310Y-133891927D01*
X134418610Y-133957579D01*
X134355240Y-134044800D01*
X134276984Y-134198387D01*
X134229009Y-134249183D01*
X134161188Y-134265978D01*
X134095053Y-134243441D01*
X134051602Y-134188725D01*
X134042499Y-134142092D01*
X134042499Y-133926129D01*
X134042498Y-133926123D01*
X134042497Y-133926116D01*
X134036091Y-133866517D01*
X134017045Y-133815453D01*
X133985797Y-133731671D01*
X133985793Y-133731664D01*
X133899547Y-133616455D01*
X133899544Y-133616452D01*
X133784335Y-133530206D01*
X133784328Y-133530202D01*
X133649482Y-133479908D01*
X133649483Y-133479908D01*
X133589883Y-133473501D01*
X133589881Y-133473500D01*
X133589873Y-133473500D01*
X133589864Y-133473500D01*
X132094129Y-133473500D01*
X132094123Y-133473501D01*
X132034516Y-133479908D01*
X131899671Y-133530202D01*
X131899664Y-133530206D01*
X131784455Y-133616452D01*
X131784452Y-133616455D01*
X131698206Y-133731664D01*
X131698202Y-133731671D01*
X131647908Y-133866517D01*
X131641501Y-133926116D01*
X131641501Y-133926123D01*
X131641500Y-133926135D01*
X129978499Y-133926135D01*
X129978499Y-133926128D01*
X129972091Y-133866517D01*
X129953045Y-133815453D01*
X129921797Y-133731671D01*
X129921793Y-133731664D01*
X129835547Y-133616455D01*
X129835544Y-133616452D01*
X129720335Y-133530206D01*
X129720328Y-133530202D01*
X129585482Y-133479908D01*
X129585483Y-133479908D01*
X129525883Y-133473501D01*
X129525881Y-133473500D01*
X129525873Y-133473500D01*
X129525864Y-133473500D01*
X128030129Y-133473500D01*
X128030123Y-133473501D01*
X127970516Y-133479908D01*
X127835671Y-133530202D01*
X127835664Y-133530206D01*
X127720455Y-133616452D01*
X127720452Y-133616455D01*
X127634206Y-133731664D01*
X127634202Y-133731671D01*
X127583908Y-133866517D01*
X127577501Y-133926116D01*
X127577501Y-133926123D01*
X127577500Y-133926135D01*
X127577500Y-134142090D01*
X127557815Y-134209129D01*
X127505011Y-134254884D01*
X127435853Y-134264828D01*
X127372297Y-134235803D01*
X127343015Y-134198385D01*
X127303339Y-134120517D01*
X127264760Y-134044801D01*
X127153690Y-133891927D01*
X127020073Y-133758310D01*
X126867199Y-133647240D01*
X126698836Y-133561454D01*
X126519118Y-133503059D01*
X126332486Y-133473500D01*
X126332481Y-133473500D01*
X126143519Y-133473500D01*
X126143514Y-133473500D01*
X125956881Y-133503059D01*
X125777163Y-133561454D01*
X125608800Y-133647240D01*
X125521579Y-133710610D01*
X125455927Y-133758310D01*
X125455925Y-133758312D01*
X125455924Y-133758312D01*
X125322312Y-133891924D01*
X125322312Y-133891925D01*
X125322310Y-133891927D01*
X125274610Y-133957579D01*
X125211240Y-134044800D01*
X125125454Y-134213163D01*
X125067059Y-134392881D01*
X125037500Y-134579513D01*
X123374500Y-134579513D01*
X123344940Y-134392881D01*
X123296383Y-134243441D01*
X123286547Y-134213168D01*
X123286545Y-134213165D01*
X123286545Y-134213163D01*
X123200759Y-134044800D01*
X123177155Y-134012312D01*
X123089690Y-133891927D01*
X122956073Y-133758310D01*
X122803199Y-133647240D01*
X122634836Y-133561454D01*
X122455118Y-133503059D01*
X122268486Y-133473500D01*
X122268481Y-133473500D01*
X122079519Y-133473500D01*
X122079514Y-133473500D01*
X121892881Y-133503059D01*
X121713163Y-133561454D01*
X121544800Y-133647240D01*
X121457579Y-133710610D01*
X121391927Y-133758310D01*
X121391925Y-133758312D01*
X121391924Y-133758312D01*
X121258312Y-133891924D01*
X121258312Y-133891925D01*
X121258310Y-133891927D01*
X121210610Y-133957579D01*
X121147240Y-134044800D01*
X121068984Y-134198387D01*
X121021009Y-134249183D01*
X120953188Y-134265978D01*
X120887053Y-134243441D01*
X120843602Y-134188725D01*
X120834499Y-134142092D01*
X120834499Y-133926129D01*
X120834498Y-133926123D01*
X120834497Y-133926116D01*
X120828091Y-133866517D01*
X120809045Y-133815453D01*
X120777797Y-133731671D01*
X120777793Y-133731664D01*
X120691547Y-133616455D01*
X120691544Y-133616452D01*
X120576335Y-133530206D01*
X120576328Y-133530202D01*
X120441482Y-133479908D01*
X120441483Y-133479908D01*
X120381883Y-133473501D01*
X120381881Y-133473500D01*
X120381873Y-133473500D01*
X120381864Y-133473500D01*
X118886129Y-133473500D01*
X118886123Y-133473501D01*
X118826516Y-133479908D01*
X118691671Y-133530202D01*
X118691664Y-133530206D01*
X118576455Y-133616452D01*
X118576452Y-133616455D01*
X118490206Y-133731664D01*
X118490202Y-133731671D01*
X118439908Y-133866517D01*
X118433501Y-133926116D01*
X118433501Y-133926123D01*
X118433500Y-133926135D01*
X102859220Y-133926135D01*
X102859220Y-132079996D01*
X139742415Y-132079996D01*
X139742415Y-132080003D01*
X139762738Y-132428927D01*
X139762739Y-132428938D01*
X139823428Y-132773127D01*
X139823430Y-132773134D01*
X139923674Y-133107972D01*
X140062107Y-133428895D01*
X140062113Y-133428908D01*
X140236870Y-133731597D01*
X140445584Y-134011949D01*
X140445589Y-134011955D01*
X140490114Y-134059148D01*
X140685442Y-134266183D01*
X140836435Y-134392881D01*
X140953186Y-134490847D01*
X140953194Y-134490853D01*
X141245203Y-134682911D01*
X141245207Y-134682913D01*
X141557549Y-134839777D01*
X141885989Y-134959319D01*
X142226086Y-135039923D01*
X142573241Y-135080500D01*
X142573248Y-135080500D01*
X142922752Y-135080500D01*
X142922759Y-135080500D01*
X143269914Y-135039923D01*
X143610011Y-134959319D01*
X143938451Y-134839777D01*
X144250793Y-134682913D01*
X144542811Y-134490849D01*
X144810558Y-134266183D01*
X144891740Y-134180135D01*
X156279500Y-134180135D01*
X156279500Y-136075870D01*
X156279501Y-136075876D01*
X156285908Y-136135483D01*
X156336202Y-136270328D01*
X156336206Y-136270335D01*
X156422452Y-136385544D01*
X156422455Y-136385547D01*
X156537664Y-136471793D01*
X156537671Y-136471797D01*
X156672517Y-136522091D01*
X156672516Y-136522091D01*
X156679444Y-136522835D01*
X156732127Y-136528500D01*
X158227872Y-136528499D01*
X158287483Y-136522091D01*
X158422331Y-136471796D01*
X158537546Y-136385546D01*
X158623796Y-136270331D01*
X158674091Y-136135483D01*
X158680500Y-136075873D01*
X158680499Y-135859906D01*
X158700183Y-135792870D01*
X158752987Y-135747115D01*
X158822145Y-135737171D01*
X158885701Y-135766196D01*
X158914984Y-135803614D01*
X158954660Y-135881482D01*
X158993240Y-135957199D01*
X159104310Y-136110073D01*
X159237927Y-136243690D01*
X159390801Y-136354760D01*
X159451218Y-136385544D01*
X159559163Y-136440545D01*
X159559165Y-136440545D01*
X159559168Y-136440547D01*
X159655333Y-136471793D01*
X159738881Y-136498940D01*
X159925514Y-136528500D01*
X159925519Y-136528500D01*
X160114486Y-136528500D01*
X160301118Y-136498940D01*
X160480832Y-136440547D01*
X160649199Y-136354760D01*
X160802073Y-136243690D01*
X160935690Y-136110073D01*
X161046760Y-135957199D01*
X161132547Y-135788832D01*
X161190940Y-135609118D01*
X161198835Y-135559273D01*
X161220500Y-135422486D01*
X161220500Y-134833513D01*
X161190940Y-134646881D01*
X161142383Y-134497441D01*
X161132547Y-134467168D01*
X161132545Y-134467165D01*
X161132545Y-134467163D01*
X161046759Y-134298800D01*
X160935690Y-134145927D01*
X160802073Y-134012310D01*
X160683464Y-133926135D01*
X165423500Y-133926135D01*
X165423500Y-135821870D01*
X165423501Y-135821876D01*
X165429908Y-135881483D01*
X165480202Y-136016328D01*
X165480206Y-136016335D01*
X165566452Y-136131544D01*
X165566455Y-136131547D01*
X165681664Y-136217793D01*
X165681671Y-136217797D01*
X165816517Y-136268091D01*
X165816516Y-136268091D01*
X165823444Y-136268835D01*
X165876127Y-136274500D01*
X167371872Y-136274499D01*
X167431483Y-136268091D01*
X167566331Y-136217796D01*
X167681546Y-136131546D01*
X167767796Y-136016331D01*
X167818091Y-135881483D01*
X167824500Y-135821873D01*
X167824499Y-135605906D01*
X167844183Y-135538870D01*
X167896987Y-135493115D01*
X167966145Y-135483171D01*
X168029701Y-135512196D01*
X168058984Y-135549614D01*
X168127458Y-135684000D01*
X168137240Y-135703199D01*
X168248310Y-135856073D01*
X168381927Y-135989690D01*
X168534801Y-136100760D01*
X168595218Y-136131544D01*
X168703163Y-136186545D01*
X168703165Y-136186545D01*
X168703168Y-136186547D01*
X168799333Y-136217793D01*
X168882881Y-136244940D01*
X169069514Y-136274500D01*
X169069519Y-136274500D01*
X169258486Y-136274500D01*
X169445118Y-136244940D01*
X169448974Y-136243687D01*
X169624832Y-136186547D01*
X169793199Y-136100760D01*
X169946073Y-135989690D01*
X170079690Y-135856073D01*
X170190760Y-135703199D01*
X170276547Y-135534832D01*
X170334940Y-135355118D01*
X170364500Y-135168486D01*
X170364500Y-134579513D01*
X170334940Y-134392881D01*
X170286383Y-134243441D01*
X170276547Y-134213168D01*
X170276545Y-134213165D01*
X170276545Y-134213163D01*
X170190759Y-134044800D01*
X170167155Y-134012312D01*
X170104544Y-133926135D01*
X175668166Y-133926135D01*
X175668166Y-135821870D01*
X175668167Y-135821876D01*
X175674574Y-135881483D01*
X175724868Y-136016328D01*
X175724872Y-136016335D01*
X175811118Y-136131544D01*
X175811121Y-136131547D01*
X175926330Y-136217793D01*
X175926337Y-136217797D01*
X176061183Y-136268091D01*
X176061182Y-136268091D01*
X176068110Y-136268835D01*
X176120793Y-136274500D01*
X177616538Y-136274499D01*
X177676149Y-136268091D01*
X177810997Y-136217796D01*
X177926212Y-136131546D01*
X178012462Y-136016331D01*
X178062757Y-135881483D01*
X178069166Y-135821873D01*
X178069165Y-135605906D01*
X178088849Y-135538870D01*
X178141653Y-135493115D01*
X178210811Y-135483171D01*
X178274367Y-135512196D01*
X178303650Y-135549614D01*
X178372124Y-135684000D01*
X178381906Y-135703199D01*
X178492976Y-135856073D01*
X178626593Y-135989690D01*
X178779467Y-136100760D01*
X178839884Y-136131544D01*
X178947829Y-136186545D01*
X178947831Y-136186545D01*
X178947834Y-136186547D01*
X179043999Y-136217793D01*
X179127547Y-136244940D01*
X179314180Y-136274500D01*
X179314185Y-136274500D01*
X179503152Y-136274500D01*
X179689784Y-136244940D01*
X179693640Y-136243687D01*
X179869498Y-136186547D01*
X180037865Y-136100760D01*
X180190739Y-135989690D01*
X180324356Y-135856073D01*
X180435426Y-135703199D01*
X180521213Y-135534832D01*
X180579606Y-135355118D01*
X180609166Y-135168486D01*
X180609166Y-134579513D01*
X180579606Y-134392881D01*
X180531049Y-134243441D01*
X180521213Y-134213168D01*
X180521211Y-134213165D01*
X180521211Y-134213163D01*
X180435425Y-134044800D01*
X180411821Y-134012312D01*
X180349210Y-133926135D01*
X185235500Y-133926135D01*
X185235500Y-135821870D01*
X185235501Y-135821876D01*
X185241908Y-135881483D01*
X185292202Y-136016328D01*
X185292206Y-136016335D01*
X185378452Y-136131544D01*
X185378455Y-136131547D01*
X185493664Y-136217793D01*
X185493671Y-136217797D01*
X185628517Y-136268091D01*
X185628516Y-136268091D01*
X185635444Y-136268835D01*
X185688127Y-136274500D01*
X187183872Y-136274499D01*
X187243483Y-136268091D01*
X187378331Y-136217796D01*
X187493546Y-136131546D01*
X187579796Y-136016331D01*
X187630091Y-135881483D01*
X187636500Y-135821873D01*
X187636499Y-135605906D01*
X187656183Y-135538870D01*
X187708987Y-135493115D01*
X187778145Y-135483171D01*
X187841701Y-135512196D01*
X187870984Y-135549614D01*
X187939458Y-135684000D01*
X187949240Y-135703199D01*
X188060310Y-135856073D01*
X188193927Y-135989690D01*
X188346801Y-136100760D01*
X188407218Y-136131544D01*
X188515163Y-136186545D01*
X188515165Y-136186545D01*
X188515168Y-136186547D01*
X188611333Y-136217793D01*
X188694881Y-136244940D01*
X188881514Y-136274500D01*
X188881519Y-136274500D01*
X189070486Y-136274500D01*
X189257118Y-136244940D01*
X189260974Y-136243687D01*
X189436832Y-136186547D01*
X189605199Y-136100760D01*
X189758073Y-135989690D01*
X189891690Y-135856073D01*
X190002760Y-135703199D01*
X190088547Y-135534832D01*
X190146940Y-135355118D01*
X190176500Y-135168486D01*
X190176500Y-134579513D01*
X190146940Y-134392881D01*
X190098383Y-134243441D01*
X190088547Y-134213168D01*
X190088545Y-134213165D01*
X190088545Y-134213163D01*
X190002759Y-134044800D01*
X189979155Y-134012312D01*
X189891690Y-133891927D01*
X189758073Y-133758310D01*
X189605199Y-133647240D01*
X189436836Y-133561454D01*
X189257118Y-133503059D01*
X189070486Y-133473500D01*
X189070481Y-133473500D01*
X188881519Y-133473500D01*
X188881514Y-133473500D01*
X188694881Y-133503059D01*
X188515163Y-133561454D01*
X188346800Y-133647240D01*
X188259579Y-133710610D01*
X188193927Y-133758310D01*
X188193925Y-133758312D01*
X188193924Y-133758312D01*
X188060312Y-133891924D01*
X188060312Y-133891925D01*
X188060310Y-133891927D01*
X188012610Y-133957579D01*
X187949240Y-134044800D01*
X187870984Y-134198387D01*
X187823009Y-134249183D01*
X187755188Y-134265978D01*
X187689053Y-134243441D01*
X187645602Y-134188725D01*
X187636499Y-134142092D01*
X187636499Y-133926129D01*
X187636498Y-133926123D01*
X187636497Y-133926116D01*
X187630091Y-133866517D01*
X187611045Y-133815453D01*
X187579797Y-133731671D01*
X187579793Y-133731664D01*
X187493547Y-133616455D01*
X187493544Y-133616452D01*
X187378335Y-133530206D01*
X187378328Y-133530202D01*
X187243482Y-133479908D01*
X187243483Y-133479908D01*
X187183883Y-133473501D01*
X187183881Y-133473500D01*
X187183873Y-133473500D01*
X187183864Y-133473500D01*
X185688129Y-133473500D01*
X185688123Y-133473501D01*
X185628516Y-133479908D01*
X185493671Y-133530202D01*
X185493664Y-133530206D01*
X185378455Y-133616452D01*
X185378452Y-133616455D01*
X185292206Y-133731664D01*
X185292202Y-133731671D01*
X185241908Y-133866517D01*
X185235501Y-133926116D01*
X185235501Y-133926123D01*
X185235500Y-133926135D01*
X180349210Y-133926135D01*
X180324356Y-133891927D01*
X180190739Y-133758310D01*
X180037865Y-133647240D01*
X179869502Y-133561454D01*
X179689784Y-133503059D01*
X179503152Y-133473500D01*
X179503147Y-133473500D01*
X179314185Y-133473500D01*
X179314180Y-133473500D01*
X179127547Y-133503059D01*
X178947829Y-133561454D01*
X178779466Y-133647240D01*
X178692245Y-133710610D01*
X178626593Y-133758310D01*
X178626591Y-133758312D01*
X178626590Y-133758312D01*
X178492978Y-133891924D01*
X178492978Y-133891925D01*
X178492976Y-133891927D01*
X178445276Y-133957579D01*
X178381906Y-134044800D01*
X178303650Y-134198387D01*
X178255675Y-134249183D01*
X178187854Y-134265978D01*
X178121719Y-134243441D01*
X178078268Y-134188725D01*
X178069165Y-134142092D01*
X178069165Y-133926129D01*
X178069164Y-133926123D01*
X178069163Y-133926116D01*
X178062757Y-133866517D01*
X178043711Y-133815453D01*
X178012463Y-133731671D01*
X178012459Y-133731664D01*
X177926213Y-133616455D01*
X177926210Y-133616452D01*
X177811001Y-133530206D01*
X177810994Y-133530202D01*
X177676148Y-133479908D01*
X177676149Y-133479908D01*
X177616549Y-133473501D01*
X177616547Y-133473500D01*
X177616539Y-133473500D01*
X177616530Y-133473500D01*
X176120795Y-133473500D01*
X176120789Y-133473501D01*
X176061182Y-133479908D01*
X175926337Y-133530202D01*
X175926330Y-133530206D01*
X175811121Y-133616452D01*
X175811118Y-133616455D01*
X175724872Y-133731664D01*
X175724868Y-133731671D01*
X175674574Y-133866517D01*
X175668167Y-133926116D01*
X175668167Y-133926123D01*
X175668166Y-133926135D01*
X170104544Y-133926135D01*
X170079690Y-133891927D01*
X169946073Y-133758310D01*
X169793199Y-133647240D01*
X169624836Y-133561454D01*
X169445118Y-133503059D01*
X169258486Y-133473500D01*
X169258481Y-133473500D01*
X169069519Y-133473500D01*
X169069514Y-133473500D01*
X168882881Y-133503059D01*
X168703163Y-133561454D01*
X168534800Y-133647240D01*
X168447579Y-133710610D01*
X168381927Y-133758310D01*
X168381925Y-133758312D01*
X168381924Y-133758312D01*
X168248312Y-133891924D01*
X168248312Y-133891925D01*
X168248310Y-133891927D01*
X168200610Y-133957579D01*
X168137240Y-134044800D01*
X168058984Y-134198387D01*
X168011009Y-134249183D01*
X167943188Y-134265978D01*
X167877053Y-134243441D01*
X167833602Y-134188725D01*
X167824499Y-134142092D01*
X167824499Y-133926129D01*
X167824498Y-133926123D01*
X167824497Y-133926116D01*
X167818091Y-133866517D01*
X167799045Y-133815453D01*
X167767797Y-133731671D01*
X167767793Y-133731664D01*
X167681547Y-133616455D01*
X167681544Y-133616452D01*
X167566335Y-133530206D01*
X167566328Y-133530202D01*
X167431482Y-133479908D01*
X167431483Y-133479908D01*
X167371883Y-133473501D01*
X167371881Y-133473500D01*
X167371873Y-133473500D01*
X167371864Y-133473500D01*
X165876129Y-133473500D01*
X165876123Y-133473501D01*
X165816516Y-133479908D01*
X165681671Y-133530202D01*
X165681664Y-133530206D01*
X165566455Y-133616452D01*
X165566452Y-133616455D01*
X165480206Y-133731664D01*
X165480202Y-133731671D01*
X165429908Y-133866517D01*
X165423501Y-133926116D01*
X165423501Y-133926123D01*
X165423500Y-133926135D01*
X160683464Y-133926135D01*
X160649199Y-133901240D01*
X160630915Y-133891924D01*
X160480836Y-133815454D01*
X160301118Y-133757059D01*
X160114486Y-133727500D01*
X160114481Y-133727500D01*
X159925519Y-133727500D01*
X159925514Y-133727500D01*
X159738881Y-133757059D01*
X159559163Y-133815454D01*
X159390800Y-133901240D01*
X159356544Y-133926129D01*
X159237927Y-134012310D01*
X159237925Y-134012312D01*
X159237924Y-134012312D01*
X159104312Y-134145924D01*
X159104312Y-134145925D01*
X159104310Y-134145927D01*
X159058391Y-134209129D01*
X158993240Y-134298800D01*
X158914984Y-134452387D01*
X158867009Y-134503183D01*
X158799188Y-134519978D01*
X158733053Y-134497441D01*
X158689602Y-134442725D01*
X158680499Y-134396092D01*
X158680499Y-134180129D01*
X158680498Y-134180123D01*
X158680497Y-134180116D01*
X158674091Y-134120517D01*
X158645850Y-134044800D01*
X158623797Y-133985671D01*
X158623793Y-133985664D01*
X158537547Y-133870455D01*
X158537544Y-133870452D01*
X158422335Y-133784206D01*
X158422328Y-133784202D01*
X158287482Y-133733908D01*
X158287483Y-133733908D01*
X158227883Y-133727501D01*
X158227881Y-133727500D01*
X158227873Y-133727500D01*
X158227864Y-133727500D01*
X156732129Y-133727500D01*
X156732123Y-133727501D01*
X156672516Y-133733908D01*
X156537671Y-133784202D01*
X156537664Y-133784206D01*
X156422455Y-133870452D01*
X156422452Y-133870455D01*
X156336206Y-133985664D01*
X156336202Y-133985671D01*
X156285908Y-134120517D01*
X156279501Y-134180116D01*
X156279501Y-134180123D01*
X156279500Y-134180135D01*
X144891740Y-134180135D01*
X145050412Y-134011953D01*
X145259130Y-133731596D01*
X145433889Y-133428904D01*
X145572326Y-133107971D01*
X145672569Y-132773136D01*
X145733262Y-132428927D01*
X145753585Y-132080000D01*
X145733262Y-131731073D01*
X145726693Y-131693816D01*
X145672571Y-131386872D01*
X145672569Y-131386865D01*
X145672569Y-131386864D01*
X145572326Y-131052029D01*
X145433889Y-130731096D01*
X145264286Y-130437334D01*
X145259129Y-130428402D01*
X145050415Y-130148050D01*
X145050410Y-130148044D01*
X144858401Y-129944528D01*
X144810558Y-129893817D01*
X144602516Y-129719249D01*
X144542813Y-129669152D01*
X144542805Y-129669146D01*
X144250796Y-129477088D01*
X143938458Y-129320226D01*
X143938452Y-129320223D01*
X143610012Y-129200681D01*
X143610009Y-129200680D01*
X143269915Y-129120077D01*
X143226519Y-129115004D01*
X142922759Y-129079500D01*
X142573241Y-129079500D01*
X142269480Y-129115004D01*
X142226085Y-129120077D01*
X142226083Y-129120077D01*
X141885990Y-129200680D01*
X141885987Y-129200681D01*
X141557547Y-129320223D01*
X141557541Y-129320226D01*
X141245203Y-129477088D01*
X140953194Y-129669146D01*
X140953186Y-129669152D01*
X140685442Y-129893817D01*
X140685440Y-129893819D01*
X140445589Y-130148044D01*
X140445584Y-130148050D01*
X140236870Y-130428402D01*
X140062113Y-130731091D01*
X140062107Y-130731104D01*
X139923674Y-131052027D01*
X139823430Y-131386865D01*
X139823428Y-131386872D01*
X139762739Y-131731061D01*
X139762738Y-131731072D01*
X139742415Y-132079996D01*
X102859220Y-132079996D01*
X102859220Y-124330000D01*
X102878905Y-124262961D01*
X102931709Y-124217206D01*
X102983220Y-124206000D01*
X124207718Y-124206000D01*
X124274757Y-124225685D01*
X124295399Y-124242319D01*
X126560215Y-126507136D01*
X126560219Y-126507139D01*
X126724079Y-126616627D01*
X126724083Y-126616629D01*
X126724086Y-126616631D01*
X126906164Y-126692051D01*
X127099455Y-126730499D01*
X127099458Y-126730500D01*
X127099460Y-126730500D01*
X127296542Y-126730500D01*
X127296543Y-126730499D01*
X127489836Y-126692051D01*
X127671914Y-126616631D01*
X127835781Y-126507139D01*
X127975139Y-126367781D01*
X128084631Y-126203914D01*
X128160051Y-126021836D01*
X128198500Y-125828540D01*
X128198500Y-125631460D01*
X128198500Y-125631457D01*
X128198499Y-125631455D01*
X128179557Y-125536226D01*
X128160051Y-125438164D01*
X128084631Y-125256086D01*
X128084629Y-125256083D01*
X128084627Y-125256079D01*
X127975139Y-125092219D01*
X127975136Y-125092215D01*
X127300601Y-124417681D01*
X127267116Y-124356358D01*
X127272100Y-124286667D01*
X127313971Y-124230733D01*
X127379436Y-124206316D01*
X127388282Y-124206000D01*
X131266638Y-124206000D01*
X131333677Y-124225685D01*
X131354319Y-124242319D01*
X132588000Y-125476000D01*
X134294491Y-125476000D01*
X134359528Y-125495097D01*
X134359641Y-125494902D01*
X134360445Y-125495366D01*
X134361530Y-125495685D01*
X134364422Y-125497662D01*
X134365266Y-125498149D01*
X134365269Y-125498150D01*
X134365270Y-125498151D01*
X134400910Y-125514019D01*
X134538192Y-125575142D01*
X134538197Y-125575144D01*
X134723354Y-125614500D01*
X134723355Y-125614500D01*
X134912644Y-125614500D01*
X134912646Y-125614500D01*
X135097803Y-125575144D01*
X135270730Y-125498151D01*
X135270733Y-125498149D01*
X135276359Y-125494902D01*
X135277325Y-125496575D01*
X135334439Y-125476202D01*
X135341509Y-125476000D01*
X141331270Y-125476000D01*
X141398309Y-125495685D01*
X141444064Y-125548489D01*
X141454008Y-125617647D01*
X141424983Y-125681203D01*
X141418951Y-125687681D01*
X140893451Y-126213181D01*
X140832128Y-126246666D01*
X140805770Y-126249500D01*
X133474080Y-126249500D01*
X133329092Y-126278340D01*
X133329082Y-126278343D01*
X133192511Y-126334912D01*
X133192498Y-126334919D01*
X133143320Y-126367780D01*
X133143319Y-126367781D01*
X133069579Y-126417051D01*
X133069578Y-126417052D01*
X132196421Y-127290211D01*
X131949048Y-127537584D01*
X131949046Y-127537586D01*
X131699812Y-127786819D01*
X131616937Y-127869694D01*
X131580873Y-127892370D01*
X131581750Y-127894191D01*
X131575475Y-127897212D01*
X131422737Y-127993184D01*
X131295184Y-128120737D01*
X131199208Y-128273483D01*
X131196186Y-128279758D01*
X131194361Y-128278878D01*
X131171692Y-128314939D01*
X129209451Y-130277181D01*
X129148128Y-130310666D01*
X129121770Y-130313500D01*
X122627425Y-130313500D01*
X122560386Y-130293815D01*
X122554560Y-130289833D01*
X122452730Y-130215849D01*
X122452729Y-130215848D01*
X122279807Y-130138857D01*
X122279802Y-130138855D01*
X122134001Y-130107865D01*
X122094646Y-130099500D01*
X121905354Y-130099500D01*
X121872897Y-130106398D01*
X121720197Y-130138855D01*
X121720192Y-130138857D01*
X121547270Y-130215848D01*
X121547265Y-130215851D01*
X121394129Y-130327111D01*
X121267466Y-130467785D01*
X121172821Y-130631715D01*
X121172818Y-130631722D01*
X121114327Y-130811740D01*
X121114326Y-130811744D01*
X121094540Y-131000000D01*
X121114326Y-131188256D01*
X121114327Y-131188259D01*
X121172818Y-131368277D01*
X121172821Y-131368284D01*
X121267467Y-131532216D01*
X121386576Y-131664500D01*
X121394129Y-131672888D01*
X121547265Y-131784148D01*
X121547270Y-131784151D01*
X121720192Y-131861142D01*
X121720197Y-131861144D01*
X121905354Y-131900500D01*
X121905355Y-131900500D01*
X122094644Y-131900500D01*
X122094646Y-131900500D01*
X122279803Y-131861144D01*
X122360487Y-131825221D01*
X122410923Y-131814500D01*
X129557920Y-131814500D01*
X129655462Y-131795096D01*
X129702913Y-131785658D01*
X129839495Y-131729084D01*
X129892277Y-131693816D01*
X129962416Y-131646952D01*
X132233059Y-129376306D01*
X132269132Y-129353657D01*
X132268244Y-129351813D01*
X132274515Y-129348792D01*
X132274516Y-129348790D01*
X132274522Y-129348789D01*
X132427262Y-129252816D01*
X132554816Y-129125262D01*
X132650789Y-128972522D01*
X132650792Y-128972510D01*
X132653810Y-128966248D01*
X132655650Y-128967134D01*
X132678305Y-128931061D01*
X133000206Y-128609159D01*
X133000211Y-128609156D01*
X133010414Y-128598952D01*
X133010416Y-128598952D01*
X133822549Y-127786819D01*
X133883872Y-127753334D01*
X133910230Y-127750500D01*
X141241920Y-127750500D01*
X141339462Y-127731096D01*
X141386913Y-127721658D01*
X141520130Y-127666478D01*
X141523488Y-127665087D01*
X141523488Y-127665086D01*
X141523495Y-127665084D01*
X141576277Y-127629816D01*
X141646416Y-127582952D01*
X146872544Y-122356822D01*
X146933865Y-122323339D01*
X147003557Y-122328323D01*
X147047904Y-122356824D01*
X149173825Y-124482745D01*
X149207310Y-124544068D01*
X149202326Y-124613760D01*
X149160454Y-124669693D01*
X149122883Y-124687089D01*
X149123318Y-124688332D01*
X148946476Y-124750211D01*
X148793737Y-124846184D01*
X148666184Y-124973737D01*
X148570211Y-125126476D01*
X148510631Y-125296745D01*
X148510630Y-125296750D01*
X148490435Y-125475996D01*
X148490435Y-125476000D01*
X148510630Y-125655249D01*
X148510631Y-125655254D01*
X148570211Y-125825523D01*
X148666185Y-125978263D01*
X148668445Y-125981097D01*
X148669334Y-125983275D01*
X148669889Y-125984158D01*
X148669734Y-125984255D01*
X148694855Y-126045783D01*
X148695500Y-126058412D01*
X148695500Y-128945330D01*
X148695499Y-128945348D01*
X148695499Y-129111054D01*
X148695498Y-129111054D01*
X148695499Y-129111057D01*
X148735012Y-129258521D01*
X148736424Y-129263788D01*
X148742030Y-129273497D01*
X148742032Y-129273500D01*
X148815477Y-129400712D01*
X148815481Y-129400717D01*
X148934349Y-129519585D01*
X148934355Y-129519590D01*
X149065139Y-129650374D01*
X149065149Y-129650385D01*
X149069479Y-129654715D01*
X149069480Y-129654716D01*
X149181284Y-129766520D01*
X149268095Y-129816639D01*
X149268097Y-129816641D01*
X149318213Y-129845576D01*
X149318215Y-129845577D01*
X149470942Y-129886500D01*
X149470943Y-129886500D01*
X150023780Y-129886500D01*
X150090819Y-129906185D01*
X150128772Y-129944526D01*
X150190184Y-130042262D01*
X150317738Y-130169816D01*
X150470478Y-130265789D01*
X150539149Y-130289818D01*
X150640745Y-130325368D01*
X150640750Y-130325369D01*
X150819996Y-130345565D01*
X150820000Y-130345565D01*
X150820004Y-130345565D01*
X150999249Y-130325369D01*
X150999252Y-130325368D01*
X150999255Y-130325368D01*
X151169522Y-130265789D01*
X151322262Y-130169816D01*
X151449816Y-130042262D01*
X151545789Y-129889522D01*
X151605368Y-129719255D01*
X151605369Y-129719249D01*
X151625565Y-129540003D01*
X151625565Y-129539996D01*
X151605369Y-129360750D01*
X151605368Y-129360745D01*
X151574840Y-129273500D01*
X151545789Y-129190478D01*
X151449816Y-129037738D01*
X151322262Y-128910184D01*
X151322261Y-128910183D01*
X151309279Y-128902026D01*
X151262988Y-128849692D01*
X151252339Y-128780638D01*
X151280714Y-128716790D01*
X151287558Y-128709362D01*
X151343139Y-128653782D01*
X151452632Y-128489914D01*
X151528051Y-128307835D01*
X151563283Y-128130716D01*
X151566500Y-128114543D01*
X151566500Y-124361456D01*
X151528052Y-124168169D01*
X151528051Y-124168167D01*
X151528051Y-124168165D01*
X151522359Y-124154423D01*
X151513606Y-124133291D01*
X151513594Y-124133264D01*
X151500356Y-124101304D01*
X151452635Y-123986093D01*
X151452634Y-123986092D01*
X151452632Y-123986086D01*
X151415056Y-123929849D01*
X151343139Y-123822217D01*
X151200686Y-123679764D01*
X151200655Y-123679735D01*
X148168784Y-120647863D01*
X148168780Y-120647860D01*
X148004920Y-120538372D01*
X148004915Y-120538370D01*
X148004914Y-120538369D01*
X147944765Y-120513454D01*
X147890362Y-120469612D01*
X147868298Y-120403318D01*
X147885578Y-120335619D01*
X147900041Y-120315953D01*
X148561959Y-119580489D01*
X148621432Y-119543832D01*
X148691289Y-119545146D01*
X148749346Y-119584020D01*
X148777170Y-119648110D01*
X148777342Y-119649561D01*
X148792630Y-119785250D01*
X148792631Y-119785254D01*
X148852211Y-119955523D01*
X148885577Y-120008624D01*
X148948184Y-120108262D01*
X149075738Y-120235816D01*
X149228478Y-120331789D01*
X149333449Y-120368520D01*
X149398745Y-120391368D01*
X149398750Y-120391369D01*
X149577996Y-120411565D01*
X149578000Y-120411565D01*
X149578004Y-120411565D01*
X149757249Y-120391369D01*
X149757252Y-120391368D01*
X149757255Y-120391368D01*
X149927522Y-120331789D01*
X150080262Y-120235816D01*
X150207816Y-120108262D01*
X150303789Y-119955522D01*
X150303789Y-119955520D01*
X150307494Y-119949625D01*
X150308846Y-119950474D01*
X150350026Y-119904849D01*
X150352889Y-119903143D01*
X150426716Y-119860520D01*
X150524417Y-119762819D01*
X150585740Y-119729334D01*
X150612098Y-119726500D01*
X151789903Y-119726500D01*
X151856942Y-119746185D01*
X151877583Y-119762818D01*
X152483284Y-120368520D01*
X152483286Y-120368521D01*
X152483290Y-120368524D01*
X152580245Y-120424500D01*
X152620216Y-120447577D01*
X152772943Y-120488501D01*
X152772945Y-120488501D01*
X152938654Y-120488501D01*
X152938670Y-120488500D01*
X153059903Y-120488500D01*
X153126942Y-120508185D01*
X153147584Y-120524819D01*
X155034139Y-122411374D01*
X155034149Y-122411385D01*
X155038479Y-122415715D01*
X155038480Y-122415716D01*
X155150284Y-122527520D01*
X155219906Y-122567716D01*
X155287215Y-122606577D01*
X155439943Y-122647500D01*
X155598057Y-122647500D01*
X155952588Y-122647500D01*
X156019627Y-122667185D01*
X156029903Y-122674555D01*
X156032736Y-122676814D01*
X156032738Y-122676816D01*
X156185478Y-122772789D01*
X156355742Y-122832367D01*
X156355745Y-122832368D01*
X156355750Y-122832369D01*
X156534997Y-122852565D01*
X156541964Y-122852565D01*
X156541964Y-122854214D01*
X156602325Y-122864784D01*
X156653707Y-122912131D01*
X156664434Y-122934998D01*
X156698208Y-123031519D01*
X156794184Y-123184262D01*
X156794185Y-123184263D01*
X156839241Y-123229320D01*
X156872725Y-123290643D01*
X156867740Y-123360335D01*
X156839241Y-123404680D01*
X156794184Y-123449737D01*
X156698210Y-123602478D01*
X156638630Y-123772750D01*
X156633917Y-123814582D01*
X156606850Y-123878996D01*
X156549254Y-123918550D01*
X156524582Y-123923917D01*
X156482750Y-123928630D01*
X156312478Y-123988210D01*
X156159737Y-124084184D01*
X156032184Y-124211737D01*
X155936211Y-124364476D01*
X155876631Y-124534745D01*
X155876630Y-124534750D01*
X155856435Y-124713996D01*
X155856435Y-124714003D01*
X155876630Y-124893249D01*
X155876631Y-124893254D01*
X155936211Y-125063523D01*
X156032184Y-125216262D01*
X156159738Y-125343816D01*
X156312478Y-125439789D01*
X156482745Y-125499368D01*
X156569669Y-125509161D01*
X156634080Y-125536226D01*
X156643465Y-125544700D01*
X159479139Y-128380374D01*
X159479149Y-128380385D01*
X159483479Y-128384715D01*
X159483480Y-128384716D01*
X159595284Y-128496520D01*
X159681359Y-128546215D01*
X159681360Y-128546216D01*
X159732209Y-128575574D01*
X159732210Y-128575574D01*
X159732215Y-128575577D01*
X159884943Y-128616500D01*
X162739588Y-128616500D01*
X162806627Y-128636185D01*
X162816903Y-128643555D01*
X162819736Y-128645814D01*
X162819738Y-128645816D01*
X162972478Y-128741789D01*
X163083502Y-128780638D01*
X163142745Y-128801368D01*
X163142750Y-128801369D01*
X163321996Y-128821565D01*
X163322000Y-128821565D01*
X163322004Y-128821565D01*
X163501249Y-128801369D01*
X163501252Y-128801368D01*
X163501255Y-128801368D01*
X163671522Y-128741789D01*
X163824262Y-128645816D01*
X163951816Y-128518262D01*
X164047789Y-128365522D01*
X164107368Y-128195255D01*
X164116462Y-128114543D01*
X164127565Y-128016003D01*
X164127565Y-128015996D01*
X164107369Y-127836750D01*
X164107368Y-127836745D01*
X164078181Y-127753334D01*
X164047789Y-127666478D01*
X164046912Y-127665083D01*
X163966801Y-127537587D01*
X163951816Y-127513738D01*
X163824262Y-127386184D01*
X163813117Y-127379181D01*
X163671523Y-127290211D01*
X163501254Y-127230631D01*
X163501249Y-127230630D01*
X163322004Y-127210435D01*
X163321996Y-127210435D01*
X163142750Y-127230630D01*
X163142745Y-127230631D01*
X162972476Y-127290211D01*
X162819736Y-127386185D01*
X162816903Y-127388445D01*
X162814724Y-127389334D01*
X162813842Y-127389889D01*
X162813744Y-127389734D01*
X162752217Y-127414855D01*
X162739588Y-127415500D01*
X160264097Y-127415500D01*
X160197058Y-127395815D01*
X160176416Y-127379181D01*
X159593416Y-126796181D01*
X159559931Y-126734858D01*
X159564915Y-126665166D01*
X159606787Y-126609233D01*
X159672251Y-126584816D01*
X159681097Y-126584500D01*
X163600903Y-126584500D01*
X163667942Y-126604185D01*
X163688584Y-126620819D01*
X166333349Y-129265585D01*
X166333355Y-129265590D01*
X168496139Y-131428374D01*
X168496149Y-131428385D01*
X168500479Y-131432715D01*
X168500480Y-131432716D01*
X168612284Y-131544520D01*
X168699095Y-131594639D01*
X168699097Y-131594641D01*
X168749213Y-131623576D01*
X168749215Y-131623577D01*
X168901942Y-131664500D01*
X168901943Y-131664500D01*
X190933588Y-131664500D01*
X191000627Y-131684185D01*
X191010903Y-131691555D01*
X191013736Y-131693814D01*
X191013738Y-131693816D01*
X191127270Y-131765152D01*
X191159903Y-131785658D01*
X191166478Y-131789789D01*
X191237098Y-131814500D01*
X191336745Y-131849368D01*
X191336750Y-131849369D01*
X191515996Y-131869565D01*
X191516000Y-131869565D01*
X191516004Y-131869565D01*
X191695249Y-131849369D01*
X191695252Y-131849368D01*
X191695255Y-131849368D01*
X191865522Y-131789789D01*
X192018262Y-131693816D01*
X192145816Y-131566262D01*
X192241789Y-131413522D01*
X192301368Y-131243255D01*
X192321565Y-131064000D01*
X192320216Y-131052029D01*
X192301369Y-130884750D01*
X192301368Y-130884745D01*
X192261429Y-130770606D01*
X192241789Y-130714478D01*
X192145816Y-130561738D01*
X192018262Y-130434184D01*
X191960539Y-130397914D01*
X191865523Y-130338211D01*
X191695254Y-130278631D01*
X191695249Y-130278630D01*
X191516004Y-130258435D01*
X191515996Y-130258435D01*
X191336750Y-130278630D01*
X191336745Y-130278631D01*
X191166476Y-130338211D01*
X191013736Y-130434185D01*
X191010903Y-130436445D01*
X191008724Y-130437334D01*
X191007842Y-130437889D01*
X191007744Y-130437734D01*
X190946217Y-130462855D01*
X190933588Y-130463500D01*
X169281097Y-130463500D01*
X169214058Y-130443815D01*
X169193416Y-130427181D01*
X167182590Y-128416355D01*
X167182588Y-128416352D01*
X164388590Y-125622355D01*
X164388588Y-125622352D01*
X164292417Y-125526181D01*
X164258932Y-125464858D01*
X164263916Y-125395166D01*
X164305788Y-125339233D01*
X164371252Y-125314816D01*
X164380098Y-125314500D01*
X164743903Y-125314500D01*
X164810942Y-125334185D01*
X164831584Y-125350819D01*
X167607139Y-128126374D01*
X167607149Y-128126385D01*
X167611479Y-128130715D01*
X167611480Y-128130716D01*
X167723284Y-128242520D01*
X167776915Y-128273483D01*
X167810095Y-128292639D01*
X167810097Y-128292641D01*
X167836414Y-128307835D01*
X167860215Y-128321577D01*
X168012943Y-128362501D01*
X168012946Y-128362501D01*
X168178653Y-128362501D01*
X168178669Y-128362500D01*
X172125331Y-128362500D01*
X172125347Y-128362501D01*
X172132943Y-128362501D01*
X172291054Y-128362501D01*
X172291057Y-128362501D01*
X172443785Y-128321577D01*
X172493904Y-128292639D01*
X172580716Y-128242520D01*
X172692520Y-128130716D01*
X172692520Y-128130714D01*
X172702728Y-128120507D01*
X172702730Y-128120504D01*
X172992535Y-127830698D01*
X173053856Y-127797215D01*
X173066311Y-127795163D01*
X173153255Y-127785368D01*
X173323522Y-127725789D01*
X173476262Y-127629816D01*
X173603816Y-127502262D01*
X173699789Y-127349522D01*
X173759368Y-127179255D01*
X173759369Y-127179249D01*
X173779565Y-127000003D01*
X173779565Y-126999996D01*
X173759369Y-126820750D01*
X173759368Y-126820745D01*
X173727790Y-126730500D01*
X173699789Y-126650478D01*
X173678521Y-126616631D01*
X173603815Y-126497737D01*
X173476262Y-126370184D01*
X173323523Y-126274211D01*
X173153254Y-126214631D01*
X173153249Y-126214630D01*
X172974004Y-126194435D01*
X172973996Y-126194435D01*
X172794750Y-126214630D01*
X172794745Y-126214631D01*
X172624476Y-126274211D01*
X172471737Y-126370184D01*
X172344184Y-126497737D01*
X172248210Y-126650478D01*
X172188630Y-126820750D01*
X172178837Y-126907668D01*
X172151770Y-126972082D01*
X172143299Y-126981465D01*
X171999582Y-127125182D01*
X171938262Y-127158666D01*
X171911903Y-127161500D01*
X168392097Y-127161500D01*
X168325058Y-127141815D01*
X168304416Y-127125181D01*
X165531590Y-124352355D01*
X165531588Y-124352352D01*
X165412715Y-124233479D01*
X165404568Y-124228776D01*
X165356352Y-124178209D01*
X165343128Y-124109602D01*
X165369096Y-124044737D01*
X165426009Y-124004208D01*
X165466567Y-123997388D01*
X168727431Y-123997388D01*
X168857470Y-123971520D01*
X168920723Y-123958939D01*
X169102802Y-123883520D01*
X169266670Y-123774027D01*
X169406027Y-123634670D01*
X169515520Y-123470802D01*
X169590939Y-123288723D01*
X169629388Y-123095429D01*
X169629388Y-122898347D01*
X169629388Y-122898344D01*
X169590940Y-122705058D01*
X169590939Y-122705057D01*
X169590939Y-122705053D01*
X169579242Y-122676814D01*
X169515523Y-122522980D01*
X169515516Y-122522967D01*
X169406027Y-122359106D01*
X169406024Y-122359102D01*
X169266673Y-122219751D01*
X169266669Y-122219748D01*
X169102808Y-122110259D01*
X169102795Y-122110252D01*
X168920727Y-122034838D01*
X168920717Y-122034835D01*
X168727431Y-121996388D01*
X168727429Y-121996388D01*
X165062670Y-121996388D01*
X164995631Y-121976703D01*
X164974989Y-121960069D01*
X164141224Y-121126304D01*
X164107739Y-121064981D01*
X164112723Y-120995289D01*
X164154595Y-120939356D01*
X164196810Y-120918849D01*
X164237663Y-120907903D01*
X164451830Y-120808035D01*
X164645401Y-120672495D01*
X164812495Y-120505401D01*
X164942425Y-120319842D01*
X164997002Y-120276217D01*
X165066500Y-120269023D01*
X165128855Y-120300546D01*
X165145575Y-120319842D01*
X165275500Y-120505395D01*
X165275505Y-120505401D01*
X165442599Y-120672495D01*
X165539384Y-120740265D01*
X165636165Y-120808032D01*
X165636167Y-120808033D01*
X165636170Y-120808035D01*
X165850337Y-120907903D01*
X166078592Y-120969063D01*
X166255034Y-120984500D01*
X166313999Y-120989659D01*
X166314000Y-120989659D01*
X166314001Y-120989659D01*
X166372966Y-120984500D01*
X166549408Y-120969063D01*
X166777663Y-120907903D01*
X166991830Y-120808035D01*
X167185401Y-120672495D01*
X167352495Y-120505401D01*
X167488035Y-120311830D01*
X167587903Y-120097663D01*
X167649063Y-119869408D01*
X167669659Y-119634000D01*
X167669659Y-119633999D01*
X170038341Y-119633999D01*
X170038341Y-119634000D01*
X170058936Y-119869403D01*
X170058938Y-119869413D01*
X170120094Y-120097655D01*
X170120096Y-120097659D01*
X170120097Y-120097663D01*
X170200004Y-120269023D01*
X170219965Y-120311830D01*
X170219967Y-120311834D01*
X170289502Y-120411139D01*
X170355505Y-120505401D01*
X170522599Y-120672495D01*
X170619384Y-120740265D01*
X170716165Y-120808032D01*
X170716167Y-120808033D01*
X170716170Y-120808035D01*
X170930337Y-120907903D01*
X171158592Y-120969063D01*
X171335034Y-120984500D01*
X171393999Y-120989659D01*
X171394000Y-120989659D01*
X171394001Y-120989659D01*
X171452966Y-120984500D01*
X171629408Y-120969063D01*
X171857663Y-120907903D01*
X172071830Y-120808035D01*
X172265401Y-120672495D01*
X172267077Y-120670819D01*
X172267995Y-120670317D01*
X172269544Y-120669018D01*
X172269805Y-120669329D01*
X172328400Y-120637334D01*
X172354758Y-120634500D01*
X178350542Y-120634500D01*
X178369870Y-120630655D01*
X178447188Y-120615275D01*
X178543836Y-120596051D01*
X178621561Y-120563856D01*
X178725914Y-120520632D01*
X178889782Y-120411139D01*
X179029139Y-120271782D01*
X179029140Y-120271779D01*
X179036206Y-120264714D01*
X179036209Y-120264710D01*
X182953778Y-116347141D01*
X182953782Y-116347139D01*
X183093139Y-116207782D01*
X183202632Y-116043914D01*
X183278051Y-115861835D01*
X183280306Y-115850501D01*
X183280307Y-115850498D01*
X183316499Y-115668544D01*
X183316500Y-115668541D01*
X183316500Y-110489996D01*
X186336435Y-110489996D01*
X186336435Y-110490003D01*
X186356630Y-110669249D01*
X186356631Y-110669254D01*
X186416211Y-110839523D01*
X186446348Y-110887485D01*
X186512184Y-110992262D01*
X186639738Y-111119816D01*
X186792478Y-111215789D01*
X186945918Y-111269480D01*
X186962745Y-111275368D01*
X186962750Y-111275369D01*
X187141996Y-111295565D01*
X187142000Y-111295565D01*
X187142004Y-111295565D01*
X187321249Y-111275369D01*
X187321252Y-111275368D01*
X187321255Y-111275368D01*
X187330211Y-111272234D01*
X193197500Y-111272234D01*
X193197500Y-111423765D01*
X193236719Y-111570136D01*
X193256583Y-111604541D01*
X193312485Y-111701365D01*
X193419635Y-111808515D01*
X193493507Y-111851165D01*
X193550551Y-111884100D01*
X193550865Y-111884281D01*
X193697234Y-111923500D01*
X193697236Y-111923500D01*
X193848764Y-111923500D01*
X193848766Y-111923500D01*
X193995135Y-111884281D01*
X194126365Y-111808515D01*
X194233515Y-111701365D01*
X194309281Y-111570135D01*
X194348500Y-111423766D01*
X194348500Y-111272234D01*
X194309281Y-111125865D01*
X194307731Y-111123181D01*
X194255137Y-111032086D01*
X194233515Y-110994635D01*
X194126365Y-110887485D01*
X194043291Y-110839522D01*
X193995136Y-110811719D01*
X193872580Y-110778881D01*
X193848766Y-110772500D01*
X193697234Y-110772500D01*
X193550863Y-110811719D01*
X193419635Y-110887485D01*
X193419632Y-110887487D01*
X193312487Y-110994632D01*
X193312485Y-110994635D01*
X193236719Y-111125863D01*
X193197500Y-111272234D01*
X187330211Y-111272234D01*
X187491522Y-111215789D01*
X187644262Y-111119816D01*
X187771816Y-110992262D01*
X187867789Y-110839522D01*
X187927368Y-110669255D01*
X187937161Y-110582331D01*
X187964226Y-110517921D01*
X187972701Y-110508535D01*
X187982988Y-110498247D01*
X188003520Y-110477716D01*
X188082577Y-110340784D01*
X188116606Y-110213785D01*
X188123500Y-110188058D01*
X188123500Y-110029943D01*
X188123500Y-108659412D01*
X188143185Y-108592373D01*
X188150555Y-108582097D01*
X188152810Y-108579267D01*
X188152816Y-108579262D01*
X188248789Y-108426522D01*
X188308368Y-108256255D01*
X188310176Y-108240211D01*
X188328565Y-108077003D01*
X188328565Y-108076996D01*
X188308369Y-107897750D01*
X188308368Y-107897745D01*
X188293228Y-107854478D01*
X188248789Y-107727478D01*
X188232615Y-107701738D01*
X188152815Y-107574737D01*
X188025262Y-107447184D01*
X187872523Y-107351211D01*
X187702254Y-107291631D01*
X187702249Y-107291630D01*
X187523004Y-107271435D01*
X187522996Y-107271435D01*
X187343750Y-107291630D01*
X187343745Y-107291631D01*
X187173476Y-107351211D01*
X187020737Y-107447184D01*
X186893184Y-107574737D01*
X186797211Y-107727476D01*
X186737631Y-107897745D01*
X186737630Y-107897750D01*
X186717435Y-108076996D01*
X186717435Y-108077003D01*
X186737630Y-108256249D01*
X186737631Y-108256254D01*
X186797211Y-108426523D01*
X186844951Y-108502500D01*
X186877010Y-108553522D01*
X186893185Y-108579263D01*
X186895445Y-108582097D01*
X186896334Y-108584275D01*
X186896889Y-108585158D01*
X186896734Y-108585255D01*
X186921855Y-108646783D01*
X186922500Y-108659412D01*
X186922500Y-109630731D01*
X186902815Y-109697770D01*
X186850011Y-109743525D01*
X186839457Y-109747772D01*
X186792474Y-109764212D01*
X186639737Y-109860184D01*
X186512184Y-109987737D01*
X186416211Y-110140476D01*
X186356631Y-110310745D01*
X186356630Y-110310750D01*
X186336435Y-110489996D01*
X183316500Y-110489996D01*
X183316500Y-109431782D01*
X183336185Y-109364743D01*
X183352819Y-109344101D01*
X186758101Y-105938819D01*
X186819424Y-105905334D01*
X186845782Y-105902500D01*
X188049500Y-105902500D01*
X188116539Y-105922185D01*
X188162294Y-105974989D01*
X188173500Y-106026500D01*
X188173500Y-106270542D01*
X188181604Y-106311283D01*
X188181604Y-106311284D01*
X188211947Y-106463828D01*
X188211950Y-106463840D01*
X188231538Y-106511129D01*
X188287364Y-106645907D01*
X188287371Y-106645920D01*
X188396859Y-106809780D01*
X188396860Y-106809781D01*
X188396861Y-106809782D01*
X188536218Y-106949139D01*
X188536219Y-106949139D01*
X188543286Y-106956206D01*
X188543285Y-106956206D01*
X188543288Y-106956208D01*
X189920860Y-108333781D01*
X189920861Y-108333782D01*
X190010993Y-108423914D01*
X190060219Y-108473140D01*
X190224079Y-108582628D01*
X190224086Y-108582632D01*
X190305798Y-108616478D01*
X190406164Y-108658051D01*
X190599454Y-108696499D01*
X190599457Y-108696500D01*
X190599459Y-108696500D01*
X190796540Y-108696500D01*
X194296218Y-108696500D01*
X194363257Y-108716185D01*
X194383899Y-108732819D01*
X195902213Y-110251135D01*
X195902214Y-110251136D01*
X195902217Y-110251138D01*
X195902219Y-110251140D01*
X196066086Y-110360631D01*
X196248165Y-110436052D01*
X196441455Y-110474499D01*
X196441459Y-110474500D01*
X196441460Y-110474500D01*
X196638541Y-110474500D01*
X196638542Y-110474499D01*
X196831836Y-110436052D01*
X197013914Y-110360631D01*
X197177782Y-110251140D01*
X197317140Y-110111782D01*
X197426631Y-109947914D01*
X197502052Y-109765836D01*
X197540500Y-109572540D01*
X197540500Y-109375460D01*
X197502052Y-109182165D01*
X197426631Y-109000086D01*
X197317140Y-108836219D01*
X197317138Y-108836217D01*
X197317136Y-108836214D01*
X197317135Y-108836213D01*
X195546209Y-107065289D01*
X195546206Y-107065285D01*
X195546206Y-107065286D01*
X195539139Y-107058219D01*
X195539139Y-107058218D01*
X195399782Y-106918861D01*
X195399781Y-106918860D01*
X195399780Y-106918859D01*
X195235920Y-106809371D01*
X195235911Y-106809366D01*
X195154203Y-106775522D01*
X195107165Y-106756038D01*
X195053836Y-106733949D01*
X195053832Y-106733948D01*
X195053828Y-106733946D01*
X194957188Y-106714724D01*
X194860544Y-106695500D01*
X194860541Y-106695500D01*
X191163783Y-106695500D01*
X191096744Y-106675815D01*
X191076102Y-106659181D01*
X190210819Y-105793898D01*
X190177334Y-105732575D01*
X190174500Y-105706217D01*
X190174500Y-105492234D01*
X193197500Y-105492234D01*
X193197500Y-105643766D01*
X193207075Y-105679500D01*
X193236719Y-105790136D01*
X193240211Y-105796184D01*
X193312485Y-105921365D01*
X193419635Y-106028515D01*
X193550865Y-106104281D01*
X193697234Y-106143500D01*
X193697236Y-106143500D01*
X193848764Y-106143500D01*
X193848766Y-106143500D01*
X193995135Y-106104281D01*
X194126365Y-106028515D01*
X194233515Y-105921365D01*
X194309281Y-105790135D01*
X194348500Y-105643766D01*
X194348500Y-105492234D01*
X194309281Y-105345865D01*
X194233515Y-105214635D01*
X194126365Y-105107485D01*
X194006877Y-105038498D01*
X193995136Y-105031719D01*
X193921950Y-105012109D01*
X193848766Y-104992500D01*
X193697234Y-104992500D01*
X193550863Y-105031719D01*
X193419635Y-105107485D01*
X193419632Y-105107487D01*
X193312487Y-105214632D01*
X193312485Y-105214635D01*
X193236719Y-105345863D01*
X193233143Y-105359210D01*
X193197500Y-105492234D01*
X190174500Y-105492234D01*
X190174500Y-104803456D01*
X190136052Y-104610170D01*
X190136051Y-104610169D01*
X190136051Y-104610165D01*
X190075369Y-104463664D01*
X190060635Y-104428092D01*
X190060628Y-104428079D01*
X189951139Y-104264218D01*
X189951136Y-104264214D01*
X189811785Y-104124863D01*
X189811781Y-104124860D01*
X189647920Y-104015371D01*
X189647907Y-104015364D01*
X189465839Y-103939950D01*
X189465829Y-103939947D01*
X189272543Y-103901500D01*
X189272541Y-103901500D01*
X186281459Y-103901500D01*
X186281455Y-103901500D01*
X186184812Y-103920724D01*
X186088170Y-103939947D01*
X186088162Y-103939949D01*
X186054261Y-103953992D01*
X185906088Y-104015366D01*
X185906079Y-104015371D01*
X185742219Y-104124859D01*
X185672557Y-104194522D01*
X185602861Y-104264218D01*
X185602858Y-104264221D01*
X181678221Y-108188858D01*
X181678218Y-108188861D01*
X181634374Y-108232705D01*
X181538859Y-108328219D01*
X181429371Y-108492080D01*
X181429366Y-108492089D01*
X181391863Y-108582632D01*
X181360060Y-108659412D01*
X181353949Y-108674164D01*
X181350829Y-108689849D01*
X181350829Y-108689850D01*
X181315500Y-108867456D01*
X181315500Y-115104218D01*
X181295815Y-115171257D01*
X181279181Y-115191899D01*
X177873899Y-118597181D01*
X177812576Y-118630666D01*
X177786218Y-118633500D01*
X172354758Y-118633500D01*
X172287719Y-118613815D01*
X172267077Y-118597181D01*
X172265402Y-118595506D01*
X172265395Y-118595501D01*
X172245812Y-118581789D01*
X172199749Y-118549535D01*
X172071834Y-118459967D01*
X172071830Y-118459965D01*
X172064399Y-118456500D01*
X171857663Y-118360097D01*
X171857659Y-118360096D01*
X171857655Y-118360094D01*
X171629413Y-118298938D01*
X171629403Y-118298936D01*
X171394001Y-118278341D01*
X171393999Y-118278341D01*
X171158596Y-118298936D01*
X171158586Y-118298938D01*
X170930344Y-118360094D01*
X170930335Y-118360098D01*
X170716171Y-118459964D01*
X170716169Y-118459965D01*
X170522597Y-118595505D01*
X170355505Y-118762597D01*
X170219965Y-118956169D01*
X170219964Y-118956171D01*
X170120098Y-119170335D01*
X170120094Y-119170344D01*
X170058938Y-119398586D01*
X170058936Y-119398596D01*
X170038341Y-119633999D01*
X167669659Y-119633999D01*
X167667515Y-119609500D01*
X167661770Y-119543832D01*
X167649063Y-119398592D01*
X167587903Y-119170337D01*
X167488035Y-118956171D01*
X167482425Y-118948158D01*
X167352494Y-118762597D01*
X167185402Y-118595506D01*
X167185395Y-118595501D01*
X167165812Y-118581789D01*
X167119749Y-118549535D01*
X166991834Y-118459967D01*
X166991830Y-118459965D01*
X166984399Y-118456500D01*
X166777663Y-118360097D01*
X166777659Y-118360096D01*
X166777655Y-118360094D01*
X166549413Y-118298938D01*
X166549403Y-118298936D01*
X166314001Y-118278341D01*
X166313999Y-118278341D01*
X166078596Y-118298936D01*
X166078586Y-118298938D01*
X165850344Y-118360094D01*
X165850335Y-118360098D01*
X165636171Y-118459964D01*
X165636169Y-118459965D01*
X165442597Y-118595505D01*
X165275505Y-118762597D01*
X165145575Y-118948158D01*
X165090998Y-118991783D01*
X165021500Y-118998977D01*
X164959145Y-118967454D01*
X164942425Y-118948158D01*
X164812494Y-118762597D01*
X164645402Y-118595506D01*
X164645395Y-118595501D01*
X164625812Y-118581789D01*
X164579749Y-118549535D01*
X164451834Y-118459967D01*
X164451830Y-118459965D01*
X164444399Y-118456500D01*
X164237663Y-118360097D01*
X164237656Y-118360095D01*
X164232569Y-118358243D01*
X164233362Y-118356064D01*
X164182133Y-118324843D01*
X164151599Y-118261999D01*
X164159889Y-118192622D01*
X164204371Y-118138741D01*
X164232927Y-118124385D01*
X164255015Y-118116656D01*
X164377522Y-118073789D01*
X164530262Y-117977816D01*
X164530266Y-117977811D01*
X164533097Y-117975555D01*
X164535275Y-117974665D01*
X164536158Y-117974111D01*
X164536255Y-117974265D01*
X164597784Y-117949146D01*
X164610411Y-117948501D01*
X164615054Y-117948501D01*
X164615057Y-117948501D01*
X164767785Y-117907577D01*
X164835842Y-117868284D01*
X164904716Y-117828520D01*
X165016520Y-117716716D01*
X165016520Y-117716714D01*
X165026724Y-117706511D01*
X165026728Y-117706506D01*
X169212506Y-113520728D01*
X169212511Y-113520724D01*
X169222714Y-113510520D01*
X169222716Y-113510520D01*
X169334520Y-113398716D01*
X169386770Y-113308216D01*
X169413577Y-113261785D01*
X169454500Y-113109057D01*
X169454500Y-112950943D01*
X169454500Y-108203996D01*
X171350435Y-108203996D01*
X171350435Y-108204003D01*
X171370630Y-108383249D01*
X171370631Y-108383254D01*
X171430211Y-108553523D01*
X171496746Y-108659412D01*
X171526184Y-108706262D01*
X171653738Y-108833816D01*
X171806478Y-108929789D01*
X171976745Y-108989368D01*
X172063669Y-108999161D01*
X172128080Y-109026226D01*
X172137465Y-109034700D01*
X175227139Y-112124374D01*
X175227149Y-112124385D01*
X175231479Y-112128715D01*
X175231480Y-112128716D01*
X175343284Y-112240520D01*
X175343286Y-112240521D01*
X175343290Y-112240524D01*
X175417106Y-112283141D01*
X175480216Y-112319577D01*
X175592019Y-112349534D01*
X175632942Y-112360500D01*
X175632943Y-112360500D01*
X176653588Y-112360500D01*
X176720627Y-112380185D01*
X176730903Y-112387555D01*
X176733736Y-112389814D01*
X176733738Y-112389816D01*
X176886478Y-112485789D01*
X177028167Y-112535368D01*
X177056745Y-112545368D01*
X177056750Y-112545369D01*
X177235996Y-112565565D01*
X177236000Y-112565565D01*
X177236004Y-112565565D01*
X177415249Y-112545369D01*
X177415252Y-112545368D01*
X177415255Y-112545368D01*
X177585522Y-112485789D01*
X177738262Y-112389816D01*
X177865816Y-112262262D01*
X177961789Y-112109522D01*
X178021368Y-111939255D01*
X178023143Y-111923500D01*
X178041565Y-111760003D01*
X178041565Y-111759996D01*
X178021369Y-111580750D01*
X178021368Y-111580745D01*
X178017655Y-111570135D01*
X177961789Y-111410478D01*
X177943446Y-111381286D01*
X177876894Y-111275369D01*
X177865816Y-111257738D01*
X177738262Y-111130184D01*
X177722347Y-111120184D01*
X177585523Y-111034211D01*
X177415254Y-110974631D01*
X177415249Y-110974630D01*
X177236004Y-110954435D01*
X177235996Y-110954435D01*
X177056750Y-110974630D01*
X177056745Y-110974631D01*
X176886476Y-111034211D01*
X176733736Y-111130185D01*
X176730903Y-111132445D01*
X176728724Y-111133334D01*
X176727842Y-111133889D01*
X176727744Y-111133734D01*
X176666217Y-111158855D01*
X176653588Y-111159500D01*
X176012097Y-111159500D01*
X175945058Y-111139815D01*
X175924416Y-111123181D01*
X175791481Y-110990246D01*
X175757996Y-110928923D01*
X175762980Y-110859231D01*
X175804852Y-110803298D01*
X175870316Y-110778881D01*
X175893044Y-110779344D01*
X175920350Y-110782421D01*
X175965998Y-110787565D01*
X175966000Y-110787565D01*
X175966004Y-110787565D01*
X176145249Y-110767369D01*
X176145252Y-110767368D01*
X176145255Y-110767368D01*
X176315522Y-110707789D01*
X176468262Y-110611816D01*
X176595816Y-110484262D01*
X176691789Y-110331522D01*
X176751368Y-110161255D01*
X176753709Y-110140478D01*
X176771565Y-109982003D01*
X176771565Y-109981996D01*
X176751369Y-109802750D01*
X176751368Y-109802745D01*
X176730646Y-109743525D01*
X176691789Y-109632478D01*
X176690691Y-109630731D01*
X176595815Y-109479737D01*
X176468262Y-109352184D01*
X176315523Y-109256211D01*
X176145254Y-109196631D01*
X176145249Y-109196630D01*
X175966004Y-109176435D01*
X175965996Y-109176435D01*
X175836308Y-109191047D01*
X175767486Y-109178992D01*
X175734744Y-109155508D01*
X174764700Y-108185465D01*
X174731215Y-108124142D01*
X174729163Y-108111686D01*
X174719368Y-108024745D01*
X174659789Y-107854478D01*
X174563816Y-107701738D01*
X174436262Y-107574184D01*
X174432624Y-107571898D01*
X174283523Y-107478211D01*
X174113254Y-107418631D01*
X174113249Y-107418630D01*
X173934004Y-107398435D01*
X173933996Y-107398435D01*
X173754750Y-107418630D01*
X173754745Y-107418631D01*
X173584476Y-107478211D01*
X173431737Y-107574184D01*
X173304184Y-107701737D01*
X173208208Y-107854480D01*
X173162040Y-107986421D01*
X173121318Y-108043197D01*
X173056365Y-108068944D01*
X172987804Y-108055487D01*
X172937401Y-108007100D01*
X172927959Y-107986424D01*
X172881789Y-107854478D01*
X172785816Y-107701738D01*
X172658262Y-107574184D01*
X172654624Y-107571898D01*
X172505523Y-107478211D01*
X172335254Y-107418631D01*
X172335249Y-107418630D01*
X172156004Y-107398435D01*
X172155996Y-107398435D01*
X171976750Y-107418630D01*
X171976745Y-107418631D01*
X171806476Y-107478211D01*
X171653737Y-107574184D01*
X171526184Y-107701737D01*
X171430211Y-107854476D01*
X171370631Y-108024745D01*
X171370630Y-108024750D01*
X171350435Y-108203996D01*
X169454500Y-108203996D01*
X169454500Y-101111090D01*
X169474185Y-101044051D01*
X169526101Y-100998706D01*
X169531830Y-100996035D01*
X169725401Y-100860495D01*
X169892495Y-100693401D01*
X170022425Y-100507842D01*
X170077002Y-100464217D01*
X170146500Y-100457023D01*
X170208855Y-100488546D01*
X170225575Y-100507842D01*
X170355500Y-100693395D01*
X170355505Y-100693401D01*
X170522599Y-100860495D01*
X170592668Y-100909558D01*
X170716165Y-100996032D01*
X170716167Y-100996033D01*
X170716170Y-100996035D01*
X170727845Y-101001479D01*
X170787904Y-101029485D01*
X170840344Y-101075657D01*
X170859500Y-101141867D01*
X170859500Y-102710908D01*
X170839815Y-102777947D01*
X170787914Y-102823286D01*
X170782173Y-102825963D01*
X170782169Y-102825965D01*
X170588597Y-102961505D01*
X170421505Y-103128597D01*
X170285965Y-103322169D01*
X170285964Y-103322171D01*
X170186098Y-103536335D01*
X170186094Y-103536344D01*
X170124938Y-103764586D01*
X170124936Y-103764596D01*
X170104341Y-103999999D01*
X170104341Y-104000000D01*
X170124936Y-104235403D01*
X170124938Y-104235413D01*
X170186094Y-104463655D01*
X170186096Y-104463659D01*
X170186097Y-104463663D01*
X170191298Y-104474816D01*
X170285965Y-104677830D01*
X170285967Y-104677834D01*
X170350139Y-104769480D01*
X170421505Y-104871401D01*
X170588599Y-105038495D01*
X170685384Y-105106265D01*
X170782165Y-105174032D01*
X170782167Y-105174033D01*
X170782170Y-105174035D01*
X170996337Y-105273903D01*
X171224592Y-105335063D01*
X171401034Y-105350500D01*
X171459999Y-105355659D01*
X171460000Y-105355659D01*
X171460001Y-105355659D01*
X171518966Y-105350500D01*
X171695408Y-105335063D01*
X171923663Y-105273903D01*
X172137830Y-105174035D01*
X172331401Y-105038495D01*
X172453329Y-104916566D01*
X172514648Y-104883084D01*
X172584340Y-104888068D01*
X172640274Y-104929939D01*
X172657189Y-104960917D01*
X172706202Y-105092328D01*
X172706206Y-105092335D01*
X172792452Y-105207544D01*
X172792455Y-105207547D01*
X172907664Y-105293793D01*
X172907671Y-105293797D01*
X173042517Y-105344091D01*
X173042516Y-105344091D01*
X173049444Y-105344835D01*
X173102127Y-105350500D01*
X174897872Y-105350499D01*
X174932243Y-105346804D01*
X175001002Y-105359210D01*
X175033178Y-105382413D01*
X175113181Y-105462416D01*
X175146666Y-105523739D01*
X175149500Y-105550097D01*
X175149500Y-106417587D01*
X175129815Y-106484626D01*
X175122450Y-106494896D01*
X175120186Y-106497734D01*
X175024211Y-106650476D01*
X174964631Y-106820745D01*
X174964630Y-106820750D01*
X174944435Y-106999996D01*
X174944435Y-107000003D01*
X174964630Y-107179249D01*
X174964631Y-107179254D01*
X175024211Y-107349523D01*
X175120184Y-107502262D01*
X175247738Y-107629816D01*
X175317269Y-107673505D01*
X175362199Y-107701737D01*
X175400478Y-107725789D01*
X175570745Y-107785368D01*
X175570750Y-107785369D01*
X175749996Y-107805565D01*
X175750000Y-107805565D01*
X175750004Y-107805565D01*
X175929249Y-107785369D01*
X175929252Y-107785368D01*
X175929255Y-107785368D01*
X176099522Y-107725789D01*
X176252262Y-107629816D01*
X176379816Y-107502262D01*
X176475789Y-107349522D01*
X176535368Y-107179255D01*
X176538463Y-107151789D01*
X176555565Y-107000003D01*
X176555565Y-106999996D01*
X176535369Y-106820750D01*
X176535368Y-106820745D01*
X176501363Y-106723565D01*
X176475789Y-106650478D01*
X176447373Y-106605255D01*
X176388230Y-106511129D01*
X176379816Y-106497738D01*
X176379814Y-106497736D01*
X176379813Y-106497734D01*
X176377550Y-106494896D01*
X176376659Y-106492715D01*
X176376111Y-106491842D01*
X176376264Y-106491745D01*
X176351144Y-106430209D01*
X176350500Y-106417587D01*
X176350500Y-105339059D01*
X176350501Y-105339046D01*
X176350501Y-105170945D01*
X176350501Y-105170943D01*
X176309577Y-105018215D01*
X176309576Y-105018214D01*
X176309576Y-105018212D01*
X176309574Y-105018209D01*
X176274514Y-104957484D01*
X176274513Y-104957483D01*
X176230520Y-104881284D01*
X176118716Y-104769480D01*
X176118715Y-104769479D01*
X176114385Y-104765149D01*
X176114374Y-104765139D01*
X175386818Y-104037583D01*
X175353333Y-103976260D01*
X175350499Y-103949902D01*
X175350499Y-103102129D01*
X175350498Y-103102123D01*
X175344091Y-103042516D01*
X175293797Y-102907671D01*
X175293793Y-102907664D01*
X175207547Y-102792455D01*
X175207544Y-102792452D01*
X175092335Y-102706206D01*
X175092328Y-102706202D01*
X174957482Y-102655908D01*
X174957483Y-102655908D01*
X174897883Y-102649501D01*
X174897881Y-102649500D01*
X174897873Y-102649500D01*
X174897864Y-102649500D01*
X173102129Y-102649500D01*
X173102123Y-102649501D01*
X173042516Y-102655908D01*
X172907671Y-102706202D01*
X172907664Y-102706206D01*
X172792455Y-102792452D01*
X172792452Y-102792455D01*
X172706206Y-102907664D01*
X172706203Y-102907669D01*
X172657189Y-103039083D01*
X172615317Y-103095016D01*
X172549853Y-103119433D01*
X172481580Y-103104581D01*
X172453326Y-103083430D01*
X172331402Y-102961506D01*
X172331395Y-102961501D01*
X172137831Y-102825965D01*
X172137826Y-102825962D01*
X172132091Y-102823288D01*
X172079653Y-102777113D01*
X172060500Y-102710908D01*
X172060500Y-101068518D01*
X172080185Y-101001479D01*
X172113375Y-100966944D01*
X172265401Y-100860495D01*
X172432495Y-100693401D01*
X172568035Y-100499830D01*
X172667903Y-100285663D01*
X172729063Y-100057408D01*
X172749659Y-99822000D01*
X172749659Y-99821999D01*
X186350341Y-99821999D01*
X186350341Y-99822000D01*
X186370936Y-100057403D01*
X186370938Y-100057413D01*
X186432094Y-100285655D01*
X186432096Y-100285659D01*
X186432097Y-100285663D01*
X186526703Y-100488546D01*
X186531965Y-100499830D01*
X186531967Y-100499834D01*
X186616118Y-100620013D01*
X186667505Y-100693401D01*
X186834599Y-100860495D01*
X186904668Y-100909558D01*
X187028165Y-100996032D01*
X187028167Y-100996033D01*
X187028170Y-100996035D01*
X187242337Y-101095903D01*
X187470592Y-101157063D01*
X187647034Y-101172500D01*
X187705999Y-101177659D01*
X187706000Y-101177659D01*
X187706001Y-101177659D01*
X187764966Y-101172500D01*
X187941408Y-101157063D01*
X188169663Y-101095903D01*
X188383830Y-100996035D01*
X188577401Y-100860495D01*
X188744495Y-100693401D01*
X188880035Y-100499830D01*
X188979903Y-100285663D01*
X189041063Y-100057408D01*
X189061659Y-99822000D01*
X189041063Y-99586592D01*
X188979903Y-99358337D01*
X188880035Y-99144171D01*
X188874425Y-99136158D01*
X188744494Y-98950597D01*
X188577402Y-98783506D01*
X188577396Y-98783502D01*
X188466076Y-98705554D01*
X188383834Y-98647967D01*
X188383830Y-98647965D01*
X188306499Y-98611905D01*
X188169663Y-98548097D01*
X188169659Y-98548096D01*
X188169655Y-98548094D01*
X187941413Y-98486938D01*
X187941403Y-98486936D01*
X187706001Y-98466341D01*
X187705999Y-98466341D01*
X187470596Y-98486936D01*
X187470586Y-98486938D01*
X187242344Y-98548094D01*
X187242335Y-98548098D01*
X187028171Y-98647964D01*
X187028169Y-98647965D01*
X186834597Y-98783505D01*
X186667505Y-98950597D01*
X186531965Y-99144169D01*
X186531964Y-99144171D01*
X186432098Y-99358335D01*
X186432094Y-99358344D01*
X186370938Y-99586586D01*
X186370936Y-99586596D01*
X186350341Y-99821999D01*
X172749659Y-99821999D01*
X172729063Y-99586592D01*
X172667903Y-99358337D01*
X172568035Y-99144171D01*
X172562425Y-99136158D01*
X172432494Y-98950597D01*
X172265402Y-98783506D01*
X172265396Y-98783502D01*
X172154076Y-98705554D01*
X172071831Y-98647965D01*
X172071827Y-98647963D01*
X172066087Y-98645286D01*
X172013652Y-98599110D01*
X171994501Y-98532908D01*
X171994501Y-98472945D01*
X171994501Y-98472943D01*
X171953577Y-98320215D01*
X171924639Y-98270095D01*
X171874520Y-98183284D01*
X171762716Y-98071480D01*
X171762715Y-98071479D01*
X171758385Y-98067149D01*
X171758374Y-98067139D01*
X171215233Y-97523998D01*
X191774532Y-97523998D01*
X191774532Y-97524001D01*
X191794364Y-97750686D01*
X191794366Y-97750697D01*
X191853258Y-97970488D01*
X191853261Y-97970497D01*
X191949431Y-98176732D01*
X191949432Y-98176734D01*
X192079954Y-98363141D01*
X192240858Y-98524045D01*
X192240861Y-98524047D01*
X192427266Y-98654568D01*
X192633504Y-98750739D01*
X192853308Y-98809635D01*
X193015230Y-98823801D01*
X193079998Y-98829468D01*
X193080000Y-98829468D01*
X193080002Y-98829468D01*
X193136673Y-98824509D01*
X193306692Y-98809635D01*
X193526496Y-98750739D01*
X193732734Y-98654568D01*
X193919139Y-98524047D01*
X194080047Y-98363139D01*
X194210568Y-98176734D01*
X194306739Y-97970496D01*
X194365635Y-97750692D01*
X194385468Y-97524000D01*
X194365635Y-97297308D01*
X194306739Y-97077504D01*
X194210568Y-96871266D01*
X194080047Y-96684861D01*
X194080045Y-96684858D01*
X193919141Y-96523954D01*
X193732734Y-96393432D01*
X193732732Y-96393431D01*
X193526497Y-96297261D01*
X193526488Y-96297258D01*
X193306697Y-96238366D01*
X193306693Y-96238365D01*
X193306692Y-96238365D01*
X193306691Y-96238364D01*
X193306686Y-96238364D01*
X193080002Y-96218532D01*
X193079998Y-96218532D01*
X192853313Y-96238364D01*
X192853302Y-96238366D01*
X192633511Y-96297258D01*
X192633502Y-96297261D01*
X192427267Y-96393431D01*
X192427265Y-96393432D01*
X192240858Y-96523954D01*
X192079954Y-96684858D01*
X191949432Y-96871265D01*
X191949431Y-96871267D01*
X191853261Y-97077502D01*
X191853258Y-97077511D01*
X191794366Y-97297302D01*
X191794364Y-97297313D01*
X191774532Y-97523998D01*
X171215233Y-97523998D01*
X170865590Y-97174355D01*
X170865588Y-97174352D01*
X170746715Y-97055479D01*
X170659952Y-97005388D01*
X170611736Y-96954821D01*
X170598512Y-96886214D01*
X170624480Y-96821349D01*
X170681393Y-96780820D01*
X170721951Y-96774000D01*
X175711999Y-96774000D01*
X175712000Y-96774000D01*
X178469141Y-93766210D01*
X178528952Y-93730093D01*
X178560548Y-93726000D01*
X189174000Y-93726000D01*
X189174000Y-89049997D01*
X193594723Y-89049997D01*
X193594723Y-89050002D01*
X193613793Y-89267975D01*
X193613793Y-89267979D01*
X193670422Y-89479322D01*
X193670424Y-89479326D01*
X193670425Y-89479330D01*
X193694338Y-89530612D01*
X193762897Y-89677638D01*
X193762898Y-89677639D01*
X193888402Y-89856877D01*
X194043123Y-90011598D01*
X194222361Y-90137102D01*
X194420670Y-90229575D01*
X194632023Y-90286207D01*
X194814926Y-90302208D01*
X194849998Y-90305277D01*
X194850000Y-90305277D01*
X194850002Y-90305277D01*
X194878254Y-90302805D01*
X195067977Y-90286207D01*
X195279330Y-90229575D01*
X195477639Y-90137102D01*
X195656877Y-90011598D01*
X195811598Y-89856877D01*
X195937102Y-89677639D01*
X196029575Y-89479330D01*
X196086207Y-89267977D01*
X196105277Y-89050000D01*
X196086207Y-88832023D01*
X196051548Y-88702675D01*
X196029577Y-88620677D01*
X196029576Y-88620676D01*
X196029575Y-88620670D01*
X195937102Y-88422362D01*
X195937100Y-88422359D01*
X195937099Y-88422357D01*
X195811599Y-88243124D01*
X195739429Y-88170954D01*
X195656877Y-88088402D01*
X195477639Y-87962898D01*
X195477640Y-87962898D01*
X195477638Y-87962897D01*
X195378484Y-87916661D01*
X195279330Y-87870425D01*
X195279326Y-87870424D01*
X195279322Y-87870422D01*
X195067977Y-87813793D01*
X194850002Y-87794723D01*
X194849998Y-87794723D01*
X194728758Y-87805330D01*
X194632023Y-87813793D01*
X194632020Y-87813793D01*
X194420677Y-87870422D01*
X194420668Y-87870426D01*
X194222361Y-87962898D01*
X194222357Y-87962900D01*
X194043121Y-88088402D01*
X193888402Y-88243121D01*
X193762900Y-88422357D01*
X193762898Y-88422361D01*
X193670426Y-88620668D01*
X193670422Y-88620677D01*
X193613793Y-88832020D01*
X193613793Y-88832024D01*
X193594723Y-89049997D01*
X189174000Y-89049997D01*
X189174000Y-63108500D01*
X189193685Y-63041461D01*
X189246489Y-62995706D01*
X189298000Y-62984500D01*
X196268108Y-62984500D01*
X196330249Y-62984500D01*
X196337736Y-62984726D01*
G37*
%TD.AperFunction*%
%TA.AperFunction,Conductor*%
G36*
X159245703Y-118919371D02*
G01*
X159279060Y-118965631D01*
X159287700Y-118986490D01*
X159331364Y-119091908D01*
X159331371Y-119091920D01*
X159440860Y-119255781D01*
X159440863Y-119255785D01*
X159584537Y-119399459D01*
X159584559Y-119399479D01*
X159847181Y-119662101D01*
X159880666Y-119723424D01*
X159883500Y-119749782D01*
X159883500Y-120531870D01*
X159883501Y-120531876D01*
X159889908Y-120591483D01*
X159940202Y-120726328D01*
X159940206Y-120726335D01*
X160026452Y-120841544D01*
X160026455Y-120841547D01*
X160141664Y-120927793D01*
X160141671Y-120927797D01*
X160276517Y-120978091D01*
X160276516Y-120978091D01*
X160283444Y-120978835D01*
X160336127Y-120984500D01*
X161118217Y-120984499D01*
X161185256Y-121004183D01*
X161205898Y-121020818D01*
X163816623Y-123631543D01*
X163816652Y-123631574D01*
X163959102Y-123774024D01*
X163959106Y-123774027D01*
X164127280Y-123886398D01*
X164172085Y-123940010D01*
X164180792Y-124009335D01*
X164150637Y-124072363D01*
X164091194Y-124109082D01*
X164058389Y-124113500D01*
X160264097Y-124113500D01*
X160197058Y-124093815D01*
X160176416Y-124077181D01*
X159146347Y-123047112D01*
X159112862Y-122985789D01*
X159117846Y-122916097D01*
X159159718Y-122860164D01*
X159220143Y-122836211D01*
X159254255Y-122832368D01*
X159424522Y-122772789D01*
X159577262Y-122676816D01*
X159704816Y-122549262D01*
X159800789Y-122396522D01*
X159860368Y-122226255D01*
X159864125Y-122192911D01*
X159880565Y-122047003D01*
X159880565Y-122046996D01*
X159860369Y-121867750D01*
X159860368Y-121867745D01*
X159842556Y-121816842D01*
X159800789Y-121697478D01*
X159788852Y-121678481D01*
X159761582Y-121635080D01*
X159704816Y-121544738D01*
X159577262Y-121417184D01*
X159566117Y-121410181D01*
X159424521Y-121321210D01*
X159254249Y-121261630D01*
X159167332Y-121251837D01*
X159102918Y-121224770D01*
X159093535Y-121216298D01*
X159076819Y-121199582D01*
X159043334Y-121138259D01*
X159040500Y-121111901D01*
X159040500Y-119013084D01*
X159060185Y-118946045D01*
X159112989Y-118900290D01*
X159182147Y-118890346D01*
X159245703Y-118919371D01*
G37*
%TD.AperFunction*%
%TA.AperFunction,Conductor*%
G36*
X156590442Y-117875685D02*
G01*
X156611084Y-117892319D01*
X157803181Y-119084416D01*
X157836666Y-119145739D01*
X157839500Y-119172097D01*
X157839500Y-121325330D01*
X157839499Y-121325348D01*
X157839499Y-121491054D01*
X157839498Y-121491054D01*
X157853882Y-121544737D01*
X157880423Y-121643785D01*
X157897338Y-121673082D01*
X157959479Y-121780714D01*
X157959481Y-121780717D01*
X157967870Y-121789106D01*
X158001355Y-121850429D01*
X157996371Y-121920121D01*
X157954499Y-121976054D01*
X157889035Y-122000471D01*
X157820762Y-121985619D01*
X157814217Y-121981781D01*
X157773523Y-121956211D01*
X157603254Y-121896631D01*
X157603249Y-121896630D01*
X157424004Y-121876435D01*
X157417037Y-121876435D01*
X157417037Y-121874791D01*
X157356646Y-121864201D01*
X157305275Y-121816842D01*
X157294565Y-121794004D01*
X157260789Y-121697478D01*
X157164816Y-121544738D01*
X157037262Y-121417184D01*
X157026117Y-121410181D01*
X156884523Y-121321211D01*
X156714254Y-121261631D01*
X156714249Y-121261630D01*
X156535004Y-121241435D01*
X156534996Y-121241435D01*
X156355750Y-121261630D01*
X156355745Y-121261631D01*
X156185476Y-121321211D01*
X156032736Y-121417185D01*
X156029903Y-121419445D01*
X156027724Y-121420334D01*
X156026842Y-121420889D01*
X156026744Y-121420734D01*
X155965217Y-121445855D01*
X155952588Y-121446500D01*
X155819097Y-121446500D01*
X155752058Y-121426815D01*
X155731416Y-121410181D01*
X154455481Y-120134246D01*
X154421996Y-120072923D01*
X154426980Y-120003231D01*
X154468852Y-119947298D01*
X154534316Y-119922881D01*
X154557044Y-119923344D01*
X154575346Y-119925407D01*
X154629998Y-119931565D01*
X154630000Y-119931565D01*
X154630004Y-119931565D01*
X154809249Y-119911369D01*
X154809252Y-119911368D01*
X154809255Y-119911368D01*
X154979522Y-119851789D01*
X155132262Y-119755816D01*
X155259816Y-119628262D01*
X155355789Y-119475522D01*
X155415368Y-119305255D01*
X155415369Y-119305249D01*
X155435565Y-119126003D01*
X155435565Y-119125996D01*
X155415369Y-118946750D01*
X155415368Y-118946745D01*
X155392087Y-118880211D01*
X155355789Y-118776478D01*
X155259816Y-118623738D01*
X155132262Y-118496184D01*
X155124110Y-118491062D01*
X154979521Y-118400210D01*
X154809249Y-118340630D01*
X154722330Y-118330837D01*
X154657916Y-118303770D01*
X154648533Y-118295298D01*
X154420916Y-118067681D01*
X154387431Y-118006358D01*
X154392415Y-117936666D01*
X154434287Y-117880733D01*
X154499751Y-117856316D01*
X154508597Y-117856000D01*
X156523403Y-117856000D01*
X156590442Y-117875685D01*
G37*
%TD.AperFunction*%
%TA.AperFunction,Conductor*%
G36*
X153126942Y-118476185D02*
G01*
X153147584Y-118492819D01*
X153799298Y-119144533D01*
X153832783Y-119205856D01*
X153834837Y-119218329D01*
X153837514Y-119242086D01*
X153825460Y-119310908D01*
X153778112Y-119362288D01*
X153710501Y-119379913D01*
X153652295Y-119363359D01*
X153650440Y-119362288D01*
X153620345Y-119344912D01*
X153620343Y-119344911D01*
X153591785Y-119328423D01*
X153591784Y-119328422D01*
X153591783Y-119328422D01*
X153526419Y-119310908D01*
X153439057Y-119287499D01*
X153280943Y-119287499D01*
X153273347Y-119287499D01*
X153273331Y-119287500D01*
X153152098Y-119287500D01*
X153085059Y-119267815D01*
X153064417Y-119251181D01*
X152577590Y-118764355D01*
X152577588Y-118764352D01*
X152481417Y-118668181D01*
X152447932Y-118606858D01*
X152452916Y-118537166D01*
X152494788Y-118481233D01*
X152560252Y-118456816D01*
X152569098Y-118456500D01*
X153059903Y-118456500D01*
X153126942Y-118476185D01*
G37*
%TD.AperFunction*%
%TA.AperFunction,Conductor*%
G36*
X163419760Y-109821672D02*
G01*
X163475693Y-109863544D01*
X163493087Y-109901117D01*
X163494332Y-109900682D01*
X163556211Y-110077523D01*
X163595769Y-110140478D01*
X163652184Y-110230262D01*
X163779738Y-110357816D01*
X163932478Y-110453789D01*
X164102745Y-110513368D01*
X164189669Y-110523161D01*
X164254080Y-110550226D01*
X164263465Y-110558700D01*
X164407181Y-110702416D01*
X164440666Y-110763739D01*
X164443500Y-110790097D01*
X164443500Y-113717587D01*
X164423815Y-113784626D01*
X164416450Y-113794896D01*
X164414186Y-113797734D01*
X164318211Y-113950476D01*
X164258631Y-114120745D01*
X164258630Y-114120750D01*
X164238435Y-114299996D01*
X164238435Y-114300003D01*
X164258630Y-114479249D01*
X164258631Y-114479254D01*
X164318211Y-114649523D01*
X164386348Y-114757961D01*
X164414184Y-114802262D01*
X164473662Y-114861740D01*
X164507146Y-114923064D01*
X164502161Y-114992755D01*
X164473661Y-115037102D01*
X162961265Y-116549500D01*
X162643284Y-116867481D01*
X162527030Y-116983735D01*
X162426566Y-117084198D01*
X162365243Y-117117682D01*
X162297930Y-117113557D01*
X162175262Y-117070633D01*
X162175249Y-117070630D01*
X161996004Y-117050435D01*
X161995996Y-117050435D01*
X161816750Y-117070630D01*
X161816745Y-117070631D01*
X161646476Y-117130211D01*
X161493737Y-117226184D01*
X161430181Y-117289741D01*
X161368858Y-117323226D01*
X161299166Y-117318242D01*
X161243233Y-117276370D01*
X161218816Y-117210906D01*
X161218500Y-117202060D01*
X161218500Y-111971781D01*
X161238185Y-111904742D01*
X161254814Y-111884105D01*
X163288747Y-109850171D01*
X163350068Y-109816688D01*
X163419760Y-109821672D01*
G37*
%TD.AperFunction*%
%TA.AperFunction,Conductor*%
G36*
X167668855Y-100488546D02*
G01*
X167685575Y-100507842D01*
X167815500Y-100693395D01*
X167815505Y-100693401D01*
X167982599Y-100860495D01*
X168052668Y-100909558D01*
X168176165Y-100996032D01*
X168176167Y-100996033D01*
X168176170Y-100996035D01*
X168181898Y-100998706D01*
X168234339Y-101044872D01*
X168253500Y-101111090D01*
X168253500Y-112729903D01*
X168233815Y-112796942D01*
X168217181Y-112817584D01*
X167126181Y-113908584D01*
X167064858Y-113942069D01*
X166995166Y-113937085D01*
X166939233Y-113895213D01*
X166914816Y-113829749D01*
X166914500Y-113820903D01*
X166914500Y-101111090D01*
X166934185Y-101044051D01*
X166986101Y-100998706D01*
X166991830Y-100996035D01*
X167185401Y-100860495D01*
X167352495Y-100693401D01*
X167482425Y-100507842D01*
X167537002Y-100464217D01*
X167606500Y-100457023D01*
X167668855Y-100488546D01*
G37*
%TD.AperFunction*%
%TA.AperFunction,Conductor*%
G36*
X170144942Y-98156185D02*
G01*
X170165584Y-98172819D01*
X170567304Y-98574539D01*
X170600789Y-98635862D01*
X170595805Y-98705554D01*
X170553933Y-98761487D01*
X170550748Y-98763794D01*
X170522601Y-98783502D01*
X170522597Y-98783506D01*
X170355505Y-98950597D01*
X170225575Y-99136158D01*
X170170998Y-99179783D01*
X170101500Y-99186977D01*
X170039145Y-99155454D01*
X170022425Y-99136158D01*
X169892494Y-98950597D01*
X169725402Y-98783506D01*
X169725396Y-98783502D01*
X169614076Y-98705554D01*
X169531834Y-98647967D01*
X169531830Y-98647965D01*
X169454499Y-98611905D01*
X169317663Y-98548097D01*
X169317659Y-98548096D01*
X169317655Y-98548094D01*
X169089413Y-98486938D01*
X169089403Y-98486936D01*
X168854001Y-98466341D01*
X168853999Y-98466341D01*
X168618596Y-98486936D01*
X168618586Y-98486938D01*
X168390344Y-98548094D01*
X168390335Y-98548098D01*
X168176171Y-98647964D01*
X168176169Y-98647965D01*
X167982597Y-98783505D01*
X167815505Y-98950597D01*
X167685575Y-99136158D01*
X167630998Y-99179783D01*
X167561500Y-99186977D01*
X167499145Y-99155454D01*
X167482425Y-99136158D01*
X167352494Y-98950597D01*
X167185402Y-98783506D01*
X167185396Y-98783502D01*
X167074076Y-98705554D01*
X166991834Y-98647967D01*
X166991830Y-98647965D01*
X166914499Y-98611905D01*
X166777663Y-98548097D01*
X166777659Y-98548096D01*
X166777655Y-98548094D01*
X166549413Y-98486938D01*
X166549403Y-98486936D01*
X166314001Y-98466341D01*
X166313999Y-98466341D01*
X166078596Y-98486936D01*
X166078586Y-98486938D01*
X165850344Y-98548094D01*
X165850335Y-98548098D01*
X165636171Y-98647964D01*
X165636169Y-98647965D01*
X165442597Y-98783505D01*
X165275505Y-98950597D01*
X165145575Y-99136158D01*
X165090998Y-99179783D01*
X165021500Y-99186977D01*
X164959145Y-99155454D01*
X164942425Y-99136158D01*
X164812494Y-98950597D01*
X164645402Y-98783506D01*
X164645396Y-98783502D01*
X164534076Y-98705554D01*
X164451834Y-98647967D01*
X164451830Y-98647965D01*
X164374499Y-98611905D01*
X164237663Y-98548097D01*
X164237659Y-98548096D01*
X164237655Y-98548094D01*
X164009413Y-98486938D01*
X164009403Y-98486936D01*
X163774001Y-98466341D01*
X163773999Y-98466341D01*
X163538596Y-98486936D01*
X163538586Y-98486938D01*
X163310344Y-98548094D01*
X163310335Y-98548098D01*
X163096171Y-98647964D01*
X163096169Y-98647965D01*
X162902597Y-98783505D01*
X162735505Y-98950597D01*
X162599965Y-99144169D01*
X162599964Y-99144171D01*
X162500098Y-99358335D01*
X162500094Y-99358344D01*
X162438938Y-99586586D01*
X162438936Y-99586596D01*
X162418341Y-99821999D01*
X162418341Y-99822000D01*
X162438936Y-100057403D01*
X162438938Y-100057413D01*
X162500094Y-100285655D01*
X162500096Y-100285659D01*
X162500097Y-100285663D01*
X162594703Y-100488546D01*
X162599965Y-100499830D01*
X162599967Y-100499834D01*
X162684118Y-100620013D01*
X162735501Y-100693396D01*
X162735506Y-100693402D01*
X162737181Y-100695077D01*
X162737682Y-100695995D01*
X162738982Y-100697544D01*
X162738670Y-100697805D01*
X162770666Y-100756400D01*
X162773500Y-100782758D01*
X162773500Y-107484217D01*
X162753815Y-107551256D01*
X162737181Y-107571898D01*
X159921681Y-110387398D01*
X159860358Y-110420883D01*
X159790666Y-110415899D01*
X159734733Y-110374027D01*
X159710316Y-110308563D01*
X159710000Y-110299717D01*
X159710000Y-106185103D01*
X159716959Y-106144148D01*
X159717187Y-106143499D01*
X159733368Y-106097255D01*
X159733368Y-106097253D01*
X159733369Y-106097251D01*
X159753565Y-105918003D01*
X159753565Y-105917996D01*
X159733369Y-105738750D01*
X159733367Y-105738742D01*
X159716958Y-105691846D01*
X159710000Y-105650892D01*
X159710000Y-100976597D01*
X159729685Y-100909558D01*
X159746319Y-100888916D01*
X162462416Y-98172819D01*
X162523739Y-98139334D01*
X162550097Y-98136500D01*
X170077903Y-98136500D01*
X170144942Y-98156185D01*
G37*
%TD.AperFunction*%
%TA.AperFunction,Conductor*%
G36*
X165128855Y-100488546D02*
G01*
X165145575Y-100507842D01*
X165275500Y-100693395D01*
X165275505Y-100693401D01*
X165442599Y-100860495D01*
X165512668Y-100909558D01*
X165636165Y-100996032D01*
X165636167Y-100996033D01*
X165636170Y-100996035D01*
X165641898Y-100998706D01*
X165694339Y-101044872D01*
X165713500Y-101111090D01*
X165713500Y-110010902D01*
X165693815Y-110077941D01*
X165641011Y-110123696D01*
X165571853Y-110133640D01*
X165508297Y-110104615D01*
X165501819Y-110098583D01*
X165310491Y-109907255D01*
X165112699Y-109709464D01*
X165079215Y-109648142D01*
X165077163Y-109635686D01*
X165067368Y-109548745D01*
X165007789Y-109378478D01*
X164911816Y-109225738D01*
X164784262Y-109098184D01*
X164631523Y-109002211D01*
X164454682Y-108940332D01*
X164455376Y-108938347D01*
X164403285Y-108909209D01*
X164370427Y-108847548D01*
X164376122Y-108777910D01*
X164404173Y-108734746D01*
X164551139Y-108587782D01*
X164604098Y-108508523D01*
X164660632Y-108423914D01*
X164696971Y-108336184D01*
X164705538Y-108315501D01*
X164705538Y-108315500D01*
X164730078Y-108256255D01*
X164736051Y-108241836D01*
X164774500Y-108048541D01*
X164774500Y-107851460D01*
X164774500Y-100782758D01*
X164794185Y-100715719D01*
X164810819Y-100695077D01*
X164811461Y-100694435D01*
X164812495Y-100693401D01*
X164942425Y-100507842D01*
X164997002Y-100464217D01*
X165066500Y-100457023D01*
X165128855Y-100488546D01*
G37*
%TD.AperFunction*%
%TA.AperFunction,Conductor*%
G36*
X161973087Y-96793685D02*
G01*
X162018842Y-96846489D01*
X162028786Y-96915647D01*
X161999761Y-96979203D01*
X161968047Y-97005387D01*
X161881290Y-97055475D01*
X161881282Y-97055481D01*
X159921681Y-99015083D01*
X159860358Y-99048568D01*
X159790666Y-99043584D01*
X159734733Y-99001712D01*
X159710316Y-98936248D01*
X159710000Y-98927402D01*
X159710000Y-98095362D01*
X159729685Y-98028323D01*
X159746319Y-98007681D01*
X160943681Y-96810319D01*
X161005004Y-96776834D01*
X161031362Y-96774000D01*
X161906048Y-96774000D01*
X161973087Y-96793685D01*
G37*
%TD.AperFunction*%
%TD*%
M02*
