%TF.GenerationSoftware,KiCad,Pcbnew,8.0.7-8.0.7-0~ubuntu24.04.1*%
%TF.CreationDate,2024-12-13T16:46:42+09:00*%
%TF.ProjectId,MRM5-tester,4d524d35-2d74-4657-9374-65722e6b6963,rev?*%
%TF.SameCoordinates,Original*%
%TF.FileFunction,Legend,Bot*%
%TF.FilePolarity,Positive*%
%FSLAX46Y46*%
G04 Gerber Fmt 4.6, Leading zero omitted, Abs format (unit mm)*
G04 Created by KiCad (PCBNEW 8.0.7-8.0.7-0~ubuntu24.04.1) date 2024-12-13 16:46:42*
%MOMM*%
%LPD*%
G01*
G04 APERTURE LIST*
%ADD10C,0.100000*%
%ADD11C,0.150000*%
%ADD12C,0.254000*%
%ADD13C,0.120000*%
%ADD14C,0.127000*%
%ADD15C,0.200000*%
%ADD16C,0.000000*%
%ADD17C,0.125000*%
G04 APERTURE END LIST*
D10*
X190050000Y-144400000D02*
G75*
G02*
X181050000Y-144400000I-4500000J0D01*
G01*
X181050000Y-144400000D02*
G75*
G02*
X190050000Y-144400000I4500000J0D01*
G01*
X142348055Y-116900000D02*
G75*
G02*
X133348055Y-116900000I-4500000J0D01*
G01*
X133348055Y-116900000D02*
G75*
G02*
X142348055Y-116900000I4500000J0D01*
G01*
X215000000Y-81900000D02*
G75*
G02*
X206000000Y-81900000I-4500000J0D01*
G01*
X206000000Y-81900000D02*
G75*
G02*
X215000000Y-81900000I4500000J0D01*
G01*
X117398055Y-54401504D02*
G75*
G02*
X108398055Y-54401504I-4500000J0D01*
G01*
X108398055Y-54401504D02*
G75*
G02*
X117398055Y-54401504I4500000J0D01*
G01*
X92350000Y-116900000D02*
G75*
G02*
X83350000Y-116900000I-4500000J0D01*
G01*
X83350000Y-116900000D02*
G75*
G02*
X92350000Y-116900000I4500000J0D01*
G01*
X92350000Y-81900000D02*
G75*
G02*
X83350000Y-81900000I-4500000J0D01*
G01*
X83350000Y-81900000D02*
G75*
G02*
X92350000Y-81900000I4500000J0D01*
G01*
X119798000Y-81946000D02*
X126402000Y-81946000D01*
X126402000Y-96170000D01*
X119798000Y-96170000D01*
X119798000Y-81946000D01*
X215000000Y-117000000D02*
G75*
G02*
X206000000Y-117000000I-4500000J0D01*
G01*
X206000000Y-117000000D02*
G75*
G02*
X215000000Y-117000000I4500000J0D01*
G01*
X165000000Y-117000000D02*
G75*
G02*
X156000000Y-117000000I-4500000J0D01*
G01*
X156000000Y-117000000D02*
G75*
G02*
X165000000Y-117000000I4500000J0D01*
G01*
X190050000Y-54400000D02*
G75*
G02*
X181050000Y-54400000I-4500000J0D01*
G01*
X181050000Y-54400000D02*
G75*
G02*
X190050000Y-54400000I4500000J0D01*
G01*
X120052000Y-82200000D02*
X126148000Y-82200000D01*
X126148000Y-95916000D01*
X120052000Y-95916000D01*
X120052000Y-82200000D01*
X165000000Y-82000000D02*
G75*
G02*
X156000000Y-82000000I-4500000J0D01*
G01*
X156000000Y-82000000D02*
G75*
G02*
X165000000Y-82000000I4500000J0D01*
G01*
X142348055Y-81900000D02*
G75*
G02*
X133348055Y-81900000I-4500000J0D01*
G01*
X133348055Y-81900000D02*
G75*
G02*
X142348055Y-81900000I4500000J0D01*
G01*
X120052000Y-82200000D02*
X126148000Y-82200000D01*
X126148000Y-89058000D01*
X120052000Y-89058000D01*
X120052000Y-82200000D01*
X114208646Y-121872419D02*
X114827693Y-121872419D01*
X114827693Y-121872419D02*
X114494360Y-122253371D01*
X114494360Y-122253371D02*
X114637217Y-122253371D01*
X114637217Y-122253371D02*
X114732455Y-122300990D01*
X114732455Y-122300990D02*
X114780074Y-122348609D01*
X114780074Y-122348609D02*
X114827693Y-122443847D01*
X114827693Y-122443847D02*
X114827693Y-122681942D01*
X114827693Y-122681942D02*
X114780074Y-122777180D01*
X114780074Y-122777180D02*
X114732455Y-122824800D01*
X114732455Y-122824800D02*
X114637217Y-122872419D01*
X114637217Y-122872419D02*
X114351503Y-122872419D01*
X114351503Y-122872419D02*
X114256265Y-122824800D01*
X114256265Y-122824800D02*
X114208646Y-122777180D01*
X115256265Y-122777180D02*
X115303884Y-122824800D01*
X115303884Y-122824800D02*
X115256265Y-122872419D01*
X115256265Y-122872419D02*
X115208646Y-122824800D01*
X115208646Y-122824800D02*
X115256265Y-122777180D01*
X115256265Y-122777180D02*
X115256265Y-122872419D01*
X115637217Y-121872419D02*
X116256264Y-121872419D01*
X116256264Y-121872419D02*
X115922931Y-122253371D01*
X115922931Y-122253371D02*
X116065788Y-122253371D01*
X116065788Y-122253371D02*
X116161026Y-122300990D01*
X116161026Y-122300990D02*
X116208645Y-122348609D01*
X116208645Y-122348609D02*
X116256264Y-122443847D01*
X116256264Y-122443847D02*
X116256264Y-122681942D01*
X116256264Y-122681942D02*
X116208645Y-122777180D01*
X116208645Y-122777180D02*
X116161026Y-122824800D01*
X116161026Y-122824800D02*
X116065788Y-122872419D01*
X116065788Y-122872419D02*
X115780074Y-122872419D01*
X115780074Y-122872419D02*
X115684836Y-122824800D01*
X115684836Y-122824800D02*
X115637217Y-122777180D01*
X116541979Y-121872419D02*
X116875312Y-122872419D01*
X116875312Y-122872419D02*
X117208645Y-121872419D01*
X118827693Y-122872419D02*
X118256265Y-122872419D01*
X118541979Y-122872419D02*
X118541979Y-121872419D01*
X118541979Y-121872419D02*
X118446741Y-122015276D01*
X118446741Y-122015276D02*
X118351503Y-122110514D01*
X118351503Y-122110514D02*
X118256265Y-122158133D01*
X119208646Y-122586704D02*
X119684836Y-122586704D01*
X119113408Y-122872419D02*
X119446741Y-121872419D01*
X119446741Y-121872419D02*
X119780074Y-122872419D01*
X118324972Y-93396475D02*
X117991639Y-94396475D01*
X117991639Y-94396475D02*
X117658306Y-93396475D01*
X116801163Y-94396475D02*
X117372591Y-94396475D01*
X117086877Y-94396475D02*
X117086877Y-93396475D01*
X117086877Y-93396475D02*
X117182115Y-93539332D01*
X117182115Y-93539332D02*
X117277353Y-93634570D01*
X117277353Y-93634570D02*
X117372591Y-93682189D01*
X116372591Y-94301236D02*
X116324972Y-94348856D01*
X116324972Y-94348856D02*
X116372591Y-94396475D01*
X116372591Y-94396475D02*
X116420210Y-94348856D01*
X116420210Y-94348856D02*
X116372591Y-94301236D01*
X116372591Y-94301236D02*
X116372591Y-94396475D01*
X115705925Y-93396475D02*
X115610687Y-93396475D01*
X115610687Y-93396475D02*
X115515449Y-93444094D01*
X115515449Y-93444094D02*
X115467830Y-93491713D01*
X115467830Y-93491713D02*
X115420211Y-93586951D01*
X115420211Y-93586951D02*
X115372592Y-93777427D01*
X115372592Y-93777427D02*
X115372592Y-94015522D01*
X115372592Y-94015522D02*
X115420211Y-94205998D01*
X115420211Y-94205998D02*
X115467830Y-94301236D01*
X115467830Y-94301236D02*
X115515449Y-94348856D01*
X115515449Y-94348856D02*
X115610687Y-94396475D01*
X115610687Y-94396475D02*
X115705925Y-94396475D01*
X115705925Y-94396475D02*
X115801163Y-94348856D01*
X115801163Y-94348856D02*
X115848782Y-94301236D01*
X115848782Y-94301236D02*
X115896401Y-94205998D01*
X115896401Y-94205998D02*
X115944020Y-94015522D01*
X115944020Y-94015522D02*
X115944020Y-93777427D01*
X115944020Y-93777427D02*
X115896401Y-93586951D01*
X115896401Y-93586951D02*
X115848782Y-93491713D01*
X115848782Y-93491713D02*
X115801163Y-93444094D01*
X115801163Y-93444094D02*
X115705925Y-93396475D01*
X114944020Y-94301236D02*
X114896401Y-94348856D01*
X114896401Y-94348856D02*
X114944020Y-94396475D01*
X114944020Y-94396475D02*
X114991639Y-94348856D01*
X114991639Y-94348856D02*
X114944020Y-94301236D01*
X114944020Y-94301236D02*
X114944020Y-94396475D01*
X114277354Y-93396475D02*
X114182116Y-93396475D01*
X114182116Y-93396475D02*
X114086878Y-93444094D01*
X114086878Y-93444094D02*
X114039259Y-93491713D01*
X114039259Y-93491713D02*
X113991640Y-93586951D01*
X113991640Y-93586951D02*
X113944021Y-93777427D01*
X113944021Y-93777427D02*
X113944021Y-94015522D01*
X113944021Y-94015522D02*
X113991640Y-94205998D01*
X113991640Y-94205998D02*
X114039259Y-94301236D01*
X114039259Y-94301236D02*
X114086878Y-94348856D01*
X114086878Y-94348856D02*
X114182116Y-94396475D01*
X114182116Y-94396475D02*
X114277354Y-94396475D01*
X114277354Y-94396475D02*
X114372592Y-94348856D01*
X114372592Y-94348856D02*
X114420211Y-94301236D01*
X114420211Y-94301236D02*
X114467830Y-94205998D01*
X114467830Y-94205998D02*
X114515449Y-94015522D01*
X114515449Y-94015522D02*
X114515449Y-93777427D01*
X114515449Y-93777427D02*
X114467830Y-93586951D01*
X114467830Y-93586951D02*
X114420211Y-93491713D01*
X114420211Y-93491713D02*
X114372592Y-93444094D01*
X114372592Y-93444094D02*
X114277354Y-93396475D01*
X118229734Y-95101657D02*
X118182115Y-95054038D01*
X118182115Y-95054038D02*
X118086877Y-95006419D01*
X118086877Y-95006419D02*
X117848782Y-95006419D01*
X117848782Y-95006419D02*
X117753544Y-95054038D01*
X117753544Y-95054038D02*
X117705925Y-95101657D01*
X117705925Y-95101657D02*
X117658306Y-95196895D01*
X117658306Y-95196895D02*
X117658306Y-95292133D01*
X117658306Y-95292133D02*
X117705925Y-95434990D01*
X117705925Y-95434990D02*
X118277353Y-96006419D01*
X118277353Y-96006419D02*
X117658306Y-96006419D01*
X117039258Y-95006419D02*
X116944020Y-95006419D01*
X116944020Y-95006419D02*
X116848782Y-95054038D01*
X116848782Y-95054038D02*
X116801163Y-95101657D01*
X116801163Y-95101657D02*
X116753544Y-95196895D01*
X116753544Y-95196895D02*
X116705925Y-95387371D01*
X116705925Y-95387371D02*
X116705925Y-95625466D01*
X116705925Y-95625466D02*
X116753544Y-95815942D01*
X116753544Y-95815942D02*
X116801163Y-95911180D01*
X116801163Y-95911180D02*
X116848782Y-95958800D01*
X116848782Y-95958800D02*
X116944020Y-96006419D01*
X116944020Y-96006419D02*
X117039258Y-96006419D01*
X117039258Y-96006419D02*
X117134496Y-95958800D01*
X117134496Y-95958800D02*
X117182115Y-95911180D01*
X117182115Y-95911180D02*
X117229734Y-95815942D01*
X117229734Y-95815942D02*
X117277353Y-95625466D01*
X117277353Y-95625466D02*
X117277353Y-95387371D01*
X117277353Y-95387371D02*
X117229734Y-95196895D01*
X117229734Y-95196895D02*
X117182115Y-95101657D01*
X117182115Y-95101657D02*
X117134496Y-95054038D01*
X117134496Y-95054038D02*
X117039258Y-95006419D01*
X116324972Y-95101657D02*
X116277353Y-95054038D01*
X116277353Y-95054038D02*
X116182115Y-95006419D01*
X116182115Y-95006419D02*
X115944020Y-95006419D01*
X115944020Y-95006419D02*
X115848782Y-95054038D01*
X115848782Y-95054038D02*
X115801163Y-95101657D01*
X115801163Y-95101657D02*
X115753544Y-95196895D01*
X115753544Y-95196895D02*
X115753544Y-95292133D01*
X115753544Y-95292133D02*
X115801163Y-95434990D01*
X115801163Y-95434990D02*
X116372591Y-96006419D01*
X116372591Y-96006419D02*
X115753544Y-96006419D01*
X114896401Y-95339752D02*
X114896401Y-96006419D01*
X115134496Y-94958800D02*
X115372591Y-95673085D01*
X115372591Y-95673085D02*
X114753544Y-95673085D01*
X114372591Y-95911180D02*
X114324972Y-95958800D01*
X114324972Y-95958800D02*
X114372591Y-96006419D01*
X114372591Y-96006419D02*
X114420210Y-95958800D01*
X114420210Y-95958800D02*
X114372591Y-95911180D01*
X114372591Y-95911180D02*
X114372591Y-96006419D01*
X113372592Y-96006419D02*
X113944020Y-96006419D01*
X113658306Y-96006419D02*
X113658306Y-95006419D01*
X113658306Y-95006419D02*
X113753544Y-95149276D01*
X113753544Y-95149276D02*
X113848782Y-95244514D01*
X113848782Y-95244514D02*
X113944020Y-95292133D01*
X112991639Y-95101657D02*
X112944020Y-95054038D01*
X112944020Y-95054038D02*
X112848782Y-95006419D01*
X112848782Y-95006419D02*
X112610687Y-95006419D01*
X112610687Y-95006419D02*
X112515449Y-95054038D01*
X112515449Y-95054038D02*
X112467830Y-95101657D01*
X112467830Y-95101657D02*
X112420211Y-95196895D01*
X112420211Y-95196895D02*
X112420211Y-95292133D01*
X112420211Y-95292133D02*
X112467830Y-95434990D01*
X112467830Y-95434990D02*
X113039258Y-96006419D01*
X113039258Y-96006419D02*
X112420211Y-96006419D01*
X111991639Y-95911180D02*
X111944020Y-95958800D01*
X111944020Y-95958800D02*
X111991639Y-96006419D01*
X111991639Y-96006419D02*
X112039258Y-95958800D01*
X112039258Y-95958800D02*
X111991639Y-95911180D01*
X111991639Y-95911180D02*
X111991639Y-96006419D01*
X110991640Y-96006419D02*
X111563068Y-96006419D01*
X111277354Y-96006419D02*
X111277354Y-95006419D01*
X111277354Y-95006419D02*
X111372592Y-95149276D01*
X111372592Y-95149276D02*
X111467830Y-95244514D01*
X111467830Y-95244514D02*
X111563068Y-95292133D01*
X110372592Y-95006419D02*
X110277354Y-95006419D01*
X110277354Y-95006419D02*
X110182116Y-95054038D01*
X110182116Y-95054038D02*
X110134497Y-95101657D01*
X110134497Y-95101657D02*
X110086878Y-95196895D01*
X110086878Y-95196895D02*
X110039259Y-95387371D01*
X110039259Y-95387371D02*
X110039259Y-95625466D01*
X110039259Y-95625466D02*
X110086878Y-95815942D01*
X110086878Y-95815942D02*
X110134497Y-95911180D01*
X110134497Y-95911180D02*
X110182116Y-95958800D01*
X110182116Y-95958800D02*
X110277354Y-96006419D01*
X110277354Y-96006419D02*
X110372592Y-96006419D01*
X110372592Y-96006419D02*
X110467830Y-95958800D01*
X110467830Y-95958800D02*
X110515449Y-95911180D01*
X110515449Y-95911180D02*
X110563068Y-95815942D01*
X110563068Y-95815942D02*
X110610687Y-95625466D01*
X110610687Y-95625466D02*
X110610687Y-95387371D01*
X110610687Y-95387371D02*
X110563068Y-95196895D01*
X110563068Y-95196895D02*
X110515449Y-95101657D01*
X110515449Y-95101657D02*
X110467830Y-95054038D01*
X110467830Y-95054038D02*
X110372592Y-95006419D01*
X109610687Y-95911180D02*
X109563068Y-95958800D01*
X109563068Y-95958800D02*
X109610687Y-96006419D01*
X109610687Y-96006419D02*
X109658306Y-95958800D01*
X109658306Y-95958800D02*
X109610687Y-95911180D01*
X109610687Y-95911180D02*
X109610687Y-96006419D01*
X126034687Y-81469180D02*
X126082306Y-81516800D01*
X126082306Y-81516800D02*
X126225163Y-81564419D01*
X126225163Y-81564419D02*
X126320401Y-81564419D01*
X126320401Y-81564419D02*
X126463258Y-81516800D01*
X126463258Y-81516800D02*
X126558496Y-81421561D01*
X126558496Y-81421561D02*
X126606115Y-81326323D01*
X126606115Y-81326323D02*
X126653734Y-81135847D01*
X126653734Y-81135847D02*
X126653734Y-80992990D01*
X126653734Y-80992990D02*
X126606115Y-80802514D01*
X126606115Y-80802514D02*
X126558496Y-80707276D01*
X126558496Y-80707276D02*
X126463258Y-80612038D01*
X126463258Y-80612038D02*
X126320401Y-80564419D01*
X126320401Y-80564419D02*
X126225163Y-80564419D01*
X126225163Y-80564419D02*
X126082306Y-80612038D01*
X126082306Y-80612038D02*
X126034687Y-80659657D01*
X125606115Y-81564419D02*
X125606115Y-80564419D01*
X125177544Y-81564419D02*
X125177544Y-81040609D01*
X125177544Y-81040609D02*
X125225163Y-80945371D01*
X125225163Y-80945371D02*
X125320401Y-80897752D01*
X125320401Y-80897752D02*
X125463258Y-80897752D01*
X125463258Y-80897752D02*
X125558496Y-80945371D01*
X125558496Y-80945371D02*
X125606115Y-80992990D01*
X124320401Y-81516800D02*
X124415639Y-81564419D01*
X124415639Y-81564419D02*
X124606115Y-81564419D01*
X124606115Y-81564419D02*
X124701353Y-81516800D01*
X124701353Y-81516800D02*
X124748972Y-81421561D01*
X124748972Y-81421561D02*
X124748972Y-81040609D01*
X124748972Y-81040609D02*
X124701353Y-80945371D01*
X124701353Y-80945371D02*
X124606115Y-80897752D01*
X124606115Y-80897752D02*
X124415639Y-80897752D01*
X124415639Y-80897752D02*
X124320401Y-80945371D01*
X124320401Y-80945371D02*
X124272782Y-81040609D01*
X124272782Y-81040609D02*
X124272782Y-81135847D01*
X124272782Y-81135847D02*
X124748972Y-81231085D01*
X123415639Y-81516800D02*
X123510877Y-81564419D01*
X123510877Y-81564419D02*
X123701353Y-81564419D01*
X123701353Y-81564419D02*
X123796591Y-81516800D01*
X123796591Y-81516800D02*
X123844210Y-81469180D01*
X123844210Y-81469180D02*
X123891829Y-81373942D01*
X123891829Y-81373942D02*
X123891829Y-81088228D01*
X123891829Y-81088228D02*
X123844210Y-80992990D01*
X123844210Y-80992990D02*
X123796591Y-80945371D01*
X123796591Y-80945371D02*
X123701353Y-80897752D01*
X123701353Y-80897752D02*
X123510877Y-80897752D01*
X123510877Y-80897752D02*
X123415639Y-80945371D01*
X122987067Y-81564419D02*
X122987067Y-80564419D01*
X122891829Y-81183466D02*
X122606115Y-81564419D01*
X122606115Y-80897752D02*
X122987067Y-81278704D01*
X121844210Y-81040609D02*
X121701353Y-81088228D01*
X121701353Y-81088228D02*
X121653734Y-81135847D01*
X121653734Y-81135847D02*
X121606115Y-81231085D01*
X121606115Y-81231085D02*
X121606115Y-81373942D01*
X121606115Y-81373942D02*
X121653734Y-81469180D01*
X121653734Y-81469180D02*
X121701353Y-81516800D01*
X121701353Y-81516800D02*
X121796591Y-81564419D01*
X121796591Y-81564419D02*
X122177543Y-81564419D01*
X122177543Y-81564419D02*
X122177543Y-80564419D01*
X122177543Y-80564419D02*
X121844210Y-80564419D01*
X121844210Y-80564419D02*
X121748972Y-80612038D01*
X121748972Y-80612038D02*
X121701353Y-80659657D01*
X121701353Y-80659657D02*
X121653734Y-80754895D01*
X121653734Y-80754895D02*
X121653734Y-80850133D01*
X121653734Y-80850133D02*
X121701353Y-80945371D01*
X121701353Y-80945371D02*
X121748972Y-80992990D01*
X121748972Y-80992990D02*
X121844210Y-81040609D01*
X121844210Y-81040609D02*
X122177543Y-81040609D01*
X121034686Y-81564419D02*
X121129924Y-81516800D01*
X121129924Y-81516800D02*
X121177543Y-81469180D01*
X121177543Y-81469180D02*
X121225162Y-81373942D01*
X121225162Y-81373942D02*
X121225162Y-81088228D01*
X121225162Y-81088228D02*
X121177543Y-80992990D01*
X121177543Y-80992990D02*
X121129924Y-80945371D01*
X121129924Y-80945371D02*
X121034686Y-80897752D01*
X121034686Y-80897752D02*
X120891829Y-80897752D01*
X120891829Y-80897752D02*
X120796591Y-80945371D01*
X120796591Y-80945371D02*
X120748972Y-80992990D01*
X120748972Y-80992990D02*
X120701353Y-81088228D01*
X120701353Y-81088228D02*
X120701353Y-81373942D01*
X120701353Y-81373942D02*
X120748972Y-81469180D01*
X120748972Y-81469180D02*
X120796591Y-81516800D01*
X120796591Y-81516800D02*
X120891829Y-81564419D01*
X120891829Y-81564419D02*
X121034686Y-81564419D01*
X120368019Y-81564419D02*
X119844210Y-80897752D01*
X120368019Y-80897752D02*
X119844210Y-81564419D01*
D11*
X119866666Y-55859580D02*
X119914285Y-55907200D01*
X119914285Y-55907200D02*
X120057142Y-55954819D01*
X120057142Y-55954819D02*
X120152380Y-55954819D01*
X120152380Y-55954819D02*
X120295237Y-55907200D01*
X120295237Y-55907200D02*
X120390475Y-55811961D01*
X120390475Y-55811961D02*
X120438094Y-55716723D01*
X120438094Y-55716723D02*
X120485713Y-55526247D01*
X120485713Y-55526247D02*
X120485713Y-55383390D01*
X120485713Y-55383390D02*
X120438094Y-55192914D01*
X120438094Y-55192914D02*
X120390475Y-55097676D01*
X120390475Y-55097676D02*
X120295237Y-55002438D01*
X120295237Y-55002438D02*
X120152380Y-54954819D01*
X120152380Y-54954819D02*
X120057142Y-54954819D01*
X120057142Y-54954819D02*
X119914285Y-55002438D01*
X119914285Y-55002438D02*
X119866666Y-55050057D01*
X119533332Y-54954819D02*
X118914285Y-54954819D01*
X118914285Y-54954819D02*
X119247618Y-55335771D01*
X119247618Y-55335771D02*
X119104761Y-55335771D01*
X119104761Y-55335771D02*
X119009523Y-55383390D01*
X119009523Y-55383390D02*
X118961904Y-55431009D01*
X118961904Y-55431009D02*
X118914285Y-55526247D01*
X118914285Y-55526247D02*
X118914285Y-55764342D01*
X118914285Y-55764342D02*
X118961904Y-55859580D01*
X118961904Y-55859580D02*
X119009523Y-55907200D01*
X119009523Y-55907200D02*
X119104761Y-55954819D01*
X119104761Y-55954819D02*
X119390475Y-55954819D01*
X119390475Y-55954819D02*
X119485713Y-55907200D01*
X119485713Y-55907200D02*
X119533332Y-55859580D01*
D12*
X107911666Y-115774318D02*
X108516428Y-115774318D01*
X108516428Y-115774318D02*
X108516428Y-114504318D01*
X106823094Y-115774318D02*
X107548809Y-115774318D01*
X107185952Y-115774318D02*
X107185952Y-114504318D01*
X107185952Y-114504318D02*
X107306904Y-114685746D01*
X107306904Y-114685746D02*
X107427856Y-114806699D01*
X107427856Y-114806699D02*
X107548809Y-114867175D01*
D11*
X103059580Y-90782142D02*
X103107200Y-90734523D01*
X103107200Y-90734523D02*
X103154819Y-90591666D01*
X103154819Y-90591666D02*
X103154819Y-90496428D01*
X103154819Y-90496428D02*
X103107200Y-90353571D01*
X103107200Y-90353571D02*
X103011961Y-90258333D01*
X103011961Y-90258333D02*
X102916723Y-90210714D01*
X102916723Y-90210714D02*
X102726247Y-90163095D01*
X102726247Y-90163095D02*
X102583390Y-90163095D01*
X102583390Y-90163095D02*
X102392914Y-90210714D01*
X102392914Y-90210714D02*
X102297676Y-90258333D01*
X102297676Y-90258333D02*
X102202438Y-90353571D01*
X102202438Y-90353571D02*
X102154819Y-90496428D01*
X102154819Y-90496428D02*
X102154819Y-90591666D01*
X102154819Y-90591666D02*
X102202438Y-90734523D01*
X102202438Y-90734523D02*
X102250057Y-90782142D01*
X103154819Y-91734523D02*
X103154819Y-91163095D01*
X103154819Y-91448809D02*
X102154819Y-91448809D01*
X102154819Y-91448809D02*
X102297676Y-91353571D01*
X102297676Y-91353571D02*
X102392914Y-91258333D01*
X102392914Y-91258333D02*
X102440533Y-91163095D01*
X102250057Y-92115476D02*
X102202438Y-92163095D01*
X102202438Y-92163095D02*
X102154819Y-92258333D01*
X102154819Y-92258333D02*
X102154819Y-92496428D01*
X102154819Y-92496428D02*
X102202438Y-92591666D01*
X102202438Y-92591666D02*
X102250057Y-92639285D01*
X102250057Y-92639285D02*
X102345295Y-92686904D01*
X102345295Y-92686904D02*
X102440533Y-92686904D01*
X102440533Y-92686904D02*
X102583390Y-92639285D01*
X102583390Y-92639285D02*
X103154819Y-92067857D01*
X103154819Y-92067857D02*
X103154819Y-92686904D01*
X113842857Y-101154819D02*
X114176190Y-100678628D01*
X114414285Y-101154819D02*
X114414285Y-100154819D01*
X114414285Y-100154819D02*
X114033333Y-100154819D01*
X114033333Y-100154819D02*
X113938095Y-100202438D01*
X113938095Y-100202438D02*
X113890476Y-100250057D01*
X113890476Y-100250057D02*
X113842857Y-100345295D01*
X113842857Y-100345295D02*
X113842857Y-100488152D01*
X113842857Y-100488152D02*
X113890476Y-100583390D01*
X113890476Y-100583390D02*
X113938095Y-100631009D01*
X113938095Y-100631009D02*
X114033333Y-100678628D01*
X114033333Y-100678628D02*
X114414285Y-100678628D01*
X113461904Y-100250057D02*
X113414285Y-100202438D01*
X113414285Y-100202438D02*
X113319047Y-100154819D01*
X113319047Y-100154819D02*
X113080952Y-100154819D01*
X113080952Y-100154819D02*
X112985714Y-100202438D01*
X112985714Y-100202438D02*
X112938095Y-100250057D01*
X112938095Y-100250057D02*
X112890476Y-100345295D01*
X112890476Y-100345295D02*
X112890476Y-100440533D01*
X112890476Y-100440533D02*
X112938095Y-100583390D01*
X112938095Y-100583390D02*
X113509523Y-101154819D01*
X113509523Y-101154819D02*
X112890476Y-101154819D01*
X112033333Y-100488152D02*
X112033333Y-101154819D01*
X112271428Y-100107200D02*
X112509523Y-100821485D01*
X112509523Y-100821485D02*
X111890476Y-100821485D01*
X117454819Y-115237142D02*
X116978628Y-114903809D01*
X117454819Y-114665714D02*
X116454819Y-114665714D01*
X116454819Y-114665714D02*
X116454819Y-115046666D01*
X116454819Y-115046666D02*
X116502438Y-115141904D01*
X116502438Y-115141904D02*
X116550057Y-115189523D01*
X116550057Y-115189523D02*
X116645295Y-115237142D01*
X116645295Y-115237142D02*
X116788152Y-115237142D01*
X116788152Y-115237142D02*
X116883390Y-115189523D01*
X116883390Y-115189523D02*
X116931009Y-115141904D01*
X116931009Y-115141904D02*
X116978628Y-115046666D01*
X116978628Y-115046666D02*
X116978628Y-114665714D01*
X116550057Y-115618095D02*
X116502438Y-115665714D01*
X116502438Y-115665714D02*
X116454819Y-115760952D01*
X116454819Y-115760952D02*
X116454819Y-115999047D01*
X116454819Y-115999047D02*
X116502438Y-116094285D01*
X116502438Y-116094285D02*
X116550057Y-116141904D01*
X116550057Y-116141904D02*
X116645295Y-116189523D01*
X116645295Y-116189523D02*
X116740533Y-116189523D01*
X116740533Y-116189523D02*
X116883390Y-116141904D01*
X116883390Y-116141904D02*
X117454819Y-115570476D01*
X117454819Y-115570476D02*
X117454819Y-116189523D01*
X116454819Y-116522857D02*
X116454819Y-117141904D01*
X116454819Y-117141904D02*
X116835771Y-116808571D01*
X116835771Y-116808571D02*
X116835771Y-116951428D01*
X116835771Y-116951428D02*
X116883390Y-117046666D01*
X116883390Y-117046666D02*
X116931009Y-117094285D01*
X116931009Y-117094285D02*
X117026247Y-117141904D01*
X117026247Y-117141904D02*
X117264342Y-117141904D01*
X117264342Y-117141904D02*
X117359580Y-117094285D01*
X117359580Y-117094285D02*
X117407200Y-117046666D01*
X117407200Y-117046666D02*
X117454819Y-116951428D01*
X117454819Y-116951428D02*
X117454819Y-116665714D01*
X117454819Y-116665714D02*
X117407200Y-116570476D01*
X117407200Y-116570476D02*
X117359580Y-116522857D01*
X144709523Y-105254819D02*
X144709523Y-105969104D01*
X144709523Y-105969104D02*
X144757142Y-106111961D01*
X144757142Y-106111961D02*
X144852380Y-106207200D01*
X144852380Y-106207200D02*
X144995237Y-106254819D01*
X144995237Y-106254819D02*
X145090475Y-106254819D01*
X143709523Y-106254819D02*
X144280951Y-106254819D01*
X143995237Y-106254819D02*
X143995237Y-105254819D01*
X143995237Y-105254819D02*
X144090475Y-105397676D01*
X144090475Y-105397676D02*
X144185713Y-105492914D01*
X144185713Y-105492914D02*
X144280951Y-105540533D01*
X143090475Y-105254819D02*
X142995237Y-105254819D01*
X142995237Y-105254819D02*
X142899999Y-105302438D01*
X142899999Y-105302438D02*
X142852380Y-105350057D01*
X142852380Y-105350057D02*
X142804761Y-105445295D01*
X142804761Y-105445295D02*
X142757142Y-105635771D01*
X142757142Y-105635771D02*
X142757142Y-105873866D01*
X142757142Y-105873866D02*
X142804761Y-106064342D01*
X142804761Y-106064342D02*
X142852380Y-106159580D01*
X142852380Y-106159580D02*
X142899999Y-106207200D01*
X142899999Y-106207200D02*
X142995237Y-106254819D01*
X142995237Y-106254819D02*
X143090475Y-106254819D01*
X143090475Y-106254819D02*
X143185713Y-106207200D01*
X143185713Y-106207200D02*
X143233332Y-106159580D01*
X143233332Y-106159580D02*
X143280951Y-106064342D01*
X143280951Y-106064342D02*
X143328570Y-105873866D01*
X143328570Y-105873866D02*
X143328570Y-105635771D01*
X143328570Y-105635771D02*
X143280951Y-105445295D01*
X143280951Y-105445295D02*
X143233332Y-105350057D01*
X143233332Y-105350057D02*
X143185713Y-105302438D01*
X143185713Y-105302438D02*
X143090475Y-105254819D01*
X128516666Y-118259580D02*
X128564285Y-118307200D01*
X128564285Y-118307200D02*
X128707142Y-118354819D01*
X128707142Y-118354819D02*
X128802380Y-118354819D01*
X128802380Y-118354819D02*
X128945237Y-118307200D01*
X128945237Y-118307200D02*
X129040475Y-118211961D01*
X129040475Y-118211961D02*
X129088094Y-118116723D01*
X129088094Y-118116723D02*
X129135713Y-117926247D01*
X129135713Y-117926247D02*
X129135713Y-117783390D01*
X129135713Y-117783390D02*
X129088094Y-117592914D01*
X129088094Y-117592914D02*
X129040475Y-117497676D01*
X129040475Y-117497676D02*
X128945237Y-117402438D01*
X128945237Y-117402438D02*
X128802380Y-117354819D01*
X128802380Y-117354819D02*
X128707142Y-117354819D01*
X128707142Y-117354819D02*
X128564285Y-117402438D01*
X128564285Y-117402438D02*
X128516666Y-117450057D01*
X128040475Y-118354819D02*
X127849999Y-118354819D01*
X127849999Y-118354819D02*
X127754761Y-118307200D01*
X127754761Y-118307200D02*
X127707142Y-118259580D01*
X127707142Y-118259580D02*
X127611904Y-118116723D01*
X127611904Y-118116723D02*
X127564285Y-117926247D01*
X127564285Y-117926247D02*
X127564285Y-117545295D01*
X127564285Y-117545295D02*
X127611904Y-117450057D01*
X127611904Y-117450057D02*
X127659523Y-117402438D01*
X127659523Y-117402438D02*
X127754761Y-117354819D01*
X127754761Y-117354819D02*
X127945237Y-117354819D01*
X127945237Y-117354819D02*
X128040475Y-117402438D01*
X128040475Y-117402438D02*
X128088094Y-117450057D01*
X128088094Y-117450057D02*
X128135713Y-117545295D01*
X128135713Y-117545295D02*
X128135713Y-117783390D01*
X128135713Y-117783390D02*
X128088094Y-117878628D01*
X128088094Y-117878628D02*
X128040475Y-117926247D01*
X128040475Y-117926247D02*
X127945237Y-117973866D01*
X127945237Y-117973866D02*
X127754761Y-117973866D01*
X127754761Y-117973866D02*
X127659523Y-117926247D01*
X127659523Y-117926247D02*
X127611904Y-117878628D01*
X127611904Y-117878628D02*
X127564285Y-117783390D01*
X92542857Y-72959580D02*
X92590476Y-73007200D01*
X92590476Y-73007200D02*
X92733333Y-73054819D01*
X92733333Y-73054819D02*
X92828571Y-73054819D01*
X92828571Y-73054819D02*
X92971428Y-73007200D01*
X92971428Y-73007200D02*
X93066666Y-72911961D01*
X93066666Y-72911961D02*
X93114285Y-72816723D01*
X93114285Y-72816723D02*
X93161904Y-72626247D01*
X93161904Y-72626247D02*
X93161904Y-72483390D01*
X93161904Y-72483390D02*
X93114285Y-72292914D01*
X93114285Y-72292914D02*
X93066666Y-72197676D01*
X93066666Y-72197676D02*
X92971428Y-72102438D01*
X92971428Y-72102438D02*
X92828571Y-72054819D01*
X92828571Y-72054819D02*
X92733333Y-72054819D01*
X92733333Y-72054819D02*
X92590476Y-72102438D01*
X92590476Y-72102438D02*
X92542857Y-72150057D01*
X92161904Y-72150057D02*
X92114285Y-72102438D01*
X92114285Y-72102438D02*
X92019047Y-72054819D01*
X92019047Y-72054819D02*
X91780952Y-72054819D01*
X91780952Y-72054819D02*
X91685714Y-72102438D01*
X91685714Y-72102438D02*
X91638095Y-72150057D01*
X91638095Y-72150057D02*
X91590476Y-72245295D01*
X91590476Y-72245295D02*
X91590476Y-72340533D01*
X91590476Y-72340533D02*
X91638095Y-72483390D01*
X91638095Y-72483390D02*
X92209523Y-73054819D01*
X92209523Y-73054819D02*
X91590476Y-73054819D01*
X90733333Y-72388152D02*
X90733333Y-73054819D01*
X90971428Y-72007200D02*
X91209523Y-72721485D01*
X91209523Y-72721485D02*
X90590476Y-72721485D01*
X117642857Y-109159580D02*
X117690476Y-109207200D01*
X117690476Y-109207200D02*
X117833333Y-109254819D01*
X117833333Y-109254819D02*
X117928571Y-109254819D01*
X117928571Y-109254819D02*
X118071428Y-109207200D01*
X118071428Y-109207200D02*
X118166666Y-109111961D01*
X118166666Y-109111961D02*
X118214285Y-109016723D01*
X118214285Y-109016723D02*
X118261904Y-108826247D01*
X118261904Y-108826247D02*
X118261904Y-108683390D01*
X118261904Y-108683390D02*
X118214285Y-108492914D01*
X118214285Y-108492914D02*
X118166666Y-108397676D01*
X118166666Y-108397676D02*
X118071428Y-108302438D01*
X118071428Y-108302438D02*
X117928571Y-108254819D01*
X117928571Y-108254819D02*
X117833333Y-108254819D01*
X117833333Y-108254819D02*
X117690476Y-108302438D01*
X117690476Y-108302438D02*
X117642857Y-108350057D01*
X116690476Y-109254819D02*
X117261904Y-109254819D01*
X116976190Y-109254819D02*
X116976190Y-108254819D01*
X116976190Y-108254819D02*
X117071428Y-108397676D01*
X117071428Y-108397676D02*
X117166666Y-108492914D01*
X117166666Y-108492914D02*
X117261904Y-108540533D01*
X115833333Y-108254819D02*
X116023809Y-108254819D01*
X116023809Y-108254819D02*
X116119047Y-108302438D01*
X116119047Y-108302438D02*
X116166666Y-108350057D01*
X116166666Y-108350057D02*
X116261904Y-108492914D01*
X116261904Y-108492914D02*
X116309523Y-108683390D01*
X116309523Y-108683390D02*
X116309523Y-109064342D01*
X116309523Y-109064342D02*
X116261904Y-109159580D01*
X116261904Y-109159580D02*
X116214285Y-109207200D01*
X116214285Y-109207200D02*
X116119047Y-109254819D01*
X116119047Y-109254819D02*
X115928571Y-109254819D01*
X115928571Y-109254819D02*
X115833333Y-109207200D01*
X115833333Y-109207200D02*
X115785714Y-109159580D01*
X115785714Y-109159580D02*
X115738095Y-109064342D01*
X115738095Y-109064342D02*
X115738095Y-108826247D01*
X115738095Y-108826247D02*
X115785714Y-108731009D01*
X115785714Y-108731009D02*
X115833333Y-108683390D01*
X115833333Y-108683390D02*
X115928571Y-108635771D01*
X115928571Y-108635771D02*
X116119047Y-108635771D01*
X116119047Y-108635771D02*
X116214285Y-108683390D01*
X116214285Y-108683390D02*
X116261904Y-108731009D01*
X116261904Y-108731009D02*
X116309523Y-108826247D01*
X128642857Y-113554819D02*
X128976190Y-113078628D01*
X129214285Y-113554819D02*
X129214285Y-112554819D01*
X129214285Y-112554819D02*
X128833333Y-112554819D01*
X128833333Y-112554819D02*
X128738095Y-112602438D01*
X128738095Y-112602438D02*
X128690476Y-112650057D01*
X128690476Y-112650057D02*
X128642857Y-112745295D01*
X128642857Y-112745295D02*
X128642857Y-112888152D01*
X128642857Y-112888152D02*
X128690476Y-112983390D01*
X128690476Y-112983390D02*
X128738095Y-113031009D01*
X128738095Y-113031009D02*
X128833333Y-113078628D01*
X128833333Y-113078628D02*
X129214285Y-113078628D01*
X128261904Y-112650057D02*
X128214285Y-112602438D01*
X128214285Y-112602438D02*
X128119047Y-112554819D01*
X128119047Y-112554819D02*
X127880952Y-112554819D01*
X127880952Y-112554819D02*
X127785714Y-112602438D01*
X127785714Y-112602438D02*
X127738095Y-112650057D01*
X127738095Y-112650057D02*
X127690476Y-112745295D01*
X127690476Y-112745295D02*
X127690476Y-112840533D01*
X127690476Y-112840533D02*
X127738095Y-112983390D01*
X127738095Y-112983390D02*
X128309523Y-113554819D01*
X128309523Y-113554819D02*
X127690476Y-113554819D01*
X127071428Y-112554819D02*
X126976190Y-112554819D01*
X126976190Y-112554819D02*
X126880952Y-112602438D01*
X126880952Y-112602438D02*
X126833333Y-112650057D01*
X126833333Y-112650057D02*
X126785714Y-112745295D01*
X126785714Y-112745295D02*
X126738095Y-112935771D01*
X126738095Y-112935771D02*
X126738095Y-113173866D01*
X126738095Y-113173866D02*
X126785714Y-113364342D01*
X126785714Y-113364342D02*
X126833333Y-113459580D01*
X126833333Y-113459580D02*
X126880952Y-113507200D01*
X126880952Y-113507200D02*
X126976190Y-113554819D01*
X126976190Y-113554819D02*
X127071428Y-113554819D01*
X127071428Y-113554819D02*
X127166666Y-113507200D01*
X127166666Y-113507200D02*
X127214285Y-113459580D01*
X127214285Y-113459580D02*
X127261904Y-113364342D01*
X127261904Y-113364342D02*
X127309523Y-113173866D01*
X127309523Y-113173866D02*
X127309523Y-112935771D01*
X127309523Y-112935771D02*
X127261904Y-112745295D01*
X127261904Y-112745295D02*
X127214285Y-112650057D01*
X127214285Y-112650057D02*
X127166666Y-112602438D01*
X127166666Y-112602438D02*
X127071428Y-112554819D01*
X130992857Y-99604819D02*
X131326190Y-99128628D01*
X131564285Y-99604819D02*
X131564285Y-98604819D01*
X131564285Y-98604819D02*
X131183333Y-98604819D01*
X131183333Y-98604819D02*
X131088095Y-98652438D01*
X131088095Y-98652438D02*
X131040476Y-98700057D01*
X131040476Y-98700057D02*
X130992857Y-98795295D01*
X130992857Y-98795295D02*
X130992857Y-98938152D01*
X130992857Y-98938152D02*
X131040476Y-99033390D01*
X131040476Y-99033390D02*
X131088095Y-99081009D01*
X131088095Y-99081009D02*
X131183333Y-99128628D01*
X131183333Y-99128628D02*
X131564285Y-99128628D01*
X130611904Y-98700057D02*
X130564285Y-98652438D01*
X130564285Y-98652438D02*
X130469047Y-98604819D01*
X130469047Y-98604819D02*
X130230952Y-98604819D01*
X130230952Y-98604819D02*
X130135714Y-98652438D01*
X130135714Y-98652438D02*
X130088095Y-98700057D01*
X130088095Y-98700057D02*
X130040476Y-98795295D01*
X130040476Y-98795295D02*
X130040476Y-98890533D01*
X130040476Y-98890533D02*
X130088095Y-99033390D01*
X130088095Y-99033390D02*
X130659523Y-99604819D01*
X130659523Y-99604819D02*
X130040476Y-99604819D01*
X129564285Y-99604819D02*
X129373809Y-99604819D01*
X129373809Y-99604819D02*
X129278571Y-99557200D01*
X129278571Y-99557200D02*
X129230952Y-99509580D01*
X129230952Y-99509580D02*
X129135714Y-99366723D01*
X129135714Y-99366723D02*
X129088095Y-99176247D01*
X129088095Y-99176247D02*
X129088095Y-98795295D01*
X129088095Y-98795295D02*
X129135714Y-98700057D01*
X129135714Y-98700057D02*
X129183333Y-98652438D01*
X129183333Y-98652438D02*
X129278571Y-98604819D01*
X129278571Y-98604819D02*
X129469047Y-98604819D01*
X129469047Y-98604819D02*
X129564285Y-98652438D01*
X129564285Y-98652438D02*
X129611904Y-98700057D01*
X129611904Y-98700057D02*
X129659523Y-98795295D01*
X129659523Y-98795295D02*
X129659523Y-99033390D01*
X129659523Y-99033390D02*
X129611904Y-99128628D01*
X129611904Y-99128628D02*
X129564285Y-99176247D01*
X129564285Y-99176247D02*
X129469047Y-99223866D01*
X129469047Y-99223866D02*
X129278571Y-99223866D01*
X129278571Y-99223866D02*
X129183333Y-99176247D01*
X129183333Y-99176247D02*
X129135714Y-99128628D01*
X129135714Y-99128628D02*
X129088095Y-99033390D01*
X125861666Y-55853580D02*
X125909285Y-55901200D01*
X125909285Y-55901200D02*
X126052142Y-55948819D01*
X126052142Y-55948819D02*
X126147380Y-55948819D01*
X126147380Y-55948819D02*
X126290237Y-55901200D01*
X126290237Y-55901200D02*
X126385475Y-55805961D01*
X126385475Y-55805961D02*
X126433094Y-55710723D01*
X126433094Y-55710723D02*
X126480713Y-55520247D01*
X126480713Y-55520247D02*
X126480713Y-55377390D01*
X126480713Y-55377390D02*
X126433094Y-55186914D01*
X126433094Y-55186914D02*
X126385475Y-55091676D01*
X126385475Y-55091676D02*
X126290237Y-54996438D01*
X126290237Y-54996438D02*
X126147380Y-54948819D01*
X126147380Y-54948819D02*
X126052142Y-54948819D01*
X126052142Y-54948819D02*
X125909285Y-54996438D01*
X125909285Y-54996438D02*
X125861666Y-55044057D01*
X124956904Y-54948819D02*
X125433094Y-54948819D01*
X125433094Y-54948819D02*
X125480713Y-55425009D01*
X125480713Y-55425009D02*
X125433094Y-55377390D01*
X125433094Y-55377390D02*
X125337856Y-55329771D01*
X125337856Y-55329771D02*
X125099761Y-55329771D01*
X125099761Y-55329771D02*
X125004523Y-55377390D01*
X125004523Y-55377390D02*
X124956904Y-55425009D01*
X124956904Y-55425009D02*
X124909285Y-55520247D01*
X124909285Y-55520247D02*
X124909285Y-55758342D01*
X124909285Y-55758342D02*
X124956904Y-55853580D01*
X124956904Y-55853580D02*
X125004523Y-55901200D01*
X125004523Y-55901200D02*
X125099761Y-55948819D01*
X125099761Y-55948819D02*
X125337856Y-55948819D01*
X125337856Y-55948819D02*
X125433094Y-55901200D01*
X125433094Y-55901200D02*
X125480713Y-55853580D01*
X81478857Y-126524819D02*
X81812190Y-126048628D01*
X82050285Y-126524819D02*
X82050285Y-125524819D01*
X82050285Y-125524819D02*
X81669333Y-125524819D01*
X81669333Y-125524819D02*
X81574095Y-125572438D01*
X81574095Y-125572438D02*
X81526476Y-125620057D01*
X81526476Y-125620057D02*
X81478857Y-125715295D01*
X81478857Y-125715295D02*
X81478857Y-125858152D01*
X81478857Y-125858152D02*
X81526476Y-125953390D01*
X81526476Y-125953390D02*
X81574095Y-126001009D01*
X81574095Y-126001009D02*
X81669333Y-126048628D01*
X81669333Y-126048628D02*
X82050285Y-126048628D01*
X80526476Y-126524819D02*
X81097904Y-126524819D01*
X80812190Y-126524819D02*
X80812190Y-125524819D01*
X80812190Y-125524819D02*
X80907428Y-125667676D01*
X80907428Y-125667676D02*
X81002666Y-125762914D01*
X81002666Y-125762914D02*
X81097904Y-125810533D01*
X80193142Y-125524819D02*
X79574095Y-125524819D01*
X79574095Y-125524819D02*
X79907428Y-125905771D01*
X79907428Y-125905771D02*
X79764571Y-125905771D01*
X79764571Y-125905771D02*
X79669333Y-125953390D01*
X79669333Y-125953390D02*
X79621714Y-126001009D01*
X79621714Y-126001009D02*
X79574095Y-126096247D01*
X79574095Y-126096247D02*
X79574095Y-126334342D01*
X79574095Y-126334342D02*
X79621714Y-126429580D01*
X79621714Y-126429580D02*
X79669333Y-126477200D01*
X79669333Y-126477200D02*
X79764571Y-126524819D01*
X79764571Y-126524819D02*
X80050285Y-126524819D01*
X80050285Y-126524819D02*
X80145523Y-126477200D01*
X80145523Y-126477200D02*
X80193142Y-126429580D01*
X135952857Y-112354819D02*
X136286190Y-111878628D01*
X136524285Y-112354819D02*
X136524285Y-111354819D01*
X136524285Y-111354819D02*
X136143333Y-111354819D01*
X136143333Y-111354819D02*
X136048095Y-111402438D01*
X136048095Y-111402438D02*
X136000476Y-111450057D01*
X136000476Y-111450057D02*
X135952857Y-111545295D01*
X135952857Y-111545295D02*
X135952857Y-111688152D01*
X135952857Y-111688152D02*
X136000476Y-111783390D01*
X136000476Y-111783390D02*
X136048095Y-111831009D01*
X136048095Y-111831009D02*
X136143333Y-111878628D01*
X136143333Y-111878628D02*
X136524285Y-111878628D01*
X135000476Y-112354819D02*
X135571904Y-112354819D01*
X135286190Y-112354819D02*
X135286190Y-111354819D01*
X135286190Y-111354819D02*
X135381428Y-111497676D01*
X135381428Y-111497676D02*
X135476666Y-111592914D01*
X135476666Y-111592914D02*
X135571904Y-111640533D01*
X134429047Y-111783390D02*
X134524285Y-111735771D01*
X134524285Y-111735771D02*
X134571904Y-111688152D01*
X134571904Y-111688152D02*
X134619523Y-111592914D01*
X134619523Y-111592914D02*
X134619523Y-111545295D01*
X134619523Y-111545295D02*
X134571904Y-111450057D01*
X134571904Y-111450057D02*
X134524285Y-111402438D01*
X134524285Y-111402438D02*
X134429047Y-111354819D01*
X134429047Y-111354819D02*
X134238571Y-111354819D01*
X134238571Y-111354819D02*
X134143333Y-111402438D01*
X134143333Y-111402438D02*
X134095714Y-111450057D01*
X134095714Y-111450057D02*
X134048095Y-111545295D01*
X134048095Y-111545295D02*
X134048095Y-111592914D01*
X134048095Y-111592914D02*
X134095714Y-111688152D01*
X134095714Y-111688152D02*
X134143333Y-111735771D01*
X134143333Y-111735771D02*
X134238571Y-111783390D01*
X134238571Y-111783390D02*
X134429047Y-111783390D01*
X134429047Y-111783390D02*
X134524285Y-111831009D01*
X134524285Y-111831009D02*
X134571904Y-111878628D01*
X134571904Y-111878628D02*
X134619523Y-111973866D01*
X134619523Y-111973866D02*
X134619523Y-112164342D01*
X134619523Y-112164342D02*
X134571904Y-112259580D01*
X134571904Y-112259580D02*
X134524285Y-112307200D01*
X134524285Y-112307200D02*
X134429047Y-112354819D01*
X134429047Y-112354819D02*
X134238571Y-112354819D01*
X134238571Y-112354819D02*
X134143333Y-112307200D01*
X134143333Y-112307200D02*
X134095714Y-112259580D01*
X134095714Y-112259580D02*
X134048095Y-112164342D01*
X134048095Y-112164342D02*
X134048095Y-111973866D01*
X134048095Y-111973866D02*
X134095714Y-111878628D01*
X134095714Y-111878628D02*
X134143333Y-111831009D01*
X134143333Y-111831009D02*
X134238571Y-111783390D01*
X106533333Y-51254819D02*
X106533333Y-51969104D01*
X106533333Y-51969104D02*
X106580952Y-52111961D01*
X106580952Y-52111961D02*
X106676190Y-52207200D01*
X106676190Y-52207200D02*
X106819047Y-52254819D01*
X106819047Y-52254819D02*
X106914285Y-52254819D01*
X105580952Y-51254819D02*
X106057142Y-51254819D01*
X106057142Y-51254819D02*
X106104761Y-51731009D01*
X106104761Y-51731009D02*
X106057142Y-51683390D01*
X106057142Y-51683390D02*
X105961904Y-51635771D01*
X105961904Y-51635771D02*
X105723809Y-51635771D01*
X105723809Y-51635771D02*
X105628571Y-51683390D01*
X105628571Y-51683390D02*
X105580952Y-51731009D01*
X105580952Y-51731009D02*
X105533333Y-51826247D01*
X105533333Y-51826247D02*
X105533333Y-52064342D01*
X105533333Y-52064342D02*
X105580952Y-52159580D01*
X105580952Y-52159580D02*
X105628571Y-52207200D01*
X105628571Y-52207200D02*
X105723809Y-52254819D01*
X105723809Y-52254819D02*
X105961904Y-52254819D01*
X105961904Y-52254819D02*
X106057142Y-52207200D01*
X106057142Y-52207200D02*
X106104761Y-52159580D01*
D12*
X85120952Y-101495270D02*
X85241904Y-101434794D01*
X85241904Y-101434794D02*
X85362857Y-101313842D01*
X85362857Y-101313842D02*
X85544285Y-101132413D01*
X85544285Y-101132413D02*
X85665238Y-101071937D01*
X85665238Y-101071937D02*
X85786190Y-101071937D01*
X85725714Y-101374318D02*
X85846666Y-101313842D01*
X85846666Y-101313842D02*
X85967619Y-101192889D01*
X85967619Y-101192889D02*
X86028095Y-100950984D01*
X86028095Y-100950984D02*
X86028095Y-100527651D01*
X86028095Y-100527651D02*
X85967619Y-100285746D01*
X85967619Y-100285746D02*
X85846666Y-100164794D01*
X85846666Y-100164794D02*
X85725714Y-100104318D01*
X85725714Y-100104318D02*
X85483809Y-100104318D01*
X85483809Y-100104318D02*
X85362857Y-100164794D01*
X85362857Y-100164794D02*
X85241904Y-100285746D01*
X85241904Y-100285746D02*
X85181428Y-100527651D01*
X85181428Y-100527651D02*
X85181428Y-100950984D01*
X85181428Y-100950984D02*
X85241904Y-101192889D01*
X85241904Y-101192889D02*
X85362857Y-101313842D01*
X85362857Y-101313842D02*
X85483809Y-101374318D01*
X85483809Y-101374318D02*
X85725714Y-101374318D01*
X84092857Y-100527651D02*
X84092857Y-101374318D01*
X84395238Y-100043842D02*
X84697619Y-100950984D01*
X84697619Y-100950984D02*
X83911428Y-100950984D01*
D11*
X94351580Y-96513880D02*
X94399200Y-96466261D01*
X94399200Y-96466261D02*
X94446819Y-96323404D01*
X94446819Y-96323404D02*
X94446819Y-96228166D01*
X94446819Y-96228166D02*
X94399200Y-96085309D01*
X94399200Y-96085309D02*
X94303961Y-95990071D01*
X94303961Y-95990071D02*
X94208723Y-95942452D01*
X94208723Y-95942452D02*
X94018247Y-95894833D01*
X94018247Y-95894833D02*
X93875390Y-95894833D01*
X93875390Y-95894833D02*
X93684914Y-95942452D01*
X93684914Y-95942452D02*
X93589676Y-95990071D01*
X93589676Y-95990071D02*
X93494438Y-96085309D01*
X93494438Y-96085309D02*
X93446819Y-96228166D01*
X93446819Y-96228166D02*
X93446819Y-96323404D01*
X93446819Y-96323404D02*
X93494438Y-96466261D01*
X93494438Y-96466261D02*
X93542057Y-96513880D01*
X94446819Y-97466261D02*
X94446819Y-96894833D01*
X94446819Y-97180547D02*
X93446819Y-97180547D01*
X93446819Y-97180547D02*
X93589676Y-97085309D01*
X93589676Y-97085309D02*
X93684914Y-96990071D01*
X93684914Y-96990071D02*
X93732533Y-96894833D01*
X93446819Y-98085309D02*
X93446819Y-98180547D01*
X93446819Y-98180547D02*
X93494438Y-98275785D01*
X93494438Y-98275785D02*
X93542057Y-98323404D01*
X93542057Y-98323404D02*
X93637295Y-98371023D01*
X93637295Y-98371023D02*
X93827771Y-98418642D01*
X93827771Y-98418642D02*
X94065866Y-98418642D01*
X94065866Y-98418642D02*
X94256342Y-98371023D01*
X94256342Y-98371023D02*
X94351580Y-98323404D01*
X94351580Y-98323404D02*
X94399200Y-98275785D01*
X94399200Y-98275785D02*
X94446819Y-98180547D01*
X94446819Y-98180547D02*
X94446819Y-98085309D01*
X94446819Y-98085309D02*
X94399200Y-97990071D01*
X94399200Y-97990071D02*
X94351580Y-97942452D01*
X94351580Y-97942452D02*
X94256342Y-97894833D01*
X94256342Y-97894833D02*
X94065866Y-97847214D01*
X94065866Y-97847214D02*
X93827771Y-97847214D01*
X93827771Y-97847214D02*
X93637295Y-97894833D01*
X93637295Y-97894833D02*
X93542057Y-97942452D01*
X93542057Y-97942452D02*
X93494438Y-97990071D01*
X93494438Y-97990071D02*
X93446819Y-98085309D01*
D12*
X98739762Y-97074318D02*
X98739762Y-95804318D01*
X97409285Y-96953365D02*
X97469761Y-97013842D01*
X97469761Y-97013842D02*
X97651190Y-97074318D01*
X97651190Y-97074318D02*
X97772142Y-97074318D01*
X97772142Y-97074318D02*
X97953571Y-97013842D01*
X97953571Y-97013842D02*
X98074523Y-96892889D01*
X98074523Y-96892889D02*
X98135000Y-96771937D01*
X98135000Y-96771937D02*
X98195476Y-96530032D01*
X98195476Y-96530032D02*
X98195476Y-96348603D01*
X98195476Y-96348603D02*
X98135000Y-96106699D01*
X98135000Y-96106699D02*
X98074523Y-95985746D01*
X98074523Y-95985746D02*
X97953571Y-95864794D01*
X97953571Y-95864794D02*
X97772142Y-95804318D01*
X97772142Y-95804318D02*
X97651190Y-95804318D01*
X97651190Y-95804318D02*
X97469761Y-95864794D01*
X97469761Y-95864794D02*
X97409285Y-95925270D01*
X96925476Y-95925270D02*
X96865000Y-95864794D01*
X96865000Y-95864794D02*
X96744047Y-95804318D01*
X96744047Y-95804318D02*
X96441666Y-95804318D01*
X96441666Y-95804318D02*
X96320714Y-95864794D01*
X96320714Y-95864794D02*
X96260238Y-95925270D01*
X96260238Y-95925270D02*
X96199761Y-96046222D01*
X96199761Y-96046222D02*
X96199761Y-96167175D01*
X96199761Y-96167175D02*
X96260238Y-96348603D01*
X96260238Y-96348603D02*
X96985952Y-97074318D01*
X96985952Y-97074318D02*
X96199761Y-97074318D01*
D11*
X125861904Y-118854819D02*
X125861904Y-119664342D01*
X125861904Y-119664342D02*
X125814285Y-119759580D01*
X125814285Y-119759580D02*
X125766666Y-119807200D01*
X125766666Y-119807200D02*
X125671428Y-119854819D01*
X125671428Y-119854819D02*
X125480952Y-119854819D01*
X125480952Y-119854819D02*
X125385714Y-119807200D01*
X125385714Y-119807200D02*
X125338095Y-119759580D01*
X125338095Y-119759580D02*
X125290476Y-119664342D01*
X125290476Y-119664342D02*
X125290476Y-118854819D01*
X124861904Y-118950057D02*
X124814285Y-118902438D01*
X124814285Y-118902438D02*
X124719047Y-118854819D01*
X124719047Y-118854819D02*
X124480952Y-118854819D01*
X124480952Y-118854819D02*
X124385714Y-118902438D01*
X124385714Y-118902438D02*
X124338095Y-118950057D01*
X124338095Y-118950057D02*
X124290476Y-119045295D01*
X124290476Y-119045295D02*
X124290476Y-119140533D01*
X124290476Y-119140533D02*
X124338095Y-119283390D01*
X124338095Y-119283390D02*
X124909523Y-119854819D01*
X124909523Y-119854819D02*
X124290476Y-119854819D01*
X133733333Y-73154819D02*
X133733333Y-73869104D01*
X133733333Y-73869104D02*
X133780952Y-74011961D01*
X133780952Y-74011961D02*
X133876190Y-74107200D01*
X133876190Y-74107200D02*
X134019047Y-74154819D01*
X134019047Y-74154819D02*
X134114285Y-74154819D01*
X132828571Y-73154819D02*
X133019047Y-73154819D01*
X133019047Y-73154819D02*
X133114285Y-73202438D01*
X133114285Y-73202438D02*
X133161904Y-73250057D01*
X133161904Y-73250057D02*
X133257142Y-73392914D01*
X133257142Y-73392914D02*
X133304761Y-73583390D01*
X133304761Y-73583390D02*
X133304761Y-73964342D01*
X133304761Y-73964342D02*
X133257142Y-74059580D01*
X133257142Y-74059580D02*
X133209523Y-74107200D01*
X133209523Y-74107200D02*
X133114285Y-74154819D01*
X133114285Y-74154819D02*
X132923809Y-74154819D01*
X132923809Y-74154819D02*
X132828571Y-74107200D01*
X132828571Y-74107200D02*
X132780952Y-74059580D01*
X132780952Y-74059580D02*
X132733333Y-73964342D01*
X132733333Y-73964342D02*
X132733333Y-73726247D01*
X132733333Y-73726247D02*
X132780952Y-73631009D01*
X132780952Y-73631009D02*
X132828571Y-73583390D01*
X132828571Y-73583390D02*
X132923809Y-73535771D01*
X132923809Y-73535771D02*
X133114285Y-73535771D01*
X133114285Y-73535771D02*
X133209523Y-73583390D01*
X133209523Y-73583390D02*
X133257142Y-73631009D01*
X133257142Y-73631009D02*
X133304761Y-73726247D01*
X88566666Y-89454819D02*
X88899999Y-88978628D01*
X89138094Y-89454819D02*
X89138094Y-88454819D01*
X89138094Y-88454819D02*
X88757142Y-88454819D01*
X88757142Y-88454819D02*
X88661904Y-88502438D01*
X88661904Y-88502438D02*
X88614285Y-88550057D01*
X88614285Y-88550057D02*
X88566666Y-88645295D01*
X88566666Y-88645295D02*
X88566666Y-88788152D01*
X88566666Y-88788152D02*
X88614285Y-88883390D01*
X88614285Y-88883390D02*
X88661904Y-88931009D01*
X88661904Y-88931009D02*
X88757142Y-88978628D01*
X88757142Y-88978628D02*
X89138094Y-88978628D01*
X87661904Y-88454819D02*
X88138094Y-88454819D01*
X88138094Y-88454819D02*
X88185713Y-88931009D01*
X88185713Y-88931009D02*
X88138094Y-88883390D01*
X88138094Y-88883390D02*
X88042856Y-88835771D01*
X88042856Y-88835771D02*
X87804761Y-88835771D01*
X87804761Y-88835771D02*
X87709523Y-88883390D01*
X87709523Y-88883390D02*
X87661904Y-88931009D01*
X87661904Y-88931009D02*
X87614285Y-89026247D01*
X87614285Y-89026247D02*
X87614285Y-89264342D01*
X87614285Y-89264342D02*
X87661904Y-89359580D01*
X87661904Y-89359580D02*
X87709523Y-89407200D01*
X87709523Y-89407200D02*
X87804761Y-89454819D01*
X87804761Y-89454819D02*
X88042856Y-89454819D01*
X88042856Y-89454819D02*
X88138094Y-89407200D01*
X88138094Y-89407200D02*
X88185713Y-89359580D01*
X81542857Y-115654819D02*
X81876190Y-115178628D01*
X82114285Y-115654819D02*
X82114285Y-114654819D01*
X82114285Y-114654819D02*
X81733333Y-114654819D01*
X81733333Y-114654819D02*
X81638095Y-114702438D01*
X81638095Y-114702438D02*
X81590476Y-114750057D01*
X81590476Y-114750057D02*
X81542857Y-114845295D01*
X81542857Y-114845295D02*
X81542857Y-114988152D01*
X81542857Y-114988152D02*
X81590476Y-115083390D01*
X81590476Y-115083390D02*
X81638095Y-115131009D01*
X81638095Y-115131009D02*
X81733333Y-115178628D01*
X81733333Y-115178628D02*
X82114285Y-115178628D01*
X80590476Y-115654819D02*
X81161904Y-115654819D01*
X80876190Y-115654819D02*
X80876190Y-114654819D01*
X80876190Y-114654819D02*
X80971428Y-114797676D01*
X80971428Y-114797676D02*
X81066666Y-114892914D01*
X81066666Y-114892914D02*
X81161904Y-114940533D01*
X79685714Y-114654819D02*
X80161904Y-114654819D01*
X80161904Y-114654819D02*
X80209523Y-115131009D01*
X80209523Y-115131009D02*
X80161904Y-115083390D01*
X80161904Y-115083390D02*
X80066666Y-115035771D01*
X80066666Y-115035771D02*
X79828571Y-115035771D01*
X79828571Y-115035771D02*
X79733333Y-115083390D01*
X79733333Y-115083390D02*
X79685714Y-115131009D01*
X79685714Y-115131009D02*
X79638095Y-115226247D01*
X79638095Y-115226247D02*
X79638095Y-115464342D01*
X79638095Y-115464342D02*
X79685714Y-115559580D01*
X79685714Y-115559580D02*
X79733333Y-115607200D01*
X79733333Y-115607200D02*
X79828571Y-115654819D01*
X79828571Y-115654819D02*
X80066666Y-115654819D01*
X80066666Y-115654819D02*
X80161904Y-115607200D01*
X80161904Y-115607200D02*
X80209523Y-115559580D01*
X137730857Y-62599819D02*
X138064190Y-62123628D01*
X138302285Y-62599819D02*
X138302285Y-61599819D01*
X138302285Y-61599819D02*
X137921333Y-61599819D01*
X137921333Y-61599819D02*
X137826095Y-61647438D01*
X137826095Y-61647438D02*
X137778476Y-61695057D01*
X137778476Y-61695057D02*
X137730857Y-61790295D01*
X137730857Y-61790295D02*
X137730857Y-61933152D01*
X137730857Y-61933152D02*
X137778476Y-62028390D01*
X137778476Y-62028390D02*
X137826095Y-62076009D01*
X137826095Y-62076009D02*
X137921333Y-62123628D01*
X137921333Y-62123628D02*
X138302285Y-62123628D01*
X136778476Y-62599819D02*
X137349904Y-62599819D01*
X137064190Y-62599819D02*
X137064190Y-61599819D01*
X137064190Y-61599819D02*
X137159428Y-61742676D01*
X137159428Y-61742676D02*
X137254666Y-61837914D01*
X137254666Y-61837914D02*
X137349904Y-61885533D01*
X136159428Y-61599819D02*
X136064190Y-61599819D01*
X136064190Y-61599819D02*
X135968952Y-61647438D01*
X135968952Y-61647438D02*
X135921333Y-61695057D01*
X135921333Y-61695057D02*
X135873714Y-61790295D01*
X135873714Y-61790295D02*
X135826095Y-61980771D01*
X135826095Y-61980771D02*
X135826095Y-62218866D01*
X135826095Y-62218866D02*
X135873714Y-62409342D01*
X135873714Y-62409342D02*
X135921333Y-62504580D01*
X135921333Y-62504580D02*
X135968952Y-62552200D01*
X135968952Y-62552200D02*
X136064190Y-62599819D01*
X136064190Y-62599819D02*
X136159428Y-62599819D01*
X136159428Y-62599819D02*
X136254666Y-62552200D01*
X136254666Y-62552200D02*
X136302285Y-62504580D01*
X136302285Y-62504580D02*
X136349904Y-62409342D01*
X136349904Y-62409342D02*
X136397523Y-62218866D01*
X136397523Y-62218866D02*
X136397523Y-61980771D01*
X136397523Y-61980771D02*
X136349904Y-61790295D01*
X136349904Y-61790295D02*
X136302285Y-61695057D01*
X136302285Y-61695057D02*
X136254666Y-61647438D01*
X136254666Y-61647438D02*
X136159428Y-61599819D01*
X128566666Y-115659580D02*
X128614285Y-115707200D01*
X128614285Y-115707200D02*
X128757142Y-115754819D01*
X128757142Y-115754819D02*
X128852380Y-115754819D01*
X128852380Y-115754819D02*
X128995237Y-115707200D01*
X128995237Y-115707200D02*
X129090475Y-115611961D01*
X129090475Y-115611961D02*
X129138094Y-115516723D01*
X129138094Y-115516723D02*
X129185713Y-115326247D01*
X129185713Y-115326247D02*
X129185713Y-115183390D01*
X129185713Y-115183390D02*
X129138094Y-114992914D01*
X129138094Y-114992914D02*
X129090475Y-114897676D01*
X129090475Y-114897676D02*
X128995237Y-114802438D01*
X128995237Y-114802438D02*
X128852380Y-114754819D01*
X128852380Y-114754819D02*
X128757142Y-114754819D01*
X128757142Y-114754819D02*
X128614285Y-114802438D01*
X128614285Y-114802438D02*
X128566666Y-114850057D01*
X128233332Y-114754819D02*
X127566666Y-114754819D01*
X127566666Y-114754819D02*
X127995237Y-115754819D01*
X124442857Y-108659580D02*
X124490476Y-108707200D01*
X124490476Y-108707200D02*
X124633333Y-108754819D01*
X124633333Y-108754819D02*
X124728571Y-108754819D01*
X124728571Y-108754819D02*
X124871428Y-108707200D01*
X124871428Y-108707200D02*
X124966666Y-108611961D01*
X124966666Y-108611961D02*
X125014285Y-108516723D01*
X125014285Y-108516723D02*
X125061904Y-108326247D01*
X125061904Y-108326247D02*
X125061904Y-108183390D01*
X125061904Y-108183390D02*
X125014285Y-107992914D01*
X125014285Y-107992914D02*
X124966666Y-107897676D01*
X124966666Y-107897676D02*
X124871428Y-107802438D01*
X124871428Y-107802438D02*
X124728571Y-107754819D01*
X124728571Y-107754819D02*
X124633333Y-107754819D01*
X124633333Y-107754819D02*
X124490476Y-107802438D01*
X124490476Y-107802438D02*
X124442857Y-107850057D01*
X123490476Y-108754819D02*
X124061904Y-108754819D01*
X123776190Y-108754819D02*
X123776190Y-107754819D01*
X123776190Y-107754819D02*
X123871428Y-107897676D01*
X123871428Y-107897676D02*
X123966666Y-107992914D01*
X123966666Y-107992914D02*
X124061904Y-108040533D01*
X122919047Y-108183390D02*
X123014285Y-108135771D01*
X123014285Y-108135771D02*
X123061904Y-108088152D01*
X123061904Y-108088152D02*
X123109523Y-107992914D01*
X123109523Y-107992914D02*
X123109523Y-107945295D01*
X123109523Y-107945295D02*
X123061904Y-107850057D01*
X123061904Y-107850057D02*
X123014285Y-107802438D01*
X123014285Y-107802438D02*
X122919047Y-107754819D01*
X122919047Y-107754819D02*
X122728571Y-107754819D01*
X122728571Y-107754819D02*
X122633333Y-107802438D01*
X122633333Y-107802438D02*
X122585714Y-107850057D01*
X122585714Y-107850057D02*
X122538095Y-107945295D01*
X122538095Y-107945295D02*
X122538095Y-107992914D01*
X122538095Y-107992914D02*
X122585714Y-108088152D01*
X122585714Y-108088152D02*
X122633333Y-108135771D01*
X122633333Y-108135771D02*
X122728571Y-108183390D01*
X122728571Y-108183390D02*
X122919047Y-108183390D01*
X122919047Y-108183390D02*
X123014285Y-108231009D01*
X123014285Y-108231009D02*
X123061904Y-108278628D01*
X123061904Y-108278628D02*
X123109523Y-108373866D01*
X123109523Y-108373866D02*
X123109523Y-108564342D01*
X123109523Y-108564342D02*
X123061904Y-108659580D01*
X123061904Y-108659580D02*
X123014285Y-108707200D01*
X123014285Y-108707200D02*
X122919047Y-108754819D01*
X122919047Y-108754819D02*
X122728571Y-108754819D01*
X122728571Y-108754819D02*
X122633333Y-108707200D01*
X122633333Y-108707200D02*
X122585714Y-108659580D01*
X122585714Y-108659580D02*
X122538095Y-108564342D01*
X122538095Y-108564342D02*
X122538095Y-108373866D01*
X122538095Y-108373866D02*
X122585714Y-108278628D01*
X122585714Y-108278628D02*
X122633333Y-108231009D01*
X122633333Y-108231009D02*
X122728571Y-108183390D01*
X124042857Y-113554819D02*
X124376190Y-113078628D01*
X124614285Y-113554819D02*
X124614285Y-112554819D01*
X124614285Y-112554819D02*
X124233333Y-112554819D01*
X124233333Y-112554819D02*
X124138095Y-112602438D01*
X124138095Y-112602438D02*
X124090476Y-112650057D01*
X124090476Y-112650057D02*
X124042857Y-112745295D01*
X124042857Y-112745295D02*
X124042857Y-112888152D01*
X124042857Y-112888152D02*
X124090476Y-112983390D01*
X124090476Y-112983390D02*
X124138095Y-113031009D01*
X124138095Y-113031009D02*
X124233333Y-113078628D01*
X124233333Y-113078628D02*
X124614285Y-113078628D01*
X123661904Y-112650057D02*
X123614285Y-112602438D01*
X123614285Y-112602438D02*
X123519047Y-112554819D01*
X123519047Y-112554819D02*
X123280952Y-112554819D01*
X123280952Y-112554819D02*
X123185714Y-112602438D01*
X123185714Y-112602438D02*
X123138095Y-112650057D01*
X123138095Y-112650057D02*
X123090476Y-112745295D01*
X123090476Y-112745295D02*
X123090476Y-112840533D01*
X123090476Y-112840533D02*
X123138095Y-112983390D01*
X123138095Y-112983390D02*
X123709523Y-113554819D01*
X123709523Y-113554819D02*
X123090476Y-113554819D01*
X122709523Y-112650057D02*
X122661904Y-112602438D01*
X122661904Y-112602438D02*
X122566666Y-112554819D01*
X122566666Y-112554819D02*
X122328571Y-112554819D01*
X122328571Y-112554819D02*
X122233333Y-112602438D01*
X122233333Y-112602438D02*
X122185714Y-112650057D01*
X122185714Y-112650057D02*
X122138095Y-112745295D01*
X122138095Y-112745295D02*
X122138095Y-112840533D01*
X122138095Y-112840533D02*
X122185714Y-112983390D01*
X122185714Y-112983390D02*
X122757142Y-113554819D01*
X122757142Y-113554819D02*
X122138095Y-113554819D01*
D12*
X85520952Y-72895270D02*
X85641904Y-72834794D01*
X85641904Y-72834794D02*
X85762857Y-72713842D01*
X85762857Y-72713842D02*
X85944285Y-72532413D01*
X85944285Y-72532413D02*
X86065238Y-72471937D01*
X86065238Y-72471937D02*
X86186190Y-72471937D01*
X86125714Y-72774318D02*
X86246666Y-72713842D01*
X86246666Y-72713842D02*
X86367619Y-72592889D01*
X86367619Y-72592889D02*
X86428095Y-72350984D01*
X86428095Y-72350984D02*
X86428095Y-71927651D01*
X86428095Y-71927651D02*
X86367619Y-71685746D01*
X86367619Y-71685746D02*
X86246666Y-71564794D01*
X86246666Y-71564794D02*
X86125714Y-71504318D01*
X86125714Y-71504318D02*
X85883809Y-71504318D01*
X85883809Y-71504318D02*
X85762857Y-71564794D01*
X85762857Y-71564794D02*
X85641904Y-71685746D01*
X85641904Y-71685746D02*
X85581428Y-71927651D01*
X85581428Y-71927651D02*
X85581428Y-72350984D01*
X85581428Y-72350984D02*
X85641904Y-72592889D01*
X85641904Y-72592889D02*
X85762857Y-72713842D01*
X85762857Y-72713842D02*
X85883809Y-72774318D01*
X85883809Y-72774318D02*
X86125714Y-72774318D01*
X85097619Y-71625270D02*
X85037143Y-71564794D01*
X85037143Y-71564794D02*
X84916190Y-71504318D01*
X84916190Y-71504318D02*
X84613809Y-71504318D01*
X84613809Y-71504318D02*
X84492857Y-71564794D01*
X84492857Y-71564794D02*
X84432381Y-71625270D01*
X84432381Y-71625270D02*
X84371904Y-71746222D01*
X84371904Y-71746222D02*
X84371904Y-71867175D01*
X84371904Y-71867175D02*
X84432381Y-72048603D01*
X84432381Y-72048603D02*
X85158095Y-72774318D01*
X85158095Y-72774318D02*
X84371904Y-72774318D01*
D11*
X98842857Y-52859580D02*
X98890476Y-52907200D01*
X98890476Y-52907200D02*
X99033333Y-52954819D01*
X99033333Y-52954819D02*
X99128571Y-52954819D01*
X99128571Y-52954819D02*
X99271428Y-52907200D01*
X99271428Y-52907200D02*
X99366666Y-52811961D01*
X99366666Y-52811961D02*
X99414285Y-52716723D01*
X99414285Y-52716723D02*
X99461904Y-52526247D01*
X99461904Y-52526247D02*
X99461904Y-52383390D01*
X99461904Y-52383390D02*
X99414285Y-52192914D01*
X99414285Y-52192914D02*
X99366666Y-52097676D01*
X99366666Y-52097676D02*
X99271428Y-52002438D01*
X99271428Y-52002438D02*
X99128571Y-51954819D01*
X99128571Y-51954819D02*
X99033333Y-51954819D01*
X99033333Y-51954819D02*
X98890476Y-52002438D01*
X98890476Y-52002438D02*
X98842857Y-52050057D01*
X97890476Y-52954819D02*
X98461904Y-52954819D01*
X98176190Y-52954819D02*
X98176190Y-51954819D01*
X98176190Y-51954819D02*
X98271428Y-52097676D01*
X98271428Y-52097676D02*
X98366666Y-52192914D01*
X98366666Y-52192914D02*
X98461904Y-52240533D01*
X97414285Y-52954819D02*
X97223809Y-52954819D01*
X97223809Y-52954819D02*
X97128571Y-52907200D01*
X97128571Y-52907200D02*
X97080952Y-52859580D01*
X97080952Y-52859580D02*
X96985714Y-52716723D01*
X96985714Y-52716723D02*
X96938095Y-52526247D01*
X96938095Y-52526247D02*
X96938095Y-52145295D01*
X96938095Y-52145295D02*
X96985714Y-52050057D01*
X96985714Y-52050057D02*
X97033333Y-52002438D01*
X97033333Y-52002438D02*
X97128571Y-51954819D01*
X97128571Y-51954819D02*
X97319047Y-51954819D01*
X97319047Y-51954819D02*
X97414285Y-52002438D01*
X97414285Y-52002438D02*
X97461904Y-52050057D01*
X97461904Y-52050057D02*
X97509523Y-52145295D01*
X97509523Y-52145295D02*
X97509523Y-52383390D01*
X97509523Y-52383390D02*
X97461904Y-52478628D01*
X97461904Y-52478628D02*
X97414285Y-52526247D01*
X97414285Y-52526247D02*
X97319047Y-52573866D01*
X97319047Y-52573866D02*
X97128571Y-52573866D01*
X97128571Y-52573866D02*
X97033333Y-52526247D01*
X97033333Y-52526247D02*
X96985714Y-52478628D01*
X96985714Y-52478628D02*
X96938095Y-52383390D01*
D12*
X144263094Y-65304318D02*
X143839761Y-66574318D01*
X143839761Y-66574318D02*
X143416427Y-65304318D01*
X142267380Y-66574318D02*
X142690714Y-65969556D01*
X142993095Y-66574318D02*
X142993095Y-65304318D01*
X142993095Y-65304318D02*
X142509285Y-65304318D01*
X142509285Y-65304318D02*
X142388333Y-65364794D01*
X142388333Y-65364794D02*
X142327856Y-65425270D01*
X142327856Y-65425270D02*
X142267380Y-65546222D01*
X142267380Y-65546222D02*
X142267380Y-65727651D01*
X142267380Y-65727651D02*
X142327856Y-65848603D01*
X142327856Y-65848603D02*
X142388333Y-65909080D01*
X142388333Y-65909080D02*
X142509285Y-65969556D01*
X142509285Y-65969556D02*
X142993095Y-65969556D01*
X141783571Y-65425270D02*
X141723095Y-65364794D01*
X141723095Y-65364794D02*
X141602142Y-65304318D01*
X141602142Y-65304318D02*
X141299761Y-65304318D01*
X141299761Y-65304318D02*
X141178809Y-65364794D01*
X141178809Y-65364794D02*
X141118333Y-65425270D01*
X141118333Y-65425270D02*
X141057856Y-65546222D01*
X141057856Y-65546222D02*
X141057856Y-65667175D01*
X141057856Y-65667175D02*
X141118333Y-65848603D01*
X141118333Y-65848603D02*
X141844047Y-66574318D01*
X141844047Y-66574318D02*
X141057856Y-66574318D01*
D11*
X117149580Y-118702142D02*
X117197200Y-118654523D01*
X117197200Y-118654523D02*
X117244819Y-118511666D01*
X117244819Y-118511666D02*
X117244819Y-118416428D01*
X117244819Y-118416428D02*
X117197200Y-118273571D01*
X117197200Y-118273571D02*
X117101961Y-118178333D01*
X117101961Y-118178333D02*
X117006723Y-118130714D01*
X117006723Y-118130714D02*
X116816247Y-118083095D01*
X116816247Y-118083095D02*
X116673390Y-118083095D01*
X116673390Y-118083095D02*
X116482914Y-118130714D01*
X116482914Y-118130714D02*
X116387676Y-118178333D01*
X116387676Y-118178333D02*
X116292438Y-118273571D01*
X116292438Y-118273571D02*
X116244819Y-118416428D01*
X116244819Y-118416428D02*
X116244819Y-118511666D01*
X116244819Y-118511666D02*
X116292438Y-118654523D01*
X116292438Y-118654523D02*
X116340057Y-118702142D01*
X117244819Y-119654523D02*
X117244819Y-119083095D01*
X117244819Y-119368809D02*
X116244819Y-119368809D01*
X116244819Y-119368809D02*
X116387676Y-119273571D01*
X116387676Y-119273571D02*
X116482914Y-119178333D01*
X116482914Y-119178333D02*
X116530533Y-119083095D01*
X116244819Y-119987857D02*
X116244819Y-120654523D01*
X116244819Y-120654523D02*
X117244819Y-120225952D01*
X88566666Y-96054819D02*
X88899999Y-95578628D01*
X89138094Y-96054819D02*
X89138094Y-95054819D01*
X89138094Y-95054819D02*
X88757142Y-95054819D01*
X88757142Y-95054819D02*
X88661904Y-95102438D01*
X88661904Y-95102438D02*
X88614285Y-95150057D01*
X88614285Y-95150057D02*
X88566666Y-95245295D01*
X88566666Y-95245295D02*
X88566666Y-95388152D01*
X88566666Y-95388152D02*
X88614285Y-95483390D01*
X88614285Y-95483390D02*
X88661904Y-95531009D01*
X88661904Y-95531009D02*
X88757142Y-95578628D01*
X88757142Y-95578628D02*
X89138094Y-95578628D01*
X88233332Y-95054819D02*
X87566666Y-95054819D01*
X87566666Y-95054819D02*
X87995237Y-96054819D01*
X105265580Y-90744142D02*
X105313200Y-90696523D01*
X105313200Y-90696523D02*
X105360819Y-90553666D01*
X105360819Y-90553666D02*
X105360819Y-90458428D01*
X105360819Y-90458428D02*
X105313200Y-90315571D01*
X105313200Y-90315571D02*
X105217961Y-90220333D01*
X105217961Y-90220333D02*
X105122723Y-90172714D01*
X105122723Y-90172714D02*
X104932247Y-90125095D01*
X104932247Y-90125095D02*
X104789390Y-90125095D01*
X104789390Y-90125095D02*
X104598914Y-90172714D01*
X104598914Y-90172714D02*
X104503676Y-90220333D01*
X104503676Y-90220333D02*
X104408438Y-90315571D01*
X104408438Y-90315571D02*
X104360819Y-90458428D01*
X104360819Y-90458428D02*
X104360819Y-90553666D01*
X104360819Y-90553666D02*
X104408438Y-90696523D01*
X104408438Y-90696523D02*
X104456057Y-90744142D01*
X105360819Y-91696523D02*
X105360819Y-91125095D01*
X105360819Y-91410809D02*
X104360819Y-91410809D01*
X104360819Y-91410809D02*
X104503676Y-91315571D01*
X104503676Y-91315571D02*
X104598914Y-91220333D01*
X104598914Y-91220333D02*
X104646533Y-91125095D01*
X104360819Y-92601285D02*
X104360819Y-92125095D01*
X104360819Y-92125095D02*
X104837009Y-92077476D01*
X104837009Y-92077476D02*
X104789390Y-92125095D01*
X104789390Y-92125095D02*
X104741771Y-92220333D01*
X104741771Y-92220333D02*
X104741771Y-92458428D01*
X104741771Y-92458428D02*
X104789390Y-92553666D01*
X104789390Y-92553666D02*
X104837009Y-92601285D01*
X104837009Y-92601285D02*
X104932247Y-92648904D01*
X104932247Y-92648904D02*
X105170342Y-92648904D01*
X105170342Y-92648904D02*
X105265580Y-92601285D01*
X105265580Y-92601285D02*
X105313200Y-92553666D01*
X105313200Y-92553666D02*
X105360819Y-92458428D01*
X105360819Y-92458428D02*
X105360819Y-92220333D01*
X105360819Y-92220333D02*
X105313200Y-92125095D01*
X105313200Y-92125095D02*
X105265580Y-92077476D01*
X88566666Y-62654819D02*
X88899999Y-62178628D01*
X89138094Y-62654819D02*
X89138094Y-61654819D01*
X89138094Y-61654819D02*
X88757142Y-61654819D01*
X88757142Y-61654819D02*
X88661904Y-61702438D01*
X88661904Y-61702438D02*
X88614285Y-61750057D01*
X88614285Y-61750057D02*
X88566666Y-61845295D01*
X88566666Y-61845295D02*
X88566666Y-61988152D01*
X88566666Y-61988152D02*
X88614285Y-62083390D01*
X88614285Y-62083390D02*
X88661904Y-62131009D01*
X88661904Y-62131009D02*
X88757142Y-62178628D01*
X88757142Y-62178628D02*
X89138094Y-62178628D01*
X87614285Y-62654819D02*
X88185713Y-62654819D01*
X87899999Y-62654819D02*
X87899999Y-61654819D01*
X87899999Y-61654819D02*
X87995237Y-61797676D01*
X87995237Y-61797676D02*
X88090475Y-61892914D01*
X88090475Y-61892914D02*
X88185713Y-61940533D01*
X121938094Y-59354819D02*
X121938094Y-58354819D01*
X121938094Y-58354819D02*
X121699999Y-58354819D01*
X121699999Y-58354819D02*
X121557142Y-58402438D01*
X121557142Y-58402438D02*
X121461904Y-58497676D01*
X121461904Y-58497676D02*
X121414285Y-58592914D01*
X121414285Y-58592914D02*
X121366666Y-58783390D01*
X121366666Y-58783390D02*
X121366666Y-58926247D01*
X121366666Y-58926247D02*
X121414285Y-59116723D01*
X121414285Y-59116723D02*
X121461904Y-59211961D01*
X121461904Y-59211961D02*
X121557142Y-59307200D01*
X121557142Y-59307200D02*
X121699999Y-59354819D01*
X121699999Y-59354819D02*
X121938094Y-59354819D01*
X120414285Y-59354819D02*
X120985713Y-59354819D01*
X120699999Y-59354819D02*
X120699999Y-58354819D01*
X120699999Y-58354819D02*
X120795237Y-58497676D01*
X120795237Y-58497676D02*
X120890475Y-58592914D01*
X120890475Y-58592914D02*
X120985713Y-58640533D01*
X81200666Y-104284819D02*
X81533999Y-103808628D01*
X81772094Y-104284819D02*
X81772094Y-103284819D01*
X81772094Y-103284819D02*
X81391142Y-103284819D01*
X81391142Y-103284819D02*
X81295904Y-103332438D01*
X81295904Y-103332438D02*
X81248285Y-103380057D01*
X81248285Y-103380057D02*
X81200666Y-103475295D01*
X81200666Y-103475295D02*
X81200666Y-103618152D01*
X81200666Y-103618152D02*
X81248285Y-103713390D01*
X81248285Y-103713390D02*
X81295904Y-103761009D01*
X81295904Y-103761009D02*
X81391142Y-103808628D01*
X81391142Y-103808628D02*
X81772094Y-103808628D01*
X80629237Y-103713390D02*
X80724475Y-103665771D01*
X80724475Y-103665771D02*
X80772094Y-103618152D01*
X80772094Y-103618152D02*
X80819713Y-103522914D01*
X80819713Y-103522914D02*
X80819713Y-103475295D01*
X80819713Y-103475295D02*
X80772094Y-103380057D01*
X80772094Y-103380057D02*
X80724475Y-103332438D01*
X80724475Y-103332438D02*
X80629237Y-103284819D01*
X80629237Y-103284819D02*
X80438761Y-103284819D01*
X80438761Y-103284819D02*
X80343523Y-103332438D01*
X80343523Y-103332438D02*
X80295904Y-103380057D01*
X80295904Y-103380057D02*
X80248285Y-103475295D01*
X80248285Y-103475295D02*
X80248285Y-103522914D01*
X80248285Y-103522914D02*
X80295904Y-103618152D01*
X80295904Y-103618152D02*
X80343523Y-103665771D01*
X80343523Y-103665771D02*
X80438761Y-103713390D01*
X80438761Y-103713390D02*
X80629237Y-103713390D01*
X80629237Y-103713390D02*
X80724475Y-103761009D01*
X80724475Y-103761009D02*
X80772094Y-103808628D01*
X80772094Y-103808628D02*
X80819713Y-103903866D01*
X80819713Y-103903866D02*
X80819713Y-104094342D01*
X80819713Y-104094342D02*
X80772094Y-104189580D01*
X80772094Y-104189580D02*
X80724475Y-104237200D01*
X80724475Y-104237200D02*
X80629237Y-104284819D01*
X80629237Y-104284819D02*
X80438761Y-104284819D01*
X80438761Y-104284819D02*
X80343523Y-104237200D01*
X80343523Y-104237200D02*
X80295904Y-104189580D01*
X80295904Y-104189580D02*
X80248285Y-104094342D01*
X80248285Y-104094342D02*
X80248285Y-103903866D01*
X80248285Y-103903866D02*
X80295904Y-103808628D01*
X80295904Y-103808628D02*
X80343523Y-103761009D01*
X80343523Y-103761009D02*
X80438761Y-103713390D01*
X129642857Y-108659580D02*
X129690476Y-108707200D01*
X129690476Y-108707200D02*
X129833333Y-108754819D01*
X129833333Y-108754819D02*
X129928571Y-108754819D01*
X129928571Y-108754819D02*
X130071428Y-108707200D01*
X130071428Y-108707200D02*
X130166666Y-108611961D01*
X130166666Y-108611961D02*
X130214285Y-108516723D01*
X130214285Y-108516723D02*
X130261904Y-108326247D01*
X130261904Y-108326247D02*
X130261904Y-108183390D01*
X130261904Y-108183390D02*
X130214285Y-107992914D01*
X130214285Y-107992914D02*
X130166666Y-107897676D01*
X130166666Y-107897676D02*
X130071428Y-107802438D01*
X130071428Y-107802438D02*
X129928571Y-107754819D01*
X129928571Y-107754819D02*
X129833333Y-107754819D01*
X129833333Y-107754819D02*
X129690476Y-107802438D01*
X129690476Y-107802438D02*
X129642857Y-107850057D01*
X128690476Y-108754819D02*
X129261904Y-108754819D01*
X128976190Y-108754819D02*
X128976190Y-107754819D01*
X128976190Y-107754819D02*
X129071428Y-107897676D01*
X129071428Y-107897676D02*
X129166666Y-107992914D01*
X129166666Y-107992914D02*
X129261904Y-108040533D01*
X128357142Y-107754819D02*
X127738095Y-107754819D01*
X127738095Y-107754819D02*
X128071428Y-108135771D01*
X128071428Y-108135771D02*
X127928571Y-108135771D01*
X127928571Y-108135771D02*
X127833333Y-108183390D01*
X127833333Y-108183390D02*
X127785714Y-108231009D01*
X127785714Y-108231009D02*
X127738095Y-108326247D01*
X127738095Y-108326247D02*
X127738095Y-108564342D01*
X127738095Y-108564342D02*
X127785714Y-108659580D01*
X127785714Y-108659580D02*
X127833333Y-108707200D01*
X127833333Y-108707200D02*
X127928571Y-108754819D01*
X127928571Y-108754819D02*
X128214285Y-108754819D01*
X128214285Y-108754819D02*
X128309523Y-108707200D01*
X128309523Y-108707200D02*
X128357142Y-108659580D01*
X138154819Y-105657142D02*
X137678628Y-105323809D01*
X138154819Y-105085714D02*
X137154819Y-105085714D01*
X137154819Y-105085714D02*
X137154819Y-105466666D01*
X137154819Y-105466666D02*
X137202438Y-105561904D01*
X137202438Y-105561904D02*
X137250057Y-105609523D01*
X137250057Y-105609523D02*
X137345295Y-105657142D01*
X137345295Y-105657142D02*
X137488152Y-105657142D01*
X137488152Y-105657142D02*
X137583390Y-105609523D01*
X137583390Y-105609523D02*
X137631009Y-105561904D01*
X137631009Y-105561904D02*
X137678628Y-105466666D01*
X137678628Y-105466666D02*
X137678628Y-105085714D01*
X137154819Y-105990476D02*
X137154819Y-106609523D01*
X137154819Y-106609523D02*
X137535771Y-106276190D01*
X137535771Y-106276190D02*
X137535771Y-106419047D01*
X137535771Y-106419047D02*
X137583390Y-106514285D01*
X137583390Y-106514285D02*
X137631009Y-106561904D01*
X137631009Y-106561904D02*
X137726247Y-106609523D01*
X137726247Y-106609523D02*
X137964342Y-106609523D01*
X137964342Y-106609523D02*
X138059580Y-106561904D01*
X138059580Y-106561904D02*
X138107200Y-106514285D01*
X138107200Y-106514285D02*
X138154819Y-106419047D01*
X138154819Y-106419047D02*
X138154819Y-106133333D01*
X138154819Y-106133333D02*
X138107200Y-106038095D01*
X138107200Y-106038095D02*
X138059580Y-105990476D01*
X137154819Y-107228571D02*
X137154819Y-107323809D01*
X137154819Y-107323809D02*
X137202438Y-107419047D01*
X137202438Y-107419047D02*
X137250057Y-107466666D01*
X137250057Y-107466666D02*
X137345295Y-107514285D01*
X137345295Y-107514285D02*
X137535771Y-107561904D01*
X137535771Y-107561904D02*
X137773866Y-107561904D01*
X137773866Y-107561904D02*
X137964342Y-107514285D01*
X137964342Y-107514285D02*
X138059580Y-107466666D01*
X138059580Y-107466666D02*
X138107200Y-107419047D01*
X138107200Y-107419047D02*
X138154819Y-107323809D01*
X138154819Y-107323809D02*
X138154819Y-107228571D01*
X138154819Y-107228571D02*
X138107200Y-107133333D01*
X138107200Y-107133333D02*
X138059580Y-107085714D01*
X138059580Y-107085714D02*
X137964342Y-107038095D01*
X137964342Y-107038095D02*
X137773866Y-106990476D01*
X137773866Y-106990476D02*
X137535771Y-106990476D01*
X137535771Y-106990476D02*
X137345295Y-107038095D01*
X137345295Y-107038095D02*
X137250057Y-107085714D01*
X137250057Y-107085714D02*
X137202438Y-107133333D01*
X137202438Y-107133333D02*
X137154819Y-107228571D01*
D12*
X140937381Y-104974318D02*
X140937381Y-103704318D01*
X140937381Y-103704318D02*
X140635000Y-103704318D01*
X140635000Y-103704318D02*
X140453571Y-103764794D01*
X140453571Y-103764794D02*
X140332619Y-103885746D01*
X140332619Y-103885746D02*
X140272142Y-104006699D01*
X140272142Y-104006699D02*
X140211666Y-104248603D01*
X140211666Y-104248603D02*
X140211666Y-104430032D01*
X140211666Y-104430032D02*
X140272142Y-104671937D01*
X140272142Y-104671937D02*
X140332619Y-104792889D01*
X140332619Y-104792889D02*
X140453571Y-104913842D01*
X140453571Y-104913842D02*
X140635000Y-104974318D01*
X140635000Y-104974318D02*
X140937381Y-104974318D01*
X139727857Y-103825270D02*
X139667381Y-103764794D01*
X139667381Y-103764794D02*
X139546428Y-103704318D01*
X139546428Y-103704318D02*
X139244047Y-103704318D01*
X139244047Y-103704318D02*
X139123095Y-103764794D01*
X139123095Y-103764794D02*
X139062619Y-103825270D01*
X139062619Y-103825270D02*
X139002142Y-103946222D01*
X139002142Y-103946222D02*
X139002142Y-104067175D01*
X139002142Y-104067175D02*
X139062619Y-104248603D01*
X139062619Y-104248603D02*
X139788333Y-104974318D01*
X139788333Y-104974318D02*
X139002142Y-104974318D01*
X142263094Y-87104318D02*
X141839761Y-88374318D01*
X141839761Y-88374318D02*
X141416427Y-87104318D01*
X140267380Y-88374318D02*
X140690714Y-87769556D01*
X140993095Y-88374318D02*
X140993095Y-87104318D01*
X140993095Y-87104318D02*
X140509285Y-87104318D01*
X140509285Y-87104318D02*
X140388333Y-87164794D01*
X140388333Y-87164794D02*
X140327856Y-87225270D01*
X140327856Y-87225270D02*
X140267380Y-87346222D01*
X140267380Y-87346222D02*
X140267380Y-87527651D01*
X140267380Y-87527651D02*
X140327856Y-87648603D01*
X140327856Y-87648603D02*
X140388333Y-87709080D01*
X140388333Y-87709080D02*
X140509285Y-87769556D01*
X140509285Y-87769556D02*
X140993095Y-87769556D01*
X139057856Y-88374318D02*
X139783571Y-88374318D01*
X139420714Y-88374318D02*
X139420714Y-87104318D01*
X139420714Y-87104318D02*
X139541666Y-87285746D01*
X139541666Y-87285746D02*
X139662618Y-87406699D01*
X139662618Y-87406699D02*
X139783571Y-87467175D01*
D11*
X91350857Y-91363557D02*
X91684190Y-90887366D01*
X91922285Y-91363557D02*
X91922285Y-90363557D01*
X91922285Y-90363557D02*
X91541333Y-90363557D01*
X91541333Y-90363557D02*
X91446095Y-90411176D01*
X91446095Y-90411176D02*
X91398476Y-90458795D01*
X91398476Y-90458795D02*
X91350857Y-90554033D01*
X91350857Y-90554033D02*
X91350857Y-90696890D01*
X91350857Y-90696890D02*
X91398476Y-90792128D01*
X91398476Y-90792128D02*
X91446095Y-90839747D01*
X91446095Y-90839747D02*
X91541333Y-90887366D01*
X91541333Y-90887366D02*
X91922285Y-90887366D01*
X90969904Y-90458795D02*
X90922285Y-90411176D01*
X90922285Y-90411176D02*
X90827047Y-90363557D01*
X90827047Y-90363557D02*
X90588952Y-90363557D01*
X90588952Y-90363557D02*
X90493714Y-90411176D01*
X90493714Y-90411176D02*
X90446095Y-90458795D01*
X90446095Y-90458795D02*
X90398476Y-90554033D01*
X90398476Y-90554033D02*
X90398476Y-90649271D01*
X90398476Y-90649271D02*
X90446095Y-90792128D01*
X90446095Y-90792128D02*
X91017523Y-91363557D01*
X91017523Y-91363557D02*
X90398476Y-91363557D01*
X89446095Y-91363557D02*
X90017523Y-91363557D01*
X89731809Y-91363557D02*
X89731809Y-90363557D01*
X89731809Y-90363557D02*
X89827047Y-90506414D01*
X89827047Y-90506414D02*
X89922285Y-90601652D01*
X89922285Y-90601652D02*
X90017523Y-90649271D01*
X81742857Y-137554819D02*
X82076190Y-137078628D01*
X82314285Y-137554819D02*
X82314285Y-136554819D01*
X82314285Y-136554819D02*
X81933333Y-136554819D01*
X81933333Y-136554819D02*
X81838095Y-136602438D01*
X81838095Y-136602438D02*
X81790476Y-136650057D01*
X81790476Y-136650057D02*
X81742857Y-136745295D01*
X81742857Y-136745295D02*
X81742857Y-136888152D01*
X81742857Y-136888152D02*
X81790476Y-136983390D01*
X81790476Y-136983390D02*
X81838095Y-137031009D01*
X81838095Y-137031009D02*
X81933333Y-137078628D01*
X81933333Y-137078628D02*
X82314285Y-137078628D01*
X80790476Y-137554819D02*
X81361904Y-137554819D01*
X81076190Y-137554819D02*
X81076190Y-136554819D01*
X81076190Y-136554819D02*
X81171428Y-136697676D01*
X81171428Y-136697676D02*
X81266666Y-136792914D01*
X81266666Y-136792914D02*
X81361904Y-136840533D01*
X79933333Y-136554819D02*
X80123809Y-136554819D01*
X80123809Y-136554819D02*
X80219047Y-136602438D01*
X80219047Y-136602438D02*
X80266666Y-136650057D01*
X80266666Y-136650057D02*
X80361904Y-136792914D01*
X80361904Y-136792914D02*
X80409523Y-136983390D01*
X80409523Y-136983390D02*
X80409523Y-137364342D01*
X80409523Y-137364342D02*
X80361904Y-137459580D01*
X80361904Y-137459580D02*
X80314285Y-137507200D01*
X80314285Y-137507200D02*
X80219047Y-137554819D01*
X80219047Y-137554819D02*
X80028571Y-137554819D01*
X80028571Y-137554819D02*
X79933333Y-137507200D01*
X79933333Y-137507200D02*
X79885714Y-137459580D01*
X79885714Y-137459580D02*
X79838095Y-137364342D01*
X79838095Y-137364342D02*
X79838095Y-137126247D01*
X79838095Y-137126247D02*
X79885714Y-137031009D01*
X79885714Y-137031009D02*
X79933333Y-136983390D01*
X79933333Y-136983390D02*
X80028571Y-136935771D01*
X80028571Y-136935771D02*
X80219047Y-136935771D01*
X80219047Y-136935771D02*
X80314285Y-136983390D01*
X80314285Y-136983390D02*
X80361904Y-137031009D01*
X80361904Y-137031009D02*
X80409523Y-137126247D01*
D12*
X102239762Y-57174318D02*
X102239762Y-55904318D01*
X100909285Y-57053365D02*
X100969761Y-57113842D01*
X100969761Y-57113842D02*
X101151190Y-57174318D01*
X101151190Y-57174318D02*
X101272142Y-57174318D01*
X101272142Y-57174318D02*
X101453571Y-57113842D01*
X101453571Y-57113842D02*
X101574523Y-56992889D01*
X101574523Y-56992889D02*
X101635000Y-56871937D01*
X101635000Y-56871937D02*
X101695476Y-56630032D01*
X101695476Y-56630032D02*
X101695476Y-56448603D01*
X101695476Y-56448603D02*
X101635000Y-56206699D01*
X101635000Y-56206699D02*
X101574523Y-56085746D01*
X101574523Y-56085746D02*
X101453571Y-55964794D01*
X101453571Y-55964794D02*
X101272142Y-55904318D01*
X101272142Y-55904318D02*
X101151190Y-55904318D01*
X101151190Y-55904318D02*
X100969761Y-55964794D01*
X100969761Y-55964794D02*
X100909285Y-56025270D01*
X100485952Y-55904318D02*
X99699761Y-55904318D01*
X99699761Y-55904318D02*
X100123095Y-56388127D01*
X100123095Y-56388127D02*
X99941666Y-56388127D01*
X99941666Y-56388127D02*
X99820714Y-56448603D01*
X99820714Y-56448603D02*
X99760238Y-56509080D01*
X99760238Y-56509080D02*
X99699761Y-56630032D01*
X99699761Y-56630032D02*
X99699761Y-56932413D01*
X99699761Y-56932413D02*
X99760238Y-57053365D01*
X99760238Y-57053365D02*
X99820714Y-57113842D01*
X99820714Y-57113842D02*
X99941666Y-57174318D01*
X99941666Y-57174318D02*
X100304523Y-57174318D01*
X100304523Y-57174318D02*
X100425476Y-57113842D01*
X100425476Y-57113842D02*
X100485952Y-57053365D01*
D11*
X113667857Y-113509580D02*
X113715476Y-113557200D01*
X113715476Y-113557200D02*
X113858333Y-113604819D01*
X113858333Y-113604819D02*
X113953571Y-113604819D01*
X113953571Y-113604819D02*
X114096428Y-113557200D01*
X114096428Y-113557200D02*
X114191666Y-113461961D01*
X114191666Y-113461961D02*
X114239285Y-113366723D01*
X114239285Y-113366723D02*
X114286904Y-113176247D01*
X114286904Y-113176247D02*
X114286904Y-113033390D01*
X114286904Y-113033390D02*
X114239285Y-112842914D01*
X114239285Y-112842914D02*
X114191666Y-112747676D01*
X114191666Y-112747676D02*
X114096428Y-112652438D01*
X114096428Y-112652438D02*
X113953571Y-112604819D01*
X113953571Y-112604819D02*
X113858333Y-112604819D01*
X113858333Y-112604819D02*
X113715476Y-112652438D01*
X113715476Y-112652438D02*
X113667857Y-112700057D01*
X112715476Y-113604819D02*
X113286904Y-113604819D01*
X113001190Y-113604819D02*
X113001190Y-112604819D01*
X113001190Y-112604819D02*
X113096428Y-112747676D01*
X113096428Y-112747676D02*
X113191666Y-112842914D01*
X113191666Y-112842914D02*
X113286904Y-112890533D01*
X111858333Y-112938152D02*
X111858333Y-113604819D01*
X112096428Y-112557200D02*
X112334523Y-113271485D01*
X112334523Y-113271485D02*
X111715476Y-113271485D01*
X81256666Y-93164819D02*
X81589999Y-92688628D01*
X81828094Y-93164819D02*
X81828094Y-92164819D01*
X81828094Y-92164819D02*
X81447142Y-92164819D01*
X81447142Y-92164819D02*
X81351904Y-92212438D01*
X81351904Y-92212438D02*
X81304285Y-92260057D01*
X81304285Y-92260057D02*
X81256666Y-92355295D01*
X81256666Y-92355295D02*
X81256666Y-92498152D01*
X81256666Y-92498152D02*
X81304285Y-92593390D01*
X81304285Y-92593390D02*
X81351904Y-92641009D01*
X81351904Y-92641009D02*
X81447142Y-92688628D01*
X81447142Y-92688628D02*
X81828094Y-92688628D01*
X80399523Y-92164819D02*
X80589999Y-92164819D01*
X80589999Y-92164819D02*
X80685237Y-92212438D01*
X80685237Y-92212438D02*
X80732856Y-92260057D01*
X80732856Y-92260057D02*
X80828094Y-92402914D01*
X80828094Y-92402914D02*
X80875713Y-92593390D01*
X80875713Y-92593390D02*
X80875713Y-92974342D01*
X80875713Y-92974342D02*
X80828094Y-93069580D01*
X80828094Y-93069580D02*
X80780475Y-93117200D01*
X80780475Y-93117200D02*
X80685237Y-93164819D01*
X80685237Y-93164819D02*
X80494761Y-93164819D01*
X80494761Y-93164819D02*
X80399523Y-93117200D01*
X80399523Y-93117200D02*
X80351904Y-93069580D01*
X80351904Y-93069580D02*
X80304285Y-92974342D01*
X80304285Y-92974342D02*
X80304285Y-92736247D01*
X80304285Y-92736247D02*
X80351904Y-92641009D01*
X80351904Y-92641009D02*
X80399523Y-92593390D01*
X80399523Y-92593390D02*
X80494761Y-92545771D01*
X80494761Y-92545771D02*
X80685237Y-92545771D01*
X80685237Y-92545771D02*
X80780475Y-92593390D01*
X80780475Y-92593390D02*
X80828094Y-92641009D01*
X80828094Y-92641009D02*
X80875713Y-92736247D01*
X88456666Y-72854819D02*
X88789999Y-72378628D01*
X89028094Y-72854819D02*
X89028094Y-71854819D01*
X89028094Y-71854819D02*
X88647142Y-71854819D01*
X88647142Y-71854819D02*
X88551904Y-71902438D01*
X88551904Y-71902438D02*
X88504285Y-71950057D01*
X88504285Y-71950057D02*
X88456666Y-72045295D01*
X88456666Y-72045295D02*
X88456666Y-72188152D01*
X88456666Y-72188152D02*
X88504285Y-72283390D01*
X88504285Y-72283390D02*
X88551904Y-72331009D01*
X88551904Y-72331009D02*
X88647142Y-72378628D01*
X88647142Y-72378628D02*
X89028094Y-72378628D01*
X88123332Y-71854819D02*
X87504285Y-71854819D01*
X87504285Y-71854819D02*
X87837618Y-72235771D01*
X87837618Y-72235771D02*
X87694761Y-72235771D01*
X87694761Y-72235771D02*
X87599523Y-72283390D01*
X87599523Y-72283390D02*
X87551904Y-72331009D01*
X87551904Y-72331009D02*
X87504285Y-72426247D01*
X87504285Y-72426247D02*
X87504285Y-72664342D01*
X87504285Y-72664342D02*
X87551904Y-72759580D01*
X87551904Y-72759580D02*
X87599523Y-72807200D01*
X87599523Y-72807200D02*
X87694761Y-72854819D01*
X87694761Y-72854819D02*
X87980475Y-72854819D01*
X87980475Y-72854819D02*
X88075713Y-72807200D01*
X88075713Y-72807200D02*
X88123332Y-72759580D01*
D12*
X122323332Y-51204318D02*
X122323332Y-52111461D01*
X122323332Y-52111461D02*
X122383809Y-52292889D01*
X122383809Y-52292889D02*
X122504761Y-52413842D01*
X122504761Y-52413842D02*
X122686190Y-52474318D01*
X122686190Y-52474318D02*
X122807142Y-52474318D01*
X121839523Y-51204318D02*
X121053332Y-51204318D01*
X121053332Y-51204318D02*
X121476666Y-51688127D01*
X121476666Y-51688127D02*
X121295237Y-51688127D01*
X121295237Y-51688127D02*
X121174285Y-51748603D01*
X121174285Y-51748603D02*
X121113809Y-51809080D01*
X121113809Y-51809080D02*
X121053332Y-51930032D01*
X121053332Y-51930032D02*
X121053332Y-52232413D01*
X121053332Y-52232413D02*
X121113809Y-52353365D01*
X121113809Y-52353365D02*
X121174285Y-52413842D01*
X121174285Y-52413842D02*
X121295237Y-52474318D01*
X121295237Y-52474318D02*
X121658094Y-52474318D01*
X121658094Y-52474318D02*
X121779047Y-52413842D01*
X121779047Y-52413842D02*
X121839523Y-52353365D01*
D11*
X135969240Y-110148985D02*
X136302573Y-109672794D01*
X136540668Y-110148985D02*
X136540668Y-109148985D01*
X136540668Y-109148985D02*
X136159716Y-109148985D01*
X136159716Y-109148985D02*
X136064478Y-109196604D01*
X136064478Y-109196604D02*
X136016859Y-109244223D01*
X136016859Y-109244223D02*
X135969240Y-109339461D01*
X135969240Y-109339461D02*
X135969240Y-109482318D01*
X135969240Y-109482318D02*
X136016859Y-109577556D01*
X136016859Y-109577556D02*
X136064478Y-109625175D01*
X136064478Y-109625175D02*
X136159716Y-109672794D01*
X136159716Y-109672794D02*
X136540668Y-109672794D01*
X135016859Y-110148985D02*
X135588287Y-110148985D01*
X135302573Y-110148985D02*
X135302573Y-109148985D01*
X135302573Y-109148985D02*
X135397811Y-109291842D01*
X135397811Y-109291842D02*
X135493049Y-109387080D01*
X135493049Y-109387080D02*
X135588287Y-109434699D01*
X134540668Y-110148985D02*
X134350192Y-110148985D01*
X134350192Y-110148985D02*
X134254954Y-110101366D01*
X134254954Y-110101366D02*
X134207335Y-110053746D01*
X134207335Y-110053746D02*
X134112097Y-109910889D01*
X134112097Y-109910889D02*
X134064478Y-109720413D01*
X134064478Y-109720413D02*
X134064478Y-109339461D01*
X134064478Y-109339461D02*
X134112097Y-109244223D01*
X134112097Y-109244223D02*
X134159716Y-109196604D01*
X134159716Y-109196604D02*
X134254954Y-109148985D01*
X134254954Y-109148985D02*
X134445430Y-109148985D01*
X134445430Y-109148985D02*
X134540668Y-109196604D01*
X134540668Y-109196604D02*
X134588287Y-109244223D01*
X134588287Y-109244223D02*
X134635906Y-109339461D01*
X134635906Y-109339461D02*
X134635906Y-109577556D01*
X134635906Y-109577556D02*
X134588287Y-109672794D01*
X134588287Y-109672794D02*
X134540668Y-109720413D01*
X134540668Y-109720413D02*
X134445430Y-109768032D01*
X134445430Y-109768032D02*
X134254954Y-109768032D01*
X134254954Y-109768032D02*
X134159716Y-109720413D01*
X134159716Y-109720413D02*
X134112097Y-109672794D01*
X134112097Y-109672794D02*
X134064478Y-109577556D01*
X92259580Y-97533333D02*
X92307200Y-97485714D01*
X92307200Y-97485714D02*
X92354819Y-97342857D01*
X92354819Y-97342857D02*
X92354819Y-97247619D01*
X92354819Y-97247619D02*
X92307200Y-97104762D01*
X92307200Y-97104762D02*
X92211961Y-97009524D01*
X92211961Y-97009524D02*
X92116723Y-96961905D01*
X92116723Y-96961905D02*
X91926247Y-96914286D01*
X91926247Y-96914286D02*
X91783390Y-96914286D01*
X91783390Y-96914286D02*
X91592914Y-96961905D01*
X91592914Y-96961905D02*
X91497676Y-97009524D01*
X91497676Y-97009524D02*
X91402438Y-97104762D01*
X91402438Y-97104762D02*
X91354819Y-97247619D01*
X91354819Y-97247619D02*
X91354819Y-97342857D01*
X91354819Y-97342857D02*
X91402438Y-97485714D01*
X91402438Y-97485714D02*
X91450057Y-97533333D01*
X91783390Y-98104762D02*
X91735771Y-98009524D01*
X91735771Y-98009524D02*
X91688152Y-97961905D01*
X91688152Y-97961905D02*
X91592914Y-97914286D01*
X91592914Y-97914286D02*
X91545295Y-97914286D01*
X91545295Y-97914286D02*
X91450057Y-97961905D01*
X91450057Y-97961905D02*
X91402438Y-98009524D01*
X91402438Y-98009524D02*
X91354819Y-98104762D01*
X91354819Y-98104762D02*
X91354819Y-98295238D01*
X91354819Y-98295238D02*
X91402438Y-98390476D01*
X91402438Y-98390476D02*
X91450057Y-98438095D01*
X91450057Y-98438095D02*
X91545295Y-98485714D01*
X91545295Y-98485714D02*
X91592914Y-98485714D01*
X91592914Y-98485714D02*
X91688152Y-98438095D01*
X91688152Y-98438095D02*
X91735771Y-98390476D01*
X91735771Y-98390476D02*
X91783390Y-98295238D01*
X91783390Y-98295238D02*
X91783390Y-98104762D01*
X91783390Y-98104762D02*
X91831009Y-98009524D01*
X91831009Y-98009524D02*
X91878628Y-97961905D01*
X91878628Y-97961905D02*
X91973866Y-97914286D01*
X91973866Y-97914286D02*
X92164342Y-97914286D01*
X92164342Y-97914286D02*
X92259580Y-97961905D01*
X92259580Y-97961905D02*
X92307200Y-98009524D01*
X92307200Y-98009524D02*
X92354819Y-98104762D01*
X92354819Y-98104762D02*
X92354819Y-98295238D01*
X92354819Y-98295238D02*
X92307200Y-98390476D01*
X92307200Y-98390476D02*
X92259580Y-98438095D01*
X92259580Y-98438095D02*
X92164342Y-98485714D01*
X92164342Y-98485714D02*
X91973866Y-98485714D01*
X91973866Y-98485714D02*
X91878628Y-98438095D01*
X91878628Y-98438095D02*
X91831009Y-98390476D01*
X91831009Y-98390476D02*
X91783390Y-98295238D01*
D12*
X85320952Y-92095270D02*
X85441904Y-92034794D01*
X85441904Y-92034794D02*
X85562857Y-91913842D01*
X85562857Y-91913842D02*
X85744285Y-91732413D01*
X85744285Y-91732413D02*
X85865238Y-91671937D01*
X85865238Y-91671937D02*
X85986190Y-91671937D01*
X85925714Y-91974318D02*
X86046666Y-91913842D01*
X86046666Y-91913842D02*
X86167619Y-91792889D01*
X86167619Y-91792889D02*
X86228095Y-91550984D01*
X86228095Y-91550984D02*
X86228095Y-91127651D01*
X86228095Y-91127651D02*
X86167619Y-90885746D01*
X86167619Y-90885746D02*
X86046666Y-90764794D01*
X86046666Y-90764794D02*
X85925714Y-90704318D01*
X85925714Y-90704318D02*
X85683809Y-90704318D01*
X85683809Y-90704318D02*
X85562857Y-90764794D01*
X85562857Y-90764794D02*
X85441904Y-90885746D01*
X85441904Y-90885746D02*
X85381428Y-91127651D01*
X85381428Y-91127651D02*
X85381428Y-91550984D01*
X85381428Y-91550984D02*
X85441904Y-91792889D01*
X85441904Y-91792889D02*
X85562857Y-91913842D01*
X85562857Y-91913842D02*
X85683809Y-91974318D01*
X85683809Y-91974318D02*
X85925714Y-91974318D01*
X84958095Y-90704318D02*
X84171904Y-90704318D01*
X84171904Y-90704318D02*
X84595238Y-91188127D01*
X84595238Y-91188127D02*
X84413809Y-91188127D01*
X84413809Y-91188127D02*
X84292857Y-91248603D01*
X84292857Y-91248603D02*
X84232381Y-91309080D01*
X84232381Y-91309080D02*
X84171904Y-91430032D01*
X84171904Y-91430032D02*
X84171904Y-91732413D01*
X84171904Y-91732413D02*
X84232381Y-91853365D01*
X84232381Y-91853365D02*
X84292857Y-91913842D01*
X84292857Y-91913842D02*
X84413809Y-91974318D01*
X84413809Y-91974318D02*
X84776666Y-91974318D01*
X84776666Y-91974318D02*
X84897619Y-91913842D01*
X84897619Y-91913842D02*
X84958095Y-91853365D01*
D11*
X92542857Y-66959580D02*
X92590476Y-67007200D01*
X92590476Y-67007200D02*
X92733333Y-67054819D01*
X92733333Y-67054819D02*
X92828571Y-67054819D01*
X92828571Y-67054819D02*
X92971428Y-67007200D01*
X92971428Y-67007200D02*
X93066666Y-66911961D01*
X93066666Y-66911961D02*
X93114285Y-66816723D01*
X93114285Y-66816723D02*
X93161904Y-66626247D01*
X93161904Y-66626247D02*
X93161904Y-66483390D01*
X93161904Y-66483390D02*
X93114285Y-66292914D01*
X93114285Y-66292914D02*
X93066666Y-66197676D01*
X93066666Y-66197676D02*
X92971428Y-66102438D01*
X92971428Y-66102438D02*
X92828571Y-66054819D01*
X92828571Y-66054819D02*
X92733333Y-66054819D01*
X92733333Y-66054819D02*
X92590476Y-66102438D01*
X92590476Y-66102438D02*
X92542857Y-66150057D01*
X92161904Y-66150057D02*
X92114285Y-66102438D01*
X92114285Y-66102438D02*
X92019047Y-66054819D01*
X92019047Y-66054819D02*
X91780952Y-66054819D01*
X91780952Y-66054819D02*
X91685714Y-66102438D01*
X91685714Y-66102438D02*
X91638095Y-66150057D01*
X91638095Y-66150057D02*
X91590476Y-66245295D01*
X91590476Y-66245295D02*
X91590476Y-66340533D01*
X91590476Y-66340533D02*
X91638095Y-66483390D01*
X91638095Y-66483390D02*
X92209523Y-67054819D01*
X92209523Y-67054819D02*
X91590476Y-67054819D01*
X91257142Y-66054819D02*
X90590476Y-66054819D01*
X90590476Y-66054819D02*
X91019047Y-67054819D01*
X81256666Y-82044819D02*
X81589999Y-81568628D01*
X81828094Y-82044819D02*
X81828094Y-81044819D01*
X81828094Y-81044819D02*
X81447142Y-81044819D01*
X81447142Y-81044819D02*
X81351904Y-81092438D01*
X81351904Y-81092438D02*
X81304285Y-81140057D01*
X81304285Y-81140057D02*
X81256666Y-81235295D01*
X81256666Y-81235295D02*
X81256666Y-81378152D01*
X81256666Y-81378152D02*
X81304285Y-81473390D01*
X81304285Y-81473390D02*
X81351904Y-81521009D01*
X81351904Y-81521009D02*
X81447142Y-81568628D01*
X81447142Y-81568628D02*
X81828094Y-81568628D01*
X80399523Y-81378152D02*
X80399523Y-82044819D01*
X80637618Y-80997200D02*
X80875713Y-81711485D01*
X80875713Y-81711485D02*
X80256666Y-81711485D01*
X136804666Y-61177819D02*
X137137999Y-60701628D01*
X137376094Y-61177819D02*
X137376094Y-60177819D01*
X137376094Y-60177819D02*
X136995142Y-60177819D01*
X136995142Y-60177819D02*
X136899904Y-60225438D01*
X136899904Y-60225438D02*
X136852285Y-60273057D01*
X136852285Y-60273057D02*
X136804666Y-60368295D01*
X136804666Y-60368295D02*
X136804666Y-60511152D01*
X136804666Y-60511152D02*
X136852285Y-60606390D01*
X136852285Y-60606390D02*
X136899904Y-60654009D01*
X136899904Y-60654009D02*
X136995142Y-60701628D01*
X136995142Y-60701628D02*
X137376094Y-60701628D01*
X136328475Y-61177819D02*
X136137999Y-61177819D01*
X136137999Y-61177819D02*
X136042761Y-61130200D01*
X136042761Y-61130200D02*
X135995142Y-61082580D01*
X135995142Y-61082580D02*
X135899904Y-60939723D01*
X135899904Y-60939723D02*
X135852285Y-60749247D01*
X135852285Y-60749247D02*
X135852285Y-60368295D01*
X135852285Y-60368295D02*
X135899904Y-60273057D01*
X135899904Y-60273057D02*
X135947523Y-60225438D01*
X135947523Y-60225438D02*
X136042761Y-60177819D01*
X136042761Y-60177819D02*
X136233237Y-60177819D01*
X136233237Y-60177819D02*
X136328475Y-60225438D01*
X136328475Y-60225438D02*
X136376094Y-60273057D01*
X136376094Y-60273057D02*
X136423713Y-60368295D01*
X136423713Y-60368295D02*
X136423713Y-60606390D01*
X136423713Y-60606390D02*
X136376094Y-60701628D01*
X136376094Y-60701628D02*
X136328475Y-60749247D01*
X136328475Y-60749247D02*
X136233237Y-60796866D01*
X136233237Y-60796866D02*
X136042761Y-60796866D01*
X136042761Y-60796866D02*
X135947523Y-60749247D01*
X135947523Y-60749247D02*
X135899904Y-60701628D01*
X135899904Y-60701628D02*
X135852285Y-60606390D01*
X125861666Y-53159580D02*
X125909285Y-53207200D01*
X125909285Y-53207200D02*
X126052142Y-53254819D01*
X126052142Y-53254819D02*
X126147380Y-53254819D01*
X126147380Y-53254819D02*
X126290237Y-53207200D01*
X126290237Y-53207200D02*
X126385475Y-53111961D01*
X126385475Y-53111961D02*
X126433094Y-53016723D01*
X126433094Y-53016723D02*
X126480713Y-52826247D01*
X126480713Y-52826247D02*
X126480713Y-52683390D01*
X126480713Y-52683390D02*
X126433094Y-52492914D01*
X126433094Y-52492914D02*
X126385475Y-52397676D01*
X126385475Y-52397676D02*
X126290237Y-52302438D01*
X126290237Y-52302438D02*
X126147380Y-52254819D01*
X126147380Y-52254819D02*
X126052142Y-52254819D01*
X126052142Y-52254819D02*
X125909285Y-52302438D01*
X125909285Y-52302438D02*
X125861666Y-52350057D01*
X125004523Y-52254819D02*
X125194999Y-52254819D01*
X125194999Y-52254819D02*
X125290237Y-52302438D01*
X125290237Y-52302438D02*
X125337856Y-52350057D01*
X125337856Y-52350057D02*
X125433094Y-52492914D01*
X125433094Y-52492914D02*
X125480713Y-52683390D01*
X125480713Y-52683390D02*
X125480713Y-53064342D01*
X125480713Y-53064342D02*
X125433094Y-53159580D01*
X125433094Y-53159580D02*
X125385475Y-53207200D01*
X125385475Y-53207200D02*
X125290237Y-53254819D01*
X125290237Y-53254819D02*
X125099761Y-53254819D01*
X125099761Y-53254819D02*
X125004523Y-53207200D01*
X125004523Y-53207200D02*
X124956904Y-53159580D01*
X124956904Y-53159580D02*
X124909285Y-53064342D01*
X124909285Y-53064342D02*
X124909285Y-52826247D01*
X124909285Y-52826247D02*
X124956904Y-52731009D01*
X124956904Y-52731009D02*
X125004523Y-52683390D01*
X125004523Y-52683390D02*
X125099761Y-52635771D01*
X125099761Y-52635771D02*
X125290237Y-52635771D01*
X125290237Y-52635771D02*
X125385475Y-52683390D01*
X125385475Y-52683390D02*
X125433094Y-52731009D01*
X125433094Y-52731009D02*
X125480713Y-52826247D01*
X137730857Y-63927819D02*
X138064190Y-63451628D01*
X138302285Y-63927819D02*
X138302285Y-62927819D01*
X138302285Y-62927819D02*
X137921333Y-62927819D01*
X137921333Y-62927819D02*
X137826095Y-62975438D01*
X137826095Y-62975438D02*
X137778476Y-63023057D01*
X137778476Y-63023057D02*
X137730857Y-63118295D01*
X137730857Y-63118295D02*
X137730857Y-63261152D01*
X137730857Y-63261152D02*
X137778476Y-63356390D01*
X137778476Y-63356390D02*
X137826095Y-63404009D01*
X137826095Y-63404009D02*
X137921333Y-63451628D01*
X137921333Y-63451628D02*
X138302285Y-63451628D01*
X136778476Y-63927819D02*
X137349904Y-63927819D01*
X137064190Y-63927819D02*
X137064190Y-62927819D01*
X137064190Y-62927819D02*
X137159428Y-63070676D01*
X137159428Y-63070676D02*
X137254666Y-63165914D01*
X137254666Y-63165914D02*
X137349904Y-63213533D01*
X135826095Y-63927819D02*
X136397523Y-63927819D01*
X136111809Y-63927819D02*
X136111809Y-62927819D01*
X136111809Y-62927819D02*
X136207047Y-63070676D01*
X136207047Y-63070676D02*
X136302285Y-63165914D01*
X136302285Y-63165914D02*
X136397523Y-63213533D01*
X133154819Y-105757142D02*
X132678628Y-105423809D01*
X133154819Y-105185714D02*
X132154819Y-105185714D01*
X132154819Y-105185714D02*
X132154819Y-105566666D01*
X132154819Y-105566666D02*
X132202438Y-105661904D01*
X132202438Y-105661904D02*
X132250057Y-105709523D01*
X132250057Y-105709523D02*
X132345295Y-105757142D01*
X132345295Y-105757142D02*
X132488152Y-105757142D01*
X132488152Y-105757142D02*
X132583390Y-105709523D01*
X132583390Y-105709523D02*
X132631009Y-105661904D01*
X132631009Y-105661904D02*
X132678628Y-105566666D01*
X132678628Y-105566666D02*
X132678628Y-105185714D01*
X132154819Y-106090476D02*
X132154819Y-106709523D01*
X132154819Y-106709523D02*
X132535771Y-106376190D01*
X132535771Y-106376190D02*
X132535771Y-106519047D01*
X132535771Y-106519047D02*
X132583390Y-106614285D01*
X132583390Y-106614285D02*
X132631009Y-106661904D01*
X132631009Y-106661904D02*
X132726247Y-106709523D01*
X132726247Y-106709523D02*
X132964342Y-106709523D01*
X132964342Y-106709523D02*
X133059580Y-106661904D01*
X133059580Y-106661904D02*
X133107200Y-106614285D01*
X133107200Y-106614285D02*
X133154819Y-106519047D01*
X133154819Y-106519047D02*
X133154819Y-106233333D01*
X133154819Y-106233333D02*
X133107200Y-106138095D01*
X133107200Y-106138095D02*
X133059580Y-106090476D01*
X133154819Y-107661904D02*
X133154819Y-107090476D01*
X133154819Y-107376190D02*
X132154819Y-107376190D01*
X132154819Y-107376190D02*
X132297676Y-107280952D01*
X132297676Y-107280952D02*
X132392914Y-107185714D01*
X132392914Y-107185714D02*
X132440533Y-107090476D01*
X130542857Y-123359580D02*
X130590476Y-123407200D01*
X130590476Y-123407200D02*
X130733333Y-123454819D01*
X130733333Y-123454819D02*
X130828571Y-123454819D01*
X130828571Y-123454819D02*
X130971428Y-123407200D01*
X130971428Y-123407200D02*
X131066666Y-123311961D01*
X131066666Y-123311961D02*
X131114285Y-123216723D01*
X131114285Y-123216723D02*
X131161904Y-123026247D01*
X131161904Y-123026247D02*
X131161904Y-122883390D01*
X131161904Y-122883390D02*
X131114285Y-122692914D01*
X131114285Y-122692914D02*
X131066666Y-122597676D01*
X131066666Y-122597676D02*
X130971428Y-122502438D01*
X130971428Y-122502438D02*
X130828571Y-122454819D01*
X130828571Y-122454819D02*
X130733333Y-122454819D01*
X130733333Y-122454819D02*
X130590476Y-122502438D01*
X130590476Y-122502438D02*
X130542857Y-122550057D01*
X129590476Y-123454819D02*
X130161904Y-123454819D01*
X129876190Y-123454819D02*
X129876190Y-122454819D01*
X129876190Y-122454819D02*
X129971428Y-122597676D01*
X129971428Y-122597676D02*
X130066666Y-122692914D01*
X130066666Y-122692914D02*
X130161904Y-122740533D01*
X128638095Y-123454819D02*
X129209523Y-123454819D01*
X128923809Y-123454819D02*
X128923809Y-122454819D01*
X128923809Y-122454819D02*
X129019047Y-122597676D01*
X129019047Y-122597676D02*
X129114285Y-122692914D01*
X129114285Y-122692914D02*
X129209523Y-122740533D01*
X130792857Y-104604819D02*
X131126190Y-104128628D01*
X131364285Y-104604819D02*
X131364285Y-103604819D01*
X131364285Y-103604819D02*
X130983333Y-103604819D01*
X130983333Y-103604819D02*
X130888095Y-103652438D01*
X130888095Y-103652438D02*
X130840476Y-103700057D01*
X130840476Y-103700057D02*
X130792857Y-103795295D01*
X130792857Y-103795295D02*
X130792857Y-103938152D01*
X130792857Y-103938152D02*
X130840476Y-104033390D01*
X130840476Y-104033390D02*
X130888095Y-104081009D01*
X130888095Y-104081009D02*
X130983333Y-104128628D01*
X130983333Y-104128628D02*
X131364285Y-104128628D01*
X130411904Y-103700057D02*
X130364285Y-103652438D01*
X130364285Y-103652438D02*
X130269047Y-103604819D01*
X130269047Y-103604819D02*
X130030952Y-103604819D01*
X130030952Y-103604819D02*
X129935714Y-103652438D01*
X129935714Y-103652438D02*
X129888095Y-103700057D01*
X129888095Y-103700057D02*
X129840476Y-103795295D01*
X129840476Y-103795295D02*
X129840476Y-103890533D01*
X129840476Y-103890533D02*
X129888095Y-104033390D01*
X129888095Y-104033390D02*
X130459523Y-104604819D01*
X130459523Y-104604819D02*
X129840476Y-104604819D01*
X129269047Y-104033390D02*
X129364285Y-103985771D01*
X129364285Y-103985771D02*
X129411904Y-103938152D01*
X129411904Y-103938152D02*
X129459523Y-103842914D01*
X129459523Y-103842914D02*
X129459523Y-103795295D01*
X129459523Y-103795295D02*
X129411904Y-103700057D01*
X129411904Y-103700057D02*
X129364285Y-103652438D01*
X129364285Y-103652438D02*
X129269047Y-103604819D01*
X129269047Y-103604819D02*
X129078571Y-103604819D01*
X129078571Y-103604819D02*
X128983333Y-103652438D01*
X128983333Y-103652438D02*
X128935714Y-103700057D01*
X128935714Y-103700057D02*
X128888095Y-103795295D01*
X128888095Y-103795295D02*
X128888095Y-103842914D01*
X128888095Y-103842914D02*
X128935714Y-103938152D01*
X128935714Y-103938152D02*
X128983333Y-103985771D01*
X128983333Y-103985771D02*
X129078571Y-104033390D01*
X129078571Y-104033390D02*
X129269047Y-104033390D01*
X129269047Y-104033390D02*
X129364285Y-104081009D01*
X129364285Y-104081009D02*
X129411904Y-104128628D01*
X129411904Y-104128628D02*
X129459523Y-104223866D01*
X129459523Y-104223866D02*
X129459523Y-104414342D01*
X129459523Y-104414342D02*
X129411904Y-104509580D01*
X129411904Y-104509580D02*
X129364285Y-104557200D01*
X129364285Y-104557200D02*
X129269047Y-104604819D01*
X129269047Y-104604819D02*
X129078571Y-104604819D01*
X129078571Y-104604819D02*
X128983333Y-104557200D01*
X128983333Y-104557200D02*
X128935714Y-104509580D01*
X128935714Y-104509580D02*
X128888095Y-104414342D01*
X128888095Y-104414342D02*
X128888095Y-104223866D01*
X128888095Y-104223866D02*
X128935714Y-104128628D01*
X128935714Y-104128628D02*
X128983333Y-104081009D01*
X128983333Y-104081009D02*
X129078571Y-104033390D01*
X81328666Y-70924819D02*
X81661999Y-70448628D01*
X81900094Y-70924819D02*
X81900094Y-69924819D01*
X81900094Y-69924819D02*
X81519142Y-69924819D01*
X81519142Y-69924819D02*
X81423904Y-69972438D01*
X81423904Y-69972438D02*
X81376285Y-70020057D01*
X81376285Y-70020057D02*
X81328666Y-70115295D01*
X81328666Y-70115295D02*
X81328666Y-70258152D01*
X81328666Y-70258152D02*
X81376285Y-70353390D01*
X81376285Y-70353390D02*
X81423904Y-70401009D01*
X81423904Y-70401009D02*
X81519142Y-70448628D01*
X81519142Y-70448628D02*
X81900094Y-70448628D01*
X80947713Y-70020057D02*
X80900094Y-69972438D01*
X80900094Y-69972438D02*
X80804856Y-69924819D01*
X80804856Y-69924819D02*
X80566761Y-69924819D01*
X80566761Y-69924819D02*
X80471523Y-69972438D01*
X80471523Y-69972438D02*
X80423904Y-70020057D01*
X80423904Y-70020057D02*
X80376285Y-70115295D01*
X80376285Y-70115295D02*
X80376285Y-70210533D01*
X80376285Y-70210533D02*
X80423904Y-70353390D01*
X80423904Y-70353390D02*
X80995332Y-70924819D01*
X80995332Y-70924819D02*
X80376285Y-70924819D01*
D12*
X85120952Y-106895270D02*
X85241904Y-106834794D01*
X85241904Y-106834794D02*
X85362857Y-106713842D01*
X85362857Y-106713842D02*
X85544285Y-106532413D01*
X85544285Y-106532413D02*
X85665238Y-106471937D01*
X85665238Y-106471937D02*
X85786190Y-106471937D01*
X85725714Y-106774318D02*
X85846666Y-106713842D01*
X85846666Y-106713842D02*
X85967619Y-106592889D01*
X85967619Y-106592889D02*
X86028095Y-106350984D01*
X86028095Y-106350984D02*
X86028095Y-105927651D01*
X86028095Y-105927651D02*
X85967619Y-105685746D01*
X85967619Y-105685746D02*
X85846666Y-105564794D01*
X85846666Y-105564794D02*
X85725714Y-105504318D01*
X85725714Y-105504318D02*
X85483809Y-105504318D01*
X85483809Y-105504318D02*
X85362857Y-105564794D01*
X85362857Y-105564794D02*
X85241904Y-105685746D01*
X85241904Y-105685746D02*
X85181428Y-105927651D01*
X85181428Y-105927651D02*
X85181428Y-106350984D01*
X85181428Y-106350984D02*
X85241904Y-106592889D01*
X85241904Y-106592889D02*
X85362857Y-106713842D01*
X85362857Y-106713842D02*
X85483809Y-106774318D01*
X85483809Y-106774318D02*
X85725714Y-106774318D01*
X84092857Y-105504318D02*
X84334762Y-105504318D01*
X84334762Y-105504318D02*
X84455714Y-105564794D01*
X84455714Y-105564794D02*
X84516190Y-105625270D01*
X84516190Y-105625270D02*
X84637143Y-105806699D01*
X84637143Y-105806699D02*
X84697619Y-106048603D01*
X84697619Y-106048603D02*
X84697619Y-106532413D01*
X84697619Y-106532413D02*
X84637143Y-106653365D01*
X84637143Y-106653365D02*
X84576666Y-106713842D01*
X84576666Y-106713842D02*
X84455714Y-106774318D01*
X84455714Y-106774318D02*
X84213809Y-106774318D01*
X84213809Y-106774318D02*
X84092857Y-106713842D01*
X84092857Y-106713842D02*
X84032381Y-106653365D01*
X84032381Y-106653365D02*
X83971904Y-106532413D01*
X83971904Y-106532413D02*
X83971904Y-106230032D01*
X83971904Y-106230032D02*
X84032381Y-106109080D01*
X84032381Y-106109080D02*
X84092857Y-106048603D01*
X84092857Y-106048603D02*
X84213809Y-105988127D01*
X84213809Y-105988127D02*
X84455714Y-105988127D01*
X84455714Y-105988127D02*
X84576666Y-106048603D01*
X84576666Y-106048603D02*
X84637143Y-106109080D01*
X84637143Y-106109080D02*
X84697619Y-106230032D01*
X85320952Y-62333270D02*
X85441904Y-62272794D01*
X85441904Y-62272794D02*
X85562857Y-62151842D01*
X85562857Y-62151842D02*
X85744285Y-61970413D01*
X85744285Y-61970413D02*
X85865238Y-61909937D01*
X85865238Y-61909937D02*
X85986190Y-61909937D01*
X85925714Y-62212318D02*
X86046666Y-62151842D01*
X86046666Y-62151842D02*
X86167619Y-62030889D01*
X86167619Y-62030889D02*
X86228095Y-61788984D01*
X86228095Y-61788984D02*
X86228095Y-61365651D01*
X86228095Y-61365651D02*
X86167619Y-61123746D01*
X86167619Y-61123746D02*
X86046666Y-61002794D01*
X86046666Y-61002794D02*
X85925714Y-60942318D01*
X85925714Y-60942318D02*
X85683809Y-60942318D01*
X85683809Y-60942318D02*
X85562857Y-61002794D01*
X85562857Y-61002794D02*
X85441904Y-61123746D01*
X85441904Y-61123746D02*
X85381428Y-61365651D01*
X85381428Y-61365651D02*
X85381428Y-61788984D01*
X85381428Y-61788984D02*
X85441904Y-62030889D01*
X85441904Y-62030889D02*
X85562857Y-62151842D01*
X85562857Y-62151842D02*
X85683809Y-62212318D01*
X85683809Y-62212318D02*
X85925714Y-62212318D01*
X84171904Y-62212318D02*
X84897619Y-62212318D01*
X84534762Y-62212318D02*
X84534762Y-60942318D01*
X84534762Y-60942318D02*
X84655714Y-61123746D01*
X84655714Y-61123746D02*
X84776666Y-61244699D01*
X84776666Y-61244699D02*
X84897619Y-61305175D01*
D11*
X132559580Y-61783333D02*
X132607200Y-61735714D01*
X132607200Y-61735714D02*
X132654819Y-61592857D01*
X132654819Y-61592857D02*
X132654819Y-61497619D01*
X132654819Y-61497619D02*
X132607200Y-61354762D01*
X132607200Y-61354762D02*
X132511961Y-61259524D01*
X132511961Y-61259524D02*
X132416723Y-61211905D01*
X132416723Y-61211905D02*
X132226247Y-61164286D01*
X132226247Y-61164286D02*
X132083390Y-61164286D01*
X132083390Y-61164286D02*
X131892914Y-61211905D01*
X131892914Y-61211905D02*
X131797676Y-61259524D01*
X131797676Y-61259524D02*
X131702438Y-61354762D01*
X131702438Y-61354762D02*
X131654819Y-61497619D01*
X131654819Y-61497619D02*
X131654819Y-61592857D01*
X131654819Y-61592857D02*
X131702438Y-61735714D01*
X131702438Y-61735714D02*
X131750057Y-61783333D01*
X131988152Y-62640476D02*
X132654819Y-62640476D01*
X131607200Y-62402381D02*
X132321485Y-62164286D01*
X132321485Y-62164286D02*
X132321485Y-62783333D01*
D12*
X128667619Y-67004318D02*
X128667619Y-68032413D01*
X128667619Y-68032413D02*
X128607142Y-68153365D01*
X128607142Y-68153365D02*
X128546666Y-68213842D01*
X128546666Y-68213842D02*
X128425714Y-68274318D01*
X128425714Y-68274318D02*
X128183809Y-68274318D01*
X128183809Y-68274318D02*
X128062857Y-68213842D01*
X128062857Y-68213842D02*
X128002380Y-68153365D01*
X128002380Y-68153365D02*
X127941904Y-68032413D01*
X127941904Y-68032413D02*
X127941904Y-67004318D01*
X126671904Y-68274318D02*
X127397619Y-68274318D01*
X127034762Y-68274318D02*
X127034762Y-67004318D01*
X127034762Y-67004318D02*
X127155714Y-67185746D01*
X127155714Y-67185746D02*
X127276666Y-67306699D01*
X127276666Y-67306699D02*
X127397619Y-67367175D01*
D11*
X88988857Y-125324819D02*
X89322190Y-124848628D01*
X89560285Y-125324819D02*
X89560285Y-124324819D01*
X89560285Y-124324819D02*
X89179333Y-124324819D01*
X89179333Y-124324819D02*
X89084095Y-124372438D01*
X89084095Y-124372438D02*
X89036476Y-124420057D01*
X89036476Y-124420057D02*
X88988857Y-124515295D01*
X88988857Y-124515295D02*
X88988857Y-124658152D01*
X88988857Y-124658152D02*
X89036476Y-124753390D01*
X89036476Y-124753390D02*
X89084095Y-124801009D01*
X89084095Y-124801009D02*
X89179333Y-124848628D01*
X89179333Y-124848628D02*
X89560285Y-124848628D01*
X88036476Y-125324819D02*
X88607904Y-125324819D01*
X88322190Y-125324819D02*
X88322190Y-124324819D01*
X88322190Y-124324819D02*
X88417428Y-124467676D01*
X88417428Y-124467676D02*
X88512666Y-124562914D01*
X88512666Y-124562914D02*
X88607904Y-124610533D01*
X87655523Y-124420057D02*
X87607904Y-124372438D01*
X87607904Y-124372438D02*
X87512666Y-124324819D01*
X87512666Y-124324819D02*
X87274571Y-124324819D01*
X87274571Y-124324819D02*
X87179333Y-124372438D01*
X87179333Y-124372438D02*
X87131714Y-124420057D01*
X87131714Y-124420057D02*
X87084095Y-124515295D01*
X87084095Y-124515295D02*
X87084095Y-124610533D01*
X87084095Y-124610533D02*
X87131714Y-124753390D01*
X87131714Y-124753390D02*
X87703142Y-125324819D01*
X87703142Y-125324819D02*
X87084095Y-125324819D01*
X90006857Y-109524819D02*
X90340190Y-109048628D01*
X90578285Y-109524819D02*
X90578285Y-108524819D01*
X90578285Y-108524819D02*
X90197333Y-108524819D01*
X90197333Y-108524819D02*
X90102095Y-108572438D01*
X90102095Y-108572438D02*
X90054476Y-108620057D01*
X90054476Y-108620057D02*
X90006857Y-108715295D01*
X90006857Y-108715295D02*
X90006857Y-108858152D01*
X90006857Y-108858152D02*
X90054476Y-108953390D01*
X90054476Y-108953390D02*
X90102095Y-109001009D01*
X90102095Y-109001009D02*
X90197333Y-109048628D01*
X90197333Y-109048628D02*
X90578285Y-109048628D01*
X89054476Y-109524819D02*
X89625904Y-109524819D01*
X89340190Y-109524819D02*
X89340190Y-108524819D01*
X89340190Y-108524819D02*
X89435428Y-108667676D01*
X89435428Y-108667676D02*
X89530666Y-108762914D01*
X89530666Y-108762914D02*
X89625904Y-108810533D01*
X88197333Y-108858152D02*
X88197333Y-109524819D01*
X88435428Y-108477200D02*
X88673523Y-109191485D01*
X88673523Y-109191485D02*
X88054476Y-109191485D01*
D12*
X85320952Y-128495270D02*
X85441904Y-128434794D01*
X85441904Y-128434794D02*
X85562857Y-128313842D01*
X85562857Y-128313842D02*
X85744285Y-128132413D01*
X85744285Y-128132413D02*
X85865238Y-128071937D01*
X85865238Y-128071937D02*
X85986190Y-128071937D01*
X85925714Y-128374318D02*
X86046666Y-128313842D01*
X86046666Y-128313842D02*
X86167619Y-128192889D01*
X86167619Y-128192889D02*
X86228095Y-127950984D01*
X86228095Y-127950984D02*
X86228095Y-127527651D01*
X86228095Y-127527651D02*
X86167619Y-127285746D01*
X86167619Y-127285746D02*
X86046666Y-127164794D01*
X86046666Y-127164794D02*
X85925714Y-127104318D01*
X85925714Y-127104318D02*
X85683809Y-127104318D01*
X85683809Y-127104318D02*
X85562857Y-127164794D01*
X85562857Y-127164794D02*
X85441904Y-127285746D01*
X85441904Y-127285746D02*
X85381428Y-127527651D01*
X85381428Y-127527651D02*
X85381428Y-127950984D01*
X85381428Y-127950984D02*
X85441904Y-128192889D01*
X85441904Y-128192889D02*
X85562857Y-128313842D01*
X85562857Y-128313842D02*
X85683809Y-128374318D01*
X85683809Y-128374318D02*
X85925714Y-128374318D01*
X84232381Y-127104318D02*
X84837143Y-127104318D01*
X84837143Y-127104318D02*
X84897619Y-127709080D01*
X84897619Y-127709080D02*
X84837143Y-127648603D01*
X84837143Y-127648603D02*
X84716190Y-127588127D01*
X84716190Y-127588127D02*
X84413809Y-127588127D01*
X84413809Y-127588127D02*
X84292857Y-127648603D01*
X84292857Y-127648603D02*
X84232381Y-127709080D01*
X84232381Y-127709080D02*
X84171904Y-127830032D01*
X84171904Y-127830032D02*
X84171904Y-128132413D01*
X84171904Y-128132413D02*
X84232381Y-128253365D01*
X84232381Y-128253365D02*
X84292857Y-128313842D01*
X84292857Y-128313842D02*
X84413809Y-128374318D01*
X84413809Y-128374318D02*
X84716190Y-128374318D01*
X84716190Y-128374318D02*
X84837143Y-128313842D01*
X84837143Y-128313842D02*
X84897619Y-128253365D01*
X134839762Y-99074318D02*
X134839762Y-97804318D01*
X133509285Y-98953365D02*
X133569761Y-99013842D01*
X133569761Y-99013842D02*
X133751190Y-99074318D01*
X133751190Y-99074318D02*
X133872142Y-99074318D01*
X133872142Y-99074318D02*
X134053571Y-99013842D01*
X134053571Y-99013842D02*
X134174523Y-98892889D01*
X134174523Y-98892889D02*
X134235000Y-98771937D01*
X134235000Y-98771937D02*
X134295476Y-98530032D01*
X134295476Y-98530032D02*
X134295476Y-98348603D01*
X134295476Y-98348603D02*
X134235000Y-98106699D01*
X134235000Y-98106699D02*
X134174523Y-97985746D01*
X134174523Y-97985746D02*
X134053571Y-97864794D01*
X134053571Y-97864794D02*
X133872142Y-97804318D01*
X133872142Y-97804318D02*
X133751190Y-97804318D01*
X133751190Y-97804318D02*
X133569761Y-97864794D01*
X133569761Y-97864794D02*
X133509285Y-97925270D01*
X132360238Y-97804318D02*
X132965000Y-97804318D01*
X132965000Y-97804318D02*
X133025476Y-98409080D01*
X133025476Y-98409080D02*
X132965000Y-98348603D01*
X132965000Y-98348603D02*
X132844047Y-98288127D01*
X132844047Y-98288127D02*
X132541666Y-98288127D01*
X132541666Y-98288127D02*
X132420714Y-98348603D01*
X132420714Y-98348603D02*
X132360238Y-98409080D01*
X132360238Y-98409080D02*
X132299761Y-98530032D01*
X132299761Y-98530032D02*
X132299761Y-98832413D01*
X132299761Y-98832413D02*
X132360238Y-98953365D01*
X132360238Y-98953365D02*
X132420714Y-99013842D01*
X132420714Y-99013842D02*
X132541666Y-99074318D01*
X132541666Y-99074318D02*
X132844047Y-99074318D01*
X132844047Y-99074318D02*
X132965000Y-99013842D01*
X132965000Y-99013842D02*
X133025476Y-98953365D01*
D13*
%TO.C,C3*%
X121084000Y-56430000D02*
X123684000Y-56430002D01*
X123684000Y-54830000D02*
X121084000Y-54829998D01*
X121084000Y-56430000D02*
G75*
G02*
X121084000Y-54829998I840224J800001D01*
G01*
X123684000Y-54830000D02*
G75*
G02*
X123684000Y-56430002I-840224J-800001D01*
G01*
D14*
%TO.C,L1*%
X93600000Y-121700000D02*
X105600000Y-121700000D01*
X105600000Y-109700000D02*
X93600000Y-109700000D01*
D13*
%TO.C,C12*%
X101900000Y-93400000D02*
X101899998Y-96000000D01*
X103500000Y-96000000D02*
X103500002Y-93400000D01*
X101900000Y-93400000D02*
G75*
G02*
X103500002Y-93400000I800001J-840224D01*
G01*
X103500000Y-96000000D02*
G75*
G02*
X101899998Y-96000000I-800001J840224D01*
G01*
%TO.C,R24*%
X92267000Y-103800000D02*
X93283000Y-103800000D01*
X93283000Y-107483000D02*
X93283000Y-100117000D01*
X94426000Y-99101000D02*
X93283000Y-100117000D01*
X94426000Y-108499000D02*
X93283000Y-107483000D01*
X96204000Y-103800000D02*
X93283000Y-103800000D01*
X96204000Y-103800000D02*
X97220000Y-105832000D01*
X97220000Y-105832000D02*
X99252000Y-101768000D01*
X97601000Y-99101000D02*
X94426000Y-99101000D01*
X97601000Y-108499000D02*
X94426000Y-108499000D01*
X97982000Y-99482000D02*
X97601000Y-99101000D01*
X97982000Y-108118000D02*
X97601000Y-108499000D01*
X99252000Y-101768000D02*
X101284000Y-105832000D01*
X101284000Y-105832000D02*
X103316000Y-101768000D01*
X102300000Y-99482000D02*
X97982000Y-99482000D01*
X102300000Y-99482000D02*
X106618000Y-99482000D01*
X102300000Y-108118000D02*
X97982000Y-108118000D01*
X102300000Y-108118000D02*
X106618000Y-108118000D01*
X103316000Y-101768000D02*
X105348000Y-105832000D01*
X105348000Y-105832000D02*
X107380000Y-101768000D01*
X106618000Y-99482000D02*
X106999000Y-99101000D01*
X106618000Y-108118000D02*
X106999000Y-108499000D01*
X106999000Y-99101000D02*
X110174000Y-99101000D01*
X106999000Y-108499000D02*
X110174000Y-108499000D01*
X107380000Y-101768000D02*
X108396000Y-103800000D01*
X108396000Y-103800000D02*
X111317000Y-103800000D01*
X110174000Y-99101000D02*
X111317000Y-100117000D01*
X110174000Y-108499000D02*
X111317000Y-107483000D01*
X111317000Y-107483000D02*
X111317000Y-100117000D01*
X112333000Y-103800000D02*
X111317000Y-103800000D01*
%TO.C,R23*%
X117900000Y-114840000D02*
X117900000Y-116740000D01*
X117900000Y-116740000D02*
X118900000Y-116740000D01*
X118900000Y-114840000D02*
X117900000Y-114840000D01*
X118900000Y-116740000D02*
X118900000Y-114840000D01*
%TO.C,J10*%
X142670000Y-107130000D02*
X142670000Y-109730000D01*
X142670000Y-112330000D02*
X142670000Y-111000000D01*
X144000000Y-112330000D02*
X142670000Y-112330000D01*
X145330000Y-107130000D02*
X142670000Y-107130000D01*
X145330000Y-107130000D02*
X145330000Y-109730000D01*
X145330000Y-109730000D02*
X142670000Y-109730000D01*
%TO.C,C9*%
X129725000Y-118700000D02*
X132325000Y-118700002D01*
X132325000Y-117100000D02*
X129725000Y-117099998D01*
X129725000Y-118700000D02*
G75*
G02*
X129725000Y-117099998I840224J800001D01*
G01*
X132325000Y-117100000D02*
G75*
G02*
X132325000Y-118700002I-840224J-800001D01*
G01*
%TO.C,C24*%
X90425000Y-71700000D02*
X93025000Y-71700002D01*
X93025000Y-70100000D02*
X90425000Y-70099998D01*
X90425000Y-71700000D02*
G75*
G02*
X90425000Y-70099998I840224J800001D01*
G01*
X93025000Y-70100000D02*
G75*
G02*
X93025000Y-71700002I-840224J-800001D01*
G01*
%TO.C,C16*%
X113400000Y-112000000D02*
X117600000Y-112000000D01*
X117600000Y-109600000D02*
X113400000Y-109600000D01*
X113400000Y-112000000D02*
G75*
G02*
X113400000Y-109600000I1408120J1200000D01*
G01*
X117600000Y-109600000D02*
G75*
G02*
X117600000Y-112000000I-1474352J-1200000D01*
G01*
%TO.C,R20*%
X127360000Y-111400000D02*
X127360000Y-112400000D01*
X127360000Y-112400000D02*
X129260000Y-112400000D01*
X129260000Y-111400000D02*
X127360000Y-111400000D01*
X129260000Y-112400000D02*
X129260000Y-111400000D01*
%TO.C,R29*%
X129200000Y-100050000D02*
X129200000Y-101050000D01*
X129200000Y-101050000D02*
X131100000Y-101050000D01*
X131100000Y-100050000D02*
X129200000Y-100050000D01*
X131100000Y-101050000D02*
X131100000Y-100050000D01*
%TO.C,C5*%
X126970000Y-56394000D02*
X129570000Y-56394002D01*
X129570000Y-54794000D02*
X126970000Y-54793998D01*
X126970000Y-56394000D02*
G75*
G02*
X126970000Y-54793998I840224J800001D01*
G01*
X129570000Y-54794000D02*
G75*
G02*
X129570000Y-56394002I-840224J-800001D01*
G01*
%TO.C,R13*%
X80140000Y-124300000D02*
X80140000Y-125300000D01*
X80140000Y-125300000D02*
X82040000Y-125300000D01*
X82040000Y-124300000D02*
X80140000Y-124300000D01*
X82040000Y-125300000D02*
X82040000Y-124300000D01*
%TO.C,R18*%
X131650000Y-111400000D02*
X131650000Y-112400000D01*
X131650000Y-112400000D02*
X133550000Y-112400000D01*
X133550000Y-111400000D02*
X131650000Y-111400000D01*
X133550000Y-112400000D02*
X133550000Y-111400000D01*
%TO.C,J5*%
X102217293Y-47688038D02*
X103547293Y-47688038D01*
X102217293Y-49018038D02*
X102217293Y-47688038D01*
X104817293Y-50348038D02*
X104817293Y-47688038D01*
X107417293Y-47688038D02*
X104817293Y-47688038D01*
X107417293Y-50348038D02*
X104817293Y-50348038D01*
X107417293Y-50348038D02*
X107417293Y-47688038D01*
D15*
%TO.C,Q4*%
X84925000Y-96540000D02*
X85275000Y-96540000D01*
X84925000Y-99460000D02*
X84925000Y-96540000D01*
X85275000Y-96540000D02*
X85275000Y-99460000D01*
X85275000Y-99460000D02*
X84925000Y-99460000D01*
X85625000Y-96500000D02*
X86775000Y-96500000D01*
D13*
%TO.C,C10*%
X93142000Y-92510738D02*
X93141998Y-95110738D01*
X94742000Y-95110738D02*
X94742002Y-92510738D01*
X93142000Y-92510738D02*
G75*
G02*
X94742002Y-92510738I800001J-840224D01*
G01*
X94742000Y-95110738D02*
G75*
G02*
X93141998Y-95110738I-800001J840224D01*
G01*
D12*
%TO.C,IC2*%
X100650000Y-94975000D02*
G75*
G02*
X100150000Y-94975000I-250000J0D01*
G01*
X100150000Y-94975000D02*
G75*
G02*
X100650000Y-94975000I250000J0D01*
G01*
D13*
%TO.C,U2*%
X121585000Y-114595000D02*
X125285000Y-114595000D01*
X121585000Y-118395000D02*
X121585000Y-114595000D01*
X125785000Y-115095000D02*
X125785000Y-118395000D01*
X125785000Y-118395000D02*
X121585000Y-118395000D01*
D15*
X125648500Y-114795000D02*
G75*
G02*
X125521500Y-114795000I-63500J0D01*
G01*
X125521500Y-114795000D02*
G75*
G02*
X125648500Y-114795000I63500J0D01*
G01*
D13*
%TO.C,J6*%
X118750000Y-70970000D02*
X118750000Y-76170000D01*
X118750000Y-70970000D02*
X128970000Y-70970000D01*
X118750000Y-76170000D02*
X131570000Y-76170000D01*
X128970000Y-70970000D02*
X128970000Y-73570000D01*
X128970000Y-73570000D02*
X131570000Y-73570000D01*
X130240000Y-70970000D02*
X131570000Y-70970000D01*
X131570000Y-70970000D02*
X131570000Y-72300000D01*
X131570000Y-73570000D02*
X131570000Y-76170000D01*
%TO.C,R5*%
X87250000Y-87100000D02*
X87250000Y-88100000D01*
X87250000Y-88100000D02*
X89150000Y-88100000D01*
X89150000Y-87100000D02*
X87250000Y-87100000D01*
X89150000Y-88100000D02*
X89150000Y-87100000D01*
D16*
%TO.C,Symbol1*%
G36*
X118265644Y-90075043D02*
G01*
X118302624Y-90198067D01*
X118332208Y-90323499D01*
X118354339Y-90451216D01*
X118357996Y-90477194D01*
X118362276Y-90509243D01*
X118365727Y-90538002D01*
X118368434Y-90564857D01*
X118370486Y-90591196D01*
X118371970Y-90618407D01*
X118372972Y-90647879D01*
X118373580Y-90680999D01*
X118373881Y-90719155D01*
X118373962Y-90763735D01*
X118373921Y-90796636D01*
X118373690Y-90836437D01*
X118373177Y-90870817D01*
X118372293Y-90901163D01*
X118370952Y-90928863D01*
X118369066Y-90955306D01*
X118366550Y-90981878D01*
X118363314Y-91009968D01*
X118359273Y-91040965D01*
X118354339Y-91076255D01*
X118348349Y-91115639D01*
X118323935Y-91242557D01*
X118292076Y-91367198D01*
X118277474Y-91412679D01*
X118252835Y-91489422D01*
X118206273Y-91609090D01*
X118152454Y-91726063D01*
X118091441Y-91840201D01*
X118023295Y-91951365D01*
X117948080Y-92059415D01*
X117865858Y-92164212D01*
X117852987Y-92179266D01*
X117830037Y-92204803D01*
X117803160Y-92233556D01*
X117773492Y-92264390D01*
X117742168Y-92296170D01*
X117710326Y-92327759D01*
X117679100Y-92358023D01*
X117649625Y-92385826D01*
X117623039Y-92410033D01*
X117600476Y-92429508D01*
X117547584Y-92472106D01*
X117441142Y-92550537D01*
X117331362Y-92622066D01*
X117218455Y-92686605D01*
X117102634Y-92744069D01*
X116984113Y-92794371D01*
X116863103Y-92837423D01*
X116739817Y-92873141D01*
X116614467Y-92901436D01*
X116487267Y-92922222D01*
X116358429Y-92935414D01*
X116345654Y-92936198D01*
X116318371Y-92937324D01*
X116285893Y-92938157D01*
X116249845Y-92938697D01*
X116211852Y-92938940D01*
X116173539Y-92938888D01*
X116136532Y-92938537D01*
X116102457Y-92937886D01*
X116072937Y-92936934D01*
X116049600Y-92935680D01*
X115982022Y-92929846D01*
X115852226Y-92912822D01*
X115724692Y-92888340D01*
X115599534Y-92856445D01*
X115476866Y-92817184D01*
X115356802Y-92770603D01*
X115239455Y-92716747D01*
X115124940Y-92655664D01*
X115013370Y-92587399D01*
X114904860Y-92511998D01*
X114799523Y-92429508D01*
X114784551Y-92416728D01*
X114759109Y-92393888D01*
X114730421Y-92367095D01*
X114699624Y-92337483D01*
X114667853Y-92306188D01*
X114636244Y-92274346D01*
X114605932Y-92243092D01*
X114578054Y-92213562D01*
X114553745Y-92186890D01*
X114534141Y-92164212D01*
X114508167Y-92132405D01*
X114428089Y-92026595D01*
X114355036Y-91917575D01*
X114289073Y-91805483D01*
X114230261Y-91690461D01*
X114178662Y-91572646D01*
X114134341Y-91452179D01*
X114131133Y-91441511D01*
X114906050Y-91441511D01*
X114906055Y-91443107D01*
X114907096Y-91464016D01*
X114910434Y-91482732D01*
X114916751Y-91501298D01*
X114926732Y-91521757D01*
X114941059Y-91546151D01*
X114970126Y-91590221D01*
X115008678Y-91642475D01*
X115051750Y-91695475D01*
X115098033Y-91747749D01*
X115146217Y-91797823D01*
X115194991Y-91844227D01*
X115243045Y-91885488D01*
X115294570Y-91925425D01*
X115384514Y-91987456D01*
X115477748Y-92042422D01*
X115574133Y-92090266D01*
X115673529Y-92130935D01*
X115775796Y-92164374D01*
X115880795Y-92190528D01*
X115988386Y-92209342D01*
X116098431Y-92220762D01*
X116098713Y-92220781D01*
X116132378Y-92222593D01*
X116168549Y-92223662D01*
X116204657Y-92223966D01*
X116238134Y-92223483D01*
X116266410Y-92222191D01*
X116274473Y-92221623D01*
X116372774Y-92212084D01*
X116465924Y-92197916D01*
X116555198Y-92178808D01*
X116641871Y-92154448D01*
X116727220Y-92124525D01*
X116812520Y-92088726D01*
X116884294Y-92053806D01*
X116975987Y-92001809D01*
X117063525Y-91943554D01*
X117146504Y-91879383D01*
X117224516Y-91809641D01*
X117297157Y-91734671D01*
X117364018Y-91654818D01*
X117424696Y-91570426D01*
X117441849Y-91544114D01*
X117459661Y-91515070D01*
X117473191Y-91490246D01*
X117482818Y-91468619D01*
X117488917Y-91449164D01*
X117491867Y-91430858D01*
X117492044Y-91412679D01*
X117489825Y-91393602D01*
X117487816Y-91383405D01*
X117476692Y-91350724D01*
X117459674Y-91321984D01*
X117437639Y-91297738D01*
X117411463Y-91278539D01*
X117382025Y-91264938D01*
X117350201Y-91257488D01*
X117316869Y-91256742D01*
X117282905Y-91263253D01*
X117257278Y-91273217D01*
X117231710Y-91289234D01*
X117209137Y-91311075D01*
X117188342Y-91339723D01*
X117184191Y-91346290D01*
X117163684Y-91377563D01*
X117141518Y-91409732D01*
X117119073Y-91440874D01*
X117097726Y-91469067D01*
X117078858Y-91492387D01*
X117064083Y-91509114D01*
X117041305Y-91533279D01*
X117015544Y-91559257D01*
X116988410Y-91585498D01*
X116961516Y-91610449D01*
X116936471Y-91632559D01*
X116914887Y-91650278D01*
X116860798Y-91689895D01*
X116780238Y-91740829D01*
X116696064Y-91785043D01*
X116608782Y-91822305D01*
X116518896Y-91852383D01*
X116426909Y-91875046D01*
X116400415Y-91880099D01*
X116310510Y-91892508D01*
X116219399Y-91898040D01*
X116128139Y-91896738D01*
X116037789Y-91888645D01*
X115949404Y-91873802D01*
X115864042Y-91852254D01*
X115812508Y-91835758D01*
X115721914Y-91800801D01*
X115636106Y-91759681D01*
X115555109Y-91712415D01*
X115478948Y-91659021D01*
X115407647Y-91599519D01*
X115341231Y-91533925D01*
X115279726Y-91462259D01*
X115223156Y-91384538D01*
X115220950Y-91381253D01*
X115204327Y-91357295D01*
X115190145Y-91338812D01*
X115177189Y-91324594D01*
X115164244Y-91313436D01*
X115150095Y-91304129D01*
X115133528Y-91295467D01*
X115124360Y-91291146D01*
X115111477Y-91285863D01*
X115100019Y-91282920D01*
X115086909Y-91281644D01*
X115069071Y-91281362D01*
X115050808Y-91281829D01*
X115030768Y-91284171D01*
X115014380Y-91288764D01*
X114990115Y-91300000D01*
X114961154Y-91320135D01*
X114937774Y-91345048D01*
X114920468Y-91374046D01*
X114909729Y-91406432D01*
X114906050Y-91441511D01*
X114131133Y-91441511D01*
X114097358Y-91329198D01*
X114067777Y-91203843D01*
X114045660Y-91076255D01*
X114042004Y-91050277D01*
X114037723Y-91018227D01*
X114034273Y-90989469D01*
X114031565Y-90962614D01*
X114029513Y-90936275D01*
X114028030Y-90909063D01*
X114027028Y-90879591D01*
X114026420Y-90846471D01*
X114026119Y-90808315D01*
X114026038Y-90763735D01*
X114026078Y-90730834D01*
X114026309Y-90691033D01*
X114026823Y-90656654D01*
X114027707Y-90626308D01*
X114029048Y-90598607D01*
X114030933Y-90572165D01*
X114033450Y-90545593D01*
X114036685Y-90517502D01*
X114040726Y-90486506D01*
X114045660Y-90451216D01*
X114052293Y-90407861D01*
X114076946Y-90280902D01*
X114109033Y-90156269D01*
X114148497Y-90034086D01*
X114154759Y-90018077D01*
X115060946Y-90018077D01*
X115061645Y-90055309D01*
X115063110Y-90090101D01*
X115065342Y-90120707D01*
X115068340Y-90145380D01*
X115076038Y-90187900D01*
X115093461Y-90259876D01*
X115115555Y-90327212D01*
X115142114Y-90389455D01*
X115172934Y-90446151D01*
X115207811Y-90496845D01*
X115246541Y-90541085D01*
X115251609Y-90546130D01*
X115284637Y-90575926D01*
X115317595Y-90599782D01*
X115352497Y-90619002D01*
X115391356Y-90634892D01*
X115403397Y-90638427D01*
X115429375Y-90643080D01*
X115458847Y-90645535D01*
X115489229Y-90645720D01*
X115517933Y-90643566D01*
X115542373Y-90639003D01*
X115550211Y-90636771D01*
X115595450Y-90619223D01*
X115638463Y-90594554D01*
X115678999Y-90563147D01*
X115716809Y-90525383D01*
X115751642Y-90481647D01*
X115783248Y-90432321D01*
X115811378Y-90377789D01*
X115835782Y-90318433D01*
X115856209Y-90254638D01*
X115872409Y-90186785D01*
X115884133Y-90115258D01*
X115887415Y-90080681D01*
X115889203Y-90035518D01*
X115888938Y-89987646D01*
X116508265Y-89987646D01*
X116508483Y-90025761D01*
X116508776Y-90035518D01*
X116509599Y-90062864D01*
X116511591Y-90096702D01*
X116514441Y-90125024D01*
X116516427Y-90139298D01*
X116529117Y-90208608D01*
X116546241Y-90274358D01*
X116567528Y-90336144D01*
X116592709Y-90393559D01*
X116621515Y-90446197D01*
X116653677Y-90493653D01*
X116688927Y-90535522D01*
X116726993Y-90571396D01*
X116767609Y-90600872D01*
X116810503Y-90623542D01*
X116855408Y-90639002D01*
X116859861Y-90640077D01*
X116891696Y-90644977D01*
X116926583Y-90646370D01*
X116961174Y-90644265D01*
X116992121Y-90638669D01*
X117018883Y-90629912D01*
X117056746Y-90612175D01*
X117094303Y-90588802D01*
X117129953Y-90560824D01*
X117162092Y-90529272D01*
X117173954Y-90515614D01*
X117207575Y-90470594D01*
X117238423Y-90419758D01*
X117265820Y-90364430D01*
X117289087Y-90305935D01*
X117307544Y-90245595D01*
X117311406Y-90230479D01*
X117318671Y-90199640D01*
X117324309Y-90171095D01*
X117328508Y-90143163D01*
X117331459Y-90114162D01*
X117333348Y-90082410D01*
X117334366Y-90046224D01*
X117334702Y-90003923D01*
X117334706Y-89999842D01*
X117334516Y-89960681D01*
X117333779Y-89927509D01*
X117332308Y-89898668D01*
X117329918Y-89872500D01*
X117326420Y-89847346D01*
X117321629Y-89821548D01*
X117315359Y-89793446D01*
X117307422Y-89761383D01*
X117304056Y-89748616D01*
X117284483Y-89686534D01*
X117260853Y-89628695D01*
X117233504Y-89575452D01*
X117202776Y-89527159D01*
X117169005Y-89484170D01*
X117132532Y-89446840D01*
X117093695Y-89415522D01*
X117052831Y-89390572D01*
X117010280Y-89372343D01*
X116966379Y-89361190D01*
X116921468Y-89357467D01*
X116906241Y-89357946D01*
X116861936Y-89364413D01*
X116818888Y-89378127D01*
X116777391Y-89398701D01*
X116737740Y-89425746D01*
X116700227Y-89458877D01*
X116665148Y-89497705D01*
X116632795Y-89541842D01*
X116603463Y-89590903D01*
X116577445Y-89644500D01*
X116555037Y-89702244D01*
X116536531Y-89763750D01*
X116522221Y-89828629D01*
X116512402Y-89896494D01*
X116510601Y-89917387D01*
X116508964Y-89950771D01*
X116508265Y-89987646D01*
X115888938Y-89987646D01*
X115888934Y-89986889D01*
X115886707Y-89936947D01*
X115882625Y-89887846D01*
X115876790Y-89841741D01*
X115869302Y-89800785D01*
X115865871Y-89785771D01*
X115847598Y-89719914D01*
X115825125Y-89658156D01*
X115798756Y-89600937D01*
X115768795Y-89548695D01*
X115735548Y-89501869D01*
X115699318Y-89460898D01*
X115660410Y-89426222D01*
X115619127Y-89398279D01*
X115575776Y-89377507D01*
X115575700Y-89377478D01*
X115530260Y-89363732D01*
X115485430Y-89357714D01*
X115441076Y-89359442D01*
X115397066Y-89368933D01*
X115353266Y-89386202D01*
X115309546Y-89411268D01*
X115298815Y-89418658D01*
X115257350Y-89452911D01*
X115219076Y-89493913D01*
X115184206Y-89541267D01*
X115152954Y-89594574D01*
X115125535Y-89653437D01*
X115102163Y-89717458D01*
X115083051Y-89786239D01*
X115068414Y-89859383D01*
X115065800Y-89879658D01*
X115063440Y-89909195D01*
X115061844Y-89943274D01*
X115061013Y-89980150D01*
X115060946Y-90018077D01*
X114154759Y-90018077D01*
X114195284Y-89914476D01*
X114249338Y-89797564D01*
X114310604Y-89683472D01*
X114379026Y-89572323D01*
X114454548Y-89464242D01*
X114537114Y-89359352D01*
X114539788Y-89356171D01*
X114558406Y-89334973D01*
X114581581Y-89309827D01*
X114608233Y-89281812D01*
X114637283Y-89252002D01*
X114667651Y-89221475D01*
X114698257Y-89191307D01*
X114728023Y-89162575D01*
X114755868Y-89136355D01*
X114780712Y-89113724D01*
X114801476Y-89095757D01*
X114834476Y-89068826D01*
X114939158Y-88989877D01*
X115047544Y-88917624D01*
X115159368Y-88852185D01*
X115274361Y-88793682D01*
X115392254Y-88742234D01*
X115512781Y-88697961D01*
X115635673Y-88660984D01*
X115760662Y-88631422D01*
X115887480Y-88609396D01*
X115913458Y-88605739D01*
X115945508Y-88601459D01*
X115974266Y-88598008D01*
X116001121Y-88595301D01*
X116027460Y-88593249D01*
X116054672Y-88591765D01*
X116084144Y-88590763D01*
X116117264Y-88590155D01*
X116155420Y-88589854D01*
X116200000Y-88589773D01*
X116232901Y-88589814D01*
X116272702Y-88590045D01*
X116307081Y-88590558D01*
X116337427Y-88591442D01*
X116365128Y-88592783D01*
X116391570Y-88594669D01*
X116418142Y-88597185D01*
X116446233Y-88600421D01*
X116477229Y-88604462D01*
X116512519Y-88609396D01*
X116553695Y-88615684D01*
X116679951Y-88640159D01*
X116804291Y-88672131D01*
X116926448Y-88711480D01*
X117046153Y-88758085D01*
X117163139Y-88811826D01*
X117277136Y-88872584D01*
X117387878Y-88940239D01*
X117495097Y-89014670D01*
X117598523Y-89095757D01*
X117601769Y-89098479D01*
X117623315Y-89117327D01*
X117648754Y-89140655D01*
X117677007Y-89167385D01*
X117706995Y-89196442D01*
X117737638Y-89226749D01*
X117767855Y-89257229D01*
X117796569Y-89286806D01*
X117822698Y-89314403D01*
X117845163Y-89338944D01*
X117862885Y-89359352D01*
X117891537Y-89394390D01*
X117971732Y-89500371D01*
X118044864Y-89609501D01*
X118110876Y-89721657D01*
X118169714Y-89836715D01*
X118221322Y-89954551D01*
X118237982Y-89999842D01*
X118265644Y-90075043D01*
G37*
D13*
%TO.C,R15*%
X80140000Y-113180000D02*
X80140000Y-114180000D01*
X80140000Y-114180000D02*
X82040000Y-114180000D01*
X82040000Y-113180000D02*
X80140000Y-113180000D01*
X82040000Y-114180000D02*
X82040000Y-113180000D01*
%TO.C,R10*%
X133528000Y-61645000D02*
X133528000Y-62645000D01*
X133528000Y-62645000D02*
X135428000Y-62645000D01*
X135428000Y-61645000D02*
X133528000Y-61645000D01*
X135428000Y-62645000D02*
X135428000Y-61645000D01*
%TO.C,C7*%
X129725000Y-116100000D02*
X132325000Y-116100002D01*
X132325000Y-114500000D02*
X129725000Y-114499998D01*
X129725000Y-116100000D02*
G75*
G02*
X129725000Y-114499998I840224J800001D01*
G01*
X132325000Y-114500000D02*
G75*
G02*
X132325000Y-116100002I-840224J-800001D01*
G01*
%TO.C,C18*%
X122325000Y-110500000D02*
X124925000Y-110500002D01*
X124925000Y-108900000D02*
X122325000Y-108899998D01*
X122325000Y-110500000D02*
G75*
G02*
X122325000Y-108899998I840224J800001D01*
G01*
X124925000Y-108900000D02*
G75*
G02*
X124925000Y-110500002I-840224J-800001D01*
G01*
%TO.C,R22*%
X122760000Y-111400000D02*
X122760000Y-112400000D01*
X122760000Y-112400000D02*
X124660000Y-112400000D01*
X124660000Y-111400000D02*
X122760000Y-111400000D01*
X124660000Y-112400000D02*
X124660000Y-111400000D01*
D15*
%TO.C,Q2*%
X84925000Y-73690000D02*
X85275000Y-73690000D01*
X84925000Y-76610000D02*
X84925000Y-73690000D01*
X85275000Y-73690000D02*
X85275000Y-76610000D01*
X85275000Y-76610000D02*
X84925000Y-76610000D01*
X85625000Y-73650000D02*
X86775000Y-73650000D01*
D13*
%TO.C,C19*%
X100125000Y-53200000D02*
X102725000Y-53200002D01*
X102725000Y-51600000D02*
X100125000Y-51599998D01*
X100125000Y-53200000D02*
G75*
G02*
X100125000Y-51599998I840224J800001D01*
G01*
X102725000Y-51600000D02*
G75*
G02*
X102725000Y-53200002I-840224J-800001D01*
G01*
D10*
%TO.C,VR2*%
X140325000Y-69300000D02*
X140325000Y-69300000D01*
X140425000Y-69300000D02*
X140425000Y-69300000D01*
D15*
X140975000Y-67050000D02*
X148025000Y-67050000D01*
X140975000Y-76550000D02*
X140975000Y-67050000D01*
X148025000Y-67050000D02*
X148025000Y-76550000D01*
X148025000Y-76550000D02*
X140975000Y-76550000D01*
D10*
X140325000Y-69300000D02*
G75*
G02*
X140425000Y-69300000I50000J0D01*
G01*
X140425000Y-69300000D02*
G75*
G02*
X140325000Y-69300000I-50000J0D01*
G01*
D13*
%TO.C,C17*%
X117600000Y-118125000D02*
X117599998Y-120725000D01*
X119200000Y-120725000D02*
X119200002Y-118125000D01*
X117600000Y-118125000D02*
G75*
G02*
X119200002Y-118125000I800001J-840224D01*
G01*
X119200000Y-120725000D02*
G75*
G02*
X117599998Y-120725000I-800001J840224D01*
G01*
%TO.C,R7*%
X87450000Y-96300000D02*
X87450000Y-97300000D01*
X87450000Y-97300000D02*
X89350000Y-97300000D01*
X89350000Y-96300000D02*
X87450000Y-96300000D01*
X89350000Y-97300000D02*
X89350000Y-96300000D01*
%TO.C,C15*%
X103700000Y-93400000D02*
X103700000Y-97600000D01*
X106100000Y-97600000D02*
X106100000Y-93400000D01*
X103700000Y-93400000D02*
G75*
G02*
X106100000Y-93400000I1200000J-1474352D01*
G01*
X106100000Y-97600000D02*
G75*
G02*
X103700000Y-97600000I-1200000J1408120D01*
G01*
%TO.C,R1*%
X87360000Y-62900000D02*
X87360000Y-63900000D01*
X87360000Y-63900000D02*
X89260000Y-63900000D01*
X89260000Y-62900000D02*
X87360000Y-62900000D01*
X89260000Y-63900000D02*
X89260000Y-62900000D01*
%TO.C,D1*%
X124229000Y-60304000D02*
X125499000Y-60304000D01*
X125499000Y-57184000D02*
X124199000Y-57184000D01*
X124089000Y-60584000D02*
X123609000Y-60584000D01*
X123849000Y-60254000D01*
X124089000Y-60584000D01*
G36*
X124089000Y-60584000D02*
G01*
X123609000Y-60584000D01*
X123849000Y-60254000D01*
X124089000Y-60584000D01*
G37*
%TO.C,R8*%
X80140000Y-102060000D02*
X80140000Y-103060000D01*
X80140000Y-103060000D02*
X82040000Y-103060000D01*
X82040000Y-102060000D02*
X80140000Y-102060000D01*
X82040000Y-103060000D02*
X82040000Y-102060000D01*
%TO.C,C13*%
X127325000Y-110500000D02*
X129925000Y-110500002D01*
X129925000Y-108900000D02*
X127325000Y-108899998D01*
X127325000Y-110500000D02*
G75*
G02*
X127325000Y-108899998I840224J800001D01*
G01*
X129925000Y-108900000D02*
G75*
G02*
X129925000Y-110500002I-840224J-800001D01*
G01*
%TO.C,R30*%
X135700000Y-104850000D02*
X135700000Y-106750000D01*
X135700000Y-106750000D02*
X136700000Y-106750000D01*
X136700000Y-104850000D02*
X135700000Y-104850000D01*
X136700000Y-106750000D02*
X136700000Y-104850000D01*
D15*
%TO.C,D2*%
X139250000Y-103100000D02*
X138250000Y-103100000D01*
X139600000Y-100090000D02*
X140300000Y-100090000D01*
X139600000Y-103010000D02*
X139600000Y-100090000D01*
X140300000Y-100090000D02*
X140300000Y-103010000D01*
X140300000Y-103010000D02*
X139600000Y-103010000D01*
D10*
%TO.C,VR1*%
X138475000Y-88825000D02*
X148125000Y-88825000D01*
X138475000Y-98325000D02*
X138475000Y-88825000D01*
D15*
X143125000Y-87675000D02*
X143125000Y-87675000D01*
X143125000Y-87775000D02*
X143125000Y-87775000D01*
X143125000Y-87775000D02*
X143125000Y-87775000D01*
D10*
X148125000Y-88825000D02*
X148125000Y-98325000D01*
X148125000Y-96575000D02*
X148125000Y-90575000D01*
X148125000Y-98325000D02*
X138475000Y-98325000D01*
D15*
X143125000Y-87675000D02*
G75*
G02*
X143125000Y-87775000I0J-50000D01*
G01*
X143125000Y-87775000D02*
G75*
G02*
X143125000Y-87675000I0J50000D01*
G01*
X143125000Y-87775000D02*
G75*
G02*
X143125000Y-87675000I0J50000D01*
G01*
D13*
%TO.C,R21*%
X92264000Y-90490738D02*
X92264000Y-91490738D01*
X92264000Y-91490738D02*
X94164000Y-91490738D01*
X94164000Y-90490738D02*
X92264000Y-90490738D01*
X94164000Y-91490738D02*
X94164000Y-90490738D01*
%TO.C,R16*%
X80140000Y-135300000D02*
X80140000Y-136300000D01*
X80140000Y-136300000D02*
X82040000Y-136300000D01*
X82040000Y-135300000D02*
X80140000Y-135300000D01*
X82040000Y-136300000D02*
X82040000Y-135300000D01*
D15*
%TO.C,IC3*%
X95760000Y-58400000D02*
X105960000Y-58400000D01*
X95760000Y-61400000D02*
X95760000Y-58400000D01*
D17*
X97260000Y-54438000D02*
X97260000Y-54438000D01*
X97260000Y-54563000D02*
X97260000Y-54563000D01*
D15*
X105960000Y-58400000D02*
X105960000Y-61400000D01*
D17*
X97260000Y-54438000D02*
G75*
G02*
X97259000Y-54563000I-500J-62500D01*
G01*
X97260000Y-54563000D02*
G75*
G02*
X97259000Y-54438000I-500J62500D01*
G01*
D13*
%TO.C,C14*%
X115000000Y-114000000D02*
X117600000Y-114000002D01*
X117600000Y-112400000D02*
X115000000Y-112399998D01*
X115000000Y-114000000D02*
G75*
G02*
X115000000Y-112399998I840224J800001D01*
G01*
X117600000Y-112400000D02*
G75*
G02*
X117600000Y-114000002I-840224J-800001D01*
G01*
%TO.C,R6*%
X80140000Y-90940000D02*
X80140000Y-91940000D01*
X80140000Y-91940000D02*
X82040000Y-91940000D01*
X82040000Y-90940000D02*
X80140000Y-90940000D01*
X82040000Y-91940000D02*
X82040000Y-90940000D01*
%TO.C,R3*%
X87340000Y-73300000D02*
X87340000Y-74300000D01*
X87340000Y-74300000D02*
X89240000Y-74300000D01*
X89240000Y-73300000D02*
X87340000Y-73300000D01*
X89240000Y-74300000D02*
X89240000Y-73300000D01*
D15*
%TO.C,J3*%
X117210000Y-44085000D02*
X117210000Y-44697000D01*
X117210000Y-46697000D02*
X117210000Y-48497000D01*
X117880000Y-50175000D02*
X117680000Y-50170000D01*
X118480000Y-51185000D02*
X118480000Y-51185000D01*
X118480000Y-51285000D02*
X118480000Y-51285000D01*
X118480000Y-51285000D02*
X118480000Y-51285000D01*
X125680000Y-50175000D02*
X125480000Y-50175000D01*
X126150000Y-44697000D02*
X126150000Y-44085000D01*
X126150000Y-48497000D02*
X126150000Y-46697000D01*
X118480000Y-51185000D02*
G75*
G02*
X118480000Y-51285000I0J-50000D01*
G01*
X118480000Y-51285000D02*
G75*
G02*
X118480000Y-51185000I0J50000D01*
G01*
X118480000Y-51285000D02*
G75*
G02*
X118480000Y-51185000I0J50000D01*
G01*
D13*
%TO.C,R19*%
X131666383Y-109194166D02*
X131666383Y-110194166D01*
X131666383Y-110194166D02*
X133566383Y-110194166D01*
X133566383Y-109194166D02*
X131666383Y-109194166D01*
X133566383Y-110194166D02*
X133566383Y-109194166D01*
%TO.C,C8*%
X90592000Y-92106738D02*
X90592000Y-96306738D01*
X92992000Y-96306738D02*
X92992000Y-92106738D01*
X90592000Y-92106738D02*
G75*
G02*
X92992000Y-92106738I1200000J-1408120D01*
G01*
X92992000Y-96306738D02*
G75*
G02*
X90592000Y-96306738I-1200000J1474352D01*
G01*
D15*
%TO.C,Q3*%
X84925000Y-87090000D02*
X85275000Y-87090000D01*
X84925000Y-90010000D02*
X84925000Y-87090000D01*
X85275000Y-87090000D02*
X85275000Y-90010000D01*
X85275000Y-90010000D02*
X84925000Y-90010000D01*
X85625000Y-87050000D02*
X86775000Y-87050000D01*
D13*
%TO.C,C27*%
X88825000Y-69800000D02*
X93025000Y-69800000D01*
X93025000Y-67400000D02*
X88825000Y-67400000D01*
X88825000Y-69800000D02*
G75*
G02*
X88825000Y-67400000I1408120J1200000D01*
G01*
X93025000Y-67400000D02*
G75*
G02*
X93025000Y-69800000I-1474352J-1200000D01*
G01*
%TO.C,R4*%
X80140000Y-79820000D02*
X80140000Y-80820000D01*
X80140000Y-80820000D02*
X82040000Y-80820000D01*
X82040000Y-79820000D02*
X80140000Y-79820000D01*
X82040000Y-80820000D02*
X82040000Y-79820000D01*
%TO.C,R9*%
X133528000Y-60373000D02*
X133528000Y-61373000D01*
X133528000Y-61373000D02*
X135428000Y-61373000D01*
X135428000Y-60373000D02*
X133528000Y-60373000D01*
X135428000Y-61373000D02*
X135428000Y-60373000D01*
%TO.C,C6*%
X126970000Y-53800000D02*
X129570000Y-53800002D01*
X129570000Y-52200000D02*
X126970000Y-52199998D01*
X126970000Y-53800000D02*
G75*
G02*
X126970000Y-52199998I840224J800001D01*
G01*
X129570000Y-52200000D02*
G75*
G02*
X129570000Y-53800002I-840224J-800001D01*
G01*
%TO.C,R11*%
X133528000Y-62923000D02*
X133528000Y-63923000D01*
X133528000Y-63923000D02*
X135428000Y-63923000D01*
X135428000Y-62923000D02*
X133528000Y-62923000D01*
X135428000Y-63923000D02*
X135428000Y-62923000D01*
%TO.C,R31*%
X133500000Y-104850000D02*
X133500000Y-106750000D01*
X133500000Y-106750000D02*
X134500000Y-106750000D01*
X134500000Y-104850000D02*
X133500000Y-104850000D01*
X134500000Y-106750000D02*
X134500000Y-104850000D01*
%TO.C,C11*%
X128225000Y-122100000D02*
X132425000Y-122100000D01*
X132425000Y-119700000D02*
X128225000Y-119700000D01*
X128225000Y-122100000D02*
G75*
G02*
X128225000Y-119700000I1408120J1200000D01*
G01*
X132425000Y-119700000D02*
G75*
G02*
X132425000Y-122100000I-1474352J-1200000D01*
G01*
%TO.C,R28*%
X129200000Y-102250000D02*
X129200000Y-103250000D01*
X129200000Y-103250000D02*
X131100000Y-103250000D01*
X131100000Y-102250000D02*
X129200000Y-102250000D01*
X131100000Y-103250000D02*
X131100000Y-102250000D01*
%TO.C,R2*%
X80140000Y-68700000D02*
X80140000Y-69700000D01*
X80140000Y-69700000D02*
X82040000Y-69700000D01*
X82040000Y-68700000D02*
X80140000Y-68700000D01*
X82040000Y-69700000D02*
X82040000Y-68700000D01*
D15*
%TO.C,Q6*%
X84925000Y-107540000D02*
X85275000Y-107540000D01*
X84925000Y-110460000D02*
X84925000Y-107540000D01*
X85275000Y-107540000D02*
X85275000Y-110460000D01*
X85275000Y-110460000D02*
X84925000Y-110460000D01*
X85625000Y-107500000D02*
X86775000Y-107500000D01*
%TO.C,Q1*%
X84925000Y-62890000D02*
X85275000Y-62890000D01*
X84925000Y-65810000D02*
X84925000Y-62890000D01*
X85275000Y-62890000D02*
X85275000Y-65810000D01*
X85275000Y-65810000D02*
X84925000Y-65810000D01*
X85625000Y-62850000D02*
X86775000Y-62850000D01*
D13*
%TO.C,C4*%
X131600000Y-57900000D02*
X131599998Y-60500000D01*
X133200000Y-60500000D02*
X133200002Y-57900000D01*
X131600000Y-57900000D02*
G75*
G02*
X133200002Y-57900000I800001J-840224D01*
G01*
X133200000Y-60500000D02*
G75*
G02*
X131599998Y-60500000I-800001J840224D01*
G01*
D10*
%TO.C,U1*%
X126220000Y-62288000D02*
X126220000Y-62288000D01*
X126220000Y-62388000D02*
X126220000Y-62388000D01*
X126220000Y-62288000D02*
G75*
G02*
X126220000Y-62388000I0J-50000D01*
G01*
X126220000Y-62388000D02*
G75*
G02*
X126220000Y-62288000I0J50000D01*
G01*
D13*
%TO.C,R12*%
X87140000Y-123100000D02*
X87140000Y-124100000D01*
X87140000Y-124100000D02*
X89040000Y-124100000D01*
X89040000Y-123100000D02*
X87140000Y-123100000D01*
X89040000Y-124100000D02*
X89040000Y-123100000D01*
%TO.C,R14*%
X87340000Y-107300000D02*
X87340000Y-108300000D01*
X87340000Y-108300000D02*
X89240000Y-108300000D01*
X89240000Y-107300000D02*
X87340000Y-107300000D01*
X89240000Y-108300000D02*
X89240000Y-107300000D01*
D15*
%TO.C,Q5*%
X84925000Y-123490000D02*
X85275000Y-123490000D01*
X84925000Y-126410000D02*
X84925000Y-123490000D01*
X85275000Y-123490000D02*
X85275000Y-126410000D01*
X85275000Y-126410000D02*
X84925000Y-126410000D01*
X85625000Y-123450000D02*
X86775000Y-123450000D01*
%TO.C,IC5*%
X132850000Y-101300000D02*
X135750000Y-101300000D01*
X132850000Y-101900000D02*
X132850000Y-101300000D01*
X135750000Y-101300000D02*
X135750000Y-101900000D01*
X135750000Y-101900000D02*
X132850000Y-101900000D01*
X135800000Y-102250000D02*
X135800000Y-103450000D01*
%TD*%
M02*
