M48
; DRILL file {KiCad 8.0.7-8.0.7-0~ubuntu24.04.1} date 2024-12-10T19:47:57+0900
; FORMAT={-:-/ absolute / inch / decimal}
; #@! TF.CreationDate,2024-12-10T19:47:57+09:00
; #@! TF.GenerationSoftware,Kicad,Pcbnew,8.0.7-8.0.7-0~ubuntu24.04.1
; #@! TF.FileFunction,Plated,1,2,PTH
FMAT,2
INCH
; #@! TA.AperFunction,Plated,PTH,ViaDrill
T1C0.0118
; #@! TA.AperFunction,Plated,PTH,ViaDrill
T2C0.0157
; #@! TA.AperFunction,Plated,PTH,ComponentDrill
T3C0.0315
; #@! TA.AperFunction,Plated,PTH,ComponentDrill
T4C0.0354
; #@! TA.AperFunction,Plated,PTH,ComponentDrill
T5C0.0394
; #@! TA.AperFunction,Plated,PTH,ComponentDrill
T6C0.0472
; #@! TA.AperFunction,Plated,PTH,ComponentDrill
T7C0.0787
%
G90
G05
T1
X4.5939Y-3.9961
X5.1939Y-5.0639
X5.3778Y-4.04
X5.4028Y-4.655
X5.4978Y-3.99
X5.5878Y-3.99
X5.6578Y-4.0884
X5.6578Y-4.19
X5.6988Y-4.3996
X5.8778Y-4.94
X5.8889Y-4.7089
X5.9378Y-5.1
X6.0878Y-4.69
X6.1178Y-4.29
X6.1628Y-4.805
X6.1678Y-4.91
X6.1978Y-4.83
X6.1978Y-4.88
X6.2494Y-4.64
X6.2578Y-4.17
X6.2628Y-4.805
X6.3778Y-4.64
X6.43Y-5.04
X6.4578Y-4.62
X6.4678Y-4.32
X6.4978Y-4.5
X6.75Y-4.95
X6.7778Y-4.26
X6.81Y-5.0
X6.8478Y-4.26
X6.9193Y-4.2126
X6.9278Y-4.33
X6.9778Y-4.4
X7.3678Y-4.35
X7.3828Y-4.255
X7.54Y-5.16
T2
X4.3778Y-3.96
X4.4078Y-4.21
X4.6978Y-4.47
X4.7678Y-4.68
X4.8031Y-5.1575
X4.8178Y-4.1
X4.8678Y-4.39
X4.8978Y-3.99
X4.9178Y-3.93
X4.9678Y-4.2
X5.0078Y-4.87
X5.0078Y-4.95
X5.06Y-4.44
X5.0678Y-5.07
X5.0978Y-4.27
X5.1178Y-4.05
X5.1678Y-4.18
X5.2278Y-4.05
X5.2778Y-3.9
X5.3078Y-4.91
X5.3978Y-4.27
X5.4678Y-4.17
X5.52Y-4.61
X5.6478Y-4.69
X5.77Y-3.85
X5.8078Y-4.69
X5.8083Y-4.7805
X5.81Y-4.44
X5.9278Y-5.04
X6.02Y-4.91
X6.03Y-4.44
X6.1978Y-4.12
X6.3386Y-4.8228
X6.3878Y-4.16
X6.3976Y-4.3898
X6.5059Y-4.2913
X6.6043Y-4.3504
X6.64Y-4.84
X6.752Y-4.3504
X7.0778Y-3.84
X7.18Y-4.4
X7.2778Y-4.01
X7.3078Y-4.49
X7.4478Y-4.13
X7.5Y-4.3209
X7.62Y-4.53
X7.67Y-4.0
X7.7378Y-4.31
T3
X4.71Y-5.31
X4.81Y-5.31
X4.8378Y-2.8852
X4.8378Y-3.5348
X4.97Y-5.31
X5.07Y-5.31
X5.23Y-5.31
X5.33Y-5.31
X6.2Y-5.32
X6.3Y-5.32
X6.56Y-5.31
X6.66Y-5.31
X6.9633Y-5.31
X7.0633Y-5.31
X7.34Y-5.31
X7.44Y-5.31
X7.6016Y-3.8395
X7.7Y-3.8395
T4
X5.1476Y-2.6673
X5.1476Y-3.061
X5.6594Y-2.6673
X5.6594Y-3.061
T5
X4.2818Y-2.9609
X4.2818Y-3.2562
X4.4457Y-2.6486
X4.581Y-2.9186
X4.581Y-3.5091
X4.741Y-2.6486
X5.0161Y-3.44
X5.0161Y-3.7235
X5.6578Y-3.44
X5.6578Y-3.7235
X5.8498Y-4.28
X5.9498Y-4.28
X5.98Y-3.93
X6.0335Y-2.7854
X6.0335Y-3.5059
X6.08Y-3.93
X6.3478Y-4.71
X6.4478Y-3.93
X6.4478Y-4.71
X6.5478Y-3.93
X6.5478Y-4.71
X6.6478Y-3.93
X6.6478Y-4.71
X6.7478Y-3.93
X6.7478Y-4.71
X6.7504Y-4.0945
X6.8478Y-3.93
X6.8504Y-4.0945
X7.29Y-3.93
X7.39Y-3.93
X7.6713Y-2.6949
X7.6713Y-3.5059
T6
X4.415Y-4.6555
X5.315Y-4.6555
T7
X4.1732Y-4.7047
X4.1778Y-4.07
X4.181Y-2.6386
X4.181Y-3.5486
M30
