%TF.GenerationSoftware,KiCad,Pcbnew,8.0.7-8.0.7-0~ubuntu24.04.1*%
%TF.CreationDate,2024-12-13T16:46:38+09:00*%
%TF.ProjectId,MRM5-tester,4d524d35-2d74-4657-9374-65722e6b6963,rev?*%
%TF.SameCoordinates,Original*%
%TF.FileFunction,Drillmap*%
%TF.FilePolarity,Positive*%
%FSLAX45Y45*%
G04 Gerber Fmt 4.5, Leading zero omitted, Abs format (unit mm)*
G04 Created by KiCad (PCBNEW 8.0.7-8.0.7-0~ubuntu24.04.1) date 2024-12-13 16:46:38*
%MOMM*%
%LPD*%
G01*
G04 APERTURE LIST*
%ADD10C,0.050000*%
%ADD11C,0.200000*%
%ADD12C,0.100000*%
G04 APERTURE END LIST*
D10*
X16250000Y-11690000D02*
G75*
G02*
X15850000Y-11690000I-200000J0D01*
G01*
X15850000Y-11690000D02*
G75*
G02*
X16250000Y-11690000I200000J0D01*
G01*
X15000000Y-6667500D02*
X14835000Y-6667500D01*
X16850000Y-15490000D02*
X16550000Y-15190000D01*
X14970000Y-7165000D02*
G75*
G02*
X14870000Y-7165000I-50000J0D01*
G01*
X14870000Y-7165000D02*
G75*
G02*
X14970000Y-7165000I50000J0D01*
G01*
X7735000Y-13640000D02*
X7735000Y-6240000D01*
X8485000Y-5940000D02*
X8035000Y-5940000D01*
X9285000Y-5140000D02*
G75*
G02*
X8485000Y-5940000I-800000J0D01*
G01*
X8985000Y-8190000D02*
G75*
G02*
X8585000Y-8190000I-200000J0D01*
G01*
X8585000Y-8190000D02*
G75*
G02*
X8985000Y-8190000I200000J0D01*
G01*
X15000000Y-13640000D02*
X15000000Y-11710000D01*
X16550000Y-5140000D02*
G75*
G02*
X15750000Y-5940000I-800000J0D01*
G01*
X14970000Y-11410000D02*
G75*
G02*
X14870000Y-11410000I-50000J0D01*
G01*
X14870000Y-11410000D02*
G75*
G02*
X14970000Y-11410000I50000J0D01*
G01*
X15750000Y-13940000D02*
G75*
G02*
X16550000Y-14740000I0J-800000D01*
G01*
X16250000Y-8190000D02*
G75*
G02*
X15850000Y-8190000I-200000J0D01*
G01*
X15850000Y-8190000D02*
G75*
G02*
X16250000Y-8190000I200000J0D01*
G01*
X20550000Y-5140000D02*
X20550000Y-4690000D01*
X14970000Y-11605000D02*
G75*
G02*
X14870000Y-11605000I-50000J0D01*
G01*
X14870000Y-11605000D02*
G75*
G02*
X14970000Y-11605000I50000J0D01*
G01*
X14535000Y-12410000D02*
X14835000Y-12110000D01*
X15000000Y-11110000D02*
X14835000Y-11110000D01*
X21250000Y-11690000D02*
G75*
G02*
X20850000Y-11690000I-200000J0D01*
G01*
X20850000Y-11690000D02*
G75*
G02*
X21250000Y-11690000I200000J0D01*
G01*
X15750000Y-13940000D02*
X15300000Y-13940000D01*
X15000000Y-6667500D02*
X15000000Y-6240000D01*
X18750000Y-14440000D02*
G75*
G02*
X18350000Y-14440000I-200000J0D01*
G01*
X18350000Y-14440000D02*
G75*
G02*
X18750000Y-14440000I200000J0D01*
G01*
X14085000Y-5940000D02*
X14535000Y-5940000D01*
X13285000Y-5140000D02*
X13285000Y-4690000D01*
X8985000Y-11690000D02*
G75*
G02*
X8585000Y-11690000I-200000J0D01*
G01*
X8585000Y-11690000D02*
G75*
G02*
X8985000Y-11690000I200000J0D01*
G01*
X14835000Y-6667500D02*
X14835000Y-6240000D01*
X9030000Y-13640000D02*
X9030000Y-12710000D01*
X9585000Y-4390000D02*
X12985000Y-4390000D01*
X14970000Y-11215000D02*
G75*
G02*
X14870000Y-11215000I-50000J0D01*
G01*
X14870000Y-11215000D02*
G75*
G02*
X14970000Y-11215000I50000J0D01*
G01*
X20550000Y-14740000D02*
X20550000Y-15190000D01*
X16550000Y-14740000D02*
X16550000Y-15190000D01*
X20550000Y-15190000D02*
X20250000Y-15490000D01*
X12985000Y-4390000D02*
X13285000Y-4690000D01*
X13985000Y-11690000D02*
G75*
G02*
X13585000Y-11690000I-200000J0D01*
G01*
X13585000Y-11690000D02*
G75*
G02*
X13985000Y-11690000I200000J0D01*
G01*
X16850000Y-4390000D02*
X20250000Y-4390000D01*
X21350000Y-5940000D02*
X21800000Y-5940000D01*
X14835000Y-12110000D02*
X14835000Y-11710000D01*
X14970000Y-6775000D02*
G75*
G02*
X14870000Y-6775000I-50000J0D01*
G01*
X14870000Y-6775000D02*
G75*
G02*
X14970000Y-6775000I50000J0D01*
G01*
X20250000Y-15490000D02*
X16850000Y-15490000D01*
X20250000Y-4390000D02*
X20550000Y-4690000D01*
X8035000Y-13940000D02*
X7735000Y-13640000D01*
X15000000Y-11110000D02*
X15000000Y-7267500D01*
X21800000Y-5940000D02*
X22100000Y-6240000D01*
X20550000Y-14740000D02*
G75*
G02*
X21350000Y-13940000I800000J0D01*
G01*
X15000000Y-7267500D02*
X14835000Y-7267500D01*
X15750000Y-5940000D02*
X15300000Y-5940000D01*
X9285000Y-4690000D02*
X9585000Y-4390000D01*
X21800000Y-13940000D02*
X22100000Y-13640000D01*
X15300000Y-13940000D02*
X15000000Y-13640000D01*
X14970000Y-6970000D02*
G75*
G02*
X14870000Y-6970000I-50000J0D01*
G01*
X14870000Y-6970000D02*
G75*
G02*
X14970000Y-6970000I50000J0D01*
G01*
X13985000Y-8190000D02*
G75*
G02*
X13585000Y-8190000I-200000J0D01*
G01*
X13585000Y-8190000D02*
G75*
G02*
X13985000Y-8190000I200000J0D01*
G01*
X21250000Y-8190000D02*
G75*
G02*
X20850000Y-8190000I-200000J0D01*
G01*
X20850000Y-8190000D02*
G75*
G02*
X21250000Y-8190000I200000J0D01*
G01*
X14085000Y-5940000D02*
G75*
G02*
X13285000Y-5140000I0J800000D01*
G01*
X7735000Y-6240000D02*
X8035000Y-5940000D01*
X11485000Y-5440000D02*
G75*
G02*
X11085000Y-5440000I-200000J0D01*
G01*
X11085000Y-5440000D02*
G75*
G02*
X11485000Y-5440000I200000J0D01*
G01*
X15000000Y-11710000D02*
X14835000Y-11710000D01*
X9285000Y-5140000D02*
X9285000Y-4690000D01*
X16550000Y-4690000D02*
X16850000Y-4390000D01*
X21350000Y-13940000D02*
X21800000Y-13940000D01*
X9330000Y-12410000D02*
X9030000Y-12710000D01*
X14535000Y-5940000D02*
X14835000Y-6240000D01*
X14835000Y-11110000D02*
X14835000Y-7267500D01*
X18750000Y-5440000D02*
G75*
G02*
X18350000Y-5440000I-200000J0D01*
G01*
X18350000Y-5440000D02*
G75*
G02*
X18750000Y-5440000I200000J0D01*
G01*
X22100000Y-13640000D02*
X22100000Y-6240000D01*
X8730000Y-13940000D02*
X8035000Y-13940000D01*
X15000000Y-6240000D02*
X15300000Y-5940000D01*
X21350000Y-5940000D02*
G75*
G02*
X20550000Y-5140000I0J800000D01*
G01*
X14535000Y-12410000D02*
X9330000Y-12410000D01*
X9030000Y-13640000D02*
G75*
G02*
X8730000Y-13940000I-300000J0D01*
G01*
X16550000Y-5140000D02*
X16550000Y-4690000D01*
D11*
D12*
X11846500Y-4877500D02*
X11911500Y-4942500D01*
X11911500Y-4877500D02*
X11846500Y-4942500D01*
X12424500Y-4877500D02*
X12489500Y-4942500D01*
X12489500Y-4877500D02*
X12424500Y-4942500D01*
D11*
X7993277Y-15803984D02*
X7993277Y-15603984D01*
X7993277Y-15603984D02*
X8040896Y-15603984D01*
X8040896Y-15603984D02*
X8069467Y-15613508D01*
X8069467Y-15613508D02*
X8088515Y-15632555D01*
X8088515Y-15632555D02*
X8098039Y-15651603D01*
X8098039Y-15651603D02*
X8107562Y-15689698D01*
X8107562Y-15689698D02*
X8107562Y-15718269D01*
X8107562Y-15718269D02*
X8098039Y-15756365D01*
X8098039Y-15756365D02*
X8088515Y-15775412D01*
X8088515Y-15775412D02*
X8069467Y-15794460D01*
X8069467Y-15794460D02*
X8040896Y-15803984D01*
X8040896Y-15803984D02*
X7993277Y-15803984D01*
X8193277Y-15803984D02*
X8193277Y-15670650D01*
X8193277Y-15708746D02*
X8202801Y-15689698D01*
X8202801Y-15689698D02*
X8212324Y-15680174D01*
X8212324Y-15680174D02*
X8231372Y-15670650D01*
X8231372Y-15670650D02*
X8250420Y-15670650D01*
X8317086Y-15803984D02*
X8317086Y-15670650D01*
X8317086Y-15603984D02*
X8307562Y-15613508D01*
X8307562Y-15613508D02*
X8317086Y-15623031D01*
X8317086Y-15623031D02*
X8326610Y-15613508D01*
X8326610Y-15613508D02*
X8317086Y-15603984D01*
X8317086Y-15603984D02*
X8317086Y-15623031D01*
X8440896Y-15803984D02*
X8421848Y-15794460D01*
X8421848Y-15794460D02*
X8412324Y-15775412D01*
X8412324Y-15775412D02*
X8412324Y-15603984D01*
X8545658Y-15803984D02*
X8526610Y-15794460D01*
X8526610Y-15794460D02*
X8517086Y-15775412D01*
X8517086Y-15775412D02*
X8517086Y-15603984D01*
X8774229Y-15803984D02*
X8774229Y-15603984D01*
X8774229Y-15603984D02*
X8840896Y-15746841D01*
X8840896Y-15746841D02*
X8907563Y-15603984D01*
X8907563Y-15603984D02*
X8907563Y-15803984D01*
X9088515Y-15803984D02*
X9088515Y-15699222D01*
X9088515Y-15699222D02*
X9078991Y-15680174D01*
X9078991Y-15680174D02*
X9059944Y-15670650D01*
X9059944Y-15670650D02*
X9021848Y-15670650D01*
X9021848Y-15670650D02*
X9002801Y-15680174D01*
X9088515Y-15794460D02*
X9069467Y-15803984D01*
X9069467Y-15803984D02*
X9021848Y-15803984D01*
X9021848Y-15803984D02*
X9002801Y-15794460D01*
X9002801Y-15794460D02*
X8993277Y-15775412D01*
X8993277Y-15775412D02*
X8993277Y-15756365D01*
X8993277Y-15756365D02*
X9002801Y-15737317D01*
X9002801Y-15737317D02*
X9021848Y-15727793D01*
X9021848Y-15727793D02*
X9069467Y-15727793D01*
X9069467Y-15727793D02*
X9088515Y-15718269D01*
X9183753Y-15670650D02*
X9183753Y-15870650D01*
X9183753Y-15680174D02*
X9202801Y-15670650D01*
X9202801Y-15670650D02*
X9240896Y-15670650D01*
X9240896Y-15670650D02*
X9259944Y-15680174D01*
X9259944Y-15680174D02*
X9269467Y-15689698D01*
X9269467Y-15689698D02*
X9278991Y-15708746D01*
X9278991Y-15708746D02*
X9278991Y-15765888D01*
X9278991Y-15765888D02*
X9269467Y-15784936D01*
X9269467Y-15784936D02*
X9259944Y-15794460D01*
X9259944Y-15794460D02*
X9240896Y-15803984D01*
X9240896Y-15803984D02*
X9202801Y-15803984D01*
X9202801Y-15803984D02*
X9183753Y-15794460D01*
X9364705Y-15784936D02*
X9374229Y-15794460D01*
X9374229Y-15794460D02*
X9364705Y-15803984D01*
X9364705Y-15803984D02*
X9355182Y-15794460D01*
X9355182Y-15794460D02*
X9364705Y-15784936D01*
X9364705Y-15784936D02*
X9364705Y-15803984D01*
X9364705Y-15680174D02*
X9374229Y-15689698D01*
X9374229Y-15689698D02*
X9364705Y-15699222D01*
X9364705Y-15699222D02*
X9355182Y-15689698D01*
X9355182Y-15689698D02*
X9364705Y-15680174D01*
X9364705Y-15680174D02*
X9364705Y-15699222D01*
D12*
X7667500Y-16100000D02*
X7732500Y-16165000D01*
X7732500Y-16100000D02*
X7667500Y-16165000D01*
D11*
X8031372Y-16023984D02*
X8050420Y-16023984D01*
X8050420Y-16023984D02*
X8069467Y-16033508D01*
X8069467Y-16033508D02*
X8078991Y-16043031D01*
X8078991Y-16043031D02*
X8088515Y-16062079D01*
X8088515Y-16062079D02*
X8098039Y-16100174D01*
X8098039Y-16100174D02*
X8098039Y-16147793D01*
X8098039Y-16147793D02*
X8088515Y-16185888D01*
X8088515Y-16185888D02*
X8078991Y-16204936D01*
X8078991Y-16204936D02*
X8069467Y-16214460D01*
X8069467Y-16214460D02*
X8050420Y-16223984D01*
X8050420Y-16223984D02*
X8031372Y-16223984D01*
X8031372Y-16223984D02*
X8012324Y-16214460D01*
X8012324Y-16214460D02*
X8002801Y-16204936D01*
X8002801Y-16204936D02*
X7993277Y-16185888D01*
X7993277Y-16185888D02*
X7983753Y-16147793D01*
X7983753Y-16147793D02*
X7983753Y-16100174D01*
X7983753Y-16100174D02*
X7993277Y-16062079D01*
X7993277Y-16062079D02*
X8002801Y-16043031D01*
X8002801Y-16043031D02*
X8012324Y-16033508D01*
X8012324Y-16033508D02*
X8031372Y-16023984D01*
X8183753Y-16204936D02*
X8193277Y-16214460D01*
X8193277Y-16214460D02*
X8183753Y-16223984D01*
X8183753Y-16223984D02*
X8174229Y-16214460D01*
X8174229Y-16214460D02*
X8183753Y-16204936D01*
X8183753Y-16204936D02*
X8183753Y-16223984D01*
X8364705Y-16023984D02*
X8326610Y-16023984D01*
X8326610Y-16023984D02*
X8307562Y-16033508D01*
X8307562Y-16033508D02*
X8298039Y-16043031D01*
X8298039Y-16043031D02*
X8278991Y-16071603D01*
X8278991Y-16071603D02*
X8269467Y-16109698D01*
X8269467Y-16109698D02*
X8269467Y-16185888D01*
X8269467Y-16185888D02*
X8278991Y-16204936D01*
X8278991Y-16204936D02*
X8288515Y-16214460D01*
X8288515Y-16214460D02*
X8307562Y-16223984D01*
X8307562Y-16223984D02*
X8345658Y-16223984D01*
X8345658Y-16223984D02*
X8364705Y-16214460D01*
X8364705Y-16214460D02*
X8374229Y-16204936D01*
X8374229Y-16204936D02*
X8383753Y-16185888D01*
X8383753Y-16185888D02*
X8383753Y-16138269D01*
X8383753Y-16138269D02*
X8374229Y-16119222D01*
X8374229Y-16119222D02*
X8364705Y-16109698D01*
X8364705Y-16109698D02*
X8345658Y-16100174D01*
X8345658Y-16100174D02*
X8307562Y-16100174D01*
X8307562Y-16100174D02*
X8288515Y-16109698D01*
X8288515Y-16109698D02*
X8278991Y-16119222D01*
X8278991Y-16119222D02*
X8269467Y-16138269D01*
X8564705Y-16023984D02*
X8469467Y-16023984D01*
X8469467Y-16023984D02*
X8459944Y-16119222D01*
X8459944Y-16119222D02*
X8469467Y-16109698D01*
X8469467Y-16109698D02*
X8488515Y-16100174D01*
X8488515Y-16100174D02*
X8536134Y-16100174D01*
X8536134Y-16100174D02*
X8555182Y-16109698D01*
X8555182Y-16109698D02*
X8564705Y-16119222D01*
X8564705Y-16119222D02*
X8574229Y-16138269D01*
X8574229Y-16138269D02*
X8574229Y-16185888D01*
X8574229Y-16185888D02*
X8564705Y-16204936D01*
X8564705Y-16204936D02*
X8555182Y-16214460D01*
X8555182Y-16214460D02*
X8536134Y-16223984D01*
X8536134Y-16223984D02*
X8488515Y-16223984D01*
X8488515Y-16223984D02*
X8469467Y-16214460D01*
X8469467Y-16214460D02*
X8459944Y-16204936D01*
X8698039Y-16023984D02*
X8717086Y-16023984D01*
X8717086Y-16023984D02*
X8736134Y-16033508D01*
X8736134Y-16033508D02*
X8745658Y-16043031D01*
X8745658Y-16043031D02*
X8755182Y-16062079D01*
X8755182Y-16062079D02*
X8764705Y-16100174D01*
X8764705Y-16100174D02*
X8764705Y-16147793D01*
X8764705Y-16147793D02*
X8755182Y-16185888D01*
X8755182Y-16185888D02*
X8745658Y-16204936D01*
X8745658Y-16204936D02*
X8736134Y-16214460D01*
X8736134Y-16214460D02*
X8717086Y-16223984D01*
X8717086Y-16223984D02*
X8698039Y-16223984D01*
X8698039Y-16223984D02*
X8678991Y-16214460D01*
X8678991Y-16214460D02*
X8669467Y-16204936D01*
X8669467Y-16204936D02*
X8659944Y-16185888D01*
X8659944Y-16185888D02*
X8650420Y-16147793D01*
X8650420Y-16147793D02*
X8650420Y-16100174D01*
X8650420Y-16100174D02*
X8659944Y-16062079D01*
X8659944Y-16062079D02*
X8669467Y-16043031D01*
X8669467Y-16043031D02*
X8678991Y-16033508D01*
X8678991Y-16033508D02*
X8698039Y-16023984D01*
X8850420Y-16223984D02*
X8850420Y-16090650D01*
X8850420Y-16109698D02*
X8859944Y-16100174D01*
X8859944Y-16100174D02*
X8878991Y-16090650D01*
X8878991Y-16090650D02*
X8907563Y-16090650D01*
X8907563Y-16090650D02*
X8926610Y-16100174D01*
X8926610Y-16100174D02*
X8936134Y-16119222D01*
X8936134Y-16119222D02*
X8936134Y-16223984D01*
X8936134Y-16119222D02*
X8945658Y-16100174D01*
X8945658Y-16100174D02*
X8964705Y-16090650D01*
X8964705Y-16090650D02*
X8993277Y-16090650D01*
X8993277Y-16090650D02*
X9012325Y-16100174D01*
X9012325Y-16100174D02*
X9021848Y-16119222D01*
X9021848Y-16119222D02*
X9021848Y-16223984D01*
X9117086Y-16223984D02*
X9117086Y-16090650D01*
X9117086Y-16109698D02*
X9126610Y-16100174D01*
X9126610Y-16100174D02*
X9145658Y-16090650D01*
X9145658Y-16090650D02*
X9174229Y-16090650D01*
X9174229Y-16090650D02*
X9193277Y-16100174D01*
X9193277Y-16100174D02*
X9202801Y-16119222D01*
X9202801Y-16119222D02*
X9202801Y-16223984D01*
X9202801Y-16119222D02*
X9212325Y-16100174D01*
X9212325Y-16100174D02*
X9231372Y-16090650D01*
X9231372Y-16090650D02*
X9259944Y-16090650D01*
X9259944Y-16090650D02*
X9278991Y-16100174D01*
X9278991Y-16100174D02*
X9288515Y-16119222D01*
X9288515Y-16119222D02*
X9288515Y-16223984D01*
X9678991Y-16014460D02*
X9507563Y-16271603D01*
X9936134Y-16023984D02*
X9955182Y-16023984D01*
X9955182Y-16023984D02*
X9974229Y-16033508D01*
X9974229Y-16033508D02*
X9983753Y-16043031D01*
X9983753Y-16043031D02*
X9993277Y-16062079D01*
X9993277Y-16062079D02*
X10002801Y-16100174D01*
X10002801Y-16100174D02*
X10002801Y-16147793D01*
X10002801Y-16147793D02*
X9993277Y-16185888D01*
X9993277Y-16185888D02*
X9983753Y-16204936D01*
X9983753Y-16204936D02*
X9974229Y-16214460D01*
X9974229Y-16214460D02*
X9955182Y-16223984D01*
X9955182Y-16223984D02*
X9936134Y-16223984D01*
X9936134Y-16223984D02*
X9917087Y-16214460D01*
X9917087Y-16214460D02*
X9907563Y-16204936D01*
X9907563Y-16204936D02*
X9898039Y-16185888D01*
X9898039Y-16185888D02*
X9888515Y-16147793D01*
X9888515Y-16147793D02*
X9888515Y-16100174D01*
X9888515Y-16100174D02*
X9898039Y-16062079D01*
X9898039Y-16062079D02*
X9907563Y-16043031D01*
X9907563Y-16043031D02*
X9917087Y-16033508D01*
X9917087Y-16033508D02*
X9936134Y-16023984D01*
X10088515Y-16204936D02*
X10098039Y-16214460D01*
X10098039Y-16214460D02*
X10088515Y-16223984D01*
X10088515Y-16223984D02*
X10078991Y-16214460D01*
X10078991Y-16214460D02*
X10088515Y-16204936D01*
X10088515Y-16204936D02*
X10088515Y-16223984D01*
X10221848Y-16023984D02*
X10240896Y-16023984D01*
X10240896Y-16023984D02*
X10259944Y-16033508D01*
X10259944Y-16033508D02*
X10269468Y-16043031D01*
X10269468Y-16043031D02*
X10278991Y-16062079D01*
X10278991Y-16062079D02*
X10288515Y-16100174D01*
X10288515Y-16100174D02*
X10288515Y-16147793D01*
X10288515Y-16147793D02*
X10278991Y-16185888D01*
X10278991Y-16185888D02*
X10269468Y-16204936D01*
X10269468Y-16204936D02*
X10259944Y-16214460D01*
X10259944Y-16214460D02*
X10240896Y-16223984D01*
X10240896Y-16223984D02*
X10221848Y-16223984D01*
X10221848Y-16223984D02*
X10202801Y-16214460D01*
X10202801Y-16214460D02*
X10193277Y-16204936D01*
X10193277Y-16204936D02*
X10183753Y-16185888D01*
X10183753Y-16185888D02*
X10174229Y-16147793D01*
X10174229Y-16147793D02*
X10174229Y-16100174D01*
X10174229Y-16100174D02*
X10183753Y-16062079D01*
X10183753Y-16062079D02*
X10193277Y-16043031D01*
X10193277Y-16043031D02*
X10202801Y-16033508D01*
X10202801Y-16033508D02*
X10221848Y-16023984D01*
X10364706Y-16043031D02*
X10374229Y-16033508D01*
X10374229Y-16033508D02*
X10393277Y-16023984D01*
X10393277Y-16023984D02*
X10440896Y-16023984D01*
X10440896Y-16023984D02*
X10459944Y-16033508D01*
X10459944Y-16033508D02*
X10469468Y-16043031D01*
X10469468Y-16043031D02*
X10478991Y-16062079D01*
X10478991Y-16062079D02*
X10478991Y-16081127D01*
X10478991Y-16081127D02*
X10469468Y-16109698D01*
X10469468Y-16109698D02*
X10355182Y-16223984D01*
X10355182Y-16223984D02*
X10478991Y-16223984D01*
X10659944Y-16023984D02*
X10564706Y-16023984D01*
X10564706Y-16023984D02*
X10555182Y-16119222D01*
X10555182Y-16119222D02*
X10564706Y-16109698D01*
X10564706Y-16109698D02*
X10583753Y-16100174D01*
X10583753Y-16100174D02*
X10631372Y-16100174D01*
X10631372Y-16100174D02*
X10650420Y-16109698D01*
X10650420Y-16109698D02*
X10659944Y-16119222D01*
X10659944Y-16119222D02*
X10669468Y-16138269D01*
X10669468Y-16138269D02*
X10669468Y-16185888D01*
X10669468Y-16185888D02*
X10659944Y-16204936D01*
X10659944Y-16204936D02*
X10650420Y-16214460D01*
X10650420Y-16214460D02*
X10631372Y-16223984D01*
X10631372Y-16223984D02*
X10583753Y-16223984D01*
X10583753Y-16223984D02*
X10564706Y-16214460D01*
X10564706Y-16214460D02*
X10555182Y-16204936D01*
X10840896Y-16023984D02*
X10802801Y-16023984D01*
X10802801Y-16023984D02*
X10783753Y-16033508D01*
X10783753Y-16033508D02*
X10774229Y-16043031D01*
X10774229Y-16043031D02*
X10755182Y-16071603D01*
X10755182Y-16071603D02*
X10745658Y-16109698D01*
X10745658Y-16109698D02*
X10745658Y-16185888D01*
X10745658Y-16185888D02*
X10755182Y-16204936D01*
X10755182Y-16204936D02*
X10764706Y-16214460D01*
X10764706Y-16214460D02*
X10783753Y-16223984D01*
X10783753Y-16223984D02*
X10821849Y-16223984D01*
X10821849Y-16223984D02*
X10840896Y-16214460D01*
X10840896Y-16214460D02*
X10850420Y-16204936D01*
X10850420Y-16204936D02*
X10859944Y-16185888D01*
X10859944Y-16185888D02*
X10859944Y-16138269D01*
X10859944Y-16138269D02*
X10850420Y-16119222D01*
X10850420Y-16119222D02*
X10840896Y-16109698D01*
X10840896Y-16109698D02*
X10821849Y-16100174D01*
X10821849Y-16100174D02*
X10783753Y-16100174D01*
X10783753Y-16100174D02*
X10764706Y-16109698D01*
X10764706Y-16109698D02*
X10755182Y-16119222D01*
X10755182Y-16119222D02*
X10745658Y-16138269D01*
X10936134Y-16023984D02*
X10936134Y-16062079D01*
X11012325Y-16023984D02*
X11012325Y-16062079D01*
X11307563Y-16300174D02*
X11298039Y-16290650D01*
X11298039Y-16290650D02*
X11278991Y-16262079D01*
X11278991Y-16262079D02*
X11269468Y-16243031D01*
X11269468Y-16243031D02*
X11259944Y-16214460D01*
X11259944Y-16214460D02*
X11250420Y-16166841D01*
X11250420Y-16166841D02*
X11250420Y-16128746D01*
X11250420Y-16128746D02*
X11259944Y-16081127D01*
X11259944Y-16081127D02*
X11269468Y-16052555D01*
X11269468Y-16052555D02*
X11278991Y-16033508D01*
X11278991Y-16033508D02*
X11298039Y-16004936D01*
X11298039Y-16004936D02*
X11307563Y-15995412D01*
X11374229Y-16043031D02*
X11383753Y-16033508D01*
X11383753Y-16033508D02*
X11402801Y-16023984D01*
X11402801Y-16023984D02*
X11450420Y-16023984D01*
X11450420Y-16023984D02*
X11469468Y-16033508D01*
X11469468Y-16033508D02*
X11478991Y-16043031D01*
X11478991Y-16043031D02*
X11488515Y-16062079D01*
X11488515Y-16062079D02*
X11488515Y-16081127D01*
X11488515Y-16081127D02*
X11478991Y-16109698D01*
X11478991Y-16109698D02*
X11364706Y-16223984D01*
X11364706Y-16223984D02*
X11488515Y-16223984D01*
X11726610Y-16223984D02*
X11726610Y-16023984D01*
X11812325Y-16223984D02*
X11812325Y-16119222D01*
X11812325Y-16119222D02*
X11802801Y-16100174D01*
X11802801Y-16100174D02*
X11783753Y-16090650D01*
X11783753Y-16090650D02*
X11755182Y-16090650D01*
X11755182Y-16090650D02*
X11736134Y-16100174D01*
X11736134Y-16100174D02*
X11726610Y-16109698D01*
X11936134Y-16223984D02*
X11917087Y-16214460D01*
X11917087Y-16214460D02*
X11907563Y-16204936D01*
X11907563Y-16204936D02*
X11898039Y-16185888D01*
X11898039Y-16185888D02*
X11898039Y-16128746D01*
X11898039Y-16128746D02*
X11907563Y-16109698D01*
X11907563Y-16109698D02*
X11917087Y-16100174D01*
X11917087Y-16100174D02*
X11936134Y-16090650D01*
X11936134Y-16090650D02*
X11964706Y-16090650D01*
X11964706Y-16090650D02*
X11983753Y-16100174D01*
X11983753Y-16100174D02*
X11993277Y-16109698D01*
X11993277Y-16109698D02*
X12002801Y-16128746D01*
X12002801Y-16128746D02*
X12002801Y-16185888D01*
X12002801Y-16185888D02*
X11993277Y-16204936D01*
X11993277Y-16204936D02*
X11983753Y-16214460D01*
X11983753Y-16214460D02*
X11964706Y-16223984D01*
X11964706Y-16223984D02*
X11936134Y-16223984D01*
X12117087Y-16223984D02*
X12098039Y-16214460D01*
X12098039Y-16214460D02*
X12088515Y-16195412D01*
X12088515Y-16195412D02*
X12088515Y-16023984D01*
X12269468Y-16214460D02*
X12250420Y-16223984D01*
X12250420Y-16223984D02*
X12212325Y-16223984D01*
X12212325Y-16223984D02*
X12193277Y-16214460D01*
X12193277Y-16214460D02*
X12183753Y-16195412D01*
X12183753Y-16195412D02*
X12183753Y-16119222D01*
X12183753Y-16119222D02*
X12193277Y-16100174D01*
X12193277Y-16100174D02*
X12212325Y-16090650D01*
X12212325Y-16090650D02*
X12250420Y-16090650D01*
X12250420Y-16090650D02*
X12269468Y-16100174D01*
X12269468Y-16100174D02*
X12278991Y-16119222D01*
X12278991Y-16119222D02*
X12278991Y-16138269D01*
X12278991Y-16138269D02*
X12183753Y-16157317D01*
X12355182Y-16214460D02*
X12374230Y-16223984D01*
X12374230Y-16223984D02*
X12412325Y-16223984D01*
X12412325Y-16223984D02*
X12431372Y-16214460D01*
X12431372Y-16214460D02*
X12440896Y-16195412D01*
X12440896Y-16195412D02*
X12440896Y-16185888D01*
X12440896Y-16185888D02*
X12431372Y-16166841D01*
X12431372Y-16166841D02*
X12412325Y-16157317D01*
X12412325Y-16157317D02*
X12383753Y-16157317D01*
X12383753Y-16157317D02*
X12364706Y-16147793D01*
X12364706Y-16147793D02*
X12355182Y-16128746D01*
X12355182Y-16128746D02*
X12355182Y-16119222D01*
X12355182Y-16119222D02*
X12364706Y-16100174D01*
X12364706Y-16100174D02*
X12383753Y-16090650D01*
X12383753Y-16090650D02*
X12412325Y-16090650D01*
X12412325Y-16090650D02*
X12431372Y-16100174D01*
X12507563Y-16300174D02*
X12517087Y-16290650D01*
X12517087Y-16290650D02*
X12536134Y-16262079D01*
X12536134Y-16262079D02*
X12545658Y-16243031D01*
X12545658Y-16243031D02*
X12555182Y-16214460D01*
X12555182Y-16214460D02*
X12564706Y-16166841D01*
X12564706Y-16166841D02*
X12564706Y-16128746D01*
X12564706Y-16128746D02*
X12555182Y-16081127D01*
X12555182Y-16081127D02*
X12545658Y-16052555D01*
X12545658Y-16052555D02*
X12536134Y-16033508D01*
X12536134Y-16033508D02*
X12517087Y-16004936D01*
X12517087Y-16004936D02*
X12507563Y-15995412D01*
X12869468Y-16300174D02*
X12859944Y-16290650D01*
X12859944Y-16290650D02*
X12840896Y-16262079D01*
X12840896Y-16262079D02*
X12831372Y-16243031D01*
X12831372Y-16243031D02*
X12821849Y-16214460D01*
X12821849Y-16214460D02*
X12812325Y-16166841D01*
X12812325Y-16166841D02*
X12812325Y-16128746D01*
X12812325Y-16128746D02*
X12821849Y-16081127D01*
X12821849Y-16081127D02*
X12831372Y-16052555D01*
X12831372Y-16052555D02*
X12840896Y-16033508D01*
X12840896Y-16033508D02*
X12859944Y-16004936D01*
X12859944Y-16004936D02*
X12869468Y-15995412D01*
X12945658Y-16090650D02*
X12945658Y-16223984D01*
X12945658Y-16109698D02*
X12955182Y-16100174D01*
X12955182Y-16100174D02*
X12974230Y-16090650D01*
X12974230Y-16090650D02*
X13002801Y-16090650D01*
X13002801Y-16090650D02*
X13021849Y-16100174D01*
X13021849Y-16100174D02*
X13031372Y-16119222D01*
X13031372Y-16119222D02*
X13031372Y-16223984D01*
X13155182Y-16223984D02*
X13136134Y-16214460D01*
X13136134Y-16214460D02*
X13126611Y-16204936D01*
X13126611Y-16204936D02*
X13117087Y-16185888D01*
X13117087Y-16185888D02*
X13117087Y-16128746D01*
X13117087Y-16128746D02*
X13126611Y-16109698D01*
X13126611Y-16109698D02*
X13136134Y-16100174D01*
X13136134Y-16100174D02*
X13155182Y-16090650D01*
X13155182Y-16090650D02*
X13183753Y-16090650D01*
X13183753Y-16090650D02*
X13202801Y-16100174D01*
X13202801Y-16100174D02*
X13212325Y-16109698D01*
X13212325Y-16109698D02*
X13221849Y-16128746D01*
X13221849Y-16128746D02*
X13221849Y-16185888D01*
X13221849Y-16185888D02*
X13212325Y-16204936D01*
X13212325Y-16204936D02*
X13202801Y-16214460D01*
X13202801Y-16214460D02*
X13183753Y-16223984D01*
X13183753Y-16223984D02*
X13155182Y-16223984D01*
X13278992Y-16090650D02*
X13355182Y-16090650D01*
X13307563Y-16023984D02*
X13307563Y-16195412D01*
X13307563Y-16195412D02*
X13317087Y-16214460D01*
X13317087Y-16214460D02*
X13336134Y-16223984D01*
X13336134Y-16223984D02*
X13355182Y-16223984D01*
X13574230Y-16090650D02*
X13574230Y-16290650D01*
X13574230Y-16100174D02*
X13593277Y-16090650D01*
X13593277Y-16090650D02*
X13631373Y-16090650D01*
X13631373Y-16090650D02*
X13650420Y-16100174D01*
X13650420Y-16100174D02*
X13659944Y-16109698D01*
X13659944Y-16109698D02*
X13669468Y-16128746D01*
X13669468Y-16128746D02*
X13669468Y-16185888D01*
X13669468Y-16185888D02*
X13659944Y-16204936D01*
X13659944Y-16204936D02*
X13650420Y-16214460D01*
X13650420Y-16214460D02*
X13631373Y-16223984D01*
X13631373Y-16223984D02*
X13593277Y-16223984D01*
X13593277Y-16223984D02*
X13574230Y-16214460D01*
X13783753Y-16223984D02*
X13764706Y-16214460D01*
X13764706Y-16214460D02*
X13755182Y-16195412D01*
X13755182Y-16195412D02*
X13755182Y-16023984D01*
X13945658Y-16223984D02*
X13945658Y-16119222D01*
X13945658Y-16119222D02*
X13936134Y-16100174D01*
X13936134Y-16100174D02*
X13917087Y-16090650D01*
X13917087Y-16090650D02*
X13878992Y-16090650D01*
X13878992Y-16090650D02*
X13859944Y-16100174D01*
X13945658Y-16214460D02*
X13926611Y-16223984D01*
X13926611Y-16223984D02*
X13878992Y-16223984D01*
X13878992Y-16223984D02*
X13859944Y-16214460D01*
X13859944Y-16214460D02*
X13850420Y-16195412D01*
X13850420Y-16195412D02*
X13850420Y-16176365D01*
X13850420Y-16176365D02*
X13859944Y-16157317D01*
X13859944Y-16157317D02*
X13878992Y-16147793D01*
X13878992Y-16147793D02*
X13926611Y-16147793D01*
X13926611Y-16147793D02*
X13945658Y-16138269D01*
X14012325Y-16090650D02*
X14088515Y-16090650D01*
X14040896Y-16023984D02*
X14040896Y-16195412D01*
X14040896Y-16195412D02*
X14050420Y-16214460D01*
X14050420Y-16214460D02*
X14069468Y-16223984D01*
X14069468Y-16223984D02*
X14088515Y-16223984D01*
X14231373Y-16214460D02*
X14212325Y-16223984D01*
X14212325Y-16223984D02*
X14174230Y-16223984D01*
X14174230Y-16223984D02*
X14155182Y-16214460D01*
X14155182Y-16214460D02*
X14145658Y-16195412D01*
X14145658Y-16195412D02*
X14145658Y-16119222D01*
X14145658Y-16119222D02*
X14155182Y-16100174D01*
X14155182Y-16100174D02*
X14174230Y-16090650D01*
X14174230Y-16090650D02*
X14212325Y-16090650D01*
X14212325Y-16090650D02*
X14231373Y-16100174D01*
X14231373Y-16100174D02*
X14240896Y-16119222D01*
X14240896Y-16119222D02*
X14240896Y-16138269D01*
X14240896Y-16138269D02*
X14145658Y-16157317D01*
X14412325Y-16223984D02*
X14412325Y-16023984D01*
X14412325Y-16214460D02*
X14393277Y-16223984D01*
X14393277Y-16223984D02*
X14355182Y-16223984D01*
X14355182Y-16223984D02*
X14336134Y-16214460D01*
X14336134Y-16214460D02*
X14326611Y-16204936D01*
X14326611Y-16204936D02*
X14317087Y-16185888D01*
X14317087Y-16185888D02*
X14317087Y-16128746D01*
X14317087Y-16128746D02*
X14326611Y-16109698D01*
X14326611Y-16109698D02*
X14336134Y-16100174D01*
X14336134Y-16100174D02*
X14355182Y-16090650D01*
X14355182Y-16090650D02*
X14393277Y-16090650D01*
X14393277Y-16090650D02*
X14412325Y-16100174D01*
X14488515Y-16300174D02*
X14498039Y-16290650D01*
X14498039Y-16290650D02*
X14517087Y-16262079D01*
X14517087Y-16262079D02*
X14526611Y-16243031D01*
X14526611Y-16243031D02*
X14536134Y-16214460D01*
X14536134Y-16214460D02*
X14545658Y-16166841D01*
X14545658Y-16166841D02*
X14545658Y-16128746D01*
X14545658Y-16128746D02*
X14536134Y-16081127D01*
X14536134Y-16081127D02*
X14526611Y-16052555D01*
X14526611Y-16052555D02*
X14517087Y-16033508D01*
X14517087Y-16033508D02*
X14498039Y-16004936D01*
X14498039Y-16004936D02*
X14488515Y-15995412D01*
M02*
