%TF.GenerationSoftware,KiCad,Pcbnew,8.0.7-8.0.7-0~ubuntu24.04.1*%
%TF.CreationDate,2024-12-13T16:46:42+09:00*%
%TF.ProjectId,MRM5-tester,4d524d35-2d74-4657-9374-65722e6b6963,rev?*%
%TF.SameCoordinates,Original*%
%TF.FileFunction,Soldermask,Top*%
%TF.FilePolarity,Negative*%
%FSLAX46Y46*%
G04 Gerber Fmt 4.6, Leading zero omitted, Abs format (unit mm)*
G04 Created by KiCad (PCBNEW 8.0.7-8.0.7-0~ubuntu24.04.1) date 2024-12-13 16:46:42*
%MOMM*%
%LPD*%
G01*
G04 APERTURE LIST*
G04 Aperture macros list*
%AMRoundRect*
0 Rectangle with rounded corners*
0 $1 Rounding radius*
0 $2 $3 $4 $5 $6 $7 $8 $9 X,Y pos of 4 corners*
0 Add a 4 corners polygon primitive as box body*
4,1,4,$2,$3,$4,$5,$6,$7,$8,$9,$2,$3,0*
0 Add four circle primitives for the rounded corners*
1,1,$1+$1,$2,$3*
1,1,$1+$1,$4,$5*
1,1,$1+$1,$6,$7*
1,1,$1+$1,$8,$9*
0 Add four rect primitives between the rounded corners*
20,1,$1+$1,$2,$3,$4,$5,0*
20,1,$1+$1,$4,$5,$6,$7,0*
20,1,$1+$1,$6,$7,$8,$9,0*
20,1,$1+$1,$8,$9,$2,$3,0*%
G04 Aperture macros list end*
%ADD10C,3.500000*%
%ADD11C,5.460000*%
%ADD12C,4.740000*%
%ADD13R,1.475000X0.450000*%
%ADD14R,1.700000X1.700000*%
%ADD15O,1.700000X1.700000*%
%ADD16R,2.160000X3.350000*%
%ADD17C,2.000000*%
%ADD18R,1.500000X1.500000*%
%ADD19C,1.500000*%
%ADD20RoundRect,0.250000X0.625000X-0.375000X0.625000X0.375000X-0.625000X0.375000X-0.625000X-0.375000X0*%
%ADD21RoundRect,0.250000X0.325000X0.650000X-0.325000X0.650000X-0.325000X-0.650000X0.325000X-0.650000X0*%
%ADD22RoundRect,0.135000X-0.185000X0.135000X-0.185000X-0.135000X0.185000X-0.135000X0.185000X0.135000X0*%
%ADD23RoundRect,0.225000X0.250000X-0.225000X0.250000X0.225000X-0.250000X0.225000X-0.250000X-0.225000X0*%
%ADD24C,1.200000*%
%ADD25RoundRect,0.225000X0.225000X0.250000X-0.225000X0.250000X-0.225000X-0.250000X0.225000X-0.250000X0*%
%ADD26C,1.600000*%
%ADD27RoundRect,0.135000X0.135000X0.185000X-0.135000X0.185000X-0.135000X-0.185000X0.135000X-0.185000X0*%
%ADD28C,1.400000*%
%ADD29R,0.300000X1.050000*%
%ADD30R,1.050000X0.300000*%
%ADD31R,3.220000X3.220000*%
%ADD32C,2.400000*%
%ADD33O,2.400000X2.400000*%
%ADD34C,0.650000*%
G04 APERTURE END LIST*
D10*
%TO.C,P3*%
X109800000Y-120800000D03*
%TD*%
D11*
%TO.C,J1*%
X195800000Y-53300000D03*
D12*
X195800000Y-47300000D03*
%TD*%
D13*
%TO.C,IC1*%
X105762000Y-70175000D03*
X105762000Y-70825000D03*
X105762000Y-71475000D03*
X105762000Y-72125000D03*
X105762000Y-72775000D03*
X105762000Y-73425000D03*
X105762000Y-74075000D03*
X105762000Y-74725000D03*
X105762000Y-75375000D03*
X105762000Y-76025000D03*
X111638000Y-76025000D03*
X111638000Y-75375000D03*
X111638000Y-74725000D03*
X111638000Y-74075000D03*
X111638000Y-73425000D03*
X111638000Y-72775000D03*
X111638000Y-72125000D03*
X111638000Y-71475000D03*
X111638000Y-70825000D03*
X111638000Y-70175000D03*
%TD*%
D14*
%TO.C,J8*%
X176200000Y-49000000D03*
D15*
X178740000Y-49000000D03*
%TD*%
D16*
%TO.C,SW3*%
X107200000Y-90550000D03*
X107200000Y-80700000D03*
%TD*%
D17*
%TO.C,TP1*%
X127100000Y-116300000D03*
%TD*%
%TO.C,TP2*%
X109700000Y-103700000D03*
%TD*%
D14*
%TO.C,J9*%
X216626722Y-111008843D03*
D15*
X216626722Y-108468843D03*
%TD*%
D10*
%TO.C,P1*%
X169200000Y-150000000D03*
%TD*%
D16*
%TO.C,SW1*%
X101400000Y-90550000D03*
X101400000Y-80700000D03*
%TD*%
D18*
%TO.C,T1*%
X201650000Y-96400000D03*
D19*
X201650000Y-103600000D03*
X217950000Y-96400000D03*
X217950000Y-103600000D03*
%TD*%
D16*
%TO.C,SW2*%
X95600000Y-90550000D03*
X95600000Y-80700000D03*
%TD*%
D18*
%TO.C,RT1*%
X176200000Y-145550000D03*
D19*
X176200000Y-138050000D03*
%TD*%
D20*
%TO.C,LED7*%
X81000000Y-134202000D03*
X81000000Y-131402000D03*
%TD*%
D18*
%TO.C,PS1*%
X172700000Y-104800000D03*
D19*
X191000000Y-104800000D03*
X170400000Y-63200000D03*
X191000000Y-63200000D03*
%TD*%
D20*
%TO.C,LED2*%
X81000000Y-78533670D03*
X81000000Y-75733670D03*
%TD*%
D21*
%TO.C,C23*%
X122428000Y-85090000D03*
X119478000Y-85090000D03*
%TD*%
D14*
%TO.C,J4*%
X124150000Y-104450000D03*
D15*
X124150000Y-101910000D03*
%TD*%
D20*
%TO.C,LED1*%
X81000000Y-67400000D03*
X81000000Y-64600000D03*
%TD*%
D22*
%TO.C,R27*%
X119000000Y-96390000D03*
X119000000Y-97410000D03*
%TD*%
D20*
%TO.C,LED6*%
X81000000Y-111934668D03*
X81000000Y-109134668D03*
%TD*%
D23*
%TO.C,C1*%
X99100000Y-73950000D03*
X99100000Y-72400000D03*
%TD*%
D24*
%TO.C,R17*%
X188366369Y-125233631D03*
X200033631Y-113566369D03*
%TD*%
D25*
%TO.C,C25*%
X130600000Y-81200000D03*
X129050000Y-81200000D03*
%TD*%
%TO.C,C21*%
X130600000Y-85100000D03*
X129050000Y-85100000D03*
%TD*%
D20*
%TO.C,LED3*%
X81000000Y-89667336D03*
X81000000Y-86867336D03*
%TD*%
%TO.C,LED5*%
X81000000Y-123068334D03*
X81000000Y-120268334D03*
%TD*%
D10*
%TO.C,P2*%
X201600000Y-150000000D03*
%TD*%
D17*
%TO.C,TP3*%
X119700000Y-116300000D03*
%TD*%
D18*
%TO.C,RV1*%
X201350000Y-143380000D03*
D19*
X193850000Y-143380000D03*
%TD*%
D21*
%TO.C,C22*%
X122509000Y-81041500D03*
X119559000Y-81041500D03*
%TD*%
D22*
%TO.C,R25*%
X123374000Y-96406000D03*
X123374000Y-97426000D03*
%TD*%
D23*
%TO.C,C2*%
X101000000Y-73975000D03*
X101000000Y-72425000D03*
%TD*%
D26*
%TO.C,C26*%
X178600000Y-55000000D03*
X176100000Y-55000000D03*
%TD*%
D27*
%TO.C,R26*%
X127394000Y-93736000D03*
X126374000Y-93736000D03*
%TD*%
D18*
%TO.C,C20*%
X202525000Y-135800000D03*
D19*
X187525000Y-135800000D03*
%TD*%
D20*
%TO.C,LED4*%
X81000000Y-100801002D03*
X81000000Y-98001002D03*
%TD*%
D28*
%TO.C,FL1*%
X169800000Y-127400000D03*
X179800000Y-127400000D03*
X179800000Y-114400000D03*
X169800000Y-114400000D03*
%TD*%
D29*
%TO.C,IC4*%
X123174000Y-88836000D03*
X122174000Y-88836000D03*
X121174000Y-88836000D03*
D30*
X119824000Y-90186000D03*
X119824000Y-91186000D03*
X119824000Y-92186000D03*
D29*
X121174000Y-93536000D03*
X122174000Y-93536000D03*
X123174000Y-93536000D03*
D30*
X124524000Y-92186000D03*
X124524000Y-91186000D03*
X124524000Y-90186000D03*
D31*
X122174000Y-91186000D03*
%TD*%
D32*
%TO.C,R24*%
X113730000Y-103800000D03*
D33*
X90870000Y-103800000D03*
%TD*%
D14*
%TO.C,J10*%
X144000000Y-111000000D03*
D15*
X144000000Y-108460000D03*
%TD*%
D14*
%TO.C,J5*%
X103547293Y-49018038D03*
D15*
X106087293Y-49018038D03*
%TD*%
D14*
%TO.C,J6*%
X130240000Y-72300000D03*
D15*
X130240000Y-74840000D03*
X127700000Y-72300000D03*
X127700000Y-74840000D03*
X125160000Y-72300000D03*
X125160000Y-74840000D03*
X122620000Y-72300000D03*
X122620000Y-74840000D03*
X120080000Y-72300000D03*
X120080000Y-74840000D03*
%TD*%
D18*
%TO.C,VR2*%
X143025000Y-69300000D03*
D19*
X143025000Y-71800000D03*
X143025000Y-74300000D03*
%TD*%
D10*
%TO.C,P4*%
X122300000Y-120700000D03*
%TD*%
D19*
%TO.C,VR1*%
X143125000Y-91075000D03*
X143125000Y-93575000D03*
X143125000Y-96075000D03*
X140625000Y-91075000D03*
X140625000Y-93575000D03*
X140625000Y-96075000D03*
%TD*%
D34*
%TO.C,J3*%
X118790000Y-49100000D03*
X124570000Y-49100000D03*
%TD*%
M02*
