%TF.GenerationSoftware,KiCad,Pcbnew,8.0.7-8.0.7-0~ubuntu24.04.1*%
%TF.CreationDate,2024-12-10T19:47:53+09:00*%
%TF.ProjectId,MRM5-tester,4d524d35-2d74-4657-9374-65722e6b6963,rev?*%
%TF.SameCoordinates,Original*%
%TF.FileFunction,Legend,Top*%
%TF.FilePolarity,Positive*%
%FSLAX46Y46*%
G04 Gerber Fmt 4.6, Leading zero omitted, Abs format (unit mm)*
G04 Created by KiCad (PCBNEW 8.0.7-8.0.7-0~ubuntu24.04.1) date 2024-12-10 19:47:53*
%MOMM*%
%LPD*%
G01*
G04 APERTURE LIST*
%ADD10C,0.100000*%
%ADD11C,0.254000*%
%ADD12C,0.150000*%
%ADD13C,0.200000*%
%ADD14C,0.120000*%
%ADD15C,0.127000*%
%ADD16C,0.000000*%
%ADD17C,0.125000*%
%ADD18R,1.500000X1.500000*%
%ADD19C,1.500000*%
%ADD20C,1.200000*%
G04 APERTURE END LIST*
D10*
X147828000Y-114300000D02*
X154432000Y-114300000D01*
X154432000Y-128524000D01*
X147828000Y-128524000D01*
X147828000Y-114300000D01*
X147668000Y-132080000D02*
G75*
G02*
X137668000Y-132080000I-5000000J0D01*
G01*
X137668000Y-132080000D02*
G75*
G02*
X147668000Y-132080000I5000000J0D01*
G01*
X148082000Y-114554000D02*
X154178000Y-114554000D01*
X154178000Y-128270000D01*
X148082000Y-128270000D01*
X148082000Y-114554000D01*
X148082000Y-114554000D02*
X154178000Y-114554000D01*
X154178000Y-121412000D01*
X148082000Y-121412000D01*
X148082000Y-114554000D01*
X104759580Y-113583353D02*
X104759580Y-112964306D01*
X104759580Y-112964306D02*
X104378628Y-113297639D01*
X104378628Y-113297639D02*
X104378628Y-113154782D01*
X104378628Y-113154782D02*
X104331009Y-113059544D01*
X104331009Y-113059544D02*
X104283390Y-113011925D01*
X104283390Y-113011925D02*
X104188152Y-112964306D01*
X104188152Y-112964306D02*
X103950057Y-112964306D01*
X103950057Y-112964306D02*
X103854819Y-113011925D01*
X103854819Y-113011925D02*
X103807200Y-113059544D01*
X103807200Y-113059544D02*
X103759580Y-113154782D01*
X103759580Y-113154782D02*
X103759580Y-113440496D01*
X103759580Y-113440496D02*
X103807200Y-113535734D01*
X103807200Y-113535734D02*
X103854819Y-113583353D01*
X103854819Y-112535734D02*
X103807200Y-112488115D01*
X103807200Y-112488115D02*
X103759580Y-112535734D01*
X103759580Y-112535734D02*
X103807200Y-112583353D01*
X103807200Y-112583353D02*
X103854819Y-112535734D01*
X103854819Y-112535734D02*
X103759580Y-112535734D01*
X104759580Y-112154782D02*
X104759580Y-111535735D01*
X104759580Y-111535735D02*
X104378628Y-111869068D01*
X104378628Y-111869068D02*
X104378628Y-111726211D01*
X104378628Y-111726211D02*
X104331009Y-111630973D01*
X104331009Y-111630973D02*
X104283390Y-111583354D01*
X104283390Y-111583354D02*
X104188152Y-111535735D01*
X104188152Y-111535735D02*
X103950057Y-111535735D01*
X103950057Y-111535735D02*
X103854819Y-111583354D01*
X103854819Y-111583354D02*
X103807200Y-111630973D01*
X103807200Y-111630973D02*
X103759580Y-111726211D01*
X103759580Y-111726211D02*
X103759580Y-112011925D01*
X103759580Y-112011925D02*
X103807200Y-112107163D01*
X103807200Y-112107163D02*
X103854819Y-112154782D01*
X104759580Y-111250020D02*
X103759580Y-110916687D01*
X103759580Y-110916687D02*
X104759580Y-110583354D01*
X103759580Y-108964306D02*
X103759580Y-109535734D01*
X103759580Y-109250020D02*
X104759580Y-109250020D01*
X104759580Y-109250020D02*
X104616723Y-109345258D01*
X104616723Y-109345258D02*
X104521485Y-109440496D01*
X104521485Y-109440496D02*
X104473866Y-109535734D01*
X104045295Y-108583353D02*
X104045295Y-108107163D01*
X103759580Y-108678591D02*
X104759580Y-108345258D01*
X104759580Y-108345258D02*
X103759580Y-108011925D01*
X167547027Y-112324475D02*
X167880360Y-113324475D01*
X167880360Y-113324475D02*
X168213693Y-112324475D01*
X169070836Y-113324475D02*
X168499408Y-113324475D01*
X168785122Y-113324475D02*
X168785122Y-112324475D01*
X168785122Y-112324475D02*
X168689884Y-112467332D01*
X168689884Y-112467332D02*
X168594646Y-112562570D01*
X168594646Y-112562570D02*
X168499408Y-112610189D01*
X169499408Y-113229236D02*
X169547027Y-113276856D01*
X169547027Y-113276856D02*
X169499408Y-113324475D01*
X169499408Y-113324475D02*
X169451789Y-113276856D01*
X169451789Y-113276856D02*
X169499408Y-113229236D01*
X169499408Y-113229236D02*
X169499408Y-113324475D01*
X170166074Y-112324475D02*
X170261312Y-112324475D01*
X170261312Y-112324475D02*
X170356550Y-112372094D01*
X170356550Y-112372094D02*
X170404169Y-112419713D01*
X170404169Y-112419713D02*
X170451788Y-112514951D01*
X170451788Y-112514951D02*
X170499407Y-112705427D01*
X170499407Y-112705427D02*
X170499407Y-112943522D01*
X170499407Y-112943522D02*
X170451788Y-113133998D01*
X170451788Y-113133998D02*
X170404169Y-113229236D01*
X170404169Y-113229236D02*
X170356550Y-113276856D01*
X170356550Y-113276856D02*
X170261312Y-113324475D01*
X170261312Y-113324475D02*
X170166074Y-113324475D01*
X170166074Y-113324475D02*
X170070836Y-113276856D01*
X170070836Y-113276856D02*
X170023217Y-113229236D01*
X170023217Y-113229236D02*
X169975598Y-113133998D01*
X169975598Y-113133998D02*
X169927979Y-112943522D01*
X169927979Y-112943522D02*
X169927979Y-112705427D01*
X169927979Y-112705427D02*
X169975598Y-112514951D01*
X169975598Y-112514951D02*
X170023217Y-112419713D01*
X170023217Y-112419713D02*
X170070836Y-112372094D01*
X170070836Y-112372094D02*
X170166074Y-112324475D01*
X170927979Y-113229236D02*
X170975598Y-113276856D01*
X170975598Y-113276856D02*
X170927979Y-113324475D01*
X170927979Y-113324475D02*
X170880360Y-113276856D01*
X170880360Y-113276856D02*
X170927979Y-113229236D01*
X170927979Y-113229236D02*
X170927979Y-113324475D01*
X171594645Y-112324475D02*
X171689883Y-112324475D01*
X171689883Y-112324475D02*
X171785121Y-112372094D01*
X171785121Y-112372094D02*
X171832740Y-112419713D01*
X171832740Y-112419713D02*
X171880359Y-112514951D01*
X171880359Y-112514951D02*
X171927978Y-112705427D01*
X171927978Y-112705427D02*
X171927978Y-112943522D01*
X171927978Y-112943522D02*
X171880359Y-113133998D01*
X171880359Y-113133998D02*
X171832740Y-113229236D01*
X171832740Y-113229236D02*
X171785121Y-113276856D01*
X171785121Y-113276856D02*
X171689883Y-113324475D01*
X171689883Y-113324475D02*
X171594645Y-113324475D01*
X171594645Y-113324475D02*
X171499407Y-113276856D01*
X171499407Y-113276856D02*
X171451788Y-113229236D01*
X171451788Y-113229236D02*
X171404169Y-113133998D01*
X171404169Y-113133998D02*
X171356550Y-112943522D01*
X171356550Y-112943522D02*
X171356550Y-112705427D01*
X171356550Y-112705427D02*
X171404169Y-112514951D01*
X171404169Y-112514951D02*
X171451788Y-112419713D01*
X171451788Y-112419713D02*
X171499407Y-112372094D01*
X171499407Y-112372094D02*
X171594645Y-112324475D01*
X167642265Y-114029657D02*
X167689884Y-113982038D01*
X167689884Y-113982038D02*
X167785122Y-113934419D01*
X167785122Y-113934419D02*
X168023217Y-113934419D01*
X168023217Y-113934419D02*
X168118455Y-113982038D01*
X168118455Y-113982038D02*
X168166074Y-114029657D01*
X168166074Y-114029657D02*
X168213693Y-114124895D01*
X168213693Y-114124895D02*
X168213693Y-114220133D01*
X168213693Y-114220133D02*
X168166074Y-114362990D01*
X168166074Y-114362990D02*
X167594646Y-114934419D01*
X167594646Y-114934419D02*
X168213693Y-114934419D01*
X168832741Y-113934419D02*
X168927979Y-113934419D01*
X168927979Y-113934419D02*
X169023217Y-113982038D01*
X169023217Y-113982038D02*
X169070836Y-114029657D01*
X169070836Y-114029657D02*
X169118455Y-114124895D01*
X169118455Y-114124895D02*
X169166074Y-114315371D01*
X169166074Y-114315371D02*
X169166074Y-114553466D01*
X169166074Y-114553466D02*
X169118455Y-114743942D01*
X169118455Y-114743942D02*
X169070836Y-114839180D01*
X169070836Y-114839180D02*
X169023217Y-114886800D01*
X169023217Y-114886800D02*
X168927979Y-114934419D01*
X168927979Y-114934419D02*
X168832741Y-114934419D01*
X168832741Y-114934419D02*
X168737503Y-114886800D01*
X168737503Y-114886800D02*
X168689884Y-114839180D01*
X168689884Y-114839180D02*
X168642265Y-114743942D01*
X168642265Y-114743942D02*
X168594646Y-114553466D01*
X168594646Y-114553466D02*
X168594646Y-114315371D01*
X168594646Y-114315371D02*
X168642265Y-114124895D01*
X168642265Y-114124895D02*
X168689884Y-114029657D01*
X168689884Y-114029657D02*
X168737503Y-113982038D01*
X168737503Y-113982038D02*
X168832741Y-113934419D01*
X169547027Y-114029657D02*
X169594646Y-113982038D01*
X169594646Y-113982038D02*
X169689884Y-113934419D01*
X169689884Y-113934419D02*
X169927979Y-113934419D01*
X169927979Y-113934419D02*
X170023217Y-113982038D01*
X170023217Y-113982038D02*
X170070836Y-114029657D01*
X170070836Y-114029657D02*
X170118455Y-114124895D01*
X170118455Y-114124895D02*
X170118455Y-114220133D01*
X170118455Y-114220133D02*
X170070836Y-114362990D01*
X170070836Y-114362990D02*
X169499408Y-114934419D01*
X169499408Y-114934419D02*
X170118455Y-114934419D01*
X170975598Y-114267752D02*
X170975598Y-114934419D01*
X170737503Y-113886800D02*
X170499408Y-114601085D01*
X170499408Y-114601085D02*
X171118455Y-114601085D01*
X171499408Y-114839180D02*
X171547027Y-114886800D01*
X171547027Y-114886800D02*
X171499408Y-114934419D01*
X171499408Y-114934419D02*
X171451789Y-114886800D01*
X171451789Y-114886800D02*
X171499408Y-114839180D01*
X171499408Y-114839180D02*
X171499408Y-114934419D01*
X172499407Y-114934419D02*
X171927979Y-114934419D01*
X172213693Y-114934419D02*
X172213693Y-113934419D01*
X172213693Y-113934419D02*
X172118455Y-114077276D01*
X172118455Y-114077276D02*
X172023217Y-114172514D01*
X172023217Y-114172514D02*
X171927979Y-114220133D01*
X172880360Y-114029657D02*
X172927979Y-113982038D01*
X172927979Y-113982038D02*
X173023217Y-113934419D01*
X173023217Y-113934419D02*
X173261312Y-113934419D01*
X173261312Y-113934419D02*
X173356550Y-113982038D01*
X173356550Y-113982038D02*
X173404169Y-114029657D01*
X173404169Y-114029657D02*
X173451788Y-114124895D01*
X173451788Y-114124895D02*
X173451788Y-114220133D01*
X173451788Y-114220133D02*
X173404169Y-114362990D01*
X173404169Y-114362990D02*
X172832741Y-114934419D01*
X172832741Y-114934419D02*
X173451788Y-114934419D01*
X173880360Y-114839180D02*
X173927979Y-114886800D01*
X173927979Y-114886800D02*
X173880360Y-114934419D01*
X173880360Y-114934419D02*
X173832741Y-114886800D01*
X173832741Y-114886800D02*
X173880360Y-114839180D01*
X173880360Y-114839180D02*
X173880360Y-114934419D01*
X174880359Y-114934419D02*
X174308931Y-114934419D01*
X174594645Y-114934419D02*
X174594645Y-113934419D01*
X174594645Y-113934419D02*
X174499407Y-114077276D01*
X174499407Y-114077276D02*
X174404169Y-114172514D01*
X174404169Y-114172514D02*
X174308931Y-114220133D01*
X175499407Y-113934419D02*
X175594645Y-113934419D01*
X175594645Y-113934419D02*
X175689883Y-113982038D01*
X175689883Y-113982038D02*
X175737502Y-114029657D01*
X175737502Y-114029657D02*
X175785121Y-114124895D01*
X175785121Y-114124895D02*
X175832740Y-114315371D01*
X175832740Y-114315371D02*
X175832740Y-114553466D01*
X175832740Y-114553466D02*
X175785121Y-114743942D01*
X175785121Y-114743942D02*
X175737502Y-114839180D01*
X175737502Y-114839180D02*
X175689883Y-114886800D01*
X175689883Y-114886800D02*
X175594645Y-114934419D01*
X175594645Y-114934419D02*
X175499407Y-114934419D01*
X175499407Y-114934419D02*
X175404169Y-114886800D01*
X175404169Y-114886800D02*
X175356550Y-114839180D01*
X175356550Y-114839180D02*
X175308931Y-114743942D01*
X175308931Y-114743942D02*
X175261312Y-114553466D01*
X175261312Y-114553466D02*
X175261312Y-114315371D01*
X175261312Y-114315371D02*
X175308931Y-114124895D01*
X175308931Y-114124895D02*
X175356550Y-114029657D01*
X175356550Y-114029657D02*
X175404169Y-113982038D01*
X175404169Y-113982038D02*
X175499407Y-113934419D01*
X176261312Y-114839180D02*
X176308931Y-114886800D01*
X176308931Y-114886800D02*
X176261312Y-114934419D01*
X176261312Y-114934419D02*
X176213693Y-114886800D01*
X176213693Y-114886800D02*
X176261312Y-114839180D01*
X176261312Y-114839180D02*
X176261312Y-114934419D01*
X148195312Y-113823180D02*
X148147693Y-113870800D01*
X148147693Y-113870800D02*
X148004836Y-113918419D01*
X148004836Y-113918419D02*
X147909598Y-113918419D01*
X147909598Y-113918419D02*
X147766741Y-113870800D01*
X147766741Y-113870800D02*
X147671503Y-113775561D01*
X147671503Y-113775561D02*
X147623884Y-113680323D01*
X147623884Y-113680323D02*
X147576265Y-113489847D01*
X147576265Y-113489847D02*
X147576265Y-113346990D01*
X147576265Y-113346990D02*
X147623884Y-113156514D01*
X147623884Y-113156514D02*
X147671503Y-113061276D01*
X147671503Y-113061276D02*
X147766741Y-112966038D01*
X147766741Y-112966038D02*
X147909598Y-112918419D01*
X147909598Y-112918419D02*
X148004836Y-112918419D01*
X148004836Y-112918419D02*
X148147693Y-112966038D01*
X148147693Y-112966038D02*
X148195312Y-113013657D01*
X148623884Y-113918419D02*
X148623884Y-112918419D01*
X149052455Y-113918419D02*
X149052455Y-113394609D01*
X149052455Y-113394609D02*
X149004836Y-113299371D01*
X149004836Y-113299371D02*
X148909598Y-113251752D01*
X148909598Y-113251752D02*
X148766741Y-113251752D01*
X148766741Y-113251752D02*
X148671503Y-113299371D01*
X148671503Y-113299371D02*
X148623884Y-113346990D01*
X149909598Y-113870800D02*
X149814360Y-113918419D01*
X149814360Y-113918419D02*
X149623884Y-113918419D01*
X149623884Y-113918419D02*
X149528646Y-113870800D01*
X149528646Y-113870800D02*
X149481027Y-113775561D01*
X149481027Y-113775561D02*
X149481027Y-113394609D01*
X149481027Y-113394609D02*
X149528646Y-113299371D01*
X149528646Y-113299371D02*
X149623884Y-113251752D01*
X149623884Y-113251752D02*
X149814360Y-113251752D01*
X149814360Y-113251752D02*
X149909598Y-113299371D01*
X149909598Y-113299371D02*
X149957217Y-113394609D01*
X149957217Y-113394609D02*
X149957217Y-113489847D01*
X149957217Y-113489847D02*
X149481027Y-113585085D01*
X150814360Y-113870800D02*
X150719122Y-113918419D01*
X150719122Y-113918419D02*
X150528646Y-113918419D01*
X150528646Y-113918419D02*
X150433408Y-113870800D01*
X150433408Y-113870800D02*
X150385789Y-113823180D01*
X150385789Y-113823180D02*
X150338170Y-113727942D01*
X150338170Y-113727942D02*
X150338170Y-113442228D01*
X150338170Y-113442228D02*
X150385789Y-113346990D01*
X150385789Y-113346990D02*
X150433408Y-113299371D01*
X150433408Y-113299371D02*
X150528646Y-113251752D01*
X150528646Y-113251752D02*
X150719122Y-113251752D01*
X150719122Y-113251752D02*
X150814360Y-113299371D01*
X151242932Y-113918419D02*
X151242932Y-112918419D01*
X151338170Y-113537466D02*
X151623884Y-113918419D01*
X151623884Y-113251752D02*
X151242932Y-113632704D01*
X152385789Y-113394609D02*
X152528646Y-113442228D01*
X152528646Y-113442228D02*
X152576265Y-113489847D01*
X152576265Y-113489847D02*
X152623884Y-113585085D01*
X152623884Y-113585085D02*
X152623884Y-113727942D01*
X152623884Y-113727942D02*
X152576265Y-113823180D01*
X152576265Y-113823180D02*
X152528646Y-113870800D01*
X152528646Y-113870800D02*
X152433408Y-113918419D01*
X152433408Y-113918419D02*
X152052456Y-113918419D01*
X152052456Y-113918419D02*
X152052456Y-112918419D01*
X152052456Y-112918419D02*
X152385789Y-112918419D01*
X152385789Y-112918419D02*
X152481027Y-112966038D01*
X152481027Y-112966038D02*
X152528646Y-113013657D01*
X152528646Y-113013657D02*
X152576265Y-113108895D01*
X152576265Y-113108895D02*
X152576265Y-113204133D01*
X152576265Y-113204133D02*
X152528646Y-113299371D01*
X152528646Y-113299371D02*
X152481027Y-113346990D01*
X152481027Y-113346990D02*
X152385789Y-113394609D01*
X152385789Y-113394609D02*
X152052456Y-113394609D01*
X153195313Y-113918419D02*
X153100075Y-113870800D01*
X153100075Y-113870800D02*
X153052456Y-113823180D01*
X153052456Y-113823180D02*
X153004837Y-113727942D01*
X153004837Y-113727942D02*
X153004837Y-113442228D01*
X153004837Y-113442228D02*
X153052456Y-113346990D01*
X153052456Y-113346990D02*
X153100075Y-113299371D01*
X153100075Y-113299371D02*
X153195313Y-113251752D01*
X153195313Y-113251752D02*
X153338170Y-113251752D01*
X153338170Y-113251752D02*
X153433408Y-113299371D01*
X153433408Y-113299371D02*
X153481027Y-113346990D01*
X153481027Y-113346990D02*
X153528646Y-113442228D01*
X153528646Y-113442228D02*
X153528646Y-113727942D01*
X153528646Y-113727942D02*
X153481027Y-113823180D01*
X153481027Y-113823180D02*
X153433408Y-113870800D01*
X153433408Y-113870800D02*
X153338170Y-113918419D01*
X153338170Y-113918419D02*
X153195313Y-113918419D01*
X153861980Y-113918419D02*
X154385789Y-113251752D01*
X153861980Y-113251752D02*
X154385789Y-113918419D01*
X104045295Y-81531734D02*
X104045295Y-81055544D01*
X103759580Y-81626972D02*
X104759580Y-81293639D01*
X104759580Y-81293639D02*
X103759580Y-80960306D01*
X103854819Y-80055544D02*
X103807200Y-80103163D01*
X103807200Y-80103163D02*
X103759580Y-80246020D01*
X103759580Y-80246020D02*
X103759580Y-80341258D01*
X103759580Y-80341258D02*
X103807200Y-80484115D01*
X103807200Y-80484115D02*
X103902438Y-80579353D01*
X103902438Y-80579353D02*
X103997676Y-80626972D01*
X103997676Y-80626972D02*
X104188152Y-80674591D01*
X104188152Y-80674591D02*
X104331009Y-80674591D01*
X104331009Y-80674591D02*
X104521485Y-80626972D01*
X104521485Y-80626972D02*
X104616723Y-80579353D01*
X104616723Y-80579353D02*
X104711961Y-80484115D01*
X104711961Y-80484115D02*
X104759580Y-80341258D01*
X104759580Y-80341258D02*
X104759580Y-80246020D01*
X104759580Y-80246020D02*
X104711961Y-80103163D01*
X104711961Y-80103163D02*
X104664342Y-80055544D01*
X104664342Y-78912686D02*
X104711961Y-78865067D01*
X104711961Y-78865067D02*
X104759580Y-78769829D01*
X104759580Y-78769829D02*
X104759580Y-78531734D01*
X104759580Y-78531734D02*
X104711961Y-78436496D01*
X104711961Y-78436496D02*
X104664342Y-78388877D01*
X104664342Y-78388877D02*
X104569104Y-78341258D01*
X104569104Y-78341258D02*
X104473866Y-78341258D01*
X104473866Y-78341258D02*
X104331009Y-78388877D01*
X104331009Y-78388877D02*
X103759580Y-78960305D01*
X103759580Y-78960305D02*
X103759580Y-78341258D01*
X104664342Y-77960305D02*
X104711961Y-77912686D01*
X104711961Y-77912686D02*
X104759580Y-77817448D01*
X104759580Y-77817448D02*
X104759580Y-77579353D01*
X104759580Y-77579353D02*
X104711961Y-77484115D01*
X104711961Y-77484115D02*
X104664342Y-77436496D01*
X104664342Y-77436496D02*
X104569104Y-77388877D01*
X104569104Y-77388877D02*
X104473866Y-77388877D01*
X104473866Y-77388877D02*
X104331009Y-77436496D01*
X104331009Y-77436496D02*
X103759580Y-78007924D01*
X103759580Y-78007924D02*
X103759580Y-77388877D01*
X104759580Y-76769829D02*
X104759580Y-76674591D01*
X104759580Y-76674591D02*
X104711961Y-76579353D01*
X104711961Y-76579353D02*
X104664342Y-76531734D01*
X104664342Y-76531734D02*
X104569104Y-76484115D01*
X104569104Y-76484115D02*
X104378628Y-76436496D01*
X104378628Y-76436496D02*
X104140533Y-76436496D01*
X104140533Y-76436496D02*
X103950057Y-76484115D01*
X103950057Y-76484115D02*
X103854819Y-76531734D01*
X103854819Y-76531734D02*
X103807200Y-76579353D01*
X103807200Y-76579353D02*
X103759580Y-76674591D01*
X103759580Y-76674591D02*
X103759580Y-76769829D01*
X103759580Y-76769829D02*
X103807200Y-76865067D01*
X103807200Y-76865067D02*
X103854819Y-76912686D01*
X103854819Y-76912686D02*
X103950057Y-76960305D01*
X103950057Y-76960305D02*
X104140533Y-77007924D01*
X104140533Y-77007924D02*
X104378628Y-77007924D01*
X104378628Y-77007924D02*
X104569104Y-76960305D01*
X104569104Y-76960305D02*
X104664342Y-76912686D01*
X104664342Y-76912686D02*
X104711961Y-76865067D01*
X104711961Y-76865067D02*
X104759580Y-76769829D01*
X104759580Y-76150781D02*
X103759580Y-75817448D01*
X103759580Y-75817448D02*
X104759580Y-75484115D01*
X190053884Y-97491466D02*
X190815789Y-97491466D01*
X190434836Y-97872419D02*
X190434836Y-97110514D01*
D11*
X165166318Y-113507762D02*
X163896318Y-113507762D01*
X165045365Y-112177285D02*
X165105842Y-112237761D01*
X165105842Y-112237761D02*
X165166318Y-112419190D01*
X165166318Y-112419190D02*
X165166318Y-112540142D01*
X165166318Y-112540142D02*
X165105842Y-112721571D01*
X165105842Y-112721571D02*
X164984889Y-112842523D01*
X164984889Y-112842523D02*
X164863937Y-112903000D01*
X164863937Y-112903000D02*
X164622032Y-112963476D01*
X164622032Y-112963476D02*
X164440603Y-112963476D01*
X164440603Y-112963476D02*
X164198699Y-112903000D01*
X164198699Y-112903000D02*
X164077746Y-112842523D01*
X164077746Y-112842523D02*
X163956794Y-112721571D01*
X163956794Y-112721571D02*
X163896318Y-112540142D01*
X163896318Y-112540142D02*
X163896318Y-112419190D01*
X163896318Y-112419190D02*
X163956794Y-112237761D01*
X163956794Y-112237761D02*
X164017270Y-112177285D01*
X165166318Y-110967761D02*
X165166318Y-111693476D01*
X165166318Y-111330619D02*
X163896318Y-111330619D01*
X163896318Y-111330619D02*
X164077746Y-111451571D01*
X164077746Y-111451571D02*
X164198699Y-111572523D01*
X164198699Y-111572523D02*
X164259175Y-111693476D01*
D12*
X188517580Y-116244666D02*
X188565200Y-116292285D01*
X188565200Y-116292285D02*
X188612819Y-116435142D01*
X188612819Y-116435142D02*
X188612819Y-116530380D01*
X188612819Y-116530380D02*
X188565200Y-116673237D01*
X188565200Y-116673237D02*
X188469961Y-116768475D01*
X188469961Y-116768475D02*
X188374723Y-116816094D01*
X188374723Y-116816094D02*
X188184247Y-116863713D01*
X188184247Y-116863713D02*
X188041390Y-116863713D01*
X188041390Y-116863713D02*
X187850914Y-116816094D01*
X187850914Y-116816094D02*
X187755676Y-116768475D01*
X187755676Y-116768475D02*
X187660438Y-116673237D01*
X187660438Y-116673237D02*
X187612819Y-116530380D01*
X187612819Y-116530380D02*
X187612819Y-116435142D01*
X187612819Y-116435142D02*
X187660438Y-116292285D01*
X187660438Y-116292285D02*
X187708057Y-116244666D01*
X187612819Y-115911332D02*
X187612819Y-115292285D01*
X187612819Y-115292285D02*
X187993771Y-115625618D01*
X187993771Y-115625618D02*
X187993771Y-115482761D01*
X187993771Y-115482761D02*
X188041390Y-115387523D01*
X188041390Y-115387523D02*
X188089009Y-115339904D01*
X188089009Y-115339904D02*
X188184247Y-115292285D01*
X188184247Y-115292285D02*
X188422342Y-115292285D01*
X188422342Y-115292285D02*
X188517580Y-115339904D01*
X188517580Y-115339904D02*
X188565200Y-115387523D01*
X188565200Y-115387523D02*
X188612819Y-115482761D01*
X188612819Y-115482761D02*
X188612819Y-115768475D01*
X188612819Y-115768475D02*
X188565200Y-115863713D01*
X188565200Y-115863713D02*
X188517580Y-115911332D01*
X144575580Y-124340857D02*
X144623200Y-124388476D01*
X144623200Y-124388476D02*
X144670819Y-124531333D01*
X144670819Y-124531333D02*
X144670819Y-124626571D01*
X144670819Y-124626571D02*
X144623200Y-124769428D01*
X144623200Y-124769428D02*
X144527961Y-124864666D01*
X144527961Y-124864666D02*
X144432723Y-124912285D01*
X144432723Y-124912285D02*
X144242247Y-124959904D01*
X144242247Y-124959904D02*
X144099390Y-124959904D01*
X144099390Y-124959904D02*
X143908914Y-124912285D01*
X143908914Y-124912285D02*
X143813676Y-124864666D01*
X143813676Y-124864666D02*
X143718438Y-124769428D01*
X143718438Y-124769428D02*
X143670819Y-124626571D01*
X143670819Y-124626571D02*
X143670819Y-124531333D01*
X143670819Y-124531333D02*
X143718438Y-124388476D01*
X143718438Y-124388476D02*
X143766057Y-124340857D01*
X144670819Y-123388476D02*
X144670819Y-123959904D01*
X144670819Y-123674190D02*
X143670819Y-123674190D01*
X143670819Y-123674190D02*
X143813676Y-123769428D01*
X143813676Y-123769428D02*
X143908914Y-123864666D01*
X143908914Y-123864666D02*
X143956533Y-123959904D01*
X143766057Y-123007523D02*
X143718438Y-122959904D01*
X143718438Y-122959904D02*
X143670819Y-122864666D01*
X143670819Y-122864666D02*
X143670819Y-122626571D01*
X143670819Y-122626571D02*
X143718438Y-122531333D01*
X143718438Y-122531333D02*
X143766057Y-122483714D01*
X143766057Y-122483714D02*
X143861295Y-122436095D01*
X143861295Y-122436095D02*
X143956533Y-122436095D01*
X143956533Y-122436095D02*
X144099390Y-122483714D01*
X144099390Y-122483714D02*
X144670819Y-123055142D01*
X144670819Y-123055142D02*
X144670819Y-122436095D01*
X145811142Y-106070819D02*
X145477809Y-105594628D01*
X145239714Y-106070819D02*
X145239714Y-105070819D01*
X145239714Y-105070819D02*
X145620666Y-105070819D01*
X145620666Y-105070819D02*
X145715904Y-105118438D01*
X145715904Y-105118438D02*
X145763523Y-105166057D01*
X145763523Y-105166057D02*
X145811142Y-105261295D01*
X145811142Y-105261295D02*
X145811142Y-105404152D01*
X145811142Y-105404152D02*
X145763523Y-105499390D01*
X145763523Y-105499390D02*
X145715904Y-105547009D01*
X145715904Y-105547009D02*
X145620666Y-105594628D01*
X145620666Y-105594628D02*
X145239714Y-105594628D01*
X146192095Y-105166057D02*
X146239714Y-105118438D01*
X146239714Y-105118438D02*
X146334952Y-105070819D01*
X146334952Y-105070819D02*
X146573047Y-105070819D01*
X146573047Y-105070819D02*
X146668285Y-105118438D01*
X146668285Y-105118438D02*
X146715904Y-105166057D01*
X146715904Y-105166057D02*
X146763523Y-105261295D01*
X146763523Y-105261295D02*
X146763523Y-105356533D01*
X146763523Y-105356533D02*
X146715904Y-105499390D01*
X146715904Y-105499390D02*
X146144476Y-106070819D01*
X146144476Y-106070819D02*
X146763523Y-106070819D01*
X147096857Y-105070819D02*
X147715904Y-105070819D01*
X147715904Y-105070819D02*
X147382571Y-105451771D01*
X147382571Y-105451771D02*
X147525428Y-105451771D01*
X147525428Y-105451771D02*
X147620666Y-105499390D01*
X147620666Y-105499390D02*
X147668285Y-105547009D01*
X147668285Y-105547009D02*
X147715904Y-105642247D01*
X147715904Y-105642247D02*
X147715904Y-105880342D01*
X147715904Y-105880342D02*
X147668285Y-105975580D01*
X147668285Y-105975580D02*
X147620666Y-106023200D01*
X147620666Y-106023200D02*
X147525428Y-106070819D01*
X147525428Y-106070819D02*
X147239714Y-106070819D01*
X147239714Y-106070819D02*
X147144476Y-106023200D01*
X147144476Y-106023200D02*
X147096857Y-105975580D01*
X134923580Y-111192666D02*
X134971200Y-111240285D01*
X134971200Y-111240285D02*
X135018819Y-111383142D01*
X135018819Y-111383142D02*
X135018819Y-111478380D01*
X135018819Y-111478380D02*
X134971200Y-111621237D01*
X134971200Y-111621237D02*
X134875961Y-111716475D01*
X134875961Y-111716475D02*
X134780723Y-111764094D01*
X134780723Y-111764094D02*
X134590247Y-111811713D01*
X134590247Y-111811713D02*
X134447390Y-111811713D01*
X134447390Y-111811713D02*
X134256914Y-111764094D01*
X134256914Y-111764094D02*
X134161676Y-111716475D01*
X134161676Y-111716475D02*
X134066438Y-111621237D01*
X134066438Y-111621237D02*
X134018819Y-111478380D01*
X134018819Y-111478380D02*
X134018819Y-111383142D01*
X134018819Y-111383142D02*
X134066438Y-111240285D01*
X134066438Y-111240285D02*
X134114057Y-111192666D01*
X135018819Y-110716475D02*
X135018819Y-110525999D01*
X135018819Y-110525999D02*
X134971200Y-110430761D01*
X134971200Y-110430761D02*
X134923580Y-110383142D01*
X134923580Y-110383142D02*
X134780723Y-110287904D01*
X134780723Y-110287904D02*
X134590247Y-110240285D01*
X134590247Y-110240285D02*
X134209295Y-110240285D01*
X134209295Y-110240285D02*
X134114057Y-110287904D01*
X134114057Y-110287904D02*
X134066438Y-110335523D01*
X134066438Y-110335523D02*
X134018819Y-110430761D01*
X134018819Y-110430761D02*
X134018819Y-110621237D01*
X134018819Y-110621237D02*
X134066438Y-110716475D01*
X134066438Y-110716475D02*
X134114057Y-110764094D01*
X134114057Y-110764094D02*
X134209295Y-110811713D01*
X134209295Y-110811713D02*
X134447390Y-110811713D01*
X134447390Y-110811713D02*
X134542628Y-110764094D01*
X134542628Y-110764094D02*
X134590247Y-110716475D01*
X134590247Y-110716475D02*
X134637866Y-110621237D01*
X134637866Y-110621237D02*
X134637866Y-110430761D01*
X134637866Y-110430761D02*
X134590247Y-110335523D01*
X134590247Y-110335523D02*
X134542628Y-110287904D01*
X134542628Y-110287904D02*
X134447390Y-110240285D01*
X169015580Y-126118857D02*
X169063200Y-126166476D01*
X169063200Y-126166476D02*
X169110819Y-126309333D01*
X169110819Y-126309333D02*
X169110819Y-126404571D01*
X169110819Y-126404571D02*
X169063200Y-126547428D01*
X169063200Y-126547428D02*
X168967961Y-126642666D01*
X168967961Y-126642666D02*
X168872723Y-126690285D01*
X168872723Y-126690285D02*
X168682247Y-126737904D01*
X168682247Y-126737904D02*
X168539390Y-126737904D01*
X168539390Y-126737904D02*
X168348914Y-126690285D01*
X168348914Y-126690285D02*
X168253676Y-126642666D01*
X168253676Y-126642666D02*
X168158438Y-126547428D01*
X168158438Y-126547428D02*
X168110819Y-126404571D01*
X168110819Y-126404571D02*
X168110819Y-126309333D01*
X168110819Y-126309333D02*
X168158438Y-126166476D01*
X168158438Y-126166476D02*
X168206057Y-126118857D01*
X168206057Y-125737904D02*
X168158438Y-125690285D01*
X168158438Y-125690285D02*
X168110819Y-125595047D01*
X168110819Y-125595047D02*
X168110819Y-125356952D01*
X168110819Y-125356952D02*
X168158438Y-125261714D01*
X168158438Y-125261714D02*
X168206057Y-125214095D01*
X168206057Y-125214095D02*
X168301295Y-125166476D01*
X168301295Y-125166476D02*
X168396533Y-125166476D01*
X168396533Y-125166476D02*
X168539390Y-125214095D01*
X168539390Y-125214095D02*
X169110819Y-125785523D01*
X169110819Y-125785523D02*
X169110819Y-125166476D01*
X168444152Y-124309333D02*
X169110819Y-124309333D01*
X168063200Y-124547428D02*
X168777485Y-124785523D01*
X168777485Y-124785523D02*
X168777485Y-124166476D01*
X149655580Y-98940857D02*
X149703200Y-98988476D01*
X149703200Y-98988476D02*
X149750819Y-99131333D01*
X149750819Y-99131333D02*
X149750819Y-99226571D01*
X149750819Y-99226571D02*
X149703200Y-99369428D01*
X149703200Y-99369428D02*
X149607961Y-99464666D01*
X149607961Y-99464666D02*
X149512723Y-99512285D01*
X149512723Y-99512285D02*
X149322247Y-99559904D01*
X149322247Y-99559904D02*
X149179390Y-99559904D01*
X149179390Y-99559904D02*
X148988914Y-99512285D01*
X148988914Y-99512285D02*
X148893676Y-99464666D01*
X148893676Y-99464666D02*
X148798438Y-99369428D01*
X148798438Y-99369428D02*
X148750819Y-99226571D01*
X148750819Y-99226571D02*
X148750819Y-99131333D01*
X148750819Y-99131333D02*
X148798438Y-98988476D01*
X148798438Y-98988476D02*
X148846057Y-98940857D01*
X149750819Y-97988476D02*
X149750819Y-98559904D01*
X149750819Y-98274190D02*
X148750819Y-98274190D01*
X148750819Y-98274190D02*
X148893676Y-98369428D01*
X148893676Y-98369428D02*
X148988914Y-98464666D01*
X148988914Y-98464666D02*
X149036533Y-98559904D01*
X148750819Y-97131333D02*
X148750819Y-97321809D01*
X148750819Y-97321809D02*
X148798438Y-97417047D01*
X148798438Y-97417047D02*
X148846057Y-97464666D01*
X148846057Y-97464666D02*
X148988914Y-97559904D01*
X148988914Y-97559904D02*
X149179390Y-97607523D01*
X149179390Y-97607523D02*
X149560342Y-97607523D01*
X149560342Y-97607523D02*
X149655580Y-97559904D01*
X149655580Y-97559904D02*
X149703200Y-97512285D01*
X149703200Y-97512285D02*
X149750819Y-97417047D01*
X149750819Y-97417047D02*
X149750819Y-97226571D01*
X149750819Y-97226571D02*
X149703200Y-97131333D01*
X149703200Y-97131333D02*
X149655580Y-97083714D01*
X149655580Y-97083714D02*
X149560342Y-97036095D01*
X149560342Y-97036095D02*
X149322247Y-97036095D01*
X149322247Y-97036095D02*
X149227009Y-97083714D01*
X149227009Y-97083714D02*
X149179390Y-97131333D01*
X149179390Y-97131333D02*
X149131771Y-97226571D01*
X149131771Y-97226571D02*
X149131771Y-97417047D01*
X149131771Y-97417047D02*
X149179390Y-97512285D01*
X149179390Y-97512285D02*
X149227009Y-97559904D01*
X149227009Y-97559904D02*
X149322247Y-97607523D01*
X132143142Y-103578819D02*
X131809809Y-103102628D01*
X131571714Y-103578819D02*
X131571714Y-102578819D01*
X131571714Y-102578819D02*
X131952666Y-102578819D01*
X131952666Y-102578819D02*
X132047904Y-102626438D01*
X132047904Y-102626438D02*
X132095523Y-102674057D01*
X132095523Y-102674057D02*
X132143142Y-102769295D01*
X132143142Y-102769295D02*
X132143142Y-102912152D01*
X132143142Y-102912152D02*
X132095523Y-103007390D01*
X132095523Y-103007390D02*
X132047904Y-103055009D01*
X132047904Y-103055009D02*
X131952666Y-103102628D01*
X131952666Y-103102628D02*
X131571714Y-103102628D01*
X132524095Y-102674057D02*
X132571714Y-102626438D01*
X132571714Y-102626438D02*
X132666952Y-102578819D01*
X132666952Y-102578819D02*
X132905047Y-102578819D01*
X132905047Y-102578819D02*
X133000285Y-102626438D01*
X133000285Y-102626438D02*
X133047904Y-102674057D01*
X133047904Y-102674057D02*
X133095523Y-102769295D01*
X133095523Y-102769295D02*
X133095523Y-102864533D01*
X133095523Y-102864533D02*
X133047904Y-103007390D01*
X133047904Y-103007390D02*
X132476476Y-103578819D01*
X132476476Y-103578819D02*
X133095523Y-103578819D01*
X133714571Y-102578819D02*
X133809809Y-102578819D01*
X133809809Y-102578819D02*
X133905047Y-102626438D01*
X133905047Y-102626438D02*
X133952666Y-102674057D01*
X133952666Y-102674057D02*
X134000285Y-102769295D01*
X134000285Y-102769295D02*
X134047904Y-102959771D01*
X134047904Y-102959771D02*
X134047904Y-103197866D01*
X134047904Y-103197866D02*
X134000285Y-103388342D01*
X134000285Y-103388342D02*
X133952666Y-103483580D01*
X133952666Y-103483580D02*
X133905047Y-103531200D01*
X133905047Y-103531200D02*
X133809809Y-103578819D01*
X133809809Y-103578819D02*
X133714571Y-103578819D01*
X133714571Y-103578819D02*
X133619333Y-103531200D01*
X133619333Y-103531200D02*
X133571714Y-103483580D01*
X133571714Y-103483580D02*
X133524095Y-103388342D01*
X133524095Y-103388342D02*
X133476476Y-103197866D01*
X133476476Y-103197866D02*
X133476476Y-102959771D01*
X133476476Y-102959771D02*
X133524095Y-102769295D01*
X133524095Y-102769295D02*
X133571714Y-102674057D01*
X133571714Y-102674057D02*
X133619333Y-102626438D01*
X133619333Y-102626438D02*
X133714571Y-102578819D01*
D10*
X105459905Y-64977419D02*
X105459905Y-63977419D01*
X105459905Y-63977419D02*
X105840857Y-63977419D01*
X105840857Y-63977419D02*
X105936095Y-64025038D01*
X105936095Y-64025038D02*
X105983714Y-64072657D01*
X105983714Y-64072657D02*
X106031333Y-64167895D01*
X106031333Y-64167895D02*
X106031333Y-64310752D01*
X106031333Y-64310752D02*
X105983714Y-64405990D01*
X105983714Y-64405990D02*
X105936095Y-64453609D01*
X105936095Y-64453609D02*
X105840857Y-64501228D01*
X105840857Y-64501228D02*
X105459905Y-64501228D01*
X106983714Y-64977419D02*
X106412286Y-64977419D01*
X106698000Y-64977419D02*
X106698000Y-63977419D01*
X106698000Y-63977419D02*
X106602762Y-64120276D01*
X106602762Y-64120276D02*
X106507524Y-64215514D01*
X106507524Y-64215514D02*
X106412286Y-64263133D01*
D11*
X109538333Y-123324318D02*
X108933571Y-123324318D01*
X108933571Y-123324318D02*
X108933571Y-122054318D01*
X110626905Y-123324318D02*
X109901190Y-123324318D01*
X110264047Y-123324318D02*
X110264047Y-122054318D01*
X110264047Y-122054318D02*
X110143095Y-122235746D01*
X110143095Y-122235746D02*
X110022143Y-122356699D01*
X110022143Y-122356699D02*
X109901190Y-122417175D01*
D12*
X186993580Y-106338666D02*
X187041200Y-106386285D01*
X187041200Y-106386285D02*
X187088819Y-106529142D01*
X187088819Y-106529142D02*
X187088819Y-106624380D01*
X187088819Y-106624380D02*
X187041200Y-106767237D01*
X187041200Y-106767237D02*
X186945961Y-106862475D01*
X186945961Y-106862475D02*
X186850723Y-106910094D01*
X186850723Y-106910094D02*
X186660247Y-106957713D01*
X186660247Y-106957713D02*
X186517390Y-106957713D01*
X186517390Y-106957713D02*
X186326914Y-106910094D01*
X186326914Y-106910094D02*
X186231676Y-106862475D01*
X186231676Y-106862475D02*
X186136438Y-106767237D01*
X186136438Y-106767237D02*
X186088819Y-106624380D01*
X186088819Y-106624380D02*
X186088819Y-106529142D01*
X186088819Y-106529142D02*
X186136438Y-106386285D01*
X186136438Y-106386285D02*
X186184057Y-106338666D01*
X186088819Y-105433904D02*
X186088819Y-105910094D01*
X186088819Y-105910094D02*
X186565009Y-105957713D01*
X186565009Y-105957713D02*
X186517390Y-105910094D01*
X186517390Y-105910094D02*
X186469771Y-105814856D01*
X186469771Y-105814856D02*
X186469771Y-105576761D01*
X186469771Y-105576761D02*
X186517390Y-105481523D01*
X186517390Y-105481523D02*
X186565009Y-105433904D01*
X186565009Y-105433904D02*
X186660247Y-105386285D01*
X186660247Y-105386285D02*
X186898342Y-105386285D01*
X186898342Y-105386285D02*
X186993580Y-105433904D01*
X186993580Y-105433904D02*
X187041200Y-105481523D01*
X187041200Y-105481523D02*
X187088819Y-105576761D01*
X187088819Y-105576761D02*
X187088819Y-105814856D01*
X187088819Y-105814856D02*
X187041200Y-105910094D01*
X187041200Y-105910094D02*
X186993580Y-105957713D01*
X127627142Y-129486819D02*
X127293809Y-129010628D01*
X127055714Y-129486819D02*
X127055714Y-128486819D01*
X127055714Y-128486819D02*
X127436666Y-128486819D01*
X127436666Y-128486819D02*
X127531904Y-128534438D01*
X127531904Y-128534438D02*
X127579523Y-128582057D01*
X127579523Y-128582057D02*
X127627142Y-128677295D01*
X127627142Y-128677295D02*
X127627142Y-128820152D01*
X127627142Y-128820152D02*
X127579523Y-128915390D01*
X127579523Y-128915390D02*
X127531904Y-128963009D01*
X127531904Y-128963009D02*
X127436666Y-129010628D01*
X127436666Y-129010628D02*
X127055714Y-129010628D01*
X128579523Y-129486819D02*
X128008095Y-129486819D01*
X128293809Y-129486819D02*
X128293809Y-128486819D01*
X128293809Y-128486819D02*
X128198571Y-128629676D01*
X128198571Y-128629676D02*
X128103333Y-128724914D01*
X128103333Y-128724914D02*
X128008095Y-128772533D01*
X128912857Y-128486819D02*
X129531904Y-128486819D01*
X129531904Y-128486819D02*
X129198571Y-128867771D01*
X129198571Y-128867771D02*
X129341428Y-128867771D01*
X129341428Y-128867771D02*
X129436666Y-128915390D01*
X129436666Y-128915390D02*
X129484285Y-128963009D01*
X129484285Y-128963009D02*
X129531904Y-129058247D01*
X129531904Y-129058247D02*
X129531904Y-129296342D01*
X129531904Y-129296342D02*
X129484285Y-129391580D01*
X129484285Y-129391580D02*
X129436666Y-129439200D01*
X129436666Y-129439200D02*
X129341428Y-129486819D01*
X129341428Y-129486819D02*
X129055714Y-129486819D01*
X129055714Y-129486819D02*
X128960476Y-129439200D01*
X128960476Y-129439200D02*
X128912857Y-129391580D01*
X134381142Y-107340819D02*
X134047809Y-106864628D01*
X133809714Y-107340819D02*
X133809714Y-106340819D01*
X133809714Y-106340819D02*
X134190666Y-106340819D01*
X134190666Y-106340819D02*
X134285904Y-106388438D01*
X134285904Y-106388438D02*
X134333523Y-106436057D01*
X134333523Y-106436057D02*
X134381142Y-106531295D01*
X134381142Y-106531295D02*
X134381142Y-106674152D01*
X134381142Y-106674152D02*
X134333523Y-106769390D01*
X134333523Y-106769390D02*
X134285904Y-106817009D01*
X134285904Y-106817009D02*
X134190666Y-106864628D01*
X134190666Y-106864628D02*
X133809714Y-106864628D01*
X135333523Y-107340819D02*
X134762095Y-107340819D01*
X135047809Y-107340819D02*
X135047809Y-106340819D01*
X135047809Y-106340819D02*
X134952571Y-106483676D01*
X134952571Y-106483676D02*
X134857333Y-106578914D01*
X134857333Y-106578914D02*
X134762095Y-106626533D01*
X135904952Y-106769390D02*
X135809714Y-106721771D01*
X135809714Y-106721771D02*
X135762095Y-106674152D01*
X135762095Y-106674152D02*
X135714476Y-106578914D01*
X135714476Y-106578914D02*
X135714476Y-106531295D01*
X135714476Y-106531295D02*
X135762095Y-106436057D01*
X135762095Y-106436057D02*
X135809714Y-106388438D01*
X135809714Y-106388438D02*
X135904952Y-106340819D01*
X135904952Y-106340819D02*
X136095428Y-106340819D01*
X136095428Y-106340819D02*
X136190666Y-106388438D01*
X136190666Y-106388438D02*
X136238285Y-106436057D01*
X136238285Y-106436057D02*
X136285904Y-106531295D01*
X136285904Y-106531295D02*
X136285904Y-106578914D01*
X136285904Y-106578914D02*
X136238285Y-106674152D01*
X136238285Y-106674152D02*
X136190666Y-106721771D01*
X136190666Y-106721771D02*
X136095428Y-106769390D01*
X136095428Y-106769390D02*
X135904952Y-106769390D01*
X135904952Y-106769390D02*
X135809714Y-106817009D01*
X135809714Y-106817009D02*
X135762095Y-106864628D01*
X135762095Y-106864628D02*
X135714476Y-106959866D01*
X135714476Y-106959866D02*
X135714476Y-107150342D01*
X135714476Y-107150342D02*
X135762095Y-107245580D01*
X135762095Y-107245580D02*
X135809714Y-107293200D01*
X135809714Y-107293200D02*
X135904952Y-107340819D01*
X135904952Y-107340819D02*
X136095428Y-107340819D01*
X136095428Y-107340819D02*
X136190666Y-107293200D01*
X136190666Y-107293200D02*
X136238285Y-107245580D01*
X136238285Y-107245580D02*
X136285904Y-107150342D01*
X136285904Y-107150342D02*
X136285904Y-106959866D01*
X136285904Y-106959866D02*
X136238285Y-106864628D01*
X136238285Y-106864628D02*
X136190666Y-106817009D01*
X136190666Y-106817009D02*
X136095428Y-106769390D01*
X166742666Y-121472819D02*
X166742666Y-122187104D01*
X166742666Y-122187104D02*
X166695047Y-122329961D01*
X166695047Y-122329961D02*
X166599809Y-122425200D01*
X166599809Y-122425200D02*
X166456952Y-122472819D01*
X166456952Y-122472819D02*
X166361714Y-122472819D01*
X167123619Y-121472819D02*
X167790285Y-121472819D01*
X167790285Y-121472819D02*
X167361714Y-122472819D01*
X186102666Y-96990819D02*
X186102666Y-97705104D01*
X186102666Y-97705104D02*
X186055047Y-97847961D01*
X186055047Y-97847961D02*
X185959809Y-97943200D01*
X185959809Y-97943200D02*
X185816952Y-97990819D01*
X185816952Y-97990819D02*
X185721714Y-97990819D01*
X187055047Y-96990819D02*
X186578857Y-96990819D01*
X186578857Y-96990819D02*
X186531238Y-97467009D01*
X186531238Y-97467009D02*
X186578857Y-97419390D01*
X186578857Y-97419390D02*
X186674095Y-97371771D01*
X186674095Y-97371771D02*
X186912190Y-97371771D01*
X186912190Y-97371771D02*
X187007428Y-97419390D01*
X187007428Y-97419390D02*
X187055047Y-97467009D01*
X187055047Y-97467009D02*
X187102666Y-97562247D01*
X187102666Y-97562247D02*
X187102666Y-97800342D01*
X187102666Y-97800342D02*
X187055047Y-97895580D01*
X187055047Y-97895580D02*
X187007428Y-97943200D01*
X187007428Y-97943200D02*
X186912190Y-97990819D01*
X186912190Y-97990819D02*
X186674095Y-97990819D01*
X186674095Y-97990819D02*
X186578857Y-97943200D01*
X186578857Y-97943200D02*
X186531238Y-97895580D01*
D11*
X107000524Y-70678318D02*
X106577190Y-70073556D01*
X106274809Y-70678318D02*
X106274809Y-69408318D01*
X106274809Y-69408318D02*
X106758619Y-69408318D01*
X106758619Y-69408318D02*
X106879571Y-69468794D01*
X106879571Y-69468794D02*
X106940048Y-69529270D01*
X106940048Y-69529270D02*
X107000524Y-69650222D01*
X107000524Y-69650222D02*
X107000524Y-69831651D01*
X107000524Y-69831651D02*
X106940048Y-69952603D01*
X106940048Y-69952603D02*
X106879571Y-70013080D01*
X106879571Y-70013080D02*
X106758619Y-70073556D01*
X106758619Y-70073556D02*
X106274809Y-70073556D01*
X107363381Y-69408318D02*
X108089095Y-69408318D01*
X107726238Y-70678318D02*
X107726238Y-69408318D01*
X109177667Y-70678318D02*
X108451952Y-70678318D01*
X108814809Y-70678318D02*
X108814809Y-69408318D01*
X108814809Y-69408318D02*
X108693857Y-69589746D01*
X108693857Y-69589746D02*
X108572905Y-69710699D01*
X108572905Y-69710699D02*
X108451952Y-69771175D01*
D12*
X167916666Y-96848819D02*
X167916666Y-97563104D01*
X167916666Y-97563104D02*
X167869047Y-97705961D01*
X167869047Y-97705961D02*
X167773809Y-97801200D01*
X167773809Y-97801200D02*
X167630952Y-97848819D01*
X167630952Y-97848819D02*
X167535714Y-97848819D01*
X168821428Y-96848819D02*
X168630952Y-96848819D01*
X168630952Y-96848819D02*
X168535714Y-96896438D01*
X168535714Y-96896438D02*
X168488095Y-96944057D01*
X168488095Y-96944057D02*
X168392857Y-97086914D01*
X168392857Y-97086914D02*
X168345238Y-97277390D01*
X168345238Y-97277390D02*
X168345238Y-97658342D01*
X168345238Y-97658342D02*
X168392857Y-97753580D01*
X168392857Y-97753580D02*
X168440476Y-97801200D01*
X168440476Y-97801200D02*
X168535714Y-97848819D01*
X168535714Y-97848819D02*
X168726190Y-97848819D01*
X168726190Y-97848819D02*
X168821428Y-97801200D01*
X168821428Y-97801200D02*
X168869047Y-97753580D01*
X168869047Y-97753580D02*
X168916666Y-97658342D01*
X168916666Y-97658342D02*
X168916666Y-97420247D01*
X168916666Y-97420247D02*
X168869047Y-97325009D01*
X168869047Y-97325009D02*
X168821428Y-97277390D01*
X168821428Y-97277390D02*
X168726190Y-97229771D01*
X168726190Y-97229771D02*
X168535714Y-97229771D01*
X168535714Y-97229771D02*
X168440476Y-97277390D01*
X168440476Y-97277390D02*
X168392857Y-97325009D01*
X168392857Y-97325009D02*
X168345238Y-97420247D01*
D11*
X153963270Y-132284952D02*
X153902794Y-132405904D01*
X153902794Y-132405904D02*
X153781842Y-132526857D01*
X153781842Y-132526857D02*
X153600413Y-132708285D01*
X153600413Y-132708285D02*
X153539937Y-132829238D01*
X153539937Y-132829238D02*
X153539937Y-132950190D01*
X153842318Y-132889714D02*
X153781842Y-133010666D01*
X153781842Y-133010666D02*
X153660889Y-133131619D01*
X153660889Y-133131619D02*
X153418984Y-133192095D01*
X153418984Y-133192095D02*
X152995651Y-133192095D01*
X152995651Y-133192095D02*
X152753746Y-133131619D01*
X152753746Y-133131619D02*
X152632794Y-133010666D01*
X152632794Y-133010666D02*
X152572318Y-132889714D01*
X152572318Y-132889714D02*
X152572318Y-132647809D01*
X152572318Y-132647809D02*
X152632794Y-132526857D01*
X152632794Y-132526857D02*
X152753746Y-132405904D01*
X152753746Y-132405904D02*
X152995651Y-132345428D01*
X152995651Y-132345428D02*
X153418984Y-132345428D01*
X153418984Y-132345428D02*
X153660889Y-132405904D01*
X153660889Y-132405904D02*
X153781842Y-132526857D01*
X153781842Y-132526857D02*
X153842318Y-132647809D01*
X153842318Y-132647809D02*
X153842318Y-132889714D01*
X152995651Y-131256857D02*
X153842318Y-131256857D01*
X152511842Y-131559238D02*
X153418984Y-131861619D01*
X153418984Y-131861619D02*
X153418984Y-131075428D01*
D12*
X144081142Y-116909580D02*
X144033523Y-116957200D01*
X144033523Y-116957200D02*
X143890666Y-117004819D01*
X143890666Y-117004819D02*
X143795428Y-117004819D01*
X143795428Y-117004819D02*
X143652571Y-116957200D01*
X143652571Y-116957200D02*
X143557333Y-116861961D01*
X143557333Y-116861961D02*
X143509714Y-116766723D01*
X143509714Y-116766723D02*
X143462095Y-116576247D01*
X143462095Y-116576247D02*
X143462095Y-116433390D01*
X143462095Y-116433390D02*
X143509714Y-116242914D01*
X143509714Y-116242914D02*
X143557333Y-116147676D01*
X143557333Y-116147676D02*
X143652571Y-116052438D01*
X143652571Y-116052438D02*
X143795428Y-116004819D01*
X143795428Y-116004819D02*
X143890666Y-116004819D01*
X143890666Y-116004819D02*
X144033523Y-116052438D01*
X144033523Y-116052438D02*
X144081142Y-116100057D01*
X145033523Y-117004819D02*
X144462095Y-117004819D01*
X144747809Y-117004819D02*
X144747809Y-116004819D01*
X144747809Y-116004819D02*
X144652571Y-116147676D01*
X144652571Y-116147676D02*
X144557333Y-116242914D01*
X144557333Y-116242914D02*
X144462095Y-116290533D01*
X145652571Y-116004819D02*
X145747809Y-116004819D01*
X145747809Y-116004819D02*
X145843047Y-116052438D01*
X145843047Y-116052438D02*
X145890666Y-116100057D01*
X145890666Y-116100057D02*
X145938285Y-116195295D01*
X145938285Y-116195295D02*
X145985904Y-116385771D01*
X145985904Y-116385771D02*
X145985904Y-116623866D01*
X145985904Y-116623866D02*
X145938285Y-116814342D01*
X145938285Y-116814342D02*
X145890666Y-116909580D01*
X145890666Y-116909580D02*
X145843047Y-116957200D01*
X145843047Y-116957200D02*
X145747809Y-117004819D01*
X145747809Y-117004819D02*
X145652571Y-117004819D01*
X145652571Y-117004819D02*
X145557333Y-116957200D01*
X145557333Y-116957200D02*
X145509714Y-116909580D01*
X145509714Y-116909580D02*
X145462095Y-116814342D01*
X145462095Y-116814342D02*
X145414476Y-116623866D01*
X145414476Y-116623866D02*
X145414476Y-116385771D01*
X145414476Y-116385771D02*
X145462095Y-116195295D01*
X145462095Y-116195295D02*
X145509714Y-116100057D01*
X145509714Y-116100057D02*
X145557333Y-116052438D01*
X145557333Y-116052438D02*
X145652571Y-116004819D01*
X119022952Y-131772819D02*
X118546762Y-131772819D01*
X118546762Y-131772819D02*
X118546762Y-130772819D01*
X119356286Y-131249009D02*
X119689619Y-131249009D01*
X119832476Y-131772819D02*
X119356286Y-131772819D01*
X119356286Y-131772819D02*
X119356286Y-130772819D01*
X119356286Y-130772819D02*
X119832476Y-130772819D01*
X120261048Y-131772819D02*
X120261048Y-130772819D01*
X120261048Y-130772819D02*
X120499143Y-130772819D01*
X120499143Y-130772819D02*
X120642000Y-130820438D01*
X120642000Y-130820438D02*
X120737238Y-130915676D01*
X120737238Y-130915676D02*
X120784857Y-131010914D01*
X120784857Y-131010914D02*
X120832476Y-131201390D01*
X120832476Y-131201390D02*
X120832476Y-131344247D01*
X120832476Y-131344247D02*
X120784857Y-131534723D01*
X120784857Y-131534723D02*
X120737238Y-131629961D01*
X120737238Y-131629961D02*
X120642000Y-131725200D01*
X120642000Y-131725200D02*
X120499143Y-131772819D01*
X120499143Y-131772819D02*
X120261048Y-131772819D01*
X121165810Y-130772819D02*
X121832476Y-130772819D01*
X121832476Y-130772819D02*
X121403905Y-131772819D01*
D11*
X171463856Y-94450318D02*
X171463856Y-93180318D01*
X171463856Y-93180318D02*
X171947666Y-93180318D01*
X171947666Y-93180318D02*
X172068618Y-93240794D01*
X172068618Y-93240794D02*
X172129095Y-93301270D01*
X172129095Y-93301270D02*
X172189571Y-93422222D01*
X172189571Y-93422222D02*
X172189571Y-93603651D01*
X172189571Y-93603651D02*
X172129095Y-93724603D01*
X172129095Y-93724603D02*
X172068618Y-93785080D01*
X172068618Y-93785080D02*
X171947666Y-93845556D01*
X171947666Y-93845556D02*
X171463856Y-93845556D01*
X172673380Y-94389842D02*
X172854809Y-94450318D01*
X172854809Y-94450318D02*
X173157190Y-94450318D01*
X173157190Y-94450318D02*
X173278142Y-94389842D01*
X173278142Y-94389842D02*
X173338618Y-94329365D01*
X173338618Y-94329365D02*
X173399095Y-94208413D01*
X173399095Y-94208413D02*
X173399095Y-94087461D01*
X173399095Y-94087461D02*
X173338618Y-93966508D01*
X173338618Y-93966508D02*
X173278142Y-93906032D01*
X173278142Y-93906032D02*
X173157190Y-93845556D01*
X173157190Y-93845556D02*
X172915285Y-93785080D01*
X172915285Y-93785080D02*
X172794333Y-93724603D01*
X172794333Y-93724603D02*
X172733856Y-93664127D01*
X172733856Y-93664127D02*
X172673380Y-93543175D01*
X172673380Y-93543175D02*
X172673380Y-93422222D01*
X172673380Y-93422222D02*
X172733856Y-93301270D01*
X172733856Y-93301270D02*
X172794333Y-93240794D01*
X172794333Y-93240794D02*
X172915285Y-93180318D01*
X172915285Y-93180318D02*
X173217666Y-93180318D01*
X173217666Y-93180318D02*
X173399095Y-93240794D01*
X174608619Y-94450318D02*
X173882904Y-94450318D01*
X174245761Y-94450318D02*
X174245761Y-93180318D01*
X174245761Y-93180318D02*
X174124809Y-93361746D01*
X174124809Y-93361746D02*
X174003857Y-93482699D01*
X174003857Y-93482699D02*
X173882904Y-93543175D01*
D12*
X177019618Y-131368819D02*
X176543428Y-131368819D01*
X176543428Y-131368819D02*
X176543428Y-130368819D01*
X177352952Y-130845009D02*
X177686285Y-130845009D01*
X177829142Y-131368819D02*
X177352952Y-131368819D01*
X177352952Y-131368819D02*
X177352952Y-130368819D01*
X177352952Y-130368819D02*
X177829142Y-130368819D01*
X178257714Y-131368819D02*
X178257714Y-130368819D01*
X178257714Y-130368819D02*
X178495809Y-130368819D01*
X178495809Y-130368819D02*
X178638666Y-130416438D01*
X178638666Y-130416438D02*
X178733904Y-130511676D01*
X178733904Y-130511676D02*
X178781523Y-130606914D01*
X178781523Y-130606914D02*
X178829142Y-130797390D01*
X178829142Y-130797390D02*
X178829142Y-130940247D01*
X178829142Y-130940247D02*
X178781523Y-131130723D01*
X178781523Y-131130723D02*
X178733904Y-131225961D01*
X178733904Y-131225961D02*
X178638666Y-131321200D01*
X178638666Y-131321200D02*
X178495809Y-131368819D01*
X178495809Y-131368819D02*
X178257714Y-131368819D01*
X179210095Y-130464057D02*
X179257714Y-130416438D01*
X179257714Y-130416438D02*
X179352952Y-130368819D01*
X179352952Y-130368819D02*
X179591047Y-130368819D01*
X179591047Y-130368819D02*
X179686285Y-130416438D01*
X179686285Y-130416438D02*
X179733904Y-130464057D01*
X179733904Y-130464057D02*
X179781523Y-130559295D01*
X179781523Y-130559295D02*
X179781523Y-130654533D01*
X179781523Y-130654533D02*
X179733904Y-130797390D01*
X179733904Y-130797390D02*
X179162476Y-131368819D01*
X179162476Y-131368819D02*
X179781523Y-131368819D01*
X142692095Y-101308819D02*
X142692095Y-102118342D01*
X142692095Y-102118342D02*
X142739714Y-102213580D01*
X142739714Y-102213580D02*
X142787333Y-102261200D01*
X142787333Y-102261200D02*
X142882571Y-102308819D01*
X142882571Y-102308819D02*
X143073047Y-102308819D01*
X143073047Y-102308819D02*
X143168285Y-102261200D01*
X143168285Y-102261200D02*
X143215904Y-102213580D01*
X143215904Y-102213580D02*
X143263523Y-102118342D01*
X143263523Y-102118342D02*
X143263523Y-101308819D01*
X143692095Y-101404057D02*
X143739714Y-101356438D01*
X143739714Y-101356438D02*
X143834952Y-101308819D01*
X143834952Y-101308819D02*
X144073047Y-101308819D01*
X144073047Y-101308819D02*
X144168285Y-101356438D01*
X144168285Y-101356438D02*
X144215904Y-101404057D01*
X144215904Y-101404057D02*
X144263523Y-101499295D01*
X144263523Y-101499295D02*
X144263523Y-101594533D01*
X144263523Y-101594533D02*
X144215904Y-101737390D01*
X144215904Y-101737390D02*
X143644476Y-102308819D01*
X143644476Y-102308819D02*
X144263523Y-102308819D01*
X110539580Y-110116857D02*
X110587200Y-110164476D01*
X110587200Y-110164476D02*
X110634819Y-110307333D01*
X110634819Y-110307333D02*
X110634819Y-110402571D01*
X110634819Y-110402571D02*
X110587200Y-110545428D01*
X110587200Y-110545428D02*
X110491961Y-110640666D01*
X110491961Y-110640666D02*
X110396723Y-110688285D01*
X110396723Y-110688285D02*
X110206247Y-110735904D01*
X110206247Y-110735904D02*
X110063390Y-110735904D01*
X110063390Y-110735904D02*
X109872914Y-110688285D01*
X109872914Y-110688285D02*
X109777676Y-110640666D01*
X109777676Y-110640666D02*
X109682438Y-110545428D01*
X109682438Y-110545428D02*
X109634819Y-110402571D01*
X109634819Y-110402571D02*
X109634819Y-110307333D01*
X109634819Y-110307333D02*
X109682438Y-110164476D01*
X109682438Y-110164476D02*
X109730057Y-110116857D01*
X109730057Y-109735904D02*
X109682438Y-109688285D01*
X109682438Y-109688285D02*
X109634819Y-109593047D01*
X109634819Y-109593047D02*
X109634819Y-109354952D01*
X109634819Y-109354952D02*
X109682438Y-109259714D01*
X109682438Y-109259714D02*
X109730057Y-109212095D01*
X109730057Y-109212095D02*
X109825295Y-109164476D01*
X109825295Y-109164476D02*
X109920533Y-109164476D01*
X109920533Y-109164476D02*
X110063390Y-109212095D01*
X110063390Y-109212095D02*
X110634819Y-109783523D01*
X110634819Y-109783523D02*
X110634819Y-109164476D01*
X109634819Y-108831142D02*
X109634819Y-108212095D01*
X109634819Y-108212095D02*
X110015771Y-108545428D01*
X110015771Y-108545428D02*
X110015771Y-108402571D01*
X110015771Y-108402571D02*
X110063390Y-108307333D01*
X110063390Y-108307333D02*
X110111009Y-108259714D01*
X110111009Y-108259714D02*
X110206247Y-108212095D01*
X110206247Y-108212095D02*
X110444342Y-108212095D01*
X110444342Y-108212095D02*
X110539580Y-108259714D01*
X110539580Y-108259714D02*
X110587200Y-108307333D01*
X110587200Y-108307333D02*
X110634819Y-108402571D01*
X110634819Y-108402571D02*
X110634819Y-108688285D01*
X110634819Y-108688285D02*
X110587200Y-108783523D01*
X110587200Y-108783523D02*
X110539580Y-108831142D01*
X156354819Y-125388666D02*
X155878628Y-125721999D01*
X156354819Y-125960094D02*
X155354819Y-125960094D01*
X155354819Y-125960094D02*
X155354819Y-125579142D01*
X155354819Y-125579142D02*
X155402438Y-125483904D01*
X155402438Y-125483904D02*
X155450057Y-125436285D01*
X155450057Y-125436285D02*
X155545295Y-125388666D01*
X155545295Y-125388666D02*
X155688152Y-125388666D01*
X155688152Y-125388666D02*
X155783390Y-125436285D01*
X155783390Y-125436285D02*
X155831009Y-125483904D01*
X155831009Y-125483904D02*
X155878628Y-125579142D01*
X155878628Y-125579142D02*
X155878628Y-125960094D01*
X155354819Y-124483904D02*
X155354819Y-124960094D01*
X155354819Y-124960094D02*
X155831009Y-125007713D01*
X155831009Y-125007713D02*
X155783390Y-124960094D01*
X155783390Y-124960094D02*
X155735771Y-124864856D01*
X155735771Y-124864856D02*
X155735771Y-124626761D01*
X155735771Y-124626761D02*
X155783390Y-124531523D01*
X155783390Y-124531523D02*
X155831009Y-124483904D01*
X155831009Y-124483904D02*
X155926247Y-124436285D01*
X155926247Y-124436285D02*
X156164342Y-124436285D01*
X156164342Y-124436285D02*
X156259580Y-124483904D01*
X156259580Y-124483904D02*
X156307200Y-124531523D01*
X156307200Y-124531523D02*
X156354819Y-124626761D01*
X156354819Y-124626761D02*
X156354819Y-124864856D01*
X156354819Y-124864856D02*
X156307200Y-124960094D01*
X156307200Y-124960094D02*
X156259580Y-125007713D01*
X152828666Y-96990819D02*
X152828666Y-97705104D01*
X152828666Y-97705104D02*
X152781047Y-97847961D01*
X152781047Y-97847961D02*
X152685809Y-97943200D01*
X152685809Y-97943200D02*
X152542952Y-97990819D01*
X152542952Y-97990819D02*
X152447714Y-97990819D01*
X153733428Y-97324152D02*
X153733428Y-97990819D01*
X153495333Y-96943200D02*
X153257238Y-97657485D01*
X153257238Y-97657485D02*
X153876285Y-97657485D01*
X186586952Y-131368819D02*
X186110762Y-131368819D01*
X186110762Y-131368819D02*
X186110762Y-130368819D01*
X186920286Y-130845009D02*
X187253619Y-130845009D01*
X187396476Y-131368819D02*
X186920286Y-131368819D01*
X186920286Y-131368819D02*
X186920286Y-130368819D01*
X186920286Y-130368819D02*
X187396476Y-130368819D01*
X187825048Y-131368819D02*
X187825048Y-130368819D01*
X187825048Y-130368819D02*
X188063143Y-130368819D01*
X188063143Y-130368819D02*
X188206000Y-130416438D01*
X188206000Y-130416438D02*
X188301238Y-130511676D01*
X188301238Y-130511676D02*
X188348857Y-130606914D01*
X188348857Y-130606914D02*
X188396476Y-130797390D01*
X188396476Y-130797390D02*
X188396476Y-130940247D01*
X188396476Y-130940247D02*
X188348857Y-131130723D01*
X188348857Y-131130723D02*
X188301238Y-131225961D01*
X188301238Y-131225961D02*
X188206000Y-131321200D01*
X188206000Y-131321200D02*
X188063143Y-131368819D01*
X188063143Y-131368819D02*
X187825048Y-131368819D01*
X189348857Y-131368819D02*
X188777429Y-131368819D01*
X189063143Y-131368819D02*
X189063143Y-130368819D01*
X189063143Y-130368819D02*
X188967905Y-130511676D01*
X188967905Y-130511676D02*
X188872667Y-130606914D01*
X188872667Y-130606914D02*
X188777429Y-130654533D01*
X120205142Y-105547319D02*
X119871809Y-105071128D01*
X119633714Y-105547319D02*
X119633714Y-104547319D01*
X119633714Y-104547319D02*
X120014666Y-104547319D01*
X120014666Y-104547319D02*
X120109904Y-104594938D01*
X120109904Y-104594938D02*
X120157523Y-104642557D01*
X120157523Y-104642557D02*
X120205142Y-104737795D01*
X120205142Y-104737795D02*
X120205142Y-104880652D01*
X120205142Y-104880652D02*
X120157523Y-104975890D01*
X120157523Y-104975890D02*
X120109904Y-105023509D01*
X120109904Y-105023509D02*
X120014666Y-105071128D01*
X120014666Y-105071128D02*
X119633714Y-105071128D01*
X120586095Y-104642557D02*
X120633714Y-104594938D01*
X120633714Y-104594938D02*
X120728952Y-104547319D01*
X120728952Y-104547319D02*
X120967047Y-104547319D01*
X120967047Y-104547319D02*
X121062285Y-104594938D01*
X121062285Y-104594938D02*
X121109904Y-104642557D01*
X121109904Y-104642557D02*
X121157523Y-104737795D01*
X121157523Y-104737795D02*
X121157523Y-104833033D01*
X121157523Y-104833033D02*
X121109904Y-104975890D01*
X121109904Y-104975890D02*
X120538476Y-105547319D01*
X120538476Y-105547319D02*
X121157523Y-105547319D01*
X121490857Y-104547319D02*
X122157523Y-104547319D01*
X122157523Y-104547319D02*
X121728952Y-105547319D01*
X130198952Y-132026819D02*
X129722762Y-132026819D01*
X129722762Y-132026819D02*
X129722762Y-131026819D01*
X130532286Y-131503009D02*
X130865619Y-131503009D01*
X131008476Y-132026819D02*
X130532286Y-132026819D01*
X130532286Y-132026819D02*
X130532286Y-131026819D01*
X130532286Y-131026819D02*
X131008476Y-131026819D01*
X131437048Y-132026819D02*
X131437048Y-131026819D01*
X131437048Y-131026819D02*
X131675143Y-131026819D01*
X131675143Y-131026819D02*
X131818000Y-131074438D01*
X131818000Y-131074438D02*
X131913238Y-131169676D01*
X131913238Y-131169676D02*
X131960857Y-131264914D01*
X131960857Y-131264914D02*
X132008476Y-131455390D01*
X132008476Y-131455390D02*
X132008476Y-131598247D01*
X132008476Y-131598247D02*
X131960857Y-131788723D01*
X131960857Y-131788723D02*
X131913238Y-131883961D01*
X131913238Y-131883961D02*
X131818000Y-131979200D01*
X131818000Y-131979200D02*
X131675143Y-132026819D01*
X131675143Y-132026819D02*
X131437048Y-132026819D01*
X132865619Y-131026819D02*
X132675143Y-131026819D01*
X132675143Y-131026819D02*
X132579905Y-131074438D01*
X132579905Y-131074438D02*
X132532286Y-131122057D01*
X132532286Y-131122057D02*
X132437048Y-131264914D01*
X132437048Y-131264914D02*
X132389429Y-131455390D01*
X132389429Y-131455390D02*
X132389429Y-131836342D01*
X132389429Y-131836342D02*
X132437048Y-131931580D01*
X132437048Y-131931580D02*
X132484667Y-131979200D01*
X132484667Y-131979200D02*
X132579905Y-132026819D01*
X132579905Y-132026819D02*
X132770381Y-132026819D01*
X132770381Y-132026819D02*
X132865619Y-131979200D01*
X132865619Y-131979200D02*
X132913238Y-131931580D01*
X132913238Y-131931580D02*
X132960857Y-131836342D01*
X132960857Y-131836342D02*
X132960857Y-131598247D01*
X132960857Y-131598247D02*
X132913238Y-131503009D01*
X132913238Y-131503009D02*
X132865619Y-131455390D01*
X132865619Y-131455390D02*
X132770381Y-131407771D01*
X132770381Y-131407771D02*
X132579905Y-131407771D01*
X132579905Y-131407771D02*
X132484667Y-131455390D01*
X132484667Y-131455390D02*
X132437048Y-131503009D01*
X132437048Y-131503009D02*
X132389429Y-131598247D01*
X130756819Y-126626857D02*
X130280628Y-126960190D01*
X130756819Y-127198285D02*
X129756819Y-127198285D01*
X129756819Y-127198285D02*
X129756819Y-126817333D01*
X129756819Y-126817333D02*
X129804438Y-126722095D01*
X129804438Y-126722095D02*
X129852057Y-126674476D01*
X129852057Y-126674476D02*
X129947295Y-126626857D01*
X129947295Y-126626857D02*
X130090152Y-126626857D01*
X130090152Y-126626857D02*
X130185390Y-126674476D01*
X130185390Y-126674476D02*
X130233009Y-126722095D01*
X130233009Y-126722095D02*
X130280628Y-126817333D01*
X130280628Y-126817333D02*
X130280628Y-127198285D01*
X130756819Y-125674476D02*
X130756819Y-126245904D01*
X130756819Y-125960190D02*
X129756819Y-125960190D01*
X129756819Y-125960190D02*
X129899676Y-126055428D01*
X129899676Y-126055428D02*
X129994914Y-126150666D01*
X129994914Y-126150666D02*
X130042533Y-126245904D01*
X129756819Y-124769714D02*
X129756819Y-125245904D01*
X129756819Y-125245904D02*
X130233009Y-125293523D01*
X130233009Y-125293523D02*
X130185390Y-125245904D01*
X130185390Y-125245904D02*
X130137771Y-125150666D01*
X130137771Y-125150666D02*
X130137771Y-124912571D01*
X130137771Y-124912571D02*
X130185390Y-124817333D01*
X130185390Y-124817333D02*
X130233009Y-124769714D01*
X130233009Y-124769714D02*
X130328247Y-124722095D01*
X130328247Y-124722095D02*
X130566342Y-124722095D01*
X130566342Y-124722095D02*
X130661580Y-124769714D01*
X130661580Y-124769714D02*
X130709200Y-124817333D01*
X130709200Y-124817333D02*
X130756819Y-124912571D01*
X130756819Y-124912571D02*
X130756819Y-125150666D01*
X130756819Y-125150666D02*
X130709200Y-125245904D01*
X130709200Y-125245904D02*
X130661580Y-125293523D01*
X180032819Y-99942857D02*
X179556628Y-100276190D01*
X180032819Y-100514285D02*
X179032819Y-100514285D01*
X179032819Y-100514285D02*
X179032819Y-100133333D01*
X179032819Y-100133333D02*
X179080438Y-100038095D01*
X179080438Y-100038095D02*
X179128057Y-99990476D01*
X179128057Y-99990476D02*
X179223295Y-99942857D01*
X179223295Y-99942857D02*
X179366152Y-99942857D01*
X179366152Y-99942857D02*
X179461390Y-99990476D01*
X179461390Y-99990476D02*
X179509009Y-100038095D01*
X179509009Y-100038095D02*
X179556628Y-100133333D01*
X179556628Y-100133333D02*
X179556628Y-100514285D01*
X180032819Y-98990476D02*
X180032819Y-99561904D01*
X180032819Y-99276190D02*
X179032819Y-99276190D01*
X179032819Y-99276190D02*
X179175676Y-99371428D01*
X179175676Y-99371428D02*
X179270914Y-99466666D01*
X179270914Y-99466666D02*
X179318533Y-99561904D01*
X179032819Y-98371428D02*
X179032819Y-98276190D01*
X179032819Y-98276190D02*
X179080438Y-98180952D01*
X179080438Y-98180952D02*
X179128057Y-98133333D01*
X179128057Y-98133333D02*
X179223295Y-98085714D01*
X179223295Y-98085714D02*
X179413771Y-98038095D01*
X179413771Y-98038095D02*
X179651866Y-98038095D01*
X179651866Y-98038095D02*
X179842342Y-98085714D01*
X179842342Y-98085714D02*
X179937580Y-98133333D01*
X179937580Y-98133333D02*
X179985200Y-98180952D01*
X179985200Y-98180952D02*
X180032819Y-98276190D01*
X180032819Y-98276190D02*
X180032819Y-98371428D01*
X180032819Y-98371428D02*
X179985200Y-98466666D01*
X179985200Y-98466666D02*
X179937580Y-98514285D01*
X179937580Y-98514285D02*
X179842342Y-98561904D01*
X179842342Y-98561904D02*
X179651866Y-98609523D01*
X179651866Y-98609523D02*
X179413771Y-98609523D01*
X179413771Y-98609523D02*
X179223295Y-98561904D01*
X179223295Y-98561904D02*
X179128057Y-98514285D01*
X179128057Y-98514285D02*
X179080438Y-98466666D01*
X179080438Y-98466666D02*
X179032819Y-98371428D01*
X163879580Y-106028666D02*
X163927200Y-106076285D01*
X163927200Y-106076285D02*
X163974819Y-106219142D01*
X163974819Y-106219142D02*
X163974819Y-106314380D01*
X163974819Y-106314380D02*
X163927200Y-106457237D01*
X163927200Y-106457237D02*
X163831961Y-106552475D01*
X163831961Y-106552475D02*
X163736723Y-106600094D01*
X163736723Y-106600094D02*
X163546247Y-106647713D01*
X163546247Y-106647713D02*
X163403390Y-106647713D01*
X163403390Y-106647713D02*
X163212914Y-106600094D01*
X163212914Y-106600094D02*
X163117676Y-106552475D01*
X163117676Y-106552475D02*
X163022438Y-106457237D01*
X163022438Y-106457237D02*
X162974819Y-106314380D01*
X162974819Y-106314380D02*
X162974819Y-106219142D01*
X162974819Y-106219142D02*
X163022438Y-106076285D01*
X163022438Y-106076285D02*
X163070057Y-106028666D01*
X163974819Y-105076285D02*
X163974819Y-105647713D01*
X163974819Y-105361999D02*
X162974819Y-105361999D01*
X162974819Y-105361999D02*
X163117676Y-105457237D01*
X163117676Y-105457237D02*
X163212914Y-105552475D01*
X163212914Y-105552475D02*
X163260533Y-105647713D01*
X149526666Y-110594819D02*
X149526666Y-111309104D01*
X149526666Y-111309104D02*
X149479047Y-111451961D01*
X149479047Y-111451961D02*
X149383809Y-111547200D01*
X149383809Y-111547200D02*
X149240952Y-111594819D01*
X149240952Y-111594819D02*
X149145714Y-111594819D01*
X149955238Y-110690057D02*
X150002857Y-110642438D01*
X150002857Y-110642438D02*
X150098095Y-110594819D01*
X150098095Y-110594819D02*
X150336190Y-110594819D01*
X150336190Y-110594819D02*
X150431428Y-110642438D01*
X150431428Y-110642438D02*
X150479047Y-110690057D01*
X150479047Y-110690057D02*
X150526666Y-110785295D01*
X150526666Y-110785295D02*
X150526666Y-110880533D01*
X150526666Y-110880533D02*
X150479047Y-111023390D01*
X150479047Y-111023390D02*
X149907619Y-111594819D01*
X149907619Y-111594819D02*
X150526666Y-111594819D01*
X137717580Y-106846666D02*
X137765200Y-106894285D01*
X137765200Y-106894285D02*
X137812819Y-107037142D01*
X137812819Y-107037142D02*
X137812819Y-107132380D01*
X137812819Y-107132380D02*
X137765200Y-107275237D01*
X137765200Y-107275237D02*
X137669961Y-107370475D01*
X137669961Y-107370475D02*
X137574723Y-107418094D01*
X137574723Y-107418094D02*
X137384247Y-107465713D01*
X137384247Y-107465713D02*
X137241390Y-107465713D01*
X137241390Y-107465713D02*
X137050914Y-107418094D01*
X137050914Y-107418094D02*
X136955676Y-107370475D01*
X136955676Y-107370475D02*
X136860438Y-107275237D01*
X136860438Y-107275237D02*
X136812819Y-107132380D01*
X136812819Y-107132380D02*
X136812819Y-107037142D01*
X136812819Y-107037142D02*
X136860438Y-106894285D01*
X136860438Y-106894285D02*
X136908057Y-106846666D01*
X136812819Y-106513332D02*
X136812819Y-105846666D01*
X136812819Y-105846666D02*
X137812819Y-106275237D01*
X140779142Y-99673580D02*
X140731523Y-99721200D01*
X140731523Y-99721200D02*
X140588666Y-99768819D01*
X140588666Y-99768819D02*
X140493428Y-99768819D01*
X140493428Y-99768819D02*
X140350571Y-99721200D01*
X140350571Y-99721200D02*
X140255333Y-99625961D01*
X140255333Y-99625961D02*
X140207714Y-99530723D01*
X140207714Y-99530723D02*
X140160095Y-99340247D01*
X140160095Y-99340247D02*
X140160095Y-99197390D01*
X140160095Y-99197390D02*
X140207714Y-99006914D01*
X140207714Y-99006914D02*
X140255333Y-98911676D01*
X140255333Y-98911676D02*
X140350571Y-98816438D01*
X140350571Y-98816438D02*
X140493428Y-98768819D01*
X140493428Y-98768819D02*
X140588666Y-98768819D01*
X140588666Y-98768819D02*
X140731523Y-98816438D01*
X140731523Y-98816438D02*
X140779142Y-98864057D01*
X141731523Y-99768819D02*
X141160095Y-99768819D01*
X141445809Y-99768819D02*
X141445809Y-98768819D01*
X141445809Y-98768819D02*
X141350571Y-98911676D01*
X141350571Y-98911676D02*
X141255333Y-99006914D01*
X141255333Y-99006914D02*
X141160095Y-99054533D01*
X142302952Y-99197390D02*
X142207714Y-99149771D01*
X142207714Y-99149771D02*
X142160095Y-99102152D01*
X142160095Y-99102152D02*
X142112476Y-99006914D01*
X142112476Y-99006914D02*
X142112476Y-98959295D01*
X142112476Y-98959295D02*
X142160095Y-98864057D01*
X142160095Y-98864057D02*
X142207714Y-98816438D01*
X142207714Y-98816438D02*
X142302952Y-98768819D01*
X142302952Y-98768819D02*
X142493428Y-98768819D01*
X142493428Y-98768819D02*
X142588666Y-98816438D01*
X142588666Y-98816438D02*
X142636285Y-98864057D01*
X142636285Y-98864057D02*
X142683904Y-98959295D01*
X142683904Y-98959295D02*
X142683904Y-99006914D01*
X142683904Y-99006914D02*
X142636285Y-99102152D01*
X142636285Y-99102152D02*
X142588666Y-99149771D01*
X142588666Y-99149771D02*
X142493428Y-99197390D01*
X142493428Y-99197390D02*
X142302952Y-99197390D01*
X142302952Y-99197390D02*
X142207714Y-99245009D01*
X142207714Y-99245009D02*
X142160095Y-99292628D01*
X142160095Y-99292628D02*
X142112476Y-99387866D01*
X142112476Y-99387866D02*
X142112476Y-99578342D01*
X142112476Y-99578342D02*
X142160095Y-99673580D01*
X142160095Y-99673580D02*
X142207714Y-99721200D01*
X142207714Y-99721200D02*
X142302952Y-99768819D01*
X142302952Y-99768819D02*
X142493428Y-99768819D01*
X142493428Y-99768819D02*
X142588666Y-99721200D01*
X142588666Y-99721200D02*
X142636285Y-99673580D01*
X142636285Y-99673580D02*
X142683904Y-99578342D01*
X142683904Y-99578342D02*
X142683904Y-99387866D01*
X142683904Y-99387866D02*
X142636285Y-99292628D01*
X142636285Y-99292628D02*
X142588666Y-99245009D01*
X142588666Y-99245009D02*
X142493428Y-99197390D01*
X136969142Y-99768819D02*
X136635809Y-99292628D01*
X136397714Y-99768819D02*
X136397714Y-98768819D01*
X136397714Y-98768819D02*
X136778666Y-98768819D01*
X136778666Y-98768819D02*
X136873904Y-98816438D01*
X136873904Y-98816438D02*
X136921523Y-98864057D01*
X136921523Y-98864057D02*
X136969142Y-98959295D01*
X136969142Y-98959295D02*
X136969142Y-99102152D01*
X136969142Y-99102152D02*
X136921523Y-99197390D01*
X136921523Y-99197390D02*
X136873904Y-99245009D01*
X136873904Y-99245009D02*
X136778666Y-99292628D01*
X136778666Y-99292628D02*
X136397714Y-99292628D01*
X137350095Y-98864057D02*
X137397714Y-98816438D01*
X137397714Y-98816438D02*
X137492952Y-98768819D01*
X137492952Y-98768819D02*
X137731047Y-98768819D01*
X137731047Y-98768819D02*
X137826285Y-98816438D01*
X137826285Y-98816438D02*
X137873904Y-98864057D01*
X137873904Y-98864057D02*
X137921523Y-98959295D01*
X137921523Y-98959295D02*
X137921523Y-99054533D01*
X137921523Y-99054533D02*
X137873904Y-99197390D01*
X137873904Y-99197390D02*
X137302476Y-99768819D01*
X137302476Y-99768819D02*
X137921523Y-99768819D01*
X138302476Y-98864057D02*
X138350095Y-98816438D01*
X138350095Y-98816438D02*
X138445333Y-98768819D01*
X138445333Y-98768819D02*
X138683428Y-98768819D01*
X138683428Y-98768819D02*
X138778666Y-98816438D01*
X138778666Y-98816438D02*
X138826285Y-98864057D01*
X138826285Y-98864057D02*
X138873904Y-98959295D01*
X138873904Y-98959295D02*
X138873904Y-99054533D01*
X138873904Y-99054533D02*
X138826285Y-99197390D01*
X138826285Y-99197390D02*
X138254857Y-99768819D01*
X138254857Y-99768819D02*
X138873904Y-99768819D01*
D11*
X173161270Y-125850952D02*
X173100794Y-125971904D01*
X173100794Y-125971904D02*
X172979842Y-126092857D01*
X172979842Y-126092857D02*
X172798413Y-126274285D01*
X172798413Y-126274285D02*
X172737937Y-126395238D01*
X172737937Y-126395238D02*
X172737937Y-126516190D01*
X173040318Y-126455714D02*
X172979842Y-126576666D01*
X172979842Y-126576666D02*
X172858889Y-126697619D01*
X172858889Y-126697619D02*
X172616984Y-126758095D01*
X172616984Y-126758095D02*
X172193651Y-126758095D01*
X172193651Y-126758095D02*
X171951746Y-126697619D01*
X171951746Y-126697619D02*
X171830794Y-126576666D01*
X171830794Y-126576666D02*
X171770318Y-126455714D01*
X171770318Y-126455714D02*
X171770318Y-126213809D01*
X171770318Y-126213809D02*
X171830794Y-126092857D01*
X171830794Y-126092857D02*
X171951746Y-125971904D01*
X171951746Y-125971904D02*
X172193651Y-125911428D01*
X172193651Y-125911428D02*
X172616984Y-125911428D01*
X172616984Y-125911428D02*
X172858889Y-125971904D01*
X172858889Y-125971904D02*
X172979842Y-126092857D01*
X172979842Y-126092857D02*
X173040318Y-126213809D01*
X173040318Y-126213809D02*
X173040318Y-126455714D01*
X171891270Y-125427619D02*
X171830794Y-125367143D01*
X171830794Y-125367143D02*
X171770318Y-125246190D01*
X171770318Y-125246190D02*
X171770318Y-124943809D01*
X171770318Y-124943809D02*
X171830794Y-124822857D01*
X171830794Y-124822857D02*
X171891270Y-124762381D01*
X171891270Y-124762381D02*
X172012222Y-124701904D01*
X172012222Y-124701904D02*
X172133175Y-124701904D01*
X172133175Y-124701904D02*
X172314603Y-124762381D01*
X172314603Y-124762381D02*
X173040318Y-125488095D01*
X173040318Y-125488095D02*
X173040318Y-124701904D01*
D12*
X196193580Y-121038857D02*
X196241200Y-121086476D01*
X196241200Y-121086476D02*
X196288819Y-121229333D01*
X196288819Y-121229333D02*
X196288819Y-121324571D01*
X196288819Y-121324571D02*
X196241200Y-121467428D01*
X196241200Y-121467428D02*
X196145961Y-121562666D01*
X196145961Y-121562666D02*
X196050723Y-121610285D01*
X196050723Y-121610285D02*
X195860247Y-121657904D01*
X195860247Y-121657904D02*
X195717390Y-121657904D01*
X195717390Y-121657904D02*
X195526914Y-121610285D01*
X195526914Y-121610285D02*
X195431676Y-121562666D01*
X195431676Y-121562666D02*
X195336438Y-121467428D01*
X195336438Y-121467428D02*
X195288819Y-121324571D01*
X195288819Y-121324571D02*
X195288819Y-121229333D01*
X195288819Y-121229333D02*
X195336438Y-121086476D01*
X195336438Y-121086476D02*
X195384057Y-121038857D01*
X196288819Y-120086476D02*
X196288819Y-120657904D01*
X196288819Y-120372190D02*
X195288819Y-120372190D01*
X195288819Y-120372190D02*
X195431676Y-120467428D01*
X195431676Y-120467428D02*
X195526914Y-120562666D01*
X195526914Y-120562666D02*
X195574533Y-120657904D01*
X196288819Y-119610285D02*
X196288819Y-119419809D01*
X196288819Y-119419809D02*
X196241200Y-119324571D01*
X196241200Y-119324571D02*
X196193580Y-119276952D01*
X196193580Y-119276952D02*
X196050723Y-119181714D01*
X196050723Y-119181714D02*
X195860247Y-119134095D01*
X195860247Y-119134095D02*
X195479295Y-119134095D01*
X195479295Y-119134095D02*
X195384057Y-119181714D01*
X195384057Y-119181714D02*
X195336438Y-119229333D01*
X195336438Y-119229333D02*
X195288819Y-119324571D01*
X195288819Y-119324571D02*
X195288819Y-119515047D01*
X195288819Y-119515047D02*
X195336438Y-119610285D01*
X195336438Y-119610285D02*
X195384057Y-119657904D01*
X195384057Y-119657904D02*
X195479295Y-119705523D01*
X195479295Y-119705523D02*
X195717390Y-119705523D01*
X195717390Y-119705523D02*
X195812628Y-119657904D01*
X195812628Y-119657904D02*
X195860247Y-119610285D01*
X195860247Y-119610285D02*
X195907866Y-119515047D01*
X195907866Y-119515047D02*
X195907866Y-119324571D01*
X195907866Y-119324571D02*
X195860247Y-119229333D01*
X195860247Y-119229333D02*
X195812628Y-119181714D01*
X195812628Y-119181714D02*
X195717390Y-119134095D01*
X143017142Y-107499580D02*
X142969523Y-107547200D01*
X142969523Y-107547200D02*
X142826666Y-107594819D01*
X142826666Y-107594819D02*
X142731428Y-107594819D01*
X142731428Y-107594819D02*
X142588571Y-107547200D01*
X142588571Y-107547200D02*
X142493333Y-107451961D01*
X142493333Y-107451961D02*
X142445714Y-107356723D01*
X142445714Y-107356723D02*
X142398095Y-107166247D01*
X142398095Y-107166247D02*
X142398095Y-107023390D01*
X142398095Y-107023390D02*
X142445714Y-106832914D01*
X142445714Y-106832914D02*
X142493333Y-106737676D01*
X142493333Y-106737676D02*
X142588571Y-106642438D01*
X142588571Y-106642438D02*
X142731428Y-106594819D01*
X142731428Y-106594819D02*
X142826666Y-106594819D01*
X142826666Y-106594819D02*
X142969523Y-106642438D01*
X142969523Y-106642438D02*
X143017142Y-106690057D01*
X143969523Y-107594819D02*
X143398095Y-107594819D01*
X143683809Y-107594819D02*
X143683809Y-106594819D01*
X143683809Y-106594819D02*
X143588571Y-106737676D01*
X143588571Y-106737676D02*
X143493333Y-106832914D01*
X143493333Y-106832914D02*
X143398095Y-106880533D01*
X144302857Y-106594819D02*
X144969523Y-106594819D01*
X144969523Y-106594819D02*
X144540952Y-107594819D01*
X156354819Y-121070666D02*
X155878628Y-121403999D01*
X156354819Y-121642094D02*
X155354819Y-121642094D01*
X155354819Y-121642094D02*
X155354819Y-121261142D01*
X155354819Y-121261142D02*
X155402438Y-121165904D01*
X155402438Y-121165904D02*
X155450057Y-121118285D01*
X155450057Y-121118285D02*
X155545295Y-121070666D01*
X155545295Y-121070666D02*
X155688152Y-121070666D01*
X155688152Y-121070666D02*
X155783390Y-121118285D01*
X155783390Y-121118285D02*
X155831009Y-121165904D01*
X155831009Y-121165904D02*
X155878628Y-121261142D01*
X155878628Y-121261142D02*
X155878628Y-121642094D01*
X155354819Y-120737332D02*
X155354819Y-120070666D01*
X155354819Y-120070666D02*
X156354819Y-120499237D01*
X146353580Y-124340857D02*
X146401200Y-124388476D01*
X146401200Y-124388476D02*
X146448819Y-124531333D01*
X146448819Y-124531333D02*
X146448819Y-124626571D01*
X146448819Y-124626571D02*
X146401200Y-124769428D01*
X146401200Y-124769428D02*
X146305961Y-124864666D01*
X146305961Y-124864666D02*
X146210723Y-124912285D01*
X146210723Y-124912285D02*
X146020247Y-124959904D01*
X146020247Y-124959904D02*
X145877390Y-124959904D01*
X145877390Y-124959904D02*
X145686914Y-124912285D01*
X145686914Y-124912285D02*
X145591676Y-124864666D01*
X145591676Y-124864666D02*
X145496438Y-124769428D01*
X145496438Y-124769428D02*
X145448819Y-124626571D01*
X145448819Y-124626571D02*
X145448819Y-124531333D01*
X145448819Y-124531333D02*
X145496438Y-124388476D01*
X145496438Y-124388476D02*
X145544057Y-124340857D01*
X146448819Y-123388476D02*
X146448819Y-123959904D01*
X146448819Y-123674190D02*
X145448819Y-123674190D01*
X145448819Y-123674190D02*
X145591676Y-123769428D01*
X145591676Y-123769428D02*
X145686914Y-123864666D01*
X145686914Y-123864666D02*
X145734533Y-123959904D01*
X145448819Y-122483714D02*
X145448819Y-122959904D01*
X145448819Y-122959904D02*
X145925009Y-123007523D01*
X145925009Y-123007523D02*
X145877390Y-122959904D01*
X145877390Y-122959904D02*
X145829771Y-122864666D01*
X145829771Y-122864666D02*
X145829771Y-122626571D01*
X145829771Y-122626571D02*
X145877390Y-122531333D01*
X145877390Y-122531333D02*
X145925009Y-122483714D01*
X145925009Y-122483714D02*
X146020247Y-122436095D01*
X146020247Y-122436095D02*
X146258342Y-122436095D01*
X146258342Y-122436095D02*
X146353580Y-122483714D01*
X146353580Y-122483714D02*
X146401200Y-122531333D01*
X146401200Y-122531333D02*
X146448819Y-122626571D01*
X146448819Y-122626571D02*
X146448819Y-122864666D01*
X146448819Y-122864666D02*
X146401200Y-122959904D01*
X146401200Y-122959904D02*
X146353580Y-123007523D01*
X158894819Y-125388666D02*
X158418628Y-125721999D01*
X158894819Y-125960094D02*
X157894819Y-125960094D01*
X157894819Y-125960094D02*
X157894819Y-125579142D01*
X157894819Y-125579142D02*
X157942438Y-125483904D01*
X157942438Y-125483904D02*
X157990057Y-125436285D01*
X157990057Y-125436285D02*
X158085295Y-125388666D01*
X158085295Y-125388666D02*
X158228152Y-125388666D01*
X158228152Y-125388666D02*
X158323390Y-125436285D01*
X158323390Y-125436285D02*
X158371009Y-125483904D01*
X158371009Y-125483904D02*
X158418628Y-125579142D01*
X158418628Y-125579142D02*
X158418628Y-125960094D01*
X158894819Y-124436285D02*
X158894819Y-125007713D01*
X158894819Y-124721999D02*
X157894819Y-124721999D01*
X157894819Y-124721999D02*
X158037676Y-124817237D01*
X158037676Y-124817237D02*
X158132914Y-124912475D01*
X158132914Y-124912475D02*
X158180533Y-125007713D01*
X182854819Y-111320094D02*
X181854819Y-111320094D01*
X181854819Y-111320094D02*
X181854819Y-111081999D01*
X181854819Y-111081999D02*
X181902438Y-110939142D01*
X181902438Y-110939142D02*
X181997676Y-110843904D01*
X181997676Y-110843904D02*
X182092914Y-110796285D01*
X182092914Y-110796285D02*
X182283390Y-110748666D01*
X182283390Y-110748666D02*
X182426247Y-110748666D01*
X182426247Y-110748666D02*
X182616723Y-110796285D01*
X182616723Y-110796285D02*
X182711961Y-110843904D01*
X182711961Y-110843904D02*
X182807200Y-110939142D01*
X182807200Y-110939142D02*
X182854819Y-111081999D01*
X182854819Y-111081999D02*
X182854819Y-111320094D01*
X182854819Y-109796285D02*
X182854819Y-110367713D01*
X182854819Y-110081999D02*
X181854819Y-110081999D01*
X181854819Y-110081999D02*
X181997676Y-110177237D01*
X181997676Y-110177237D02*
X182092914Y-110272475D01*
X182092914Y-110272475D02*
X182140533Y-110367713D01*
D10*
X105377905Y-101335419D02*
X105377905Y-100335419D01*
X105377905Y-100335419D02*
X105758857Y-100335419D01*
X105758857Y-100335419D02*
X105854095Y-100383038D01*
X105854095Y-100383038D02*
X105901714Y-100430657D01*
X105901714Y-100430657D02*
X105949333Y-100525895D01*
X105949333Y-100525895D02*
X105949333Y-100668752D01*
X105949333Y-100668752D02*
X105901714Y-100763990D01*
X105901714Y-100763990D02*
X105854095Y-100811609D01*
X105854095Y-100811609D02*
X105758857Y-100859228D01*
X105758857Y-100859228D02*
X105377905Y-100859228D01*
X106806476Y-100668752D02*
X106806476Y-101335419D01*
X106568381Y-100287800D02*
X106330286Y-101002085D01*
X106330286Y-101002085D02*
X106949333Y-101002085D01*
D12*
X154124819Y-136114666D02*
X153648628Y-136447999D01*
X154124819Y-136686094D02*
X153124819Y-136686094D01*
X153124819Y-136686094D02*
X153124819Y-136305142D01*
X153124819Y-136305142D02*
X153172438Y-136209904D01*
X153172438Y-136209904D02*
X153220057Y-136162285D01*
X153220057Y-136162285D02*
X153315295Y-136114666D01*
X153315295Y-136114666D02*
X153458152Y-136114666D01*
X153458152Y-136114666D02*
X153553390Y-136162285D01*
X153553390Y-136162285D02*
X153601009Y-136209904D01*
X153601009Y-136209904D02*
X153648628Y-136305142D01*
X153648628Y-136305142D02*
X153648628Y-136686094D01*
X153553390Y-135543237D02*
X153505771Y-135638475D01*
X153505771Y-135638475D02*
X153458152Y-135686094D01*
X153458152Y-135686094D02*
X153362914Y-135733713D01*
X153362914Y-135733713D02*
X153315295Y-135733713D01*
X153315295Y-135733713D02*
X153220057Y-135686094D01*
X153220057Y-135686094D02*
X153172438Y-135638475D01*
X153172438Y-135638475D02*
X153124819Y-135543237D01*
X153124819Y-135543237D02*
X153124819Y-135352761D01*
X153124819Y-135352761D02*
X153172438Y-135257523D01*
X153172438Y-135257523D02*
X153220057Y-135209904D01*
X153220057Y-135209904D02*
X153315295Y-135162285D01*
X153315295Y-135162285D02*
X153362914Y-135162285D01*
X153362914Y-135162285D02*
X153458152Y-135209904D01*
X153458152Y-135209904D02*
X153505771Y-135257523D01*
X153505771Y-135257523D02*
X153553390Y-135352761D01*
X153553390Y-135352761D02*
X153553390Y-135543237D01*
X153553390Y-135543237D02*
X153601009Y-135638475D01*
X153601009Y-135638475D02*
X153648628Y-135686094D01*
X153648628Y-135686094D02*
X153743866Y-135733713D01*
X153743866Y-135733713D02*
X153934342Y-135733713D01*
X153934342Y-135733713D02*
X154029580Y-135686094D01*
X154029580Y-135686094D02*
X154077200Y-135638475D01*
X154077200Y-135638475D02*
X154124819Y-135543237D01*
X154124819Y-135543237D02*
X154124819Y-135352761D01*
X154124819Y-135352761D02*
X154077200Y-135257523D01*
X154077200Y-135257523D02*
X154029580Y-135209904D01*
X154029580Y-135209904D02*
X153934342Y-135162285D01*
X153934342Y-135162285D02*
X153743866Y-135162285D01*
X153743866Y-135162285D02*
X153648628Y-135209904D01*
X153648628Y-135209904D02*
X153601009Y-135257523D01*
X153601009Y-135257523D02*
X153553390Y-135352761D01*
X134683142Y-101451580D02*
X134635523Y-101499200D01*
X134635523Y-101499200D02*
X134492666Y-101546819D01*
X134492666Y-101546819D02*
X134397428Y-101546819D01*
X134397428Y-101546819D02*
X134254571Y-101499200D01*
X134254571Y-101499200D02*
X134159333Y-101403961D01*
X134159333Y-101403961D02*
X134111714Y-101308723D01*
X134111714Y-101308723D02*
X134064095Y-101118247D01*
X134064095Y-101118247D02*
X134064095Y-100975390D01*
X134064095Y-100975390D02*
X134111714Y-100784914D01*
X134111714Y-100784914D02*
X134159333Y-100689676D01*
X134159333Y-100689676D02*
X134254571Y-100594438D01*
X134254571Y-100594438D02*
X134397428Y-100546819D01*
X134397428Y-100546819D02*
X134492666Y-100546819D01*
X134492666Y-100546819D02*
X134635523Y-100594438D01*
X134635523Y-100594438D02*
X134683142Y-100642057D01*
X135635523Y-101546819D02*
X135064095Y-101546819D01*
X135349809Y-101546819D02*
X135349809Y-100546819D01*
X135349809Y-100546819D02*
X135254571Y-100689676D01*
X135254571Y-100689676D02*
X135159333Y-100784914D01*
X135159333Y-100784914D02*
X135064095Y-100832533D01*
X135968857Y-100546819D02*
X136587904Y-100546819D01*
X136587904Y-100546819D02*
X136254571Y-100927771D01*
X136254571Y-100927771D02*
X136397428Y-100927771D01*
X136397428Y-100927771D02*
X136492666Y-100975390D01*
X136492666Y-100975390D02*
X136540285Y-101023009D01*
X136540285Y-101023009D02*
X136587904Y-101118247D01*
X136587904Y-101118247D02*
X136587904Y-101356342D01*
X136587904Y-101356342D02*
X136540285Y-101451580D01*
X136540285Y-101451580D02*
X136492666Y-101499200D01*
X136492666Y-101499200D02*
X136397428Y-101546819D01*
X136397428Y-101546819D02*
X136111714Y-101546819D01*
X136111714Y-101546819D02*
X136016476Y-101499200D01*
X136016476Y-101499200D02*
X135968857Y-101451580D01*
D11*
X138470237Y-125324318D02*
X138470237Y-124054318D01*
X139800714Y-125203365D02*
X139740238Y-125263842D01*
X139740238Y-125263842D02*
X139558809Y-125324318D01*
X139558809Y-125324318D02*
X139437857Y-125324318D01*
X139437857Y-125324318D02*
X139256428Y-125263842D01*
X139256428Y-125263842D02*
X139135476Y-125142889D01*
X139135476Y-125142889D02*
X139074999Y-125021937D01*
X139074999Y-125021937D02*
X139014523Y-124780032D01*
X139014523Y-124780032D02*
X139014523Y-124598603D01*
X139014523Y-124598603D02*
X139074999Y-124356699D01*
X139074999Y-124356699D02*
X139135476Y-124235746D01*
X139135476Y-124235746D02*
X139256428Y-124114794D01*
X139256428Y-124114794D02*
X139437857Y-124054318D01*
X139437857Y-124054318D02*
X139558809Y-124054318D01*
X139558809Y-124054318D02*
X139740238Y-124114794D01*
X139740238Y-124114794D02*
X139800714Y-124175270D01*
X140284523Y-124175270D02*
X140344999Y-124114794D01*
X140344999Y-124114794D02*
X140465952Y-124054318D01*
X140465952Y-124054318D02*
X140768333Y-124054318D01*
X140768333Y-124054318D02*
X140889285Y-124114794D01*
X140889285Y-124114794D02*
X140949761Y-124175270D01*
X140949761Y-124175270D02*
X141010238Y-124296222D01*
X141010238Y-124296222D02*
X141010238Y-124417175D01*
X141010238Y-124417175D02*
X140949761Y-124598603D01*
X140949761Y-124598603D02*
X140224047Y-125324318D01*
X140224047Y-125324318D02*
X141010238Y-125324318D01*
D12*
X123353142Y-113152819D02*
X123019809Y-112676628D01*
X122781714Y-113152819D02*
X122781714Y-112152819D01*
X122781714Y-112152819D02*
X123162666Y-112152819D01*
X123162666Y-112152819D02*
X123257904Y-112200438D01*
X123257904Y-112200438D02*
X123305523Y-112248057D01*
X123305523Y-112248057D02*
X123353142Y-112343295D01*
X123353142Y-112343295D02*
X123353142Y-112486152D01*
X123353142Y-112486152D02*
X123305523Y-112581390D01*
X123305523Y-112581390D02*
X123257904Y-112629009D01*
X123257904Y-112629009D02*
X123162666Y-112676628D01*
X123162666Y-112676628D02*
X122781714Y-112676628D01*
X123734095Y-112248057D02*
X123781714Y-112200438D01*
X123781714Y-112200438D02*
X123876952Y-112152819D01*
X123876952Y-112152819D02*
X124115047Y-112152819D01*
X124115047Y-112152819D02*
X124210285Y-112200438D01*
X124210285Y-112200438D02*
X124257904Y-112248057D01*
X124257904Y-112248057D02*
X124305523Y-112343295D01*
X124305523Y-112343295D02*
X124305523Y-112438533D01*
X124305523Y-112438533D02*
X124257904Y-112581390D01*
X124257904Y-112581390D02*
X123686476Y-113152819D01*
X123686476Y-113152819D02*
X124305523Y-113152819D01*
X125162666Y-112486152D02*
X125162666Y-113152819D01*
X124924571Y-112105200D02*
X124686476Y-112819485D01*
X124686476Y-112819485D02*
X125305523Y-112819485D01*
X109109580Y-100892857D02*
X109157200Y-100940476D01*
X109157200Y-100940476D02*
X109204819Y-101083333D01*
X109204819Y-101083333D02*
X109204819Y-101178571D01*
X109204819Y-101178571D02*
X109157200Y-101321428D01*
X109157200Y-101321428D02*
X109061961Y-101416666D01*
X109061961Y-101416666D02*
X108966723Y-101464285D01*
X108966723Y-101464285D02*
X108776247Y-101511904D01*
X108776247Y-101511904D02*
X108633390Y-101511904D01*
X108633390Y-101511904D02*
X108442914Y-101464285D01*
X108442914Y-101464285D02*
X108347676Y-101416666D01*
X108347676Y-101416666D02*
X108252438Y-101321428D01*
X108252438Y-101321428D02*
X108204819Y-101178571D01*
X108204819Y-101178571D02*
X108204819Y-101083333D01*
X108204819Y-101083333D02*
X108252438Y-100940476D01*
X108252438Y-100940476D02*
X108300057Y-100892857D01*
X108300057Y-100511904D02*
X108252438Y-100464285D01*
X108252438Y-100464285D02*
X108204819Y-100369047D01*
X108204819Y-100369047D02*
X108204819Y-100130952D01*
X108204819Y-100130952D02*
X108252438Y-100035714D01*
X108252438Y-100035714D02*
X108300057Y-99988095D01*
X108300057Y-99988095D02*
X108395295Y-99940476D01*
X108395295Y-99940476D02*
X108490533Y-99940476D01*
X108490533Y-99940476D02*
X108633390Y-99988095D01*
X108633390Y-99988095D02*
X109204819Y-100559523D01*
X109204819Y-100559523D02*
X109204819Y-99940476D01*
X108204819Y-99035714D02*
X108204819Y-99511904D01*
X108204819Y-99511904D02*
X108681009Y-99559523D01*
X108681009Y-99559523D02*
X108633390Y-99511904D01*
X108633390Y-99511904D02*
X108585771Y-99416666D01*
X108585771Y-99416666D02*
X108585771Y-99178571D01*
X108585771Y-99178571D02*
X108633390Y-99083333D01*
X108633390Y-99083333D02*
X108681009Y-99035714D01*
X108681009Y-99035714D02*
X108776247Y-98988095D01*
X108776247Y-98988095D02*
X109014342Y-98988095D01*
X109014342Y-98988095D02*
X109109580Y-99035714D01*
X109109580Y-99035714D02*
X109157200Y-99083333D01*
X109157200Y-99083333D02*
X109204819Y-99178571D01*
X109204819Y-99178571D02*
X109204819Y-99416666D01*
X109204819Y-99416666D02*
X109157200Y-99511904D01*
X109157200Y-99511904D02*
X109109580Y-99559523D01*
D11*
X129465318Y-100256381D02*
X128195318Y-100256381D01*
X128195318Y-100256381D02*
X128195318Y-99954000D01*
X128195318Y-99954000D02*
X128255794Y-99772571D01*
X128255794Y-99772571D02*
X128376746Y-99651619D01*
X128376746Y-99651619D02*
X128497699Y-99591142D01*
X128497699Y-99591142D02*
X128739603Y-99530666D01*
X128739603Y-99530666D02*
X128921032Y-99530666D01*
X128921032Y-99530666D02*
X129162937Y-99591142D01*
X129162937Y-99591142D02*
X129283889Y-99651619D01*
X129283889Y-99651619D02*
X129404842Y-99772571D01*
X129404842Y-99772571D02*
X129465318Y-99954000D01*
X129465318Y-99954000D02*
X129465318Y-100256381D01*
X128316270Y-99046857D02*
X128255794Y-98986381D01*
X128255794Y-98986381D02*
X128195318Y-98865428D01*
X128195318Y-98865428D02*
X128195318Y-98563047D01*
X128195318Y-98563047D02*
X128255794Y-98442095D01*
X128255794Y-98442095D02*
X128316270Y-98381619D01*
X128316270Y-98381619D02*
X128437222Y-98321142D01*
X128437222Y-98321142D02*
X128558175Y-98321142D01*
X128558175Y-98321142D02*
X128739603Y-98381619D01*
X128739603Y-98381619D02*
X129465318Y-99107333D01*
X129465318Y-99107333D02*
X129465318Y-98321142D01*
X145590381Y-95062318D02*
X146316095Y-95062318D01*
X145953238Y-96332318D02*
X145953238Y-95062318D01*
X147404667Y-96332318D02*
X146678952Y-96332318D01*
X147041809Y-96332318D02*
X147041809Y-95062318D01*
X147041809Y-95062318D02*
X146920857Y-95243746D01*
X146920857Y-95243746D02*
X146799905Y-95364699D01*
X146799905Y-95364699D02*
X146678952Y-95425175D01*
D12*
X112839142Y-99419580D02*
X112791523Y-99467200D01*
X112791523Y-99467200D02*
X112648666Y-99514819D01*
X112648666Y-99514819D02*
X112553428Y-99514819D01*
X112553428Y-99514819D02*
X112410571Y-99467200D01*
X112410571Y-99467200D02*
X112315333Y-99371961D01*
X112315333Y-99371961D02*
X112267714Y-99276723D01*
X112267714Y-99276723D02*
X112220095Y-99086247D01*
X112220095Y-99086247D02*
X112220095Y-98943390D01*
X112220095Y-98943390D02*
X112267714Y-98752914D01*
X112267714Y-98752914D02*
X112315333Y-98657676D01*
X112315333Y-98657676D02*
X112410571Y-98562438D01*
X112410571Y-98562438D02*
X112553428Y-98514819D01*
X112553428Y-98514819D02*
X112648666Y-98514819D01*
X112648666Y-98514819D02*
X112791523Y-98562438D01*
X112791523Y-98562438D02*
X112839142Y-98610057D01*
X113220095Y-98610057D02*
X113267714Y-98562438D01*
X113267714Y-98562438D02*
X113362952Y-98514819D01*
X113362952Y-98514819D02*
X113601047Y-98514819D01*
X113601047Y-98514819D02*
X113696285Y-98562438D01*
X113696285Y-98562438D02*
X113743904Y-98610057D01*
X113743904Y-98610057D02*
X113791523Y-98705295D01*
X113791523Y-98705295D02*
X113791523Y-98800533D01*
X113791523Y-98800533D02*
X113743904Y-98943390D01*
X113743904Y-98943390D02*
X113172476Y-99514819D01*
X113172476Y-99514819D02*
X113791523Y-99514819D01*
X114743904Y-99514819D02*
X114172476Y-99514819D01*
X114458190Y-99514819D02*
X114458190Y-98514819D01*
X114458190Y-98514819D02*
X114362952Y-98657676D01*
X114362952Y-98657676D02*
X114267714Y-98752914D01*
X114267714Y-98752914D02*
X114172476Y-98800533D01*
X162202952Y-131772819D02*
X161726762Y-131772819D01*
X161726762Y-131772819D02*
X161726762Y-130772819D01*
X162536286Y-131249009D02*
X162869619Y-131249009D01*
X163012476Y-131772819D02*
X162536286Y-131772819D01*
X162536286Y-131772819D02*
X162536286Y-130772819D01*
X162536286Y-130772819D02*
X163012476Y-130772819D01*
X163441048Y-131772819D02*
X163441048Y-130772819D01*
X163441048Y-130772819D02*
X163679143Y-130772819D01*
X163679143Y-130772819D02*
X163822000Y-130820438D01*
X163822000Y-130820438D02*
X163917238Y-130915676D01*
X163917238Y-130915676D02*
X163964857Y-131010914D01*
X163964857Y-131010914D02*
X164012476Y-131201390D01*
X164012476Y-131201390D02*
X164012476Y-131344247D01*
X164012476Y-131344247D02*
X163964857Y-131534723D01*
X163964857Y-131534723D02*
X163917238Y-131629961D01*
X163917238Y-131629961D02*
X163822000Y-131725200D01*
X163822000Y-131725200D02*
X163679143Y-131772819D01*
X163679143Y-131772819D02*
X163441048Y-131772819D01*
X164345810Y-130772819D02*
X164964857Y-130772819D01*
X164964857Y-130772819D02*
X164631524Y-131153771D01*
X164631524Y-131153771D02*
X164774381Y-131153771D01*
X164774381Y-131153771D02*
X164869619Y-131201390D01*
X164869619Y-131201390D02*
X164917238Y-131249009D01*
X164917238Y-131249009D02*
X164964857Y-131344247D01*
X164964857Y-131344247D02*
X164964857Y-131582342D01*
X164964857Y-131582342D02*
X164917238Y-131677580D01*
X164917238Y-131677580D02*
X164869619Y-131725200D01*
X164869619Y-131725200D02*
X164774381Y-131772819D01*
X164774381Y-131772819D02*
X164488667Y-131772819D01*
X164488667Y-131772819D02*
X164393429Y-131725200D01*
X164393429Y-131725200D02*
X164345810Y-131677580D01*
X139056819Y-113958857D02*
X138580628Y-114292190D01*
X139056819Y-114530285D02*
X138056819Y-114530285D01*
X138056819Y-114530285D02*
X138056819Y-114149333D01*
X138056819Y-114149333D02*
X138104438Y-114054095D01*
X138104438Y-114054095D02*
X138152057Y-114006476D01*
X138152057Y-114006476D02*
X138247295Y-113958857D01*
X138247295Y-113958857D02*
X138390152Y-113958857D01*
X138390152Y-113958857D02*
X138485390Y-114006476D01*
X138485390Y-114006476D02*
X138533009Y-114054095D01*
X138533009Y-114054095D02*
X138580628Y-114149333D01*
X138580628Y-114149333D02*
X138580628Y-114530285D01*
X138152057Y-113577904D02*
X138104438Y-113530285D01*
X138104438Y-113530285D02*
X138056819Y-113435047D01*
X138056819Y-113435047D02*
X138056819Y-113196952D01*
X138056819Y-113196952D02*
X138104438Y-113101714D01*
X138104438Y-113101714D02*
X138152057Y-113054095D01*
X138152057Y-113054095D02*
X138247295Y-113006476D01*
X138247295Y-113006476D02*
X138342533Y-113006476D01*
X138342533Y-113006476D02*
X138485390Y-113054095D01*
X138485390Y-113054095D02*
X139056819Y-113625523D01*
X139056819Y-113625523D02*
X139056819Y-113006476D01*
X139056819Y-112054095D02*
X139056819Y-112625523D01*
X139056819Y-112339809D02*
X138056819Y-112339809D01*
X138056819Y-112339809D02*
X138199676Y-112435047D01*
X138199676Y-112435047D02*
X138294914Y-112530285D01*
X138294914Y-112530285D02*
X138342533Y-112625523D01*
X119834819Y-127388857D02*
X119358628Y-127722190D01*
X119834819Y-127960285D02*
X118834819Y-127960285D01*
X118834819Y-127960285D02*
X118834819Y-127579333D01*
X118834819Y-127579333D02*
X118882438Y-127484095D01*
X118882438Y-127484095D02*
X118930057Y-127436476D01*
X118930057Y-127436476D02*
X119025295Y-127388857D01*
X119025295Y-127388857D02*
X119168152Y-127388857D01*
X119168152Y-127388857D02*
X119263390Y-127436476D01*
X119263390Y-127436476D02*
X119311009Y-127484095D01*
X119311009Y-127484095D02*
X119358628Y-127579333D01*
X119358628Y-127579333D02*
X119358628Y-127960285D01*
X119834819Y-126436476D02*
X119834819Y-127007904D01*
X119834819Y-126722190D02*
X118834819Y-126722190D01*
X118834819Y-126722190D02*
X118977676Y-126817428D01*
X118977676Y-126817428D02*
X119072914Y-126912666D01*
X119072914Y-126912666D02*
X119120533Y-127007904D01*
X118834819Y-125579333D02*
X118834819Y-125769809D01*
X118834819Y-125769809D02*
X118882438Y-125865047D01*
X118882438Y-125865047D02*
X118930057Y-125912666D01*
X118930057Y-125912666D02*
X119072914Y-126007904D01*
X119072914Y-126007904D02*
X119263390Y-126055523D01*
X119263390Y-126055523D02*
X119644342Y-126055523D01*
X119644342Y-126055523D02*
X119739580Y-126007904D01*
X119739580Y-126007904D02*
X119787200Y-125960285D01*
X119787200Y-125960285D02*
X119834819Y-125865047D01*
X119834819Y-125865047D02*
X119834819Y-125674571D01*
X119834819Y-125674571D02*
X119787200Y-125579333D01*
X119787200Y-125579333D02*
X119739580Y-125531714D01*
X119739580Y-125531714D02*
X119644342Y-125484095D01*
X119644342Y-125484095D02*
X119406247Y-125484095D01*
X119406247Y-125484095D02*
X119311009Y-125531714D01*
X119311009Y-125531714D02*
X119263390Y-125579333D01*
X119263390Y-125579333D02*
X119215771Y-125674571D01*
X119215771Y-125674571D02*
X119215771Y-125865047D01*
X119215771Y-125865047D02*
X119263390Y-125960285D01*
X119263390Y-125960285D02*
X119311009Y-126007904D01*
X119311009Y-126007904D02*
X119406247Y-126055523D01*
D11*
X188752237Y-123256318D02*
X188752237Y-121986318D01*
X190082714Y-123135365D02*
X190022238Y-123195842D01*
X190022238Y-123195842D02*
X189840809Y-123256318D01*
X189840809Y-123256318D02*
X189719857Y-123256318D01*
X189719857Y-123256318D02*
X189538428Y-123195842D01*
X189538428Y-123195842D02*
X189417476Y-123074889D01*
X189417476Y-123074889D02*
X189356999Y-122953937D01*
X189356999Y-122953937D02*
X189296523Y-122712032D01*
X189296523Y-122712032D02*
X189296523Y-122530603D01*
X189296523Y-122530603D02*
X189356999Y-122288699D01*
X189356999Y-122288699D02*
X189417476Y-122167746D01*
X189417476Y-122167746D02*
X189538428Y-122046794D01*
X189538428Y-122046794D02*
X189719857Y-121986318D01*
X189719857Y-121986318D02*
X189840809Y-121986318D01*
X189840809Y-121986318D02*
X190022238Y-122046794D01*
X190022238Y-122046794D02*
X190082714Y-122107270D01*
X190506047Y-121986318D02*
X191292238Y-121986318D01*
X191292238Y-121986318D02*
X190868904Y-122470127D01*
X190868904Y-122470127D02*
X191050333Y-122470127D01*
X191050333Y-122470127D02*
X191171285Y-122530603D01*
X191171285Y-122530603D02*
X191231761Y-122591080D01*
X191231761Y-122591080D02*
X191292238Y-122712032D01*
X191292238Y-122712032D02*
X191292238Y-123014413D01*
X191292238Y-123014413D02*
X191231761Y-123135365D01*
X191231761Y-123135365D02*
X191171285Y-123195842D01*
X191171285Y-123195842D02*
X191050333Y-123256318D01*
X191050333Y-123256318D02*
X190687476Y-123256318D01*
X190687476Y-123256318D02*
X190566523Y-123195842D01*
X190566523Y-123195842D02*
X190506047Y-123135365D01*
D12*
X146607580Y-99956857D02*
X146655200Y-100004476D01*
X146655200Y-100004476D02*
X146702819Y-100147333D01*
X146702819Y-100147333D02*
X146702819Y-100242571D01*
X146702819Y-100242571D02*
X146655200Y-100385428D01*
X146655200Y-100385428D02*
X146559961Y-100480666D01*
X146559961Y-100480666D02*
X146464723Y-100528285D01*
X146464723Y-100528285D02*
X146274247Y-100575904D01*
X146274247Y-100575904D02*
X146131390Y-100575904D01*
X146131390Y-100575904D02*
X145940914Y-100528285D01*
X145940914Y-100528285D02*
X145845676Y-100480666D01*
X145845676Y-100480666D02*
X145750438Y-100385428D01*
X145750438Y-100385428D02*
X145702819Y-100242571D01*
X145702819Y-100242571D02*
X145702819Y-100147333D01*
X145702819Y-100147333D02*
X145750438Y-100004476D01*
X145750438Y-100004476D02*
X145798057Y-99956857D01*
X146702819Y-99004476D02*
X146702819Y-99575904D01*
X146702819Y-99290190D02*
X145702819Y-99290190D01*
X145702819Y-99290190D02*
X145845676Y-99385428D01*
X145845676Y-99385428D02*
X145940914Y-99480666D01*
X145940914Y-99480666D02*
X145988533Y-99575904D01*
X146036152Y-98147333D02*
X146702819Y-98147333D01*
X145655200Y-98385428D02*
X146369485Y-98623523D01*
X146369485Y-98623523D02*
X146369485Y-98004476D01*
X163268819Y-136058666D02*
X162792628Y-136391999D01*
X163268819Y-136630094D02*
X162268819Y-136630094D01*
X162268819Y-136630094D02*
X162268819Y-136249142D01*
X162268819Y-136249142D02*
X162316438Y-136153904D01*
X162316438Y-136153904D02*
X162364057Y-136106285D01*
X162364057Y-136106285D02*
X162459295Y-136058666D01*
X162459295Y-136058666D02*
X162602152Y-136058666D01*
X162602152Y-136058666D02*
X162697390Y-136106285D01*
X162697390Y-136106285D02*
X162745009Y-136153904D01*
X162745009Y-136153904D02*
X162792628Y-136249142D01*
X162792628Y-136249142D02*
X162792628Y-136630094D01*
X162268819Y-135201523D02*
X162268819Y-135391999D01*
X162268819Y-135391999D02*
X162316438Y-135487237D01*
X162316438Y-135487237D02*
X162364057Y-135534856D01*
X162364057Y-135534856D02*
X162506914Y-135630094D01*
X162506914Y-135630094D02*
X162697390Y-135677713D01*
X162697390Y-135677713D02*
X163078342Y-135677713D01*
X163078342Y-135677713D02*
X163173580Y-135630094D01*
X163173580Y-135630094D02*
X163221200Y-135582475D01*
X163221200Y-135582475D02*
X163268819Y-135487237D01*
X163268819Y-135487237D02*
X163268819Y-135296761D01*
X163268819Y-135296761D02*
X163221200Y-135201523D01*
X163221200Y-135201523D02*
X163173580Y-135153904D01*
X163173580Y-135153904D02*
X163078342Y-135106285D01*
X163078342Y-135106285D02*
X162840247Y-135106285D01*
X162840247Y-135106285D02*
X162745009Y-135153904D01*
X162745009Y-135153904D02*
X162697390Y-135201523D01*
X162697390Y-135201523D02*
X162649771Y-135296761D01*
X162649771Y-135296761D02*
X162649771Y-135487237D01*
X162649771Y-135487237D02*
X162697390Y-135582475D01*
X162697390Y-135582475D02*
X162745009Y-135630094D01*
X162745009Y-135630094D02*
X162840247Y-135677713D01*
X124356952Y-131772819D02*
X123880762Y-131772819D01*
X123880762Y-131772819D02*
X123880762Y-130772819D01*
X124690286Y-131249009D02*
X125023619Y-131249009D01*
X125166476Y-131772819D02*
X124690286Y-131772819D01*
X124690286Y-131772819D02*
X124690286Y-130772819D01*
X124690286Y-130772819D02*
X125166476Y-130772819D01*
X125595048Y-131772819D02*
X125595048Y-130772819D01*
X125595048Y-130772819D02*
X125833143Y-130772819D01*
X125833143Y-130772819D02*
X125976000Y-130820438D01*
X125976000Y-130820438D02*
X126071238Y-130915676D01*
X126071238Y-130915676D02*
X126118857Y-131010914D01*
X126118857Y-131010914D02*
X126166476Y-131201390D01*
X126166476Y-131201390D02*
X126166476Y-131344247D01*
X126166476Y-131344247D02*
X126118857Y-131534723D01*
X126118857Y-131534723D02*
X126071238Y-131629961D01*
X126071238Y-131629961D02*
X125976000Y-131725200D01*
X125976000Y-131725200D02*
X125833143Y-131772819D01*
X125833143Y-131772819D02*
X125595048Y-131772819D01*
X127071238Y-130772819D02*
X126595048Y-130772819D01*
X126595048Y-130772819D02*
X126547429Y-131249009D01*
X126547429Y-131249009D02*
X126595048Y-131201390D01*
X126595048Y-131201390D02*
X126690286Y-131153771D01*
X126690286Y-131153771D02*
X126928381Y-131153771D01*
X126928381Y-131153771D02*
X127023619Y-131201390D01*
X127023619Y-131201390D02*
X127071238Y-131249009D01*
X127071238Y-131249009D02*
X127118857Y-131344247D01*
X127118857Y-131344247D02*
X127118857Y-131582342D01*
X127118857Y-131582342D02*
X127071238Y-131677580D01*
X127071238Y-131677580D02*
X127023619Y-131725200D01*
X127023619Y-131725200D02*
X126928381Y-131772819D01*
X126928381Y-131772819D02*
X126690286Y-131772819D01*
X126690286Y-131772819D02*
X126595048Y-131725200D01*
X126595048Y-131725200D02*
X126547429Y-131677580D01*
X172416666Y-106134819D02*
X172416666Y-106849104D01*
X172416666Y-106849104D02*
X172369047Y-106991961D01*
X172369047Y-106991961D02*
X172273809Y-107087200D01*
X172273809Y-107087200D02*
X172130952Y-107134819D01*
X172130952Y-107134819D02*
X172035714Y-107134819D01*
X173416666Y-107134819D02*
X172845238Y-107134819D01*
X173130952Y-107134819D02*
X173130952Y-106134819D01*
X173130952Y-106134819D02*
X173035714Y-106277676D01*
X173035714Y-106277676D02*
X172940476Y-106372914D01*
X172940476Y-106372914D02*
X172845238Y-106420533D01*
X158894819Y-121070666D02*
X158418628Y-121403999D01*
X158894819Y-121642094D02*
X157894819Y-121642094D01*
X157894819Y-121642094D02*
X157894819Y-121261142D01*
X157894819Y-121261142D02*
X157942438Y-121165904D01*
X157942438Y-121165904D02*
X157990057Y-121118285D01*
X157990057Y-121118285D02*
X158085295Y-121070666D01*
X158085295Y-121070666D02*
X158228152Y-121070666D01*
X158228152Y-121070666D02*
X158323390Y-121118285D01*
X158323390Y-121118285D02*
X158371009Y-121165904D01*
X158371009Y-121165904D02*
X158418628Y-121261142D01*
X158418628Y-121261142D02*
X158418628Y-121642094D01*
X157894819Y-120737332D02*
X157894819Y-120118285D01*
X157894819Y-120118285D02*
X158275771Y-120451618D01*
X158275771Y-120451618D02*
X158275771Y-120308761D01*
X158275771Y-120308761D02*
X158323390Y-120213523D01*
X158323390Y-120213523D02*
X158371009Y-120165904D01*
X158371009Y-120165904D02*
X158466247Y-120118285D01*
X158466247Y-120118285D02*
X158704342Y-120118285D01*
X158704342Y-120118285D02*
X158799580Y-120165904D01*
X158799580Y-120165904D02*
X158847200Y-120213523D01*
X158847200Y-120213523D02*
X158894819Y-120308761D01*
X158894819Y-120308761D02*
X158894819Y-120594475D01*
X158894819Y-120594475D02*
X158847200Y-120689713D01*
X158847200Y-120689713D02*
X158799580Y-120737332D01*
D11*
X190312318Y-108119332D02*
X191219461Y-108119332D01*
X191219461Y-108119332D02*
X191400889Y-108179809D01*
X191400889Y-108179809D02*
X191521842Y-108300761D01*
X191521842Y-108300761D02*
X191582318Y-108482190D01*
X191582318Y-108482190D02*
X191582318Y-108603142D01*
X190312318Y-107635523D02*
X190312318Y-106849332D01*
X190312318Y-106849332D02*
X190796127Y-107272666D01*
X190796127Y-107272666D02*
X190796127Y-107091237D01*
X190796127Y-107091237D02*
X190856603Y-106970285D01*
X190856603Y-106970285D02*
X190917080Y-106909809D01*
X190917080Y-106909809D02*
X191038032Y-106849332D01*
X191038032Y-106849332D02*
X191340413Y-106849332D01*
X191340413Y-106849332D02*
X191461365Y-106909809D01*
X191461365Y-106909809D02*
X191521842Y-106970285D01*
X191521842Y-106970285D02*
X191582318Y-107091237D01*
X191582318Y-107091237D02*
X191582318Y-107454094D01*
X191582318Y-107454094D02*
X191521842Y-107575047D01*
X191521842Y-107575047D02*
X191461365Y-107635523D01*
D12*
X132478819Y-106306857D02*
X132002628Y-106640190D01*
X132478819Y-106878285D02*
X131478819Y-106878285D01*
X131478819Y-106878285D02*
X131478819Y-106497333D01*
X131478819Y-106497333D02*
X131526438Y-106402095D01*
X131526438Y-106402095D02*
X131574057Y-106354476D01*
X131574057Y-106354476D02*
X131669295Y-106306857D01*
X131669295Y-106306857D02*
X131812152Y-106306857D01*
X131812152Y-106306857D02*
X131907390Y-106354476D01*
X131907390Y-106354476D02*
X131955009Y-106402095D01*
X131955009Y-106402095D02*
X132002628Y-106497333D01*
X132002628Y-106497333D02*
X132002628Y-106878285D01*
X132478819Y-105354476D02*
X132478819Y-105925904D01*
X132478819Y-105640190D02*
X131478819Y-105640190D01*
X131478819Y-105640190D02*
X131621676Y-105735428D01*
X131621676Y-105735428D02*
X131716914Y-105830666D01*
X131716914Y-105830666D02*
X131764533Y-105925904D01*
X132478819Y-104878285D02*
X132478819Y-104687809D01*
X132478819Y-104687809D02*
X132431200Y-104592571D01*
X132431200Y-104592571D02*
X132383580Y-104544952D01*
X132383580Y-104544952D02*
X132240723Y-104449714D01*
X132240723Y-104449714D02*
X132050247Y-104402095D01*
X132050247Y-104402095D02*
X131669295Y-104402095D01*
X131669295Y-104402095D02*
X131574057Y-104449714D01*
X131574057Y-104449714D02*
X131526438Y-104497333D01*
X131526438Y-104497333D02*
X131478819Y-104592571D01*
X131478819Y-104592571D02*
X131478819Y-104783047D01*
X131478819Y-104783047D02*
X131526438Y-104878285D01*
X131526438Y-104878285D02*
X131574057Y-104925904D01*
X131574057Y-104925904D02*
X131669295Y-104973523D01*
X131669295Y-104973523D02*
X131907390Y-104973523D01*
X131907390Y-104973523D02*
X132002628Y-104925904D01*
X132002628Y-104925904D02*
X132050247Y-104878285D01*
X132050247Y-104878285D02*
X132097866Y-104783047D01*
X132097866Y-104783047D02*
X132097866Y-104592571D01*
X132097866Y-104592571D02*
X132050247Y-104497333D01*
X132050247Y-104497333D02*
X132002628Y-104449714D01*
X132002628Y-104449714D02*
X131907390Y-104402095D01*
X144639333Y-115385580D02*
X144591714Y-115433200D01*
X144591714Y-115433200D02*
X144448857Y-115480819D01*
X144448857Y-115480819D02*
X144353619Y-115480819D01*
X144353619Y-115480819D02*
X144210762Y-115433200D01*
X144210762Y-115433200D02*
X144115524Y-115337961D01*
X144115524Y-115337961D02*
X144067905Y-115242723D01*
X144067905Y-115242723D02*
X144020286Y-115052247D01*
X144020286Y-115052247D02*
X144020286Y-114909390D01*
X144020286Y-114909390D02*
X144067905Y-114718914D01*
X144067905Y-114718914D02*
X144115524Y-114623676D01*
X144115524Y-114623676D02*
X144210762Y-114528438D01*
X144210762Y-114528438D02*
X144353619Y-114480819D01*
X144353619Y-114480819D02*
X144448857Y-114480819D01*
X144448857Y-114480819D02*
X144591714Y-114528438D01*
X144591714Y-114528438D02*
X144639333Y-114576057D01*
X145210762Y-114909390D02*
X145115524Y-114861771D01*
X145115524Y-114861771D02*
X145067905Y-114814152D01*
X145067905Y-114814152D02*
X145020286Y-114718914D01*
X145020286Y-114718914D02*
X145020286Y-114671295D01*
X145020286Y-114671295D02*
X145067905Y-114576057D01*
X145067905Y-114576057D02*
X145115524Y-114528438D01*
X145115524Y-114528438D02*
X145210762Y-114480819D01*
X145210762Y-114480819D02*
X145401238Y-114480819D01*
X145401238Y-114480819D02*
X145496476Y-114528438D01*
X145496476Y-114528438D02*
X145544095Y-114576057D01*
X145544095Y-114576057D02*
X145591714Y-114671295D01*
X145591714Y-114671295D02*
X145591714Y-114718914D01*
X145591714Y-114718914D02*
X145544095Y-114814152D01*
X145544095Y-114814152D02*
X145496476Y-114861771D01*
X145496476Y-114861771D02*
X145401238Y-114909390D01*
X145401238Y-114909390D02*
X145210762Y-114909390D01*
X145210762Y-114909390D02*
X145115524Y-114957009D01*
X145115524Y-114957009D02*
X145067905Y-115004628D01*
X145067905Y-115004628D02*
X145020286Y-115099866D01*
X145020286Y-115099866D02*
X145020286Y-115290342D01*
X145020286Y-115290342D02*
X145067905Y-115385580D01*
X145067905Y-115385580D02*
X145115524Y-115433200D01*
X145115524Y-115433200D02*
X145210762Y-115480819D01*
X145210762Y-115480819D02*
X145401238Y-115480819D01*
X145401238Y-115480819D02*
X145496476Y-115433200D01*
X145496476Y-115433200D02*
X145544095Y-115385580D01*
X145544095Y-115385580D02*
X145591714Y-115290342D01*
X145591714Y-115290342D02*
X145591714Y-115099866D01*
X145591714Y-115099866D02*
X145544095Y-115004628D01*
X145544095Y-115004628D02*
X145496476Y-114957009D01*
X145496476Y-114957009D02*
X145401238Y-114909390D01*
D10*
X105459905Y-88091419D02*
X105459905Y-87091419D01*
X105459905Y-87091419D02*
X105840857Y-87091419D01*
X105840857Y-87091419D02*
X105936095Y-87139038D01*
X105936095Y-87139038D02*
X105983714Y-87186657D01*
X105983714Y-87186657D02*
X106031333Y-87281895D01*
X106031333Y-87281895D02*
X106031333Y-87424752D01*
X106031333Y-87424752D02*
X105983714Y-87519990D01*
X105983714Y-87519990D02*
X105936095Y-87567609D01*
X105936095Y-87567609D02*
X105840857Y-87615228D01*
X105840857Y-87615228D02*
X105459905Y-87615228D01*
X106412286Y-87186657D02*
X106459905Y-87139038D01*
X106459905Y-87139038D02*
X106555143Y-87091419D01*
X106555143Y-87091419D02*
X106793238Y-87091419D01*
X106793238Y-87091419D02*
X106888476Y-87139038D01*
X106888476Y-87139038D02*
X106936095Y-87186657D01*
X106936095Y-87186657D02*
X106983714Y-87281895D01*
X106983714Y-87281895D02*
X106983714Y-87377133D01*
X106983714Y-87377133D02*
X106936095Y-87519990D01*
X106936095Y-87519990D02*
X106364667Y-88091419D01*
X106364667Y-88091419D02*
X106983714Y-88091419D01*
D11*
X165287270Y-129406952D02*
X165226794Y-129527904D01*
X165226794Y-129527904D02*
X165105842Y-129648857D01*
X165105842Y-129648857D02*
X164924413Y-129830285D01*
X164924413Y-129830285D02*
X164863937Y-129951238D01*
X164863937Y-129951238D02*
X164863937Y-130072190D01*
X165166318Y-130011714D02*
X165105842Y-130132666D01*
X165105842Y-130132666D02*
X164984889Y-130253619D01*
X164984889Y-130253619D02*
X164742984Y-130314095D01*
X164742984Y-130314095D02*
X164319651Y-130314095D01*
X164319651Y-130314095D02*
X164077746Y-130253619D01*
X164077746Y-130253619D02*
X163956794Y-130132666D01*
X163956794Y-130132666D02*
X163896318Y-130011714D01*
X163896318Y-130011714D02*
X163896318Y-129769809D01*
X163896318Y-129769809D02*
X163956794Y-129648857D01*
X163956794Y-129648857D02*
X164077746Y-129527904D01*
X164077746Y-129527904D02*
X164319651Y-129467428D01*
X164319651Y-129467428D02*
X164742984Y-129467428D01*
X164742984Y-129467428D02*
X164984889Y-129527904D01*
X164984889Y-129527904D02*
X165105842Y-129648857D01*
X165105842Y-129648857D02*
X165166318Y-129769809D01*
X165166318Y-129769809D02*
X165166318Y-130011714D01*
X163896318Y-129044095D02*
X163896318Y-128257904D01*
X163896318Y-128257904D02*
X164380127Y-128681238D01*
X164380127Y-128681238D02*
X164380127Y-128499809D01*
X164380127Y-128499809D02*
X164440603Y-128378857D01*
X164440603Y-128378857D02*
X164501080Y-128318381D01*
X164501080Y-128318381D02*
X164622032Y-128257904D01*
X164622032Y-128257904D02*
X164924413Y-128257904D01*
X164924413Y-128257904D02*
X165045365Y-128318381D01*
X165045365Y-128318381D02*
X165105842Y-128378857D01*
X165105842Y-128378857D02*
X165166318Y-128499809D01*
X165166318Y-128499809D02*
X165166318Y-128862666D01*
X165166318Y-128862666D02*
X165105842Y-128983619D01*
X165105842Y-128983619D02*
X165045365Y-129044095D01*
D12*
X173428819Y-136058666D02*
X172952628Y-136391999D01*
X173428819Y-136630094D02*
X172428819Y-136630094D01*
X172428819Y-136630094D02*
X172428819Y-136249142D01*
X172428819Y-136249142D02*
X172476438Y-136153904D01*
X172476438Y-136153904D02*
X172524057Y-136106285D01*
X172524057Y-136106285D02*
X172619295Y-136058666D01*
X172619295Y-136058666D02*
X172762152Y-136058666D01*
X172762152Y-136058666D02*
X172857390Y-136106285D01*
X172857390Y-136106285D02*
X172905009Y-136153904D01*
X172905009Y-136153904D02*
X172952628Y-136249142D01*
X172952628Y-136249142D02*
X172952628Y-136630094D01*
X172762152Y-135201523D02*
X173428819Y-135201523D01*
X172381200Y-135439618D02*
X173095485Y-135677713D01*
X173095485Y-135677713D02*
X173095485Y-135058666D01*
X181556819Y-99974666D02*
X181080628Y-100307999D01*
X181556819Y-100546094D02*
X180556819Y-100546094D01*
X180556819Y-100546094D02*
X180556819Y-100165142D01*
X180556819Y-100165142D02*
X180604438Y-100069904D01*
X180604438Y-100069904D02*
X180652057Y-100022285D01*
X180652057Y-100022285D02*
X180747295Y-99974666D01*
X180747295Y-99974666D02*
X180890152Y-99974666D01*
X180890152Y-99974666D02*
X180985390Y-100022285D01*
X180985390Y-100022285D02*
X181033009Y-100069904D01*
X181033009Y-100069904D02*
X181080628Y-100165142D01*
X181080628Y-100165142D02*
X181080628Y-100546094D01*
X181556819Y-99498475D02*
X181556819Y-99307999D01*
X181556819Y-99307999D02*
X181509200Y-99212761D01*
X181509200Y-99212761D02*
X181461580Y-99165142D01*
X181461580Y-99165142D02*
X181318723Y-99069904D01*
X181318723Y-99069904D02*
X181128247Y-99022285D01*
X181128247Y-99022285D02*
X180747295Y-99022285D01*
X180747295Y-99022285D02*
X180652057Y-99069904D01*
X180652057Y-99069904D02*
X180604438Y-99117523D01*
X180604438Y-99117523D02*
X180556819Y-99212761D01*
X180556819Y-99212761D02*
X180556819Y-99403237D01*
X180556819Y-99403237D02*
X180604438Y-99498475D01*
X180604438Y-99498475D02*
X180652057Y-99546094D01*
X180652057Y-99546094D02*
X180747295Y-99593713D01*
X180747295Y-99593713D02*
X180985390Y-99593713D01*
X180985390Y-99593713D02*
X181080628Y-99546094D01*
X181080628Y-99546094D02*
X181128247Y-99498475D01*
X181128247Y-99498475D02*
X181175866Y-99403237D01*
X181175866Y-99403237D02*
X181175866Y-99212761D01*
X181175866Y-99212761D02*
X181128247Y-99117523D01*
X181128247Y-99117523D02*
X181080628Y-99069904D01*
X181080628Y-99069904D02*
X180985390Y-99022285D01*
D11*
X121301571Y-92268318D02*
X120878237Y-91663556D01*
X120575856Y-92268318D02*
X120575856Y-90998318D01*
X120575856Y-90998318D02*
X121059666Y-90998318D01*
X121059666Y-90998318D02*
X121180618Y-91058794D01*
X121180618Y-91058794D02*
X121241095Y-91119270D01*
X121241095Y-91119270D02*
X121301571Y-91240222D01*
X121301571Y-91240222D02*
X121301571Y-91421651D01*
X121301571Y-91421651D02*
X121241095Y-91542603D01*
X121241095Y-91542603D02*
X121180618Y-91603080D01*
X121180618Y-91603080D02*
X121059666Y-91663556D01*
X121059666Y-91663556D02*
X120575856Y-91663556D01*
X122511095Y-92268318D02*
X121785380Y-92268318D01*
X122148237Y-92268318D02*
X122148237Y-90998318D01*
X122148237Y-90998318D02*
X122027285Y-91179746D01*
X122027285Y-91179746D02*
X121906333Y-91300699D01*
X121906333Y-91300699D02*
X121785380Y-91361175D01*
X122934428Y-90998318D02*
X123781095Y-90998318D01*
X123781095Y-90998318D02*
X123236809Y-92268318D01*
X108718048Y-87696318D02*
X108294714Y-87091556D01*
X107992333Y-87696318D02*
X107992333Y-86426318D01*
X107992333Y-86426318D02*
X108476143Y-86426318D01*
X108476143Y-86426318D02*
X108597095Y-86486794D01*
X108597095Y-86486794D02*
X108657572Y-86547270D01*
X108657572Y-86547270D02*
X108718048Y-86668222D01*
X108718048Y-86668222D02*
X108718048Y-86849651D01*
X108718048Y-86849651D02*
X108657572Y-86970603D01*
X108657572Y-86970603D02*
X108597095Y-87031080D01*
X108597095Y-87031080D02*
X108476143Y-87091556D01*
X108476143Y-87091556D02*
X107992333Y-87091556D01*
X109080905Y-86426318D02*
X109504238Y-87696318D01*
X109504238Y-87696318D02*
X109927572Y-86426318D01*
X111016143Y-87696318D02*
X110290428Y-87696318D01*
X110653285Y-87696318D02*
X110653285Y-86426318D01*
X110653285Y-86426318D02*
X110532333Y-86607746D01*
X110532333Y-86607746D02*
X110411381Y-86728699D01*
X110411381Y-86728699D02*
X110290428Y-86789175D01*
D12*
X125271580Y-103766857D02*
X125319200Y-103814476D01*
X125319200Y-103814476D02*
X125366819Y-103957333D01*
X125366819Y-103957333D02*
X125366819Y-104052571D01*
X125366819Y-104052571D02*
X125319200Y-104195428D01*
X125319200Y-104195428D02*
X125223961Y-104290666D01*
X125223961Y-104290666D02*
X125128723Y-104338285D01*
X125128723Y-104338285D02*
X124938247Y-104385904D01*
X124938247Y-104385904D02*
X124795390Y-104385904D01*
X124795390Y-104385904D02*
X124604914Y-104338285D01*
X124604914Y-104338285D02*
X124509676Y-104290666D01*
X124509676Y-104290666D02*
X124414438Y-104195428D01*
X124414438Y-104195428D02*
X124366819Y-104052571D01*
X124366819Y-104052571D02*
X124366819Y-103957333D01*
X124366819Y-103957333D02*
X124414438Y-103814476D01*
X124414438Y-103814476D02*
X124462057Y-103766857D01*
X124462057Y-103385904D02*
X124414438Y-103338285D01*
X124414438Y-103338285D02*
X124366819Y-103243047D01*
X124366819Y-103243047D02*
X124366819Y-103004952D01*
X124366819Y-103004952D02*
X124414438Y-102909714D01*
X124414438Y-102909714D02*
X124462057Y-102862095D01*
X124462057Y-102862095D02*
X124557295Y-102814476D01*
X124557295Y-102814476D02*
X124652533Y-102814476D01*
X124652533Y-102814476D02*
X124795390Y-102862095D01*
X124795390Y-102862095D02*
X125366819Y-103433523D01*
X125366819Y-103433523D02*
X125366819Y-102814476D01*
X124462057Y-102433523D02*
X124414438Y-102385904D01*
X124414438Y-102385904D02*
X124366819Y-102290666D01*
X124366819Y-102290666D02*
X124366819Y-102052571D01*
X124366819Y-102052571D02*
X124414438Y-101957333D01*
X124414438Y-101957333D02*
X124462057Y-101909714D01*
X124462057Y-101909714D02*
X124557295Y-101862095D01*
X124557295Y-101862095D02*
X124652533Y-101862095D01*
X124652533Y-101862095D02*
X124795390Y-101909714D01*
X124795390Y-101909714D02*
X125366819Y-102481142D01*
X125366819Y-102481142D02*
X125366819Y-101862095D01*
X120205142Y-101800819D02*
X119871809Y-101324628D01*
X119633714Y-101800819D02*
X119633714Y-100800819D01*
X119633714Y-100800819D02*
X120014666Y-100800819D01*
X120014666Y-100800819D02*
X120109904Y-100848438D01*
X120109904Y-100848438D02*
X120157523Y-100896057D01*
X120157523Y-100896057D02*
X120205142Y-100991295D01*
X120205142Y-100991295D02*
X120205142Y-101134152D01*
X120205142Y-101134152D02*
X120157523Y-101229390D01*
X120157523Y-101229390D02*
X120109904Y-101277009D01*
X120109904Y-101277009D02*
X120014666Y-101324628D01*
X120014666Y-101324628D02*
X119633714Y-101324628D01*
X120586095Y-100896057D02*
X120633714Y-100848438D01*
X120633714Y-100848438D02*
X120728952Y-100800819D01*
X120728952Y-100800819D02*
X120967047Y-100800819D01*
X120967047Y-100800819D02*
X121062285Y-100848438D01*
X121062285Y-100848438D02*
X121109904Y-100896057D01*
X121109904Y-100896057D02*
X121157523Y-100991295D01*
X121157523Y-100991295D02*
X121157523Y-101086533D01*
X121157523Y-101086533D02*
X121109904Y-101229390D01*
X121109904Y-101229390D02*
X120538476Y-101800819D01*
X120538476Y-101800819D02*
X121157523Y-101800819D01*
X122062285Y-100800819D02*
X121586095Y-100800819D01*
X121586095Y-100800819D02*
X121538476Y-101277009D01*
X121538476Y-101277009D02*
X121586095Y-101229390D01*
X121586095Y-101229390D02*
X121681333Y-101181771D01*
X121681333Y-101181771D02*
X121919428Y-101181771D01*
X121919428Y-101181771D02*
X122014666Y-101229390D01*
X122014666Y-101229390D02*
X122062285Y-101277009D01*
X122062285Y-101277009D02*
X122109904Y-101372247D01*
X122109904Y-101372247D02*
X122109904Y-101610342D01*
X122109904Y-101610342D02*
X122062285Y-101705580D01*
X122062285Y-101705580D02*
X122014666Y-101753200D01*
X122014666Y-101753200D02*
X121919428Y-101800819D01*
X121919428Y-101800819D02*
X121681333Y-101800819D01*
X121681333Y-101800819D02*
X121586095Y-101753200D01*
X121586095Y-101753200D02*
X121538476Y-101705580D01*
X188263580Y-106289666D02*
X188311200Y-106337285D01*
X188311200Y-106337285D02*
X188358819Y-106480142D01*
X188358819Y-106480142D02*
X188358819Y-106575380D01*
X188358819Y-106575380D02*
X188311200Y-106718237D01*
X188311200Y-106718237D02*
X188215961Y-106813475D01*
X188215961Y-106813475D02*
X188120723Y-106861094D01*
X188120723Y-106861094D02*
X187930247Y-106908713D01*
X187930247Y-106908713D02*
X187787390Y-106908713D01*
X187787390Y-106908713D02*
X187596914Y-106861094D01*
X187596914Y-106861094D02*
X187501676Y-106813475D01*
X187501676Y-106813475D02*
X187406438Y-106718237D01*
X187406438Y-106718237D02*
X187358819Y-106575380D01*
X187358819Y-106575380D02*
X187358819Y-106480142D01*
X187358819Y-106480142D02*
X187406438Y-106337285D01*
X187406438Y-106337285D02*
X187454057Y-106289666D01*
X187358819Y-105432523D02*
X187358819Y-105622999D01*
X187358819Y-105622999D02*
X187406438Y-105718237D01*
X187406438Y-105718237D02*
X187454057Y-105765856D01*
X187454057Y-105765856D02*
X187596914Y-105861094D01*
X187596914Y-105861094D02*
X187787390Y-105908713D01*
X187787390Y-105908713D02*
X188168342Y-105908713D01*
X188168342Y-105908713D02*
X188263580Y-105861094D01*
X188263580Y-105861094D02*
X188311200Y-105813475D01*
X188311200Y-105813475D02*
X188358819Y-105718237D01*
X188358819Y-105718237D02*
X188358819Y-105527761D01*
X188358819Y-105527761D02*
X188311200Y-105432523D01*
X188311200Y-105432523D02*
X188263580Y-105384904D01*
X188263580Y-105384904D02*
X188168342Y-105337285D01*
X188168342Y-105337285D02*
X187930247Y-105337285D01*
X187930247Y-105337285D02*
X187835009Y-105384904D01*
X187835009Y-105384904D02*
X187787390Y-105432523D01*
X187787390Y-105432523D02*
X187739771Y-105527761D01*
X187739771Y-105527761D02*
X187739771Y-105718237D01*
X187739771Y-105718237D02*
X187787390Y-105813475D01*
X187787390Y-105813475D02*
X187835009Y-105861094D01*
X187835009Y-105861094D02*
X187930247Y-105908713D01*
X178762819Y-99942857D02*
X178286628Y-100276190D01*
X178762819Y-100514285D02*
X177762819Y-100514285D01*
X177762819Y-100514285D02*
X177762819Y-100133333D01*
X177762819Y-100133333D02*
X177810438Y-100038095D01*
X177810438Y-100038095D02*
X177858057Y-99990476D01*
X177858057Y-99990476D02*
X177953295Y-99942857D01*
X177953295Y-99942857D02*
X178096152Y-99942857D01*
X178096152Y-99942857D02*
X178191390Y-99990476D01*
X178191390Y-99990476D02*
X178239009Y-100038095D01*
X178239009Y-100038095D02*
X178286628Y-100133333D01*
X178286628Y-100133333D02*
X178286628Y-100514285D01*
X178762819Y-98990476D02*
X178762819Y-99561904D01*
X178762819Y-99276190D02*
X177762819Y-99276190D01*
X177762819Y-99276190D02*
X177905676Y-99371428D01*
X177905676Y-99371428D02*
X178000914Y-99466666D01*
X178000914Y-99466666D02*
X178048533Y-99561904D01*
X178762819Y-98038095D02*
X178762819Y-98609523D01*
X178762819Y-98323809D02*
X177762819Y-98323809D01*
X177762819Y-98323809D02*
X177905676Y-98419047D01*
X177905676Y-98419047D02*
X178000914Y-98514285D01*
X178000914Y-98514285D02*
X178048533Y-98609523D01*
X132891580Y-112910857D02*
X132939200Y-112958476D01*
X132939200Y-112958476D02*
X132986819Y-113101333D01*
X132986819Y-113101333D02*
X132986819Y-113196571D01*
X132986819Y-113196571D02*
X132939200Y-113339428D01*
X132939200Y-113339428D02*
X132843961Y-113434666D01*
X132843961Y-113434666D02*
X132748723Y-113482285D01*
X132748723Y-113482285D02*
X132558247Y-113529904D01*
X132558247Y-113529904D02*
X132415390Y-113529904D01*
X132415390Y-113529904D02*
X132224914Y-113482285D01*
X132224914Y-113482285D02*
X132129676Y-113434666D01*
X132129676Y-113434666D02*
X132034438Y-113339428D01*
X132034438Y-113339428D02*
X131986819Y-113196571D01*
X131986819Y-113196571D02*
X131986819Y-113101333D01*
X131986819Y-113101333D02*
X132034438Y-112958476D01*
X132034438Y-112958476D02*
X132082057Y-112910857D01*
X132986819Y-111958476D02*
X132986819Y-112529904D01*
X132986819Y-112244190D02*
X131986819Y-112244190D01*
X131986819Y-112244190D02*
X132129676Y-112339428D01*
X132129676Y-112339428D02*
X132224914Y-112434666D01*
X132224914Y-112434666D02*
X132272533Y-112529904D01*
X132986819Y-111006095D02*
X132986819Y-111577523D01*
X132986819Y-111291809D02*
X131986819Y-111291809D01*
X131986819Y-111291809D02*
X132129676Y-111387047D01*
X132129676Y-111387047D02*
X132224914Y-111482285D01*
X132224914Y-111482285D02*
X132272533Y-111577523D01*
X161339580Y-106084666D02*
X161387200Y-106132285D01*
X161387200Y-106132285D02*
X161434819Y-106275142D01*
X161434819Y-106275142D02*
X161434819Y-106370380D01*
X161434819Y-106370380D02*
X161387200Y-106513237D01*
X161387200Y-106513237D02*
X161291961Y-106608475D01*
X161291961Y-106608475D02*
X161196723Y-106656094D01*
X161196723Y-106656094D02*
X161006247Y-106703713D01*
X161006247Y-106703713D02*
X160863390Y-106703713D01*
X160863390Y-106703713D02*
X160672914Y-106656094D01*
X160672914Y-106656094D02*
X160577676Y-106608475D01*
X160577676Y-106608475D02*
X160482438Y-106513237D01*
X160482438Y-106513237D02*
X160434819Y-106370380D01*
X160434819Y-106370380D02*
X160434819Y-106275142D01*
X160434819Y-106275142D02*
X160482438Y-106132285D01*
X160482438Y-106132285D02*
X160530057Y-106084666D01*
X160530057Y-105703713D02*
X160482438Y-105656094D01*
X160482438Y-105656094D02*
X160434819Y-105560856D01*
X160434819Y-105560856D02*
X160434819Y-105322761D01*
X160434819Y-105322761D02*
X160482438Y-105227523D01*
X160482438Y-105227523D02*
X160530057Y-105179904D01*
X160530057Y-105179904D02*
X160625295Y-105132285D01*
X160625295Y-105132285D02*
X160720533Y-105132285D01*
X160720533Y-105132285D02*
X160863390Y-105179904D01*
X160863390Y-105179904D02*
X161434819Y-105751332D01*
X161434819Y-105751332D02*
X161434819Y-105132285D01*
X183080819Y-135986666D02*
X182604628Y-136319999D01*
X183080819Y-136558094D02*
X182080819Y-136558094D01*
X182080819Y-136558094D02*
X182080819Y-136177142D01*
X182080819Y-136177142D02*
X182128438Y-136081904D01*
X182128438Y-136081904D02*
X182176057Y-136034285D01*
X182176057Y-136034285D02*
X182271295Y-135986666D01*
X182271295Y-135986666D02*
X182414152Y-135986666D01*
X182414152Y-135986666D02*
X182509390Y-136034285D01*
X182509390Y-136034285D02*
X182557009Y-136081904D01*
X182557009Y-136081904D02*
X182604628Y-136177142D01*
X182604628Y-136177142D02*
X182604628Y-136558094D01*
X182176057Y-135605713D02*
X182128438Y-135558094D01*
X182128438Y-135558094D02*
X182080819Y-135462856D01*
X182080819Y-135462856D02*
X182080819Y-135224761D01*
X182080819Y-135224761D02*
X182128438Y-135129523D01*
X182128438Y-135129523D02*
X182176057Y-135081904D01*
X182176057Y-135081904D02*
X182271295Y-135034285D01*
X182271295Y-135034285D02*
X182366533Y-135034285D01*
X182366533Y-135034285D02*
X182509390Y-135081904D01*
X182509390Y-135081904D02*
X183080819Y-135653332D01*
X183080819Y-135653332D02*
X183080819Y-135034285D01*
D11*
X134807270Y-125596952D02*
X134746794Y-125717904D01*
X134746794Y-125717904D02*
X134625842Y-125838857D01*
X134625842Y-125838857D02*
X134444413Y-126020285D01*
X134444413Y-126020285D02*
X134383937Y-126141238D01*
X134383937Y-126141238D02*
X134383937Y-126262190D01*
X134686318Y-126201714D02*
X134625842Y-126322666D01*
X134625842Y-126322666D02*
X134504889Y-126443619D01*
X134504889Y-126443619D02*
X134262984Y-126504095D01*
X134262984Y-126504095D02*
X133839651Y-126504095D01*
X133839651Y-126504095D02*
X133597746Y-126443619D01*
X133597746Y-126443619D02*
X133476794Y-126322666D01*
X133476794Y-126322666D02*
X133416318Y-126201714D01*
X133416318Y-126201714D02*
X133416318Y-125959809D01*
X133416318Y-125959809D02*
X133476794Y-125838857D01*
X133476794Y-125838857D02*
X133597746Y-125717904D01*
X133597746Y-125717904D02*
X133839651Y-125657428D01*
X133839651Y-125657428D02*
X134262984Y-125657428D01*
X134262984Y-125657428D02*
X134504889Y-125717904D01*
X134504889Y-125717904D02*
X134625842Y-125838857D01*
X134625842Y-125838857D02*
X134686318Y-125959809D01*
X134686318Y-125959809D02*
X134686318Y-126201714D01*
X133416318Y-124568857D02*
X133416318Y-124810762D01*
X133416318Y-124810762D02*
X133476794Y-124931714D01*
X133476794Y-124931714D02*
X133537270Y-124992190D01*
X133537270Y-124992190D02*
X133718699Y-125113143D01*
X133718699Y-125113143D02*
X133960603Y-125173619D01*
X133960603Y-125173619D02*
X134444413Y-125173619D01*
X134444413Y-125173619D02*
X134565365Y-125113143D01*
X134565365Y-125113143D02*
X134625842Y-125052666D01*
X134625842Y-125052666D02*
X134686318Y-124931714D01*
X134686318Y-124931714D02*
X134686318Y-124689809D01*
X134686318Y-124689809D02*
X134625842Y-124568857D01*
X134625842Y-124568857D02*
X134565365Y-124508381D01*
X134565365Y-124508381D02*
X134444413Y-124447904D01*
X134444413Y-124447904D02*
X134142032Y-124447904D01*
X134142032Y-124447904D02*
X134021080Y-124508381D01*
X134021080Y-124508381D02*
X133960603Y-124568857D01*
X133960603Y-124568857D02*
X133900127Y-124689809D01*
X133900127Y-124689809D02*
X133900127Y-124931714D01*
X133900127Y-124931714D02*
X133960603Y-125052666D01*
X133960603Y-125052666D02*
X134021080Y-125113143D01*
X134021080Y-125113143D02*
X134142032Y-125173619D01*
X196381270Y-133674952D02*
X196320794Y-133795904D01*
X196320794Y-133795904D02*
X196199842Y-133916857D01*
X196199842Y-133916857D02*
X196018413Y-134098285D01*
X196018413Y-134098285D02*
X195957937Y-134219238D01*
X195957937Y-134219238D02*
X195957937Y-134340190D01*
X196260318Y-134279714D02*
X196199842Y-134400666D01*
X196199842Y-134400666D02*
X196078889Y-134521619D01*
X196078889Y-134521619D02*
X195836984Y-134582095D01*
X195836984Y-134582095D02*
X195413651Y-134582095D01*
X195413651Y-134582095D02*
X195171746Y-134521619D01*
X195171746Y-134521619D02*
X195050794Y-134400666D01*
X195050794Y-134400666D02*
X194990318Y-134279714D01*
X194990318Y-134279714D02*
X194990318Y-134037809D01*
X194990318Y-134037809D02*
X195050794Y-133916857D01*
X195050794Y-133916857D02*
X195171746Y-133795904D01*
X195171746Y-133795904D02*
X195413651Y-133735428D01*
X195413651Y-133735428D02*
X195836984Y-133735428D01*
X195836984Y-133735428D02*
X196078889Y-133795904D01*
X196078889Y-133795904D02*
X196199842Y-133916857D01*
X196199842Y-133916857D02*
X196260318Y-134037809D01*
X196260318Y-134037809D02*
X196260318Y-134279714D01*
X196260318Y-132525904D02*
X196260318Y-133251619D01*
X196260318Y-132888762D02*
X194990318Y-132888762D01*
X194990318Y-132888762D02*
X195171746Y-133009714D01*
X195171746Y-133009714D02*
X195292699Y-133130666D01*
X195292699Y-133130666D02*
X195353175Y-133251619D01*
D12*
X190607142Y-101359580D02*
X190559523Y-101407200D01*
X190559523Y-101407200D02*
X190416666Y-101454819D01*
X190416666Y-101454819D02*
X190321428Y-101454819D01*
X190321428Y-101454819D02*
X190178571Y-101407200D01*
X190178571Y-101407200D02*
X190083333Y-101311961D01*
X190083333Y-101311961D02*
X190035714Y-101216723D01*
X190035714Y-101216723D02*
X189988095Y-101026247D01*
X189988095Y-101026247D02*
X189988095Y-100883390D01*
X189988095Y-100883390D02*
X190035714Y-100692914D01*
X190035714Y-100692914D02*
X190083333Y-100597676D01*
X190083333Y-100597676D02*
X190178571Y-100502438D01*
X190178571Y-100502438D02*
X190321428Y-100454819D01*
X190321428Y-100454819D02*
X190416666Y-100454819D01*
X190416666Y-100454819D02*
X190559523Y-100502438D01*
X190559523Y-100502438D02*
X190607142Y-100550057D01*
X190988095Y-100550057D02*
X191035714Y-100502438D01*
X191035714Y-100502438D02*
X191130952Y-100454819D01*
X191130952Y-100454819D02*
X191369047Y-100454819D01*
X191369047Y-100454819D02*
X191464285Y-100502438D01*
X191464285Y-100502438D02*
X191511904Y-100550057D01*
X191511904Y-100550057D02*
X191559523Y-100645295D01*
X191559523Y-100645295D02*
X191559523Y-100740533D01*
X191559523Y-100740533D02*
X191511904Y-100883390D01*
X191511904Y-100883390D02*
X190940476Y-101454819D01*
X190940476Y-101454819D02*
X191559523Y-101454819D01*
X192416666Y-100454819D02*
X192226190Y-100454819D01*
X192226190Y-100454819D02*
X192130952Y-100502438D01*
X192130952Y-100502438D02*
X192083333Y-100550057D01*
X192083333Y-100550057D02*
X191988095Y-100692914D01*
X191988095Y-100692914D02*
X191940476Y-100883390D01*
X191940476Y-100883390D02*
X191940476Y-101264342D01*
X191940476Y-101264342D02*
X191988095Y-101359580D01*
X191988095Y-101359580D02*
X192035714Y-101407200D01*
X192035714Y-101407200D02*
X192130952Y-101454819D01*
X192130952Y-101454819D02*
X192321428Y-101454819D01*
X192321428Y-101454819D02*
X192416666Y-101407200D01*
X192416666Y-101407200D02*
X192464285Y-101359580D01*
X192464285Y-101359580D02*
X192511904Y-101264342D01*
X192511904Y-101264342D02*
X192511904Y-101026247D01*
X192511904Y-101026247D02*
X192464285Y-100931009D01*
X192464285Y-100931009D02*
X192416666Y-100883390D01*
X192416666Y-100883390D02*
X192321428Y-100835771D01*
X192321428Y-100835771D02*
X192130952Y-100835771D01*
X192130952Y-100835771D02*
X192035714Y-100883390D01*
X192035714Y-100883390D02*
X191988095Y-100931009D01*
X191988095Y-100931009D02*
X191940476Y-101026247D01*
X117954819Y-100392857D02*
X117478628Y-100726190D01*
X117954819Y-100964285D02*
X116954819Y-100964285D01*
X116954819Y-100964285D02*
X116954819Y-100583333D01*
X116954819Y-100583333D02*
X117002438Y-100488095D01*
X117002438Y-100488095D02*
X117050057Y-100440476D01*
X117050057Y-100440476D02*
X117145295Y-100392857D01*
X117145295Y-100392857D02*
X117288152Y-100392857D01*
X117288152Y-100392857D02*
X117383390Y-100440476D01*
X117383390Y-100440476D02*
X117431009Y-100488095D01*
X117431009Y-100488095D02*
X117478628Y-100583333D01*
X117478628Y-100583333D02*
X117478628Y-100964285D01*
X117050057Y-100011904D02*
X117002438Y-99964285D01*
X117002438Y-99964285D02*
X116954819Y-99869047D01*
X116954819Y-99869047D02*
X116954819Y-99630952D01*
X116954819Y-99630952D02*
X117002438Y-99535714D01*
X117002438Y-99535714D02*
X117050057Y-99488095D01*
X117050057Y-99488095D02*
X117145295Y-99440476D01*
X117145295Y-99440476D02*
X117240533Y-99440476D01*
X117240533Y-99440476D02*
X117383390Y-99488095D01*
X117383390Y-99488095D02*
X117954819Y-100059523D01*
X117954819Y-100059523D02*
X117954819Y-99440476D01*
X116954819Y-98583333D02*
X116954819Y-98773809D01*
X116954819Y-98773809D02*
X117002438Y-98869047D01*
X117002438Y-98869047D02*
X117050057Y-98916666D01*
X117050057Y-98916666D02*
X117192914Y-99011904D01*
X117192914Y-99011904D02*
X117383390Y-99059523D01*
X117383390Y-99059523D02*
X117764342Y-99059523D01*
X117764342Y-99059523D02*
X117859580Y-99011904D01*
X117859580Y-99011904D02*
X117907200Y-98964285D01*
X117907200Y-98964285D02*
X117954819Y-98869047D01*
X117954819Y-98869047D02*
X117954819Y-98678571D01*
X117954819Y-98678571D02*
X117907200Y-98583333D01*
X117907200Y-98583333D02*
X117859580Y-98535714D01*
X117859580Y-98535714D02*
X117764342Y-98488095D01*
X117764342Y-98488095D02*
X117526247Y-98488095D01*
X117526247Y-98488095D02*
X117431009Y-98535714D01*
X117431009Y-98535714D02*
X117383390Y-98583333D01*
X117383390Y-98583333D02*
X117335771Y-98678571D01*
X117335771Y-98678571D02*
X117335771Y-98869047D01*
X117335771Y-98869047D02*
X117383390Y-98964285D01*
X117383390Y-98964285D02*
X117431009Y-99011904D01*
X117431009Y-99011904D02*
X117526247Y-99059523D01*
X182403333Y-103229580D02*
X182355714Y-103277200D01*
X182355714Y-103277200D02*
X182212857Y-103324819D01*
X182212857Y-103324819D02*
X182117619Y-103324819D01*
X182117619Y-103324819D02*
X181974762Y-103277200D01*
X181974762Y-103277200D02*
X181879524Y-103181961D01*
X181879524Y-103181961D02*
X181831905Y-103086723D01*
X181831905Y-103086723D02*
X181784286Y-102896247D01*
X181784286Y-102896247D02*
X181784286Y-102753390D01*
X181784286Y-102753390D02*
X181831905Y-102562914D01*
X181831905Y-102562914D02*
X181879524Y-102467676D01*
X181879524Y-102467676D02*
X181974762Y-102372438D01*
X181974762Y-102372438D02*
X182117619Y-102324819D01*
X182117619Y-102324819D02*
X182212857Y-102324819D01*
X182212857Y-102324819D02*
X182355714Y-102372438D01*
X182355714Y-102372438D02*
X182403333Y-102420057D01*
X183260476Y-102658152D02*
X183260476Y-103324819D01*
X183022381Y-102277200D02*
X182784286Y-102991485D01*
X182784286Y-102991485D02*
X183403333Y-102991485D01*
D10*
X105261905Y-117457419D02*
X105261905Y-116457419D01*
X105261905Y-116457419D02*
X105642857Y-116457419D01*
X105642857Y-116457419D02*
X105738095Y-116505038D01*
X105738095Y-116505038D02*
X105785714Y-116552657D01*
X105785714Y-116552657D02*
X105833333Y-116647895D01*
X105833333Y-116647895D02*
X105833333Y-116790752D01*
X105833333Y-116790752D02*
X105785714Y-116885990D01*
X105785714Y-116885990D02*
X105738095Y-116933609D01*
X105738095Y-116933609D02*
X105642857Y-116981228D01*
X105642857Y-116981228D02*
X105261905Y-116981228D01*
X106166667Y-116457419D02*
X106785714Y-116457419D01*
X106785714Y-116457419D02*
X106452381Y-116838371D01*
X106452381Y-116838371D02*
X106595238Y-116838371D01*
X106595238Y-116838371D02*
X106690476Y-116885990D01*
X106690476Y-116885990D02*
X106738095Y-116933609D01*
X106738095Y-116933609D02*
X106785714Y-117028847D01*
X106785714Y-117028847D02*
X106785714Y-117266942D01*
X106785714Y-117266942D02*
X106738095Y-117362180D01*
X106738095Y-117362180D02*
X106690476Y-117409800D01*
X106690476Y-117409800D02*
X106595238Y-117457419D01*
X106595238Y-117457419D02*
X106309524Y-117457419D01*
X106309524Y-117457419D02*
X106214286Y-117409800D01*
X106214286Y-117409800D02*
X106166667Y-117362180D01*
D11*
X116023571Y-93417365D02*
X115963095Y-93477842D01*
X115963095Y-93477842D02*
X115781666Y-93538318D01*
X115781666Y-93538318D02*
X115660714Y-93538318D01*
X115660714Y-93538318D02*
X115479285Y-93477842D01*
X115479285Y-93477842D02*
X115358333Y-93356889D01*
X115358333Y-93356889D02*
X115297856Y-93235937D01*
X115297856Y-93235937D02*
X115237380Y-92994032D01*
X115237380Y-92994032D02*
X115237380Y-92812603D01*
X115237380Y-92812603D02*
X115297856Y-92570699D01*
X115297856Y-92570699D02*
X115358333Y-92449746D01*
X115358333Y-92449746D02*
X115479285Y-92328794D01*
X115479285Y-92328794D02*
X115660714Y-92268318D01*
X115660714Y-92268318D02*
X115781666Y-92268318D01*
X115781666Y-92268318D02*
X115963095Y-92328794D01*
X115963095Y-92328794D02*
X116023571Y-92389270D01*
X116507380Y-92389270D02*
X116567856Y-92328794D01*
X116567856Y-92328794D02*
X116688809Y-92268318D01*
X116688809Y-92268318D02*
X116991190Y-92268318D01*
X116991190Y-92268318D02*
X117112142Y-92328794D01*
X117112142Y-92328794D02*
X117172618Y-92389270D01*
X117172618Y-92389270D02*
X117233095Y-92510222D01*
X117233095Y-92510222D02*
X117233095Y-92631175D01*
X117233095Y-92631175D02*
X117172618Y-92812603D01*
X117172618Y-92812603D02*
X116446904Y-93538318D01*
X116446904Y-93538318D02*
X117233095Y-93538318D01*
X118019285Y-92268318D02*
X118140238Y-92268318D01*
X118140238Y-92268318D02*
X118261190Y-92328794D01*
X118261190Y-92328794D02*
X118321666Y-92389270D01*
X118321666Y-92389270D02*
X118382142Y-92510222D01*
X118382142Y-92510222D02*
X118442619Y-92752127D01*
X118442619Y-92752127D02*
X118442619Y-93054508D01*
X118442619Y-93054508D02*
X118382142Y-93296413D01*
X118382142Y-93296413D02*
X118321666Y-93417365D01*
X118321666Y-93417365D02*
X118261190Y-93477842D01*
X118261190Y-93477842D02*
X118140238Y-93538318D01*
X118140238Y-93538318D02*
X118019285Y-93538318D01*
X118019285Y-93538318D02*
X117898333Y-93477842D01*
X117898333Y-93477842D02*
X117837857Y-93417365D01*
X117837857Y-93417365D02*
X117777380Y-93296413D01*
X117777380Y-93296413D02*
X117716904Y-93054508D01*
X117716904Y-93054508D02*
X117716904Y-92752127D01*
X117716904Y-92752127D02*
X117777380Y-92510222D01*
X117777380Y-92510222D02*
X117837857Y-92389270D01*
X117837857Y-92389270D02*
X117898333Y-92328794D01*
X117898333Y-92328794D02*
X118019285Y-92268318D01*
X178532380Y-109804318D02*
X178532380Y-110832413D01*
X178532380Y-110832413D02*
X178592857Y-110953365D01*
X178592857Y-110953365D02*
X178653333Y-111013842D01*
X178653333Y-111013842D02*
X178774285Y-111074318D01*
X178774285Y-111074318D02*
X179016190Y-111074318D01*
X179016190Y-111074318D02*
X179137142Y-111013842D01*
X179137142Y-111013842D02*
X179197619Y-110953365D01*
X179197619Y-110953365D02*
X179258095Y-110832413D01*
X179258095Y-110832413D02*
X179258095Y-109804318D01*
X180528095Y-111074318D02*
X179802380Y-111074318D01*
X180165237Y-111074318D02*
X180165237Y-109804318D01*
X180165237Y-109804318D02*
X180044285Y-109985746D01*
X180044285Y-109985746D02*
X179923333Y-110106699D01*
X179923333Y-110106699D02*
X179802380Y-110167175D01*
D12*
X126361142Y-126692819D02*
X126027809Y-126216628D01*
X125789714Y-126692819D02*
X125789714Y-125692819D01*
X125789714Y-125692819D02*
X126170666Y-125692819D01*
X126170666Y-125692819D02*
X126265904Y-125740438D01*
X126265904Y-125740438D02*
X126313523Y-125788057D01*
X126313523Y-125788057D02*
X126361142Y-125883295D01*
X126361142Y-125883295D02*
X126361142Y-126026152D01*
X126361142Y-126026152D02*
X126313523Y-126121390D01*
X126313523Y-126121390D02*
X126265904Y-126169009D01*
X126265904Y-126169009D02*
X126170666Y-126216628D01*
X126170666Y-126216628D02*
X125789714Y-126216628D01*
X127313523Y-126692819D02*
X126742095Y-126692819D01*
X127027809Y-126692819D02*
X127027809Y-125692819D01*
X127027809Y-125692819D02*
X126932571Y-125835676D01*
X126932571Y-125835676D02*
X126837333Y-125930914D01*
X126837333Y-125930914D02*
X126742095Y-125978533D01*
X127694476Y-125788057D02*
X127742095Y-125740438D01*
X127742095Y-125740438D02*
X127837333Y-125692819D01*
X127837333Y-125692819D02*
X128075428Y-125692819D01*
X128075428Y-125692819D02*
X128170666Y-125740438D01*
X128170666Y-125740438D02*
X128218285Y-125788057D01*
X128218285Y-125788057D02*
X128265904Y-125883295D01*
X128265904Y-125883295D02*
X128265904Y-125978533D01*
X128265904Y-125978533D02*
X128218285Y-126121390D01*
X128218285Y-126121390D02*
X127646857Y-126692819D01*
X127646857Y-126692819D02*
X128265904Y-126692819D01*
X137589142Y-126692819D02*
X137255809Y-126216628D01*
X137017714Y-126692819D02*
X137017714Y-125692819D01*
X137017714Y-125692819D02*
X137398666Y-125692819D01*
X137398666Y-125692819D02*
X137493904Y-125740438D01*
X137493904Y-125740438D02*
X137541523Y-125788057D01*
X137541523Y-125788057D02*
X137589142Y-125883295D01*
X137589142Y-125883295D02*
X137589142Y-126026152D01*
X137589142Y-126026152D02*
X137541523Y-126121390D01*
X137541523Y-126121390D02*
X137493904Y-126169009D01*
X137493904Y-126169009D02*
X137398666Y-126216628D01*
X137398666Y-126216628D02*
X137017714Y-126216628D01*
X138541523Y-126692819D02*
X137970095Y-126692819D01*
X138255809Y-126692819D02*
X138255809Y-125692819D01*
X138255809Y-125692819D02*
X138160571Y-125835676D01*
X138160571Y-125835676D02*
X138065333Y-125930914D01*
X138065333Y-125930914D02*
X137970095Y-125978533D01*
X139398666Y-126026152D02*
X139398666Y-126692819D01*
X139160571Y-125645200D02*
X138922476Y-126359485D01*
X138922476Y-126359485D02*
X139541523Y-126359485D01*
X156614952Y-131772819D02*
X156138762Y-131772819D01*
X156138762Y-131772819D02*
X156138762Y-130772819D01*
X156948286Y-131249009D02*
X157281619Y-131249009D01*
X157424476Y-131772819D02*
X156948286Y-131772819D01*
X156948286Y-131772819D02*
X156948286Y-130772819D01*
X156948286Y-130772819D02*
X157424476Y-130772819D01*
X157853048Y-131772819D02*
X157853048Y-130772819D01*
X157853048Y-130772819D02*
X158091143Y-130772819D01*
X158091143Y-130772819D02*
X158234000Y-130820438D01*
X158234000Y-130820438D02*
X158329238Y-130915676D01*
X158329238Y-130915676D02*
X158376857Y-131010914D01*
X158376857Y-131010914D02*
X158424476Y-131201390D01*
X158424476Y-131201390D02*
X158424476Y-131344247D01*
X158424476Y-131344247D02*
X158376857Y-131534723D01*
X158376857Y-131534723D02*
X158329238Y-131629961D01*
X158329238Y-131629961D02*
X158234000Y-131725200D01*
X158234000Y-131725200D02*
X158091143Y-131772819D01*
X158091143Y-131772819D02*
X157853048Y-131772819D01*
X159281619Y-131106152D02*
X159281619Y-131772819D01*
X159043524Y-130725200D02*
X158805429Y-131439485D01*
X158805429Y-131439485D02*
X159424476Y-131439485D01*
D11*
X127078619Y-65187080D02*
X126655285Y-65187080D01*
X126655285Y-65852318D02*
X126655285Y-64582318D01*
X126655285Y-64582318D02*
X127260047Y-64582318D01*
X128348618Y-65852318D02*
X127743856Y-65852318D01*
X127743856Y-65852318D02*
X127743856Y-64582318D01*
X129437190Y-65852318D02*
X128711475Y-65852318D01*
X129074332Y-65852318D02*
X129074332Y-64582318D01*
X129074332Y-64582318D02*
X128953380Y-64763746D01*
X128953380Y-64763746D02*
X128832428Y-64884699D01*
X128832428Y-64884699D02*
X128711475Y-64945175D01*
X124647270Y-125596952D02*
X124586794Y-125717904D01*
X124586794Y-125717904D02*
X124465842Y-125838857D01*
X124465842Y-125838857D02*
X124284413Y-126020285D01*
X124284413Y-126020285D02*
X124223937Y-126141238D01*
X124223937Y-126141238D02*
X124223937Y-126262190D01*
X124526318Y-126201714D02*
X124465842Y-126322666D01*
X124465842Y-126322666D02*
X124344889Y-126443619D01*
X124344889Y-126443619D02*
X124102984Y-126504095D01*
X124102984Y-126504095D02*
X123679651Y-126504095D01*
X123679651Y-126504095D02*
X123437746Y-126443619D01*
X123437746Y-126443619D02*
X123316794Y-126322666D01*
X123316794Y-126322666D02*
X123256318Y-126201714D01*
X123256318Y-126201714D02*
X123256318Y-125959809D01*
X123256318Y-125959809D02*
X123316794Y-125838857D01*
X123316794Y-125838857D02*
X123437746Y-125717904D01*
X123437746Y-125717904D02*
X123679651Y-125657428D01*
X123679651Y-125657428D02*
X124102984Y-125657428D01*
X124102984Y-125657428D02*
X124344889Y-125717904D01*
X124344889Y-125717904D02*
X124465842Y-125838857D01*
X124465842Y-125838857D02*
X124526318Y-125959809D01*
X124526318Y-125959809D02*
X124526318Y-126201714D01*
X123256318Y-124508381D02*
X123256318Y-125113143D01*
X123256318Y-125113143D02*
X123861080Y-125173619D01*
X123861080Y-125173619D02*
X123800603Y-125113143D01*
X123800603Y-125113143D02*
X123740127Y-124992190D01*
X123740127Y-124992190D02*
X123740127Y-124689809D01*
X123740127Y-124689809D02*
X123800603Y-124568857D01*
X123800603Y-124568857D02*
X123861080Y-124508381D01*
X123861080Y-124508381D02*
X123982032Y-124447904D01*
X123982032Y-124447904D02*
X124284413Y-124447904D01*
X124284413Y-124447904D02*
X124405365Y-124508381D01*
X124405365Y-124508381D02*
X124465842Y-124568857D01*
X124465842Y-124568857D02*
X124526318Y-124689809D01*
X124526318Y-124689809D02*
X124526318Y-124992190D01*
X124526318Y-124992190D02*
X124465842Y-125113143D01*
X124465842Y-125113143D02*
X124405365Y-125173619D01*
X113568237Y-109032318D02*
X113568237Y-107762318D01*
X114898714Y-108911365D02*
X114838238Y-108971842D01*
X114838238Y-108971842D02*
X114656809Y-109032318D01*
X114656809Y-109032318D02*
X114535857Y-109032318D01*
X114535857Y-109032318D02*
X114354428Y-108971842D01*
X114354428Y-108971842D02*
X114233476Y-108850889D01*
X114233476Y-108850889D02*
X114172999Y-108729937D01*
X114172999Y-108729937D02*
X114112523Y-108488032D01*
X114112523Y-108488032D02*
X114112523Y-108306603D01*
X114112523Y-108306603D02*
X114172999Y-108064699D01*
X114172999Y-108064699D02*
X114233476Y-107943746D01*
X114233476Y-107943746D02*
X114354428Y-107822794D01*
X114354428Y-107822794D02*
X114535857Y-107762318D01*
X114535857Y-107762318D02*
X114656809Y-107762318D01*
X114656809Y-107762318D02*
X114838238Y-107822794D01*
X114838238Y-107822794D02*
X114898714Y-107883270D01*
X115987285Y-108185651D02*
X115987285Y-109032318D01*
X115684904Y-107701842D02*
X115382523Y-108608984D01*
X115382523Y-108608984D02*
X116168714Y-108608984D01*
D13*
%TO.C,IC1*%
X156460000Y-110672000D02*
X162960000Y-110672000D01*
X156460000Y-114372000D02*
X156460000Y-110672000D01*
X162960000Y-110672000D02*
X162960000Y-114372000D01*
X162960000Y-114372000D02*
X156460000Y-114372000D01*
X163210000Y-108847000D02*
X163210000Y-110322000D01*
D14*
%TO.C,C3*%
X187214000Y-111427000D02*
X187214000Y-114627000D01*
X189214000Y-114627000D02*
X189214000Y-111427000D01*
X187214000Y-111427000D02*
G75*
G02*
X189214000Y-111427000I1000000J-1122254D01*
G01*
X189214000Y-114627000D02*
G75*
G02*
X187214000Y-114627000I-1000000J1122254D01*
G01*
%TO.C,C12*%
X143716000Y-120176000D02*
X143716000Y-121576000D01*
X144716000Y-121576000D02*
X144716000Y-120176000D01*
X143716000Y-120176000D02*
G75*
G02*
X144716000Y-120176000I500000J-269451D01*
G01*
X144716000Y-121576000D02*
G75*
G02*
X143716000Y-121576000I-500000J269450D01*
G01*
%TO.C,R23*%
X142962000Y-104862000D02*
X142962000Y-105862000D01*
X142962000Y-105862000D02*
X144862000Y-105862000D01*
X144862000Y-104862000D02*
X142962000Y-104862000D01*
X144862000Y-105862000D02*
X144862000Y-104862000D01*
%TO.C,C9*%
X134064000Y-107758000D02*
X134064000Y-109158000D01*
X135064000Y-109158000D02*
X135064000Y-107758000D01*
X134064000Y-107758000D02*
G75*
G02*
X135064000Y-107758000I500000J-269451D01*
G01*
X135064000Y-109158000D02*
G75*
G02*
X134064000Y-109158000I-500000J269450D01*
G01*
%TO.C,C24*%
X169379998Y-123681000D02*
X169380000Y-126281000D01*
X170980002Y-126281000D02*
X170980000Y-123681000D01*
X169379998Y-123681000D02*
G75*
G02*
X170980000Y-123681000I800001J-840224D01*
G01*
X170980002Y-126281000D02*
G75*
G02*
X169380000Y-126281000I-800001J840224D01*
G01*
%TO.C,C16*%
X148495998Y-100287000D02*
X148496000Y-102887000D01*
X150096002Y-102887000D02*
X150096000Y-100287000D01*
X148495998Y-100287000D02*
G75*
G02*
X150096000Y-100287000I800001J-840224D01*
G01*
X150096002Y-102887000D02*
G75*
G02*
X148496000Y-102887000I-800001J840224D01*
G01*
%TO.C,R20*%
X134326000Y-103084000D02*
X134326000Y-104084000D01*
X134326000Y-104084000D02*
X136226000Y-104084000D01*
X136226000Y-103084000D02*
X134326000Y-103084000D01*
X136226000Y-104084000D02*
X136226000Y-103084000D01*
D15*
%TO.C,L1*%
X104300000Y-136250000D02*
X116300000Y-136250000D01*
X116300000Y-124250000D02*
X104300000Y-124250000D01*
D14*
%TO.C,C5*%
X183856000Y-102803000D02*
X183856000Y-106003000D01*
X185856000Y-106003000D02*
X185856000Y-102803000D01*
X183856000Y-102803000D02*
G75*
G02*
X185856000Y-102803000I1000000J-1122254D01*
G01*
X185856000Y-106003000D02*
G75*
G02*
X183856000Y-106003000I-1000000J1122254D01*
G01*
%TO.C,R13*%
X127574000Y-129802000D02*
X127574000Y-130802000D01*
X127574000Y-130802000D02*
X129474000Y-130802000D01*
X129474000Y-129802000D02*
X127574000Y-129802000D01*
X129474000Y-130802000D02*
X129474000Y-129802000D01*
%TO.C,R18*%
X134326000Y-105116000D02*
X134326000Y-106116000D01*
X134326000Y-106116000D02*
X136226000Y-106116000D01*
X136226000Y-105116000D02*
X134326000Y-105116000D01*
X136226000Y-106116000D02*
X136226000Y-105116000D01*
%TO.C,J7*%
X159904000Y-118304000D02*
X161234000Y-118304000D01*
X159904000Y-119634000D02*
X159904000Y-118304000D01*
X162504000Y-118304000D02*
X172724000Y-118304000D01*
X162504000Y-120964000D02*
X162504000Y-118304000D01*
X162504000Y-120964000D02*
X172724000Y-120964000D01*
X172724000Y-120964000D02*
X172724000Y-118304000D01*
%TO.C,J5*%
X183836000Y-98492000D02*
X185166000Y-98492000D01*
X183836000Y-99822000D02*
X183836000Y-98492000D01*
X186436000Y-98492000D02*
X189036000Y-98492000D01*
X186436000Y-101152000D02*
X186436000Y-98492000D01*
X186436000Y-101152000D02*
X189036000Y-101152000D01*
X189036000Y-101152000D02*
X189036000Y-98492000D01*
D10*
%TO.C,RT1*%
X108822000Y-67274000D02*
X108822000Y-67274000D01*
X108922000Y-67274000D02*
X108922000Y-67274000D01*
D13*
X109422000Y-64274000D02*
X123922000Y-64274000D01*
X109422000Y-70274000D02*
X109422000Y-64274000D01*
X123922000Y-64274000D02*
X123922000Y-70274000D01*
X123922000Y-70274000D02*
X109422000Y-70274000D01*
D10*
X108822000Y-67274000D02*
G75*
G02*
X108922000Y-67274000I50000J0D01*
G01*
X108922000Y-67274000D02*
G75*
G02*
X108822000Y-67274000I-50000J0D01*
G01*
D14*
%TO.C,J6*%
X162444000Y-98492000D02*
X162444000Y-101152000D01*
X172664000Y-98492000D02*
X162444000Y-98492000D01*
X172664000Y-98492000D02*
X172664000Y-101152000D01*
X172664000Y-101152000D02*
X162444000Y-101152000D01*
X175264000Y-99822000D02*
X175264000Y-101152000D01*
X175264000Y-101152000D02*
X173934000Y-101152000D01*
D13*
%TO.C,Q4*%
X148842000Y-131989000D02*
X151762000Y-131989000D01*
X148842000Y-132339000D02*
X148842000Y-131989000D01*
X151762000Y-131989000D02*
X151762000Y-132339000D01*
X151762000Y-132339000D02*
X148842000Y-132339000D01*
X151802000Y-130489000D02*
X151802000Y-131639000D01*
D14*
%TO.C,C10*%
X140804000Y-117050000D02*
X142204000Y-117050000D01*
X142204000Y-116050000D02*
X140804000Y-116050000D01*
X140804000Y-117050000D02*
G75*
G02*
X140804000Y-116050000I269450J500000D01*
G01*
X142204000Y-116050000D02*
G75*
G02*
X142204000Y-117050000I-269451J-500000D01*
G01*
%TO.C,LED7*%
X118344000Y-133329000D02*
X118344000Y-136419000D01*
X120015000Y-133667500D02*
X120840500Y-132842000D01*
X120586500Y-134302500D02*
X120586500Y-135445500D01*
X120967500Y-133667500D02*
X121793000Y-132842000D01*
X118344000Y-133329170D02*
G75*
G02*
X123894000Y-134874462I2560000J-1544830D01*
G01*
X123894000Y-134873538D02*
G75*
G02*
X118344000Y-136418830I-2990000J-462D01*
G01*
X123404000Y-134874000D02*
G75*
G02*
X118404000Y-134874000I-2500000J0D01*
G01*
X118404000Y-134874000D02*
G75*
G02*
X123404000Y-134874000I2500000J0D01*
G01*
X120840500Y-133223000D02*
X120459500Y-132842000D01*
X120840500Y-132842000D01*
X120840500Y-133223000D01*
G36*
X120840500Y-133223000D02*
G01*
X120459500Y-132842000D01*
X120840500Y-132842000D01*
X120840500Y-133223000D01*
G37*
X121221500Y-135445500D02*
X120586500Y-134874000D01*
X121221500Y-134302500D01*
X121221500Y-135445500D01*
G36*
X121221500Y-135445500D02*
G01*
X120586500Y-134874000D01*
X121221500Y-134302500D01*
X121221500Y-135445500D01*
G37*
X121793000Y-133223000D02*
X121412000Y-132842000D01*
X121793000Y-132842000D01*
X121793000Y-133223000D01*
G36*
X121793000Y-133223000D02*
G01*
X121412000Y-132842000D01*
X121793000Y-132842000D01*
X121793000Y-133223000D01*
G37*
D13*
%TO.C,PS1*%
X149750000Y-70750000D02*
X149750000Y-70750000D01*
X149750000Y-70750000D02*
X149750000Y-70750000D01*
X149850000Y-70750000D02*
X149850000Y-70750000D01*
X150450000Y-64350000D02*
X150450000Y-92850000D01*
X150450000Y-92850000D02*
X197950000Y-92850000D01*
X197950000Y-64350000D02*
X150450000Y-64350000D01*
X197950000Y-92850000D02*
X197950000Y-64350000D01*
X149750000Y-70750000D02*
G75*
G02*
X149850000Y-70750000I50000J0D01*
G01*
X149850000Y-70750000D02*
G75*
G02*
X149750000Y-70750000I-50000J0D01*
G01*
X149850000Y-70750000D02*
G75*
G02*
X149750000Y-70750000I-50000J0D01*
G01*
D14*
%TO.C,LED2*%
X175578666Y-133329000D02*
X175578666Y-136419000D01*
X177249666Y-133667500D02*
X178075166Y-132842000D01*
X177821166Y-134302500D02*
X177821166Y-135445500D01*
X178202166Y-133667500D02*
X179027666Y-132842000D01*
X175578666Y-133329170D02*
G75*
G02*
X181128666Y-134874462I2560000J-1544830D01*
G01*
X181128666Y-134873538D02*
G75*
G02*
X175578666Y-136418830I-2990000J-462D01*
G01*
X180638666Y-134874000D02*
G75*
G02*
X175638666Y-134874000I-2500000J0D01*
G01*
X175638666Y-134874000D02*
G75*
G02*
X180638666Y-134874000I2500000J0D01*
G01*
X178075166Y-133223000D02*
X177694166Y-132842000D01*
X178075166Y-132842000D01*
X178075166Y-133223000D01*
G36*
X178075166Y-133223000D02*
G01*
X177694166Y-132842000D01*
X178075166Y-132842000D01*
X178075166Y-133223000D01*
G37*
X178456166Y-135445500D02*
X177821166Y-134874000D01*
X178456166Y-134302500D01*
X178456166Y-135445500D01*
G36*
X178456166Y-135445500D02*
G01*
X177821166Y-134874000D01*
X178456166Y-134302500D01*
X178456166Y-135445500D01*
G37*
X179027666Y-133223000D02*
X178646666Y-132842000D01*
X179027666Y-132842000D01*
X179027666Y-133223000D01*
G36*
X179027666Y-133223000D02*
G01*
X178646666Y-132842000D01*
X179027666Y-132842000D01*
X179027666Y-133223000D01*
G37*
%TO.C,U2*%
X138134000Y-105750000D02*
X138134000Y-102450000D01*
X138634000Y-101950000D02*
X142334000Y-101950000D01*
X142334000Y-101950000D02*
X142334000Y-105750000D01*
X142334000Y-105750000D02*
X138134000Y-105750000D01*
D13*
X138397500Y-102150000D02*
G75*
G02*
X138270500Y-102150000I-63500J0D01*
G01*
X138270500Y-102150000D02*
G75*
G02*
X138397500Y-102150000I63500J0D01*
G01*
D14*
%TO.C,C23*%
X109379998Y-104872000D02*
X109380000Y-107472000D01*
X110980002Y-107472000D02*
X110980000Y-104872000D01*
X109379998Y-104872000D02*
G75*
G02*
X110980000Y-104872000I800001J-840224D01*
G01*
X110980002Y-107472000D02*
G75*
G02*
X109380000Y-107472000I-800001J840224D01*
G01*
%TO.C,R5*%
X155400000Y-122242000D02*
X155400000Y-124142000D01*
X155400000Y-124142000D02*
X156400000Y-124142000D01*
X156400000Y-122242000D02*
X155400000Y-122242000D01*
X156400000Y-124142000D02*
X156400000Y-122242000D01*
D16*
%TO.C,Symbol1*%
G36*
X169716580Y-107517854D02*
G01*
X169754736Y-107518155D01*
X169787856Y-107518763D01*
X169817328Y-107519765D01*
X169844540Y-107521249D01*
X169870879Y-107523301D01*
X169897734Y-107526008D01*
X169926492Y-107529459D01*
X169958542Y-107533739D01*
X169984520Y-107537396D01*
X170111338Y-107559422D01*
X170236327Y-107588984D01*
X170359219Y-107625961D01*
X170479746Y-107670234D01*
X170597639Y-107721682D01*
X170712632Y-107780185D01*
X170824456Y-107845624D01*
X170932842Y-107917877D01*
X171037524Y-107996826D01*
X171070524Y-108023757D01*
X171091288Y-108041724D01*
X171116132Y-108064355D01*
X171143977Y-108090575D01*
X171173743Y-108119307D01*
X171204349Y-108149475D01*
X171234717Y-108180002D01*
X171263767Y-108209812D01*
X171290419Y-108237827D01*
X171313594Y-108262973D01*
X171332212Y-108284171D01*
X171334886Y-108287352D01*
X171417452Y-108392242D01*
X171492974Y-108500323D01*
X171561396Y-108611472D01*
X171622662Y-108725564D01*
X171676716Y-108842476D01*
X171723503Y-108962086D01*
X171762967Y-109084269D01*
X171795054Y-109208902D01*
X171819707Y-109335861D01*
X171826340Y-109379216D01*
X171831274Y-109414506D01*
X171835315Y-109445502D01*
X171838550Y-109473593D01*
X171841067Y-109500165D01*
X171842952Y-109526607D01*
X171844293Y-109554308D01*
X171845177Y-109584654D01*
X171845691Y-109619033D01*
X171845922Y-109658834D01*
X171845962Y-109691735D01*
X171845881Y-109736315D01*
X171845580Y-109774471D01*
X171844972Y-109807591D01*
X171843970Y-109837063D01*
X171842487Y-109864275D01*
X171840435Y-109890614D01*
X171837727Y-109917469D01*
X171834277Y-109946227D01*
X171829996Y-109978277D01*
X171826340Y-110004255D01*
X171804223Y-110131843D01*
X171774642Y-110257198D01*
X171737659Y-110380179D01*
X171693338Y-110500646D01*
X171641739Y-110618461D01*
X171582927Y-110733483D01*
X171516964Y-110845575D01*
X171443911Y-110954595D01*
X171363833Y-111060405D01*
X171337859Y-111092212D01*
X171318255Y-111114890D01*
X171293946Y-111141562D01*
X171266068Y-111171092D01*
X171235756Y-111202346D01*
X171204147Y-111234188D01*
X171172376Y-111265483D01*
X171141579Y-111295095D01*
X171112891Y-111321888D01*
X171087449Y-111344728D01*
X171072477Y-111357508D01*
X170967140Y-111439998D01*
X170858630Y-111515399D01*
X170747060Y-111583664D01*
X170632545Y-111644747D01*
X170515198Y-111698603D01*
X170395134Y-111745184D01*
X170272466Y-111784445D01*
X170147308Y-111816340D01*
X170019774Y-111840822D01*
X169889978Y-111857846D01*
X169822400Y-111863680D01*
X169799063Y-111864934D01*
X169769543Y-111865886D01*
X169735468Y-111866537D01*
X169698461Y-111866888D01*
X169660148Y-111866940D01*
X169622155Y-111866697D01*
X169586107Y-111866157D01*
X169553629Y-111865324D01*
X169526346Y-111864198D01*
X169513571Y-111863414D01*
X169384733Y-111850222D01*
X169257533Y-111829436D01*
X169132183Y-111801141D01*
X169008897Y-111765423D01*
X168887887Y-111722371D01*
X168769366Y-111672069D01*
X168653545Y-111614605D01*
X168540638Y-111550066D01*
X168430858Y-111478537D01*
X168324416Y-111400106D01*
X168271524Y-111357508D01*
X168248961Y-111338033D01*
X168222375Y-111313826D01*
X168192900Y-111286023D01*
X168161674Y-111255759D01*
X168129832Y-111224170D01*
X168098508Y-111192390D01*
X168068840Y-111161556D01*
X168041963Y-111132803D01*
X168019013Y-111107266D01*
X168006142Y-111092212D01*
X167923920Y-110987415D01*
X167848705Y-110879365D01*
X167780559Y-110768201D01*
X167719546Y-110654063D01*
X167665727Y-110537090D01*
X167619165Y-110417422D01*
X167594526Y-110340679D01*
X168379956Y-110340679D01*
X168380133Y-110358858D01*
X168383083Y-110377164D01*
X168389182Y-110396619D01*
X168398809Y-110418246D01*
X168412339Y-110443070D01*
X168430151Y-110472114D01*
X168447304Y-110498426D01*
X168507982Y-110582818D01*
X168574843Y-110662671D01*
X168647484Y-110737641D01*
X168725496Y-110807383D01*
X168808475Y-110871554D01*
X168896013Y-110929809D01*
X168987706Y-110981806D01*
X169059480Y-111016726D01*
X169144780Y-111052525D01*
X169230129Y-111082448D01*
X169316802Y-111106808D01*
X169406076Y-111125916D01*
X169499226Y-111140084D01*
X169597527Y-111149623D01*
X169605590Y-111150191D01*
X169633866Y-111151483D01*
X169667343Y-111151966D01*
X169703451Y-111151662D01*
X169739622Y-111150593D01*
X169773287Y-111148781D01*
X169773569Y-111148762D01*
X169883614Y-111137342D01*
X169991205Y-111118528D01*
X170096204Y-111092374D01*
X170198471Y-111058935D01*
X170297867Y-111018266D01*
X170394252Y-110970422D01*
X170487486Y-110915456D01*
X170577430Y-110853425D01*
X170628955Y-110813488D01*
X170677009Y-110772227D01*
X170725783Y-110725823D01*
X170773967Y-110675749D01*
X170820250Y-110623475D01*
X170863322Y-110570475D01*
X170901874Y-110518221D01*
X170930941Y-110474151D01*
X170945268Y-110449757D01*
X170955249Y-110429298D01*
X170961566Y-110410732D01*
X170964904Y-110392016D01*
X170965945Y-110371107D01*
X170965950Y-110369511D01*
X170962271Y-110334432D01*
X170951532Y-110302046D01*
X170934226Y-110273048D01*
X170910846Y-110248135D01*
X170881885Y-110228000D01*
X170857620Y-110216764D01*
X170841232Y-110212171D01*
X170821192Y-110209829D01*
X170802929Y-110209362D01*
X170785091Y-110209644D01*
X170771981Y-110210920D01*
X170760523Y-110213863D01*
X170747640Y-110219146D01*
X170738472Y-110223467D01*
X170721905Y-110232129D01*
X170707756Y-110241436D01*
X170694811Y-110252594D01*
X170681855Y-110266812D01*
X170667673Y-110285295D01*
X170651050Y-110309253D01*
X170648844Y-110312538D01*
X170592274Y-110390259D01*
X170530769Y-110461925D01*
X170464353Y-110527519D01*
X170393052Y-110587021D01*
X170316891Y-110640415D01*
X170235894Y-110687681D01*
X170150086Y-110728801D01*
X170059492Y-110763758D01*
X170007958Y-110780254D01*
X169922596Y-110801802D01*
X169834211Y-110816645D01*
X169743861Y-110824738D01*
X169652601Y-110826040D01*
X169561490Y-110820508D01*
X169471585Y-110808099D01*
X169445091Y-110803046D01*
X169353104Y-110780383D01*
X169263218Y-110750305D01*
X169175936Y-110713043D01*
X169091762Y-110668829D01*
X169011202Y-110617895D01*
X168957113Y-110578278D01*
X168935529Y-110560559D01*
X168910484Y-110538449D01*
X168883590Y-110513498D01*
X168856456Y-110487257D01*
X168830695Y-110461279D01*
X168807917Y-110437114D01*
X168793142Y-110420387D01*
X168774274Y-110397067D01*
X168752927Y-110368874D01*
X168730482Y-110337732D01*
X168708316Y-110305563D01*
X168687809Y-110274290D01*
X168683658Y-110267723D01*
X168662863Y-110239075D01*
X168640290Y-110217234D01*
X168614722Y-110201217D01*
X168589095Y-110191253D01*
X168555131Y-110184742D01*
X168521799Y-110185488D01*
X168489975Y-110192938D01*
X168460537Y-110206539D01*
X168434361Y-110225738D01*
X168412326Y-110249984D01*
X168395308Y-110278724D01*
X168384184Y-110311405D01*
X168382175Y-110321602D01*
X168379956Y-110340679D01*
X167594526Y-110340679D01*
X167579924Y-110295198D01*
X167548065Y-110170557D01*
X167523651Y-110043639D01*
X167517661Y-110004255D01*
X167512727Y-109968965D01*
X167508686Y-109937968D01*
X167505450Y-109909878D01*
X167502934Y-109883306D01*
X167501048Y-109856863D01*
X167499707Y-109829163D01*
X167498823Y-109798817D01*
X167498310Y-109764437D01*
X167498079Y-109724636D01*
X167498038Y-109691735D01*
X167498119Y-109647155D01*
X167498420Y-109608999D01*
X167499028Y-109575879D01*
X167500030Y-109546407D01*
X167501514Y-109519196D01*
X167503566Y-109492857D01*
X167506273Y-109466002D01*
X167509724Y-109437243D01*
X167514004Y-109405194D01*
X167517661Y-109379216D01*
X167539792Y-109251499D01*
X167569376Y-109126067D01*
X167606356Y-109003043D01*
X167634018Y-108927842D01*
X168537294Y-108927842D01*
X168537298Y-108931923D01*
X168537634Y-108974224D01*
X168538652Y-109010410D01*
X168540541Y-109042162D01*
X168543492Y-109071163D01*
X168547691Y-109099095D01*
X168553329Y-109127640D01*
X168560594Y-109158479D01*
X168564456Y-109173595D01*
X168582913Y-109233935D01*
X168606180Y-109292430D01*
X168633577Y-109347758D01*
X168664425Y-109398594D01*
X168698046Y-109443614D01*
X168709908Y-109457272D01*
X168742047Y-109488824D01*
X168777697Y-109516802D01*
X168815254Y-109540175D01*
X168853117Y-109557912D01*
X168879879Y-109566669D01*
X168910826Y-109572265D01*
X168945417Y-109574370D01*
X168980304Y-109572977D01*
X169012139Y-109568077D01*
X169016592Y-109567002D01*
X169061497Y-109551542D01*
X169104391Y-109528872D01*
X169145007Y-109499396D01*
X169183073Y-109463522D01*
X169218323Y-109421653D01*
X169250485Y-109374197D01*
X169279291Y-109321559D01*
X169304472Y-109264144D01*
X169325759Y-109202358D01*
X169342883Y-109136608D01*
X169355573Y-109067298D01*
X169357559Y-109053024D01*
X169360409Y-109024702D01*
X169362401Y-108990864D01*
X169363224Y-108963518D01*
X169982797Y-108963518D01*
X169984585Y-109008681D01*
X169987867Y-109043258D01*
X169999591Y-109114785D01*
X170015791Y-109182638D01*
X170036218Y-109246433D01*
X170060622Y-109305789D01*
X170088752Y-109360321D01*
X170120358Y-109409647D01*
X170155191Y-109453383D01*
X170193001Y-109491147D01*
X170233537Y-109522554D01*
X170276550Y-109547223D01*
X170321789Y-109564771D01*
X170329627Y-109567003D01*
X170354067Y-109571566D01*
X170382771Y-109573720D01*
X170413153Y-109573535D01*
X170442625Y-109571080D01*
X170468603Y-109566427D01*
X170480644Y-109562892D01*
X170519503Y-109547002D01*
X170554405Y-109527782D01*
X170587363Y-109503926D01*
X170620391Y-109474130D01*
X170625459Y-109469085D01*
X170664189Y-109424845D01*
X170699066Y-109374151D01*
X170729886Y-109317455D01*
X170756445Y-109255212D01*
X170778539Y-109187876D01*
X170795962Y-109115900D01*
X170803660Y-109073380D01*
X170806658Y-109048707D01*
X170808890Y-109018101D01*
X170810355Y-108983309D01*
X170811054Y-108946077D01*
X170810987Y-108908150D01*
X170810156Y-108871274D01*
X170808560Y-108837195D01*
X170806200Y-108807658D01*
X170803586Y-108787383D01*
X170788949Y-108714239D01*
X170769837Y-108645458D01*
X170746465Y-108581437D01*
X170719046Y-108522574D01*
X170687794Y-108469267D01*
X170652924Y-108421913D01*
X170614650Y-108380911D01*
X170573185Y-108346658D01*
X170562454Y-108339268D01*
X170518734Y-108314202D01*
X170474934Y-108296933D01*
X170430924Y-108287442D01*
X170386570Y-108285714D01*
X170341740Y-108291732D01*
X170296300Y-108305478D01*
X170296224Y-108305507D01*
X170252873Y-108326279D01*
X170211590Y-108354222D01*
X170172682Y-108388898D01*
X170136452Y-108429869D01*
X170103205Y-108476695D01*
X170073244Y-108528937D01*
X170046875Y-108586156D01*
X170024402Y-108647914D01*
X170006129Y-108713771D01*
X170002698Y-108728785D01*
X169995210Y-108769741D01*
X169989375Y-108815846D01*
X169985293Y-108864947D01*
X169983066Y-108914889D01*
X169982797Y-108963518D01*
X169363224Y-108963518D01*
X169363517Y-108953761D01*
X169363735Y-108915646D01*
X169363036Y-108878771D01*
X169361399Y-108845387D01*
X169359598Y-108824494D01*
X169349779Y-108756629D01*
X169335469Y-108691750D01*
X169316963Y-108630244D01*
X169294555Y-108572500D01*
X169268537Y-108518903D01*
X169239205Y-108469842D01*
X169206852Y-108425705D01*
X169171773Y-108386877D01*
X169134260Y-108353746D01*
X169094609Y-108326701D01*
X169053112Y-108306127D01*
X169010064Y-108292413D01*
X168965759Y-108285946D01*
X168950532Y-108285467D01*
X168905621Y-108289190D01*
X168861720Y-108300343D01*
X168819169Y-108318572D01*
X168778305Y-108343522D01*
X168739468Y-108374840D01*
X168702995Y-108412170D01*
X168669224Y-108455159D01*
X168638496Y-108503452D01*
X168611147Y-108556695D01*
X168587517Y-108614534D01*
X168567944Y-108676616D01*
X168564578Y-108689383D01*
X168556641Y-108721446D01*
X168550371Y-108749548D01*
X168545580Y-108775346D01*
X168542082Y-108800500D01*
X168539692Y-108826668D01*
X168538221Y-108855509D01*
X168537484Y-108888681D01*
X168537294Y-108927842D01*
X167634018Y-108927842D01*
X167650678Y-108882551D01*
X167702286Y-108764715D01*
X167761124Y-108649657D01*
X167827136Y-108537501D01*
X167900268Y-108428371D01*
X167980463Y-108322390D01*
X168009115Y-108287352D01*
X168026837Y-108266944D01*
X168049302Y-108242403D01*
X168075431Y-108214806D01*
X168104145Y-108185229D01*
X168134362Y-108154749D01*
X168165005Y-108124442D01*
X168194993Y-108095385D01*
X168223246Y-108068655D01*
X168248685Y-108045327D01*
X168270231Y-108026479D01*
X168273477Y-108023757D01*
X168376903Y-107942670D01*
X168484122Y-107868239D01*
X168594864Y-107800584D01*
X168708861Y-107739826D01*
X168825847Y-107686085D01*
X168945552Y-107639480D01*
X169067709Y-107600131D01*
X169192049Y-107568159D01*
X169318305Y-107543684D01*
X169359481Y-107537396D01*
X169394771Y-107532462D01*
X169425767Y-107528421D01*
X169453858Y-107525185D01*
X169480430Y-107522669D01*
X169506872Y-107520783D01*
X169534573Y-107519442D01*
X169564919Y-107518558D01*
X169599298Y-107518045D01*
X169639099Y-107517814D01*
X169672000Y-107517773D01*
X169716580Y-107517854D01*
G37*
D14*
%TO.C,J4*%
X150562000Y-98492000D02*
X151892000Y-98492000D01*
X150562000Y-99822000D02*
X150562000Y-98492000D01*
X153162000Y-98492000D02*
X155762000Y-98492000D01*
X153162000Y-101152000D02*
X153162000Y-98492000D01*
X153162000Y-101152000D02*
X155762000Y-101152000D01*
X155762000Y-101152000D02*
X155762000Y-98492000D01*
%TO.C,LED1*%
X185146000Y-133329000D02*
X185146000Y-136419000D01*
X186817000Y-133667500D02*
X187642500Y-132842000D01*
X187388500Y-134302500D02*
X187388500Y-135445500D01*
X187769500Y-133667500D02*
X188595000Y-132842000D01*
X185146000Y-133329170D02*
G75*
G02*
X190696000Y-134874462I2560000J-1544830D01*
G01*
X190696000Y-134873538D02*
G75*
G02*
X185146000Y-136418830I-2990000J-462D01*
G01*
X190206000Y-134874000D02*
G75*
G02*
X185206000Y-134874000I-2500000J0D01*
G01*
X185206000Y-134874000D02*
G75*
G02*
X190206000Y-134874000I2500000J0D01*
G01*
X187642500Y-133223000D02*
X187261500Y-132842000D01*
X187642500Y-132842000D01*
X187642500Y-133223000D01*
G36*
X187642500Y-133223000D02*
G01*
X187261500Y-132842000D01*
X187642500Y-132842000D01*
X187642500Y-133223000D01*
G37*
X188023500Y-135445500D02*
X187388500Y-134874000D01*
X188023500Y-134302500D01*
X188023500Y-135445500D01*
G36*
X188023500Y-135445500D02*
G01*
X187388500Y-134874000D01*
X188023500Y-134302500D01*
X188023500Y-135445500D01*
G37*
X188595000Y-133223000D02*
X188214000Y-132842000D01*
X188595000Y-132842000D01*
X188595000Y-133223000D01*
G36*
X188595000Y-133223000D02*
G01*
X188214000Y-132842000D01*
X188595000Y-132842000D01*
X188595000Y-133223000D01*
G37*
%TO.C,R27*%
X120150000Y-105926000D02*
X120150000Y-106926000D01*
X120150000Y-106926000D02*
X122050000Y-106926000D01*
X122050000Y-105926000D02*
X120150000Y-105926000D01*
X122050000Y-106926000D02*
X122050000Y-105926000D01*
%TO.C,LED6*%
X131552000Y-133329000D02*
X131552000Y-136419000D01*
X133223000Y-133667500D02*
X134048500Y-132842000D01*
X133794500Y-134302500D02*
X133794500Y-135445500D01*
X134175500Y-133667500D02*
X135001000Y-132842000D01*
X131552000Y-133329170D02*
G75*
G02*
X137102000Y-134874462I2560000J-1544830D01*
G01*
X137102000Y-134873538D02*
G75*
G02*
X131552000Y-136418830I-2990000J-462D01*
G01*
X136612000Y-134874000D02*
G75*
G02*
X131612000Y-134874000I-2500000J0D01*
G01*
X131612000Y-134874000D02*
G75*
G02*
X136612000Y-134874000I2500000J0D01*
G01*
X134048500Y-133223000D02*
X133667500Y-132842000D01*
X134048500Y-132842000D01*
X134048500Y-133223000D01*
G36*
X134048500Y-133223000D02*
G01*
X133667500Y-132842000D01*
X134048500Y-132842000D01*
X134048500Y-133223000D01*
G37*
X134429500Y-135445500D02*
X133794500Y-134874000D01*
X134429500Y-134302500D01*
X134429500Y-135445500D01*
G36*
X134429500Y-135445500D02*
G01*
X133794500Y-134874000D01*
X134429500Y-134302500D01*
X134429500Y-135445500D01*
G37*
X135001000Y-133223000D02*
X134620000Y-132842000D01*
X135001000Y-132842000D01*
X135001000Y-133223000D01*
G36*
X135001000Y-133223000D02*
G01*
X134620000Y-132842000D01*
X135001000Y-132842000D01*
X135001000Y-133223000D01*
G37*
%TO.C,R15*%
X129802000Y-127576000D02*
X129802000Y-129476000D01*
X129802000Y-129476000D02*
X130802000Y-129476000D01*
X130802000Y-127576000D02*
X129802000Y-127576000D01*
X130802000Y-129476000D02*
X130802000Y-127576000D01*
%TO.C,R10*%
X179078000Y-101400000D02*
X179078000Y-103300000D01*
X179078000Y-103300000D02*
X180078000Y-103300000D01*
X180078000Y-101400000D02*
X179078000Y-101400000D01*
X180078000Y-103300000D02*
X180078000Y-101400000D01*
%TO.C,C1*%
X162766000Y-103158000D02*
X162766000Y-104558000D01*
X163766000Y-104558000D02*
X163766000Y-103158000D01*
X162766000Y-103158000D02*
G75*
G02*
X163766000Y-103158000I500000J-269450D01*
G01*
X163766000Y-104558000D02*
G75*
G02*
X162766000Y-104558000I-500000J269451D01*
G01*
%TO.C,J2*%
X147255000Y-110042000D02*
X147255000Y-108712000D01*
X148585000Y-110042000D02*
X147255000Y-110042000D01*
X149855000Y-107382000D02*
X152455000Y-107382000D01*
X149855000Y-110042000D02*
X149855000Y-107382000D01*
X149855000Y-110042000D02*
X152455000Y-110042000D01*
X152455000Y-110042000D02*
X152455000Y-107382000D01*
%TO.C,C7*%
X136525000Y-103872000D02*
X136525000Y-105272000D01*
X137525000Y-105272000D02*
X137525000Y-103872000D01*
X136525000Y-103872000D02*
G75*
G02*
X137525000Y-103872000I500000J-269450D01*
G01*
X137525000Y-105272000D02*
G75*
G02*
X136525000Y-105272000I-500000J269451D01*
G01*
%TO.C,C18*%
X139678000Y-101084000D02*
X141078000Y-101084000D01*
X141078000Y-100084000D02*
X139678000Y-100084000D01*
X139678000Y-101084000D02*
G75*
G02*
X139678000Y-100084000I269451J500000D01*
G01*
X141078000Y-100084000D02*
G75*
G02*
X141078000Y-101084000I-269450J-500000D01*
G01*
%TO.C,R22*%
X137172000Y-100084000D02*
X137172000Y-101084000D01*
X137172000Y-101084000D02*
X139072000Y-101084000D01*
X139072000Y-100084000D02*
X137172000Y-100084000D01*
X139072000Y-101084000D02*
X139072000Y-100084000D01*
D13*
%TO.C,Q2*%
X170432000Y-129195000D02*
X173352000Y-129195000D01*
X170432000Y-129545000D02*
X170432000Y-129195000D01*
X173352000Y-129195000D02*
X173352000Y-129545000D01*
X173352000Y-129545000D02*
X170432000Y-129545000D01*
X173392000Y-127695000D02*
X173392000Y-128845000D01*
D14*
%TO.C,C19*%
X193255998Y-118855000D02*
X193256000Y-121455000D01*
X194856002Y-121455000D02*
X194856000Y-118855000D01*
X193255998Y-118855000D02*
G75*
G02*
X194856000Y-118855000I800001J-840224D01*
G01*
X194856002Y-121455000D02*
G75*
G02*
X193256000Y-121455000I-800001J840224D01*
G01*
%TO.C,C17*%
X140420000Y-107640000D02*
X141820000Y-107640000D01*
X141820000Y-106640000D02*
X140420000Y-106640000D01*
X140420000Y-107640000D02*
G75*
G02*
X140420000Y-106640000I269451J500000D01*
G01*
X141820000Y-106640000D02*
G75*
G02*
X141820000Y-107640000I-269450J-500000D01*
G01*
%TO.C,R7*%
X155400000Y-117924000D02*
X155400000Y-119824000D01*
X155400000Y-119824000D02*
X156400000Y-119824000D01*
X156400000Y-117924000D02*
X155400000Y-117924000D01*
X156400000Y-119824000D02*
X156400000Y-117924000D01*
%TO.C,C15*%
X145193998Y-119337000D02*
X145194000Y-121937000D01*
X146794002Y-121937000D02*
X146794000Y-119337000D01*
X145193998Y-119337000D02*
G75*
G02*
X146794000Y-119337000I800001J-840224D01*
G01*
X146794002Y-121937000D02*
G75*
G02*
X145194000Y-121937000I-800001J840224D01*
G01*
%TO.C,R1*%
X157940000Y-122242000D02*
X157940000Y-124142000D01*
X157940000Y-124142000D02*
X158940000Y-124142000D01*
X158940000Y-122242000D02*
X157940000Y-122242000D01*
X158940000Y-124142000D02*
X158940000Y-122242000D01*
%TO.C,D1*%
X183540000Y-109912000D02*
X183540000Y-111182000D01*
X186660000Y-111212000D02*
X186660000Y-109912000D01*
X183590000Y-111562000D02*
X183260000Y-111802000D01*
X183260000Y-111322000D01*
X183590000Y-111562000D01*
G36*
X183590000Y-111562000D02*
G01*
X183260000Y-111802000D01*
X183260000Y-111322000D01*
X183590000Y-111562000D01*
G37*
%TO.C,R8*%
X154440000Y-134942000D02*
X154440000Y-136842000D01*
X154440000Y-136842000D02*
X155440000Y-136842000D01*
X155440000Y-134942000D02*
X154440000Y-134942000D01*
X155440000Y-136842000D02*
X155440000Y-134942000D01*
%TO.C,C13*%
X134606000Y-102814000D02*
X136006000Y-102814000D01*
X136006000Y-101814000D02*
X134606000Y-101814000D01*
X134606000Y-102814000D02*
G75*
G02*
X134606000Y-101814000I269451J500000D01*
G01*
X136006000Y-101814000D02*
G75*
G02*
X136006000Y-102814000I-269450J-500000D01*
G01*
D11*
%TO.C,IC2*%
X142835000Y-123050000D02*
G75*
G02*
X142335000Y-123050000I-250000J0D01*
G01*
X142335000Y-123050000D02*
G75*
G02*
X142835000Y-123050000I250000J0D01*
G01*
D14*
%TO.C,R24*%
X114553000Y-114567000D02*
X115696000Y-113551000D01*
X114553000Y-118250000D02*
X113537000Y-118250000D01*
X114553000Y-118250000D02*
X117474000Y-118250000D01*
X114553000Y-121933000D02*
X114553000Y-114567000D01*
X114553000Y-121933000D02*
X115696000Y-122949000D01*
X115696000Y-113551000D02*
X118871000Y-113551000D01*
X115696000Y-122949000D02*
X118871000Y-122949000D01*
X118490000Y-116218000D02*
X117474000Y-118250000D01*
X118871000Y-113551000D02*
X119252000Y-113932000D01*
X118871000Y-122949000D02*
X119252000Y-122568000D01*
X119252000Y-113932000D02*
X123570000Y-113932000D01*
X119252000Y-122568000D02*
X123570000Y-122568000D01*
X120522000Y-120282000D02*
X118490000Y-116218000D01*
X122554000Y-116218000D02*
X120522000Y-120282000D01*
X124586000Y-120282000D02*
X122554000Y-116218000D01*
X126618000Y-116218000D02*
X124586000Y-120282000D01*
X127888000Y-113932000D02*
X123570000Y-113932000D01*
X127888000Y-122568000D02*
X123570000Y-122568000D01*
X128269000Y-113551000D02*
X127888000Y-113932000D01*
X128269000Y-122949000D02*
X127888000Y-122568000D01*
X128650000Y-120282000D02*
X126618000Y-116218000D01*
X129666000Y-118250000D02*
X128650000Y-120282000D01*
X131444000Y-113551000D02*
X128269000Y-113551000D01*
X131444000Y-122949000D02*
X128269000Y-122949000D01*
X132587000Y-114567000D02*
X131444000Y-113551000D01*
X132587000Y-118250000D02*
X129666000Y-118250000D01*
X132587000Y-118250000D02*
X133603000Y-118250000D01*
X132587000Y-121933000D02*
X131444000Y-122949000D01*
X132587000Y-121933000D02*
X132587000Y-114567000D01*
%TO.C,C25*%
X109680000Y-99376000D02*
X109680000Y-100776000D01*
X110680000Y-100776000D02*
X110680000Y-99376000D01*
X109680000Y-99376000D02*
G75*
G02*
X110680000Y-99376000I500000J-269450D01*
G01*
X110680000Y-100776000D02*
G75*
G02*
X109680000Y-100776000I-500000J269451D01*
G01*
D13*
%TO.C,D2*%
X129966000Y-100944000D02*
X129966000Y-99944000D01*
X130056000Y-98894000D02*
X132976000Y-98894000D01*
X130056000Y-99594000D02*
X130056000Y-98894000D01*
X132976000Y-98894000D02*
X132976000Y-99594000D01*
X132976000Y-99594000D02*
X130056000Y-99594000D01*
D10*
%TO.C,T1*%
X125408000Y-87376000D02*
X125408000Y-87376000D01*
X125408000Y-87376000D02*
X125408000Y-87376000D01*
X125508000Y-87376000D02*
X125508000Y-87376000D01*
D13*
X126058000Y-85976000D02*
X145058000Y-85976000D01*
X126058000Y-95976000D02*
X126058000Y-85976000D01*
X145058000Y-85976000D02*
X145058000Y-95976000D01*
X145058000Y-95976000D02*
X126058000Y-95976000D01*
D10*
X125208000Y-87376000D02*
G75*
G02*
X125508000Y-87376000I150000J0D01*
G01*
X125308000Y-87376000D02*
G75*
G02*
X125408000Y-87376000I50000J0D01*
G01*
X125308000Y-87376000D02*
G75*
G02*
X125408000Y-87376000I50000J0D01*
G01*
D14*
%TO.C,C21*%
X112556000Y-100830000D02*
X113956000Y-100830000D01*
X113956000Y-99830000D02*
X112556000Y-99830000D01*
X112556000Y-100830000D02*
G75*
G02*
X112556000Y-99830000I269451J500000D01*
G01*
X113956000Y-99830000D02*
G75*
G02*
X113956000Y-100830000I-269450J-500000D01*
G01*
%TO.C,LED3*%
X165334000Y-133329000D02*
X165334000Y-136419000D01*
X167005000Y-133667500D02*
X167830500Y-132842000D01*
X167576500Y-134302500D02*
X167576500Y-135445500D01*
X167957500Y-133667500D02*
X168783000Y-132842000D01*
X165334000Y-133329170D02*
G75*
G02*
X170884000Y-134874462I2560000J-1544830D01*
G01*
X170884000Y-134873538D02*
G75*
G02*
X165334000Y-136418830I-2990000J-462D01*
G01*
X170394000Y-134874000D02*
G75*
G02*
X165394000Y-134874000I-2500000J0D01*
G01*
X165394000Y-134874000D02*
G75*
G02*
X170394000Y-134874000I2500000J0D01*
G01*
X167830500Y-133223000D02*
X167449500Y-132842000D01*
X167830500Y-132842000D01*
X167830500Y-133223000D01*
G36*
X167830500Y-133223000D02*
G01*
X167449500Y-132842000D01*
X167830500Y-132842000D01*
X167830500Y-133223000D01*
G37*
X168211500Y-135445500D02*
X167576500Y-134874000D01*
X168211500Y-134302500D01*
X168211500Y-135445500D01*
G36*
X168211500Y-135445500D02*
G01*
X167576500Y-134874000D01*
X168211500Y-134302500D01*
X168211500Y-135445500D01*
G37*
X168783000Y-133223000D02*
X168402000Y-132842000D01*
X168783000Y-132842000D01*
X168783000Y-133223000D01*
G36*
X168783000Y-133223000D02*
G01*
X168402000Y-132842000D01*
X168783000Y-132842000D01*
X168783000Y-133223000D01*
G37*
%TO.C,R21*%
X138184000Y-114872000D02*
X138184000Y-116772000D01*
X138184000Y-116772000D02*
X139184000Y-116772000D01*
X139184000Y-114872000D02*
X138184000Y-114872000D01*
X139184000Y-116772000D02*
X139184000Y-114872000D01*
%TO.C,R16*%
X118880000Y-128338000D02*
X118880000Y-130238000D01*
X118880000Y-130238000D02*
X119880000Y-130238000D01*
X119880000Y-128338000D02*
X118880000Y-128338000D01*
X119880000Y-130238000D02*
X119880000Y-128338000D01*
D13*
%TO.C,IC3*%
X184944500Y-117582000D02*
X187944500Y-117582000D01*
X187944500Y-117582000D02*
X187944500Y-127782000D01*
X187944500Y-127782000D02*
X184944500Y-127782000D01*
D17*
X191781500Y-126282000D02*
X191781500Y-126282000D01*
X191906500Y-126282000D02*
X191906500Y-126282000D01*
X191781500Y-126283000D02*
G75*
G02*
X191906500Y-126282000I62500J500D01*
G01*
X191906500Y-126283000D02*
G75*
G02*
X191781500Y-126282000I-62500J500D01*
G01*
D14*
%TO.C,C14*%
X145748000Y-101380000D02*
X145748000Y-102780000D01*
X146748000Y-102780000D02*
X146748000Y-101380000D01*
X145748000Y-101380000D02*
G75*
G02*
X146748000Y-101380000I500000J-269451D01*
G01*
X146748000Y-102780000D02*
G75*
G02*
X145748000Y-102780000I-500000J269450D01*
G01*
%TO.C,R6*%
X163584000Y-134942000D02*
X163584000Y-136842000D01*
X163584000Y-136842000D02*
X164584000Y-136842000D01*
X164584000Y-134942000D02*
X163584000Y-134942000D01*
X164584000Y-136842000D02*
X164584000Y-134942000D01*
%TO.C,LED5*%
X127444500Y-136080500D02*
X126619000Y-136906000D01*
X127825500Y-135445500D02*
X127825500Y-134302500D01*
X128397000Y-136080500D02*
X127571500Y-136906000D01*
X130068000Y-136419000D02*
X130068000Y-133329000D01*
X124518000Y-134874462D02*
G75*
G02*
X130068000Y-133329170I2990000J462D01*
G01*
X130068000Y-136418830D02*
G75*
G02*
X124518000Y-134873538I-2560000J1544830D01*
G01*
X130008000Y-134874000D02*
G75*
G02*
X125008000Y-134874000I-2500000J0D01*
G01*
X125008000Y-134874000D02*
G75*
G02*
X130008000Y-134874000I2500000J0D01*
G01*
X127000000Y-136906000D02*
X126619000Y-136906000D01*
X126619000Y-136525000D01*
X127000000Y-136906000D01*
G36*
X127000000Y-136906000D02*
G01*
X126619000Y-136906000D01*
X126619000Y-136525000D01*
X127000000Y-136906000D01*
G37*
X127825500Y-134874000D02*
X127190500Y-135445500D01*
X127190500Y-134302500D01*
X127825500Y-134874000D01*
G36*
X127825500Y-134874000D02*
G01*
X127190500Y-135445500D01*
X127190500Y-134302500D01*
X127825500Y-134874000D01*
G37*
X127952500Y-136906000D02*
X127571500Y-136906000D01*
X127571500Y-136525000D01*
X127952500Y-136906000D01*
G36*
X127952500Y-136906000D02*
G01*
X127571500Y-136906000D01*
X127571500Y-136525000D01*
X127952500Y-136906000D01*
G37*
%TO.C,J1*%
X170130000Y-102670000D02*
X170130000Y-105330000D01*
X172730000Y-102670000D02*
X170130000Y-102670000D01*
X172730000Y-102670000D02*
X172730000Y-105330000D01*
X172730000Y-105330000D02*
X170130000Y-105330000D01*
X174000000Y-102670000D02*
X175330000Y-102670000D01*
X175330000Y-102670000D02*
X175330000Y-104000000D01*
%TO.C,R3*%
X157940000Y-117924000D02*
X157940000Y-119824000D01*
X157940000Y-119824000D02*
X158940000Y-119824000D01*
X158940000Y-117924000D02*
X157940000Y-117924000D01*
X158940000Y-119824000D02*
X158940000Y-117924000D01*
D13*
%TO.C,J3*%
X191588000Y-111658000D02*
X191588000Y-111658000D01*
X191588000Y-111658000D02*
X191588000Y-111658000D01*
X191688000Y-111658000D02*
X191688000Y-111658000D01*
X192698000Y-104658000D02*
X192698000Y-104458000D01*
X192703000Y-112458000D02*
X192698000Y-112258000D01*
X194376000Y-112928000D02*
X196176000Y-112928000D01*
X196176000Y-103988000D02*
X194376000Y-103988000D01*
X198176000Y-112928000D02*
X198788000Y-112928000D01*
X198788000Y-103988000D02*
X198176000Y-103988000D01*
X191588000Y-111658000D02*
G75*
G02*
X191688000Y-111658000I50000J0D01*
G01*
X191688000Y-111658000D02*
G75*
G02*
X191588000Y-111658000I-50000J0D01*
G01*
X191688000Y-111658000D02*
G75*
G02*
X191588000Y-111658000I-50000J0D01*
G01*
D14*
%TO.C,R19*%
X133000000Y-104158000D02*
X133000000Y-106058000D01*
X133000000Y-106058000D02*
X134000000Y-106058000D01*
X134000000Y-104158000D02*
X133000000Y-104158000D01*
X134000000Y-106058000D02*
X134000000Y-104158000D01*
%TO.C,C8*%
X140471000Y-115826002D02*
X143071000Y-115826000D01*
X143071000Y-114225998D02*
X140471000Y-114226000D01*
X140471000Y-115826002D02*
G75*
G02*
X140471000Y-114226000I840224J800001D01*
G01*
X143071000Y-114225998D02*
G75*
G02*
X143071000Y-115826000I-840224J-800001D01*
G01*
D13*
%TO.C,Q3*%
X165672000Y-129195000D02*
X168592000Y-129195000D01*
X165672000Y-129545000D02*
X165672000Y-129195000D01*
X168592000Y-129195000D02*
X168592000Y-129545000D01*
X168592000Y-129545000D02*
X165672000Y-129545000D01*
X168632000Y-127695000D02*
X168632000Y-128845000D01*
D14*
%TO.C,R4*%
X173744000Y-134942000D02*
X173744000Y-136842000D01*
X173744000Y-136842000D02*
X174744000Y-136842000D01*
X174744000Y-134942000D02*
X173744000Y-134942000D01*
X174744000Y-136842000D02*
X174744000Y-134942000D01*
%TO.C,R9*%
X180348000Y-101400000D02*
X180348000Y-103300000D01*
X180348000Y-103300000D02*
X181348000Y-103300000D01*
X181348000Y-101400000D02*
X180348000Y-101400000D01*
X181348000Y-103300000D02*
X181348000Y-101400000D01*
D13*
%TO.C,R17*%
X121630000Y-78284000D02*
X124130000Y-78284000D01*
X121630000Y-84784000D02*
X121630000Y-78284000D01*
X122880000Y-74234000D02*
X122880000Y-78284000D01*
X122880000Y-84784000D02*
X122880000Y-88834000D01*
X124130000Y-78284000D02*
X124130000Y-84784000D01*
X124130000Y-84784000D02*
X121630000Y-84784000D01*
%TO.C,RV1*%
X106218000Y-72708000D02*
X111258000Y-72708000D01*
X106218000Y-85208000D02*
X106218000Y-72708000D01*
D10*
X108758000Y-85708000D02*
X108758000Y-85708000D01*
X108758000Y-85808000D02*
X108758000Y-85808000D01*
D13*
X111258000Y-72708000D02*
X111258000Y-85208000D01*
X111258000Y-85208000D02*
X106218000Y-85208000D01*
D10*
X108758000Y-85708000D02*
G75*
G02*
X108758000Y-85808000I0J-50000D01*
G01*
X108758000Y-85808000D02*
G75*
G02*
X108758000Y-85708000I0J50000D01*
G01*
D14*
%TO.C,C22*%
X122333998Y-101049000D02*
X122334000Y-103649000D01*
X123934002Y-103649000D02*
X123934000Y-101049000D01*
X122333998Y-101049000D02*
G75*
G02*
X123934000Y-101049000I800001J-840224D01*
G01*
X123934002Y-103649000D02*
G75*
G02*
X122334000Y-103649000I-800001J840224D01*
G01*
%TO.C,R25*%
X120154000Y-102116000D02*
X120154000Y-103116000D01*
X120154000Y-103116000D02*
X122054000Y-103116000D01*
X122054000Y-102116000D02*
X120154000Y-102116000D01*
X122054000Y-103116000D02*
X122054000Y-102116000D01*
%TO.C,C6*%
X186134000Y-102883000D02*
X186134000Y-104283000D01*
X187134000Y-104283000D02*
X187134000Y-102883000D01*
X186134000Y-102883000D02*
G75*
G02*
X187134000Y-102883000I500000J-269451D01*
G01*
X187134000Y-104283000D02*
G75*
G02*
X186134000Y-104283000I-500000J269450D01*
G01*
%TO.C,R11*%
X177808000Y-101398000D02*
X177808000Y-103298000D01*
X177808000Y-103298000D02*
X178808000Y-103298000D01*
X178808000Y-101398000D02*
X177808000Y-101398000D01*
X178808000Y-103298000D02*
X178808000Y-101398000D01*
%TO.C,C11*%
X131731998Y-107679000D02*
X131732000Y-110279000D01*
X133332002Y-110279000D02*
X133332000Y-107679000D01*
X131731998Y-107679000D02*
G75*
G02*
X133332000Y-107679000I800001J-840224D01*
G01*
X133332002Y-110279000D02*
G75*
G02*
X131732000Y-110279000I-800001J840224D01*
G01*
%TO.C,C2*%
X161242000Y-103158000D02*
X161242000Y-104558000D01*
X162242000Y-104558000D02*
X162242000Y-103158000D01*
X161242000Y-103158000D02*
G75*
G02*
X162242000Y-103158000I500000J-269450D01*
G01*
X162242000Y-104558000D02*
G75*
G02*
X161242000Y-104558000I-500000J269451D01*
G01*
%TO.C,R2*%
X183396000Y-134942000D02*
X183396000Y-136842000D01*
X183396000Y-136842000D02*
X184396000Y-136842000D01*
X184396000Y-134942000D02*
X183396000Y-134942000D01*
X184396000Y-136842000D02*
X184396000Y-134942000D01*
D13*
%TO.C,Q6*%
X132718000Y-128687000D02*
X135638000Y-128687000D01*
X132718000Y-129037000D02*
X132718000Y-128687000D01*
X135638000Y-128687000D02*
X135638000Y-129037000D01*
X135638000Y-129037000D02*
X132718000Y-129037000D01*
X135678000Y-127187000D02*
X135678000Y-128337000D01*
%TO.C,Q1*%
X191514000Y-133513000D02*
X194434000Y-133513000D01*
X191514000Y-133863000D02*
X191514000Y-133513000D01*
X194434000Y-133513000D02*
X194434000Y-133863000D01*
X194434000Y-133863000D02*
X191514000Y-133863000D01*
X194474000Y-132013000D02*
X194474000Y-133163000D01*
D14*
%TO.C,C26*%
X197600000Y-97524000D02*
G75*
G02*
X191060000Y-97524000I-3270000J0D01*
G01*
X191060000Y-97524000D02*
G75*
G02*
X197600000Y-97524000I3270000J0D01*
G01*
%TO.C,R26*%
X118316000Y-100394000D02*
X118316000Y-102294000D01*
X118316000Y-102294000D02*
X119316000Y-102294000D01*
X119316000Y-100394000D02*
X118316000Y-100394000D01*
X119316000Y-102294000D02*
X119316000Y-100394000D01*
%TO.C,C4*%
X181164000Y-104619000D02*
X182564000Y-104619000D01*
X182564000Y-103619000D02*
X181164000Y-103619000D01*
X181164000Y-104619000D02*
G75*
G02*
X181164000Y-103619000I269450J500000D01*
G01*
X182564000Y-103619000D02*
G75*
G02*
X182564000Y-104619000I-269451J-500000D01*
G01*
D10*
%TO.C,C20*%
X113858000Y-72632000D02*
X118858000Y-72632000D01*
X113858000Y-90632000D02*
X113858000Y-72632000D01*
X118858000Y-72632000D02*
X118858000Y-90632000D01*
X118858000Y-90632000D02*
X113858000Y-90632000D01*
D13*
X116408000Y-91482000D02*
G75*
G02*
X116308000Y-91482000I-50000J0D01*
G01*
X116308000Y-91482000D02*
G75*
G02*
X116408000Y-91482000I50000J0D01*
G01*
D10*
%TO.C,U1*%
X182240000Y-108721000D02*
X182240000Y-108721000D01*
X182340000Y-108721000D02*
X182340000Y-108721000D01*
X182240000Y-108721000D02*
G75*
G02*
X182340000Y-108721000I50000J0D01*
G01*
X182340000Y-108721000D02*
G75*
G02*
X182240000Y-108721000I-50000J0D01*
G01*
D14*
%TO.C,R12*%
X125798000Y-127008000D02*
X125798000Y-128008000D01*
X125798000Y-128008000D02*
X127698000Y-128008000D01*
X127698000Y-127008000D02*
X125798000Y-127008000D01*
X127698000Y-128008000D02*
X127698000Y-127008000D01*
%TO.C,R14*%
X136208000Y-127008000D02*
X136208000Y-128008000D01*
X136208000Y-128008000D02*
X138108000Y-128008000D01*
X138108000Y-127008000D02*
X136208000Y-127008000D01*
X138108000Y-128008000D02*
X138108000Y-127008000D01*
%TO.C,LED4*%
X156190000Y-133583000D02*
X156190000Y-136673000D01*
X157861000Y-133921500D02*
X158686500Y-133096000D01*
X158432500Y-134556500D02*
X158432500Y-135699500D01*
X158813500Y-133921500D02*
X159639000Y-133096000D01*
X156190000Y-133583170D02*
G75*
G02*
X161740000Y-135128462I2560000J-1544830D01*
G01*
X161740000Y-135127538D02*
G75*
G02*
X156190000Y-136672830I-2990000J-462D01*
G01*
X161250000Y-135128000D02*
G75*
G02*
X156250000Y-135128000I-2500000J0D01*
G01*
X156250000Y-135128000D02*
G75*
G02*
X161250000Y-135128000I2500000J0D01*
G01*
X158686500Y-133477000D02*
X158305500Y-133096000D01*
X158686500Y-133096000D01*
X158686500Y-133477000D01*
G36*
X158686500Y-133477000D02*
G01*
X158305500Y-133096000D01*
X158686500Y-133096000D01*
X158686500Y-133477000D01*
G37*
X159067500Y-135699500D02*
X158432500Y-135128000D01*
X159067500Y-134556500D01*
X159067500Y-135699500D01*
G36*
X159067500Y-135699500D02*
G01*
X158432500Y-135128000D01*
X159067500Y-134556500D01*
X159067500Y-135699500D01*
G37*
X159639000Y-133477000D02*
X159258000Y-133096000D01*
X159639000Y-133096000D01*
X159639000Y-133477000D01*
G36*
X159639000Y-133477000D02*
G01*
X159258000Y-133096000D01*
X159639000Y-133096000D01*
X159639000Y-133477000D01*
G37*
D13*
%TO.C,FL1*%
X125750000Y-67650000D02*
X125750000Y-67650000D01*
X125750000Y-67850000D02*
X125750000Y-67850000D01*
D10*
X126250000Y-64250000D02*
X148250000Y-64250000D01*
X126250000Y-81250000D02*
X126250000Y-64250000D01*
X148250000Y-64250000D02*
X148250000Y-81250000D01*
X148250000Y-81250000D02*
X126250000Y-81250000D01*
D13*
X125750000Y-67650000D02*
G75*
G02*
X125750000Y-67850000I0J-100000D01*
G01*
X125750000Y-67850000D02*
G75*
G02*
X125750000Y-67650000I0J100000D01*
G01*
%TO.C,Q5*%
X122426000Y-128687000D02*
X125346000Y-128687000D01*
X122426000Y-129037000D02*
X122426000Y-128687000D01*
X125346000Y-128687000D02*
X125346000Y-129037000D01*
X125346000Y-129037000D02*
X122426000Y-129037000D01*
X125386000Y-127187000D02*
X125386000Y-128337000D01*
D11*
%TO.C,IC4*%
X112145000Y-101350000D02*
G75*
G02*
X111645000Y-101350000I-250000J0D01*
G01*
X111645000Y-101350000D02*
G75*
G02*
X112145000Y-101350000I250000J0D01*
G01*
%TD*%
D18*
%TO.C,PS1*%
X153250000Y-70750000D03*
D19*
X153250000Y-89050000D03*
X194850000Y-68450000D03*
X194850000Y-89050000D03*
%TD*%
D18*
%TO.C,T1*%
X127408000Y-87376000D03*
D19*
X127408000Y-94576000D03*
X143708000Y-87376000D03*
X143708000Y-94576000D03*
%TD*%
D20*
%TO.C,R17*%
X122880000Y-73284000D03*
X122880000Y-89784000D03*
%TD*%
M02*
