%TF.GenerationSoftware,KiCad,Pcbnew,8.0.7-8.0.7-0~ubuntu22.04.1*%
%TF.CreationDate,2024-12-10T13:55:55+09:00*%
%TF.ProjectId,MRM5-tester,4d524d35-2d74-4657-9374-65722e6b6963,rev?*%
%TF.SameCoordinates,Original*%
%TF.FileFunction,Drillmap*%
%TF.FilePolarity,Positive*%
%FSLAX45Y45*%
G04 Gerber Fmt 4.5, Leading zero omitted, Abs format (unit mm)*
G04 Created by KiCad (PCBNEW 8.0.7-8.0.7-0~ubuntu22.04.1) date 2024-12-10 13:55:55*
%MOMM*%
%LPD*%
G01*
G04 APERTURE LIST*
%ADD10C,0.050000*%
%ADD11C,0.200000*%
%ADD12C,0.100000*%
%ADD13C,0.120000*%
G04 APERTURE END LIST*
D10*
X12975000Y-9600000D02*
X10435872Y-9600000D01*
X19933400Y-6548400D02*
X19933400Y-13568400D01*
X10435872Y-9600000D02*
X10235872Y-9400000D01*
X10235872Y-9900000D02*
X10435872Y-9700000D01*
X19633400Y-6248400D02*
G75*
G02*
X19933400Y-6548400I0J-300000D01*
G01*
X19933400Y-13568400D02*
G75*
G02*
X19633400Y-13868400I-300000J0D01*
G01*
X10535872Y-6248400D02*
X19633400Y-6248400D01*
X14524800Y-13208000D02*
G75*
G02*
X14024800Y-13208000I-250000J0D01*
G01*
X14024800Y-13208000D02*
G75*
G02*
X14524800Y-13208000I250000J0D01*
G01*
X12975000Y-9700000D02*
X10435872Y-9700000D01*
X10535872Y-13868400D02*
G75*
G02*
X10235870Y-13568400I-2J300000D01*
G01*
X10235872Y-6548400D02*
X10235872Y-9400000D01*
X12975000Y-9600000D02*
X12975000Y-9700000D01*
X10235872Y-6548400D02*
G75*
G02*
X10535872Y-6248402I299998J0D01*
G01*
X19633400Y-13868400D02*
X10535872Y-13868400D01*
X10235872Y-13568400D02*
X10235872Y-9900000D01*
D11*
D12*
X11653400Y-10135000D02*
X11683400Y-10165000D01*
X11683400Y-10135000D02*
X11653400Y-10165000D01*
X13177500Y-12847300D02*
X13207500Y-12877300D01*
X13207500Y-12847300D02*
X13177500Y-12877300D01*
X13644600Y-10246600D02*
X13674600Y-10276600D01*
X13674600Y-10246600D02*
X13644600Y-10276600D01*
X13708100Y-11808700D02*
X13738100Y-11838700D01*
X13738100Y-11808700D02*
X13708100Y-11838700D01*
X13949400Y-10119600D02*
X13979400Y-10149600D01*
X13979400Y-10119600D02*
X13949400Y-10149600D01*
X14178000Y-10119600D02*
X14208000Y-10149600D01*
X14208000Y-10119600D02*
X14178000Y-10149600D01*
X14355800Y-10369500D02*
X14385800Y-10399500D01*
X14385800Y-10369500D02*
X14355800Y-10399500D01*
X14355800Y-10627600D02*
X14385800Y-10657600D01*
X14385800Y-10627600D02*
X14355800Y-10657600D01*
X14460000Y-11160000D02*
X14490000Y-11190000D01*
X14490000Y-11160000D02*
X14460000Y-11190000D01*
X14914600Y-12532600D02*
X14944600Y-12562600D01*
X14944600Y-12532600D02*
X14914600Y-12562600D01*
X14942800Y-11945600D02*
X14972800Y-11975600D01*
X14972800Y-11945600D02*
X14942800Y-11975600D01*
X15067000Y-12939000D02*
X15097000Y-12969000D01*
X15097000Y-12939000D02*
X15067000Y-12969000D01*
X15448000Y-11897600D02*
X15478000Y-11927600D01*
X15478000Y-11897600D02*
X15448000Y-11927600D01*
X15524200Y-10881600D02*
X15554200Y-10911600D01*
X15554200Y-10881600D02*
X15524200Y-10911600D01*
X15638500Y-12189700D02*
X15668500Y-12219700D01*
X15668500Y-12189700D02*
X15638500Y-12219700D01*
X15651200Y-12456400D02*
X15681200Y-12486400D01*
X15681200Y-12456400D02*
X15651200Y-12486400D01*
X15727400Y-12253200D02*
X15757400Y-12283200D01*
X15757400Y-12253200D02*
X15727400Y-12283200D01*
X15727400Y-12380200D02*
X15757400Y-12410200D01*
X15757400Y-12380200D02*
X15727400Y-12410200D01*
X15858500Y-11770600D02*
X15888500Y-11800600D01*
X15888500Y-11770600D02*
X15858500Y-11800600D01*
X15879800Y-10576800D02*
X15909800Y-10606800D01*
X15909800Y-10576800D02*
X15879800Y-10606800D01*
X15892500Y-12189700D02*
X15922500Y-12219700D01*
X15922500Y-12189700D02*
X15892500Y-12219700D01*
X16184600Y-11770600D02*
X16214600Y-11800600D01*
X16214600Y-11770600D02*
X16184600Y-11800600D01*
X16317200Y-12786600D02*
X16347200Y-12816600D01*
X16347200Y-12786600D02*
X16317200Y-12816600D01*
X16387800Y-11719800D02*
X16417800Y-11749800D01*
X16417800Y-11719800D02*
X16387800Y-11749800D01*
X16413200Y-10957800D02*
X16443200Y-10987800D01*
X16443200Y-10957800D02*
X16413200Y-10987800D01*
X16489400Y-11415000D02*
X16519400Y-11445000D01*
X16519400Y-11415000D02*
X16489400Y-11445000D01*
X17130000Y-12558000D02*
X17160000Y-12588000D01*
X17160000Y-12558000D02*
X17130000Y-12588000D01*
X17200600Y-10805400D02*
X17230600Y-10835400D01*
X17230600Y-10805400D02*
X17200600Y-10835400D01*
X17282400Y-12685000D02*
X17312400Y-12715000D01*
X17312400Y-12685000D02*
X17282400Y-12715000D01*
X17378400Y-10805400D02*
X17408400Y-10835400D01*
X17408400Y-10805400D02*
X17378400Y-10835400D01*
X17560000Y-10685000D02*
X17590000Y-10715000D01*
X17590000Y-10685000D02*
X17560000Y-10715000D01*
X17581600Y-10983200D02*
X17611600Y-11013200D01*
X17611600Y-10983200D02*
X17581600Y-11013200D01*
X17708600Y-11161000D02*
X17738600Y-11191000D01*
X17738600Y-11161000D02*
X17708600Y-11191000D01*
X18699200Y-11034000D02*
X18729200Y-11064000D01*
X18729200Y-11034000D02*
X18699200Y-11064000D01*
X18737300Y-10792700D02*
X18767300Y-10822700D01*
X18767300Y-10792700D02*
X18737300Y-10822700D01*
X19136600Y-13091400D02*
X19166600Y-13121400D01*
X19166600Y-13091400D02*
X19136600Y-13121400D01*
X11139600Y-10058400D02*
G75*
G02*
X11099600Y-10058400I-20000J0D01*
G01*
X11099600Y-10058400D02*
G75*
G02*
X11139600Y-10058400I20000J0D01*
G01*
X11215800Y-10693400D02*
G75*
G02*
X11175800Y-10693400I-20000J0D01*
G01*
X11175800Y-10693400D02*
G75*
G02*
X11215800Y-10693400I20000J0D01*
G01*
X11952400Y-11353800D02*
G75*
G02*
X11912400Y-11353800I-20000J0D01*
G01*
X11912400Y-11353800D02*
G75*
G02*
X11952400Y-11353800I20000J0D01*
G01*
X12130200Y-11887200D02*
G75*
G02*
X12090200Y-11887200I-20000J0D01*
G01*
X12090200Y-11887200D02*
G75*
G02*
X12130200Y-11887200I20000J0D01*
G01*
X12220000Y-13100000D02*
G75*
G02*
X12180000Y-13100000I-20000J0D01*
G01*
X12180000Y-13100000D02*
G75*
G02*
X12220000Y-13100000I20000J0D01*
G01*
X12257200Y-10414000D02*
G75*
G02*
X12217200Y-10414000I-20000J0D01*
G01*
X12217200Y-10414000D02*
G75*
G02*
X12257200Y-10414000I20000J0D01*
G01*
X12384200Y-11150600D02*
G75*
G02*
X12344200Y-11150600I-20000J0D01*
G01*
X12344200Y-11150600D02*
G75*
G02*
X12384200Y-11150600I20000J0D01*
G01*
X12460400Y-10134600D02*
G75*
G02*
X12420400Y-10134600I-20000J0D01*
G01*
X12420400Y-10134600D02*
G75*
G02*
X12460400Y-10134600I20000J0D01*
G01*
X12511200Y-9982200D02*
G75*
G02*
X12471200Y-9982200I-20000J0D01*
G01*
X12471200Y-9982200D02*
G75*
G02*
X12511200Y-9982200I20000J0D01*
G01*
X12638200Y-10668000D02*
G75*
G02*
X12598200Y-10668000I-20000J0D01*
G01*
X12598200Y-10668000D02*
G75*
G02*
X12638200Y-10668000I20000J0D01*
G01*
X12739800Y-12369800D02*
G75*
G02*
X12699800Y-12369800I-20000J0D01*
G01*
X12699800Y-12369800D02*
G75*
G02*
X12739800Y-12369800I20000J0D01*
G01*
X12739800Y-12573000D02*
G75*
G02*
X12699800Y-12573000I-20000J0D01*
G01*
X12699800Y-12573000D02*
G75*
G02*
X12739800Y-12573000I20000J0D01*
G01*
X12872400Y-11277600D02*
G75*
G02*
X12832400Y-11277600I-20000J0D01*
G01*
X12832400Y-11277600D02*
G75*
G02*
X12872400Y-11277600I20000J0D01*
G01*
X12892200Y-12877800D02*
G75*
G02*
X12852200Y-12877800I-20000J0D01*
G01*
X12852200Y-12877800D02*
G75*
G02*
X12892200Y-12877800I20000J0D01*
G01*
X12968400Y-10845800D02*
G75*
G02*
X12928400Y-10845800I-20000J0D01*
G01*
X12928400Y-10845800D02*
G75*
G02*
X12968400Y-10845800I20000J0D01*
G01*
X13019200Y-10287000D02*
G75*
G02*
X12979200Y-10287000I-20000J0D01*
G01*
X12979200Y-10287000D02*
G75*
G02*
X13019200Y-10287000I20000J0D01*
G01*
X13146200Y-10617200D02*
G75*
G02*
X13106200Y-10617200I-20000J0D01*
G01*
X13106200Y-10617200D02*
G75*
G02*
X13146200Y-10617200I20000J0D01*
G01*
X13298600Y-10287000D02*
G75*
G02*
X13258600Y-10287000I-20000J0D01*
G01*
X13258600Y-10287000D02*
G75*
G02*
X13298600Y-10287000I20000J0D01*
G01*
X13425600Y-9906000D02*
G75*
G02*
X13385600Y-9906000I-20000J0D01*
G01*
X13385600Y-9906000D02*
G75*
G02*
X13425600Y-9906000I20000J0D01*
G01*
X13501800Y-12471400D02*
G75*
G02*
X13461800Y-12471400I-20000J0D01*
G01*
X13461800Y-12471400D02*
G75*
G02*
X13501800Y-12471400I20000J0D01*
G01*
X13730400Y-10845800D02*
G75*
G02*
X13690400Y-10845800I-20000J0D01*
G01*
X13690400Y-10845800D02*
G75*
G02*
X13730400Y-10845800I20000J0D01*
G01*
X13908200Y-10591800D02*
G75*
G02*
X13868200Y-10591800I-20000J0D01*
G01*
X13868200Y-10591800D02*
G75*
G02*
X13908200Y-10591800I20000J0D01*
G01*
X14040800Y-11709400D02*
G75*
G02*
X14000800Y-11709400I-20000J0D01*
G01*
X14000800Y-11709400D02*
G75*
G02*
X14040800Y-11709400I20000J0D01*
G01*
X14365400Y-11912600D02*
G75*
G02*
X14325400Y-11912600I-20000J0D01*
G01*
X14325400Y-11912600D02*
G75*
G02*
X14365400Y-11912600I20000J0D01*
G01*
X14675800Y-9779000D02*
G75*
G02*
X14635800Y-9779000I-20000J0D01*
G01*
X14635800Y-9779000D02*
G75*
G02*
X14675800Y-9779000I20000J0D01*
G01*
X14771800Y-11912600D02*
G75*
G02*
X14731800Y-11912600I-20000J0D01*
G01*
X14731800Y-11912600D02*
G75*
G02*
X14771800Y-11912600I20000J0D01*
G01*
X14773100Y-12142500D02*
G75*
G02*
X14733100Y-12142500I-20000J0D01*
G01*
X14733100Y-12142500D02*
G75*
G02*
X14773100Y-12142500I20000J0D01*
G01*
X14777400Y-11277600D02*
G75*
G02*
X14737400Y-11277600I-20000J0D01*
G01*
X14737400Y-11277600D02*
G75*
G02*
X14777400Y-11277600I20000J0D01*
G01*
X15076600Y-12801600D02*
G75*
G02*
X15036600Y-12801600I-20000J0D01*
G01*
X15036600Y-12801600D02*
G75*
G02*
X15076600Y-12801600I20000J0D01*
G01*
X15310800Y-12471400D02*
G75*
G02*
X15270800Y-12471400I-20000J0D01*
G01*
X15270800Y-12471400D02*
G75*
G02*
X15310800Y-12471400I20000J0D01*
G01*
X15336200Y-11277600D02*
G75*
G02*
X15296200Y-11277600I-20000J0D01*
G01*
X15296200Y-11277600D02*
G75*
G02*
X15336200Y-11277600I20000J0D01*
G01*
X15762400Y-10464800D02*
G75*
G02*
X15722400Y-10464800I-20000J0D01*
G01*
X15722400Y-10464800D02*
G75*
G02*
X15762400Y-10464800I20000J0D01*
G01*
X16120000Y-12250000D02*
G75*
G02*
X16080000Y-12250000I-20000J0D01*
G01*
X16080000Y-12250000D02*
G75*
G02*
X16120000Y-12250000I20000J0D01*
G01*
X16245000Y-10566400D02*
G75*
G02*
X16205000Y-10566400I-20000J0D01*
G01*
X16205000Y-10566400D02*
G75*
G02*
X16245000Y-10566400I20000J0D01*
G01*
X16270000Y-11150000D02*
G75*
G02*
X16230000Y-11150000I-20000J0D01*
G01*
X16230000Y-11150000D02*
G75*
G02*
X16270000Y-11150000I20000J0D01*
G01*
X16545000Y-10900000D02*
G75*
G02*
X16505000Y-10900000I-20000J0D01*
G01*
X16505000Y-10900000D02*
G75*
G02*
X16545000Y-10900000I20000J0D01*
G01*
X16795000Y-11050000D02*
G75*
G02*
X16755000Y-11050000I-20000J0D01*
G01*
X16755000Y-11050000D02*
G75*
G02*
X16795000Y-11050000I20000J0D01*
G01*
X16885600Y-12293600D02*
G75*
G02*
X16845600Y-12293600I-20000J0D01*
G01*
X16845600Y-12293600D02*
G75*
G02*
X16885600Y-12293600I20000J0D01*
G01*
X17170000Y-11050000D02*
G75*
G02*
X17130000Y-11050000I-20000J0D01*
G01*
X17130000Y-11050000D02*
G75*
G02*
X17170000Y-11050000I20000J0D01*
G01*
X17997600Y-9753600D02*
G75*
G02*
X17957600Y-9753600I-20000J0D01*
G01*
X17957600Y-9753600D02*
G75*
G02*
X17997600Y-9753600I20000J0D01*
G01*
X18257200Y-11176000D02*
G75*
G02*
X18217200Y-11176000I-20000J0D01*
G01*
X18217200Y-11176000D02*
G75*
G02*
X18257200Y-11176000I20000J0D01*
G01*
X18505600Y-10185400D02*
G75*
G02*
X18465600Y-10185400I-20000J0D01*
G01*
X18465600Y-10185400D02*
G75*
G02*
X18505600Y-10185400I20000J0D01*
G01*
X18581800Y-11404600D02*
G75*
G02*
X18541800Y-11404600I-20000J0D01*
G01*
X18541800Y-11404600D02*
G75*
G02*
X18581800Y-11404600I20000J0D01*
G01*
X18937400Y-10490200D02*
G75*
G02*
X18897400Y-10490200I-20000J0D01*
G01*
X18897400Y-10490200D02*
G75*
G02*
X18937400Y-10490200I20000J0D01*
G01*
X19070000Y-10975000D02*
G75*
G02*
X19030000Y-10975000I-20000J0D01*
G01*
X19030000Y-10975000D02*
G75*
G02*
X19070000Y-10975000I20000J0D01*
G01*
X19374800Y-11506200D02*
G75*
G02*
X19334800Y-11506200I-20000J0D01*
G01*
X19334800Y-11506200D02*
G75*
G02*
X19374800Y-11506200I20000J0D01*
G01*
X19501800Y-10160000D02*
G75*
G02*
X19461800Y-10160000I-20000J0D01*
G01*
X19461800Y-10160000D02*
G75*
G02*
X19501800Y-10160000I20000J0D01*
G01*
X19674000Y-10947400D02*
G75*
G02*
X19634000Y-10947400I-20000J0D01*
G01*
X19634000Y-10947400D02*
G75*
G02*
X19674000Y-10947400I20000J0D01*
G01*
X11963400Y-13447400D02*
X11963400Y-13527400D01*
X11923400Y-13487400D02*
X12003400Y-13487400D01*
X12217400Y-13447400D02*
X12217400Y-13527400D01*
X12177400Y-13487400D02*
X12257400Y-13487400D01*
X12288000Y-7288400D02*
X12288000Y-7368400D01*
X12248000Y-7328400D02*
X12328000Y-7328400D01*
X12288000Y-8938400D02*
X12288000Y-9018400D01*
X12248000Y-8978400D02*
X12328000Y-8978400D01*
X12623800Y-13447400D02*
X12623800Y-13527400D01*
X12583800Y-13487400D02*
X12663800Y-13487400D01*
X12877800Y-13447400D02*
X12877800Y-13527400D01*
X12837800Y-13487400D02*
X12917800Y-13487400D01*
X13284200Y-13447400D02*
X13284200Y-13527400D01*
X13244200Y-13487400D02*
X13324200Y-13487400D01*
X13538200Y-13447400D02*
X13538200Y-13527400D01*
X13498200Y-13487400D02*
X13578200Y-13487400D01*
X15748000Y-13472800D02*
X15748000Y-13552800D01*
X15708000Y-13512800D02*
X15788000Y-13512800D01*
X16002000Y-13472800D02*
X16002000Y-13552800D01*
X15962000Y-13512800D02*
X16042000Y-13512800D01*
X16662400Y-13447400D02*
X16662400Y-13527400D01*
X16622400Y-13487400D02*
X16702400Y-13487400D01*
X16916400Y-13447400D02*
X16916400Y-13527400D01*
X16876400Y-13487400D02*
X16956400Y-13487400D01*
X17686867Y-13447400D02*
X17686867Y-13527400D01*
X17646867Y-13487400D02*
X17726867Y-13487400D01*
X17940867Y-13447400D02*
X17940867Y-13527400D01*
X17900867Y-13487400D02*
X17980867Y-13487400D01*
X18643600Y-13447400D02*
X18643600Y-13527400D01*
X18603600Y-13487400D02*
X18683600Y-13487400D01*
X18897600Y-13447400D02*
X18897600Y-13527400D01*
X18857600Y-13487400D02*
X18937600Y-13487400D01*
X19308000Y-9712400D02*
X19308000Y-9792400D01*
X19268000Y-9752400D02*
X19348000Y-9752400D01*
X19558000Y-9712400D02*
X19558000Y-9792400D01*
X19518000Y-9752400D02*
X19598000Y-9752400D01*
X13106820Y-6806820D02*
X13106820Y-6743180D01*
X13043180Y-6743180D01*
X13043180Y-6806820D01*
X13106820Y-6806820D01*
X13106820Y-7806820D02*
X13106820Y-7743180D01*
X13043180Y-7743180D01*
X13043180Y-7806820D01*
X13106820Y-7806820D01*
X14406820Y-6806820D02*
X14406820Y-6743180D01*
X14343180Y-6743180D01*
X14343180Y-6806820D01*
X14406820Y-6806820D01*
X14406820Y-7806820D02*
X14406820Y-7743180D01*
X14343180Y-7743180D01*
X14343180Y-7806820D01*
X14406820Y-7806820D01*
X10875800Y-7570800D02*
X10925800Y-7520800D01*
X10875800Y-7470800D01*
X10825800Y-7520800D01*
X10875800Y-7570800D01*
X10875800Y-8320800D02*
X10925800Y-8270800D01*
X10875800Y-8220800D01*
X10825800Y-8270800D01*
X10875800Y-8320800D01*
X11292200Y-6777400D02*
X11342200Y-6727400D01*
X11292200Y-6677400D01*
X11242200Y-6727400D01*
X11292200Y-6777400D01*
X11635800Y-7463200D02*
X11685800Y-7413200D01*
X11635800Y-7363200D01*
X11585800Y-7413200D01*
X11635800Y-7463200D01*
X11635800Y-8963200D02*
X11685800Y-8913200D01*
X11635800Y-8863200D01*
X11585800Y-8913200D01*
X11635800Y-8963200D01*
X12042200Y-6777400D02*
X12092200Y-6727400D01*
X12042200Y-6677400D01*
X11992200Y-6727400D01*
X12042200Y-6777400D01*
X12740800Y-8787600D02*
X12790800Y-8737600D01*
X12740800Y-8687600D01*
X12690800Y-8737600D01*
X12740800Y-8787600D01*
X12740800Y-9507600D02*
X12790800Y-9457600D01*
X12740800Y-9407600D01*
X12690800Y-9457600D01*
X12740800Y-9507600D01*
X14370800Y-8787600D02*
X14420800Y-8737600D01*
X14370800Y-8687600D01*
X14320800Y-8737600D01*
X14370800Y-8787600D01*
X14370800Y-9507600D02*
X14420800Y-9457600D01*
X14370800Y-9407600D01*
X14320800Y-9457600D01*
X14370800Y-9507600D01*
X14858500Y-10921200D02*
X14908500Y-10871200D01*
X14858500Y-10821200D01*
X14808500Y-10871200D01*
X14858500Y-10921200D01*
X15112500Y-10921200D02*
X15162500Y-10871200D01*
X15112500Y-10821200D01*
X15062500Y-10871200D01*
X15112500Y-10921200D01*
X15189200Y-10032200D02*
X15239200Y-9982200D01*
X15189200Y-9932200D01*
X15139200Y-9982200D01*
X15189200Y-10032200D01*
X15325000Y-7125000D02*
X15375000Y-7075000D01*
X15325000Y-7025000D01*
X15275000Y-7075000D01*
X15325000Y-7125000D01*
X15325000Y-8955000D02*
X15375000Y-8905000D01*
X15325000Y-8855000D01*
X15275000Y-8905000D01*
X15325000Y-8955000D01*
X15443200Y-10032200D02*
X15493200Y-9982200D01*
X15443200Y-9932200D01*
X15393200Y-9982200D01*
X15443200Y-10032200D01*
X16123400Y-12013400D02*
X16173400Y-11963400D01*
X16123400Y-11913400D01*
X16073400Y-11963400D01*
X16123400Y-12013400D01*
X16377400Y-10032200D02*
X16427400Y-9982200D01*
X16377400Y-9932200D01*
X16327400Y-9982200D01*
X16377400Y-10032200D01*
X16377400Y-12013400D02*
X16427400Y-11963400D01*
X16377400Y-11913400D01*
X16327400Y-11963400D01*
X16377400Y-12013400D01*
X16631400Y-10032200D02*
X16681400Y-9982200D01*
X16631400Y-9932200D01*
X16581400Y-9982200D01*
X16631400Y-10032200D01*
X16631400Y-12013400D02*
X16681400Y-11963400D01*
X16631400Y-11913400D01*
X16581400Y-11963400D01*
X16631400Y-12013400D01*
X16885400Y-10032200D02*
X16935400Y-9982200D01*
X16885400Y-9932200D01*
X16835400Y-9982200D01*
X16885400Y-10032200D01*
X16885400Y-12013400D02*
X16935400Y-11963400D01*
X16885400Y-11913400D01*
X16835400Y-11963400D01*
X16885400Y-12013400D01*
X17139400Y-10032200D02*
X17189400Y-9982200D01*
X17139400Y-9932200D01*
X17089400Y-9982200D01*
X17139400Y-10032200D01*
X17139400Y-12013400D02*
X17189400Y-11963400D01*
X17139400Y-11913400D01*
X17089400Y-11963400D01*
X17139400Y-12013400D01*
X17146000Y-10450000D02*
X17196000Y-10400000D01*
X17146000Y-10350000D01*
X17096000Y-10400000D01*
X17146000Y-10450000D01*
X17393400Y-10032200D02*
X17443400Y-9982200D01*
X17393400Y-9932200D01*
X17343400Y-9982200D01*
X17393400Y-10032200D01*
X17400000Y-10450000D02*
X17450000Y-10400000D01*
X17400000Y-10350000D01*
X17350000Y-10400000D01*
X17400000Y-10450000D01*
X18516600Y-10032200D02*
X18566600Y-9982200D01*
X18516600Y-9932200D01*
X18466600Y-9982200D01*
X18516600Y-10032200D01*
X18770600Y-10032200D02*
X18820600Y-9982200D01*
X18770600Y-9932200D01*
X18720600Y-9982200D01*
X18770600Y-10032200D01*
X19485000Y-6895000D02*
X19535000Y-6845000D01*
X19485000Y-6795000D01*
X19435000Y-6845000D01*
X19485000Y-6895000D01*
X19485000Y-8955000D02*
X19535000Y-8905000D01*
X19485000Y-8855000D01*
X19435000Y-8905000D01*
X19485000Y-8955000D01*
D13*
X11154000Y-11765000D02*
X11274000Y-11885000D01*
X11274000Y-11765000D02*
X11154000Y-11885000D01*
X11274000Y-11825000D02*
G75*
G02*
X11154000Y-11825000I-60000J0D01*
G01*
X11154000Y-11825000D02*
G75*
G02*
X11274000Y-11825000I60000J0D01*
G01*
X13440000Y-11765000D02*
X13560000Y-11885000D01*
X13560000Y-11765000D02*
X13440000Y-11885000D01*
X13560000Y-11825000D02*
G75*
G02*
X13440000Y-11825000I-60000J0D01*
G01*
X13440000Y-11825000D02*
G75*
G02*
X13560000Y-11825000I60000J0D01*
G01*
D11*
X10500000Y-11850000D02*
X10700000Y-12050000D01*
X10700000Y-11850000D02*
X10500000Y-12050000D01*
X10600000Y-11850000D02*
X10600000Y-12050000D01*
X10500000Y-11950000D02*
X10700000Y-11950000D01*
X10511600Y-10237800D02*
X10711600Y-10437800D01*
X10711600Y-10237800D02*
X10511600Y-10437800D01*
X10611600Y-10237800D02*
X10611600Y-10437800D01*
X10511600Y-10337800D02*
X10711600Y-10337800D01*
X10519800Y-6602000D02*
X10719800Y-6802000D01*
X10719800Y-6602000D02*
X10519800Y-6802000D01*
X10619800Y-6602000D02*
X10619800Y-6802000D01*
X10519800Y-6702000D02*
X10719800Y-6702000D01*
X10519800Y-8913400D02*
X10719800Y-9113400D01*
X10719800Y-8913400D02*
X10519800Y-9113400D01*
X10619800Y-8913400D02*
X10619800Y-9113400D01*
X10519800Y-9013400D02*
X10719800Y-9013400D01*
X10494149Y-14182384D02*
X10494149Y-13982384D01*
X10494149Y-13982384D02*
X10541768Y-13982384D01*
X10541768Y-13982384D02*
X10570339Y-13991908D01*
X10570339Y-13991908D02*
X10589387Y-14010955D01*
X10589387Y-14010955D02*
X10598911Y-14030003D01*
X10598911Y-14030003D02*
X10608435Y-14068098D01*
X10608435Y-14068098D02*
X10608435Y-14096669D01*
X10608435Y-14096669D02*
X10598911Y-14134765D01*
X10598911Y-14134765D02*
X10589387Y-14153812D01*
X10589387Y-14153812D02*
X10570339Y-14172860D01*
X10570339Y-14172860D02*
X10541768Y-14182384D01*
X10541768Y-14182384D02*
X10494149Y-14182384D01*
X10694149Y-14182384D02*
X10694149Y-14049050D01*
X10694149Y-14087146D02*
X10703673Y-14068098D01*
X10703673Y-14068098D02*
X10713196Y-14058574D01*
X10713196Y-14058574D02*
X10732244Y-14049050D01*
X10732244Y-14049050D02*
X10751292Y-14049050D01*
X10817958Y-14182384D02*
X10817958Y-14049050D01*
X10817958Y-13982384D02*
X10808435Y-13991908D01*
X10808435Y-13991908D02*
X10817958Y-14001431D01*
X10817958Y-14001431D02*
X10827482Y-13991908D01*
X10827482Y-13991908D02*
X10817958Y-13982384D01*
X10817958Y-13982384D02*
X10817958Y-14001431D01*
X10941768Y-14182384D02*
X10922720Y-14172860D01*
X10922720Y-14172860D02*
X10913196Y-14153812D01*
X10913196Y-14153812D02*
X10913196Y-13982384D01*
X11046530Y-14182384D02*
X11027482Y-14172860D01*
X11027482Y-14172860D02*
X11017958Y-14153812D01*
X11017958Y-14153812D02*
X11017958Y-13982384D01*
X11275101Y-14182384D02*
X11275101Y-13982384D01*
X11275101Y-13982384D02*
X11341768Y-14125241D01*
X11341768Y-14125241D02*
X11408434Y-13982384D01*
X11408434Y-13982384D02*
X11408434Y-14182384D01*
X11589387Y-14182384D02*
X11589387Y-14077622D01*
X11589387Y-14077622D02*
X11579863Y-14058574D01*
X11579863Y-14058574D02*
X11560815Y-14049050D01*
X11560815Y-14049050D02*
X11522720Y-14049050D01*
X11522720Y-14049050D02*
X11503673Y-14058574D01*
X11589387Y-14172860D02*
X11570339Y-14182384D01*
X11570339Y-14182384D02*
X11522720Y-14182384D01*
X11522720Y-14182384D02*
X11503673Y-14172860D01*
X11503673Y-14172860D02*
X11494149Y-14153812D01*
X11494149Y-14153812D02*
X11494149Y-14134765D01*
X11494149Y-14134765D02*
X11503673Y-14115717D01*
X11503673Y-14115717D02*
X11522720Y-14106193D01*
X11522720Y-14106193D02*
X11570339Y-14106193D01*
X11570339Y-14106193D02*
X11589387Y-14096669D01*
X11684625Y-14049050D02*
X11684625Y-14249050D01*
X11684625Y-14058574D02*
X11703673Y-14049050D01*
X11703673Y-14049050D02*
X11741768Y-14049050D01*
X11741768Y-14049050D02*
X11760815Y-14058574D01*
X11760815Y-14058574D02*
X11770339Y-14068098D01*
X11770339Y-14068098D02*
X11779863Y-14087146D01*
X11779863Y-14087146D02*
X11779863Y-14144288D01*
X11779863Y-14144288D02*
X11770339Y-14163336D01*
X11770339Y-14163336D02*
X11760815Y-14172860D01*
X11760815Y-14172860D02*
X11741768Y-14182384D01*
X11741768Y-14182384D02*
X11703673Y-14182384D01*
X11703673Y-14182384D02*
X11684625Y-14172860D01*
X11865577Y-14163336D02*
X11875101Y-14172860D01*
X11875101Y-14172860D02*
X11865577Y-14182384D01*
X11865577Y-14182384D02*
X11856054Y-14172860D01*
X11856054Y-14172860D02*
X11865577Y-14163336D01*
X11865577Y-14163336D02*
X11865577Y-14182384D01*
X11865577Y-14058574D02*
X11875101Y-14068098D01*
X11875101Y-14068098D02*
X11865577Y-14077622D01*
X11865577Y-14077622D02*
X11856054Y-14068098D01*
X11856054Y-14068098D02*
X11865577Y-14058574D01*
X11865577Y-14058574D02*
X11865577Y-14077622D01*
D12*
X10203372Y-14495900D02*
X10233372Y-14525900D01*
X10233372Y-14495900D02*
X10203372Y-14525900D01*
D11*
X10532244Y-14402384D02*
X10551292Y-14402384D01*
X10551292Y-14402384D02*
X10570339Y-14411908D01*
X10570339Y-14411908D02*
X10579863Y-14421431D01*
X10579863Y-14421431D02*
X10589387Y-14440479D01*
X10589387Y-14440479D02*
X10598911Y-14478574D01*
X10598911Y-14478574D02*
X10598911Y-14526193D01*
X10598911Y-14526193D02*
X10589387Y-14564288D01*
X10589387Y-14564288D02*
X10579863Y-14583336D01*
X10579863Y-14583336D02*
X10570339Y-14592860D01*
X10570339Y-14592860D02*
X10551292Y-14602384D01*
X10551292Y-14602384D02*
X10532244Y-14602384D01*
X10532244Y-14602384D02*
X10513196Y-14592860D01*
X10513196Y-14592860D02*
X10503673Y-14583336D01*
X10503673Y-14583336D02*
X10494149Y-14564288D01*
X10494149Y-14564288D02*
X10484625Y-14526193D01*
X10484625Y-14526193D02*
X10484625Y-14478574D01*
X10484625Y-14478574D02*
X10494149Y-14440479D01*
X10494149Y-14440479D02*
X10503673Y-14421431D01*
X10503673Y-14421431D02*
X10513196Y-14411908D01*
X10513196Y-14411908D02*
X10532244Y-14402384D01*
X10684625Y-14583336D02*
X10694149Y-14592860D01*
X10694149Y-14592860D02*
X10684625Y-14602384D01*
X10684625Y-14602384D02*
X10675101Y-14592860D01*
X10675101Y-14592860D02*
X10684625Y-14583336D01*
X10684625Y-14583336D02*
X10684625Y-14602384D01*
X10760816Y-14402384D02*
X10884625Y-14402384D01*
X10884625Y-14402384D02*
X10817958Y-14478574D01*
X10817958Y-14478574D02*
X10846530Y-14478574D01*
X10846530Y-14478574D02*
X10865577Y-14488098D01*
X10865577Y-14488098D02*
X10875101Y-14497622D01*
X10875101Y-14497622D02*
X10884625Y-14516669D01*
X10884625Y-14516669D02*
X10884625Y-14564288D01*
X10884625Y-14564288D02*
X10875101Y-14583336D01*
X10875101Y-14583336D02*
X10865577Y-14592860D01*
X10865577Y-14592860D02*
X10846530Y-14602384D01*
X10846530Y-14602384D02*
X10789387Y-14602384D01*
X10789387Y-14602384D02*
X10770339Y-14592860D01*
X10770339Y-14592860D02*
X10760816Y-14583336D01*
X11008435Y-14402384D02*
X11027482Y-14402384D01*
X11027482Y-14402384D02*
X11046530Y-14411908D01*
X11046530Y-14411908D02*
X11056054Y-14421431D01*
X11056054Y-14421431D02*
X11065577Y-14440479D01*
X11065577Y-14440479D02*
X11075101Y-14478574D01*
X11075101Y-14478574D02*
X11075101Y-14526193D01*
X11075101Y-14526193D02*
X11065577Y-14564288D01*
X11065577Y-14564288D02*
X11056054Y-14583336D01*
X11056054Y-14583336D02*
X11046530Y-14592860D01*
X11046530Y-14592860D02*
X11027482Y-14602384D01*
X11027482Y-14602384D02*
X11008435Y-14602384D01*
X11008435Y-14602384D02*
X10989387Y-14592860D01*
X10989387Y-14592860D02*
X10979863Y-14583336D01*
X10979863Y-14583336D02*
X10970339Y-14564288D01*
X10970339Y-14564288D02*
X10960816Y-14526193D01*
X10960816Y-14526193D02*
X10960816Y-14478574D01*
X10960816Y-14478574D02*
X10970339Y-14440479D01*
X10970339Y-14440479D02*
X10979863Y-14421431D01*
X10979863Y-14421431D02*
X10989387Y-14411908D01*
X10989387Y-14411908D02*
X11008435Y-14402384D01*
X11198911Y-14402384D02*
X11217958Y-14402384D01*
X11217958Y-14402384D02*
X11237006Y-14411908D01*
X11237006Y-14411908D02*
X11246530Y-14421431D01*
X11246530Y-14421431D02*
X11256054Y-14440479D01*
X11256054Y-14440479D02*
X11265577Y-14478574D01*
X11265577Y-14478574D02*
X11265577Y-14526193D01*
X11265577Y-14526193D02*
X11256054Y-14564288D01*
X11256054Y-14564288D02*
X11246530Y-14583336D01*
X11246530Y-14583336D02*
X11237006Y-14592860D01*
X11237006Y-14592860D02*
X11217958Y-14602384D01*
X11217958Y-14602384D02*
X11198911Y-14602384D01*
X11198911Y-14602384D02*
X11179863Y-14592860D01*
X11179863Y-14592860D02*
X11170339Y-14583336D01*
X11170339Y-14583336D02*
X11160816Y-14564288D01*
X11160816Y-14564288D02*
X11151292Y-14526193D01*
X11151292Y-14526193D02*
X11151292Y-14478574D01*
X11151292Y-14478574D02*
X11160816Y-14440479D01*
X11160816Y-14440479D02*
X11170339Y-14421431D01*
X11170339Y-14421431D02*
X11179863Y-14411908D01*
X11179863Y-14411908D02*
X11198911Y-14402384D01*
X11351292Y-14602384D02*
X11351292Y-14469050D01*
X11351292Y-14488098D02*
X11360815Y-14478574D01*
X11360815Y-14478574D02*
X11379863Y-14469050D01*
X11379863Y-14469050D02*
X11408435Y-14469050D01*
X11408435Y-14469050D02*
X11427482Y-14478574D01*
X11427482Y-14478574D02*
X11437006Y-14497622D01*
X11437006Y-14497622D02*
X11437006Y-14602384D01*
X11437006Y-14497622D02*
X11446530Y-14478574D01*
X11446530Y-14478574D02*
X11465577Y-14469050D01*
X11465577Y-14469050D02*
X11494149Y-14469050D01*
X11494149Y-14469050D02*
X11513196Y-14478574D01*
X11513196Y-14478574D02*
X11522720Y-14497622D01*
X11522720Y-14497622D02*
X11522720Y-14602384D01*
X11617958Y-14602384D02*
X11617958Y-14469050D01*
X11617958Y-14488098D02*
X11627482Y-14478574D01*
X11627482Y-14478574D02*
X11646530Y-14469050D01*
X11646530Y-14469050D02*
X11675101Y-14469050D01*
X11675101Y-14469050D02*
X11694149Y-14478574D01*
X11694149Y-14478574D02*
X11703673Y-14497622D01*
X11703673Y-14497622D02*
X11703673Y-14602384D01*
X11703673Y-14497622D02*
X11713196Y-14478574D01*
X11713196Y-14478574D02*
X11732244Y-14469050D01*
X11732244Y-14469050D02*
X11760815Y-14469050D01*
X11760815Y-14469050D02*
X11779863Y-14478574D01*
X11779863Y-14478574D02*
X11789387Y-14497622D01*
X11789387Y-14497622D02*
X11789387Y-14602384D01*
X12179863Y-14392860D02*
X12008435Y-14650003D01*
X12437006Y-14402384D02*
X12456054Y-14402384D01*
X12456054Y-14402384D02*
X12475101Y-14411908D01*
X12475101Y-14411908D02*
X12484625Y-14421431D01*
X12484625Y-14421431D02*
X12494149Y-14440479D01*
X12494149Y-14440479D02*
X12503673Y-14478574D01*
X12503673Y-14478574D02*
X12503673Y-14526193D01*
X12503673Y-14526193D02*
X12494149Y-14564288D01*
X12494149Y-14564288D02*
X12484625Y-14583336D01*
X12484625Y-14583336D02*
X12475101Y-14592860D01*
X12475101Y-14592860D02*
X12456054Y-14602384D01*
X12456054Y-14602384D02*
X12437006Y-14602384D01*
X12437006Y-14602384D02*
X12417958Y-14592860D01*
X12417958Y-14592860D02*
X12408435Y-14583336D01*
X12408435Y-14583336D02*
X12398911Y-14564288D01*
X12398911Y-14564288D02*
X12389387Y-14526193D01*
X12389387Y-14526193D02*
X12389387Y-14478574D01*
X12389387Y-14478574D02*
X12398911Y-14440479D01*
X12398911Y-14440479D02*
X12408435Y-14421431D01*
X12408435Y-14421431D02*
X12417958Y-14411908D01*
X12417958Y-14411908D02*
X12437006Y-14402384D01*
X12589387Y-14583336D02*
X12598911Y-14592860D01*
X12598911Y-14592860D02*
X12589387Y-14602384D01*
X12589387Y-14602384D02*
X12579863Y-14592860D01*
X12579863Y-14592860D02*
X12589387Y-14583336D01*
X12589387Y-14583336D02*
X12589387Y-14602384D01*
X12722720Y-14402384D02*
X12741768Y-14402384D01*
X12741768Y-14402384D02*
X12760816Y-14411908D01*
X12760816Y-14411908D02*
X12770339Y-14421431D01*
X12770339Y-14421431D02*
X12779863Y-14440479D01*
X12779863Y-14440479D02*
X12789387Y-14478574D01*
X12789387Y-14478574D02*
X12789387Y-14526193D01*
X12789387Y-14526193D02*
X12779863Y-14564288D01*
X12779863Y-14564288D02*
X12770339Y-14583336D01*
X12770339Y-14583336D02*
X12760816Y-14592860D01*
X12760816Y-14592860D02*
X12741768Y-14602384D01*
X12741768Y-14602384D02*
X12722720Y-14602384D01*
X12722720Y-14602384D02*
X12703673Y-14592860D01*
X12703673Y-14592860D02*
X12694149Y-14583336D01*
X12694149Y-14583336D02*
X12684625Y-14564288D01*
X12684625Y-14564288D02*
X12675101Y-14526193D01*
X12675101Y-14526193D02*
X12675101Y-14478574D01*
X12675101Y-14478574D02*
X12684625Y-14440479D01*
X12684625Y-14440479D02*
X12694149Y-14421431D01*
X12694149Y-14421431D02*
X12703673Y-14411908D01*
X12703673Y-14411908D02*
X12722720Y-14402384D01*
X12979863Y-14602384D02*
X12865578Y-14602384D01*
X12922720Y-14602384D02*
X12922720Y-14402384D01*
X12922720Y-14402384D02*
X12903673Y-14430955D01*
X12903673Y-14430955D02*
X12884625Y-14450003D01*
X12884625Y-14450003D02*
X12865578Y-14459527D01*
X13170339Y-14602384D02*
X13056054Y-14602384D01*
X13113197Y-14602384D02*
X13113197Y-14402384D01*
X13113197Y-14402384D02*
X13094149Y-14430955D01*
X13094149Y-14430955D02*
X13075101Y-14450003D01*
X13075101Y-14450003D02*
X13056054Y-14459527D01*
X13284625Y-14488098D02*
X13265578Y-14478574D01*
X13265578Y-14478574D02*
X13256054Y-14469050D01*
X13256054Y-14469050D02*
X13246530Y-14450003D01*
X13246530Y-14450003D02*
X13246530Y-14440479D01*
X13246530Y-14440479D02*
X13256054Y-14421431D01*
X13256054Y-14421431D02*
X13265578Y-14411908D01*
X13265578Y-14411908D02*
X13284625Y-14402384D01*
X13284625Y-14402384D02*
X13322720Y-14402384D01*
X13322720Y-14402384D02*
X13341768Y-14411908D01*
X13341768Y-14411908D02*
X13351292Y-14421431D01*
X13351292Y-14421431D02*
X13360816Y-14440479D01*
X13360816Y-14440479D02*
X13360816Y-14450003D01*
X13360816Y-14450003D02*
X13351292Y-14469050D01*
X13351292Y-14469050D02*
X13341768Y-14478574D01*
X13341768Y-14478574D02*
X13322720Y-14488098D01*
X13322720Y-14488098D02*
X13284625Y-14488098D01*
X13284625Y-14488098D02*
X13265578Y-14497622D01*
X13265578Y-14497622D02*
X13256054Y-14507146D01*
X13256054Y-14507146D02*
X13246530Y-14526193D01*
X13246530Y-14526193D02*
X13246530Y-14564288D01*
X13246530Y-14564288D02*
X13256054Y-14583336D01*
X13256054Y-14583336D02*
X13265578Y-14592860D01*
X13265578Y-14592860D02*
X13284625Y-14602384D01*
X13284625Y-14602384D02*
X13322720Y-14602384D01*
X13322720Y-14602384D02*
X13341768Y-14592860D01*
X13341768Y-14592860D02*
X13351292Y-14583336D01*
X13351292Y-14583336D02*
X13360816Y-14564288D01*
X13360816Y-14564288D02*
X13360816Y-14526193D01*
X13360816Y-14526193D02*
X13351292Y-14507146D01*
X13351292Y-14507146D02*
X13341768Y-14497622D01*
X13341768Y-14497622D02*
X13322720Y-14488098D01*
X13437006Y-14402384D02*
X13437006Y-14440479D01*
X13513197Y-14402384D02*
X13513197Y-14440479D01*
X13808435Y-14678574D02*
X13798911Y-14669050D01*
X13798911Y-14669050D02*
X13779863Y-14640479D01*
X13779863Y-14640479D02*
X13770340Y-14621431D01*
X13770340Y-14621431D02*
X13760816Y-14592860D01*
X13760816Y-14592860D02*
X13751292Y-14545241D01*
X13751292Y-14545241D02*
X13751292Y-14507146D01*
X13751292Y-14507146D02*
X13760816Y-14459527D01*
X13760816Y-14459527D02*
X13770340Y-14430955D01*
X13770340Y-14430955D02*
X13779863Y-14411908D01*
X13779863Y-14411908D02*
X13798911Y-14383336D01*
X13798911Y-14383336D02*
X13808435Y-14373812D01*
X13865578Y-14402384D02*
X13989387Y-14402384D01*
X13989387Y-14402384D02*
X13922720Y-14478574D01*
X13922720Y-14478574D02*
X13951292Y-14478574D01*
X13951292Y-14478574D02*
X13970340Y-14488098D01*
X13970340Y-14488098D02*
X13979863Y-14497622D01*
X13979863Y-14497622D02*
X13989387Y-14516669D01*
X13989387Y-14516669D02*
X13989387Y-14564288D01*
X13989387Y-14564288D02*
X13979863Y-14583336D01*
X13979863Y-14583336D02*
X13970340Y-14592860D01*
X13970340Y-14592860D02*
X13951292Y-14602384D01*
X13951292Y-14602384D02*
X13894149Y-14602384D01*
X13894149Y-14602384D02*
X13875101Y-14592860D01*
X13875101Y-14592860D02*
X13865578Y-14583336D01*
X14160816Y-14402384D02*
X14122720Y-14402384D01*
X14122720Y-14402384D02*
X14103673Y-14411908D01*
X14103673Y-14411908D02*
X14094149Y-14421431D01*
X14094149Y-14421431D02*
X14075101Y-14450003D01*
X14075101Y-14450003D02*
X14065578Y-14488098D01*
X14065578Y-14488098D02*
X14065578Y-14564288D01*
X14065578Y-14564288D02*
X14075101Y-14583336D01*
X14075101Y-14583336D02*
X14084625Y-14592860D01*
X14084625Y-14592860D02*
X14103673Y-14602384D01*
X14103673Y-14602384D02*
X14141768Y-14602384D01*
X14141768Y-14602384D02*
X14160816Y-14592860D01*
X14160816Y-14592860D02*
X14170340Y-14583336D01*
X14170340Y-14583336D02*
X14179863Y-14564288D01*
X14179863Y-14564288D02*
X14179863Y-14516669D01*
X14179863Y-14516669D02*
X14170340Y-14497622D01*
X14170340Y-14497622D02*
X14160816Y-14488098D01*
X14160816Y-14488098D02*
X14141768Y-14478574D01*
X14141768Y-14478574D02*
X14103673Y-14478574D01*
X14103673Y-14478574D02*
X14084625Y-14488098D01*
X14084625Y-14488098D02*
X14075101Y-14497622D01*
X14075101Y-14497622D02*
X14065578Y-14516669D01*
X14417959Y-14602384D02*
X14417959Y-14402384D01*
X14503673Y-14602384D02*
X14503673Y-14497622D01*
X14503673Y-14497622D02*
X14494149Y-14478574D01*
X14494149Y-14478574D02*
X14475102Y-14469050D01*
X14475102Y-14469050D02*
X14446530Y-14469050D01*
X14446530Y-14469050D02*
X14427482Y-14478574D01*
X14427482Y-14478574D02*
X14417959Y-14488098D01*
X14627482Y-14602384D02*
X14608435Y-14592860D01*
X14608435Y-14592860D02*
X14598911Y-14583336D01*
X14598911Y-14583336D02*
X14589387Y-14564288D01*
X14589387Y-14564288D02*
X14589387Y-14507146D01*
X14589387Y-14507146D02*
X14598911Y-14488098D01*
X14598911Y-14488098D02*
X14608435Y-14478574D01*
X14608435Y-14478574D02*
X14627482Y-14469050D01*
X14627482Y-14469050D02*
X14656054Y-14469050D01*
X14656054Y-14469050D02*
X14675102Y-14478574D01*
X14675102Y-14478574D02*
X14684625Y-14488098D01*
X14684625Y-14488098D02*
X14694149Y-14507146D01*
X14694149Y-14507146D02*
X14694149Y-14564288D01*
X14694149Y-14564288D02*
X14684625Y-14583336D01*
X14684625Y-14583336D02*
X14675102Y-14592860D01*
X14675102Y-14592860D02*
X14656054Y-14602384D01*
X14656054Y-14602384D02*
X14627482Y-14602384D01*
X14808435Y-14602384D02*
X14789387Y-14592860D01*
X14789387Y-14592860D02*
X14779863Y-14573812D01*
X14779863Y-14573812D02*
X14779863Y-14402384D01*
X14960816Y-14592860D02*
X14941768Y-14602384D01*
X14941768Y-14602384D02*
X14903673Y-14602384D01*
X14903673Y-14602384D02*
X14884625Y-14592860D01*
X14884625Y-14592860D02*
X14875102Y-14573812D01*
X14875102Y-14573812D02*
X14875102Y-14497622D01*
X14875102Y-14497622D02*
X14884625Y-14478574D01*
X14884625Y-14478574D02*
X14903673Y-14469050D01*
X14903673Y-14469050D02*
X14941768Y-14469050D01*
X14941768Y-14469050D02*
X14960816Y-14478574D01*
X14960816Y-14478574D02*
X14970340Y-14497622D01*
X14970340Y-14497622D02*
X14970340Y-14516669D01*
X14970340Y-14516669D02*
X14875102Y-14535717D01*
X15046530Y-14592860D02*
X15065578Y-14602384D01*
X15065578Y-14602384D02*
X15103673Y-14602384D01*
X15103673Y-14602384D02*
X15122721Y-14592860D01*
X15122721Y-14592860D02*
X15132244Y-14573812D01*
X15132244Y-14573812D02*
X15132244Y-14564288D01*
X15132244Y-14564288D02*
X15122721Y-14545241D01*
X15122721Y-14545241D02*
X15103673Y-14535717D01*
X15103673Y-14535717D02*
X15075102Y-14535717D01*
X15075102Y-14535717D02*
X15056054Y-14526193D01*
X15056054Y-14526193D02*
X15046530Y-14507146D01*
X15046530Y-14507146D02*
X15046530Y-14497622D01*
X15046530Y-14497622D02*
X15056054Y-14478574D01*
X15056054Y-14478574D02*
X15075102Y-14469050D01*
X15075102Y-14469050D02*
X15103673Y-14469050D01*
X15103673Y-14469050D02*
X15122721Y-14478574D01*
X15198911Y-14678574D02*
X15208435Y-14669050D01*
X15208435Y-14669050D02*
X15227483Y-14640479D01*
X15227483Y-14640479D02*
X15237006Y-14621431D01*
X15237006Y-14621431D02*
X15246530Y-14592860D01*
X15246530Y-14592860D02*
X15256054Y-14545241D01*
X15256054Y-14545241D02*
X15256054Y-14507146D01*
X15256054Y-14507146D02*
X15246530Y-14459527D01*
X15246530Y-14459527D02*
X15237006Y-14430955D01*
X15237006Y-14430955D02*
X15227483Y-14411908D01*
X15227483Y-14411908D02*
X15208435Y-14383336D01*
X15208435Y-14383336D02*
X15198911Y-14373812D01*
D12*
X10233372Y-14774900D02*
G75*
G02*
X10193372Y-14774900I-20000J0D01*
G01*
X10193372Y-14774900D02*
G75*
G02*
X10233372Y-14774900I20000J0D01*
G01*
D11*
X10532244Y-14666384D02*
X10551292Y-14666384D01*
X10551292Y-14666384D02*
X10570339Y-14675908D01*
X10570339Y-14675908D02*
X10579863Y-14685431D01*
X10579863Y-14685431D02*
X10589387Y-14704479D01*
X10589387Y-14704479D02*
X10598911Y-14742574D01*
X10598911Y-14742574D02*
X10598911Y-14790193D01*
X10598911Y-14790193D02*
X10589387Y-14828288D01*
X10589387Y-14828288D02*
X10579863Y-14847336D01*
X10579863Y-14847336D02*
X10570339Y-14856860D01*
X10570339Y-14856860D02*
X10551292Y-14866384D01*
X10551292Y-14866384D02*
X10532244Y-14866384D01*
X10532244Y-14866384D02*
X10513196Y-14856860D01*
X10513196Y-14856860D02*
X10503673Y-14847336D01*
X10503673Y-14847336D02*
X10494149Y-14828288D01*
X10494149Y-14828288D02*
X10484625Y-14790193D01*
X10484625Y-14790193D02*
X10484625Y-14742574D01*
X10484625Y-14742574D02*
X10494149Y-14704479D01*
X10494149Y-14704479D02*
X10503673Y-14685431D01*
X10503673Y-14685431D02*
X10513196Y-14675908D01*
X10513196Y-14675908D02*
X10532244Y-14666384D01*
X10684625Y-14847336D02*
X10694149Y-14856860D01*
X10694149Y-14856860D02*
X10684625Y-14866384D01*
X10684625Y-14866384D02*
X10675101Y-14856860D01*
X10675101Y-14856860D02*
X10684625Y-14847336D01*
X10684625Y-14847336D02*
X10684625Y-14866384D01*
X10865577Y-14733050D02*
X10865577Y-14866384D01*
X10817958Y-14656860D02*
X10770339Y-14799717D01*
X10770339Y-14799717D02*
X10894149Y-14799717D01*
X11008435Y-14666384D02*
X11027482Y-14666384D01*
X11027482Y-14666384D02*
X11046530Y-14675908D01*
X11046530Y-14675908D02*
X11056054Y-14685431D01*
X11056054Y-14685431D02*
X11065577Y-14704479D01*
X11065577Y-14704479D02*
X11075101Y-14742574D01*
X11075101Y-14742574D02*
X11075101Y-14790193D01*
X11075101Y-14790193D02*
X11065577Y-14828288D01*
X11065577Y-14828288D02*
X11056054Y-14847336D01*
X11056054Y-14847336D02*
X11046530Y-14856860D01*
X11046530Y-14856860D02*
X11027482Y-14866384D01*
X11027482Y-14866384D02*
X11008435Y-14866384D01*
X11008435Y-14866384D02*
X10989387Y-14856860D01*
X10989387Y-14856860D02*
X10979863Y-14847336D01*
X10979863Y-14847336D02*
X10970339Y-14828288D01*
X10970339Y-14828288D02*
X10960816Y-14790193D01*
X10960816Y-14790193D02*
X10960816Y-14742574D01*
X10960816Y-14742574D02*
X10970339Y-14704479D01*
X10970339Y-14704479D02*
X10979863Y-14685431D01*
X10979863Y-14685431D02*
X10989387Y-14675908D01*
X10989387Y-14675908D02*
X11008435Y-14666384D01*
X11198911Y-14666384D02*
X11217958Y-14666384D01*
X11217958Y-14666384D02*
X11237006Y-14675908D01*
X11237006Y-14675908D02*
X11246530Y-14685431D01*
X11246530Y-14685431D02*
X11256054Y-14704479D01*
X11256054Y-14704479D02*
X11265577Y-14742574D01*
X11265577Y-14742574D02*
X11265577Y-14790193D01*
X11265577Y-14790193D02*
X11256054Y-14828288D01*
X11256054Y-14828288D02*
X11246530Y-14847336D01*
X11246530Y-14847336D02*
X11237006Y-14856860D01*
X11237006Y-14856860D02*
X11217958Y-14866384D01*
X11217958Y-14866384D02*
X11198911Y-14866384D01*
X11198911Y-14866384D02*
X11179863Y-14856860D01*
X11179863Y-14856860D02*
X11170339Y-14847336D01*
X11170339Y-14847336D02*
X11160816Y-14828288D01*
X11160816Y-14828288D02*
X11151292Y-14790193D01*
X11151292Y-14790193D02*
X11151292Y-14742574D01*
X11151292Y-14742574D02*
X11160816Y-14704479D01*
X11160816Y-14704479D02*
X11170339Y-14685431D01*
X11170339Y-14685431D02*
X11179863Y-14675908D01*
X11179863Y-14675908D02*
X11198911Y-14666384D01*
X11351292Y-14866384D02*
X11351292Y-14733050D01*
X11351292Y-14752098D02*
X11360815Y-14742574D01*
X11360815Y-14742574D02*
X11379863Y-14733050D01*
X11379863Y-14733050D02*
X11408435Y-14733050D01*
X11408435Y-14733050D02*
X11427482Y-14742574D01*
X11427482Y-14742574D02*
X11437006Y-14761622D01*
X11437006Y-14761622D02*
X11437006Y-14866384D01*
X11437006Y-14761622D02*
X11446530Y-14742574D01*
X11446530Y-14742574D02*
X11465577Y-14733050D01*
X11465577Y-14733050D02*
X11494149Y-14733050D01*
X11494149Y-14733050D02*
X11513196Y-14742574D01*
X11513196Y-14742574D02*
X11522720Y-14761622D01*
X11522720Y-14761622D02*
X11522720Y-14866384D01*
X11617958Y-14866384D02*
X11617958Y-14733050D01*
X11617958Y-14752098D02*
X11627482Y-14742574D01*
X11627482Y-14742574D02*
X11646530Y-14733050D01*
X11646530Y-14733050D02*
X11675101Y-14733050D01*
X11675101Y-14733050D02*
X11694149Y-14742574D01*
X11694149Y-14742574D02*
X11703673Y-14761622D01*
X11703673Y-14761622D02*
X11703673Y-14866384D01*
X11703673Y-14761622D02*
X11713196Y-14742574D01*
X11713196Y-14742574D02*
X11732244Y-14733050D01*
X11732244Y-14733050D02*
X11760815Y-14733050D01*
X11760815Y-14733050D02*
X11779863Y-14742574D01*
X11779863Y-14742574D02*
X11789387Y-14761622D01*
X11789387Y-14761622D02*
X11789387Y-14866384D01*
X12179863Y-14656860D02*
X12008435Y-14914003D01*
X12437006Y-14666384D02*
X12456054Y-14666384D01*
X12456054Y-14666384D02*
X12475101Y-14675908D01*
X12475101Y-14675908D02*
X12484625Y-14685431D01*
X12484625Y-14685431D02*
X12494149Y-14704479D01*
X12494149Y-14704479D02*
X12503673Y-14742574D01*
X12503673Y-14742574D02*
X12503673Y-14790193D01*
X12503673Y-14790193D02*
X12494149Y-14828288D01*
X12494149Y-14828288D02*
X12484625Y-14847336D01*
X12484625Y-14847336D02*
X12475101Y-14856860D01*
X12475101Y-14856860D02*
X12456054Y-14866384D01*
X12456054Y-14866384D02*
X12437006Y-14866384D01*
X12437006Y-14866384D02*
X12417958Y-14856860D01*
X12417958Y-14856860D02*
X12408435Y-14847336D01*
X12408435Y-14847336D02*
X12398911Y-14828288D01*
X12398911Y-14828288D02*
X12389387Y-14790193D01*
X12389387Y-14790193D02*
X12389387Y-14742574D01*
X12389387Y-14742574D02*
X12398911Y-14704479D01*
X12398911Y-14704479D02*
X12408435Y-14685431D01*
X12408435Y-14685431D02*
X12417958Y-14675908D01*
X12417958Y-14675908D02*
X12437006Y-14666384D01*
X12589387Y-14847336D02*
X12598911Y-14856860D01*
X12598911Y-14856860D02*
X12589387Y-14866384D01*
X12589387Y-14866384D02*
X12579863Y-14856860D01*
X12579863Y-14856860D02*
X12589387Y-14847336D01*
X12589387Y-14847336D02*
X12589387Y-14866384D01*
X12722720Y-14666384D02*
X12741768Y-14666384D01*
X12741768Y-14666384D02*
X12760816Y-14675908D01*
X12760816Y-14675908D02*
X12770339Y-14685431D01*
X12770339Y-14685431D02*
X12779863Y-14704479D01*
X12779863Y-14704479D02*
X12789387Y-14742574D01*
X12789387Y-14742574D02*
X12789387Y-14790193D01*
X12789387Y-14790193D02*
X12779863Y-14828288D01*
X12779863Y-14828288D02*
X12770339Y-14847336D01*
X12770339Y-14847336D02*
X12760816Y-14856860D01*
X12760816Y-14856860D02*
X12741768Y-14866384D01*
X12741768Y-14866384D02*
X12722720Y-14866384D01*
X12722720Y-14866384D02*
X12703673Y-14856860D01*
X12703673Y-14856860D02*
X12694149Y-14847336D01*
X12694149Y-14847336D02*
X12684625Y-14828288D01*
X12684625Y-14828288D02*
X12675101Y-14790193D01*
X12675101Y-14790193D02*
X12675101Y-14742574D01*
X12675101Y-14742574D02*
X12684625Y-14704479D01*
X12684625Y-14704479D02*
X12694149Y-14685431D01*
X12694149Y-14685431D02*
X12703673Y-14675908D01*
X12703673Y-14675908D02*
X12722720Y-14666384D01*
X12979863Y-14866384D02*
X12865578Y-14866384D01*
X12922720Y-14866384D02*
X12922720Y-14666384D01*
X12922720Y-14666384D02*
X12903673Y-14694955D01*
X12903673Y-14694955D02*
X12884625Y-14714003D01*
X12884625Y-14714003D02*
X12865578Y-14723527D01*
X13160816Y-14666384D02*
X13065578Y-14666384D01*
X13065578Y-14666384D02*
X13056054Y-14761622D01*
X13056054Y-14761622D02*
X13065578Y-14752098D01*
X13065578Y-14752098D02*
X13084625Y-14742574D01*
X13084625Y-14742574D02*
X13132244Y-14742574D01*
X13132244Y-14742574D02*
X13151292Y-14752098D01*
X13151292Y-14752098D02*
X13160816Y-14761622D01*
X13160816Y-14761622D02*
X13170339Y-14780669D01*
X13170339Y-14780669D02*
X13170339Y-14828288D01*
X13170339Y-14828288D02*
X13160816Y-14847336D01*
X13160816Y-14847336D02*
X13151292Y-14856860D01*
X13151292Y-14856860D02*
X13132244Y-14866384D01*
X13132244Y-14866384D02*
X13084625Y-14866384D01*
X13084625Y-14866384D02*
X13065578Y-14856860D01*
X13065578Y-14856860D02*
X13056054Y-14847336D01*
X13237006Y-14666384D02*
X13370339Y-14666384D01*
X13370339Y-14666384D02*
X13284625Y-14866384D01*
X13437006Y-14666384D02*
X13437006Y-14704479D01*
X13513197Y-14666384D02*
X13513197Y-14704479D01*
X13808435Y-14942574D02*
X13798911Y-14933050D01*
X13798911Y-14933050D02*
X13779863Y-14904479D01*
X13779863Y-14904479D02*
X13770340Y-14885431D01*
X13770340Y-14885431D02*
X13760816Y-14856860D01*
X13760816Y-14856860D02*
X13751292Y-14809241D01*
X13751292Y-14809241D02*
X13751292Y-14771146D01*
X13751292Y-14771146D02*
X13760816Y-14723527D01*
X13760816Y-14723527D02*
X13770340Y-14694955D01*
X13770340Y-14694955D02*
X13779863Y-14675908D01*
X13779863Y-14675908D02*
X13798911Y-14647336D01*
X13798911Y-14647336D02*
X13808435Y-14637812D01*
X13970340Y-14733050D02*
X13970340Y-14866384D01*
X13922720Y-14656860D02*
X13875101Y-14799717D01*
X13875101Y-14799717D02*
X13998911Y-14799717D01*
X14103673Y-14752098D02*
X14084625Y-14742574D01*
X14084625Y-14742574D02*
X14075101Y-14733050D01*
X14075101Y-14733050D02*
X14065578Y-14714003D01*
X14065578Y-14714003D02*
X14065578Y-14704479D01*
X14065578Y-14704479D02*
X14075101Y-14685431D01*
X14075101Y-14685431D02*
X14084625Y-14675908D01*
X14084625Y-14675908D02*
X14103673Y-14666384D01*
X14103673Y-14666384D02*
X14141768Y-14666384D01*
X14141768Y-14666384D02*
X14160816Y-14675908D01*
X14160816Y-14675908D02*
X14170340Y-14685431D01*
X14170340Y-14685431D02*
X14179863Y-14704479D01*
X14179863Y-14704479D02*
X14179863Y-14714003D01*
X14179863Y-14714003D02*
X14170340Y-14733050D01*
X14170340Y-14733050D02*
X14160816Y-14742574D01*
X14160816Y-14742574D02*
X14141768Y-14752098D01*
X14141768Y-14752098D02*
X14103673Y-14752098D01*
X14103673Y-14752098D02*
X14084625Y-14761622D01*
X14084625Y-14761622D02*
X14075101Y-14771146D01*
X14075101Y-14771146D02*
X14065578Y-14790193D01*
X14065578Y-14790193D02*
X14065578Y-14828288D01*
X14065578Y-14828288D02*
X14075101Y-14847336D01*
X14075101Y-14847336D02*
X14084625Y-14856860D01*
X14084625Y-14856860D02*
X14103673Y-14866384D01*
X14103673Y-14866384D02*
X14141768Y-14866384D01*
X14141768Y-14866384D02*
X14160816Y-14856860D01*
X14160816Y-14856860D02*
X14170340Y-14847336D01*
X14170340Y-14847336D02*
X14179863Y-14828288D01*
X14179863Y-14828288D02*
X14179863Y-14790193D01*
X14179863Y-14790193D02*
X14170340Y-14771146D01*
X14170340Y-14771146D02*
X14160816Y-14761622D01*
X14160816Y-14761622D02*
X14141768Y-14752098D01*
X14417959Y-14866384D02*
X14417959Y-14666384D01*
X14503673Y-14866384D02*
X14503673Y-14761622D01*
X14503673Y-14761622D02*
X14494149Y-14742574D01*
X14494149Y-14742574D02*
X14475102Y-14733050D01*
X14475102Y-14733050D02*
X14446530Y-14733050D01*
X14446530Y-14733050D02*
X14427482Y-14742574D01*
X14427482Y-14742574D02*
X14417959Y-14752098D01*
X14627482Y-14866384D02*
X14608435Y-14856860D01*
X14608435Y-14856860D02*
X14598911Y-14847336D01*
X14598911Y-14847336D02*
X14589387Y-14828288D01*
X14589387Y-14828288D02*
X14589387Y-14771146D01*
X14589387Y-14771146D02*
X14598911Y-14752098D01*
X14598911Y-14752098D02*
X14608435Y-14742574D01*
X14608435Y-14742574D02*
X14627482Y-14733050D01*
X14627482Y-14733050D02*
X14656054Y-14733050D01*
X14656054Y-14733050D02*
X14675102Y-14742574D01*
X14675102Y-14742574D02*
X14684625Y-14752098D01*
X14684625Y-14752098D02*
X14694149Y-14771146D01*
X14694149Y-14771146D02*
X14694149Y-14828288D01*
X14694149Y-14828288D02*
X14684625Y-14847336D01*
X14684625Y-14847336D02*
X14675102Y-14856860D01*
X14675102Y-14856860D02*
X14656054Y-14866384D01*
X14656054Y-14866384D02*
X14627482Y-14866384D01*
X14808435Y-14866384D02*
X14789387Y-14856860D01*
X14789387Y-14856860D02*
X14779863Y-14837812D01*
X14779863Y-14837812D02*
X14779863Y-14666384D01*
X14960816Y-14856860D02*
X14941768Y-14866384D01*
X14941768Y-14866384D02*
X14903673Y-14866384D01*
X14903673Y-14866384D02*
X14884625Y-14856860D01*
X14884625Y-14856860D02*
X14875102Y-14837812D01*
X14875102Y-14837812D02*
X14875102Y-14761622D01*
X14875102Y-14761622D02*
X14884625Y-14742574D01*
X14884625Y-14742574D02*
X14903673Y-14733050D01*
X14903673Y-14733050D02*
X14941768Y-14733050D01*
X14941768Y-14733050D02*
X14960816Y-14742574D01*
X14960816Y-14742574D02*
X14970340Y-14761622D01*
X14970340Y-14761622D02*
X14970340Y-14780669D01*
X14970340Y-14780669D02*
X14875102Y-14799717D01*
X15046530Y-14856860D02*
X15065578Y-14866384D01*
X15065578Y-14866384D02*
X15103673Y-14866384D01*
X15103673Y-14866384D02*
X15122721Y-14856860D01*
X15122721Y-14856860D02*
X15132244Y-14837812D01*
X15132244Y-14837812D02*
X15132244Y-14828288D01*
X15132244Y-14828288D02*
X15122721Y-14809241D01*
X15122721Y-14809241D02*
X15103673Y-14799717D01*
X15103673Y-14799717D02*
X15075102Y-14799717D01*
X15075102Y-14799717D02*
X15056054Y-14790193D01*
X15056054Y-14790193D02*
X15046530Y-14771146D01*
X15046530Y-14771146D02*
X15046530Y-14761622D01*
X15046530Y-14761622D02*
X15056054Y-14742574D01*
X15056054Y-14742574D02*
X15075102Y-14733050D01*
X15075102Y-14733050D02*
X15103673Y-14733050D01*
X15103673Y-14733050D02*
X15122721Y-14742574D01*
X15198911Y-14942574D02*
X15208435Y-14933050D01*
X15208435Y-14933050D02*
X15227483Y-14904479D01*
X15227483Y-14904479D02*
X15237006Y-14885431D01*
X15237006Y-14885431D02*
X15246530Y-14856860D01*
X15246530Y-14856860D02*
X15256054Y-14809241D01*
X15256054Y-14809241D02*
X15256054Y-14771146D01*
X15256054Y-14771146D02*
X15246530Y-14723527D01*
X15246530Y-14723527D02*
X15237006Y-14694955D01*
X15237006Y-14694955D02*
X15227483Y-14675908D01*
X15227483Y-14675908D02*
X15208435Y-14647336D01*
X15208435Y-14647336D02*
X15198911Y-14637812D01*
D12*
X10193372Y-14998900D02*
X10193372Y-15078900D01*
X10153372Y-15038900D02*
X10233372Y-15038900D01*
D11*
X10532244Y-14930384D02*
X10551292Y-14930384D01*
X10551292Y-14930384D02*
X10570339Y-14939908D01*
X10570339Y-14939908D02*
X10579863Y-14949431D01*
X10579863Y-14949431D02*
X10589387Y-14968479D01*
X10589387Y-14968479D02*
X10598911Y-15006574D01*
X10598911Y-15006574D02*
X10598911Y-15054193D01*
X10598911Y-15054193D02*
X10589387Y-15092288D01*
X10589387Y-15092288D02*
X10579863Y-15111336D01*
X10579863Y-15111336D02*
X10570339Y-15120860D01*
X10570339Y-15120860D02*
X10551292Y-15130384D01*
X10551292Y-15130384D02*
X10532244Y-15130384D01*
X10532244Y-15130384D02*
X10513196Y-15120860D01*
X10513196Y-15120860D02*
X10503673Y-15111336D01*
X10503673Y-15111336D02*
X10494149Y-15092288D01*
X10494149Y-15092288D02*
X10484625Y-15054193D01*
X10484625Y-15054193D02*
X10484625Y-15006574D01*
X10484625Y-15006574D02*
X10494149Y-14968479D01*
X10494149Y-14968479D02*
X10503673Y-14949431D01*
X10503673Y-14949431D02*
X10513196Y-14939908D01*
X10513196Y-14939908D02*
X10532244Y-14930384D01*
X10684625Y-15111336D02*
X10694149Y-15120860D01*
X10694149Y-15120860D02*
X10684625Y-15130384D01*
X10684625Y-15130384D02*
X10675101Y-15120860D01*
X10675101Y-15120860D02*
X10684625Y-15111336D01*
X10684625Y-15111336D02*
X10684625Y-15130384D01*
X10808435Y-15016098D02*
X10789387Y-15006574D01*
X10789387Y-15006574D02*
X10779863Y-14997050D01*
X10779863Y-14997050D02*
X10770339Y-14978003D01*
X10770339Y-14978003D02*
X10770339Y-14968479D01*
X10770339Y-14968479D02*
X10779863Y-14949431D01*
X10779863Y-14949431D02*
X10789387Y-14939908D01*
X10789387Y-14939908D02*
X10808435Y-14930384D01*
X10808435Y-14930384D02*
X10846530Y-14930384D01*
X10846530Y-14930384D02*
X10865577Y-14939908D01*
X10865577Y-14939908D02*
X10875101Y-14949431D01*
X10875101Y-14949431D02*
X10884625Y-14968479D01*
X10884625Y-14968479D02*
X10884625Y-14978003D01*
X10884625Y-14978003D02*
X10875101Y-14997050D01*
X10875101Y-14997050D02*
X10865577Y-15006574D01*
X10865577Y-15006574D02*
X10846530Y-15016098D01*
X10846530Y-15016098D02*
X10808435Y-15016098D01*
X10808435Y-15016098D02*
X10789387Y-15025622D01*
X10789387Y-15025622D02*
X10779863Y-15035146D01*
X10779863Y-15035146D02*
X10770339Y-15054193D01*
X10770339Y-15054193D02*
X10770339Y-15092288D01*
X10770339Y-15092288D02*
X10779863Y-15111336D01*
X10779863Y-15111336D02*
X10789387Y-15120860D01*
X10789387Y-15120860D02*
X10808435Y-15130384D01*
X10808435Y-15130384D02*
X10846530Y-15130384D01*
X10846530Y-15130384D02*
X10865577Y-15120860D01*
X10865577Y-15120860D02*
X10875101Y-15111336D01*
X10875101Y-15111336D02*
X10884625Y-15092288D01*
X10884625Y-15092288D02*
X10884625Y-15054193D01*
X10884625Y-15054193D02*
X10875101Y-15035146D01*
X10875101Y-15035146D02*
X10865577Y-15025622D01*
X10865577Y-15025622D02*
X10846530Y-15016098D01*
X11008435Y-14930384D02*
X11027482Y-14930384D01*
X11027482Y-14930384D02*
X11046530Y-14939908D01*
X11046530Y-14939908D02*
X11056054Y-14949431D01*
X11056054Y-14949431D02*
X11065577Y-14968479D01*
X11065577Y-14968479D02*
X11075101Y-15006574D01*
X11075101Y-15006574D02*
X11075101Y-15054193D01*
X11075101Y-15054193D02*
X11065577Y-15092288D01*
X11065577Y-15092288D02*
X11056054Y-15111336D01*
X11056054Y-15111336D02*
X11046530Y-15120860D01*
X11046530Y-15120860D02*
X11027482Y-15130384D01*
X11027482Y-15130384D02*
X11008435Y-15130384D01*
X11008435Y-15130384D02*
X10989387Y-15120860D01*
X10989387Y-15120860D02*
X10979863Y-15111336D01*
X10979863Y-15111336D02*
X10970339Y-15092288D01*
X10970339Y-15092288D02*
X10960816Y-15054193D01*
X10960816Y-15054193D02*
X10960816Y-15006574D01*
X10960816Y-15006574D02*
X10970339Y-14968479D01*
X10970339Y-14968479D02*
X10979863Y-14949431D01*
X10979863Y-14949431D02*
X10989387Y-14939908D01*
X10989387Y-14939908D02*
X11008435Y-14930384D01*
X11198911Y-14930384D02*
X11217958Y-14930384D01*
X11217958Y-14930384D02*
X11237006Y-14939908D01*
X11237006Y-14939908D02*
X11246530Y-14949431D01*
X11246530Y-14949431D02*
X11256054Y-14968479D01*
X11256054Y-14968479D02*
X11265577Y-15006574D01*
X11265577Y-15006574D02*
X11265577Y-15054193D01*
X11265577Y-15054193D02*
X11256054Y-15092288D01*
X11256054Y-15092288D02*
X11246530Y-15111336D01*
X11246530Y-15111336D02*
X11237006Y-15120860D01*
X11237006Y-15120860D02*
X11217958Y-15130384D01*
X11217958Y-15130384D02*
X11198911Y-15130384D01*
X11198911Y-15130384D02*
X11179863Y-15120860D01*
X11179863Y-15120860D02*
X11170339Y-15111336D01*
X11170339Y-15111336D02*
X11160816Y-15092288D01*
X11160816Y-15092288D02*
X11151292Y-15054193D01*
X11151292Y-15054193D02*
X11151292Y-15006574D01*
X11151292Y-15006574D02*
X11160816Y-14968479D01*
X11160816Y-14968479D02*
X11170339Y-14949431D01*
X11170339Y-14949431D02*
X11179863Y-14939908D01*
X11179863Y-14939908D02*
X11198911Y-14930384D01*
X11351292Y-15130384D02*
X11351292Y-14997050D01*
X11351292Y-15016098D02*
X11360815Y-15006574D01*
X11360815Y-15006574D02*
X11379863Y-14997050D01*
X11379863Y-14997050D02*
X11408435Y-14997050D01*
X11408435Y-14997050D02*
X11427482Y-15006574D01*
X11427482Y-15006574D02*
X11437006Y-15025622D01*
X11437006Y-15025622D02*
X11437006Y-15130384D01*
X11437006Y-15025622D02*
X11446530Y-15006574D01*
X11446530Y-15006574D02*
X11465577Y-14997050D01*
X11465577Y-14997050D02*
X11494149Y-14997050D01*
X11494149Y-14997050D02*
X11513196Y-15006574D01*
X11513196Y-15006574D02*
X11522720Y-15025622D01*
X11522720Y-15025622D02*
X11522720Y-15130384D01*
X11617958Y-15130384D02*
X11617958Y-14997050D01*
X11617958Y-15016098D02*
X11627482Y-15006574D01*
X11627482Y-15006574D02*
X11646530Y-14997050D01*
X11646530Y-14997050D02*
X11675101Y-14997050D01*
X11675101Y-14997050D02*
X11694149Y-15006574D01*
X11694149Y-15006574D02*
X11703673Y-15025622D01*
X11703673Y-15025622D02*
X11703673Y-15130384D01*
X11703673Y-15025622D02*
X11713196Y-15006574D01*
X11713196Y-15006574D02*
X11732244Y-14997050D01*
X11732244Y-14997050D02*
X11760815Y-14997050D01*
X11760815Y-14997050D02*
X11779863Y-15006574D01*
X11779863Y-15006574D02*
X11789387Y-15025622D01*
X11789387Y-15025622D02*
X11789387Y-15130384D01*
X12179863Y-14920860D02*
X12008435Y-15178003D01*
X12437006Y-14930384D02*
X12456054Y-14930384D01*
X12456054Y-14930384D02*
X12475101Y-14939908D01*
X12475101Y-14939908D02*
X12484625Y-14949431D01*
X12484625Y-14949431D02*
X12494149Y-14968479D01*
X12494149Y-14968479D02*
X12503673Y-15006574D01*
X12503673Y-15006574D02*
X12503673Y-15054193D01*
X12503673Y-15054193D02*
X12494149Y-15092288D01*
X12494149Y-15092288D02*
X12484625Y-15111336D01*
X12484625Y-15111336D02*
X12475101Y-15120860D01*
X12475101Y-15120860D02*
X12456054Y-15130384D01*
X12456054Y-15130384D02*
X12437006Y-15130384D01*
X12437006Y-15130384D02*
X12417958Y-15120860D01*
X12417958Y-15120860D02*
X12408435Y-15111336D01*
X12408435Y-15111336D02*
X12398911Y-15092288D01*
X12398911Y-15092288D02*
X12389387Y-15054193D01*
X12389387Y-15054193D02*
X12389387Y-15006574D01*
X12389387Y-15006574D02*
X12398911Y-14968479D01*
X12398911Y-14968479D02*
X12408435Y-14949431D01*
X12408435Y-14949431D02*
X12417958Y-14939908D01*
X12417958Y-14939908D02*
X12437006Y-14930384D01*
X12589387Y-15111336D02*
X12598911Y-15120860D01*
X12598911Y-15120860D02*
X12589387Y-15130384D01*
X12589387Y-15130384D02*
X12579863Y-15120860D01*
X12579863Y-15120860D02*
X12589387Y-15111336D01*
X12589387Y-15111336D02*
X12589387Y-15130384D01*
X12722720Y-14930384D02*
X12741768Y-14930384D01*
X12741768Y-14930384D02*
X12760816Y-14939908D01*
X12760816Y-14939908D02*
X12770339Y-14949431D01*
X12770339Y-14949431D02*
X12779863Y-14968479D01*
X12779863Y-14968479D02*
X12789387Y-15006574D01*
X12789387Y-15006574D02*
X12789387Y-15054193D01*
X12789387Y-15054193D02*
X12779863Y-15092288D01*
X12779863Y-15092288D02*
X12770339Y-15111336D01*
X12770339Y-15111336D02*
X12760816Y-15120860D01*
X12760816Y-15120860D02*
X12741768Y-15130384D01*
X12741768Y-15130384D02*
X12722720Y-15130384D01*
X12722720Y-15130384D02*
X12703673Y-15120860D01*
X12703673Y-15120860D02*
X12694149Y-15111336D01*
X12694149Y-15111336D02*
X12684625Y-15092288D01*
X12684625Y-15092288D02*
X12675101Y-15054193D01*
X12675101Y-15054193D02*
X12675101Y-15006574D01*
X12675101Y-15006574D02*
X12684625Y-14968479D01*
X12684625Y-14968479D02*
X12694149Y-14949431D01*
X12694149Y-14949431D02*
X12703673Y-14939908D01*
X12703673Y-14939908D02*
X12722720Y-14930384D01*
X12856054Y-14930384D02*
X12979863Y-14930384D01*
X12979863Y-14930384D02*
X12913197Y-15006574D01*
X12913197Y-15006574D02*
X12941768Y-15006574D01*
X12941768Y-15006574D02*
X12960816Y-15016098D01*
X12960816Y-15016098D02*
X12970339Y-15025622D01*
X12970339Y-15025622D02*
X12979863Y-15044669D01*
X12979863Y-15044669D02*
X12979863Y-15092288D01*
X12979863Y-15092288D02*
X12970339Y-15111336D01*
X12970339Y-15111336D02*
X12960816Y-15120860D01*
X12960816Y-15120860D02*
X12941768Y-15130384D01*
X12941768Y-15130384D02*
X12884625Y-15130384D01*
X12884625Y-15130384D02*
X12865578Y-15120860D01*
X12865578Y-15120860D02*
X12856054Y-15111336D01*
X13170339Y-15130384D02*
X13056054Y-15130384D01*
X13113197Y-15130384D02*
X13113197Y-14930384D01*
X13113197Y-14930384D02*
X13094149Y-14958955D01*
X13094149Y-14958955D02*
X13075101Y-14978003D01*
X13075101Y-14978003D02*
X13056054Y-14987527D01*
X13351292Y-14930384D02*
X13256054Y-14930384D01*
X13256054Y-14930384D02*
X13246530Y-15025622D01*
X13246530Y-15025622D02*
X13256054Y-15016098D01*
X13256054Y-15016098D02*
X13275101Y-15006574D01*
X13275101Y-15006574D02*
X13322720Y-15006574D01*
X13322720Y-15006574D02*
X13341768Y-15016098D01*
X13341768Y-15016098D02*
X13351292Y-15025622D01*
X13351292Y-15025622D02*
X13360816Y-15044669D01*
X13360816Y-15044669D02*
X13360816Y-15092288D01*
X13360816Y-15092288D02*
X13351292Y-15111336D01*
X13351292Y-15111336D02*
X13341768Y-15120860D01*
X13341768Y-15120860D02*
X13322720Y-15130384D01*
X13322720Y-15130384D02*
X13275101Y-15130384D01*
X13275101Y-15130384D02*
X13256054Y-15120860D01*
X13256054Y-15120860D02*
X13246530Y-15111336D01*
X13437006Y-14930384D02*
X13437006Y-14968479D01*
X13513197Y-14930384D02*
X13513197Y-14968479D01*
X13808435Y-15206574D02*
X13798911Y-15197050D01*
X13798911Y-15197050D02*
X13779863Y-15168479D01*
X13779863Y-15168479D02*
X13770340Y-15149431D01*
X13770340Y-15149431D02*
X13760816Y-15120860D01*
X13760816Y-15120860D02*
X13751292Y-15073241D01*
X13751292Y-15073241D02*
X13751292Y-15035146D01*
X13751292Y-15035146D02*
X13760816Y-14987527D01*
X13760816Y-14987527D02*
X13770340Y-14958955D01*
X13770340Y-14958955D02*
X13779863Y-14939908D01*
X13779863Y-14939908D02*
X13798911Y-14911336D01*
X13798911Y-14911336D02*
X13808435Y-14901812D01*
X13989387Y-15130384D02*
X13875101Y-15130384D01*
X13932244Y-15130384D02*
X13932244Y-14930384D01*
X13932244Y-14930384D02*
X13913197Y-14958955D01*
X13913197Y-14958955D02*
X13894149Y-14978003D01*
X13894149Y-14978003D02*
X13875101Y-14987527D01*
X14103673Y-15016098D02*
X14084625Y-15006574D01*
X14084625Y-15006574D02*
X14075101Y-14997050D01*
X14075101Y-14997050D02*
X14065578Y-14978003D01*
X14065578Y-14978003D02*
X14065578Y-14968479D01*
X14065578Y-14968479D02*
X14075101Y-14949431D01*
X14075101Y-14949431D02*
X14084625Y-14939908D01*
X14084625Y-14939908D02*
X14103673Y-14930384D01*
X14103673Y-14930384D02*
X14141768Y-14930384D01*
X14141768Y-14930384D02*
X14160816Y-14939908D01*
X14160816Y-14939908D02*
X14170340Y-14949431D01*
X14170340Y-14949431D02*
X14179863Y-14968479D01*
X14179863Y-14968479D02*
X14179863Y-14978003D01*
X14179863Y-14978003D02*
X14170340Y-14997050D01*
X14170340Y-14997050D02*
X14160816Y-15006574D01*
X14160816Y-15006574D02*
X14141768Y-15016098D01*
X14141768Y-15016098D02*
X14103673Y-15016098D01*
X14103673Y-15016098D02*
X14084625Y-15025622D01*
X14084625Y-15025622D02*
X14075101Y-15035146D01*
X14075101Y-15035146D02*
X14065578Y-15054193D01*
X14065578Y-15054193D02*
X14065578Y-15092288D01*
X14065578Y-15092288D02*
X14075101Y-15111336D01*
X14075101Y-15111336D02*
X14084625Y-15120860D01*
X14084625Y-15120860D02*
X14103673Y-15130384D01*
X14103673Y-15130384D02*
X14141768Y-15130384D01*
X14141768Y-15130384D02*
X14160816Y-15120860D01*
X14160816Y-15120860D02*
X14170340Y-15111336D01*
X14170340Y-15111336D02*
X14179863Y-15092288D01*
X14179863Y-15092288D02*
X14179863Y-15054193D01*
X14179863Y-15054193D02*
X14170340Y-15035146D01*
X14170340Y-15035146D02*
X14160816Y-15025622D01*
X14160816Y-15025622D02*
X14141768Y-15016098D01*
X14417959Y-15130384D02*
X14417959Y-14930384D01*
X14503673Y-15130384D02*
X14503673Y-15025622D01*
X14503673Y-15025622D02*
X14494149Y-15006574D01*
X14494149Y-15006574D02*
X14475102Y-14997050D01*
X14475102Y-14997050D02*
X14446530Y-14997050D01*
X14446530Y-14997050D02*
X14427482Y-15006574D01*
X14427482Y-15006574D02*
X14417959Y-15016098D01*
X14627482Y-15130384D02*
X14608435Y-15120860D01*
X14608435Y-15120860D02*
X14598911Y-15111336D01*
X14598911Y-15111336D02*
X14589387Y-15092288D01*
X14589387Y-15092288D02*
X14589387Y-15035146D01*
X14589387Y-15035146D02*
X14598911Y-15016098D01*
X14598911Y-15016098D02*
X14608435Y-15006574D01*
X14608435Y-15006574D02*
X14627482Y-14997050D01*
X14627482Y-14997050D02*
X14656054Y-14997050D01*
X14656054Y-14997050D02*
X14675102Y-15006574D01*
X14675102Y-15006574D02*
X14684625Y-15016098D01*
X14684625Y-15016098D02*
X14694149Y-15035146D01*
X14694149Y-15035146D02*
X14694149Y-15092288D01*
X14694149Y-15092288D02*
X14684625Y-15111336D01*
X14684625Y-15111336D02*
X14675102Y-15120860D01*
X14675102Y-15120860D02*
X14656054Y-15130384D01*
X14656054Y-15130384D02*
X14627482Y-15130384D01*
X14808435Y-15130384D02*
X14789387Y-15120860D01*
X14789387Y-15120860D02*
X14779863Y-15101812D01*
X14779863Y-15101812D02*
X14779863Y-14930384D01*
X14960816Y-15120860D02*
X14941768Y-15130384D01*
X14941768Y-15130384D02*
X14903673Y-15130384D01*
X14903673Y-15130384D02*
X14884625Y-15120860D01*
X14884625Y-15120860D02*
X14875102Y-15101812D01*
X14875102Y-15101812D02*
X14875102Y-15025622D01*
X14875102Y-15025622D02*
X14884625Y-15006574D01*
X14884625Y-15006574D02*
X14903673Y-14997050D01*
X14903673Y-14997050D02*
X14941768Y-14997050D01*
X14941768Y-14997050D02*
X14960816Y-15006574D01*
X14960816Y-15006574D02*
X14970340Y-15025622D01*
X14970340Y-15025622D02*
X14970340Y-15044669D01*
X14970340Y-15044669D02*
X14875102Y-15063717D01*
X15046530Y-15120860D02*
X15065578Y-15130384D01*
X15065578Y-15130384D02*
X15103673Y-15130384D01*
X15103673Y-15130384D02*
X15122721Y-15120860D01*
X15122721Y-15120860D02*
X15132244Y-15101812D01*
X15132244Y-15101812D02*
X15132244Y-15092288D01*
X15132244Y-15092288D02*
X15122721Y-15073241D01*
X15122721Y-15073241D02*
X15103673Y-15063717D01*
X15103673Y-15063717D02*
X15075102Y-15063717D01*
X15075102Y-15063717D02*
X15056054Y-15054193D01*
X15056054Y-15054193D02*
X15046530Y-15035146D01*
X15046530Y-15035146D02*
X15046530Y-15025622D01*
X15046530Y-15025622D02*
X15056054Y-15006574D01*
X15056054Y-15006574D02*
X15075102Y-14997050D01*
X15075102Y-14997050D02*
X15103673Y-14997050D01*
X15103673Y-14997050D02*
X15122721Y-15006574D01*
X15198911Y-15206574D02*
X15208435Y-15197050D01*
X15208435Y-15197050D02*
X15227483Y-15168479D01*
X15227483Y-15168479D02*
X15237006Y-15149431D01*
X15237006Y-15149431D02*
X15246530Y-15120860D01*
X15246530Y-15120860D02*
X15256054Y-15073241D01*
X15256054Y-15073241D02*
X15256054Y-15035146D01*
X15256054Y-15035146D02*
X15246530Y-14987527D01*
X15246530Y-14987527D02*
X15237006Y-14958955D01*
X15237006Y-14958955D02*
X15227483Y-14939908D01*
X15227483Y-14939908D02*
X15208435Y-14911336D01*
X15208435Y-14911336D02*
X15198911Y-14901812D01*
D12*
X10220192Y-15334720D02*
X10220192Y-15271080D01*
X10156552Y-15271080D01*
X10156552Y-15334720D01*
X10220192Y-15334720D01*
D11*
X10532244Y-15194384D02*
X10551292Y-15194384D01*
X10551292Y-15194384D02*
X10570339Y-15203908D01*
X10570339Y-15203908D02*
X10579863Y-15213431D01*
X10579863Y-15213431D02*
X10589387Y-15232479D01*
X10589387Y-15232479D02*
X10598911Y-15270574D01*
X10598911Y-15270574D02*
X10598911Y-15318193D01*
X10598911Y-15318193D02*
X10589387Y-15356288D01*
X10589387Y-15356288D02*
X10579863Y-15375336D01*
X10579863Y-15375336D02*
X10570339Y-15384860D01*
X10570339Y-15384860D02*
X10551292Y-15394384D01*
X10551292Y-15394384D02*
X10532244Y-15394384D01*
X10532244Y-15394384D02*
X10513196Y-15384860D01*
X10513196Y-15384860D02*
X10503673Y-15375336D01*
X10503673Y-15375336D02*
X10494149Y-15356288D01*
X10494149Y-15356288D02*
X10484625Y-15318193D01*
X10484625Y-15318193D02*
X10484625Y-15270574D01*
X10484625Y-15270574D02*
X10494149Y-15232479D01*
X10494149Y-15232479D02*
X10503673Y-15213431D01*
X10503673Y-15213431D02*
X10513196Y-15203908D01*
X10513196Y-15203908D02*
X10532244Y-15194384D01*
X10684625Y-15375336D02*
X10694149Y-15384860D01*
X10694149Y-15384860D02*
X10684625Y-15394384D01*
X10684625Y-15394384D02*
X10675101Y-15384860D01*
X10675101Y-15384860D02*
X10684625Y-15375336D01*
X10684625Y-15375336D02*
X10684625Y-15394384D01*
X10789387Y-15394384D02*
X10827482Y-15394384D01*
X10827482Y-15394384D02*
X10846530Y-15384860D01*
X10846530Y-15384860D02*
X10856054Y-15375336D01*
X10856054Y-15375336D02*
X10875101Y-15346765D01*
X10875101Y-15346765D02*
X10884625Y-15308669D01*
X10884625Y-15308669D02*
X10884625Y-15232479D01*
X10884625Y-15232479D02*
X10875101Y-15213431D01*
X10875101Y-15213431D02*
X10865577Y-15203908D01*
X10865577Y-15203908D02*
X10846530Y-15194384D01*
X10846530Y-15194384D02*
X10808435Y-15194384D01*
X10808435Y-15194384D02*
X10789387Y-15203908D01*
X10789387Y-15203908D02*
X10779863Y-15213431D01*
X10779863Y-15213431D02*
X10770339Y-15232479D01*
X10770339Y-15232479D02*
X10770339Y-15280098D01*
X10770339Y-15280098D02*
X10779863Y-15299146D01*
X10779863Y-15299146D02*
X10789387Y-15308669D01*
X10789387Y-15308669D02*
X10808435Y-15318193D01*
X10808435Y-15318193D02*
X10846530Y-15318193D01*
X10846530Y-15318193D02*
X10865577Y-15308669D01*
X10865577Y-15308669D02*
X10875101Y-15299146D01*
X10875101Y-15299146D02*
X10884625Y-15280098D01*
X11008435Y-15194384D02*
X11027482Y-15194384D01*
X11027482Y-15194384D02*
X11046530Y-15203908D01*
X11046530Y-15203908D02*
X11056054Y-15213431D01*
X11056054Y-15213431D02*
X11065577Y-15232479D01*
X11065577Y-15232479D02*
X11075101Y-15270574D01*
X11075101Y-15270574D02*
X11075101Y-15318193D01*
X11075101Y-15318193D02*
X11065577Y-15356288D01*
X11065577Y-15356288D02*
X11056054Y-15375336D01*
X11056054Y-15375336D02*
X11046530Y-15384860D01*
X11046530Y-15384860D02*
X11027482Y-15394384D01*
X11027482Y-15394384D02*
X11008435Y-15394384D01*
X11008435Y-15394384D02*
X10989387Y-15384860D01*
X10989387Y-15384860D02*
X10979863Y-15375336D01*
X10979863Y-15375336D02*
X10970339Y-15356288D01*
X10970339Y-15356288D02*
X10960816Y-15318193D01*
X10960816Y-15318193D02*
X10960816Y-15270574D01*
X10960816Y-15270574D02*
X10970339Y-15232479D01*
X10970339Y-15232479D02*
X10979863Y-15213431D01*
X10979863Y-15213431D02*
X10989387Y-15203908D01*
X10989387Y-15203908D02*
X11008435Y-15194384D01*
X11198911Y-15194384D02*
X11217958Y-15194384D01*
X11217958Y-15194384D02*
X11237006Y-15203908D01*
X11237006Y-15203908D02*
X11246530Y-15213431D01*
X11246530Y-15213431D02*
X11256054Y-15232479D01*
X11256054Y-15232479D02*
X11265577Y-15270574D01*
X11265577Y-15270574D02*
X11265577Y-15318193D01*
X11265577Y-15318193D02*
X11256054Y-15356288D01*
X11256054Y-15356288D02*
X11246530Y-15375336D01*
X11246530Y-15375336D02*
X11237006Y-15384860D01*
X11237006Y-15384860D02*
X11217958Y-15394384D01*
X11217958Y-15394384D02*
X11198911Y-15394384D01*
X11198911Y-15394384D02*
X11179863Y-15384860D01*
X11179863Y-15384860D02*
X11170339Y-15375336D01*
X11170339Y-15375336D02*
X11160816Y-15356288D01*
X11160816Y-15356288D02*
X11151292Y-15318193D01*
X11151292Y-15318193D02*
X11151292Y-15270574D01*
X11151292Y-15270574D02*
X11160816Y-15232479D01*
X11160816Y-15232479D02*
X11170339Y-15213431D01*
X11170339Y-15213431D02*
X11179863Y-15203908D01*
X11179863Y-15203908D02*
X11198911Y-15194384D01*
X11351292Y-15394384D02*
X11351292Y-15261050D01*
X11351292Y-15280098D02*
X11360815Y-15270574D01*
X11360815Y-15270574D02*
X11379863Y-15261050D01*
X11379863Y-15261050D02*
X11408435Y-15261050D01*
X11408435Y-15261050D02*
X11427482Y-15270574D01*
X11427482Y-15270574D02*
X11437006Y-15289622D01*
X11437006Y-15289622D02*
X11437006Y-15394384D01*
X11437006Y-15289622D02*
X11446530Y-15270574D01*
X11446530Y-15270574D02*
X11465577Y-15261050D01*
X11465577Y-15261050D02*
X11494149Y-15261050D01*
X11494149Y-15261050D02*
X11513196Y-15270574D01*
X11513196Y-15270574D02*
X11522720Y-15289622D01*
X11522720Y-15289622D02*
X11522720Y-15394384D01*
X11617958Y-15394384D02*
X11617958Y-15261050D01*
X11617958Y-15280098D02*
X11627482Y-15270574D01*
X11627482Y-15270574D02*
X11646530Y-15261050D01*
X11646530Y-15261050D02*
X11675101Y-15261050D01*
X11675101Y-15261050D02*
X11694149Y-15270574D01*
X11694149Y-15270574D02*
X11703673Y-15289622D01*
X11703673Y-15289622D02*
X11703673Y-15394384D01*
X11703673Y-15289622D02*
X11713196Y-15270574D01*
X11713196Y-15270574D02*
X11732244Y-15261050D01*
X11732244Y-15261050D02*
X11760815Y-15261050D01*
X11760815Y-15261050D02*
X11779863Y-15270574D01*
X11779863Y-15270574D02*
X11789387Y-15289622D01*
X11789387Y-15289622D02*
X11789387Y-15394384D01*
X12179863Y-15184860D02*
X12008435Y-15442003D01*
X12437006Y-15194384D02*
X12456054Y-15194384D01*
X12456054Y-15194384D02*
X12475101Y-15203908D01*
X12475101Y-15203908D02*
X12484625Y-15213431D01*
X12484625Y-15213431D02*
X12494149Y-15232479D01*
X12494149Y-15232479D02*
X12503673Y-15270574D01*
X12503673Y-15270574D02*
X12503673Y-15318193D01*
X12503673Y-15318193D02*
X12494149Y-15356288D01*
X12494149Y-15356288D02*
X12484625Y-15375336D01*
X12484625Y-15375336D02*
X12475101Y-15384860D01*
X12475101Y-15384860D02*
X12456054Y-15394384D01*
X12456054Y-15394384D02*
X12437006Y-15394384D01*
X12437006Y-15394384D02*
X12417958Y-15384860D01*
X12417958Y-15384860D02*
X12408435Y-15375336D01*
X12408435Y-15375336D02*
X12398911Y-15356288D01*
X12398911Y-15356288D02*
X12389387Y-15318193D01*
X12389387Y-15318193D02*
X12389387Y-15270574D01*
X12389387Y-15270574D02*
X12398911Y-15232479D01*
X12398911Y-15232479D02*
X12408435Y-15213431D01*
X12408435Y-15213431D02*
X12417958Y-15203908D01*
X12417958Y-15203908D02*
X12437006Y-15194384D01*
X12589387Y-15375336D02*
X12598911Y-15384860D01*
X12598911Y-15384860D02*
X12589387Y-15394384D01*
X12589387Y-15394384D02*
X12579863Y-15384860D01*
X12579863Y-15384860D02*
X12589387Y-15375336D01*
X12589387Y-15375336D02*
X12589387Y-15394384D01*
X12722720Y-15194384D02*
X12741768Y-15194384D01*
X12741768Y-15194384D02*
X12760816Y-15203908D01*
X12760816Y-15203908D02*
X12770339Y-15213431D01*
X12770339Y-15213431D02*
X12779863Y-15232479D01*
X12779863Y-15232479D02*
X12789387Y-15270574D01*
X12789387Y-15270574D02*
X12789387Y-15318193D01*
X12789387Y-15318193D02*
X12779863Y-15356288D01*
X12779863Y-15356288D02*
X12770339Y-15375336D01*
X12770339Y-15375336D02*
X12760816Y-15384860D01*
X12760816Y-15384860D02*
X12741768Y-15394384D01*
X12741768Y-15394384D02*
X12722720Y-15394384D01*
X12722720Y-15394384D02*
X12703673Y-15384860D01*
X12703673Y-15384860D02*
X12694149Y-15375336D01*
X12694149Y-15375336D02*
X12684625Y-15356288D01*
X12684625Y-15356288D02*
X12675101Y-15318193D01*
X12675101Y-15318193D02*
X12675101Y-15270574D01*
X12675101Y-15270574D02*
X12684625Y-15232479D01*
X12684625Y-15232479D02*
X12694149Y-15213431D01*
X12694149Y-15213431D02*
X12703673Y-15203908D01*
X12703673Y-15203908D02*
X12722720Y-15194384D01*
X12856054Y-15194384D02*
X12979863Y-15194384D01*
X12979863Y-15194384D02*
X12913197Y-15270574D01*
X12913197Y-15270574D02*
X12941768Y-15270574D01*
X12941768Y-15270574D02*
X12960816Y-15280098D01*
X12960816Y-15280098D02*
X12970339Y-15289622D01*
X12970339Y-15289622D02*
X12979863Y-15308669D01*
X12979863Y-15308669D02*
X12979863Y-15356288D01*
X12979863Y-15356288D02*
X12970339Y-15375336D01*
X12970339Y-15375336D02*
X12960816Y-15384860D01*
X12960816Y-15384860D02*
X12941768Y-15394384D01*
X12941768Y-15394384D02*
X12884625Y-15394384D01*
X12884625Y-15394384D02*
X12865578Y-15384860D01*
X12865578Y-15384860D02*
X12856054Y-15375336D01*
X13160816Y-15194384D02*
X13065578Y-15194384D01*
X13065578Y-15194384D02*
X13056054Y-15289622D01*
X13056054Y-15289622D02*
X13065578Y-15280098D01*
X13065578Y-15280098D02*
X13084625Y-15270574D01*
X13084625Y-15270574D02*
X13132244Y-15270574D01*
X13132244Y-15270574D02*
X13151292Y-15280098D01*
X13151292Y-15280098D02*
X13160816Y-15289622D01*
X13160816Y-15289622D02*
X13170339Y-15308669D01*
X13170339Y-15308669D02*
X13170339Y-15356288D01*
X13170339Y-15356288D02*
X13160816Y-15375336D01*
X13160816Y-15375336D02*
X13151292Y-15384860D01*
X13151292Y-15384860D02*
X13132244Y-15394384D01*
X13132244Y-15394384D02*
X13084625Y-15394384D01*
X13084625Y-15394384D02*
X13065578Y-15384860D01*
X13065578Y-15384860D02*
X13056054Y-15375336D01*
X13341768Y-15261050D02*
X13341768Y-15394384D01*
X13294149Y-15184860D02*
X13246530Y-15327717D01*
X13246530Y-15327717D02*
X13370339Y-15327717D01*
X13437006Y-15194384D02*
X13437006Y-15232479D01*
X13513197Y-15194384D02*
X13513197Y-15232479D01*
X13808435Y-15470574D02*
X13798911Y-15461050D01*
X13798911Y-15461050D02*
X13779863Y-15432479D01*
X13779863Y-15432479D02*
X13770340Y-15413431D01*
X13770340Y-15413431D02*
X13760816Y-15384860D01*
X13760816Y-15384860D02*
X13751292Y-15337241D01*
X13751292Y-15337241D02*
X13751292Y-15299146D01*
X13751292Y-15299146D02*
X13760816Y-15251527D01*
X13760816Y-15251527D02*
X13770340Y-15222955D01*
X13770340Y-15222955D02*
X13779863Y-15203908D01*
X13779863Y-15203908D02*
X13798911Y-15175336D01*
X13798911Y-15175336D02*
X13808435Y-15165812D01*
X13970340Y-15261050D02*
X13970340Y-15394384D01*
X13922720Y-15184860D02*
X13875101Y-15327717D01*
X13875101Y-15327717D02*
X13998911Y-15327717D01*
X14227482Y-15394384D02*
X14227482Y-15194384D01*
X14313197Y-15394384D02*
X14313197Y-15289622D01*
X14313197Y-15289622D02*
X14303673Y-15270574D01*
X14303673Y-15270574D02*
X14284625Y-15261050D01*
X14284625Y-15261050D02*
X14256054Y-15261050D01*
X14256054Y-15261050D02*
X14237006Y-15270574D01*
X14237006Y-15270574D02*
X14227482Y-15280098D01*
X14437006Y-15394384D02*
X14417959Y-15384860D01*
X14417959Y-15384860D02*
X14408435Y-15375336D01*
X14408435Y-15375336D02*
X14398911Y-15356288D01*
X14398911Y-15356288D02*
X14398911Y-15299146D01*
X14398911Y-15299146D02*
X14408435Y-15280098D01*
X14408435Y-15280098D02*
X14417959Y-15270574D01*
X14417959Y-15270574D02*
X14437006Y-15261050D01*
X14437006Y-15261050D02*
X14465578Y-15261050D01*
X14465578Y-15261050D02*
X14484625Y-15270574D01*
X14484625Y-15270574D02*
X14494149Y-15280098D01*
X14494149Y-15280098D02*
X14503673Y-15299146D01*
X14503673Y-15299146D02*
X14503673Y-15356288D01*
X14503673Y-15356288D02*
X14494149Y-15375336D01*
X14494149Y-15375336D02*
X14484625Y-15384860D01*
X14484625Y-15384860D02*
X14465578Y-15394384D01*
X14465578Y-15394384D02*
X14437006Y-15394384D01*
X14617959Y-15394384D02*
X14598911Y-15384860D01*
X14598911Y-15384860D02*
X14589387Y-15365812D01*
X14589387Y-15365812D02*
X14589387Y-15194384D01*
X14770340Y-15384860D02*
X14751292Y-15394384D01*
X14751292Y-15394384D02*
X14713197Y-15394384D01*
X14713197Y-15394384D02*
X14694149Y-15384860D01*
X14694149Y-15384860D02*
X14684625Y-15365812D01*
X14684625Y-15365812D02*
X14684625Y-15289622D01*
X14684625Y-15289622D02*
X14694149Y-15270574D01*
X14694149Y-15270574D02*
X14713197Y-15261050D01*
X14713197Y-15261050D02*
X14751292Y-15261050D01*
X14751292Y-15261050D02*
X14770340Y-15270574D01*
X14770340Y-15270574D02*
X14779863Y-15289622D01*
X14779863Y-15289622D02*
X14779863Y-15308669D01*
X14779863Y-15308669D02*
X14684625Y-15327717D01*
X14856054Y-15384860D02*
X14875102Y-15394384D01*
X14875102Y-15394384D02*
X14913197Y-15394384D01*
X14913197Y-15394384D02*
X14932244Y-15384860D01*
X14932244Y-15384860D02*
X14941768Y-15365812D01*
X14941768Y-15365812D02*
X14941768Y-15356288D01*
X14941768Y-15356288D02*
X14932244Y-15337241D01*
X14932244Y-15337241D02*
X14913197Y-15327717D01*
X14913197Y-15327717D02*
X14884625Y-15327717D01*
X14884625Y-15327717D02*
X14865578Y-15318193D01*
X14865578Y-15318193D02*
X14856054Y-15299146D01*
X14856054Y-15299146D02*
X14856054Y-15289622D01*
X14856054Y-15289622D02*
X14865578Y-15270574D01*
X14865578Y-15270574D02*
X14884625Y-15261050D01*
X14884625Y-15261050D02*
X14913197Y-15261050D01*
X14913197Y-15261050D02*
X14932244Y-15270574D01*
X15008435Y-15470574D02*
X15017959Y-15461050D01*
X15017959Y-15461050D02*
X15037006Y-15432479D01*
X15037006Y-15432479D02*
X15046530Y-15413431D01*
X15046530Y-15413431D02*
X15056054Y-15384860D01*
X15056054Y-15384860D02*
X15065578Y-15337241D01*
X15065578Y-15337241D02*
X15065578Y-15299146D01*
X15065578Y-15299146D02*
X15056054Y-15251527D01*
X15056054Y-15251527D02*
X15046530Y-15222955D01*
X15046530Y-15222955D02*
X15037006Y-15203908D01*
X15037006Y-15203908D02*
X15017959Y-15175336D01*
X15017959Y-15175336D02*
X15008435Y-15165812D01*
D12*
X10183372Y-15616900D02*
X10233372Y-15566900D01*
X10183372Y-15516900D01*
X10133372Y-15566900D01*
X10183372Y-15616900D01*
D11*
X10598911Y-15658384D02*
X10484625Y-15658384D01*
X10541768Y-15658384D02*
X10541768Y-15458384D01*
X10541768Y-15458384D02*
X10522720Y-15486955D01*
X10522720Y-15486955D02*
X10503673Y-15506003D01*
X10503673Y-15506003D02*
X10484625Y-15515527D01*
X10684625Y-15639336D02*
X10694149Y-15648860D01*
X10694149Y-15648860D02*
X10684625Y-15658384D01*
X10684625Y-15658384D02*
X10675101Y-15648860D01*
X10675101Y-15648860D02*
X10684625Y-15639336D01*
X10684625Y-15639336D02*
X10684625Y-15658384D01*
X10817958Y-15458384D02*
X10837006Y-15458384D01*
X10837006Y-15458384D02*
X10856054Y-15467908D01*
X10856054Y-15467908D02*
X10865577Y-15477431D01*
X10865577Y-15477431D02*
X10875101Y-15496479D01*
X10875101Y-15496479D02*
X10884625Y-15534574D01*
X10884625Y-15534574D02*
X10884625Y-15582193D01*
X10884625Y-15582193D02*
X10875101Y-15620288D01*
X10875101Y-15620288D02*
X10865577Y-15639336D01*
X10865577Y-15639336D02*
X10856054Y-15648860D01*
X10856054Y-15648860D02*
X10837006Y-15658384D01*
X10837006Y-15658384D02*
X10817958Y-15658384D01*
X10817958Y-15658384D02*
X10798911Y-15648860D01*
X10798911Y-15648860D02*
X10789387Y-15639336D01*
X10789387Y-15639336D02*
X10779863Y-15620288D01*
X10779863Y-15620288D02*
X10770339Y-15582193D01*
X10770339Y-15582193D02*
X10770339Y-15534574D01*
X10770339Y-15534574D02*
X10779863Y-15496479D01*
X10779863Y-15496479D02*
X10789387Y-15477431D01*
X10789387Y-15477431D02*
X10798911Y-15467908D01*
X10798911Y-15467908D02*
X10817958Y-15458384D01*
X11008435Y-15458384D02*
X11027482Y-15458384D01*
X11027482Y-15458384D02*
X11046530Y-15467908D01*
X11046530Y-15467908D02*
X11056054Y-15477431D01*
X11056054Y-15477431D02*
X11065577Y-15496479D01*
X11065577Y-15496479D02*
X11075101Y-15534574D01*
X11075101Y-15534574D02*
X11075101Y-15582193D01*
X11075101Y-15582193D02*
X11065577Y-15620288D01*
X11065577Y-15620288D02*
X11056054Y-15639336D01*
X11056054Y-15639336D02*
X11046530Y-15648860D01*
X11046530Y-15648860D02*
X11027482Y-15658384D01*
X11027482Y-15658384D02*
X11008435Y-15658384D01*
X11008435Y-15658384D02*
X10989387Y-15648860D01*
X10989387Y-15648860D02*
X10979863Y-15639336D01*
X10979863Y-15639336D02*
X10970339Y-15620288D01*
X10970339Y-15620288D02*
X10960816Y-15582193D01*
X10960816Y-15582193D02*
X10960816Y-15534574D01*
X10960816Y-15534574D02*
X10970339Y-15496479D01*
X10970339Y-15496479D02*
X10979863Y-15477431D01*
X10979863Y-15477431D02*
X10989387Y-15467908D01*
X10989387Y-15467908D02*
X11008435Y-15458384D01*
X11198911Y-15458384D02*
X11217958Y-15458384D01*
X11217958Y-15458384D02*
X11237006Y-15467908D01*
X11237006Y-15467908D02*
X11246530Y-15477431D01*
X11246530Y-15477431D02*
X11256054Y-15496479D01*
X11256054Y-15496479D02*
X11265577Y-15534574D01*
X11265577Y-15534574D02*
X11265577Y-15582193D01*
X11265577Y-15582193D02*
X11256054Y-15620288D01*
X11256054Y-15620288D02*
X11246530Y-15639336D01*
X11246530Y-15639336D02*
X11237006Y-15648860D01*
X11237006Y-15648860D02*
X11217958Y-15658384D01*
X11217958Y-15658384D02*
X11198911Y-15658384D01*
X11198911Y-15658384D02*
X11179863Y-15648860D01*
X11179863Y-15648860D02*
X11170339Y-15639336D01*
X11170339Y-15639336D02*
X11160816Y-15620288D01*
X11160816Y-15620288D02*
X11151292Y-15582193D01*
X11151292Y-15582193D02*
X11151292Y-15534574D01*
X11151292Y-15534574D02*
X11160816Y-15496479D01*
X11160816Y-15496479D02*
X11170339Y-15477431D01*
X11170339Y-15477431D02*
X11179863Y-15467908D01*
X11179863Y-15467908D02*
X11198911Y-15458384D01*
X11351292Y-15658384D02*
X11351292Y-15525050D01*
X11351292Y-15544098D02*
X11360815Y-15534574D01*
X11360815Y-15534574D02*
X11379863Y-15525050D01*
X11379863Y-15525050D02*
X11408435Y-15525050D01*
X11408435Y-15525050D02*
X11427482Y-15534574D01*
X11427482Y-15534574D02*
X11437006Y-15553622D01*
X11437006Y-15553622D02*
X11437006Y-15658384D01*
X11437006Y-15553622D02*
X11446530Y-15534574D01*
X11446530Y-15534574D02*
X11465577Y-15525050D01*
X11465577Y-15525050D02*
X11494149Y-15525050D01*
X11494149Y-15525050D02*
X11513196Y-15534574D01*
X11513196Y-15534574D02*
X11522720Y-15553622D01*
X11522720Y-15553622D02*
X11522720Y-15658384D01*
X11617958Y-15658384D02*
X11617958Y-15525050D01*
X11617958Y-15544098D02*
X11627482Y-15534574D01*
X11627482Y-15534574D02*
X11646530Y-15525050D01*
X11646530Y-15525050D02*
X11675101Y-15525050D01*
X11675101Y-15525050D02*
X11694149Y-15534574D01*
X11694149Y-15534574D02*
X11703673Y-15553622D01*
X11703673Y-15553622D02*
X11703673Y-15658384D01*
X11703673Y-15553622D02*
X11713196Y-15534574D01*
X11713196Y-15534574D02*
X11732244Y-15525050D01*
X11732244Y-15525050D02*
X11760815Y-15525050D01*
X11760815Y-15525050D02*
X11779863Y-15534574D01*
X11779863Y-15534574D02*
X11789387Y-15553622D01*
X11789387Y-15553622D02*
X11789387Y-15658384D01*
X12179863Y-15448860D02*
X12008435Y-15706003D01*
X12437006Y-15458384D02*
X12456054Y-15458384D01*
X12456054Y-15458384D02*
X12475101Y-15467908D01*
X12475101Y-15467908D02*
X12484625Y-15477431D01*
X12484625Y-15477431D02*
X12494149Y-15496479D01*
X12494149Y-15496479D02*
X12503673Y-15534574D01*
X12503673Y-15534574D02*
X12503673Y-15582193D01*
X12503673Y-15582193D02*
X12494149Y-15620288D01*
X12494149Y-15620288D02*
X12484625Y-15639336D01*
X12484625Y-15639336D02*
X12475101Y-15648860D01*
X12475101Y-15648860D02*
X12456054Y-15658384D01*
X12456054Y-15658384D02*
X12437006Y-15658384D01*
X12437006Y-15658384D02*
X12417958Y-15648860D01*
X12417958Y-15648860D02*
X12408435Y-15639336D01*
X12408435Y-15639336D02*
X12398911Y-15620288D01*
X12398911Y-15620288D02*
X12389387Y-15582193D01*
X12389387Y-15582193D02*
X12389387Y-15534574D01*
X12389387Y-15534574D02*
X12398911Y-15496479D01*
X12398911Y-15496479D02*
X12408435Y-15477431D01*
X12408435Y-15477431D02*
X12417958Y-15467908D01*
X12417958Y-15467908D02*
X12437006Y-15458384D01*
X12589387Y-15639336D02*
X12598911Y-15648860D01*
X12598911Y-15648860D02*
X12589387Y-15658384D01*
X12589387Y-15658384D02*
X12579863Y-15648860D01*
X12579863Y-15648860D02*
X12589387Y-15639336D01*
X12589387Y-15639336D02*
X12589387Y-15658384D01*
X12722720Y-15458384D02*
X12741768Y-15458384D01*
X12741768Y-15458384D02*
X12760816Y-15467908D01*
X12760816Y-15467908D02*
X12770339Y-15477431D01*
X12770339Y-15477431D02*
X12779863Y-15496479D01*
X12779863Y-15496479D02*
X12789387Y-15534574D01*
X12789387Y-15534574D02*
X12789387Y-15582193D01*
X12789387Y-15582193D02*
X12779863Y-15620288D01*
X12779863Y-15620288D02*
X12770339Y-15639336D01*
X12770339Y-15639336D02*
X12760816Y-15648860D01*
X12760816Y-15648860D02*
X12741768Y-15658384D01*
X12741768Y-15658384D02*
X12722720Y-15658384D01*
X12722720Y-15658384D02*
X12703673Y-15648860D01*
X12703673Y-15648860D02*
X12694149Y-15639336D01*
X12694149Y-15639336D02*
X12684625Y-15620288D01*
X12684625Y-15620288D02*
X12675101Y-15582193D01*
X12675101Y-15582193D02*
X12675101Y-15534574D01*
X12675101Y-15534574D02*
X12684625Y-15496479D01*
X12684625Y-15496479D02*
X12694149Y-15477431D01*
X12694149Y-15477431D02*
X12703673Y-15467908D01*
X12703673Y-15467908D02*
X12722720Y-15458384D01*
X12856054Y-15458384D02*
X12979863Y-15458384D01*
X12979863Y-15458384D02*
X12913197Y-15534574D01*
X12913197Y-15534574D02*
X12941768Y-15534574D01*
X12941768Y-15534574D02*
X12960816Y-15544098D01*
X12960816Y-15544098D02*
X12970339Y-15553622D01*
X12970339Y-15553622D02*
X12979863Y-15572669D01*
X12979863Y-15572669D02*
X12979863Y-15620288D01*
X12979863Y-15620288D02*
X12970339Y-15639336D01*
X12970339Y-15639336D02*
X12960816Y-15648860D01*
X12960816Y-15648860D02*
X12941768Y-15658384D01*
X12941768Y-15658384D02*
X12884625Y-15658384D01*
X12884625Y-15658384D02*
X12865578Y-15648860D01*
X12865578Y-15648860D02*
X12856054Y-15639336D01*
X13075101Y-15658384D02*
X13113197Y-15658384D01*
X13113197Y-15658384D02*
X13132244Y-15648860D01*
X13132244Y-15648860D02*
X13141768Y-15639336D01*
X13141768Y-15639336D02*
X13160816Y-15610765D01*
X13160816Y-15610765D02*
X13170339Y-15572669D01*
X13170339Y-15572669D02*
X13170339Y-15496479D01*
X13170339Y-15496479D02*
X13160816Y-15477431D01*
X13160816Y-15477431D02*
X13151292Y-15467908D01*
X13151292Y-15467908D02*
X13132244Y-15458384D01*
X13132244Y-15458384D02*
X13094149Y-15458384D01*
X13094149Y-15458384D02*
X13075101Y-15467908D01*
X13075101Y-15467908D02*
X13065578Y-15477431D01*
X13065578Y-15477431D02*
X13056054Y-15496479D01*
X13056054Y-15496479D02*
X13056054Y-15544098D01*
X13056054Y-15544098D02*
X13065578Y-15563146D01*
X13065578Y-15563146D02*
X13075101Y-15572669D01*
X13075101Y-15572669D02*
X13094149Y-15582193D01*
X13094149Y-15582193D02*
X13132244Y-15582193D01*
X13132244Y-15582193D02*
X13151292Y-15572669D01*
X13151292Y-15572669D02*
X13160816Y-15563146D01*
X13160816Y-15563146D02*
X13170339Y-15544098D01*
X13341768Y-15525050D02*
X13341768Y-15658384D01*
X13294149Y-15448860D02*
X13246530Y-15591717D01*
X13246530Y-15591717D02*
X13370339Y-15591717D01*
X13437006Y-15458384D02*
X13437006Y-15496479D01*
X13513197Y-15458384D02*
X13513197Y-15496479D01*
X13808435Y-15734574D02*
X13798911Y-15725050D01*
X13798911Y-15725050D02*
X13779863Y-15696479D01*
X13779863Y-15696479D02*
X13770340Y-15677431D01*
X13770340Y-15677431D02*
X13760816Y-15648860D01*
X13760816Y-15648860D02*
X13751292Y-15601241D01*
X13751292Y-15601241D02*
X13751292Y-15563146D01*
X13751292Y-15563146D02*
X13760816Y-15515527D01*
X13760816Y-15515527D02*
X13770340Y-15486955D01*
X13770340Y-15486955D02*
X13779863Y-15467908D01*
X13779863Y-15467908D02*
X13798911Y-15439336D01*
X13798911Y-15439336D02*
X13808435Y-15429812D01*
X13865578Y-15458384D02*
X13989387Y-15458384D01*
X13989387Y-15458384D02*
X13922720Y-15534574D01*
X13922720Y-15534574D02*
X13951292Y-15534574D01*
X13951292Y-15534574D02*
X13970340Y-15544098D01*
X13970340Y-15544098D02*
X13979863Y-15553622D01*
X13979863Y-15553622D02*
X13989387Y-15572669D01*
X13989387Y-15572669D02*
X13989387Y-15620288D01*
X13989387Y-15620288D02*
X13979863Y-15639336D01*
X13979863Y-15639336D02*
X13970340Y-15648860D01*
X13970340Y-15648860D02*
X13951292Y-15658384D01*
X13951292Y-15658384D02*
X13894149Y-15658384D01*
X13894149Y-15658384D02*
X13875101Y-15648860D01*
X13875101Y-15648860D02*
X13865578Y-15639336D01*
X14065578Y-15477431D02*
X14075101Y-15467908D01*
X14075101Y-15467908D02*
X14094149Y-15458384D01*
X14094149Y-15458384D02*
X14141768Y-15458384D01*
X14141768Y-15458384D02*
X14160816Y-15467908D01*
X14160816Y-15467908D02*
X14170340Y-15477431D01*
X14170340Y-15477431D02*
X14179863Y-15496479D01*
X14179863Y-15496479D02*
X14179863Y-15515527D01*
X14179863Y-15515527D02*
X14170340Y-15544098D01*
X14170340Y-15544098D02*
X14056054Y-15658384D01*
X14056054Y-15658384D02*
X14179863Y-15658384D01*
X14417959Y-15658384D02*
X14417959Y-15458384D01*
X14503673Y-15658384D02*
X14503673Y-15553622D01*
X14503673Y-15553622D02*
X14494149Y-15534574D01*
X14494149Y-15534574D02*
X14475102Y-15525050D01*
X14475102Y-15525050D02*
X14446530Y-15525050D01*
X14446530Y-15525050D02*
X14427482Y-15534574D01*
X14427482Y-15534574D02*
X14417959Y-15544098D01*
X14627482Y-15658384D02*
X14608435Y-15648860D01*
X14608435Y-15648860D02*
X14598911Y-15639336D01*
X14598911Y-15639336D02*
X14589387Y-15620288D01*
X14589387Y-15620288D02*
X14589387Y-15563146D01*
X14589387Y-15563146D02*
X14598911Y-15544098D01*
X14598911Y-15544098D02*
X14608435Y-15534574D01*
X14608435Y-15534574D02*
X14627482Y-15525050D01*
X14627482Y-15525050D02*
X14656054Y-15525050D01*
X14656054Y-15525050D02*
X14675102Y-15534574D01*
X14675102Y-15534574D02*
X14684625Y-15544098D01*
X14684625Y-15544098D02*
X14694149Y-15563146D01*
X14694149Y-15563146D02*
X14694149Y-15620288D01*
X14694149Y-15620288D02*
X14684625Y-15639336D01*
X14684625Y-15639336D02*
X14675102Y-15648860D01*
X14675102Y-15648860D02*
X14656054Y-15658384D01*
X14656054Y-15658384D02*
X14627482Y-15658384D01*
X14808435Y-15658384D02*
X14789387Y-15648860D01*
X14789387Y-15648860D02*
X14779863Y-15629812D01*
X14779863Y-15629812D02*
X14779863Y-15458384D01*
X14960816Y-15648860D02*
X14941768Y-15658384D01*
X14941768Y-15658384D02*
X14903673Y-15658384D01*
X14903673Y-15658384D02*
X14884625Y-15648860D01*
X14884625Y-15648860D02*
X14875102Y-15629812D01*
X14875102Y-15629812D02*
X14875102Y-15553622D01*
X14875102Y-15553622D02*
X14884625Y-15534574D01*
X14884625Y-15534574D02*
X14903673Y-15525050D01*
X14903673Y-15525050D02*
X14941768Y-15525050D01*
X14941768Y-15525050D02*
X14960816Y-15534574D01*
X14960816Y-15534574D02*
X14970340Y-15553622D01*
X14970340Y-15553622D02*
X14970340Y-15572669D01*
X14970340Y-15572669D02*
X14875102Y-15591717D01*
X15046530Y-15648860D02*
X15065578Y-15658384D01*
X15065578Y-15658384D02*
X15103673Y-15658384D01*
X15103673Y-15658384D02*
X15122721Y-15648860D01*
X15122721Y-15648860D02*
X15132244Y-15629812D01*
X15132244Y-15629812D02*
X15132244Y-15620288D01*
X15132244Y-15620288D02*
X15122721Y-15601241D01*
X15122721Y-15601241D02*
X15103673Y-15591717D01*
X15103673Y-15591717D02*
X15075102Y-15591717D01*
X15075102Y-15591717D02*
X15056054Y-15582193D01*
X15056054Y-15582193D02*
X15046530Y-15563146D01*
X15046530Y-15563146D02*
X15046530Y-15553622D01*
X15046530Y-15553622D02*
X15056054Y-15534574D01*
X15056054Y-15534574D02*
X15075102Y-15525050D01*
X15075102Y-15525050D02*
X15103673Y-15525050D01*
X15103673Y-15525050D02*
X15122721Y-15534574D01*
X15198911Y-15734574D02*
X15208435Y-15725050D01*
X15208435Y-15725050D02*
X15227483Y-15696479D01*
X15227483Y-15696479D02*
X15237006Y-15677431D01*
X15237006Y-15677431D02*
X15246530Y-15648860D01*
X15246530Y-15648860D02*
X15256054Y-15601241D01*
X15256054Y-15601241D02*
X15256054Y-15563146D01*
X15256054Y-15563146D02*
X15246530Y-15515527D01*
X15246530Y-15515527D02*
X15237006Y-15486955D01*
X15237006Y-15486955D02*
X15227483Y-15467908D01*
X15227483Y-15467908D02*
X15208435Y-15439336D01*
X15208435Y-15439336D02*
X15198911Y-15429812D01*
D13*
X10113372Y-15770900D02*
X10233372Y-15890900D01*
X10233372Y-15770900D02*
X10113372Y-15890900D01*
X10233372Y-15830900D02*
G75*
G02*
X10113372Y-15830900I-60000J0D01*
G01*
X10113372Y-15830900D02*
G75*
G02*
X10233372Y-15830900I60000J0D01*
G01*
D11*
X10598911Y-15922384D02*
X10484625Y-15922384D01*
X10541768Y-15922384D02*
X10541768Y-15722384D01*
X10541768Y-15722384D02*
X10522720Y-15750955D01*
X10522720Y-15750955D02*
X10503673Y-15770003D01*
X10503673Y-15770003D02*
X10484625Y-15779527D01*
X10684625Y-15903336D02*
X10694149Y-15912860D01*
X10694149Y-15912860D02*
X10684625Y-15922384D01*
X10684625Y-15922384D02*
X10675101Y-15912860D01*
X10675101Y-15912860D02*
X10684625Y-15903336D01*
X10684625Y-15903336D02*
X10684625Y-15922384D01*
X10770339Y-15741431D02*
X10779863Y-15731908D01*
X10779863Y-15731908D02*
X10798911Y-15722384D01*
X10798911Y-15722384D02*
X10846530Y-15722384D01*
X10846530Y-15722384D02*
X10865577Y-15731908D01*
X10865577Y-15731908D02*
X10875101Y-15741431D01*
X10875101Y-15741431D02*
X10884625Y-15760479D01*
X10884625Y-15760479D02*
X10884625Y-15779527D01*
X10884625Y-15779527D02*
X10875101Y-15808098D01*
X10875101Y-15808098D02*
X10760816Y-15922384D01*
X10760816Y-15922384D02*
X10884625Y-15922384D01*
X11008435Y-15722384D02*
X11027482Y-15722384D01*
X11027482Y-15722384D02*
X11046530Y-15731908D01*
X11046530Y-15731908D02*
X11056054Y-15741431D01*
X11056054Y-15741431D02*
X11065577Y-15760479D01*
X11065577Y-15760479D02*
X11075101Y-15798574D01*
X11075101Y-15798574D02*
X11075101Y-15846193D01*
X11075101Y-15846193D02*
X11065577Y-15884288D01*
X11065577Y-15884288D02*
X11056054Y-15903336D01*
X11056054Y-15903336D02*
X11046530Y-15912860D01*
X11046530Y-15912860D02*
X11027482Y-15922384D01*
X11027482Y-15922384D02*
X11008435Y-15922384D01*
X11008435Y-15922384D02*
X10989387Y-15912860D01*
X10989387Y-15912860D02*
X10979863Y-15903336D01*
X10979863Y-15903336D02*
X10970339Y-15884288D01*
X10970339Y-15884288D02*
X10960816Y-15846193D01*
X10960816Y-15846193D02*
X10960816Y-15798574D01*
X10960816Y-15798574D02*
X10970339Y-15760479D01*
X10970339Y-15760479D02*
X10979863Y-15741431D01*
X10979863Y-15741431D02*
X10989387Y-15731908D01*
X10989387Y-15731908D02*
X11008435Y-15722384D01*
X11198911Y-15722384D02*
X11217958Y-15722384D01*
X11217958Y-15722384D02*
X11237006Y-15731908D01*
X11237006Y-15731908D02*
X11246530Y-15741431D01*
X11246530Y-15741431D02*
X11256054Y-15760479D01*
X11256054Y-15760479D02*
X11265577Y-15798574D01*
X11265577Y-15798574D02*
X11265577Y-15846193D01*
X11265577Y-15846193D02*
X11256054Y-15884288D01*
X11256054Y-15884288D02*
X11246530Y-15903336D01*
X11246530Y-15903336D02*
X11237006Y-15912860D01*
X11237006Y-15912860D02*
X11217958Y-15922384D01*
X11217958Y-15922384D02*
X11198911Y-15922384D01*
X11198911Y-15922384D02*
X11179863Y-15912860D01*
X11179863Y-15912860D02*
X11170339Y-15903336D01*
X11170339Y-15903336D02*
X11160816Y-15884288D01*
X11160816Y-15884288D02*
X11151292Y-15846193D01*
X11151292Y-15846193D02*
X11151292Y-15798574D01*
X11151292Y-15798574D02*
X11160816Y-15760479D01*
X11160816Y-15760479D02*
X11170339Y-15741431D01*
X11170339Y-15741431D02*
X11179863Y-15731908D01*
X11179863Y-15731908D02*
X11198911Y-15722384D01*
X11351292Y-15922384D02*
X11351292Y-15789050D01*
X11351292Y-15808098D02*
X11360815Y-15798574D01*
X11360815Y-15798574D02*
X11379863Y-15789050D01*
X11379863Y-15789050D02*
X11408435Y-15789050D01*
X11408435Y-15789050D02*
X11427482Y-15798574D01*
X11427482Y-15798574D02*
X11437006Y-15817622D01*
X11437006Y-15817622D02*
X11437006Y-15922384D01*
X11437006Y-15817622D02*
X11446530Y-15798574D01*
X11446530Y-15798574D02*
X11465577Y-15789050D01*
X11465577Y-15789050D02*
X11494149Y-15789050D01*
X11494149Y-15789050D02*
X11513196Y-15798574D01*
X11513196Y-15798574D02*
X11522720Y-15817622D01*
X11522720Y-15817622D02*
X11522720Y-15922384D01*
X11617958Y-15922384D02*
X11617958Y-15789050D01*
X11617958Y-15808098D02*
X11627482Y-15798574D01*
X11627482Y-15798574D02*
X11646530Y-15789050D01*
X11646530Y-15789050D02*
X11675101Y-15789050D01*
X11675101Y-15789050D02*
X11694149Y-15798574D01*
X11694149Y-15798574D02*
X11703673Y-15817622D01*
X11703673Y-15817622D02*
X11703673Y-15922384D01*
X11703673Y-15817622D02*
X11713196Y-15798574D01*
X11713196Y-15798574D02*
X11732244Y-15789050D01*
X11732244Y-15789050D02*
X11760815Y-15789050D01*
X11760815Y-15789050D02*
X11779863Y-15798574D01*
X11779863Y-15798574D02*
X11789387Y-15817622D01*
X11789387Y-15817622D02*
X11789387Y-15922384D01*
X12179863Y-15712860D02*
X12008435Y-15970003D01*
X12437006Y-15722384D02*
X12456054Y-15722384D01*
X12456054Y-15722384D02*
X12475101Y-15731908D01*
X12475101Y-15731908D02*
X12484625Y-15741431D01*
X12484625Y-15741431D02*
X12494149Y-15760479D01*
X12494149Y-15760479D02*
X12503673Y-15798574D01*
X12503673Y-15798574D02*
X12503673Y-15846193D01*
X12503673Y-15846193D02*
X12494149Y-15884288D01*
X12494149Y-15884288D02*
X12484625Y-15903336D01*
X12484625Y-15903336D02*
X12475101Y-15912860D01*
X12475101Y-15912860D02*
X12456054Y-15922384D01*
X12456054Y-15922384D02*
X12437006Y-15922384D01*
X12437006Y-15922384D02*
X12417958Y-15912860D01*
X12417958Y-15912860D02*
X12408435Y-15903336D01*
X12408435Y-15903336D02*
X12398911Y-15884288D01*
X12398911Y-15884288D02*
X12389387Y-15846193D01*
X12389387Y-15846193D02*
X12389387Y-15798574D01*
X12389387Y-15798574D02*
X12398911Y-15760479D01*
X12398911Y-15760479D02*
X12408435Y-15741431D01*
X12408435Y-15741431D02*
X12417958Y-15731908D01*
X12417958Y-15731908D02*
X12437006Y-15722384D01*
X12589387Y-15903336D02*
X12598911Y-15912860D01*
X12598911Y-15912860D02*
X12589387Y-15922384D01*
X12589387Y-15922384D02*
X12579863Y-15912860D01*
X12579863Y-15912860D02*
X12589387Y-15903336D01*
X12589387Y-15903336D02*
X12589387Y-15922384D01*
X12722720Y-15722384D02*
X12741768Y-15722384D01*
X12741768Y-15722384D02*
X12760816Y-15731908D01*
X12760816Y-15731908D02*
X12770339Y-15741431D01*
X12770339Y-15741431D02*
X12779863Y-15760479D01*
X12779863Y-15760479D02*
X12789387Y-15798574D01*
X12789387Y-15798574D02*
X12789387Y-15846193D01*
X12789387Y-15846193D02*
X12779863Y-15884288D01*
X12779863Y-15884288D02*
X12770339Y-15903336D01*
X12770339Y-15903336D02*
X12760816Y-15912860D01*
X12760816Y-15912860D02*
X12741768Y-15922384D01*
X12741768Y-15922384D02*
X12722720Y-15922384D01*
X12722720Y-15922384D02*
X12703673Y-15912860D01*
X12703673Y-15912860D02*
X12694149Y-15903336D01*
X12694149Y-15903336D02*
X12684625Y-15884288D01*
X12684625Y-15884288D02*
X12675101Y-15846193D01*
X12675101Y-15846193D02*
X12675101Y-15798574D01*
X12675101Y-15798574D02*
X12684625Y-15760479D01*
X12684625Y-15760479D02*
X12694149Y-15741431D01*
X12694149Y-15741431D02*
X12703673Y-15731908D01*
X12703673Y-15731908D02*
X12722720Y-15722384D01*
X12960816Y-15789050D02*
X12960816Y-15922384D01*
X12913197Y-15712860D02*
X12865578Y-15855717D01*
X12865578Y-15855717D02*
X12989387Y-15855717D01*
X13046530Y-15722384D02*
X13179863Y-15722384D01*
X13179863Y-15722384D02*
X13094149Y-15922384D01*
X13246530Y-15741431D02*
X13256054Y-15731908D01*
X13256054Y-15731908D02*
X13275101Y-15722384D01*
X13275101Y-15722384D02*
X13322720Y-15722384D01*
X13322720Y-15722384D02*
X13341768Y-15731908D01*
X13341768Y-15731908D02*
X13351292Y-15741431D01*
X13351292Y-15741431D02*
X13360816Y-15760479D01*
X13360816Y-15760479D02*
X13360816Y-15779527D01*
X13360816Y-15779527D02*
X13351292Y-15808098D01*
X13351292Y-15808098D02*
X13237006Y-15922384D01*
X13237006Y-15922384D02*
X13360816Y-15922384D01*
X13437006Y-15722384D02*
X13437006Y-15760479D01*
X13513197Y-15722384D02*
X13513197Y-15760479D01*
X13808435Y-15998574D02*
X13798911Y-15989050D01*
X13798911Y-15989050D02*
X13779863Y-15960479D01*
X13779863Y-15960479D02*
X13770340Y-15941431D01*
X13770340Y-15941431D02*
X13760816Y-15912860D01*
X13760816Y-15912860D02*
X13751292Y-15865241D01*
X13751292Y-15865241D02*
X13751292Y-15827146D01*
X13751292Y-15827146D02*
X13760816Y-15779527D01*
X13760816Y-15779527D02*
X13770340Y-15750955D01*
X13770340Y-15750955D02*
X13779863Y-15731908D01*
X13779863Y-15731908D02*
X13798911Y-15703336D01*
X13798911Y-15703336D02*
X13808435Y-15693812D01*
X13875101Y-15741431D02*
X13884625Y-15731908D01*
X13884625Y-15731908D02*
X13903673Y-15722384D01*
X13903673Y-15722384D02*
X13951292Y-15722384D01*
X13951292Y-15722384D02*
X13970340Y-15731908D01*
X13970340Y-15731908D02*
X13979863Y-15741431D01*
X13979863Y-15741431D02*
X13989387Y-15760479D01*
X13989387Y-15760479D02*
X13989387Y-15779527D01*
X13989387Y-15779527D02*
X13979863Y-15808098D01*
X13979863Y-15808098D02*
X13865578Y-15922384D01*
X13865578Y-15922384D02*
X13989387Y-15922384D01*
X14227482Y-15922384D02*
X14227482Y-15722384D01*
X14313197Y-15922384D02*
X14313197Y-15817622D01*
X14313197Y-15817622D02*
X14303673Y-15798574D01*
X14303673Y-15798574D02*
X14284625Y-15789050D01*
X14284625Y-15789050D02*
X14256054Y-15789050D01*
X14256054Y-15789050D02*
X14237006Y-15798574D01*
X14237006Y-15798574D02*
X14227482Y-15808098D01*
X14437006Y-15922384D02*
X14417959Y-15912860D01*
X14417959Y-15912860D02*
X14408435Y-15903336D01*
X14408435Y-15903336D02*
X14398911Y-15884288D01*
X14398911Y-15884288D02*
X14398911Y-15827146D01*
X14398911Y-15827146D02*
X14408435Y-15808098D01*
X14408435Y-15808098D02*
X14417959Y-15798574D01*
X14417959Y-15798574D02*
X14437006Y-15789050D01*
X14437006Y-15789050D02*
X14465578Y-15789050D01*
X14465578Y-15789050D02*
X14484625Y-15798574D01*
X14484625Y-15798574D02*
X14494149Y-15808098D01*
X14494149Y-15808098D02*
X14503673Y-15827146D01*
X14503673Y-15827146D02*
X14503673Y-15884288D01*
X14503673Y-15884288D02*
X14494149Y-15903336D01*
X14494149Y-15903336D02*
X14484625Y-15912860D01*
X14484625Y-15912860D02*
X14465578Y-15922384D01*
X14465578Y-15922384D02*
X14437006Y-15922384D01*
X14617959Y-15922384D02*
X14598911Y-15912860D01*
X14598911Y-15912860D02*
X14589387Y-15893812D01*
X14589387Y-15893812D02*
X14589387Y-15722384D01*
X14770340Y-15912860D02*
X14751292Y-15922384D01*
X14751292Y-15922384D02*
X14713197Y-15922384D01*
X14713197Y-15922384D02*
X14694149Y-15912860D01*
X14694149Y-15912860D02*
X14684625Y-15893812D01*
X14684625Y-15893812D02*
X14684625Y-15817622D01*
X14684625Y-15817622D02*
X14694149Y-15798574D01*
X14694149Y-15798574D02*
X14713197Y-15789050D01*
X14713197Y-15789050D02*
X14751292Y-15789050D01*
X14751292Y-15789050D02*
X14770340Y-15798574D01*
X14770340Y-15798574D02*
X14779863Y-15817622D01*
X14779863Y-15817622D02*
X14779863Y-15836669D01*
X14779863Y-15836669D02*
X14684625Y-15855717D01*
X14856054Y-15912860D02*
X14875102Y-15922384D01*
X14875102Y-15922384D02*
X14913197Y-15922384D01*
X14913197Y-15922384D02*
X14932244Y-15912860D01*
X14932244Y-15912860D02*
X14941768Y-15893812D01*
X14941768Y-15893812D02*
X14941768Y-15884288D01*
X14941768Y-15884288D02*
X14932244Y-15865241D01*
X14932244Y-15865241D02*
X14913197Y-15855717D01*
X14913197Y-15855717D02*
X14884625Y-15855717D01*
X14884625Y-15855717D02*
X14865578Y-15846193D01*
X14865578Y-15846193D02*
X14856054Y-15827146D01*
X14856054Y-15827146D02*
X14856054Y-15817622D01*
X14856054Y-15817622D02*
X14865578Y-15798574D01*
X14865578Y-15798574D02*
X14884625Y-15789050D01*
X14884625Y-15789050D02*
X14913197Y-15789050D01*
X14913197Y-15789050D02*
X14932244Y-15798574D01*
X15008435Y-15998574D02*
X15017959Y-15989050D01*
X15017959Y-15989050D02*
X15037006Y-15960479D01*
X15037006Y-15960479D02*
X15046530Y-15941431D01*
X15046530Y-15941431D02*
X15056054Y-15912860D01*
X15056054Y-15912860D02*
X15065578Y-15865241D01*
X15065578Y-15865241D02*
X15065578Y-15827146D01*
X15065578Y-15827146D02*
X15056054Y-15779527D01*
X15056054Y-15779527D02*
X15046530Y-15750955D01*
X15046530Y-15750955D02*
X15037006Y-15731908D01*
X15037006Y-15731908D02*
X15017959Y-15703336D01*
X15017959Y-15703336D02*
X15008435Y-15693812D01*
X10033372Y-15994900D02*
X10233372Y-16194900D01*
X10233372Y-15994900D02*
X10033372Y-16194900D01*
X10133372Y-15994900D02*
X10133372Y-16194900D01*
X10033372Y-16094900D02*
X10233372Y-16094900D01*
X10484625Y-16005431D02*
X10494149Y-15995908D01*
X10494149Y-15995908D02*
X10513196Y-15986384D01*
X10513196Y-15986384D02*
X10560816Y-15986384D01*
X10560816Y-15986384D02*
X10579863Y-15995908D01*
X10579863Y-15995908D02*
X10589387Y-16005431D01*
X10589387Y-16005431D02*
X10598911Y-16024479D01*
X10598911Y-16024479D02*
X10598911Y-16043527D01*
X10598911Y-16043527D02*
X10589387Y-16072098D01*
X10589387Y-16072098D02*
X10475101Y-16186384D01*
X10475101Y-16186384D02*
X10598911Y-16186384D01*
X10684625Y-16167336D02*
X10694149Y-16176860D01*
X10694149Y-16176860D02*
X10684625Y-16186384D01*
X10684625Y-16186384D02*
X10675101Y-16176860D01*
X10675101Y-16176860D02*
X10684625Y-16167336D01*
X10684625Y-16167336D02*
X10684625Y-16186384D01*
X10817958Y-15986384D02*
X10837006Y-15986384D01*
X10837006Y-15986384D02*
X10856054Y-15995908D01*
X10856054Y-15995908D02*
X10865577Y-16005431D01*
X10865577Y-16005431D02*
X10875101Y-16024479D01*
X10875101Y-16024479D02*
X10884625Y-16062574D01*
X10884625Y-16062574D02*
X10884625Y-16110193D01*
X10884625Y-16110193D02*
X10875101Y-16148288D01*
X10875101Y-16148288D02*
X10865577Y-16167336D01*
X10865577Y-16167336D02*
X10856054Y-16176860D01*
X10856054Y-16176860D02*
X10837006Y-16186384D01*
X10837006Y-16186384D02*
X10817958Y-16186384D01*
X10817958Y-16186384D02*
X10798911Y-16176860D01*
X10798911Y-16176860D02*
X10789387Y-16167336D01*
X10789387Y-16167336D02*
X10779863Y-16148288D01*
X10779863Y-16148288D02*
X10770339Y-16110193D01*
X10770339Y-16110193D02*
X10770339Y-16062574D01*
X10770339Y-16062574D02*
X10779863Y-16024479D01*
X10779863Y-16024479D02*
X10789387Y-16005431D01*
X10789387Y-16005431D02*
X10798911Y-15995908D01*
X10798911Y-15995908D02*
X10817958Y-15986384D01*
X11008435Y-15986384D02*
X11027482Y-15986384D01*
X11027482Y-15986384D02*
X11046530Y-15995908D01*
X11046530Y-15995908D02*
X11056054Y-16005431D01*
X11056054Y-16005431D02*
X11065577Y-16024479D01*
X11065577Y-16024479D02*
X11075101Y-16062574D01*
X11075101Y-16062574D02*
X11075101Y-16110193D01*
X11075101Y-16110193D02*
X11065577Y-16148288D01*
X11065577Y-16148288D02*
X11056054Y-16167336D01*
X11056054Y-16167336D02*
X11046530Y-16176860D01*
X11046530Y-16176860D02*
X11027482Y-16186384D01*
X11027482Y-16186384D02*
X11008435Y-16186384D01*
X11008435Y-16186384D02*
X10989387Y-16176860D01*
X10989387Y-16176860D02*
X10979863Y-16167336D01*
X10979863Y-16167336D02*
X10970339Y-16148288D01*
X10970339Y-16148288D02*
X10960816Y-16110193D01*
X10960816Y-16110193D02*
X10960816Y-16062574D01*
X10960816Y-16062574D02*
X10970339Y-16024479D01*
X10970339Y-16024479D02*
X10979863Y-16005431D01*
X10979863Y-16005431D02*
X10989387Y-15995908D01*
X10989387Y-15995908D02*
X11008435Y-15986384D01*
X11198911Y-15986384D02*
X11217958Y-15986384D01*
X11217958Y-15986384D02*
X11237006Y-15995908D01*
X11237006Y-15995908D02*
X11246530Y-16005431D01*
X11246530Y-16005431D02*
X11256054Y-16024479D01*
X11256054Y-16024479D02*
X11265577Y-16062574D01*
X11265577Y-16062574D02*
X11265577Y-16110193D01*
X11265577Y-16110193D02*
X11256054Y-16148288D01*
X11256054Y-16148288D02*
X11246530Y-16167336D01*
X11246530Y-16167336D02*
X11237006Y-16176860D01*
X11237006Y-16176860D02*
X11217958Y-16186384D01*
X11217958Y-16186384D02*
X11198911Y-16186384D01*
X11198911Y-16186384D02*
X11179863Y-16176860D01*
X11179863Y-16176860D02*
X11170339Y-16167336D01*
X11170339Y-16167336D02*
X11160816Y-16148288D01*
X11160816Y-16148288D02*
X11151292Y-16110193D01*
X11151292Y-16110193D02*
X11151292Y-16062574D01*
X11151292Y-16062574D02*
X11160816Y-16024479D01*
X11160816Y-16024479D02*
X11170339Y-16005431D01*
X11170339Y-16005431D02*
X11179863Y-15995908D01*
X11179863Y-15995908D02*
X11198911Y-15986384D01*
X11351292Y-16186384D02*
X11351292Y-16053050D01*
X11351292Y-16072098D02*
X11360815Y-16062574D01*
X11360815Y-16062574D02*
X11379863Y-16053050D01*
X11379863Y-16053050D02*
X11408435Y-16053050D01*
X11408435Y-16053050D02*
X11427482Y-16062574D01*
X11427482Y-16062574D02*
X11437006Y-16081622D01*
X11437006Y-16081622D02*
X11437006Y-16186384D01*
X11437006Y-16081622D02*
X11446530Y-16062574D01*
X11446530Y-16062574D02*
X11465577Y-16053050D01*
X11465577Y-16053050D02*
X11494149Y-16053050D01*
X11494149Y-16053050D02*
X11513196Y-16062574D01*
X11513196Y-16062574D02*
X11522720Y-16081622D01*
X11522720Y-16081622D02*
X11522720Y-16186384D01*
X11617958Y-16186384D02*
X11617958Y-16053050D01*
X11617958Y-16072098D02*
X11627482Y-16062574D01*
X11627482Y-16062574D02*
X11646530Y-16053050D01*
X11646530Y-16053050D02*
X11675101Y-16053050D01*
X11675101Y-16053050D02*
X11694149Y-16062574D01*
X11694149Y-16062574D02*
X11703673Y-16081622D01*
X11703673Y-16081622D02*
X11703673Y-16186384D01*
X11703673Y-16081622D02*
X11713196Y-16062574D01*
X11713196Y-16062574D02*
X11732244Y-16053050D01*
X11732244Y-16053050D02*
X11760815Y-16053050D01*
X11760815Y-16053050D02*
X11779863Y-16062574D01*
X11779863Y-16062574D02*
X11789387Y-16081622D01*
X11789387Y-16081622D02*
X11789387Y-16186384D01*
X12179863Y-15976860D02*
X12008435Y-16234003D01*
X12437006Y-15986384D02*
X12456054Y-15986384D01*
X12456054Y-15986384D02*
X12475101Y-15995908D01*
X12475101Y-15995908D02*
X12484625Y-16005431D01*
X12484625Y-16005431D02*
X12494149Y-16024479D01*
X12494149Y-16024479D02*
X12503673Y-16062574D01*
X12503673Y-16062574D02*
X12503673Y-16110193D01*
X12503673Y-16110193D02*
X12494149Y-16148288D01*
X12494149Y-16148288D02*
X12484625Y-16167336D01*
X12484625Y-16167336D02*
X12475101Y-16176860D01*
X12475101Y-16176860D02*
X12456054Y-16186384D01*
X12456054Y-16186384D02*
X12437006Y-16186384D01*
X12437006Y-16186384D02*
X12417958Y-16176860D01*
X12417958Y-16176860D02*
X12408435Y-16167336D01*
X12408435Y-16167336D02*
X12398911Y-16148288D01*
X12398911Y-16148288D02*
X12389387Y-16110193D01*
X12389387Y-16110193D02*
X12389387Y-16062574D01*
X12389387Y-16062574D02*
X12398911Y-16024479D01*
X12398911Y-16024479D02*
X12408435Y-16005431D01*
X12408435Y-16005431D02*
X12417958Y-15995908D01*
X12417958Y-15995908D02*
X12437006Y-15986384D01*
X12589387Y-16167336D02*
X12598911Y-16176860D01*
X12598911Y-16176860D02*
X12589387Y-16186384D01*
X12589387Y-16186384D02*
X12579863Y-16176860D01*
X12579863Y-16176860D02*
X12589387Y-16167336D01*
X12589387Y-16167336D02*
X12589387Y-16186384D01*
X12722720Y-15986384D02*
X12741768Y-15986384D01*
X12741768Y-15986384D02*
X12760816Y-15995908D01*
X12760816Y-15995908D02*
X12770339Y-16005431D01*
X12770339Y-16005431D02*
X12779863Y-16024479D01*
X12779863Y-16024479D02*
X12789387Y-16062574D01*
X12789387Y-16062574D02*
X12789387Y-16110193D01*
X12789387Y-16110193D02*
X12779863Y-16148288D01*
X12779863Y-16148288D02*
X12770339Y-16167336D01*
X12770339Y-16167336D02*
X12760816Y-16176860D01*
X12760816Y-16176860D02*
X12741768Y-16186384D01*
X12741768Y-16186384D02*
X12722720Y-16186384D01*
X12722720Y-16186384D02*
X12703673Y-16176860D01*
X12703673Y-16176860D02*
X12694149Y-16167336D01*
X12694149Y-16167336D02*
X12684625Y-16148288D01*
X12684625Y-16148288D02*
X12675101Y-16110193D01*
X12675101Y-16110193D02*
X12675101Y-16062574D01*
X12675101Y-16062574D02*
X12684625Y-16024479D01*
X12684625Y-16024479D02*
X12694149Y-16005431D01*
X12694149Y-16005431D02*
X12703673Y-15995908D01*
X12703673Y-15995908D02*
X12722720Y-15986384D01*
X12856054Y-15986384D02*
X12989387Y-15986384D01*
X12989387Y-15986384D02*
X12903673Y-16186384D01*
X13094149Y-16072098D02*
X13075101Y-16062574D01*
X13075101Y-16062574D02*
X13065578Y-16053050D01*
X13065578Y-16053050D02*
X13056054Y-16034003D01*
X13056054Y-16034003D02*
X13056054Y-16024479D01*
X13056054Y-16024479D02*
X13065578Y-16005431D01*
X13065578Y-16005431D02*
X13075101Y-15995908D01*
X13075101Y-15995908D02*
X13094149Y-15986384D01*
X13094149Y-15986384D02*
X13132244Y-15986384D01*
X13132244Y-15986384D02*
X13151292Y-15995908D01*
X13151292Y-15995908D02*
X13160816Y-16005431D01*
X13160816Y-16005431D02*
X13170339Y-16024479D01*
X13170339Y-16024479D02*
X13170339Y-16034003D01*
X13170339Y-16034003D02*
X13160816Y-16053050D01*
X13160816Y-16053050D02*
X13151292Y-16062574D01*
X13151292Y-16062574D02*
X13132244Y-16072098D01*
X13132244Y-16072098D02*
X13094149Y-16072098D01*
X13094149Y-16072098D02*
X13075101Y-16081622D01*
X13075101Y-16081622D02*
X13065578Y-16091146D01*
X13065578Y-16091146D02*
X13056054Y-16110193D01*
X13056054Y-16110193D02*
X13056054Y-16148288D01*
X13056054Y-16148288D02*
X13065578Y-16167336D01*
X13065578Y-16167336D02*
X13075101Y-16176860D01*
X13075101Y-16176860D02*
X13094149Y-16186384D01*
X13094149Y-16186384D02*
X13132244Y-16186384D01*
X13132244Y-16186384D02*
X13151292Y-16176860D01*
X13151292Y-16176860D02*
X13160816Y-16167336D01*
X13160816Y-16167336D02*
X13170339Y-16148288D01*
X13170339Y-16148288D02*
X13170339Y-16110193D01*
X13170339Y-16110193D02*
X13160816Y-16091146D01*
X13160816Y-16091146D02*
X13151292Y-16081622D01*
X13151292Y-16081622D02*
X13132244Y-16072098D01*
X13237006Y-15986384D02*
X13370339Y-15986384D01*
X13370339Y-15986384D02*
X13284625Y-16186384D01*
X13437006Y-15986384D02*
X13437006Y-16024479D01*
X13513197Y-15986384D02*
X13513197Y-16024479D01*
X13808435Y-16262574D02*
X13798911Y-16253050D01*
X13798911Y-16253050D02*
X13779863Y-16224479D01*
X13779863Y-16224479D02*
X13770340Y-16205431D01*
X13770340Y-16205431D02*
X13760816Y-16176860D01*
X13760816Y-16176860D02*
X13751292Y-16129241D01*
X13751292Y-16129241D02*
X13751292Y-16091146D01*
X13751292Y-16091146D02*
X13760816Y-16043527D01*
X13760816Y-16043527D02*
X13770340Y-16014955D01*
X13770340Y-16014955D02*
X13779863Y-15995908D01*
X13779863Y-15995908D02*
X13798911Y-15967336D01*
X13798911Y-15967336D02*
X13808435Y-15957812D01*
X13970340Y-16053050D02*
X13970340Y-16186384D01*
X13922720Y-15976860D02*
X13875101Y-16119717D01*
X13875101Y-16119717D02*
X13998911Y-16119717D01*
X14227482Y-16186384D02*
X14227482Y-15986384D01*
X14313197Y-16186384D02*
X14313197Y-16081622D01*
X14313197Y-16081622D02*
X14303673Y-16062574D01*
X14303673Y-16062574D02*
X14284625Y-16053050D01*
X14284625Y-16053050D02*
X14256054Y-16053050D01*
X14256054Y-16053050D02*
X14237006Y-16062574D01*
X14237006Y-16062574D02*
X14227482Y-16072098D01*
X14437006Y-16186384D02*
X14417959Y-16176860D01*
X14417959Y-16176860D02*
X14408435Y-16167336D01*
X14408435Y-16167336D02*
X14398911Y-16148288D01*
X14398911Y-16148288D02*
X14398911Y-16091146D01*
X14398911Y-16091146D02*
X14408435Y-16072098D01*
X14408435Y-16072098D02*
X14417959Y-16062574D01*
X14417959Y-16062574D02*
X14437006Y-16053050D01*
X14437006Y-16053050D02*
X14465578Y-16053050D01*
X14465578Y-16053050D02*
X14484625Y-16062574D01*
X14484625Y-16062574D02*
X14494149Y-16072098D01*
X14494149Y-16072098D02*
X14503673Y-16091146D01*
X14503673Y-16091146D02*
X14503673Y-16148288D01*
X14503673Y-16148288D02*
X14494149Y-16167336D01*
X14494149Y-16167336D02*
X14484625Y-16176860D01*
X14484625Y-16176860D02*
X14465578Y-16186384D01*
X14465578Y-16186384D02*
X14437006Y-16186384D01*
X14617959Y-16186384D02*
X14598911Y-16176860D01*
X14598911Y-16176860D02*
X14589387Y-16157812D01*
X14589387Y-16157812D02*
X14589387Y-15986384D01*
X14770340Y-16176860D02*
X14751292Y-16186384D01*
X14751292Y-16186384D02*
X14713197Y-16186384D01*
X14713197Y-16186384D02*
X14694149Y-16176860D01*
X14694149Y-16176860D02*
X14684625Y-16157812D01*
X14684625Y-16157812D02*
X14684625Y-16081622D01*
X14684625Y-16081622D02*
X14694149Y-16062574D01*
X14694149Y-16062574D02*
X14713197Y-16053050D01*
X14713197Y-16053050D02*
X14751292Y-16053050D01*
X14751292Y-16053050D02*
X14770340Y-16062574D01*
X14770340Y-16062574D02*
X14779863Y-16081622D01*
X14779863Y-16081622D02*
X14779863Y-16100669D01*
X14779863Y-16100669D02*
X14684625Y-16119717D01*
X14856054Y-16176860D02*
X14875102Y-16186384D01*
X14875102Y-16186384D02*
X14913197Y-16186384D01*
X14913197Y-16186384D02*
X14932244Y-16176860D01*
X14932244Y-16176860D02*
X14941768Y-16157812D01*
X14941768Y-16157812D02*
X14941768Y-16148288D01*
X14941768Y-16148288D02*
X14932244Y-16129241D01*
X14932244Y-16129241D02*
X14913197Y-16119717D01*
X14913197Y-16119717D02*
X14884625Y-16119717D01*
X14884625Y-16119717D02*
X14865578Y-16110193D01*
X14865578Y-16110193D02*
X14856054Y-16091146D01*
X14856054Y-16091146D02*
X14856054Y-16081622D01*
X14856054Y-16081622D02*
X14865578Y-16062574D01*
X14865578Y-16062574D02*
X14884625Y-16053050D01*
X14884625Y-16053050D02*
X14913197Y-16053050D01*
X14913197Y-16053050D02*
X14932244Y-16062574D01*
X15008435Y-16262574D02*
X15017959Y-16253050D01*
X15017959Y-16253050D02*
X15037006Y-16224479D01*
X15037006Y-16224479D02*
X15046530Y-16205431D01*
X15046530Y-16205431D02*
X15056054Y-16176860D01*
X15056054Y-16176860D02*
X15065578Y-16129241D01*
X15065578Y-16129241D02*
X15065578Y-16091146D01*
X15065578Y-16091146D02*
X15056054Y-16043527D01*
X15056054Y-16043527D02*
X15046530Y-16014955D01*
X15046530Y-16014955D02*
X15037006Y-15995908D01*
X15037006Y-15995908D02*
X15017959Y-15967336D01*
X15017959Y-15967336D02*
X15008435Y-15957812D01*
M02*
