%TF.GenerationSoftware,KiCad,Pcbnew,8.0.7-8.0.7-0~ubuntu24.04.1*%
%TF.CreationDate,2024-12-13T16:46:42+09:00*%
%TF.ProjectId,MRM5-tester,4d524d35-2d74-4657-9374-65722e6b6963,rev?*%
%TF.SameCoordinates,Original*%
%TF.FileFunction,Paste,Top*%
%TF.FilePolarity,Positive*%
%FSLAX46Y46*%
G04 Gerber Fmt 4.6, Leading zero omitted, Abs format (unit mm)*
G04 Created by KiCad (PCBNEW 8.0.7-8.0.7-0~ubuntu24.04.1) date 2024-12-13 16:46:42*
%MOMM*%
%LPD*%
G01*
G04 APERTURE LIST*
G04 Aperture macros list*
%AMRoundRect*
0 Rectangle with rounded corners*
0 $1 Rounding radius*
0 $2 $3 $4 $5 $6 $7 $8 $9 X,Y pos of 4 corners*
0 Add a 4 corners polygon primitive as box body*
4,1,4,$2,$3,$4,$5,$6,$7,$8,$9,$2,$3,0*
0 Add four circle primitives for the rounded corners*
1,1,$1+$1,$2,$3*
1,1,$1+$1,$4,$5*
1,1,$1+$1,$6,$7*
1,1,$1+$1,$8,$9*
0 Add four rect primitives between the rounded corners*
20,1,$1+$1,$2,$3,$4,$5,0*
20,1,$1+$1,$4,$5,$6,$7,0*
20,1,$1+$1,$6,$7,$8,$9,0*
20,1,$1+$1,$8,$9,$2,$3,0*%
G04 Aperture macros list end*
%ADD10R,1.475000X0.450000*%
%ADD11R,2.160000X3.350000*%
%ADD12RoundRect,0.250000X0.625000X-0.375000X0.625000X0.375000X-0.625000X0.375000X-0.625000X-0.375000X0*%
%ADD13RoundRect,0.250000X0.325000X0.650000X-0.325000X0.650000X-0.325000X-0.650000X0.325000X-0.650000X0*%
%ADD14RoundRect,0.135000X-0.185000X0.135000X-0.185000X-0.135000X0.185000X-0.135000X0.185000X0.135000X0*%
%ADD15RoundRect,0.225000X0.250000X-0.225000X0.250000X0.225000X-0.250000X0.225000X-0.250000X-0.225000X0*%
%ADD16RoundRect,0.225000X0.225000X0.250000X-0.225000X0.250000X-0.225000X-0.250000X0.225000X-0.250000X0*%
%ADD17RoundRect,0.135000X0.135000X0.185000X-0.135000X0.185000X-0.135000X-0.185000X0.135000X-0.185000X0*%
%ADD18R,0.300000X1.050000*%
%ADD19R,1.050000X0.300000*%
%ADD20R,3.220000X3.220000*%
G04 APERTURE END LIST*
D10*
%TO.C,IC1*%
X105762000Y-70175000D03*
X105762000Y-70825000D03*
X105762000Y-71475000D03*
X105762000Y-72125000D03*
X105762000Y-72775000D03*
X105762000Y-73425000D03*
X105762000Y-74075000D03*
X105762000Y-74725000D03*
X105762000Y-75375000D03*
X105762000Y-76025000D03*
X111638000Y-76025000D03*
X111638000Y-75375000D03*
X111638000Y-74725000D03*
X111638000Y-74075000D03*
X111638000Y-73425000D03*
X111638000Y-72775000D03*
X111638000Y-72125000D03*
X111638000Y-71475000D03*
X111638000Y-70825000D03*
X111638000Y-70175000D03*
%TD*%
D11*
%TO.C,SW3*%
X107200000Y-90550000D03*
X107200000Y-80700000D03*
%TD*%
%TO.C,SW1*%
X101400000Y-90550000D03*
X101400000Y-80700000D03*
%TD*%
%TO.C,SW2*%
X95600000Y-90550000D03*
X95600000Y-80700000D03*
%TD*%
D12*
%TO.C,LED7*%
X81000000Y-134202000D03*
X81000000Y-131402000D03*
%TD*%
%TO.C,LED2*%
X81000000Y-78533670D03*
X81000000Y-75733670D03*
%TD*%
D13*
%TO.C,C23*%
X122428000Y-85090000D03*
X119478000Y-85090000D03*
%TD*%
D12*
%TO.C,LED1*%
X81000000Y-67400000D03*
X81000000Y-64600000D03*
%TD*%
D14*
%TO.C,R27*%
X119000000Y-96390000D03*
X119000000Y-97410000D03*
%TD*%
D12*
%TO.C,LED6*%
X81000000Y-111934668D03*
X81000000Y-109134668D03*
%TD*%
D15*
%TO.C,C1*%
X99100000Y-73950000D03*
X99100000Y-72400000D03*
%TD*%
D16*
%TO.C,C25*%
X130600000Y-81200000D03*
X129050000Y-81200000D03*
%TD*%
%TO.C,C21*%
X130600000Y-85100000D03*
X129050000Y-85100000D03*
%TD*%
D12*
%TO.C,LED3*%
X81000000Y-89667336D03*
X81000000Y-86867336D03*
%TD*%
%TO.C,LED5*%
X81000000Y-123068334D03*
X81000000Y-120268334D03*
%TD*%
D13*
%TO.C,C22*%
X122509000Y-81041500D03*
X119559000Y-81041500D03*
%TD*%
D14*
%TO.C,R25*%
X123374000Y-96406000D03*
X123374000Y-97426000D03*
%TD*%
D15*
%TO.C,C2*%
X101000000Y-73975000D03*
X101000000Y-72425000D03*
%TD*%
D17*
%TO.C,R26*%
X127394000Y-93736000D03*
X126374000Y-93736000D03*
%TD*%
D12*
%TO.C,LED4*%
X81000000Y-100801002D03*
X81000000Y-98001002D03*
%TD*%
D18*
%TO.C,IC4*%
X123174000Y-88836000D03*
X122174000Y-88836000D03*
X121174000Y-88836000D03*
D19*
X119824000Y-90186000D03*
X119824000Y-91186000D03*
X119824000Y-92186000D03*
D18*
X121174000Y-93536000D03*
X122174000Y-93536000D03*
X123174000Y-93536000D03*
D19*
X124524000Y-92186000D03*
X124524000Y-91186000D03*
X124524000Y-90186000D03*
D20*
X122174000Y-91186000D03*
%TD*%
M02*
