%TF.GenerationSoftware,KiCad,Pcbnew,8.0.7-8.0.7-0~ubuntu22.04.1*%
%TF.CreationDate,2024-12-09T16:30:22+09:00*%
%TF.ProjectId,MRM5-tester,4d524d35-2d74-4657-9374-65722e6b6963,rev?*%
%TF.SameCoordinates,Original*%
%TF.FileFunction,Copper,L2,Bot*%
%TF.FilePolarity,Positive*%
%FSLAX46Y46*%
G04 Gerber Fmt 4.6, Leading zero omitted, Abs format (unit mm)*
G04 Created by KiCad (PCBNEW 8.0.7-8.0.7-0~ubuntu22.04.1) date 2024-12-09 16:30:22*
%MOMM*%
%LPD*%
G01*
G04 APERTURE LIST*
G04 Aperture macros list*
%AMRoundRect*
0 Rectangle with rounded corners*
0 $1 Rounding radius*
0 $2 $3 $4 $5 $6 $7 $8 $9 X,Y pos of 4 corners*
0 Add a 4 corners polygon primitive as box body*
4,1,4,$2,$3,$4,$5,$6,$7,$8,$9,$2,$3,0*
0 Add four circle primitives for the rounded corners*
1,1,$1+$1,$2,$3*
1,1,$1+$1,$4,$5*
1,1,$1+$1,$6,$7*
1,1,$1+$1,$8,$9*
0 Add four rect primitives between the rounded corners*
20,1,$1+$1,$2,$3,$4,$5,0*
20,1,$1+$1,$4,$5,$6,$7,0*
20,1,$1+$1,$6,$7,$8,$9,0*
20,1,$1+$1,$8,$9,$2,$3,0*%
G04 Aperture macros list end*
%TA.AperFunction,SMDPad,CuDef*%
%ADD10RoundRect,0.218750X0.256250X-0.218750X0.256250X0.218750X-0.256250X0.218750X-0.256250X-0.218750X0*%
%TD*%
%TA.AperFunction,ComponentPad*%
%ADD11C,3.500000*%
%TD*%
%TA.AperFunction,ComponentPad*%
%ADD12R,1.500000X1.500000*%
%TD*%
%TA.AperFunction,ComponentPad*%
%ADD13C,1.500000*%
%TD*%
%TA.AperFunction,ComponentPad*%
%ADD14C,2.400000*%
%TD*%
%TA.AperFunction,ComponentPad*%
%ADD15O,2.400000X2.400000*%
%TD*%
%TA.AperFunction,ComponentPad*%
%ADD16C,1.200000*%
%TD*%
%TA.AperFunction,ComponentPad*%
%ADD17C,1.600000*%
%TD*%
%TA.AperFunction,ComponentPad*%
%ADD18C,1.400000*%
%TD*%
%TA.AperFunction,SMDPad,CuDef*%
%ADD19C,2.000000*%
%TD*%
%TA.AperFunction,ComponentPad*%
%ADD20R,1.700000X1.700000*%
%TD*%
%TA.AperFunction,ComponentPad*%
%ADD21O,1.700000X1.700000*%
%TD*%
%TA.AperFunction,ViaPad*%
%ADD22C,0.600000*%
%TD*%
%TA.AperFunction,ViaPad*%
%ADD23C,0.800000*%
%TD*%
%TA.AperFunction,Conductor*%
%ADD24C,0.300000*%
%TD*%
%TA.AperFunction,Conductor*%
%ADD25C,0.200000*%
%TD*%
%TA.AperFunction,Conductor*%
%ADD26C,0.500000*%
%TD*%
%TA.AperFunction,Conductor*%
%ADD27C,0.700000*%
%TD*%
%TA.AperFunction,Conductor*%
%ADD28C,0.800000*%
%TD*%
%TA.AperFunction,Conductor*%
%ADD29C,1.000000*%
%TD*%
G04 APERTURE END LIST*
D10*
%TO.P,LED7,2,A*%
%TO.N,/analog/3V3*%
X108458000Y-135128000D03*
%TO.P,LED7,1,K*%
%TO.N,Net-(LED7-K)*%
X108458000Y-136703000D03*
%TD*%
%TO.P,LED6,2,A*%
%TO.N,Net-(LED6-A)*%
X136567332Y-135128000D03*
%TO.P,LED6,1,K*%
%TO.N,Net-(LED6-K)*%
X136567332Y-136703000D03*
%TD*%
%TO.P,LED5,2,A*%
%TO.N,Net-(LED5-A)*%
X122512666Y-135128000D03*
%TO.P,LED5,1,K*%
%TO.N,Net-(LED5-K)*%
X122512666Y-136703000D03*
%TD*%
%TO.P,LED4,2,A*%
%TO.N,Net-(LED4-A)*%
X150621998Y-135128000D03*
%TO.P,LED4,1,K*%
%TO.N,Net-(LED4-K)*%
X150621998Y-136703000D03*
%TD*%
%TO.P,LED3,2,A*%
%TO.N,Net-(LED3-A)*%
X164676664Y-135128000D03*
%TO.P,LED3,1,K*%
%TO.N,Net-(LED3-K)*%
X164676664Y-136703000D03*
%TD*%
%TO.P,LED2,2,A*%
%TO.N,Net-(LED2-A)*%
X178731330Y-135128000D03*
%TO.P,LED2,1,K*%
%TO.N,Net-(LED2-K)*%
X178731330Y-136703000D03*
%TD*%
%TO.P,LED1,1,K*%
%TO.N,Net-(LED1-K)*%
X192786000Y-136703000D03*
%TO.P,LED1,2,A*%
%TO.N,Net-(LED1-A)*%
X192786000Y-135128000D03*
%TD*%
D11*
%TO.P,P1,1*%
%TO.N,/interface/Vp_h*%
X106198000Y-67020000D03*
%TD*%
D12*
%TO.P,RT1,1*%
%TO.N,/interface/Vp_h*%
X112922000Y-67274000D03*
D13*
%TO.P,RT1,2*%
%TO.N,/analog/Vp_sh*%
X120422000Y-67274000D03*
%TD*%
D12*
%TO.P,PS1,1,AC_1*%
%TO.N,/power/FL1_out1_sh*%
X153250000Y-70750000D03*
D13*
%TO.P,PS1,2,AC_2*%
%TO.N,/power/FL1_out2_sh*%
X153250000Y-89050000D03*
%TO.P,PS1,3,-V0*%
%TO.N,GND*%
X194850000Y-68450000D03*
%TO.P,PS1,4,+V0*%
%TO.N,/interface/5V*%
X194850000Y-89050000D03*
%TD*%
D11*
%TO.P,P4,1*%
%TO.N,/analog/1V6*%
X106116000Y-103378000D03*
%TD*%
D14*
%TO.P,R24,1*%
%TO.N,/analog/Zfreed*%
X134900000Y-120360000D03*
D15*
%TO.P,R24,2*%
%TO.N,Net-(P3-Pad1)*%
X112040000Y-120360000D03*
%TD*%
D12*
%TO.P,T1,1,1*%
%TO.N,/analog/Vp_ssh*%
X127408000Y-87376000D03*
D13*
%TO.P,T1,2,2*%
%TO.N,/analog/Vn_h*%
X127408000Y-94576000D03*
%TO.P,T1,3,3*%
%TO.N,Net-(D2-A{slash}K)*%
X143708000Y-87376000D03*
%TO.P,T1,4,4*%
%TO.N,/analog/1V6*%
X143708000Y-94576000D03*
%TD*%
D11*
%TO.P,P2,1*%
%TO.N,/analog/Vn_h*%
X106198000Y-90134000D03*
%TD*%
D16*
%TO.P,R17,1,1*%
%TO.N,/analog/Vp_sh*%
X122880000Y-73284000D03*
%TO.P,R17,2,2*%
%TO.N,/analog/Vp_ssh*%
X122880000Y-89784000D03*
%TD*%
D12*
%TO.P,RV1,1*%
%TO.N,/analog/Vn_h*%
X108758000Y-82708000D03*
D13*
%TO.P,RV1,2*%
%TO.N,/interface/Vp_h*%
X108758000Y-75208000D03*
%TD*%
D17*
%TO.P,C26,1*%
%TO.N,/interface/5V*%
X193080000Y-97524000D03*
%TO.P,C26,2*%
%TO.N,GND*%
X195580000Y-97524000D03*
%TD*%
D11*
%TO.P,P3,1*%
%TO.N,Net-(P3-Pad1)*%
X106116000Y-120396000D03*
%TD*%
D12*
%TO.P,C20,1*%
%TO.N,/analog/Vn_h*%
X116358000Y-89132000D03*
D13*
%TO.P,C20,2*%
%TO.N,/analog/Vp_sh*%
X116358000Y-74132000D03*
%TD*%
D18*
%TO.P,FL1,1*%
%TO.N,/analog/Vp_sh*%
X130750000Y-67750000D03*
%TO.P,FL1,2*%
%TO.N,/analog/Vn_h*%
X130750000Y-77750000D03*
%TO.P,FL1,3*%
%TO.N,/power/FL1_out2_sh*%
X143750000Y-77750000D03*
%TO.P,FL1,4*%
%TO.N,/power/FL1_out1_sh*%
X143750000Y-67750000D03*
%TD*%
D19*
%TO.P,TP1,1,1*%
%TO.N,Net-(U2A--)*%
X137358000Y-101600000D03*
%TD*%
%TO.P,TP2,1,1*%
%TO.N,/analog/Zfreed*%
X139500000Y-120500000D03*
%TD*%
D20*
%TO.P,J3,1,Pin_1*%
%TO.N,/analog/3V3*%
X161234000Y-119634000D03*
D21*
%TO.P,J3,2,Pin_2*%
%TO.N,/interface/UART_RXD*%
X163774000Y-119634000D03*
%TO.P,J3,3,Pin_3*%
%TO.N,/interface/UART_TXD*%
X166314000Y-119634000D03*
%TO.P,J3,4,Pin_4*%
%TO.N,GND*%
X168854000Y-119634000D03*
%TO.P,J3,5,Pin_5*%
%TO.N,/interface/5V*%
X171394000Y-119634000D03*
%TD*%
D20*
%TO.P,J1,1,Pin_1*%
%TO.N,GND*%
X173934000Y-99822000D03*
D21*
%TO.P,J1,2,Pin_2*%
%TO.N,/interface/STLINK_RST*%
X171394000Y-99822000D03*
%TO.P,J1,3,Pin_3*%
%TO.N,/interface/STLINK_CLK*%
X168854000Y-99822000D03*
%TO.P,J1,4,Pin_4*%
%TO.N,/interface/STLINK_DIO*%
X166314000Y-99822000D03*
%TO.P,J1,5,Pin_5*%
%TO.N,/analog/3V3*%
X163774000Y-99822000D03*
%TD*%
D20*
%TO.P,J6,1,Pin_1*%
%TO.N,GND*%
X156921000Y-99822000D03*
D21*
%TO.P,J6,2,Pin_2*%
%TO.N,/interface/SYNC*%
X154381000Y-99822000D03*
%TD*%
D20*
%TO.P,J2,1,Pin_1*%
%TO.N,/interface/PUSH_BTN*%
X174000000Y-104000000D03*
D21*
%TO.P,J2,2,Pin_2*%
%TO.N,/interface/STLINK_RST*%
X171460000Y-104000000D03*
%TD*%
D19*
%TO.P,TP3,1,1*%
%TO.N,/analog/sigV*%
X143200000Y-101600000D03*
%TD*%
D20*
%TO.P,J5,1,Pin_1*%
%TO.N,GND*%
X185166000Y-99822000D03*
D21*
%TO.P,J5,2,Pin_2*%
%TO.N,/interface/5V*%
X187706000Y-99822000D03*
%TD*%
D22*
%TO.N,GND*%
X189484000Y-129286000D03*
X187325000Y-131191000D03*
D23*
%TO.N,/interface/5V*%
X182372000Y-111760000D03*
%TO.N,GND*%
X193548000Y-115062000D03*
X127198000Y-123698000D03*
X134818000Y-114046000D03*
X194818000Y-101600000D03*
X138882000Y-105918000D03*
X151582000Y-100838000D03*
X165250000Y-109000000D03*
X171500000Y-110500000D03*
X175613000Y-134465000D03*
D22*
X171450000Y-125730000D03*
D23*
X162250000Y-105664000D03*
X140189000Y-117156000D03*
X190500000Y-109750000D03*
X183388000Y-133858000D03*
X157424000Y-104648000D03*
X167750000Y-110500000D03*
X128722000Y-128778000D03*
X179776000Y-97536000D03*
X185618000Y-114046000D03*
X161000000Y-122500000D03*
X129992000Y-102870000D03*
X162500000Y-111500000D03*
X184856000Y-101854000D03*
X137104000Y-108458000D03*
X111196000Y-100584000D03*
X122372000Y-104140000D03*
X111958000Y-106934000D03*
X153868000Y-124714000D03*
X129484000Y-108458000D03*
D22*
%TO.N,/analog/3V3*%
X117038000Y-131064000D03*
D23*
X168656000Y-122936000D03*
X132532000Y-128016000D03*
X147531000Y-121425000D03*
X150566000Y-128016000D03*
X124404000Y-101346000D03*
X134056000Y-99060000D03*
%TO.N,/interface/5V*%
X196540000Y-109474000D03*
X189174000Y-104902000D03*
%TO.N,/analog/1V6*%
X131262000Y-106172000D03*
X126182000Y-106680000D03*
X132786000Y-102870000D03*
X127198000Y-125730000D03*
X123642000Y-111506000D03*
X147518000Y-119126000D03*
X119324000Y-113538000D03*
X124912000Y-99822000D03*
X134818000Y-124714000D03*
X121102000Y-118872000D03*
D22*
%TO.N,/analog/sigV*%
X141930000Y-101346000D03*
X143708000Y-103845000D03*
%TO.N,Net-(LED2-A)*%
X180284000Y-135382000D03*
%TO.N,Net-(LED2-K)*%
X180284000Y-136398000D03*
%TO.N,Net-(LED3-A)*%
X163012000Y-135382000D03*
%TO.N,Net-(LED3-K)*%
X163012000Y-136398000D03*
%TO.N,Net-(LED4-K)*%
X149342000Y-136352000D03*
%TO.N,Net-(LED5-A)*%
X121102000Y-135382000D03*
%TO.N,Net-(LED5-K)*%
X121102000Y-136398000D03*
%TO.N,Net-(LED6-K)*%
X135326000Y-136398000D03*
%TO.N,Net-(LED6-A)*%
X135326000Y-135382000D03*
%TO.N,Net-(LED7-K)*%
X109926000Y-136398000D03*
%TO.N,/mcu/1V6_TFlag*%
X116684000Y-101500000D03*
X159075000Y-122047000D03*
%TO.N,/mcu/1V6_IFlag*%
X144750000Y-111750000D03*
X158735000Y-117856000D03*
%TO.N,/analog/Z_TFlag*%
X149296000Y-119888000D03*
X156535000Y-122047000D03*
%TO.N,/analog/Z_IFlag*%
X154630000Y-119126000D03*
X137231000Y-118237000D03*
%TO.N,/interface/STLINK_RST*%
X158948000Y-105918000D03*
%TO.N,/interface/PUSH_BTN*%
X175750000Y-107000000D03*
%TO.N,/interface/SYNC*%
X155392000Y-108966000D03*
%TO.N,/interface/STLINK_CLK*%
X164028000Y-117348000D03*
%TO.N,/interface/UART_TXD*%
X165044000Y-114300000D03*
X164282000Y-109728000D03*
X177236000Y-111760000D03*
X172156000Y-108204000D03*
%TO.N,/interface/UART_RTS*%
X175966000Y-109982000D03*
X173934000Y-108204000D03*
%TO.N,/interface/STLINK_DIO*%
X161996000Y-117856000D03*
%TO.N,Net-(Q1-B)*%
X157424000Y-123952000D03*
X170632000Y-128778000D03*
%TO.N,Net-(Q2-B)*%
X157424000Y-122682000D03*
X181610000Y-130556000D03*
%TO.N,Net-(Q3-B)*%
X156662000Y-124714000D03*
X164028000Y-128778000D03*
%TO.N,Net-(Q4-B)*%
X149296000Y-125476000D03*
X150820000Y-129540000D03*
%TO.N,Net-(U2A--)*%
X136596000Y-102616000D03*
%TO.N,Net-(C18-Pad1)*%
X139644000Y-101346000D03*
X143708000Y-106426000D03*
%TO.N,Net-(LED1-K)*%
X194000000Y-136398000D03*
%TO.N,Net-(LED1-A)*%
X194000000Y-135382000D03*
%TO.N,Net-(LED4-A)*%
X149296000Y-135382000D03*
%TO.N,Net-(D1-L1)*%
X187142000Y-110490000D03*
X187523000Y-108077000D03*
D23*
%TO.N,/analog/Zfreed*%
X143454000Y-119126000D03*
%TD*%
D24*
%TO.N,GND*%
X196088000Y-119991370D02*
X189662685Y-126416685D01*
X189662685Y-126416685D02*
X186539370Y-129540000D01*
X189484000Y-129286000D02*
X189738000Y-129032000D01*
X189738000Y-129032000D02*
X189738000Y-126492000D01*
X189738000Y-126492000D02*
X189662685Y-126416685D01*
X184912000Y-133604000D02*
X187325000Y-131191000D01*
X183642000Y-133604000D02*
X184912000Y-133604000D01*
X183388000Y-133858000D02*
X183642000Y-133604000D01*
D25*
%TO.N,Net-(Q2-B)*%
X157932000Y-122682000D02*
X157424000Y-122682000D01*
X181610000Y-130556000D02*
X181610000Y-130048000D01*
X181610000Y-130048000D02*
X179324000Y-127762000D01*
X179324000Y-127762000D02*
X168092000Y-127762000D01*
X168092000Y-127762000D02*
X165044000Y-124714000D01*
X165044000Y-124714000D02*
X159964000Y-124714000D01*
X159964000Y-124714000D02*
X157932000Y-122682000D01*
D24*
%TO.N,GND*%
X175613000Y-134465000D02*
X175260000Y-134112000D01*
X175260000Y-134112000D02*
X163266000Y-134112000D01*
X175613000Y-134465000D02*
X175966000Y-134112000D01*
X175966000Y-134112000D02*
X183134000Y-134112000D01*
X183134000Y-134112000D02*
X183388000Y-133858000D01*
X163266000Y-134112000D02*
X153868000Y-124714000D01*
X183078000Y-133548000D02*
X183078000Y-129540000D01*
X183388000Y-133858000D02*
X183078000Y-133548000D01*
D26*
%TO.N,Net-(LED7-K)*%
X108458000Y-136703000D02*
X108509000Y-136652000D01*
X108509000Y-136652000D02*
X109580000Y-136652000D01*
X109580000Y-136652000D02*
X109880000Y-136352000D01*
%TO.N,/analog/3V3*%
X108458000Y-135128000D02*
X110180000Y-135128000D01*
X114244000Y-131064000D02*
X117038000Y-131064000D01*
X110180000Y-135128000D02*
X114244000Y-131064000D01*
D24*
%TO.N,GND*%
X192532000Y-114046000D02*
X185618000Y-114046000D01*
D27*
X129484000Y-109734000D02*
X129484000Y-108458000D01*
X129484000Y-108458000D02*
X129484000Y-104902000D01*
D24*
X140189000Y-117156000D02*
X140127000Y-117094000D01*
X194564000Y-101854000D02*
X184856000Y-101854000D01*
D27*
X117800000Y-99568000D02*
X112212000Y-99568000D01*
D24*
X160472000Y-107442000D02*
X162250000Y-105664000D01*
X195580000Y-100838000D02*
X195580000Y-97524000D01*
D28*
X157424000Y-106674000D02*
X158192000Y-107442000D01*
D24*
X177461112Y-124996888D02*
X176728000Y-125730000D01*
X171000000Y-106750000D02*
X170500000Y-107250000D01*
D28*
X156921000Y-103891000D02*
X156921000Y-101250000D01*
D27*
X136000000Y-109562000D02*
X137104000Y-108458000D01*
D24*
X196088000Y-116134000D02*
X196088000Y-119991370D01*
X198318000Y-86106000D02*
X198318000Y-94786000D01*
D28*
X156921000Y-99822000D02*
X158428000Y-99822000D01*
D24*
X171500000Y-116988000D02*
X171500000Y-110500000D01*
X180250000Y-107000000D02*
X179250000Y-107000000D01*
X198318000Y-94786000D02*
X195580000Y-97524000D01*
D27*
X112212000Y-99568000D02*
X111196000Y-100584000D01*
D24*
X193548000Y-115062000D02*
X192532000Y-114046000D01*
X168854000Y-119634000D02*
X171648000Y-122428000D01*
X193548000Y-115062000D02*
X195016000Y-115062000D01*
X177750000Y-108500000D02*
X175750000Y-108500000D01*
X183078000Y-128016000D02*
X180058888Y-124996888D01*
X170500000Y-109000000D02*
X171506000Y-110006000D01*
X171648000Y-122428000D02*
X171648000Y-125730000D01*
D27*
X122372000Y-104140000D02*
X117800000Y-99568000D01*
D24*
X174000000Y-106750000D02*
X171000000Y-106750000D01*
X190500000Y-109750000D02*
X186204000Y-114046000D01*
X184856000Y-101854000D02*
X184856000Y-102394000D01*
D27*
X129484000Y-104902000D02*
X128722000Y-104140000D01*
D24*
X194818000Y-101600000D02*
X195580000Y-100838000D01*
D27*
X137104000Y-107696000D02*
X137104000Y-108458000D01*
X136000000Y-112864000D02*
X136000000Y-109562000D01*
D24*
X157424000Y-104648000D02*
X157424000Y-104394000D01*
X131770000Y-125730000D02*
X128722000Y-128778000D01*
X175750000Y-108500000D02*
X174000000Y-106750000D01*
D27*
X128722000Y-104140000D02*
X129992000Y-102870000D01*
D24*
X195016000Y-82804000D02*
X198318000Y-86106000D01*
X128722000Y-125222000D02*
X128722000Y-128778000D01*
D28*
X161750000Y-96500000D02*
X178740000Y-96500000D01*
D24*
X168854000Y-119634000D02*
X171500000Y-116988000D01*
D27*
X149042000Y-103378000D02*
X147772000Y-103378000D01*
D28*
X158192000Y-107442000D02*
X160472000Y-107442000D01*
D24*
X179776000Y-97536000D02*
X177490000Y-99822000D01*
D27*
X111196000Y-106172000D02*
X111958000Y-106934000D01*
X134818000Y-114046000D02*
X133796000Y-114046000D01*
D24*
X179250000Y-107000000D02*
X177750000Y-108500000D01*
D27*
X145232000Y-106934000D02*
X144470000Y-107696000D01*
D28*
X158428000Y-99822000D02*
X161750000Y-96500000D01*
D24*
X186539370Y-129540000D02*
X183078000Y-129540000D01*
X171506000Y-110494000D02*
X171500000Y-110500000D01*
X127198000Y-123698000D02*
X128722000Y-125222000D01*
X133294000Y-117094000D02*
X131770000Y-118618000D01*
D27*
X144470000Y-107696000D02*
X140660000Y-107696000D01*
D24*
X183078000Y-129540000D02*
X183078000Y-128016000D01*
X131770000Y-118618000D02*
X131770000Y-125730000D01*
D27*
X140660000Y-107696000D02*
X138882000Y-105918000D01*
D24*
X177490000Y-99822000D02*
X173934000Y-99822000D01*
X184856000Y-102394000D02*
X180250000Y-107000000D01*
X194818000Y-101600000D02*
X194564000Y-101854000D01*
D27*
X122372000Y-104140000D02*
X128722000Y-104140000D01*
D24*
X180058888Y-124996888D02*
X177461112Y-124996888D01*
D27*
X134818000Y-114046000D02*
X136000000Y-112864000D01*
X138882000Y-105918000D02*
X137104000Y-107696000D01*
D28*
X156921000Y-101250000D02*
X156921000Y-99822000D01*
D24*
X195016000Y-68046000D02*
X195016000Y-82804000D01*
D28*
X178740000Y-96500000D02*
X179776000Y-97536000D01*
D24*
X140127000Y-117094000D02*
X133294000Y-117094000D01*
D27*
X133796000Y-114046000D02*
X129484000Y-109734000D01*
X145232000Y-105918000D02*
X145232000Y-106934000D01*
X147772000Y-103378000D02*
X145232000Y-105918000D01*
D24*
X179776000Y-97536000D02*
X182062000Y-99822000D01*
D27*
X151582000Y-100838000D02*
X149042000Y-103378000D01*
D28*
X157424000Y-104394000D02*
X156921000Y-103891000D01*
D24*
X182062000Y-99822000D02*
X185166000Y-99822000D01*
D28*
X157424000Y-104648000D02*
X157424000Y-106674000D01*
D24*
X186204000Y-114046000D02*
X185618000Y-114046000D01*
X170500000Y-107250000D02*
X170500000Y-109000000D01*
D27*
X111196000Y-100584000D02*
X111196000Y-106172000D01*
D24*
X171506000Y-110006000D02*
X171506000Y-110494000D01*
X195016000Y-115062000D02*
X196088000Y-116134000D01*
D27*
%TO.N,/analog/3V3*%
X147531000Y-121425000D02*
X146743000Y-121425000D01*
D29*
X150566000Y-124460000D02*
X150566000Y-128016000D01*
D24*
X124404000Y-101346000D02*
X124658000Y-101600000D01*
D26*
X133548000Y-127000000D02*
X132532000Y-128016000D01*
D29*
X164596888Y-122996888D02*
X160218000Y-118618000D01*
X160218000Y-111506000D02*
X163774000Y-107950000D01*
D26*
X129484000Y-131064000D02*
X117038000Y-131064000D01*
X146743000Y-121425000D02*
X141168000Y-127000000D01*
D29*
X160218000Y-118618000D02*
X160218000Y-111506000D01*
D26*
X141168000Y-127000000D02*
X133548000Y-127000000D01*
D29*
X168628888Y-122996888D02*
X164596888Y-122996888D01*
D26*
X124658000Y-101600000D02*
X131516000Y-101600000D01*
X131516000Y-101600000D02*
X134056000Y-99060000D01*
D29*
X147531000Y-121425000D02*
X150566000Y-124460000D01*
D26*
X132532000Y-128016000D02*
X129484000Y-131064000D01*
D29*
X163774000Y-107950000D02*
X163774000Y-99822000D01*
%TO.N,/interface/5V*%
X194762000Y-107696000D02*
X190698000Y-107696000D01*
X190698000Y-107696000D02*
X189174000Y-106172000D01*
X182316000Y-108966000D02*
X182316000Y-115570000D01*
X189174000Y-104902000D02*
X186380000Y-104902000D01*
X182316000Y-115570000D02*
X178252000Y-119634000D01*
X189174000Y-106172000D02*
X189174000Y-104902000D01*
X186380000Y-104902000D02*
X182316000Y-108966000D01*
X196540000Y-109474000D02*
X194762000Y-107696000D01*
X178252000Y-119634000D02*
X171394000Y-119634000D01*
D24*
%TO.N,/analog/1V6*%
X147518000Y-119126000D02*
X146624000Y-119126000D01*
D29*
X123642000Y-109220000D02*
X126182000Y-106680000D01*
X121102000Y-118872000D02*
X121102000Y-119634000D01*
D28*
X136088000Y-97282000D02*
X136088000Y-99568000D01*
X132786000Y-104648000D02*
X131262000Y-106172000D01*
D24*
X141036000Y-124714000D02*
X134818000Y-124714000D01*
D28*
X136088000Y-97282000D02*
X133294000Y-97282000D01*
X143708000Y-94576000D02*
X141002000Y-97282000D01*
X141002000Y-97282000D02*
X136088000Y-97282000D01*
X132786000Y-102870000D02*
X132786000Y-104648000D01*
X136088000Y-99568000D02*
X132786000Y-102870000D01*
X130754000Y-99822000D02*
X124912000Y-99822000D01*
D29*
X119324000Y-113538000D02*
X121610000Y-113538000D01*
D24*
X146624000Y-119126000D02*
X141036000Y-124714000D01*
D29*
X121610000Y-113538000D02*
X123642000Y-111506000D01*
X123642000Y-111506000D02*
X123642000Y-109220000D01*
D28*
X133294000Y-97282000D02*
X130754000Y-99822000D01*
D29*
X121102000Y-119634000D02*
X127198000Y-125730000D01*
D25*
%TO.N,/analog/sigV*%
X143708000Y-103845000D02*
X143200000Y-103337000D01*
X143200000Y-101600000D02*
X142184000Y-101600000D01*
X143200000Y-103337000D02*
X143200000Y-101600000D01*
X142184000Y-101600000D02*
X141930000Y-101346000D01*
%TO.N,Net-(LED2-A)*%
X178854000Y-135382000D02*
X180284000Y-135382000D01*
%TO.N,Net-(LED2-K)*%
X178854000Y-136352000D02*
X180238000Y-136352000D01*
X180284000Y-136398000D02*
X180238000Y-136352000D01*
%TO.N,Net-(LED3-A)*%
X164768000Y-135382000D02*
X163012000Y-135382000D01*
%TO.N,Net-(LED3-K)*%
X163058000Y-136352000D02*
X163012000Y-136398000D01*
X164768000Y-136352000D02*
X163058000Y-136352000D01*
%TO.N,Net-(LED4-K)*%
X149342000Y-136352000D02*
X150682000Y-136352000D01*
%TO.N,Net-(LED5-A)*%
X121102000Y-135382000D02*
X122510000Y-135382000D01*
%TO.N,Net-(LED5-K)*%
X121102000Y-136398000D02*
X122464000Y-136398000D01*
X122464000Y-136398000D02*
X122510000Y-136352000D01*
%TO.N,Net-(LED6-K)*%
X135326000Y-136398000D02*
X135372000Y-136352000D01*
X135372000Y-136352000D02*
X136596000Y-136352000D01*
%TO.N,Net-(LED6-A)*%
X135326000Y-135382000D02*
X136596000Y-135382000D01*
%TO.N,Net-(LED7-K)*%
X109880000Y-136352000D02*
X109926000Y-136398000D01*
%TO.N,/mcu/1V6_TFlag*%
X158440000Y-118872000D02*
X158440000Y-121412000D01*
X158440000Y-121412000D02*
X159075000Y-122047000D01*
X117546000Y-106680000D02*
X117546000Y-114808000D01*
X116684000Y-105818000D02*
X117546000Y-106680000D01*
X118308000Y-115570000D02*
X135580000Y-115570000D01*
X117546000Y-114808000D02*
X118308000Y-115570000D01*
X135580000Y-115570000D02*
X137212000Y-113938000D01*
X137212000Y-113938000D02*
X153506000Y-113938000D01*
X153506000Y-113938000D02*
X158440000Y-118872000D01*
X116684000Y-101500000D02*
X116684000Y-105818000D01*
%TO.N,/mcu/1V6_IFlag*%
X153750000Y-111750000D02*
X158735000Y-116735000D01*
X144750000Y-111750000D02*
X153750000Y-111750000D01*
X158735000Y-116735000D02*
X158735000Y-117856000D01*
%TO.N,/analog/Z_TFlag*%
X149804000Y-119380000D02*
X149296000Y-119888000D01*
X155519000Y-122047000D02*
X153360000Y-119888000D01*
X152852000Y-119888000D02*
X152090000Y-119126000D01*
X153360000Y-119888000D02*
X152852000Y-119888000D01*
X156535000Y-122047000D02*
X155519000Y-122047000D01*
X150312000Y-119126000D02*
X150058000Y-119380000D01*
X150058000Y-119380000D02*
X149804000Y-119380000D01*
X152090000Y-119126000D02*
X150312000Y-119126000D01*
%TO.N,/analog/Z_IFlag*%
X137612000Y-117856000D02*
X137231000Y-118237000D01*
X137231000Y-118237000D02*
X137104000Y-118364000D01*
X153360000Y-117856000D02*
X137612000Y-117856000D01*
X154630000Y-119126000D02*
X153360000Y-117856000D01*
%TO.N,/interface/STLINK_RST*%
X159964000Y-99822000D02*
X158948000Y-100838000D01*
X171394000Y-99822000D02*
X171394000Y-98552000D01*
X162250000Y-97536000D02*
X159964000Y-99822000D01*
X170378000Y-97536000D02*
X162250000Y-97536000D01*
X171460000Y-104000000D02*
X171460000Y-99888000D01*
X171394000Y-98552000D02*
X170378000Y-97536000D01*
X158948000Y-100838000D02*
X158948000Y-105918000D01*
X171460000Y-99888000D02*
X171394000Y-99822000D01*
%TO.N,/interface/PUSH_BTN*%
X174500000Y-104000000D02*
X174000000Y-104000000D01*
X175750000Y-105250000D02*
X174500000Y-104000000D01*
X175750000Y-107000000D02*
X175750000Y-105250000D01*
D26*
%TO.N,/interface/SYNC*%
X154381000Y-99822000D02*
X154381000Y-107955000D01*
X154381000Y-107955000D02*
X155392000Y-108966000D01*
D25*
%TO.N,/interface/STLINK_CLK*%
X168854000Y-113030000D02*
X168854000Y-99822000D01*
X164028000Y-117348000D02*
X164536000Y-117348000D01*
X164536000Y-117348000D02*
X168854000Y-113030000D01*
%TO.N,/interface/UART_TXD*%
X165044000Y-110490000D02*
X164282000Y-109728000D01*
X165044000Y-114300000D02*
X165044000Y-110490000D01*
X175712000Y-111760000D02*
X177236000Y-111760000D01*
X172156000Y-108204000D02*
X175712000Y-111760000D01*
%TO.N,/interface/UART_RTS*%
X175712000Y-109982000D02*
X175966000Y-109982000D01*
X173934000Y-108204000D02*
X175712000Y-109982000D01*
%TO.N,/interface/STLINK_DIO*%
X166314000Y-114046000D02*
X163012000Y-117348000D01*
X163012000Y-117348000D02*
X162504000Y-117856000D01*
X162504000Y-117856000D02*
X161996000Y-117856000D01*
X166314000Y-99822000D02*
X166314000Y-114046000D01*
%TO.N,Net-(Q1-B)*%
X170632000Y-128778000D02*
X166695000Y-128778000D01*
X163901000Y-125984000D02*
X159456000Y-125984000D01*
X159456000Y-125984000D02*
X157424000Y-123952000D01*
X166695000Y-128778000D02*
X163901000Y-125984000D01*
%TO.N,Net-(Q3-B)*%
X159964000Y-128016000D02*
X156662000Y-124714000D01*
X163266000Y-128016000D02*
X159964000Y-128016000D01*
X164028000Y-128778000D02*
X163266000Y-128016000D01*
%TO.N,Net-(Q4-B)*%
X149296000Y-129032000D02*
X149550000Y-129286000D01*
X149550000Y-129286000D02*
X150566000Y-129286000D01*
X150566000Y-129286000D02*
X150820000Y-129540000D01*
X149296000Y-125476000D02*
X149296000Y-129032000D01*
D28*
%TO.N,/analog/Vp_ssh*%
X122880000Y-89784000D02*
X122967000Y-89784000D01*
D25*
%TO.N,Net-(U2A--)*%
X136596000Y-102616000D02*
X136596000Y-102362000D01*
X136596000Y-102362000D02*
X137358000Y-101600000D01*
%TO.N,Net-(C18-Pad1)*%
X140152000Y-102870000D02*
X140152000Y-101854000D01*
X143708000Y-106426000D02*
X140152000Y-102870000D01*
X140152000Y-101854000D02*
X139644000Y-101346000D01*
%TO.N,Net-(LED1-K)*%
X193954000Y-136352000D02*
X194000000Y-136398000D01*
X192940000Y-136352000D02*
X193954000Y-136352000D01*
%TO.N,Net-(LED1-A)*%
X192940000Y-135382000D02*
X194000000Y-135382000D01*
%TO.N,Net-(LED4-A)*%
X150682000Y-135382000D02*
X149296000Y-135382000D01*
%TO.N,Net-(D1-L1)*%
X187523000Y-110109000D02*
X187523000Y-108077000D01*
X187142000Y-110490000D02*
X187523000Y-110109000D01*
D28*
%TO.N,/analog/Vp_sh*%
X120422000Y-67274000D02*
X117750000Y-69946000D01*
X117750000Y-69946000D02*
X117750000Y-72740000D01*
X117750000Y-72740000D02*
X116358000Y-74132000D01*
D26*
%TO.N,/analog/Zfreed*%
X143454000Y-119126000D02*
X142220000Y-120360000D01*
X142220000Y-120360000D02*
X134900000Y-120360000D01*
D28*
%TO.N,/analog/Vn_h*%
X121826000Y-94576000D02*
X127408000Y-94576000D01*
X116382000Y-89132000D02*
X121826000Y-94576000D01*
X130592000Y-77632000D02*
X130914000Y-77632000D01*
X116358000Y-86278000D02*
X121864000Y-80772000D01*
X127452000Y-80772000D02*
X130592000Y-77632000D01*
X116358000Y-89132000D02*
X116382000Y-89132000D01*
X116358000Y-89132000D02*
X116358000Y-86278000D01*
X121864000Y-80772000D02*
X127452000Y-80772000D01*
%TD*%
%TA.AperFunction,Conductor*%
%TO.N,/analog/1V6*%
G36*
X145755677Y-94761685D02*
G01*
X145776319Y-94778319D01*
X150058000Y-99060000D01*
X153051573Y-99060000D01*
X153118612Y-99079685D01*
X153164367Y-99132489D01*
X153174311Y-99201647D01*
X153163955Y-99236405D01*
X153107098Y-99358335D01*
X153107094Y-99358344D01*
X153045938Y-99586586D01*
X153045936Y-99586596D01*
X153025341Y-99821999D01*
X153025341Y-99822000D01*
X153045936Y-100057403D01*
X153045938Y-100057413D01*
X153107094Y-100285655D01*
X153107096Y-100285659D01*
X153107097Y-100285663D01*
X153199983Y-100484857D01*
X153206965Y-100499830D01*
X153206967Y-100499834D01*
X153273748Y-100595206D01*
X153329772Y-100675217D01*
X153342501Y-100693395D01*
X153342506Y-100693402D01*
X153509595Y-100860492D01*
X153509598Y-100860494D01*
X153509599Y-100860495D01*
X153577623Y-100908125D01*
X153621248Y-100962701D01*
X153630500Y-101009700D01*
X153630500Y-108028918D01*
X153630500Y-108028920D01*
X153630499Y-108028920D01*
X153659340Y-108173907D01*
X153659343Y-108173917D01*
X153715914Y-108310492D01*
X153735103Y-108339210D01*
X153735104Y-108339213D01*
X153798046Y-108433414D01*
X153798052Y-108433421D01*
X154638692Y-109274060D01*
X154661356Y-109310129D01*
X154663188Y-109309247D01*
X154666207Y-109315516D01*
X154675068Y-109329618D01*
X154762184Y-109468262D01*
X154889738Y-109595816D01*
X155042478Y-109691789D01*
X155090147Y-109708469D01*
X155212745Y-109751368D01*
X155212750Y-109751369D01*
X155391996Y-109771565D01*
X155392000Y-109771565D01*
X155392004Y-109771565D01*
X155571249Y-109751369D01*
X155571252Y-109751368D01*
X155571255Y-109751368D01*
X155741522Y-109691789D01*
X155894262Y-109595816D01*
X156021816Y-109468262D01*
X156117789Y-109315522D01*
X156177368Y-109145255D01*
X156183431Y-109091446D01*
X156197565Y-108966003D01*
X156197565Y-108965996D01*
X156177369Y-108786750D01*
X156177368Y-108786745D01*
X156117788Y-108616476D01*
X156021815Y-108463737D01*
X155894262Y-108336184D01*
X155741516Y-108240207D01*
X155735247Y-108237188D01*
X155736129Y-108235356D01*
X155700060Y-108212692D01*
X155167819Y-107680451D01*
X155134334Y-107619128D01*
X155131500Y-107592770D01*
X155131500Y-101009700D01*
X155151185Y-100942661D01*
X155184375Y-100908126D01*
X155252401Y-100860495D01*
X155374329Y-100738566D01*
X155435648Y-100705084D01*
X155505340Y-100710068D01*
X155561274Y-100751939D01*
X155578189Y-100782917D01*
X155627202Y-100914328D01*
X155627206Y-100914335D01*
X155713452Y-101029544D01*
X155713455Y-101029547D01*
X155828664Y-101115793D01*
X155828673Y-101115798D01*
X155939832Y-101157257D01*
X155995766Y-101199127D01*
X156020184Y-101264592D01*
X156020500Y-101273439D01*
X156020500Y-103979696D01*
X156055103Y-104153658D01*
X156055105Y-104153666D01*
X156083183Y-104221451D01*
X156083184Y-104221453D01*
X156122988Y-104317550D01*
X156181138Y-104404576D01*
X156221536Y-104465036D01*
X156487182Y-104730681D01*
X156520666Y-104792002D01*
X156523500Y-104818361D01*
X156523500Y-106762696D01*
X156558103Y-106936658D01*
X156558105Y-106936666D01*
X156590740Y-107015453D01*
X156590740Y-107015454D01*
X156625984Y-107100542D01*
X156625985Y-107100544D01*
X156674302Y-107172856D01*
X156674303Y-107172857D01*
X156674306Y-107172861D01*
X156705817Y-107220021D01*
X156724537Y-107248038D01*
X157617961Y-108141462D01*
X157666529Y-108173914D01*
X157765448Y-108240010D01*
X157765449Y-108240010D01*
X157765453Y-108240013D01*
X157827089Y-108265543D01*
X157929334Y-108307895D01*
X158071555Y-108336184D01*
X158103303Y-108342499D01*
X158103307Y-108342500D01*
X158103308Y-108342500D01*
X158103309Y-108342500D01*
X159080500Y-108342500D01*
X159147539Y-108362185D01*
X159193294Y-108414989D01*
X159204500Y-108466500D01*
X159204500Y-110299736D01*
X159204820Y-110317718D01*
X159205139Y-110326634D01*
X159206103Y-110344620D01*
X159206105Y-110344635D01*
X159231750Y-110462520D01*
X159236688Y-110485218D01*
X159242335Y-110500358D01*
X159261105Y-110550683D01*
X159261107Y-110550687D01*
X159330056Y-110676957D01*
X159330056Y-110676958D01*
X159401129Y-110748032D01*
X159434614Y-110809355D01*
X159429628Y-110879047D01*
X159416549Y-110904602D01*
X159331374Y-111032075D01*
X159331364Y-111032093D01*
X159295160Y-111119500D01*
X159295160Y-111119501D01*
X159255950Y-111214161D01*
X159255947Y-111214170D01*
X159249270Y-111247740D01*
X159217500Y-111407454D01*
X159217500Y-116068901D01*
X159197815Y-116135940D01*
X159145011Y-116181695D01*
X159075853Y-116191639D01*
X159012297Y-116162614D01*
X159005819Y-116156582D01*
X154237590Y-111388355D01*
X154237588Y-111388352D01*
X154118717Y-111269481D01*
X154118709Y-111269475D01*
X154016936Y-111210717D01*
X154016934Y-111210716D01*
X153981790Y-111190425D01*
X153981789Y-111190424D01*
X153969263Y-111187067D01*
X153829057Y-111149499D01*
X153670943Y-111149499D01*
X153663347Y-111149499D01*
X153663331Y-111149500D01*
X145332412Y-111149500D01*
X145265373Y-111129815D01*
X145255097Y-111122445D01*
X145252263Y-111120185D01*
X145252262Y-111120184D01*
X145195496Y-111084515D01*
X145099523Y-111024211D01*
X144929254Y-110964631D01*
X144929249Y-110964630D01*
X144750004Y-110944435D01*
X144749996Y-110944435D01*
X144570750Y-110964630D01*
X144570745Y-110964631D01*
X144400476Y-111024211D01*
X144247737Y-111120184D01*
X144120184Y-111247737D01*
X144024211Y-111400476D01*
X143964631Y-111570745D01*
X143964630Y-111570750D01*
X143944435Y-111749996D01*
X143944435Y-111750003D01*
X143964630Y-111929249D01*
X143964631Y-111929254D01*
X144024211Y-112099523D01*
X144120184Y-112252262D01*
X144247738Y-112379816D01*
X144400478Y-112475789D01*
X144570745Y-112535368D01*
X144570750Y-112535369D01*
X144749996Y-112555565D01*
X144750000Y-112555565D01*
X144750004Y-112555565D01*
X144929249Y-112535369D01*
X144929252Y-112535368D01*
X144929255Y-112535368D01*
X145099522Y-112475789D01*
X145252262Y-112379816D01*
X145252267Y-112379810D01*
X145255097Y-112377555D01*
X145257275Y-112376665D01*
X145258158Y-112376111D01*
X145258255Y-112376265D01*
X145319783Y-112351145D01*
X145332412Y-112350500D01*
X153449903Y-112350500D01*
X153516942Y-112370185D01*
X153537584Y-112386819D01*
X158098181Y-116947416D01*
X158131666Y-117008739D01*
X158134500Y-117035097D01*
X158134500Y-117273587D01*
X158114815Y-117340626D01*
X158107450Y-117350896D01*
X158105184Y-117353737D01*
X158058944Y-117427326D01*
X158006609Y-117473617D01*
X157937555Y-117484264D01*
X157873707Y-117455888D01*
X157866270Y-117449034D01*
X153993590Y-113576355D01*
X153993588Y-113576352D01*
X153874717Y-113457481D01*
X153874709Y-113457475D01*
X153749825Y-113385374D01*
X153749822Y-113385373D01*
X153737785Y-113378423D01*
X153585057Y-113337499D01*
X153426943Y-113337499D01*
X153419347Y-113337499D01*
X153419331Y-113337500D01*
X137298670Y-113337500D01*
X137298654Y-113337499D01*
X137291058Y-113337499D01*
X137132943Y-113337499D01*
X137056579Y-113357961D01*
X136980214Y-113378423D01*
X136980211Y-113378425D01*
X136938123Y-113402724D01*
X136870223Y-113419195D01*
X136804196Y-113396342D01*
X136761007Y-113341420D01*
X136754366Y-113271867D01*
X136761560Y-113247894D01*
X136817816Y-113112082D01*
X136850500Y-112947767D01*
X136850500Y-109965650D01*
X136870185Y-109898611D01*
X136886815Y-109877973D01*
X137479028Y-109285759D01*
X137516268Y-109260165D01*
X137556730Y-109242151D01*
X137709871Y-109130888D01*
X137836533Y-108990216D01*
X137931179Y-108826284D01*
X137989674Y-108646256D01*
X138009460Y-108458000D01*
X137989674Y-108269744D01*
X137960569Y-108180168D01*
X137954500Y-108141850D01*
X137954500Y-108099651D01*
X137974185Y-108032612D01*
X137990819Y-108011970D01*
X138390561Y-107612228D01*
X138794320Y-107208468D01*
X138855641Y-107174985D01*
X138925332Y-107179969D01*
X138969680Y-107208470D01*
X140117834Y-108356624D01*
X140117838Y-108356627D01*
X140257132Y-108449701D01*
X140257133Y-108449701D01*
X140257137Y-108449704D01*
X140348589Y-108487584D01*
X140411918Y-108513816D01*
X140576228Y-108546499D01*
X140576232Y-108546500D01*
X140576233Y-108546500D01*
X144553768Y-108546500D01*
X144553769Y-108546499D01*
X144718082Y-108513816D01*
X144781411Y-108487584D01*
X144872863Y-108449704D01*
X145012162Y-108356627D01*
X145892627Y-107476162D01*
X145985704Y-107336863D01*
X146041980Y-107201000D01*
X146049816Y-107182082D01*
X146050127Y-107180523D01*
X146082499Y-107017771D01*
X146082500Y-107017768D01*
X146082500Y-106321650D01*
X146102185Y-106254611D01*
X146118819Y-106233969D01*
X148087969Y-104264819D01*
X148149292Y-104231334D01*
X148175650Y-104228500D01*
X149125768Y-104228500D01*
X149125769Y-104228499D01*
X149180538Y-104217605D01*
X149290074Y-104195818D01*
X149290078Y-104195816D01*
X149290082Y-104195816D01*
X149335415Y-104177037D01*
X149444863Y-104131704D01*
X149584162Y-104038627D01*
X151957026Y-101665760D01*
X151994266Y-101640166D01*
X152034730Y-101622151D01*
X152187871Y-101510888D01*
X152314533Y-101370216D01*
X152409179Y-101206284D01*
X152467674Y-101026256D01*
X152487460Y-100838000D01*
X152467674Y-100649744D01*
X152409179Y-100469716D01*
X152314533Y-100305784D01*
X152187871Y-100165112D01*
X152153898Y-100140429D01*
X152034734Y-100053851D01*
X152034729Y-100053848D01*
X151861807Y-99976857D01*
X151861802Y-99976855D01*
X151716001Y-99945865D01*
X151676646Y-99937500D01*
X151487354Y-99937500D01*
X151454897Y-99944398D01*
X151302197Y-99976855D01*
X151302192Y-99976857D01*
X151129270Y-100053848D01*
X151129265Y-100053851D01*
X150976129Y-100165111D01*
X150849465Y-100305785D01*
X150772989Y-100438246D01*
X150753283Y-100463927D01*
X148726030Y-102491181D01*
X148664707Y-102524666D01*
X148638349Y-102527500D01*
X147688228Y-102527500D01*
X147523925Y-102560182D01*
X147523917Y-102560184D01*
X147389168Y-102616000D01*
X147369133Y-102624298D01*
X147229838Y-102717373D01*
X147229834Y-102717376D01*
X144571375Y-105375834D01*
X144571372Y-105375838D01*
X144478297Y-105515133D01*
X144478296Y-105515136D01*
X144443174Y-105599930D01*
X144443174Y-105599931D01*
X144414184Y-105669917D01*
X144414182Y-105669922D01*
X144404313Y-105719539D01*
X144371927Y-105781449D01*
X144311211Y-105816023D01*
X144241442Y-105812282D01*
X144216911Y-105798690D01*
X144216158Y-105799889D01*
X144057521Y-105700210D01*
X143887249Y-105640630D01*
X143800330Y-105630837D01*
X143735916Y-105603770D01*
X143726533Y-105595298D01*
X140788819Y-102657584D01*
X140755334Y-102596261D01*
X140752500Y-102569903D01*
X140752500Y-101774945D01*
X140752500Y-101774943D01*
X140711577Y-101622216D01*
X140711573Y-101622209D01*
X140632524Y-101485290D01*
X140632521Y-101485286D01*
X140632520Y-101485284D01*
X140520716Y-101373480D01*
X140520715Y-101373479D01*
X140516385Y-101369149D01*
X140516374Y-101369139D01*
X140493231Y-101345996D01*
X141124435Y-101345996D01*
X141124435Y-101346003D01*
X141144630Y-101525249D01*
X141144631Y-101525254D01*
X141204211Y-101695523D01*
X141254116Y-101774945D01*
X141300184Y-101848262D01*
X141427738Y-101975816D01*
X141580478Y-102071789D01*
X141750745Y-102131368D01*
X141750746Y-102131368D01*
X141751592Y-102131664D01*
X141808368Y-102172386D01*
X141824194Y-102198896D01*
X141875826Y-102316606D01*
X142011833Y-102524782D01*
X142011836Y-102524785D01*
X142180256Y-102707738D01*
X142292698Y-102795255D01*
X142376494Y-102860476D01*
X142376496Y-102860477D01*
X142442609Y-102896255D01*
X142534517Y-102945993D01*
X142584108Y-102995212D01*
X142599500Y-103055048D01*
X142599500Y-103250330D01*
X142599499Y-103250348D01*
X142599499Y-103416054D01*
X142599498Y-103416054D01*
X142599499Y-103416057D01*
X142640423Y-103568785D01*
X142640424Y-103568786D01*
X142654438Y-103593061D01*
X142654439Y-103593062D01*
X142719475Y-103705709D01*
X142719481Y-103705717D01*
X142838349Y-103824585D01*
X142838355Y-103824590D01*
X142877298Y-103863533D01*
X142910783Y-103924856D01*
X142912837Y-103937330D01*
X142922630Y-104024249D01*
X142982210Y-104194521D01*
X143059513Y-104317547D01*
X143078184Y-104347262D01*
X143205738Y-104474816D01*
X143273679Y-104517506D01*
X143340207Y-104559309D01*
X143358478Y-104570789D01*
X143403235Y-104586450D01*
X143528745Y-104630368D01*
X143528750Y-104630369D01*
X143707996Y-104650565D01*
X143708000Y-104650565D01*
X143708004Y-104650565D01*
X143887249Y-104630369D01*
X143887252Y-104630368D01*
X143887255Y-104630368D01*
X144057522Y-104570789D01*
X144210262Y-104474816D01*
X144337816Y-104347262D01*
X144433789Y-104194522D01*
X144493368Y-104024255D01*
X144503162Y-103937330D01*
X144513565Y-103845003D01*
X144513565Y-103844996D01*
X144493369Y-103665750D01*
X144493368Y-103665745D01*
X144467935Y-103593061D01*
X144433789Y-103495478D01*
X144432229Y-103492996D01*
X144383885Y-103416057D01*
X144337816Y-103342738D01*
X144210262Y-103215184D01*
X144109553Y-103151904D01*
X144057523Y-103119211D01*
X144011205Y-103103004D01*
X143954429Y-103062282D01*
X143928682Y-102997329D01*
X143942138Y-102928768D01*
X143990525Y-102878365D01*
X143993144Y-102876907D01*
X144023499Y-102860480D01*
X144023505Y-102860476D01*
X144023504Y-102860476D01*
X144023509Y-102860474D01*
X144219744Y-102707738D01*
X144388164Y-102524785D01*
X144524173Y-102316607D01*
X144624063Y-102088881D01*
X144685108Y-101847821D01*
X144691147Y-101774943D01*
X144705643Y-101600005D01*
X144705643Y-101599994D01*
X144685109Y-101352187D01*
X144685107Y-101352175D01*
X144624063Y-101111118D01*
X144524173Y-100883393D01*
X144388166Y-100675217D01*
X144336481Y-100619072D01*
X144219744Y-100492262D01*
X144023509Y-100339526D01*
X144023507Y-100339525D01*
X144023506Y-100339524D01*
X143804811Y-100221172D01*
X143804802Y-100221169D01*
X143569616Y-100140429D01*
X143324335Y-100099500D01*
X143075665Y-100099500D01*
X142830383Y-100140429D01*
X142595197Y-100221169D01*
X142595188Y-100221172D01*
X142376491Y-100339525D01*
X142376487Y-100339528D01*
X142180257Y-100492261D01*
X142180256Y-100492261D01*
X142159160Y-100515177D01*
X142099271Y-100551166D01*
X142054050Y-100554411D01*
X141930004Y-100540435D01*
X141929996Y-100540435D01*
X141750750Y-100560630D01*
X141750745Y-100560631D01*
X141580476Y-100620211D01*
X141427737Y-100716184D01*
X141300184Y-100843737D01*
X141204211Y-100996476D01*
X141144631Y-101166745D01*
X141144630Y-101166750D01*
X141124435Y-101345996D01*
X140493231Y-101345996D01*
X140474700Y-101327465D01*
X140441215Y-101266142D01*
X140439163Y-101253686D01*
X140429368Y-101166745D01*
X140369789Y-100996478D01*
X140273816Y-100843738D01*
X140146262Y-100716184D01*
X140143789Y-100714630D01*
X139993523Y-100620211D01*
X139823254Y-100560631D01*
X139823249Y-100560630D01*
X139644004Y-100540435D01*
X139643996Y-100540435D01*
X139464750Y-100560630D01*
X139464745Y-100560631D01*
X139294476Y-100620211D01*
X139141737Y-100716184D01*
X139014184Y-100843737D01*
X138932949Y-100973022D01*
X138880614Y-101019313D01*
X138811560Y-101029961D01*
X138747712Y-101001586D01*
X138714399Y-100956860D01*
X138682173Y-100883393D01*
X138546166Y-100675217D01*
X138494481Y-100619072D01*
X138377744Y-100492262D01*
X138181509Y-100339526D01*
X138181507Y-100339525D01*
X138181506Y-100339524D01*
X137962811Y-100221172D01*
X137962802Y-100221169D01*
X137727616Y-100140429D01*
X137482335Y-100099500D01*
X137233665Y-100099500D01*
X136988383Y-100140429D01*
X136753197Y-100221169D01*
X136753188Y-100221172D01*
X136534493Y-100339524D01*
X136347771Y-100484856D01*
X136338256Y-100492262D01*
X136327452Y-100503997D01*
X136169833Y-100675217D01*
X136033826Y-100883393D01*
X135933936Y-101111118D01*
X135872892Y-101352175D01*
X135872890Y-101352187D01*
X135852357Y-101599994D01*
X135852357Y-101600005D01*
X135872890Y-101847812D01*
X135872892Y-101847824D01*
X135934654Y-102091714D01*
X135932029Y-102161534D01*
X135919442Y-102188125D01*
X135870209Y-102266478D01*
X135810633Y-102436737D01*
X135810630Y-102436750D01*
X135790435Y-102615996D01*
X135790435Y-102616000D01*
X135810630Y-102795249D01*
X135810631Y-102795254D01*
X135870211Y-102965523D01*
X135929305Y-103059570D01*
X135966184Y-103118262D01*
X136093738Y-103245816D01*
X136246478Y-103341789D01*
X136291635Y-103357590D01*
X136416745Y-103401368D01*
X136416750Y-103401369D01*
X136595996Y-103421565D01*
X136596000Y-103421565D01*
X136596004Y-103421565D01*
X136775249Y-103401369D01*
X136775252Y-103401368D01*
X136775255Y-103401368D01*
X136945522Y-103341789D01*
X137098262Y-103245816D01*
X137207260Y-103136818D01*
X137268583Y-103103334D01*
X137294941Y-103100500D01*
X137482335Y-103100500D01*
X137727614Y-103059571D01*
X137962810Y-102978828D01*
X138181509Y-102860474D01*
X138377744Y-102707738D01*
X138546164Y-102524785D01*
X138682173Y-102316607D01*
X138782063Y-102088881D01*
X138824014Y-101923219D01*
X138859554Y-101863064D01*
X138921974Y-101831672D01*
X138991457Y-101839010D01*
X139031901Y-101865979D01*
X139141738Y-101975816D01*
X139294478Y-102071789D01*
X139464745Y-102131368D01*
X139464748Y-102131368D01*
X139468454Y-102132665D01*
X139525230Y-102173387D01*
X139550978Y-102238339D01*
X139551500Y-102249707D01*
X139551500Y-102783330D01*
X139551499Y-102783348D01*
X139551499Y-102949054D01*
X139551498Y-102949054D01*
X139592423Y-103101785D01*
X139621358Y-103151900D01*
X139621359Y-103151904D01*
X139621360Y-103151904D01*
X139671479Y-103238714D01*
X139671481Y-103238717D01*
X139790349Y-103357585D01*
X139790355Y-103357590D01*
X142877298Y-106444533D01*
X142910783Y-106505856D01*
X142912837Y-106518330D01*
X142922630Y-106605249D01*
X142922631Y-106605254D01*
X142922632Y-106605255D01*
X142948978Y-106680547D01*
X142952539Y-106750324D01*
X142917810Y-106810952D01*
X142855817Y-106843179D01*
X142831936Y-106845500D01*
X141063651Y-106845500D01*
X140996612Y-106825815D01*
X140975970Y-106809181D01*
X139710715Y-105543926D01*
X139691009Y-105518245D01*
X139682074Y-105502769D01*
X139614533Y-105385784D01*
X139487871Y-105245112D01*
X139477386Y-105237494D01*
X139334734Y-105133851D01*
X139334729Y-105133848D01*
X139161807Y-105056857D01*
X139161802Y-105056855D01*
X139016001Y-105025865D01*
X138976646Y-105017500D01*
X138787354Y-105017500D01*
X138754897Y-105024398D01*
X138602197Y-105056855D01*
X138602192Y-105056857D01*
X138429270Y-105133848D01*
X138429265Y-105133851D01*
X138276129Y-105245111D01*
X138149465Y-105385785D01*
X138072990Y-105518244D01*
X138053284Y-105543925D01*
X136443375Y-107153834D01*
X136443372Y-107153838D01*
X136350297Y-107293133D01*
X136350296Y-107293136D01*
X136317024Y-107373463D01*
X136317024Y-107373464D01*
X136286184Y-107447917D01*
X136286182Y-107447925D01*
X136253500Y-107612228D01*
X136253500Y-108054348D01*
X136233815Y-108121387D01*
X136217181Y-108142029D01*
X135339375Y-109019834D01*
X135339372Y-109019838D01*
X135246297Y-109159133D01*
X135246296Y-109159136D01*
X135212997Y-109239528D01*
X135212997Y-109239529D01*
X135182184Y-109313917D01*
X135182182Y-109313925D01*
X135149500Y-109478228D01*
X135149500Y-112460349D01*
X135129815Y-112527388D01*
X135113181Y-112548030D01*
X134502030Y-113159181D01*
X134440707Y-113192666D01*
X134414349Y-113195500D01*
X134199651Y-113195500D01*
X134132612Y-113175815D01*
X134111970Y-113159181D01*
X130370819Y-109418030D01*
X130337334Y-109356707D01*
X130334500Y-109330349D01*
X130334500Y-108774149D01*
X130340569Y-108735831D01*
X130342407Y-108730171D01*
X130369674Y-108646256D01*
X130389460Y-108458000D01*
X130369674Y-108269744D01*
X130340569Y-108180168D01*
X130334500Y-108141850D01*
X130334500Y-104818232D01*
X130334499Y-104818228D01*
X130322443Y-104757617D01*
X130301816Y-104653918D01*
X130267383Y-104570789D01*
X130262628Y-104559309D01*
X130237707Y-104499143D01*
X130237700Y-104499130D01*
X130144627Y-104359838D01*
X130144624Y-104359834D01*
X130012469Y-104227679D01*
X129978984Y-104166356D01*
X129983968Y-104096664D01*
X130012467Y-104052319D01*
X130367026Y-103697760D01*
X130404266Y-103672166D01*
X130444730Y-103654151D01*
X130597871Y-103542888D01*
X130724533Y-103402216D01*
X130819179Y-103238284D01*
X130877674Y-103058256D01*
X130897460Y-102870000D01*
X130877674Y-102681744D01*
X130849899Y-102596261D01*
X130822787Y-102512818D01*
X130820792Y-102442977D01*
X130856872Y-102383144D01*
X130919573Y-102352316D01*
X130940718Y-102350500D01*
X131589920Y-102350500D01*
X131687462Y-102331096D01*
X131734913Y-102321658D01*
X131871495Y-102265084D01*
X131930735Y-102225501D01*
X131994416Y-102182952D01*
X134208770Y-99968595D01*
X134270091Y-99935112D01*
X134270427Y-99935039D01*
X134335803Y-99921144D01*
X134508730Y-99844151D01*
X134661871Y-99732888D01*
X134788533Y-99592216D01*
X134883179Y-99428284D01*
X134941674Y-99248256D01*
X134961460Y-99060000D01*
X134941674Y-98871744D01*
X134883179Y-98691716D01*
X134788533Y-98527784D01*
X134661871Y-98387112D01*
X134661870Y-98387111D01*
X134508734Y-98275851D01*
X134508729Y-98275848D01*
X134335807Y-98198857D01*
X134335802Y-98198855D01*
X134190001Y-98167865D01*
X134150646Y-98159500D01*
X133961354Y-98159500D01*
X133928897Y-98166398D01*
X133776197Y-98198855D01*
X133776192Y-98198857D01*
X133603270Y-98275848D01*
X133603265Y-98275851D01*
X133450129Y-98387111D01*
X133323466Y-98527785D01*
X133228821Y-98691715D01*
X133228819Y-98691719D01*
X133173478Y-98862041D01*
X133143228Y-98911403D01*
X131241451Y-100813181D01*
X131180128Y-100846666D01*
X131153770Y-100849500D01*
X125223900Y-100849500D01*
X125156861Y-100829815D01*
X125131750Y-100808472D01*
X125011766Y-100675217D01*
X125009871Y-100673112D01*
X125009870Y-100673111D01*
X124856734Y-100561851D01*
X124856729Y-100561848D01*
X124683807Y-100484857D01*
X124683802Y-100484855D01*
X124531033Y-100452384D01*
X124498646Y-100445500D01*
X124309354Y-100445500D01*
X124276967Y-100452384D01*
X124124197Y-100484855D01*
X124124192Y-100484857D01*
X123951270Y-100561848D01*
X123951265Y-100561851D01*
X123798129Y-100673111D01*
X123671466Y-100813785D01*
X123576821Y-100977715D01*
X123576818Y-100977722D01*
X123520687Y-101150478D01*
X123518326Y-101157744D01*
X123498540Y-101346000D01*
X123518326Y-101534256D01*
X123518327Y-101534259D01*
X123576818Y-101714277D01*
X123576821Y-101714284D01*
X123671467Y-101878216D01*
X123787673Y-102007275D01*
X123798129Y-102018888D01*
X123951265Y-102130148D01*
X123951270Y-102130151D01*
X124124191Y-102207142D01*
X124124197Y-102207144D01*
X124210561Y-102225501D01*
X124235219Y-102230742D01*
X124278328Y-102248929D01*
X124302505Y-102265084D01*
X124439087Y-102321658D01*
X124439091Y-102321658D01*
X124439092Y-102321659D01*
X124584079Y-102350500D01*
X124584082Y-102350500D01*
X129009349Y-102350500D01*
X129076388Y-102370185D01*
X129122143Y-102422989D01*
X129132087Y-102492147D01*
X129103062Y-102555703D01*
X129097030Y-102562181D01*
X128406030Y-103253181D01*
X128344707Y-103286666D01*
X128318349Y-103289500D01*
X122775650Y-103289500D01*
X122708611Y-103269815D01*
X122687969Y-103253181D01*
X118342165Y-98907375D01*
X118342161Y-98907372D01*
X118202866Y-98814297D01*
X118202863Y-98814296D01*
X118093416Y-98768962D01*
X118093414Y-98768961D01*
X118048086Y-98750185D01*
X118048074Y-98750182D01*
X117883771Y-98717500D01*
X117883767Y-98717500D01*
X112128233Y-98717500D01*
X112128228Y-98717500D01*
X111963925Y-98750182D01*
X111963913Y-98750185D01*
X111918583Y-98768962D01*
X111809143Y-98814292D01*
X111809130Y-98814299D01*
X111669838Y-98907372D01*
X111669834Y-98907375D01*
X110820973Y-99756236D01*
X110783731Y-99781833D01*
X110743268Y-99799849D01*
X110590129Y-99911111D01*
X110463466Y-100051785D01*
X110368821Y-100215715D01*
X110368818Y-100215722D01*
X110310327Y-100395740D01*
X110310326Y-100395744D01*
X110290540Y-100584000D01*
X110310326Y-100772256D01*
X110310327Y-100772259D01*
X110339431Y-100861831D01*
X110345500Y-100900149D01*
X110345500Y-106255771D01*
X110378182Y-106420074D01*
X110378184Y-106420082D01*
X110387210Y-106441873D01*
X110442292Y-106574856D01*
X110442299Y-106574869D01*
X110535372Y-106714161D01*
X110535375Y-106714165D01*
X111129283Y-107308072D01*
X111148989Y-107333753D01*
X111225465Y-107466214D01*
X111352129Y-107606888D01*
X111505265Y-107718148D01*
X111505270Y-107718151D01*
X111678192Y-107795142D01*
X111678197Y-107795144D01*
X111863354Y-107834500D01*
X111863355Y-107834500D01*
X112052644Y-107834500D01*
X112052646Y-107834500D01*
X112237803Y-107795144D01*
X112410730Y-107718151D01*
X112563871Y-107606888D01*
X112690533Y-107466216D01*
X112785179Y-107302284D01*
X112843674Y-107122256D01*
X112863460Y-106934000D01*
X112843674Y-106745744D01*
X112785179Y-106565716D01*
X112690533Y-106401784D01*
X112563871Y-106261112D01*
X112556520Y-106255771D01*
X112410734Y-106149851D01*
X112410732Y-106149850D01*
X112370270Y-106131835D01*
X112333026Y-106106237D01*
X112082819Y-105856030D01*
X112049334Y-105794707D01*
X112046500Y-105768349D01*
X112046500Y-100987651D01*
X112066185Y-100920612D01*
X112082819Y-100899970D01*
X112527970Y-100454819D01*
X112589293Y-100421334D01*
X112615651Y-100418500D01*
X117396349Y-100418500D01*
X117463388Y-100438185D01*
X117484030Y-100454819D01*
X121543282Y-104514070D01*
X121562988Y-104539751D01*
X121639465Y-104672214D01*
X121766129Y-104812888D01*
X121919265Y-104924148D01*
X121919270Y-104924151D01*
X122092192Y-105001142D01*
X122092197Y-105001144D01*
X122277354Y-105040500D01*
X122277355Y-105040500D01*
X122466644Y-105040500D01*
X122466646Y-105040500D01*
X122651803Y-105001144D01*
X122651808Y-105001141D01*
X122657986Y-104999135D01*
X122658209Y-104999821D01*
X122702067Y-104990500D01*
X128318349Y-104990500D01*
X128385388Y-105010185D01*
X128406030Y-105026819D01*
X128597181Y-105217970D01*
X128630666Y-105279293D01*
X128633500Y-105305651D01*
X128633500Y-108141850D01*
X128627431Y-108180168D01*
X128599692Y-108265541D01*
X128598326Y-108269744D01*
X128578540Y-108458000D01*
X128598326Y-108646256D01*
X128598327Y-108646259D01*
X128627431Y-108735831D01*
X128633500Y-108774149D01*
X128633500Y-109817771D01*
X128666182Y-109982074D01*
X128666185Y-109982086D01*
X128682237Y-110020838D01*
X128682238Y-110020840D01*
X128730296Y-110136863D01*
X128730297Y-110136866D01*
X128823372Y-110276161D01*
X128823375Y-110276165D01*
X133253834Y-114706624D01*
X133253842Y-114706630D01*
X133307372Y-114742398D01*
X133352178Y-114796010D01*
X133360885Y-114865335D01*
X133330731Y-114928362D01*
X133271288Y-114965082D01*
X133238482Y-114969500D01*
X118608098Y-114969500D01*
X118541059Y-114949815D01*
X118520417Y-114933181D01*
X118182819Y-114595583D01*
X118149334Y-114534260D01*
X118146500Y-114507902D01*
X118146500Y-106600945D01*
X118146499Y-106600941D01*
X118145916Y-106598766D01*
X118127796Y-106531137D01*
X118105577Y-106448215D01*
X118050333Y-106352530D01*
X118026520Y-106311284D01*
X117914716Y-106199480D01*
X117914715Y-106199479D01*
X117910385Y-106195149D01*
X117910374Y-106195139D01*
X117320819Y-105605584D01*
X117287334Y-105544261D01*
X117284500Y-105517903D01*
X117284500Y-102082412D01*
X117304185Y-102015373D01*
X117311555Y-102005097D01*
X117313810Y-102002267D01*
X117313816Y-102002262D01*
X117409789Y-101849522D01*
X117469368Y-101679255D01*
X117470888Y-101665763D01*
X117489565Y-101500003D01*
X117489565Y-101499996D01*
X117469369Y-101320750D01*
X117469368Y-101320745D01*
X117452815Y-101273439D01*
X117409789Y-101150478D01*
X117385057Y-101111118D01*
X117313815Y-100997737D01*
X117186262Y-100870184D01*
X117033523Y-100774211D01*
X116863254Y-100714631D01*
X116863249Y-100714630D01*
X116684004Y-100694435D01*
X116683996Y-100694435D01*
X116504750Y-100714630D01*
X116504745Y-100714631D01*
X116334476Y-100774211D01*
X116181737Y-100870184D01*
X116054184Y-100997737D01*
X115958211Y-101150476D01*
X115898631Y-101320745D01*
X115898630Y-101320750D01*
X115878435Y-101499996D01*
X115878435Y-101500003D01*
X115898630Y-101679249D01*
X115898631Y-101679254D01*
X115958211Y-101849523D01*
X116054185Y-102002263D01*
X116056445Y-102005097D01*
X116057334Y-102007275D01*
X116057889Y-102008158D01*
X116057734Y-102008255D01*
X116082855Y-102069783D01*
X116083500Y-102082412D01*
X116083500Y-105731330D01*
X116083499Y-105731348D01*
X116083499Y-105897054D01*
X116083498Y-105897054D01*
X116124424Y-106049789D01*
X116124425Y-106049790D01*
X116146620Y-106088232D01*
X116146621Y-106088233D01*
X116203477Y-106186712D01*
X116203481Y-106186717D01*
X116322349Y-106305585D01*
X116322355Y-106305590D01*
X116909181Y-106892416D01*
X116942666Y-106953739D01*
X116945500Y-106980097D01*
X116945500Y-114721330D01*
X116945499Y-114721348D01*
X116945499Y-114887054D01*
X116945498Y-114887054D01*
X116945499Y-114887057D01*
X116986423Y-115039785D01*
X117012741Y-115085368D01*
X117065479Y-115176714D01*
X117065481Y-115176717D01*
X117184349Y-115295585D01*
X117184354Y-115295589D01*
X117939284Y-116050520D01*
X117939286Y-116050521D01*
X117939290Y-116050524D01*
X118076209Y-116129573D01*
X118076216Y-116129577D01*
X118228943Y-116170501D01*
X118228945Y-116170501D01*
X118394654Y-116170501D01*
X118394670Y-116170500D01*
X135493331Y-116170500D01*
X135493347Y-116170501D01*
X135500943Y-116170501D01*
X135659054Y-116170501D01*
X135659057Y-116170501D01*
X135811785Y-116129577D01*
X135861904Y-116100639D01*
X135948716Y-116050520D01*
X136060520Y-115938716D01*
X136060520Y-115938714D01*
X136070728Y-115928507D01*
X136070729Y-115928504D01*
X137424417Y-114574819D01*
X137485740Y-114541334D01*
X137512098Y-114538500D01*
X153205903Y-114538500D01*
X153272942Y-114558185D01*
X153293584Y-114574819D01*
X157803181Y-119084416D01*
X157836666Y-119145739D01*
X157839500Y-119172097D01*
X157839500Y-121325330D01*
X157839499Y-121325348D01*
X157839499Y-121491054D01*
X157839498Y-121491054D01*
X157853882Y-121544737D01*
X157880423Y-121643785D01*
X157897338Y-121673082D01*
X157947794Y-121760475D01*
X157959479Y-121780714D01*
X157959481Y-121780717D01*
X157967870Y-121789106D01*
X158001355Y-121850429D01*
X157996371Y-121920121D01*
X157954499Y-121976054D01*
X157889035Y-122000471D01*
X157820762Y-121985619D01*
X157814217Y-121981781D01*
X157773523Y-121956211D01*
X157603254Y-121896631D01*
X157603249Y-121896630D01*
X157424004Y-121876435D01*
X157417037Y-121876435D01*
X157417037Y-121874791D01*
X157356646Y-121864201D01*
X157305275Y-121816842D01*
X157294565Y-121794004D01*
X157260789Y-121697478D01*
X157164816Y-121544738D01*
X157037262Y-121417184D01*
X157026117Y-121410181D01*
X156884523Y-121321211D01*
X156714254Y-121261631D01*
X156714249Y-121261630D01*
X156535004Y-121241435D01*
X156534996Y-121241435D01*
X156355750Y-121261630D01*
X156355745Y-121261631D01*
X156185476Y-121321211D01*
X156032736Y-121417185D01*
X156029903Y-121419445D01*
X156027724Y-121420334D01*
X156026842Y-121420889D01*
X156026744Y-121420734D01*
X155965217Y-121445855D01*
X155952588Y-121446500D01*
X155819097Y-121446500D01*
X155752058Y-121426815D01*
X155731416Y-121410181D01*
X154455481Y-120134246D01*
X154421996Y-120072923D01*
X154426980Y-120003231D01*
X154468852Y-119947298D01*
X154534316Y-119922881D01*
X154557044Y-119923344D01*
X154584350Y-119926421D01*
X154629998Y-119931565D01*
X154630000Y-119931565D01*
X154630004Y-119931565D01*
X154809249Y-119911369D01*
X154809252Y-119911368D01*
X154809255Y-119911368D01*
X154979522Y-119851789D01*
X155132262Y-119755816D01*
X155259816Y-119628262D01*
X155355789Y-119475522D01*
X155415368Y-119305255D01*
X155415369Y-119305249D01*
X155435565Y-119126003D01*
X155435565Y-119125996D01*
X155415369Y-118946750D01*
X155415368Y-118946745D01*
X155398829Y-118899480D01*
X155355789Y-118776478D01*
X155343999Y-118757715D01*
X155259815Y-118623737D01*
X155132262Y-118496184D01*
X154979521Y-118400210D01*
X154809249Y-118340630D01*
X154722330Y-118330837D01*
X154657916Y-118303770D01*
X154648533Y-118295298D01*
X153847590Y-117494355D01*
X153847588Y-117494352D01*
X153728717Y-117375481D01*
X153728709Y-117375475D01*
X153626936Y-117316717D01*
X153626934Y-117316716D01*
X153591790Y-117296425D01*
X153591789Y-117296424D01*
X153579263Y-117293067D01*
X153439057Y-117255499D01*
X153280943Y-117255499D01*
X153273347Y-117255499D01*
X153273331Y-117255500D01*
X141216568Y-117255500D01*
X141149529Y-117235815D01*
X141103774Y-117183011D01*
X141093247Y-117144462D01*
X141074674Y-116967744D01*
X141016179Y-116787716D01*
X140921533Y-116623784D01*
X140794871Y-116483112D01*
X140774758Y-116468499D01*
X140641734Y-116371851D01*
X140641729Y-116371848D01*
X140468807Y-116294857D01*
X140468802Y-116294855D01*
X140323001Y-116263865D01*
X140283646Y-116255500D01*
X140094354Y-116255500D01*
X140061897Y-116262398D01*
X139909197Y-116294855D01*
X139909192Y-116294857D01*
X139736270Y-116371848D01*
X139701530Y-116397088D01*
X139670244Y-116419818D01*
X139604440Y-116443298D01*
X139597361Y-116443500D01*
X133229929Y-116443500D01*
X133104261Y-116468497D01*
X133104255Y-116468499D01*
X132985870Y-116517535D01*
X132879331Y-116588722D01*
X132879324Y-116588728D01*
X131264724Y-118203328D01*
X131200841Y-118298938D01*
X131193539Y-118309866D01*
X131193533Y-118309877D01*
X131144499Y-118428255D01*
X131144497Y-118428261D01*
X131119500Y-118553928D01*
X131119500Y-123576500D01*
X131099815Y-123643539D01*
X131047011Y-123689294D01*
X130995500Y-123700500D01*
X128215373Y-123700500D01*
X128148334Y-123680815D01*
X128102579Y-123628011D01*
X128092052Y-123589460D01*
X128083674Y-123509745D01*
X128083672Y-123509740D01*
X128025179Y-123329716D01*
X127930533Y-123165784D01*
X127803871Y-123025112D01*
X127803870Y-123025111D01*
X127650734Y-122913851D01*
X127650729Y-122913848D01*
X127477807Y-122836857D01*
X127477802Y-122836855D01*
X127332001Y-122805865D01*
X127292646Y-122797500D01*
X127103354Y-122797500D01*
X127070897Y-122804398D01*
X126918197Y-122836855D01*
X126918192Y-122836857D01*
X126745270Y-122913848D01*
X126745265Y-122913851D01*
X126592129Y-123025111D01*
X126465466Y-123165785D01*
X126370821Y-123329715D01*
X126370818Y-123329722D01*
X126312327Y-123509740D01*
X126312326Y-123509744D01*
X126292540Y-123698000D01*
X126312326Y-123886256D01*
X126312327Y-123886259D01*
X126370818Y-124066277D01*
X126370821Y-124066284D01*
X126465467Y-124230216D01*
X126592129Y-124370888D01*
X126745272Y-124482153D01*
X126750896Y-124485400D01*
X126749293Y-124488176D01*
X126792074Y-124523966D01*
X126805117Y-124549469D01*
X126823446Y-124598610D01*
X126823448Y-124598613D01*
X126823450Y-124598619D01*
X126834593Y-124619025D01*
X126856935Y-124659942D01*
X126856936Y-124659944D01*
X126943152Y-124775116D01*
X126943168Y-124775134D01*
X127573850Y-125405814D01*
X127589271Y-125424605D01*
X127629878Y-125485378D01*
X127641337Y-125506815D01*
X127669302Y-125574328D01*
X127676358Y-125597586D01*
X127683770Y-125634843D01*
X127683770Y-125634845D01*
X127690617Y-125669264D01*
X127693000Y-125693457D01*
X127693000Y-125766539D01*
X127690617Y-125790733D01*
X127676358Y-125862410D01*
X127669302Y-125885668D01*
X127641335Y-125953187D01*
X127629876Y-125974625D01*
X127589275Y-126035389D01*
X127573854Y-126054180D01*
X127522180Y-126105854D01*
X127503390Y-126121275D01*
X127442628Y-126161875D01*
X127421191Y-126173334D01*
X127353667Y-126201304D01*
X127330405Y-126208360D01*
X127281393Y-126218109D01*
X127258731Y-126222617D01*
X127234541Y-126225000D01*
X127161460Y-126225000D01*
X127137269Y-126222617D01*
X127117553Y-126218695D01*
X127065589Y-126208358D01*
X127042329Y-126201302D01*
X126974811Y-126173335D01*
X126953374Y-126161876D01*
X126892607Y-126121273D01*
X126873816Y-126105852D01*
X125767443Y-124999479D01*
X124652842Y-123884877D01*
X124612580Y-123848712D01*
X124591938Y-123832078D01*
X124591932Y-123832073D01*
X124548054Y-123800433D01*
X124417180Y-123740663D01*
X124350135Y-123720976D01*
X124288072Y-123712053D01*
X124207718Y-123700500D01*
X102983220Y-123700500D01*
X102916181Y-123680815D01*
X102870426Y-123628011D01*
X102859220Y-123576500D01*
X102859220Y-120395992D01*
X103860671Y-120395992D01*
X103860671Y-120396007D01*
X103879964Y-120690363D01*
X103879965Y-120690373D01*
X103879966Y-120690380D01*
X103879968Y-120690390D01*
X103937518Y-120979716D01*
X103937521Y-120979730D01*
X104032349Y-121259080D01*
X104162825Y-121523660D01*
X104162829Y-121523667D01*
X104326725Y-121768955D01*
X104521241Y-121990758D01*
X104686316Y-122135525D01*
X104743043Y-122185273D01*
X104988335Y-122349172D01*
X105252923Y-122479652D01*
X105532278Y-122574481D01*
X105821620Y-122632034D01*
X105849888Y-122633886D01*
X106115993Y-122651329D01*
X106116000Y-122651329D01*
X106116007Y-122651329D01*
X106351675Y-122635881D01*
X106410380Y-122632034D01*
X106699722Y-122574481D01*
X106979077Y-122479652D01*
X107243665Y-122349172D01*
X107488957Y-122185273D01*
X107710758Y-121990758D01*
X107905273Y-121768957D01*
X108069172Y-121523665D01*
X108199652Y-121259077D01*
X108294481Y-120979722D01*
X108352034Y-120690380D01*
X108361997Y-120538372D01*
X108371329Y-120396007D01*
X108371329Y-120395992D01*
X108368970Y-120359995D01*
X110334732Y-120359995D01*
X110334732Y-120360004D01*
X110353777Y-120614154D01*
X110388063Y-120764373D01*
X110410492Y-120862637D01*
X110503607Y-121099888D01*
X110631041Y-121320612D01*
X110789950Y-121519877D01*
X110976783Y-121693232D01*
X111187366Y-121836805D01*
X111187371Y-121836807D01*
X111187372Y-121836808D01*
X111187373Y-121836809D01*
X111293374Y-121887856D01*
X111416992Y-121947387D01*
X111416993Y-121947387D01*
X111416996Y-121947389D01*
X111660542Y-122022513D01*
X111912565Y-122060500D01*
X112167435Y-122060500D01*
X112419458Y-122022513D01*
X112663004Y-121947389D01*
X112844458Y-121860005D01*
X112892626Y-121836809D01*
X112892626Y-121836808D01*
X112892634Y-121836805D01*
X113103217Y-121693232D01*
X113290050Y-121519877D01*
X113448959Y-121320612D01*
X113576393Y-121099888D01*
X113669508Y-120862637D01*
X113726222Y-120614157D01*
X113735638Y-120488501D01*
X113745268Y-120360004D01*
X113745268Y-120359995D01*
X113726222Y-120105845D01*
X113725261Y-120101636D01*
X113669508Y-119857363D01*
X113576393Y-119620112D01*
X113448959Y-119399388D01*
X113290050Y-119200123D01*
X113103217Y-119026768D01*
X112892634Y-118883195D01*
X112892630Y-118883193D01*
X112892627Y-118883191D01*
X112892626Y-118883190D01*
X112663006Y-118772612D01*
X112663008Y-118772612D01*
X112419466Y-118697489D01*
X112419462Y-118697488D01*
X112419458Y-118697487D01*
X112298231Y-118679214D01*
X112167440Y-118659500D01*
X112167435Y-118659500D01*
X111912565Y-118659500D01*
X111912559Y-118659500D01*
X111755609Y-118683157D01*
X111660542Y-118697487D01*
X111660539Y-118697488D01*
X111660533Y-118697489D01*
X111416992Y-118772612D01*
X111187373Y-118883190D01*
X111187372Y-118883191D01*
X110976782Y-119026768D01*
X110789952Y-119200121D01*
X110789950Y-119200123D01*
X110631041Y-119399388D01*
X110503608Y-119620109D01*
X110410492Y-119857362D01*
X110410490Y-119857369D01*
X110353777Y-120105845D01*
X110334732Y-120359995D01*
X108368970Y-120359995D01*
X108352035Y-120101636D01*
X108352034Y-120101620D01*
X108294481Y-119812278D01*
X108199652Y-119532923D01*
X108069172Y-119268336D01*
X108057709Y-119251181D01*
X107996842Y-119160086D01*
X107905273Y-119023043D01*
X107862655Y-118974447D01*
X107710758Y-118801241D01*
X107488955Y-118606725D01*
X107243667Y-118442829D01*
X107243660Y-118442825D01*
X106979080Y-118312349D01*
X106699730Y-118217521D01*
X106699724Y-118217519D01*
X106699722Y-118217519D01*
X106410380Y-118159966D01*
X106410373Y-118159965D01*
X106410363Y-118159964D01*
X106116007Y-118140671D01*
X106115993Y-118140671D01*
X105821636Y-118159964D01*
X105821624Y-118159965D01*
X105821620Y-118159966D01*
X105821612Y-118159967D01*
X105821609Y-118159968D01*
X105532283Y-118217518D01*
X105532269Y-118217521D01*
X105252919Y-118312349D01*
X104988334Y-118442828D01*
X104743041Y-118606728D01*
X104521241Y-118801241D01*
X104326728Y-119023041D01*
X104162828Y-119268334D01*
X104032349Y-119532919D01*
X103937521Y-119812269D01*
X103937518Y-119812283D01*
X103879968Y-120101609D01*
X103879964Y-120101636D01*
X103860671Y-120395992D01*
X102859220Y-120395992D01*
X102859220Y-100708000D01*
X102878905Y-100640961D01*
X102931709Y-100595206D01*
X102983220Y-100584000D01*
X106370000Y-100584000D01*
X109417181Y-97536819D01*
X109478504Y-97503334D01*
X109504862Y-97500500D01*
X117713138Y-97500500D01*
X117780177Y-97520185D01*
X117800819Y-97536819D01*
X118816000Y-98552000D01*
X131394000Y-98552000D01*
X135167681Y-94778319D01*
X135229004Y-94744834D01*
X135255362Y-94742000D01*
X145688638Y-94742000D01*
X145755677Y-94761685D01*
G37*
%TD.AperFunction*%
%TA.AperFunction,Conductor*%
G36*
X136447518Y-117764185D02*
G01*
X136493273Y-117816989D01*
X136503217Y-117886147D01*
X136497521Y-117909455D01*
X136445631Y-118057745D01*
X136445630Y-118057750D01*
X136425435Y-118236996D01*
X136425435Y-118237003D01*
X136445630Y-118416249D01*
X136445631Y-118416254D01*
X136505211Y-118586523D01*
X136574936Y-118697489D01*
X136601184Y-118739262D01*
X136728738Y-118866816D01*
X136780724Y-118899481D01*
X136870945Y-118956171D01*
X136881478Y-118962789D01*
X137020077Y-119011287D01*
X137051745Y-119022368D01*
X137051750Y-119022369D01*
X137230996Y-119042565D01*
X137231000Y-119042565D01*
X137231004Y-119042565D01*
X137410249Y-119022369D01*
X137410252Y-119022368D01*
X137410255Y-119022368D01*
X137580522Y-118962789D01*
X137733262Y-118866816D01*
X137860816Y-118739262D01*
X137956789Y-118586522D01*
X137973228Y-118539542D01*
X138013948Y-118482769D01*
X138078901Y-118457022D01*
X138090268Y-118456500D01*
X142585954Y-118456500D01*
X142652993Y-118476185D01*
X142698748Y-118528989D01*
X142708692Y-118598147D01*
X142693341Y-118642500D01*
X142626821Y-118757715D01*
X142626819Y-118757719D01*
X142571478Y-118928041D01*
X142541228Y-118977403D01*
X141945451Y-119573181D01*
X141884128Y-119606666D01*
X141857770Y-119609500D01*
X140774117Y-119609500D01*
X140707078Y-119589815D01*
X140682887Y-119569483D01*
X140519744Y-119392262D01*
X140323509Y-119239526D01*
X140323507Y-119239525D01*
X140323506Y-119239524D01*
X140104811Y-119121172D01*
X140104802Y-119121169D01*
X139869616Y-119040429D01*
X139624335Y-118999500D01*
X139375665Y-118999500D01*
X139130383Y-119040429D01*
X138895197Y-119121169D01*
X138895188Y-119121172D01*
X138676493Y-119239524D01*
X138512666Y-119367036D01*
X138480256Y-119392262D01*
X138337350Y-119547500D01*
X138317113Y-119569483D01*
X138257226Y-119605473D01*
X138225883Y-119609500D01*
X136501858Y-119609500D01*
X136434819Y-119589815D01*
X136394471Y-119547500D01*
X136352915Y-119475523D01*
X136308959Y-119399388D01*
X136150050Y-119200123D01*
X135963217Y-119026768D01*
X135752634Y-118883195D01*
X135752630Y-118883193D01*
X135752627Y-118883191D01*
X135752626Y-118883190D01*
X135523006Y-118772612D01*
X135523008Y-118772612D01*
X135279466Y-118697489D01*
X135279462Y-118697488D01*
X135279458Y-118697487D01*
X135158231Y-118679214D01*
X135027440Y-118659500D01*
X135027435Y-118659500D01*
X134772565Y-118659500D01*
X134772559Y-118659500D01*
X134615609Y-118683157D01*
X134520542Y-118697487D01*
X134520539Y-118697488D01*
X134520533Y-118697489D01*
X134276992Y-118772612D01*
X134047373Y-118883190D01*
X134047372Y-118883191D01*
X133836782Y-119026768D01*
X133649952Y-119200121D01*
X133649950Y-119200123D01*
X133491041Y-119399388D01*
X133363608Y-119620109D01*
X133270492Y-119857362D01*
X133270490Y-119857369D01*
X133213777Y-120105845D01*
X133194732Y-120359995D01*
X133194732Y-120360004D01*
X133213777Y-120614154D01*
X133248063Y-120764373D01*
X133270492Y-120862637D01*
X133363607Y-121099888D01*
X133491041Y-121320612D01*
X133649950Y-121519877D01*
X133836783Y-121693232D01*
X134047366Y-121836805D01*
X134047371Y-121836807D01*
X134047372Y-121836808D01*
X134047373Y-121836809D01*
X134153374Y-121887856D01*
X134276992Y-121947387D01*
X134276993Y-121947387D01*
X134276996Y-121947389D01*
X134520542Y-122022513D01*
X134772565Y-122060500D01*
X135027435Y-122060500D01*
X135279458Y-122022513D01*
X135523004Y-121947389D01*
X135704458Y-121860005D01*
X135752626Y-121836809D01*
X135752626Y-121836808D01*
X135752634Y-121836805D01*
X135963217Y-121693232D01*
X136150050Y-121519877D01*
X136308959Y-121320612D01*
X136394471Y-121172500D01*
X136445038Y-121124284D01*
X136501858Y-121110500D01*
X138048271Y-121110500D01*
X138115310Y-121130185D01*
X138161065Y-121182989D01*
X138161827Y-121184691D01*
X138175825Y-121216605D01*
X138311833Y-121424782D01*
X138311836Y-121424785D01*
X138480256Y-121607738D01*
X138676491Y-121760474D01*
X138895190Y-121878828D01*
X139094895Y-121947387D01*
X139116156Y-121954686D01*
X139130386Y-121959571D01*
X139375665Y-122000500D01*
X139624335Y-122000500D01*
X139869614Y-121959571D01*
X140104810Y-121878828D01*
X140323509Y-121760474D01*
X140519744Y-121607738D01*
X140688164Y-121424785D01*
X140824173Y-121216607D01*
X140824174Y-121216605D01*
X140838173Y-121184691D01*
X140883128Y-121131205D01*
X140949864Y-121110514D01*
X140951729Y-121110500D01*
X142293920Y-121110500D01*
X142391462Y-121091096D01*
X142438913Y-121081658D01*
X142575495Y-121025084D01*
X142629677Y-120988881D01*
X142629677Y-120988880D01*
X142629679Y-120988880D01*
X142664046Y-120965916D01*
X142698416Y-120942952D01*
X143606770Y-120034595D01*
X143668091Y-120001112D01*
X143668427Y-120001039D01*
X143733803Y-119987144D01*
X143906730Y-119910151D01*
X144059871Y-119798888D01*
X144186533Y-119658216D01*
X144281179Y-119494284D01*
X144339674Y-119314256D01*
X144359460Y-119126000D01*
X144339674Y-118937744D01*
X144281179Y-118757716D01*
X144214658Y-118642499D01*
X144198186Y-118574600D01*
X144221039Y-118508573D01*
X144275960Y-118465382D01*
X144322046Y-118456500D01*
X149832902Y-118456500D01*
X149899941Y-118476185D01*
X149945696Y-118528989D01*
X149955640Y-118598147D01*
X149926615Y-118661703D01*
X149920583Y-118668181D01*
X149845583Y-118743181D01*
X149784260Y-118776666D01*
X149757902Y-118779500D01*
X149724941Y-118779500D01*
X149701538Y-118785770D01*
X149701539Y-118785771D01*
X149572214Y-118820423D01*
X149572209Y-118820426D01*
X149435290Y-118899475D01*
X149435282Y-118899481D01*
X149323478Y-119011286D01*
X149323477Y-119011287D01*
X149277464Y-119057299D01*
X149216141Y-119090783D01*
X149203668Y-119092837D01*
X149116750Y-119102630D01*
X148946478Y-119162210D01*
X148793737Y-119258184D01*
X148666184Y-119385737D01*
X148570211Y-119538476D01*
X148510631Y-119708745D01*
X148510630Y-119708750D01*
X148490435Y-119887996D01*
X148490435Y-119888003D01*
X148510630Y-120067249D01*
X148510631Y-120067254D01*
X148570211Y-120237523D01*
X148652525Y-120368524D01*
X148666184Y-120390262D01*
X148793738Y-120517816D01*
X148946478Y-120613789D01*
X149043856Y-120647863D01*
X149116745Y-120673368D01*
X149116750Y-120673369D01*
X149295996Y-120693565D01*
X149296000Y-120693565D01*
X149296004Y-120693565D01*
X149475249Y-120673369D01*
X149475252Y-120673368D01*
X149475255Y-120673368D01*
X149645522Y-120613789D01*
X149798262Y-120517816D01*
X149925816Y-120390262D01*
X150021789Y-120237522D01*
X150081368Y-120067255D01*
X150081369Y-120067242D01*
X150082205Y-120063586D01*
X150083396Y-120061455D01*
X150083667Y-120060683D01*
X150083802Y-120060730D01*
X150116314Y-120002608D01*
X150170999Y-119971405D01*
X150289785Y-119939577D01*
X150304956Y-119930817D01*
X150345760Y-119907260D01*
X150345771Y-119907252D01*
X150345783Y-119907246D01*
X150426716Y-119860520D01*
X150524417Y-119762819D01*
X150585740Y-119729334D01*
X150612098Y-119726500D01*
X151789903Y-119726500D01*
X151856942Y-119746185D01*
X151877583Y-119762818D01*
X152483284Y-120368520D01*
X152483286Y-120368521D01*
X152483290Y-120368524D01*
X152530867Y-120395992D01*
X152620216Y-120447577D01*
X152772943Y-120488501D01*
X152772945Y-120488501D01*
X152938654Y-120488501D01*
X152938670Y-120488500D01*
X153059903Y-120488500D01*
X153126942Y-120508185D01*
X153147584Y-120524819D01*
X154333584Y-121710819D01*
X154367069Y-121772142D01*
X154362085Y-121841834D01*
X154320213Y-121897767D01*
X154254749Y-121922184D01*
X154245903Y-121922500D01*
X150248263Y-121922500D01*
X150230280Y-121922820D01*
X150222635Y-121923093D01*
X150221390Y-121923138D01*
X150221386Y-121923138D01*
X150221364Y-121923139D01*
X150203378Y-121924103D01*
X150203363Y-121924105D01*
X150062787Y-121954686D01*
X150062782Y-121954687D01*
X150062781Y-121954688D01*
X150058698Y-121956211D01*
X149997315Y-121979105D01*
X149997311Y-121979107D01*
X149871043Y-122048055D01*
X149807686Y-122111409D01*
X149746362Y-122144892D01*
X149676670Y-122139906D01*
X149632326Y-122111406D01*
X148168784Y-120647863D01*
X148168780Y-120647860D01*
X148004920Y-120538372D01*
X148004910Y-120538367D01*
X147822836Y-120462949D01*
X147822828Y-120462947D01*
X147629543Y-120424500D01*
X147629540Y-120424500D01*
X147432460Y-120424500D01*
X147432457Y-120424500D01*
X147239171Y-120462947D01*
X147239163Y-120462949D01*
X147057089Y-120538367D01*
X147057077Y-120538373D01*
X147034289Y-120553601D01*
X146967612Y-120574480D01*
X146965397Y-120574500D01*
X146659228Y-120574500D01*
X146494925Y-120607182D01*
X146494917Y-120607184D01*
X146340139Y-120671295D01*
X146200837Y-120764373D01*
X146082373Y-120882837D01*
X145989296Y-121022137D01*
X145931419Y-121161864D01*
X145904539Y-121202091D01*
X143218573Y-123888058D01*
X143157250Y-123921543D01*
X143087558Y-123916559D01*
X143049691Y-123894091D01*
X142941606Y-123800433D01*
X142941603Y-123800431D01*
X142941601Y-123800430D01*
X142810735Y-123740664D01*
X142810730Y-123740662D01*
X142810729Y-123740662D01*
X142743690Y-123720977D01*
X142743692Y-123720977D01*
X142743687Y-123720976D01*
X142681624Y-123712053D01*
X142601270Y-123700500D01*
X142515308Y-123700500D01*
X142515306Y-123700500D01*
X142461257Y-123703397D01*
X142461256Y-123703397D01*
X142434923Y-123706229D01*
X142434896Y-123706232D01*
X142381500Y-123714885D01*
X142381498Y-123714885D01*
X142246693Y-123765166D01*
X142185368Y-123798651D01*
X142070186Y-123884876D01*
X142070174Y-123884886D01*
X141137069Y-124817991D01*
X141118268Y-124833420D01*
X141114831Y-124835716D01*
X141093414Y-124847163D01*
X141089586Y-124848749D01*
X141066339Y-124855804D01*
X141062271Y-124856613D01*
X141038065Y-124859000D01*
X135494947Y-124859000D01*
X135480561Y-124859205D01*
X135473473Y-124859407D01*
X135459041Y-124860026D01*
X135459028Y-124860027D01*
X135318025Y-124888599D01*
X135318015Y-124888602D01*
X135252214Y-124912080D01*
X135124960Y-124979225D01*
X135027125Y-125050305D01*
X135004677Y-125063265D01*
X134952639Y-125086434D01*
X134927986Y-125094445D01*
X134890790Y-125102352D01*
X134872263Y-125106290D01*
X134846482Y-125109000D01*
X134789516Y-125109000D01*
X134763735Y-125106290D01*
X134708013Y-125094446D01*
X134683356Y-125086434D01*
X134631314Y-125063262D01*
X134608868Y-125050303D01*
X134562787Y-125016824D01*
X134543523Y-124999479D01*
X134505399Y-124957140D01*
X134490161Y-124936168D01*
X134461673Y-124886823D01*
X134451133Y-124863151D01*
X134433528Y-124808967D01*
X134428141Y-124783622D01*
X134422186Y-124726959D01*
X134422186Y-124701040D01*
X134426505Y-124659944D01*
X134428141Y-124644379D01*
X134433527Y-124619034D01*
X134464236Y-124524527D01*
X134475839Y-124482816D01*
X134480646Y-124462145D01*
X134482862Y-124450342D01*
X134488638Y-124419591D01*
X134488638Y-124419588D01*
X134488639Y-124419583D01*
X134488638Y-124275703D01*
X134478694Y-124206545D01*
X134438159Y-124068496D01*
X134360371Y-123947457D01*
X134360366Y-123947451D01*
X134314622Y-123894659D01*
X134314618Y-123894656D01*
X134314616Y-123894653D01*
X134205882Y-123800433D01*
X134205879Y-123800431D01*
X134205877Y-123800430D01*
X134075011Y-123740664D01*
X134075006Y-123740662D01*
X134075005Y-123740662D01*
X134007966Y-123720977D01*
X134007968Y-123720977D01*
X134007963Y-123720976D01*
X133945900Y-123712053D01*
X133865546Y-123700500D01*
X133865544Y-123700500D01*
X132544500Y-123700500D01*
X132477461Y-123680815D01*
X132431706Y-123628011D01*
X132420500Y-123576500D01*
X132420500Y-118938808D01*
X132440185Y-118871769D01*
X132456819Y-118851127D01*
X133527127Y-117780819D01*
X133588450Y-117747334D01*
X133614808Y-117744500D01*
X136380479Y-117744500D01*
X136447518Y-117764185D01*
G37*
%TD.AperFunction*%
%TD*%
%TA.AperFunction,Conductor*%
%TO.N,GND*%
G36*
X196337736Y-62984726D02*
G01*
X196627796Y-63002271D01*
X196642659Y-63004076D01*
X196924798Y-63055780D01*
X196939335Y-63059363D01*
X197213172Y-63144695D01*
X197227163Y-63150000D01*
X197488743Y-63267727D01*
X197501989Y-63274680D01*
X197747465Y-63423075D01*
X197759776Y-63431573D01*
X197985573Y-63608473D01*
X197996781Y-63618403D01*
X198199596Y-63821218D01*
X198209526Y-63832426D01*
X198329481Y-63985538D01*
X198386422Y-64058217D01*
X198394928Y-64070540D01*
X198543316Y-64316004D01*
X198550275Y-64329263D01*
X198667997Y-64590831D01*
X198673306Y-64604832D01*
X198758635Y-64878663D01*
X198762219Y-64893201D01*
X198813923Y-65175340D01*
X198815728Y-65190205D01*
X198833274Y-65480263D01*
X198833500Y-65487750D01*
X198833500Y-135680249D01*
X198833274Y-135687736D01*
X198815728Y-135977794D01*
X198813923Y-135992659D01*
X198762219Y-136274798D01*
X198758635Y-136289336D01*
X198673306Y-136563167D01*
X198667997Y-136577168D01*
X198550275Y-136838736D01*
X198543316Y-136851995D01*
X198394928Y-137097459D01*
X198386422Y-137109782D01*
X198209526Y-137335573D01*
X198199596Y-137346781D01*
X197996781Y-137549596D01*
X197985573Y-137559526D01*
X197759782Y-137736422D01*
X197747459Y-137744928D01*
X197501995Y-137893316D01*
X197488736Y-137900275D01*
X197227168Y-138017997D01*
X197213167Y-138023306D01*
X196939336Y-138108635D01*
X196924798Y-138112219D01*
X196642659Y-138163923D01*
X196627794Y-138165728D01*
X196337736Y-138183274D01*
X196330249Y-138183500D01*
X105432219Y-138183500D01*
X105432203Y-138183499D01*
X105362465Y-138183499D01*
X105354979Y-138183273D01*
X105064919Y-138165730D01*
X105050054Y-138163925D01*
X104767922Y-138112224D01*
X104753389Y-138108642D01*
X104616460Y-138065975D01*
X104479538Y-138023309D01*
X104465537Y-138017999D01*
X104203973Y-137900280D01*
X104190714Y-137893321D01*
X103945249Y-137744933D01*
X103932926Y-137736427D01*
X103707137Y-137559535D01*
X103695929Y-137549606D01*
X103493104Y-137346783D01*
X103483174Y-137335574D01*
X103483173Y-137335573D01*
X103306276Y-137109781D01*
X103297778Y-137097470D01*
X103149378Y-136851988D01*
X103142429Y-136838746D01*
X103024702Y-136577168D01*
X103019403Y-136563198D01*
X102934060Y-136289322D01*
X102930481Y-136274800D01*
X102880704Y-136003181D01*
X102878775Y-135992659D01*
X102876971Y-135977796D01*
X102871660Y-135890000D01*
X102859446Y-135688066D01*
X102859220Y-135680579D01*
X102859220Y-124330000D01*
X102878905Y-124262961D01*
X102931709Y-124217206D01*
X102983220Y-124206000D01*
X124207718Y-124206000D01*
X124274757Y-124225685D01*
X124295399Y-124242319D01*
X126560215Y-126507136D01*
X126560219Y-126507139D01*
X126724079Y-126616627D01*
X126724083Y-126616629D01*
X126724086Y-126616631D01*
X126906164Y-126692051D01*
X127099455Y-126730499D01*
X127099458Y-126730500D01*
X127099460Y-126730500D01*
X127296542Y-126730500D01*
X127296543Y-126730499D01*
X127489836Y-126692051D01*
X127671914Y-126616631D01*
X127835781Y-126507139D01*
X127975139Y-126367781D01*
X128084631Y-126203914D01*
X128160051Y-126021836D01*
X128198500Y-125828540D01*
X128198500Y-125631460D01*
X128198500Y-125631457D01*
X128198499Y-125631455D01*
X128179557Y-125536226D01*
X128160051Y-125438164D01*
X128084631Y-125256086D01*
X128084629Y-125256083D01*
X128084627Y-125256079D01*
X127975139Y-125092219D01*
X127975136Y-125092215D01*
X127300601Y-124417681D01*
X127267116Y-124356358D01*
X127272100Y-124286667D01*
X127313971Y-124230733D01*
X127379436Y-124206316D01*
X127388282Y-124206000D01*
X133865546Y-124206000D01*
X133932585Y-124225685D01*
X133978340Y-124278489D01*
X133988284Y-124347647D01*
X133983477Y-124368318D01*
X133932326Y-124525744D01*
X133912540Y-124714000D01*
X133932326Y-124902256D01*
X133932327Y-124902259D01*
X133990818Y-125082277D01*
X133990821Y-125082284D01*
X134085467Y-125246216D01*
X134173346Y-125343815D01*
X134212129Y-125386888D01*
X134365265Y-125498148D01*
X134365270Y-125498151D01*
X134538192Y-125575142D01*
X134538197Y-125575144D01*
X134723354Y-125614500D01*
X134723355Y-125614500D01*
X134912644Y-125614500D01*
X134912646Y-125614500D01*
X135097803Y-125575144D01*
X135270730Y-125498151D01*
X135422090Y-125388182D01*
X135487896Y-125364702D01*
X135494975Y-125364500D01*
X141100071Y-125364500D01*
X141184615Y-125347682D01*
X141225744Y-125339501D01*
X141344127Y-125290465D01*
X141386622Y-125262071D01*
X141450669Y-125219277D01*
X142427627Y-124242319D01*
X142488950Y-124208834D01*
X142515308Y-124206000D01*
X142601270Y-124206000D01*
X142668309Y-124225685D01*
X142714064Y-124278489D01*
X142724008Y-124347647D01*
X142694983Y-124411203D01*
X142688951Y-124417681D01*
X140893451Y-126213181D01*
X140832128Y-126246666D01*
X140805770Y-126249500D01*
X133474080Y-126249500D01*
X133329092Y-126278340D01*
X133329082Y-126278343D01*
X133192511Y-126334912D01*
X133192498Y-126334919D01*
X133143320Y-126367780D01*
X133143319Y-126367781D01*
X133069582Y-126417049D01*
X133069581Y-126417050D01*
X132379228Y-127107402D01*
X132317905Y-127140887D01*
X132317329Y-127141011D01*
X132252196Y-127154856D01*
X132252192Y-127154857D01*
X132079270Y-127231848D01*
X132079265Y-127231851D01*
X131926129Y-127343111D01*
X131799467Y-127483784D01*
X131799466Y-127483784D01*
X131704821Y-127647715D01*
X131704819Y-127647719D01*
X131649479Y-127818039D01*
X131619229Y-127867401D01*
X129209451Y-130277181D01*
X129148128Y-130310666D01*
X129121770Y-130313500D01*
X117337972Y-130313500D01*
X117297017Y-130306542D01*
X117217254Y-130278631D01*
X117217249Y-130278630D01*
X117038004Y-130258435D01*
X117037996Y-130258435D01*
X116858750Y-130278630D01*
X116858745Y-130278631D01*
X116778983Y-130306542D01*
X116738028Y-130313500D01*
X114170080Y-130313500D01*
X114025092Y-130342340D01*
X114025082Y-130342343D01*
X113888511Y-130398912D01*
X113888498Y-130398919D01*
X113844374Y-130428403D01*
X113844373Y-130428403D01*
X113765585Y-130481046D01*
X113765578Y-130481052D01*
X109905451Y-134341181D01*
X109844128Y-134374666D01*
X109817770Y-134377500D01*
X109251034Y-134377500D01*
X109183995Y-134357815D01*
X109163885Y-134341609D01*
X109163387Y-134341216D01*
X109020295Y-134252955D01*
X109020289Y-134252952D01*
X109020287Y-134252951D01*
X108860685Y-134200064D01*
X108860683Y-134200063D01*
X108762181Y-134190000D01*
X108762174Y-134190000D01*
X108153826Y-134190000D01*
X108153818Y-134190000D01*
X108055316Y-134200063D01*
X108055315Y-134200064D01*
X107976219Y-134226273D01*
X107895715Y-134252950D01*
X107895704Y-134252955D01*
X107752612Y-134341216D01*
X107752608Y-134341219D01*
X107633719Y-134460108D01*
X107633716Y-134460112D01*
X107545455Y-134603204D01*
X107545450Y-134603215D01*
X107543900Y-134607894D01*
X107492564Y-134762815D01*
X107492564Y-134762816D01*
X107492563Y-134762816D01*
X107482500Y-134861318D01*
X107482500Y-135394681D01*
X107492563Y-135493183D01*
X107545450Y-135652784D01*
X107545455Y-135652795D01*
X107633716Y-135795887D01*
X107633719Y-135795891D01*
X107665647Y-135827819D01*
X107699132Y-135889142D01*
X107694148Y-135958834D01*
X107665647Y-136003181D01*
X107633719Y-136035108D01*
X107633716Y-136035112D01*
X107545455Y-136178204D01*
X107545450Y-136178215D01*
X107532020Y-136218745D01*
X107492564Y-136337815D01*
X107492564Y-136337816D01*
X107492563Y-136337816D01*
X107482500Y-136436318D01*
X107482500Y-136969681D01*
X107492563Y-137068183D01*
X107545450Y-137227784D01*
X107545455Y-137227795D01*
X107633716Y-137370887D01*
X107633719Y-137370891D01*
X107752608Y-137489780D01*
X107752612Y-137489783D01*
X107895704Y-137578044D01*
X107895707Y-137578045D01*
X107895713Y-137578049D01*
X108055315Y-137630936D01*
X108153826Y-137641000D01*
X108153831Y-137641000D01*
X108762169Y-137641000D01*
X108762174Y-137641000D01*
X108860685Y-137630936D01*
X109020287Y-137578049D01*
X109163391Y-137489781D01*
X109214353Y-137438819D01*
X109275676Y-137405334D01*
X109302034Y-137402500D01*
X109653920Y-137402500D01*
X109751462Y-137383096D01*
X109798913Y-137373658D01*
X109935495Y-137317084D01*
X109984729Y-137284186D01*
X110058416Y-137234952D01*
X110092541Y-137200825D01*
X110139266Y-137171466D01*
X110275522Y-137123789D01*
X110428262Y-137027816D01*
X110555816Y-136900262D01*
X110651789Y-136747522D01*
X110711368Y-136577255D01*
X110711378Y-136577168D01*
X110731565Y-136398003D01*
X110731565Y-136397996D01*
X110711369Y-136218750D01*
X110711368Y-136218745D01*
X110651788Y-136048476D01*
X110568525Y-135915964D01*
X110549525Y-135848727D01*
X110569893Y-135781892D01*
X110604627Y-135746891D01*
X110658416Y-135710952D01*
X110987372Y-135381996D01*
X120296435Y-135381996D01*
X120296435Y-135382003D01*
X120316630Y-135561249D01*
X120316631Y-135561254D01*
X120376211Y-135731523D01*
X120434336Y-135824028D01*
X120453336Y-135891265D01*
X120434336Y-135955972D01*
X120376211Y-136048476D01*
X120316631Y-136218745D01*
X120316630Y-136218750D01*
X120296435Y-136397996D01*
X120296435Y-136398003D01*
X120316630Y-136577249D01*
X120316631Y-136577254D01*
X120376211Y-136747523D01*
X120433526Y-136838738D01*
X120472184Y-136900262D01*
X120599738Y-137027816D01*
X120752478Y-137123789D01*
X120857561Y-137160559D01*
X120922745Y-137183368D01*
X120922750Y-137183369D01*
X121101996Y-137203565D01*
X121102000Y-137203565D01*
X121102004Y-137203565D01*
X121281249Y-137183369D01*
X121281251Y-137183368D01*
X121281255Y-137183368D01*
X121281258Y-137183366D01*
X121281262Y-137183366D01*
X121434793Y-137129643D01*
X121504572Y-137126081D01*
X121565199Y-137160809D01*
X121593453Y-137207677D01*
X121600115Y-137227783D01*
X121600121Y-137227795D01*
X121688382Y-137370887D01*
X121688385Y-137370891D01*
X121807274Y-137489780D01*
X121807278Y-137489783D01*
X121950370Y-137578044D01*
X121950373Y-137578045D01*
X121950379Y-137578049D01*
X122109981Y-137630936D01*
X122208492Y-137641000D01*
X122208497Y-137641000D01*
X122816835Y-137641000D01*
X122816840Y-137641000D01*
X122915351Y-137630936D01*
X123074953Y-137578049D01*
X123218057Y-137489781D01*
X123336947Y-137370891D01*
X123425215Y-137227787D01*
X123478102Y-137068185D01*
X123488166Y-136969674D01*
X123488166Y-136436326D01*
X123478102Y-136337815D01*
X123425215Y-136178213D01*
X123425211Y-136178207D01*
X123425210Y-136178204D01*
X123336949Y-136035112D01*
X123336946Y-136035108D01*
X123305019Y-136003181D01*
X123271534Y-135941858D01*
X123276518Y-135872166D01*
X123305019Y-135827819D01*
X123315640Y-135817198D01*
X123336947Y-135795891D01*
X123425215Y-135652787D01*
X123478102Y-135493185D01*
X123488166Y-135394674D01*
X123488166Y-135381996D01*
X134520435Y-135381996D01*
X134520435Y-135382003D01*
X134540630Y-135561249D01*
X134540631Y-135561254D01*
X134600211Y-135731523D01*
X134658336Y-135824028D01*
X134677336Y-135891265D01*
X134658336Y-135955972D01*
X134600211Y-136048476D01*
X134540631Y-136218745D01*
X134540630Y-136218750D01*
X134520435Y-136397996D01*
X134520435Y-136398003D01*
X134540630Y-136577249D01*
X134540631Y-136577254D01*
X134600211Y-136747523D01*
X134657526Y-136838738D01*
X134696184Y-136900262D01*
X134823738Y-137027816D01*
X134976478Y-137123789D01*
X135081561Y-137160559D01*
X135146745Y-137183368D01*
X135146750Y-137183369D01*
X135325996Y-137203565D01*
X135326000Y-137203565D01*
X135326004Y-137203565D01*
X135505246Y-137183369D01*
X135505245Y-137183369D01*
X135505255Y-137183368D01*
X135511562Y-137181160D01*
X135581335Y-137177593D01*
X135641966Y-137212316D01*
X135658060Y-137233101D01*
X135743050Y-137370890D01*
X135861940Y-137489780D01*
X135861944Y-137489783D01*
X136005036Y-137578044D01*
X136005039Y-137578045D01*
X136005045Y-137578049D01*
X136164647Y-137630936D01*
X136263158Y-137641000D01*
X136263163Y-137641000D01*
X136871501Y-137641000D01*
X136871506Y-137641000D01*
X136970017Y-137630936D01*
X137129619Y-137578049D01*
X137272723Y-137489781D01*
X137391613Y-137370891D01*
X137479881Y-137227787D01*
X137532768Y-137068185D01*
X137542832Y-136969674D01*
X137542832Y-136436326D01*
X137532768Y-136337815D01*
X137479881Y-136178213D01*
X137479877Y-136178207D01*
X137479876Y-136178204D01*
X137391615Y-136035112D01*
X137391612Y-136035108D01*
X137359685Y-136003181D01*
X137326200Y-135941858D01*
X137331184Y-135872166D01*
X137359685Y-135827819D01*
X137370306Y-135817198D01*
X137391613Y-135795891D01*
X137479881Y-135652787D01*
X137532768Y-135493185D01*
X137542832Y-135394674D01*
X137542832Y-135381996D01*
X148490435Y-135381996D01*
X148490435Y-135382003D01*
X148510630Y-135561249D01*
X148510631Y-135561254D01*
X148570211Y-135731523D01*
X148636884Y-135837632D01*
X148655884Y-135904869D01*
X148636885Y-135969574D01*
X148616209Y-136002480D01*
X148556633Y-136172737D01*
X148556630Y-136172750D01*
X148536435Y-136351996D01*
X148536435Y-136352003D01*
X148556630Y-136531249D01*
X148556631Y-136531254D01*
X148616211Y-136701523D01*
X148645115Y-136747523D01*
X148712184Y-136854262D01*
X148839738Y-136981816D01*
X148866461Y-136998607D01*
X148970413Y-137063925D01*
X148992478Y-137077789D01*
X149129774Y-137125831D01*
X149162745Y-137137368D01*
X149162750Y-137137369D01*
X149341996Y-137157565D01*
X149342000Y-137157565D01*
X149342004Y-137157565D01*
X149521246Y-137137369D01*
X149521245Y-137137369D01*
X149521255Y-137137368D01*
X149544043Y-137129393D01*
X149613819Y-137125831D01*
X149674447Y-137160559D01*
X149702702Y-137207428D01*
X149709448Y-137227786D01*
X149709450Y-137227790D01*
X149797714Y-137370887D01*
X149797717Y-137370891D01*
X149916606Y-137489780D01*
X149916610Y-137489783D01*
X150059702Y-137578044D01*
X150059705Y-137578045D01*
X150059711Y-137578049D01*
X150219313Y-137630936D01*
X150317824Y-137641000D01*
X150317829Y-137641000D01*
X150926167Y-137641000D01*
X150926172Y-137641000D01*
X151024683Y-137630936D01*
X151184285Y-137578049D01*
X151327389Y-137489781D01*
X151446279Y-137370891D01*
X151534547Y-137227787D01*
X151587434Y-137068185D01*
X151597498Y-136969674D01*
X151597498Y-136436326D01*
X151587434Y-136337815D01*
X151534547Y-136178213D01*
X151534543Y-136178207D01*
X151534542Y-136178204D01*
X151446281Y-136035112D01*
X151446278Y-136035108D01*
X151414351Y-136003181D01*
X151380866Y-135941858D01*
X151385850Y-135872166D01*
X151414351Y-135827819D01*
X151424972Y-135817198D01*
X151446279Y-135795891D01*
X151534547Y-135652787D01*
X151587434Y-135493185D01*
X151597498Y-135394674D01*
X151597498Y-135381996D01*
X162206435Y-135381996D01*
X162206435Y-135382003D01*
X162226630Y-135561249D01*
X162226631Y-135561254D01*
X162286211Y-135731523D01*
X162344336Y-135824028D01*
X162363336Y-135891265D01*
X162344336Y-135955972D01*
X162286211Y-136048476D01*
X162226631Y-136218745D01*
X162226630Y-136218750D01*
X162206435Y-136397996D01*
X162206435Y-136398003D01*
X162226630Y-136577249D01*
X162226631Y-136577254D01*
X162286211Y-136747523D01*
X162343526Y-136838738D01*
X162382184Y-136900262D01*
X162509738Y-137027816D01*
X162662478Y-137123789D01*
X162767561Y-137160559D01*
X162832745Y-137183368D01*
X162832750Y-137183369D01*
X163011996Y-137203565D01*
X163012000Y-137203565D01*
X163012004Y-137203565D01*
X163191249Y-137183369D01*
X163191252Y-137183368D01*
X163191255Y-137183368D01*
X163361522Y-137123789D01*
X163514262Y-137027816D01*
X163514266Y-137027811D01*
X163519705Y-137023475D01*
X163521548Y-137025786D01*
X163571237Y-136998607D01*
X163640933Y-137003539D01*
X163696897Y-137045368D01*
X163715390Y-137080745D01*
X163749396Y-137183368D01*
X163764114Y-137227784D01*
X163764119Y-137227795D01*
X163852380Y-137370887D01*
X163852383Y-137370891D01*
X163971272Y-137489780D01*
X163971276Y-137489783D01*
X164114368Y-137578044D01*
X164114371Y-137578045D01*
X164114377Y-137578049D01*
X164273979Y-137630936D01*
X164372490Y-137641000D01*
X164372495Y-137641000D01*
X164980833Y-137641000D01*
X164980838Y-137641000D01*
X165079349Y-137630936D01*
X165238951Y-137578049D01*
X165382055Y-137489781D01*
X165500945Y-137370891D01*
X165589213Y-137227787D01*
X165642100Y-137068185D01*
X165652164Y-136969674D01*
X165652164Y-136436326D01*
X165642100Y-136337815D01*
X165589213Y-136178213D01*
X165589209Y-136178207D01*
X165589208Y-136178204D01*
X165500947Y-136035112D01*
X165500944Y-136035108D01*
X165469017Y-136003181D01*
X165435532Y-135941858D01*
X165440516Y-135872166D01*
X165469017Y-135827819D01*
X165479638Y-135817198D01*
X165500945Y-135795891D01*
X165589213Y-135652787D01*
X165642100Y-135493185D01*
X165652164Y-135394674D01*
X165652164Y-134861326D01*
X165652163Y-134861318D01*
X177755830Y-134861318D01*
X177755830Y-135394681D01*
X177765893Y-135493183D01*
X177818780Y-135652784D01*
X177818785Y-135652795D01*
X177907046Y-135795887D01*
X177907049Y-135795891D01*
X177938977Y-135827819D01*
X177972462Y-135889142D01*
X177967478Y-135958834D01*
X177938977Y-136003181D01*
X177907049Y-136035108D01*
X177907046Y-136035112D01*
X177818785Y-136178204D01*
X177818780Y-136178215D01*
X177805350Y-136218745D01*
X177765894Y-136337815D01*
X177765894Y-136337816D01*
X177765893Y-136337816D01*
X177755830Y-136436318D01*
X177755830Y-136969681D01*
X177765893Y-137068183D01*
X177818780Y-137227784D01*
X177818785Y-137227795D01*
X177907046Y-137370887D01*
X177907049Y-137370891D01*
X178025938Y-137489780D01*
X178025942Y-137489783D01*
X178169034Y-137578044D01*
X178169037Y-137578045D01*
X178169043Y-137578049D01*
X178328645Y-137630936D01*
X178427156Y-137641000D01*
X178427161Y-137641000D01*
X179035499Y-137641000D01*
X179035504Y-137641000D01*
X179134015Y-137630936D01*
X179293617Y-137578049D01*
X179436721Y-137489781D01*
X179555611Y-137370891D01*
X179643879Y-137227787D01*
X179672729Y-137140721D01*
X179712500Y-137083279D01*
X179777016Y-137056455D01*
X179845791Y-137068770D01*
X179856405Y-137074732D01*
X179934478Y-137123789D01*
X180088241Y-137177593D01*
X180104745Y-137183368D01*
X180104750Y-137183369D01*
X180283996Y-137203565D01*
X180284000Y-137203565D01*
X180284004Y-137203565D01*
X180463249Y-137183369D01*
X180463252Y-137183368D01*
X180463255Y-137183368D01*
X180633522Y-137123789D01*
X180786262Y-137027816D01*
X180913816Y-136900262D01*
X181009789Y-136747522D01*
X181069368Y-136577255D01*
X181069378Y-136577168D01*
X181089565Y-136398003D01*
X181089565Y-136397996D01*
X181069369Y-136218750D01*
X181069368Y-136218745D01*
X181009788Y-136048475D01*
X180951664Y-135955973D01*
X180932663Y-135888736D01*
X180951664Y-135824027D01*
X181009788Y-135731524D01*
X181016986Y-135710953D01*
X181069368Y-135561255D01*
X181077038Y-135493183D01*
X181089565Y-135382003D01*
X181089565Y-135381996D01*
X181069369Y-135202750D01*
X181069368Y-135202745D01*
X181009789Y-135032478D01*
X180913816Y-134879738D01*
X180895396Y-134861318D01*
X191810500Y-134861318D01*
X191810500Y-135394681D01*
X191820563Y-135493183D01*
X191873450Y-135652784D01*
X191873455Y-135652795D01*
X191961716Y-135795887D01*
X191961719Y-135795891D01*
X191993647Y-135827819D01*
X192027132Y-135889142D01*
X192022148Y-135958834D01*
X191993647Y-136003181D01*
X191961719Y-136035108D01*
X191961716Y-136035112D01*
X191873455Y-136178204D01*
X191873450Y-136178215D01*
X191860020Y-136218745D01*
X191820564Y-136337815D01*
X191820564Y-136337816D01*
X191820563Y-136337816D01*
X191810500Y-136436318D01*
X191810500Y-136969681D01*
X191820563Y-137068183D01*
X191873450Y-137227784D01*
X191873455Y-137227795D01*
X191961716Y-137370887D01*
X191961719Y-137370891D01*
X192080608Y-137489780D01*
X192080612Y-137489783D01*
X192223704Y-137578044D01*
X192223707Y-137578045D01*
X192223713Y-137578049D01*
X192383315Y-137630936D01*
X192481826Y-137641000D01*
X192481831Y-137641000D01*
X193090169Y-137641000D01*
X193090174Y-137641000D01*
X193188685Y-137630936D01*
X193348287Y-137578049D01*
X193491391Y-137489781D01*
X193610281Y-137370891D01*
X193691050Y-137239943D01*
X193742996Y-137193222D01*
X193811959Y-137181999D01*
X193817931Y-137183051D01*
X193999996Y-137203565D01*
X194000000Y-137203565D01*
X194000004Y-137203565D01*
X194179249Y-137183369D01*
X194179252Y-137183368D01*
X194179255Y-137183368D01*
X194349522Y-137123789D01*
X194502262Y-137027816D01*
X194629816Y-136900262D01*
X194725789Y-136747522D01*
X194785368Y-136577255D01*
X194785378Y-136577168D01*
X194805565Y-136398003D01*
X194805565Y-136397996D01*
X194785369Y-136218750D01*
X194785368Y-136218745D01*
X194725788Y-136048475D01*
X194667664Y-135955973D01*
X194648663Y-135888736D01*
X194667664Y-135824027D01*
X194725788Y-135731524D01*
X194732986Y-135710953D01*
X194785368Y-135561255D01*
X194793038Y-135493183D01*
X194805565Y-135382003D01*
X194805565Y-135381996D01*
X194785369Y-135202750D01*
X194785368Y-135202745D01*
X194725789Y-135032478D01*
X194629816Y-134879738D01*
X194502262Y-134752184D01*
X194349523Y-134656211D01*
X194179254Y-134596631D01*
X194179249Y-134596630D01*
X194000004Y-134576435D01*
X193999996Y-134576435D01*
X193820746Y-134596631D01*
X193820745Y-134596631D01*
X193811031Y-134600030D01*
X193741252Y-134603588D01*
X193680627Y-134568856D01*
X193664545Y-134548083D01*
X193610283Y-134460112D01*
X193610280Y-134460108D01*
X193491391Y-134341219D01*
X193491387Y-134341216D01*
X193348295Y-134252955D01*
X193348289Y-134252952D01*
X193348287Y-134252951D01*
X193188685Y-134200064D01*
X193188683Y-134200063D01*
X193090181Y-134190000D01*
X193090174Y-134190000D01*
X192481826Y-134190000D01*
X192481818Y-134190000D01*
X192383316Y-134200063D01*
X192383315Y-134200064D01*
X192304219Y-134226273D01*
X192223715Y-134252950D01*
X192223704Y-134252955D01*
X192080612Y-134341216D01*
X192080608Y-134341219D01*
X191961719Y-134460108D01*
X191961716Y-134460112D01*
X191873455Y-134603204D01*
X191873450Y-134603215D01*
X191871900Y-134607894D01*
X191820564Y-134762815D01*
X191820564Y-134762816D01*
X191820563Y-134762816D01*
X191810500Y-134861318D01*
X180895396Y-134861318D01*
X180786262Y-134752184D01*
X180633523Y-134656211D01*
X180463254Y-134596631D01*
X180463249Y-134596630D01*
X180284004Y-134576435D01*
X180283996Y-134576435D01*
X180104750Y-134596630D01*
X180104745Y-134596631D01*
X179934476Y-134656211D01*
X179842419Y-134714055D01*
X179775182Y-134733055D01*
X179708347Y-134712687D01*
X179663133Y-134659419D01*
X179658744Y-134648074D01*
X179643879Y-134603213D01*
X179643875Y-134603207D01*
X179643874Y-134603204D01*
X179555613Y-134460112D01*
X179555610Y-134460108D01*
X179436721Y-134341219D01*
X179436717Y-134341216D01*
X179293625Y-134252955D01*
X179293619Y-134252952D01*
X179293617Y-134252951D01*
X179134015Y-134200064D01*
X179134013Y-134200063D01*
X179035511Y-134190000D01*
X179035504Y-134190000D01*
X178427156Y-134190000D01*
X178427148Y-134190000D01*
X178328646Y-134200063D01*
X178328645Y-134200064D01*
X178249549Y-134226273D01*
X178169045Y-134252950D01*
X178169034Y-134252955D01*
X178025942Y-134341216D01*
X178025938Y-134341219D01*
X177907049Y-134460108D01*
X177907046Y-134460112D01*
X177818785Y-134603204D01*
X177818780Y-134603215D01*
X177817230Y-134607894D01*
X177765894Y-134762815D01*
X177765894Y-134762816D01*
X177765893Y-134762816D01*
X177755830Y-134861318D01*
X165652163Y-134861318D01*
X165642100Y-134762815D01*
X165589213Y-134603213D01*
X165589209Y-134603207D01*
X165589208Y-134603204D01*
X165500947Y-134460112D01*
X165500944Y-134460108D01*
X165382055Y-134341219D01*
X165382051Y-134341216D01*
X165238959Y-134252955D01*
X165238953Y-134252952D01*
X165238951Y-134252951D01*
X165079349Y-134200064D01*
X165079347Y-134200063D01*
X164980845Y-134190000D01*
X164980838Y-134190000D01*
X164372490Y-134190000D01*
X164372482Y-134190000D01*
X164273980Y-134200063D01*
X164273979Y-134200064D01*
X164194883Y-134226273D01*
X164114379Y-134252950D01*
X164114368Y-134252955D01*
X163971276Y-134341216D01*
X163971272Y-134341219D01*
X163852383Y-134460108D01*
X163852380Y-134460112D01*
X163764119Y-134603204D01*
X163764114Y-134603215D01*
X163762564Y-134607894D01*
X163733200Y-134696505D01*
X163693430Y-134753949D01*
X163628914Y-134780772D01*
X163615496Y-134781500D01*
X163594412Y-134781500D01*
X163527373Y-134761815D01*
X163517097Y-134754445D01*
X163514263Y-134752185D01*
X163514262Y-134752184D01*
X163425648Y-134696504D01*
X163361523Y-134656211D01*
X163191254Y-134596631D01*
X163191249Y-134596630D01*
X163012004Y-134576435D01*
X163011996Y-134576435D01*
X162832750Y-134596630D01*
X162832745Y-134596631D01*
X162662476Y-134656211D01*
X162509737Y-134752184D01*
X162382184Y-134879737D01*
X162286211Y-135032476D01*
X162226631Y-135202745D01*
X162226630Y-135202750D01*
X162206435Y-135381996D01*
X151597498Y-135381996D01*
X151597498Y-134861326D01*
X151587434Y-134762815D01*
X151534547Y-134603213D01*
X151534543Y-134603207D01*
X151534542Y-134603204D01*
X151446281Y-134460112D01*
X151446278Y-134460108D01*
X151327389Y-134341219D01*
X151327385Y-134341216D01*
X151184293Y-134252955D01*
X151184287Y-134252952D01*
X151184285Y-134252951D01*
X151024683Y-134200064D01*
X151024681Y-134200063D01*
X150926179Y-134190000D01*
X150926172Y-134190000D01*
X150317824Y-134190000D01*
X150317816Y-134190000D01*
X150219314Y-134200063D01*
X150219313Y-134200064D01*
X150140217Y-134226273D01*
X150059713Y-134252950D01*
X150059702Y-134252955D01*
X149916610Y-134341216D01*
X149916606Y-134341219D01*
X149797716Y-134460109D01*
X149723571Y-134580317D01*
X149671623Y-134627041D01*
X149602660Y-134638262D01*
X149577079Y-134632261D01*
X149475257Y-134596632D01*
X149475249Y-134596630D01*
X149296004Y-134576435D01*
X149295996Y-134576435D01*
X149116750Y-134596630D01*
X149116745Y-134596631D01*
X148946476Y-134656211D01*
X148793737Y-134752184D01*
X148666184Y-134879737D01*
X148570211Y-135032476D01*
X148510631Y-135202745D01*
X148510630Y-135202750D01*
X148490435Y-135381996D01*
X137542832Y-135381996D01*
X137542832Y-134861326D01*
X137532768Y-134762815D01*
X137479881Y-134603213D01*
X137479877Y-134603207D01*
X137479876Y-134603204D01*
X137391615Y-134460112D01*
X137391612Y-134460108D01*
X137272723Y-134341219D01*
X137272719Y-134341216D01*
X137129627Y-134252955D01*
X137129621Y-134252952D01*
X137129619Y-134252951D01*
X136970017Y-134200064D01*
X136970015Y-134200063D01*
X136871513Y-134190000D01*
X136871506Y-134190000D01*
X136263158Y-134190000D01*
X136263150Y-134190000D01*
X136164648Y-134200063D01*
X136164647Y-134200064D01*
X136085551Y-134226273D01*
X136005047Y-134252950D01*
X136005036Y-134252955D01*
X135861944Y-134341216D01*
X135861940Y-134341219D01*
X135743050Y-134460109D01*
X135683934Y-134555950D01*
X135631985Y-134602674D01*
X135563023Y-134613895D01*
X135537442Y-134607894D01*
X135505257Y-134596632D01*
X135505249Y-134596630D01*
X135326004Y-134576435D01*
X135325996Y-134576435D01*
X135146750Y-134596630D01*
X135146745Y-134596631D01*
X134976476Y-134656211D01*
X134823737Y-134752184D01*
X134696184Y-134879737D01*
X134600211Y-135032476D01*
X134540631Y-135202745D01*
X134540630Y-135202750D01*
X134520435Y-135381996D01*
X123488166Y-135381996D01*
X123488166Y-134861326D01*
X123478102Y-134762815D01*
X123425215Y-134603213D01*
X123425211Y-134603207D01*
X123425210Y-134603204D01*
X123336949Y-134460112D01*
X123336946Y-134460108D01*
X123218057Y-134341219D01*
X123218053Y-134341216D01*
X123074961Y-134252955D01*
X123074955Y-134252952D01*
X123074953Y-134252951D01*
X122915351Y-134200064D01*
X122915349Y-134200063D01*
X122816847Y-134190000D01*
X122816840Y-134190000D01*
X122208492Y-134190000D01*
X122208484Y-134190000D01*
X122109982Y-134200063D01*
X122109981Y-134200064D01*
X122030885Y-134226273D01*
X121950381Y-134252950D01*
X121950370Y-134252955D01*
X121807278Y-134341216D01*
X121807274Y-134341219D01*
X121688384Y-134460109D01*
X121599209Y-134604684D01*
X121547261Y-134651408D01*
X121478298Y-134662629D01*
X121452717Y-134656628D01*
X121281257Y-134596632D01*
X121281249Y-134596630D01*
X121102004Y-134576435D01*
X121101996Y-134576435D01*
X120922750Y-134596630D01*
X120922745Y-134596631D01*
X120752476Y-134656211D01*
X120599737Y-134752184D01*
X120472184Y-134879737D01*
X120376211Y-135032476D01*
X120316631Y-135202745D01*
X120316630Y-135202750D01*
X120296435Y-135381996D01*
X110987372Y-135381996D01*
X114289372Y-132079996D01*
X139742415Y-132079996D01*
X139742415Y-132080003D01*
X139762738Y-132428927D01*
X139762739Y-132428938D01*
X139823428Y-132773127D01*
X139823430Y-132773134D01*
X139923674Y-133107972D01*
X140062107Y-133428895D01*
X140062113Y-133428908D01*
X140236870Y-133731597D01*
X140445584Y-134011949D01*
X140445589Y-134011955D01*
X140490114Y-134059148D01*
X140685442Y-134266183D01*
X140818105Y-134377500D01*
X140953186Y-134490847D01*
X140953194Y-134490853D01*
X141245203Y-134682911D01*
X141245207Y-134682913D01*
X141557549Y-134839777D01*
X141885989Y-134959319D01*
X142226086Y-135039923D01*
X142573241Y-135080500D01*
X142573248Y-135080500D01*
X142922752Y-135080500D01*
X142922759Y-135080500D01*
X143269914Y-135039923D01*
X143610011Y-134959319D01*
X143938451Y-134839777D01*
X144250793Y-134682913D01*
X144371967Y-134603215D01*
X144542805Y-134490853D01*
X144542805Y-134490852D01*
X144542811Y-134490849D01*
X144810558Y-134266183D01*
X145050412Y-134011953D01*
X145259130Y-133731596D01*
X145433889Y-133428904D01*
X145572326Y-133107971D01*
X145672569Y-132773136D01*
X145733262Y-132428927D01*
X145753585Y-132080000D01*
X145733262Y-131731073D01*
X145726692Y-131693812D01*
X145672571Y-131386872D01*
X145672569Y-131386865D01*
X145664995Y-131361565D01*
X145572326Y-131052029D01*
X145433889Y-130731096D01*
X145259130Y-130428404D01*
X145259129Y-130428402D01*
X145050415Y-130148050D01*
X145050410Y-130148044D01*
X144885817Y-129973587D01*
X144810558Y-129893817D01*
X144602516Y-129719249D01*
X144542813Y-129669152D01*
X144542805Y-129669146D01*
X144250796Y-129477088D01*
X143938458Y-129320226D01*
X143938452Y-129320223D01*
X143610012Y-129200681D01*
X143610009Y-129200680D01*
X143269915Y-129120077D01*
X143226519Y-129115004D01*
X142922759Y-129079500D01*
X142573241Y-129079500D01*
X142269480Y-129115004D01*
X142226085Y-129120077D01*
X142226083Y-129120077D01*
X141885990Y-129200680D01*
X141885987Y-129200681D01*
X141557547Y-129320223D01*
X141557541Y-129320226D01*
X141245203Y-129477088D01*
X140953194Y-129669146D01*
X140953186Y-129669152D01*
X140685442Y-129893817D01*
X140685440Y-129893819D01*
X140445589Y-130148044D01*
X140445584Y-130148050D01*
X140236870Y-130428402D01*
X140062113Y-130731091D01*
X140062107Y-130731104D01*
X139923674Y-131052027D01*
X139823430Y-131386865D01*
X139823428Y-131386872D01*
X139762739Y-131731061D01*
X139762738Y-131731072D01*
X139742415Y-132079996D01*
X114289372Y-132079996D01*
X114518549Y-131850819D01*
X114579872Y-131817334D01*
X114606230Y-131814500D01*
X116738028Y-131814500D01*
X116778983Y-131821458D01*
X116858745Y-131849368D01*
X116858750Y-131849369D01*
X117037996Y-131869565D01*
X117038000Y-131869565D01*
X117038004Y-131869565D01*
X117217249Y-131849369D01*
X117217252Y-131849368D01*
X117217255Y-131849368D01*
X117297017Y-131821457D01*
X117337972Y-131814500D01*
X129557920Y-131814500D01*
X129655462Y-131795096D01*
X129702913Y-131785658D01*
X129839495Y-131729084D01*
X129892277Y-131693816D01*
X129962416Y-131646952D01*
X132684771Y-128924595D01*
X132746092Y-128891112D01*
X132746448Y-128891034D01*
X132811803Y-128877144D01*
X132984730Y-128800151D01*
X133137871Y-128688888D01*
X133264533Y-128548216D01*
X133359179Y-128384284D01*
X133414522Y-128213956D01*
X133444768Y-128164598D01*
X133822549Y-127786819D01*
X133883872Y-127753334D01*
X133910230Y-127750500D01*
X141241920Y-127750500D01*
X141339462Y-127731096D01*
X141386913Y-127721658D01*
X141523495Y-127665084D01*
X141572729Y-127632186D01*
X141646416Y-127582952D01*
X144987048Y-124242318D01*
X145048371Y-124208834D01*
X145074729Y-124206000D01*
X145485999Y-124206000D01*
X145486000Y-124206000D01*
X146972884Y-122471302D01*
X147031459Y-122433212D01*
X147067032Y-122428000D01*
X147067718Y-122428000D01*
X147134757Y-122447685D01*
X147155399Y-122464319D01*
X149173825Y-124482745D01*
X149207310Y-124544068D01*
X149202326Y-124613760D01*
X149160454Y-124669693D01*
X149122883Y-124687089D01*
X149123318Y-124688332D01*
X148946476Y-124750211D01*
X148793737Y-124846184D01*
X148666184Y-124973737D01*
X148570211Y-125126476D01*
X148510631Y-125296745D01*
X148510630Y-125296750D01*
X148490435Y-125475996D01*
X148490435Y-125476003D01*
X148510630Y-125655249D01*
X148510631Y-125655254D01*
X148570211Y-125825523D01*
X148666185Y-125978263D01*
X148668445Y-125981097D01*
X148669334Y-125983275D01*
X148669889Y-125984158D01*
X148669734Y-125984255D01*
X148694855Y-126045783D01*
X148695500Y-126058412D01*
X148695500Y-128945330D01*
X148695499Y-128945348D01*
X148695499Y-129111054D01*
X148695498Y-129111054D01*
X148699911Y-129127522D01*
X148735013Y-129258524D01*
X148736424Y-129263787D01*
X148745935Y-129280260D01*
X148745936Y-129280262D01*
X148815477Y-129400712D01*
X148815481Y-129400717D01*
X148934349Y-129519585D01*
X148934355Y-129519590D01*
X149065139Y-129650374D01*
X149065149Y-129650385D01*
X149069479Y-129654715D01*
X149069480Y-129654716D01*
X149181284Y-129766520D01*
X149267359Y-129816215D01*
X149267360Y-129816216D01*
X149318209Y-129845574D01*
X149318210Y-129845574D01*
X149318215Y-129845577D01*
X149470942Y-129886500D01*
X149470943Y-129886500D01*
X150023780Y-129886500D01*
X150090819Y-129906185D01*
X150128772Y-129944526D01*
X150190184Y-130042262D01*
X150317738Y-130169816D01*
X150376082Y-130206476D01*
X150451822Y-130254067D01*
X150470478Y-130265789D01*
X150598729Y-130310666D01*
X150640745Y-130325368D01*
X150640750Y-130325369D01*
X150819996Y-130345565D01*
X150820000Y-130345565D01*
X150820004Y-130345565D01*
X150999249Y-130325369D01*
X150999252Y-130325368D01*
X150999255Y-130325368D01*
X151169522Y-130265789D01*
X151322262Y-130169816D01*
X151449816Y-130042262D01*
X151545789Y-129889522D01*
X151605368Y-129719255D01*
X151605369Y-129719249D01*
X151625565Y-129540003D01*
X151625565Y-129539996D01*
X151605369Y-129360750D01*
X151605368Y-129360745D01*
X151545788Y-129190476D01*
X151495885Y-129111057D01*
X151449816Y-129037738D01*
X151322262Y-128910184D01*
X151322261Y-128910183D01*
X151309279Y-128902026D01*
X151262988Y-128849692D01*
X151252339Y-128780638D01*
X151280714Y-128716790D01*
X151287558Y-128709362D01*
X151343139Y-128653782D01*
X151452632Y-128489914D01*
X151528051Y-128307835D01*
X151553977Y-128177500D01*
X151566500Y-128114543D01*
X151566500Y-124361456D01*
X151528052Y-124168169D01*
X151528051Y-124168167D01*
X151528051Y-124168165D01*
X151522359Y-124154423D01*
X151513606Y-124133291D01*
X151513594Y-124133264D01*
X151500356Y-124101304D01*
X151452635Y-123986093D01*
X151452634Y-123986092D01*
X151452632Y-123986086D01*
X151415056Y-123929849D01*
X151343139Y-123822217D01*
X151200686Y-123679764D01*
X151200655Y-123679735D01*
X150160601Y-122639681D01*
X150127116Y-122578358D01*
X150132100Y-122508666D01*
X150173972Y-122452733D01*
X150239436Y-122428316D01*
X150248282Y-122428000D01*
X154999402Y-122428000D01*
X155066441Y-122447685D01*
X155087083Y-122464319D01*
X155150284Y-122527520D01*
X155219906Y-122567716D01*
X155287215Y-122606577D01*
X155439943Y-122647500D01*
X155952588Y-122647500D01*
X156019627Y-122667185D01*
X156029903Y-122674555D01*
X156032736Y-122676814D01*
X156032738Y-122676816D01*
X156185478Y-122772789D01*
X156355742Y-122832367D01*
X156355745Y-122832368D01*
X156355750Y-122832369D01*
X156534997Y-122852565D01*
X156541964Y-122852565D01*
X156541964Y-122854214D01*
X156602325Y-122864784D01*
X156653707Y-122912131D01*
X156664434Y-122934998D01*
X156698208Y-123031519D01*
X156794184Y-123184262D01*
X156794185Y-123184263D01*
X156839241Y-123229320D01*
X156872725Y-123290643D01*
X156867740Y-123360335D01*
X156839241Y-123404680D01*
X156794184Y-123449737D01*
X156698210Y-123602478D01*
X156638630Y-123772750D01*
X156633917Y-123814582D01*
X156606850Y-123878996D01*
X156549254Y-123918550D01*
X156524582Y-123923917D01*
X156482750Y-123928630D01*
X156312478Y-123988210D01*
X156159737Y-124084184D01*
X156032184Y-124211737D01*
X155936211Y-124364476D01*
X155876631Y-124534745D01*
X155876630Y-124534750D01*
X155856435Y-124713996D01*
X155856435Y-124714003D01*
X155876630Y-124893249D01*
X155876631Y-124893254D01*
X155936211Y-125063523D01*
X156032184Y-125216262D01*
X156159738Y-125343816D01*
X156312478Y-125439789D01*
X156482745Y-125499368D01*
X156569669Y-125509161D01*
X156634080Y-125536226D01*
X156643465Y-125544700D01*
X159479139Y-128380374D01*
X159479149Y-128380385D01*
X159483479Y-128384715D01*
X159483480Y-128384716D01*
X159595284Y-128496520D01*
X159681361Y-128546216D01*
X159732215Y-128575577D01*
X159884943Y-128616500D01*
X162965903Y-128616500D01*
X163032942Y-128636185D01*
X163053584Y-128652819D01*
X163197298Y-128796533D01*
X163230783Y-128857856D01*
X163232837Y-128870330D01*
X163242630Y-128957249D01*
X163302210Y-129127521D01*
X163341768Y-129190476D01*
X163398184Y-129280262D01*
X163525738Y-129407816D01*
X163678478Y-129503789D01*
X163723635Y-129519590D01*
X163848745Y-129563368D01*
X163848750Y-129563369D01*
X164027996Y-129583565D01*
X164028000Y-129583565D01*
X164028004Y-129583565D01*
X164207249Y-129563369D01*
X164207252Y-129563368D01*
X164207255Y-129563368D01*
X164377522Y-129503789D01*
X164530262Y-129407816D01*
X164657816Y-129280262D01*
X164753789Y-129127522D01*
X164813368Y-128957255D01*
X164813854Y-128952943D01*
X164833565Y-128778003D01*
X164833565Y-128777996D01*
X164813369Y-128598750D01*
X164813368Y-128598745D01*
X164753788Y-128428476D01*
X164657815Y-128275737D01*
X164530262Y-128148184D01*
X164377521Y-128052210D01*
X164207249Y-127992630D01*
X164120330Y-127982837D01*
X164055916Y-127955770D01*
X164046533Y-127947298D01*
X163753590Y-127654355D01*
X163753588Y-127654352D01*
X163634717Y-127535481D01*
X163634716Y-127535480D01*
X163545175Y-127483784D01*
X163497785Y-127456423D01*
X163345057Y-127415499D01*
X163186943Y-127415499D01*
X163179347Y-127415499D01*
X163179331Y-127415500D01*
X160264097Y-127415500D01*
X160197058Y-127395815D01*
X160176416Y-127379181D01*
X159593416Y-126796181D01*
X159559931Y-126734858D01*
X159564915Y-126665166D01*
X159606787Y-126609233D01*
X159672251Y-126584816D01*
X159681097Y-126584500D01*
X163600903Y-126584500D01*
X163667942Y-126604185D01*
X163688583Y-126620818D01*
X166326284Y-129258520D01*
X166326286Y-129258521D01*
X166326290Y-129258524D01*
X166433163Y-129320226D01*
X166463216Y-129337577D01*
X166615943Y-129378501D01*
X166615945Y-129378501D01*
X166781654Y-129378501D01*
X166781670Y-129378500D01*
X170049588Y-129378500D01*
X170116627Y-129398185D01*
X170126903Y-129405555D01*
X170129736Y-129407814D01*
X170129738Y-129407816D01*
X170282478Y-129503789D01*
X170327635Y-129519590D01*
X170452745Y-129563368D01*
X170452750Y-129563369D01*
X170631996Y-129583565D01*
X170632000Y-129583565D01*
X170632004Y-129583565D01*
X170811249Y-129563369D01*
X170811252Y-129563368D01*
X170811255Y-129563368D01*
X170981522Y-129503789D01*
X171134262Y-129407816D01*
X171261816Y-129280262D01*
X171357789Y-129127522D01*
X171417368Y-128957255D01*
X171417854Y-128952943D01*
X171437565Y-128778003D01*
X171437565Y-128777996D01*
X171417369Y-128598750D01*
X171417367Y-128598742D01*
X171392423Y-128527454D01*
X171388862Y-128457675D01*
X171423591Y-128397048D01*
X171485585Y-128364821D01*
X171509465Y-128362500D01*
X179023903Y-128362500D01*
X179090942Y-128382185D01*
X179111584Y-128398819D01*
X180838197Y-130125432D01*
X180871682Y-130186755D01*
X180867558Y-130254067D01*
X180824632Y-130376742D01*
X180824630Y-130376750D01*
X180804435Y-130555996D01*
X180804435Y-130556003D01*
X180824630Y-130735249D01*
X180824631Y-130735254D01*
X180884211Y-130905523D01*
X180942940Y-130998989D01*
X180980184Y-131058262D01*
X181107738Y-131185816D01*
X181260478Y-131281789D01*
X181430745Y-131341368D01*
X181430750Y-131341369D01*
X181609996Y-131361565D01*
X181610000Y-131361565D01*
X181610004Y-131361565D01*
X181789249Y-131341369D01*
X181789252Y-131341368D01*
X181789255Y-131341368D01*
X181959522Y-131281789D01*
X182112262Y-131185816D01*
X182239816Y-131058262D01*
X182335789Y-130905522D01*
X182395368Y-130735255D01*
X182415565Y-130556000D01*
X182407120Y-130481052D01*
X182395369Y-130376750D01*
X182395368Y-130376745D01*
X182354934Y-130261191D01*
X182335789Y-130206478D01*
X182239816Y-130053738D01*
X182239814Y-130053736D01*
X182239813Y-130053734D01*
X182237550Y-130050896D01*
X182236659Y-130048715D01*
X182236111Y-130047842D01*
X182236264Y-130047745D01*
X182211144Y-129986209D01*
X182210500Y-129973587D01*
X182210500Y-129968943D01*
X182210499Y-129968939D01*
X182194363Y-129908717D01*
X182190371Y-129893819D01*
X182169577Y-129816215D01*
X182140639Y-129766095D01*
X182090520Y-129679284D01*
X181978716Y-129567480D01*
X181978715Y-129567479D01*
X181974385Y-129563149D01*
X181974374Y-129563139D01*
X179811590Y-127400355D01*
X179811588Y-127400352D01*
X179692717Y-127281481D01*
X179692716Y-127281480D01*
X179584345Y-127218912D01*
X179584343Y-127218911D01*
X179555785Y-127202423D01*
X179555784Y-127202422D01*
X179555783Y-127202422D01*
X179499881Y-127187443D01*
X179403057Y-127161499D01*
X179244943Y-127161499D01*
X179237347Y-127161499D01*
X179237331Y-127161500D01*
X168392097Y-127161500D01*
X168325058Y-127141815D01*
X168304416Y-127125181D01*
X165531590Y-124352355D01*
X165531588Y-124352352D01*
X165412715Y-124233479D01*
X165404568Y-124228776D01*
X165356352Y-124178209D01*
X165343128Y-124109602D01*
X165369096Y-124044737D01*
X165426009Y-124004208D01*
X165466567Y-123997388D01*
X168727431Y-123997388D01*
X168857470Y-123971520D01*
X168920723Y-123958939D01*
X169102802Y-123883520D01*
X169266670Y-123774027D01*
X169406027Y-123634670D01*
X169515520Y-123470802D01*
X169590939Y-123288723D01*
X169629388Y-123095429D01*
X169629388Y-122898347D01*
X169629388Y-122898344D01*
X169590940Y-122705058D01*
X169590939Y-122705057D01*
X169590939Y-122705053D01*
X169579242Y-122676814D01*
X169515523Y-122522980D01*
X169515516Y-122522967D01*
X169406027Y-122359106D01*
X169406024Y-122359102D01*
X169266673Y-122219751D01*
X169266669Y-122219748D01*
X169102808Y-122110259D01*
X169102795Y-122110252D01*
X168920727Y-122034838D01*
X168920717Y-122034835D01*
X168727431Y-121996388D01*
X168727429Y-121996388D01*
X165062670Y-121996388D01*
X164995631Y-121976703D01*
X164974989Y-121960069D01*
X164141224Y-121126304D01*
X164107739Y-121064981D01*
X164112723Y-120995289D01*
X164154595Y-120939356D01*
X164196810Y-120918849D01*
X164237663Y-120907903D01*
X164451830Y-120808035D01*
X164645401Y-120672495D01*
X164812495Y-120505401D01*
X164942425Y-120319842D01*
X164997002Y-120276217D01*
X165066500Y-120269023D01*
X165128855Y-120300546D01*
X165145575Y-120319842D01*
X165275500Y-120505395D01*
X165275505Y-120505401D01*
X165442599Y-120672495D01*
X165539384Y-120740265D01*
X165636165Y-120808032D01*
X165636167Y-120808033D01*
X165636170Y-120808035D01*
X165850337Y-120907903D01*
X166078592Y-120969063D01*
X166255034Y-120984500D01*
X166313999Y-120989659D01*
X166314000Y-120989659D01*
X166314001Y-120989659D01*
X166372966Y-120984500D01*
X166549408Y-120969063D01*
X166777663Y-120907903D01*
X166991830Y-120808035D01*
X167185401Y-120672495D01*
X167352495Y-120505401D01*
X167488035Y-120311830D01*
X167587903Y-120097663D01*
X167649063Y-119869408D01*
X167669659Y-119634000D01*
X167669659Y-119633999D01*
X170038341Y-119633999D01*
X170038341Y-119634000D01*
X170058936Y-119869403D01*
X170058938Y-119869413D01*
X170120094Y-120097655D01*
X170120096Y-120097659D01*
X170120097Y-120097663D01*
X170200004Y-120269023D01*
X170219965Y-120311830D01*
X170219967Y-120311834D01*
X170289502Y-120411139D01*
X170355505Y-120505401D01*
X170522599Y-120672495D01*
X170619384Y-120740265D01*
X170716165Y-120808032D01*
X170716167Y-120808033D01*
X170716170Y-120808035D01*
X170930337Y-120907903D01*
X171158592Y-120969063D01*
X171335034Y-120984500D01*
X171393999Y-120989659D01*
X171394000Y-120989659D01*
X171394001Y-120989659D01*
X171452966Y-120984500D01*
X171629408Y-120969063D01*
X171857663Y-120907903D01*
X172071830Y-120808035D01*
X172265401Y-120672495D01*
X172267077Y-120670819D01*
X172267995Y-120670317D01*
X172269544Y-120669018D01*
X172269805Y-120669329D01*
X172328400Y-120637334D01*
X172354758Y-120634500D01*
X178350543Y-120634500D01*
X178419954Y-120620692D01*
X178454661Y-120613789D01*
X178543836Y-120596051D01*
X178621561Y-120563856D01*
X178725914Y-120520632D01*
X178889782Y-120411139D01*
X179029139Y-120271782D01*
X179029140Y-120271779D01*
X179036206Y-120264714D01*
X179036209Y-120264710D01*
X182953778Y-116347141D01*
X182953782Y-116347139D01*
X183093139Y-116207782D01*
X183202632Y-116043914D01*
X183278051Y-115861835D01*
X183316500Y-115668541D01*
X183316500Y-110489996D01*
X186336435Y-110489996D01*
X186336435Y-110490003D01*
X186356630Y-110669249D01*
X186356631Y-110669254D01*
X186416211Y-110839523D01*
X186446348Y-110887485D01*
X186512184Y-110992262D01*
X186639738Y-111119816D01*
X186792478Y-111215789D01*
X186945918Y-111269480D01*
X186962745Y-111275368D01*
X186962750Y-111275369D01*
X187141996Y-111295565D01*
X187142000Y-111295565D01*
X187142004Y-111295565D01*
X187321249Y-111275369D01*
X187321252Y-111275368D01*
X187321255Y-111275368D01*
X187330211Y-111272234D01*
X193197500Y-111272234D01*
X193197500Y-111423765D01*
X193236719Y-111570136D01*
X193256583Y-111604541D01*
X193312485Y-111701365D01*
X193419635Y-111808515D01*
X193493507Y-111851165D01*
X193550551Y-111884100D01*
X193550865Y-111884281D01*
X193697234Y-111923500D01*
X193697236Y-111923500D01*
X193848764Y-111923500D01*
X193848766Y-111923500D01*
X193995135Y-111884281D01*
X194126365Y-111808515D01*
X194233515Y-111701365D01*
X194309281Y-111570135D01*
X194348500Y-111423766D01*
X194348500Y-111272234D01*
X194309281Y-111125865D01*
X194307731Y-111123181D01*
X194255137Y-111032086D01*
X194233515Y-110994635D01*
X194126365Y-110887485D01*
X194043291Y-110839522D01*
X193995136Y-110811719D01*
X193872580Y-110778881D01*
X193848766Y-110772500D01*
X193697234Y-110772500D01*
X193550863Y-110811719D01*
X193419635Y-110887485D01*
X193419632Y-110887487D01*
X193312487Y-110994632D01*
X193312485Y-110994635D01*
X193236719Y-111125863D01*
X193197500Y-111272234D01*
X187330211Y-111272234D01*
X187491522Y-111215789D01*
X187644262Y-111119816D01*
X187771816Y-110992262D01*
X187867789Y-110839522D01*
X187927368Y-110669255D01*
X187937161Y-110582331D01*
X187964226Y-110517921D01*
X187972701Y-110508535D01*
X187982988Y-110498247D01*
X188003520Y-110477716D01*
X188082577Y-110340784D01*
X188116606Y-110213785D01*
X188123500Y-110188058D01*
X188123500Y-110029943D01*
X188123500Y-108659412D01*
X188143185Y-108592373D01*
X188150555Y-108582097D01*
X188152810Y-108579267D01*
X188152816Y-108579262D01*
X188248789Y-108426522D01*
X188308368Y-108256255D01*
X188310176Y-108240211D01*
X188328565Y-108077003D01*
X188328565Y-108076996D01*
X188308369Y-107897750D01*
X188308368Y-107897745D01*
X188293228Y-107854478D01*
X188248789Y-107727478D01*
X188232615Y-107701738D01*
X188152815Y-107574737D01*
X188025262Y-107447184D01*
X187872523Y-107351211D01*
X187702254Y-107291631D01*
X187702249Y-107291630D01*
X187523004Y-107271435D01*
X187522996Y-107271435D01*
X187343750Y-107291630D01*
X187343745Y-107291631D01*
X187173476Y-107351211D01*
X187020737Y-107447184D01*
X186893184Y-107574737D01*
X186797211Y-107727476D01*
X186737631Y-107897745D01*
X186737630Y-107897750D01*
X186717435Y-108076996D01*
X186717435Y-108077003D01*
X186737630Y-108256249D01*
X186737631Y-108256254D01*
X186797211Y-108426523D01*
X186857515Y-108522496D01*
X186877010Y-108553522D01*
X186893185Y-108579263D01*
X186895445Y-108582097D01*
X186896334Y-108584275D01*
X186896889Y-108585158D01*
X186896734Y-108585255D01*
X186921855Y-108646783D01*
X186922500Y-108659412D01*
X186922500Y-109630731D01*
X186902815Y-109697770D01*
X186850011Y-109743525D01*
X186839457Y-109747772D01*
X186792474Y-109764212D01*
X186639737Y-109860184D01*
X186512184Y-109987737D01*
X186416211Y-110140476D01*
X186356631Y-110310745D01*
X186356630Y-110310750D01*
X186336435Y-110489996D01*
X183316500Y-110489996D01*
X183316500Y-109431782D01*
X183336185Y-109364743D01*
X183352819Y-109344101D01*
X186758101Y-105938819D01*
X186819424Y-105905334D01*
X186845782Y-105902500D01*
X188049500Y-105902500D01*
X188116539Y-105922185D01*
X188162294Y-105974989D01*
X188173500Y-106026500D01*
X188173500Y-106270542D01*
X188181604Y-106311283D01*
X188181604Y-106311284D01*
X188211947Y-106463828D01*
X188211950Y-106463840D01*
X188231538Y-106511129D01*
X188287364Y-106645907D01*
X188287371Y-106645920D01*
X188396859Y-106809780D01*
X188396860Y-106809781D01*
X188396861Y-106809782D01*
X188536218Y-106949139D01*
X188536219Y-106949139D01*
X188543286Y-106956206D01*
X188543285Y-106956206D01*
X188543288Y-106956208D01*
X189920860Y-108333781D01*
X189920861Y-108333782D01*
X190010990Y-108423911D01*
X190060219Y-108473140D01*
X190224079Y-108582628D01*
X190224086Y-108582632D01*
X190305798Y-108616478D01*
X190406164Y-108658051D01*
X190599454Y-108696499D01*
X190599457Y-108696500D01*
X190599459Y-108696500D01*
X190796540Y-108696500D01*
X194296218Y-108696500D01*
X194363257Y-108716185D01*
X194383899Y-108732819D01*
X195902213Y-110251135D01*
X195902214Y-110251136D01*
X195902217Y-110251138D01*
X195902219Y-110251140D01*
X196066086Y-110360631D01*
X196248165Y-110436052D01*
X196441455Y-110474499D01*
X196441459Y-110474500D01*
X196441460Y-110474500D01*
X196638541Y-110474500D01*
X196638542Y-110474499D01*
X196831836Y-110436052D01*
X197013914Y-110360631D01*
X197177782Y-110251140D01*
X197317140Y-110111782D01*
X197426631Y-109947914D01*
X197502052Y-109765836D01*
X197540500Y-109572540D01*
X197540500Y-109375460D01*
X197502052Y-109182165D01*
X197426631Y-109000086D01*
X197317140Y-108836219D01*
X197317138Y-108836217D01*
X197317136Y-108836214D01*
X197317135Y-108836213D01*
X195546209Y-107065289D01*
X195546206Y-107065285D01*
X195546206Y-107065286D01*
X195539139Y-107058219D01*
X195539139Y-107058218D01*
X195399782Y-106918861D01*
X195399781Y-106918860D01*
X195399780Y-106918859D01*
X195235920Y-106809371D01*
X195235911Y-106809366D01*
X195154203Y-106775522D01*
X195107165Y-106756038D01*
X195053836Y-106733949D01*
X195053832Y-106733948D01*
X195053828Y-106733946D01*
X194957188Y-106714724D01*
X194860544Y-106695500D01*
X194860541Y-106695500D01*
X191163783Y-106695500D01*
X191096744Y-106675815D01*
X191076102Y-106659181D01*
X190210819Y-105793898D01*
X190177334Y-105732575D01*
X190174500Y-105706217D01*
X190174500Y-105492234D01*
X193197500Y-105492234D01*
X193197500Y-105643766D01*
X193207075Y-105679500D01*
X193236719Y-105790136D01*
X193240211Y-105796184D01*
X193312485Y-105921365D01*
X193419635Y-106028515D01*
X193550865Y-106104281D01*
X193697234Y-106143500D01*
X193697236Y-106143500D01*
X193848764Y-106143500D01*
X193848766Y-106143500D01*
X193995135Y-106104281D01*
X194126365Y-106028515D01*
X194233515Y-105921365D01*
X194309281Y-105790135D01*
X194348500Y-105643766D01*
X194348500Y-105492234D01*
X194309281Y-105345865D01*
X194233515Y-105214635D01*
X194126365Y-105107485D01*
X194006877Y-105038498D01*
X193995136Y-105031719D01*
X193921950Y-105012109D01*
X193848766Y-104992500D01*
X193697234Y-104992500D01*
X193550863Y-105031719D01*
X193419635Y-105107485D01*
X193419632Y-105107487D01*
X193312487Y-105214632D01*
X193312485Y-105214635D01*
X193236719Y-105345863D01*
X193233143Y-105359210D01*
X193197500Y-105492234D01*
X190174500Y-105492234D01*
X190174500Y-104803456D01*
X190136052Y-104610170D01*
X190136051Y-104610169D01*
X190136051Y-104610165D01*
X190075369Y-104463664D01*
X190060635Y-104428092D01*
X190060628Y-104428079D01*
X189951139Y-104264218D01*
X189951136Y-104264214D01*
X189811785Y-104124863D01*
X189811781Y-104124860D01*
X189647920Y-104015371D01*
X189647907Y-104015364D01*
X189465839Y-103939950D01*
X189465829Y-103939947D01*
X189272543Y-103901500D01*
X189272541Y-103901500D01*
X186281459Y-103901500D01*
X186281455Y-103901500D01*
X186184812Y-103920724D01*
X186088170Y-103939947D01*
X186088162Y-103939949D01*
X186054261Y-103953992D01*
X185906088Y-104015366D01*
X185906079Y-104015371D01*
X185742219Y-104124859D01*
X185672557Y-104194522D01*
X185602861Y-104264218D01*
X185602858Y-104264221D01*
X181678221Y-108188858D01*
X181678218Y-108188861D01*
X181634373Y-108232706D01*
X181538859Y-108328219D01*
X181429371Y-108492080D01*
X181429366Y-108492089D01*
X181391863Y-108582632D01*
X181360060Y-108659412D01*
X181353949Y-108674164D01*
X181350829Y-108689849D01*
X181350829Y-108689850D01*
X181315500Y-108867456D01*
X181315500Y-115104218D01*
X181295815Y-115171257D01*
X181279181Y-115191899D01*
X177873899Y-118597181D01*
X177812576Y-118630666D01*
X177786218Y-118633500D01*
X172354758Y-118633500D01*
X172287719Y-118613815D01*
X172267077Y-118597181D01*
X172265402Y-118595506D01*
X172265395Y-118595501D01*
X172245812Y-118581789D01*
X172199749Y-118549535D01*
X172071834Y-118459967D01*
X172071830Y-118459965D01*
X172064399Y-118456500D01*
X171857663Y-118360097D01*
X171857659Y-118360096D01*
X171857655Y-118360094D01*
X171629413Y-118298938D01*
X171629403Y-118298936D01*
X171394001Y-118278341D01*
X171393999Y-118278341D01*
X171158596Y-118298936D01*
X171158586Y-118298938D01*
X170930344Y-118360094D01*
X170930335Y-118360098D01*
X170716171Y-118459964D01*
X170716169Y-118459965D01*
X170522597Y-118595505D01*
X170355505Y-118762597D01*
X170219965Y-118956169D01*
X170219964Y-118956171D01*
X170120098Y-119170335D01*
X170120094Y-119170344D01*
X170058938Y-119398586D01*
X170058936Y-119398596D01*
X170038341Y-119633999D01*
X167669659Y-119633999D01*
X167667515Y-119609500D01*
X167660816Y-119532923D01*
X167649063Y-119398592D01*
X167587903Y-119170337D01*
X167488035Y-118956171D01*
X167482425Y-118948158D01*
X167352494Y-118762597D01*
X167185402Y-118595506D01*
X167185395Y-118595501D01*
X167165812Y-118581789D01*
X167119749Y-118549535D01*
X166991834Y-118459967D01*
X166991830Y-118459965D01*
X166984399Y-118456500D01*
X166777663Y-118360097D01*
X166777659Y-118360096D01*
X166777655Y-118360094D01*
X166549413Y-118298938D01*
X166549403Y-118298936D01*
X166314001Y-118278341D01*
X166313999Y-118278341D01*
X166078596Y-118298936D01*
X166078586Y-118298938D01*
X165850344Y-118360094D01*
X165850335Y-118360098D01*
X165636171Y-118459964D01*
X165636169Y-118459965D01*
X165442597Y-118595505D01*
X165275505Y-118762597D01*
X165145575Y-118948158D01*
X165090998Y-118991783D01*
X165021500Y-118998977D01*
X164959145Y-118967454D01*
X164942425Y-118948158D01*
X164812494Y-118762597D01*
X164645402Y-118595506D01*
X164645395Y-118595501D01*
X164625812Y-118581789D01*
X164579749Y-118549535D01*
X164451834Y-118459967D01*
X164451830Y-118459965D01*
X164444399Y-118456500D01*
X164237663Y-118360097D01*
X164237656Y-118360095D01*
X164232569Y-118358243D01*
X164233362Y-118356064D01*
X164182133Y-118324843D01*
X164151599Y-118261999D01*
X164159889Y-118192622D01*
X164204371Y-118138741D01*
X164232927Y-118124385D01*
X164255015Y-118116656D01*
X164377522Y-118073789D01*
X164530262Y-117977816D01*
X164530266Y-117977811D01*
X164533097Y-117975555D01*
X164535275Y-117974665D01*
X164536158Y-117974111D01*
X164536255Y-117974265D01*
X164597784Y-117949146D01*
X164610411Y-117948501D01*
X164615054Y-117948501D01*
X164615057Y-117948501D01*
X164767785Y-117907577D01*
X164835842Y-117868284D01*
X164904716Y-117828520D01*
X165016520Y-117716716D01*
X165016520Y-117716714D01*
X165026724Y-117706511D01*
X165026728Y-117706506D01*
X169222713Y-113510521D01*
X169222716Y-113510520D01*
X169334520Y-113398716D01*
X169384639Y-113311904D01*
X169413577Y-113261785D01*
X169454500Y-113109057D01*
X169454500Y-112950943D01*
X169454500Y-108203996D01*
X171350435Y-108203996D01*
X171350435Y-108204003D01*
X171370630Y-108383249D01*
X171370631Y-108383254D01*
X171430211Y-108553523D01*
X171496746Y-108659412D01*
X171526184Y-108706262D01*
X171653738Y-108833816D01*
X171806478Y-108929789D01*
X171976745Y-108989368D01*
X172063669Y-108999161D01*
X172128080Y-109026226D01*
X172137465Y-109034700D01*
X175227139Y-112124374D01*
X175227149Y-112124385D01*
X175231479Y-112128715D01*
X175231480Y-112128716D01*
X175343284Y-112240520D01*
X175343286Y-112240521D01*
X175343290Y-112240524D01*
X175417106Y-112283141D01*
X175480216Y-112319577D01*
X175592019Y-112349534D01*
X175632942Y-112360500D01*
X175632943Y-112360500D01*
X176653588Y-112360500D01*
X176720627Y-112380185D01*
X176730903Y-112387555D01*
X176733736Y-112389814D01*
X176733738Y-112389816D01*
X176886478Y-112485789D01*
X177028167Y-112535368D01*
X177056745Y-112545368D01*
X177056750Y-112545369D01*
X177235996Y-112565565D01*
X177236000Y-112565565D01*
X177236004Y-112565565D01*
X177415249Y-112545369D01*
X177415252Y-112545368D01*
X177415255Y-112545368D01*
X177585522Y-112485789D01*
X177738262Y-112389816D01*
X177865816Y-112262262D01*
X177961789Y-112109522D01*
X178021368Y-111939255D01*
X178023143Y-111923500D01*
X178041565Y-111760003D01*
X178041565Y-111759996D01*
X178021369Y-111580750D01*
X178021368Y-111580745D01*
X178017655Y-111570135D01*
X177961789Y-111410478D01*
X177943446Y-111381286D01*
X177876894Y-111275369D01*
X177865816Y-111257738D01*
X177738262Y-111130184D01*
X177722347Y-111120184D01*
X177585523Y-111034211D01*
X177415254Y-110974631D01*
X177415249Y-110974630D01*
X177236004Y-110954435D01*
X177235996Y-110954435D01*
X177056750Y-110974630D01*
X177056745Y-110974631D01*
X176886476Y-111034211D01*
X176733736Y-111130185D01*
X176730903Y-111132445D01*
X176728724Y-111133334D01*
X176727842Y-111133889D01*
X176727744Y-111133734D01*
X176666217Y-111158855D01*
X176653588Y-111159500D01*
X176012097Y-111159500D01*
X175945058Y-111139815D01*
X175924416Y-111123181D01*
X175791481Y-110990246D01*
X175757996Y-110928923D01*
X175762980Y-110859231D01*
X175804852Y-110803298D01*
X175870316Y-110778881D01*
X175893044Y-110779344D01*
X175920350Y-110782421D01*
X175965998Y-110787565D01*
X175966000Y-110787565D01*
X175966004Y-110787565D01*
X176145249Y-110767369D01*
X176145252Y-110767368D01*
X176145255Y-110767368D01*
X176315522Y-110707789D01*
X176468262Y-110611816D01*
X176595816Y-110484262D01*
X176691789Y-110331522D01*
X176751368Y-110161255D01*
X176753709Y-110140478D01*
X176771565Y-109982003D01*
X176771565Y-109981996D01*
X176751369Y-109802750D01*
X176751368Y-109802745D01*
X176730646Y-109743525D01*
X176691789Y-109632478D01*
X176690691Y-109630731D01*
X176595815Y-109479737D01*
X176468262Y-109352184D01*
X176315523Y-109256211D01*
X176145254Y-109196631D01*
X176145249Y-109196630D01*
X175966004Y-109176435D01*
X175965996Y-109176435D01*
X175836308Y-109191047D01*
X175767486Y-109178992D01*
X175734744Y-109155508D01*
X174764700Y-108185465D01*
X174731215Y-108124142D01*
X174729163Y-108111686D01*
X174719368Y-108024745D01*
X174659789Y-107854478D01*
X174563816Y-107701738D01*
X174436262Y-107574184D01*
X174432624Y-107571898D01*
X174283523Y-107478211D01*
X174113254Y-107418631D01*
X174113249Y-107418630D01*
X173934004Y-107398435D01*
X173933996Y-107398435D01*
X173754750Y-107418630D01*
X173754745Y-107418631D01*
X173584476Y-107478211D01*
X173431737Y-107574184D01*
X173304184Y-107701737D01*
X173208208Y-107854480D01*
X173162040Y-107986421D01*
X173121318Y-108043197D01*
X173056365Y-108068944D01*
X172987804Y-108055487D01*
X172937401Y-108007100D01*
X172927959Y-107986424D01*
X172881789Y-107854478D01*
X172785816Y-107701738D01*
X172658262Y-107574184D01*
X172654624Y-107571898D01*
X172505523Y-107478211D01*
X172335254Y-107418631D01*
X172335249Y-107418630D01*
X172156004Y-107398435D01*
X172155996Y-107398435D01*
X171976750Y-107418630D01*
X171976745Y-107418631D01*
X171806476Y-107478211D01*
X171653737Y-107574184D01*
X171526184Y-107701737D01*
X171430211Y-107854476D01*
X171370631Y-108024745D01*
X171370630Y-108024750D01*
X171350435Y-108203996D01*
X169454500Y-108203996D01*
X169454500Y-101111090D01*
X169474185Y-101044051D01*
X169526101Y-100998706D01*
X169531830Y-100996035D01*
X169725401Y-100860495D01*
X169892495Y-100693401D01*
X170022425Y-100507842D01*
X170077002Y-100464217D01*
X170146500Y-100457023D01*
X170208855Y-100488546D01*
X170225575Y-100507842D01*
X170355500Y-100693395D01*
X170355505Y-100693401D01*
X170522599Y-100860495D01*
X170592668Y-100909558D01*
X170716165Y-100996032D01*
X170716167Y-100996033D01*
X170716170Y-100996035D01*
X170727845Y-101001479D01*
X170787904Y-101029485D01*
X170840344Y-101075657D01*
X170859500Y-101141867D01*
X170859500Y-102710908D01*
X170839815Y-102777947D01*
X170787914Y-102823286D01*
X170782173Y-102825963D01*
X170782169Y-102825965D01*
X170588597Y-102961505D01*
X170421505Y-103128597D01*
X170285965Y-103322169D01*
X170285964Y-103322171D01*
X170186098Y-103536335D01*
X170186094Y-103536344D01*
X170124938Y-103764586D01*
X170124936Y-103764596D01*
X170104341Y-103999999D01*
X170104341Y-104000000D01*
X170124936Y-104235403D01*
X170124938Y-104235413D01*
X170186094Y-104463655D01*
X170186096Y-104463659D01*
X170186097Y-104463663D01*
X170191298Y-104474816D01*
X170285965Y-104677830D01*
X170285967Y-104677834D01*
X170350139Y-104769480D01*
X170421505Y-104871401D01*
X170588599Y-105038495D01*
X170685384Y-105106265D01*
X170782165Y-105174032D01*
X170782167Y-105174033D01*
X170782170Y-105174035D01*
X170996337Y-105273903D01*
X171224592Y-105335063D01*
X171401034Y-105350500D01*
X171459999Y-105355659D01*
X171460000Y-105355659D01*
X171460001Y-105355659D01*
X171518966Y-105350500D01*
X171695408Y-105335063D01*
X171923663Y-105273903D01*
X172137830Y-105174035D01*
X172331401Y-105038495D01*
X172453329Y-104916566D01*
X172514648Y-104883084D01*
X172584340Y-104888068D01*
X172640274Y-104929939D01*
X172657189Y-104960917D01*
X172706202Y-105092328D01*
X172706206Y-105092335D01*
X172792452Y-105207544D01*
X172792455Y-105207547D01*
X172907664Y-105293793D01*
X172907671Y-105293797D01*
X173042517Y-105344091D01*
X173042516Y-105344091D01*
X173049444Y-105344835D01*
X173102127Y-105350500D01*
X174897872Y-105350499D01*
X174932243Y-105346804D01*
X175001002Y-105359210D01*
X175033178Y-105382413D01*
X175113181Y-105462416D01*
X175146666Y-105523739D01*
X175149500Y-105550097D01*
X175149500Y-106417587D01*
X175129815Y-106484626D01*
X175122450Y-106494896D01*
X175120186Y-106497734D01*
X175024211Y-106650476D01*
X174964631Y-106820745D01*
X174964630Y-106820750D01*
X174944435Y-106999996D01*
X174944435Y-107000003D01*
X174964630Y-107179249D01*
X174964631Y-107179254D01*
X175024211Y-107349523D01*
X175120184Y-107502262D01*
X175247738Y-107629816D01*
X175270522Y-107644132D01*
X175362199Y-107701737D01*
X175400478Y-107725789D01*
X175570745Y-107785368D01*
X175570750Y-107785369D01*
X175749996Y-107805565D01*
X175750000Y-107805565D01*
X175750004Y-107805565D01*
X175929249Y-107785369D01*
X175929252Y-107785368D01*
X175929255Y-107785368D01*
X176099522Y-107725789D01*
X176252262Y-107629816D01*
X176379816Y-107502262D01*
X176475789Y-107349522D01*
X176535368Y-107179255D01*
X176538463Y-107151789D01*
X176555565Y-107000003D01*
X176555565Y-106999996D01*
X176535369Y-106820750D01*
X176535368Y-106820745D01*
X176501363Y-106723565D01*
X176475789Y-106650478D01*
X176447373Y-106605255D01*
X176388230Y-106511129D01*
X176379816Y-106497738D01*
X176379814Y-106497736D01*
X176379813Y-106497734D01*
X176377550Y-106494896D01*
X176376659Y-106492715D01*
X176376111Y-106491842D01*
X176376264Y-106491745D01*
X176351144Y-106430209D01*
X176350500Y-106417587D01*
X176350500Y-105339059D01*
X176350501Y-105339046D01*
X176350501Y-105170945D01*
X176350501Y-105170943D01*
X176309577Y-105018215D01*
X176309576Y-105018214D01*
X176309576Y-105018212D01*
X176309574Y-105018209D01*
X176274514Y-104957484D01*
X176274513Y-104957483D01*
X176230520Y-104881284D01*
X176118716Y-104769480D01*
X176118715Y-104769479D01*
X176114385Y-104765149D01*
X176114374Y-104765139D01*
X175386818Y-104037583D01*
X175353333Y-103976260D01*
X175350499Y-103949902D01*
X175350499Y-103102129D01*
X175350498Y-103102123D01*
X175344091Y-103042516D01*
X175293797Y-102907671D01*
X175293793Y-102907664D01*
X175207547Y-102792455D01*
X175207544Y-102792452D01*
X175092335Y-102706206D01*
X175092328Y-102706202D01*
X174957482Y-102655908D01*
X174957483Y-102655908D01*
X174897883Y-102649501D01*
X174897881Y-102649500D01*
X174897873Y-102649500D01*
X174897864Y-102649500D01*
X173102129Y-102649500D01*
X173102123Y-102649501D01*
X173042516Y-102655908D01*
X172907671Y-102706202D01*
X172907664Y-102706206D01*
X172792455Y-102792452D01*
X172792452Y-102792455D01*
X172706206Y-102907664D01*
X172706203Y-102907669D01*
X172657189Y-103039083D01*
X172615317Y-103095016D01*
X172549853Y-103119433D01*
X172481580Y-103104581D01*
X172453326Y-103083430D01*
X172331402Y-102961506D01*
X172331395Y-102961501D01*
X172137831Y-102825965D01*
X172137826Y-102825962D01*
X172132091Y-102823288D01*
X172079653Y-102777113D01*
X172060500Y-102710908D01*
X172060500Y-101068518D01*
X172080185Y-101001479D01*
X172113375Y-100966944D01*
X172265401Y-100860495D01*
X172432495Y-100693401D01*
X172568035Y-100499830D01*
X172667903Y-100285663D01*
X172729063Y-100057408D01*
X172749659Y-99822000D01*
X172749659Y-99821999D01*
X186350341Y-99821999D01*
X186350341Y-99822000D01*
X186370936Y-100057403D01*
X186370938Y-100057413D01*
X186432094Y-100285655D01*
X186432096Y-100285659D01*
X186432097Y-100285663D01*
X186526703Y-100488546D01*
X186531965Y-100499830D01*
X186531967Y-100499834D01*
X186616118Y-100620013D01*
X186667505Y-100693401D01*
X186834599Y-100860495D01*
X186904668Y-100909558D01*
X187028165Y-100996032D01*
X187028167Y-100996033D01*
X187028170Y-100996035D01*
X187242337Y-101095903D01*
X187470592Y-101157063D01*
X187658918Y-101173539D01*
X187705999Y-101177659D01*
X187706000Y-101177659D01*
X187706001Y-101177659D01*
X187745234Y-101174226D01*
X187941408Y-101157063D01*
X188169663Y-101095903D01*
X188383830Y-100996035D01*
X188577401Y-100860495D01*
X188744495Y-100693401D01*
X188880035Y-100499830D01*
X188979903Y-100285663D01*
X189041063Y-100057408D01*
X189061659Y-99822000D01*
X189041063Y-99586592D01*
X188979903Y-99358337D01*
X188880035Y-99144171D01*
X188874425Y-99136158D01*
X188744494Y-98950597D01*
X188577402Y-98783506D01*
X188577396Y-98783502D01*
X188466076Y-98705554D01*
X188383834Y-98647967D01*
X188383830Y-98647965D01*
X188306499Y-98611905D01*
X188169663Y-98548097D01*
X188169659Y-98548096D01*
X188169655Y-98548094D01*
X187941413Y-98486938D01*
X187941403Y-98486936D01*
X187706001Y-98466341D01*
X187705999Y-98466341D01*
X187470596Y-98486936D01*
X187470586Y-98486938D01*
X187242344Y-98548094D01*
X187242335Y-98548098D01*
X187028171Y-98647964D01*
X187028169Y-98647965D01*
X186834597Y-98783505D01*
X186667505Y-98950597D01*
X186531965Y-99144169D01*
X186531964Y-99144171D01*
X186432098Y-99358335D01*
X186432094Y-99358344D01*
X186370938Y-99586586D01*
X186370936Y-99586596D01*
X186350341Y-99821999D01*
X172749659Y-99821999D01*
X172729063Y-99586592D01*
X172667903Y-99358337D01*
X172568035Y-99144171D01*
X172562425Y-99136158D01*
X172432494Y-98950597D01*
X172265402Y-98783506D01*
X172265396Y-98783502D01*
X172154076Y-98705554D01*
X172071831Y-98647965D01*
X172071827Y-98647963D01*
X172066087Y-98645286D01*
X172013652Y-98599110D01*
X171994501Y-98532908D01*
X171994501Y-98472945D01*
X171994501Y-98472943D01*
X171953577Y-98320215D01*
X171924639Y-98270095D01*
X171874520Y-98183284D01*
X171762716Y-98071480D01*
X171762715Y-98071479D01*
X171758385Y-98067149D01*
X171758374Y-98067139D01*
X171215233Y-97523998D01*
X191774532Y-97523998D01*
X191774532Y-97524001D01*
X191794364Y-97750686D01*
X191794366Y-97750697D01*
X191853258Y-97970488D01*
X191853261Y-97970497D01*
X191949431Y-98176732D01*
X191949432Y-98176734D01*
X192079954Y-98363141D01*
X192240858Y-98524045D01*
X192240861Y-98524047D01*
X192427266Y-98654568D01*
X192633504Y-98750739D01*
X192853308Y-98809635D01*
X193015230Y-98823801D01*
X193079998Y-98829468D01*
X193080000Y-98829468D01*
X193080002Y-98829468D01*
X193136673Y-98824509D01*
X193306692Y-98809635D01*
X193526496Y-98750739D01*
X193732734Y-98654568D01*
X193919139Y-98524047D01*
X194080047Y-98363139D01*
X194210568Y-98176734D01*
X194306739Y-97970496D01*
X194365635Y-97750692D01*
X194385468Y-97524000D01*
X194365635Y-97297308D01*
X194306739Y-97077504D01*
X194210568Y-96871266D01*
X194080047Y-96684861D01*
X194080045Y-96684858D01*
X193919141Y-96523954D01*
X193732734Y-96393432D01*
X193732732Y-96393431D01*
X193526497Y-96297261D01*
X193526488Y-96297258D01*
X193306697Y-96238366D01*
X193306693Y-96238365D01*
X193306692Y-96238365D01*
X193306691Y-96238364D01*
X193306686Y-96238364D01*
X193080002Y-96218532D01*
X193079998Y-96218532D01*
X192853313Y-96238364D01*
X192853302Y-96238366D01*
X192633511Y-96297258D01*
X192633502Y-96297261D01*
X192427267Y-96393431D01*
X192427265Y-96393432D01*
X192240858Y-96523954D01*
X192079954Y-96684858D01*
X191949432Y-96871265D01*
X191949431Y-96871267D01*
X191853261Y-97077502D01*
X191853258Y-97077511D01*
X191794366Y-97297302D01*
X191794364Y-97297313D01*
X191774532Y-97523998D01*
X171215233Y-97523998D01*
X170865590Y-97174355D01*
X170865588Y-97174352D01*
X170746715Y-97055479D01*
X170659952Y-97005388D01*
X170611736Y-96954821D01*
X170598512Y-96886214D01*
X170624480Y-96821349D01*
X170681393Y-96780820D01*
X170721951Y-96774000D01*
X175711999Y-96774000D01*
X175712000Y-96774000D01*
X178469141Y-93766210D01*
X178528952Y-93730093D01*
X178560548Y-93726000D01*
X189174000Y-93726000D01*
X189174000Y-89049997D01*
X193594723Y-89049997D01*
X193594723Y-89050002D01*
X193613793Y-89267975D01*
X193613793Y-89267979D01*
X193670422Y-89479322D01*
X193670424Y-89479326D01*
X193670425Y-89479330D01*
X193694338Y-89530612D01*
X193762897Y-89677638D01*
X193762898Y-89677639D01*
X193888402Y-89856877D01*
X194043123Y-90011598D01*
X194222361Y-90137102D01*
X194420670Y-90229575D01*
X194632023Y-90286207D01*
X194814926Y-90302208D01*
X194849998Y-90305277D01*
X194850000Y-90305277D01*
X194850002Y-90305277D01*
X194878254Y-90302805D01*
X195067977Y-90286207D01*
X195279330Y-90229575D01*
X195477639Y-90137102D01*
X195656877Y-90011598D01*
X195811598Y-89856877D01*
X195937102Y-89677639D01*
X196029575Y-89479330D01*
X196086207Y-89267977D01*
X196105277Y-89050000D01*
X196086207Y-88832023D01*
X196051548Y-88702675D01*
X196029577Y-88620677D01*
X196029576Y-88620676D01*
X196029575Y-88620670D01*
X195937102Y-88422362D01*
X195937100Y-88422359D01*
X195937099Y-88422357D01*
X195811599Y-88243124D01*
X195739429Y-88170954D01*
X195656877Y-88088402D01*
X195477639Y-87962898D01*
X195477640Y-87962898D01*
X195477638Y-87962897D01*
X195378484Y-87916661D01*
X195279330Y-87870425D01*
X195279326Y-87870424D01*
X195279322Y-87870422D01*
X195067977Y-87813793D01*
X194850002Y-87794723D01*
X194849998Y-87794723D01*
X194728758Y-87805330D01*
X194632023Y-87813793D01*
X194632020Y-87813793D01*
X194420677Y-87870422D01*
X194420668Y-87870426D01*
X194222361Y-87962898D01*
X194222357Y-87962900D01*
X194043121Y-88088402D01*
X193888402Y-88243121D01*
X193762900Y-88422357D01*
X193762898Y-88422361D01*
X193670426Y-88620668D01*
X193670422Y-88620677D01*
X193613793Y-88832020D01*
X193613793Y-88832024D01*
X193594723Y-89049997D01*
X189174000Y-89049997D01*
X189174000Y-63108500D01*
X189193685Y-63041461D01*
X189246489Y-62995706D01*
X189298000Y-62984500D01*
X196268108Y-62984500D01*
X196330249Y-62984500D01*
X196337736Y-62984726D01*
G37*
%TD.AperFunction*%
%TA.AperFunction,Conductor*%
G36*
X159245703Y-118919371D02*
G01*
X159279060Y-118965631D01*
X159287700Y-118986490D01*
X159331364Y-119091908D01*
X159331371Y-119091920D01*
X159440860Y-119255781D01*
X159440863Y-119255785D01*
X159584537Y-119399459D01*
X159584559Y-119399479D01*
X159847181Y-119662101D01*
X159880666Y-119723424D01*
X159883500Y-119749782D01*
X159883500Y-120531870D01*
X159883501Y-120531876D01*
X159889908Y-120591483D01*
X159940202Y-120726328D01*
X159940206Y-120726335D01*
X160026452Y-120841544D01*
X160026455Y-120841547D01*
X160141664Y-120927793D01*
X160141671Y-120927797D01*
X160276517Y-120978091D01*
X160276516Y-120978091D01*
X160283444Y-120978835D01*
X160336127Y-120984500D01*
X161118217Y-120984499D01*
X161185256Y-121004183D01*
X161205898Y-121020818D01*
X163816623Y-123631543D01*
X163816652Y-123631574D01*
X163959102Y-123774024D01*
X163959106Y-123774027D01*
X164127280Y-123886398D01*
X164172085Y-123940010D01*
X164180792Y-124009335D01*
X164150637Y-124072363D01*
X164091194Y-124109082D01*
X164058389Y-124113500D01*
X160264097Y-124113500D01*
X160197058Y-124093815D01*
X160176416Y-124077181D01*
X159146347Y-123047112D01*
X159112862Y-122985789D01*
X159117846Y-122916097D01*
X159159718Y-122860164D01*
X159220143Y-122836211D01*
X159254255Y-122832368D01*
X159424522Y-122772789D01*
X159577262Y-122676816D01*
X159704816Y-122549262D01*
X159800789Y-122396522D01*
X159860368Y-122226255D01*
X159864986Y-122185273D01*
X159880565Y-122047003D01*
X159880565Y-122046996D01*
X159860369Y-121867750D01*
X159860368Y-121867745D01*
X159829915Y-121780716D01*
X159800789Y-121697478D01*
X159704816Y-121544738D01*
X159577262Y-121417184D01*
X159424521Y-121321210D01*
X159254249Y-121261630D01*
X159167332Y-121251837D01*
X159102918Y-121224770D01*
X159093535Y-121216298D01*
X159076819Y-121199582D01*
X159043334Y-121138259D01*
X159040500Y-121111901D01*
X159040500Y-119013084D01*
X159060185Y-118946045D01*
X159112989Y-118900290D01*
X159182147Y-118890346D01*
X159245703Y-118919371D01*
G37*
%TD.AperFunction*%
%TA.AperFunction,Conductor*%
G36*
X163419760Y-109821672D02*
G01*
X163475693Y-109863544D01*
X163493087Y-109901117D01*
X163494332Y-109900682D01*
X163556211Y-110077523D01*
X163595769Y-110140478D01*
X163652184Y-110230262D01*
X163779738Y-110357816D01*
X163932478Y-110453789D01*
X164102745Y-110513368D01*
X164189669Y-110523161D01*
X164254080Y-110550226D01*
X164263465Y-110558700D01*
X164407181Y-110702416D01*
X164440666Y-110763739D01*
X164443500Y-110790097D01*
X164443500Y-113717587D01*
X164423815Y-113784626D01*
X164416450Y-113794896D01*
X164414186Y-113797734D01*
X164318211Y-113950476D01*
X164258631Y-114120745D01*
X164258630Y-114120750D01*
X164238435Y-114299996D01*
X164238435Y-114300003D01*
X164258630Y-114479249D01*
X164258631Y-114479254D01*
X164318211Y-114649523D01*
X164386348Y-114757961D01*
X164414184Y-114802262D01*
X164473662Y-114861740D01*
X164507146Y-114923064D01*
X164502161Y-114992755D01*
X164473661Y-115037102D01*
X162643284Y-116867481D01*
X162527030Y-116983735D01*
X162426566Y-117084198D01*
X162365243Y-117117682D01*
X162297930Y-117113557D01*
X162175262Y-117070633D01*
X162175249Y-117070630D01*
X161996004Y-117050435D01*
X161995996Y-117050435D01*
X161816750Y-117070630D01*
X161816745Y-117070631D01*
X161646476Y-117130211D01*
X161493737Y-117226184D01*
X161430181Y-117289741D01*
X161368858Y-117323226D01*
X161299166Y-117318242D01*
X161243233Y-117276370D01*
X161218816Y-117210906D01*
X161218500Y-117202060D01*
X161218500Y-111971781D01*
X161238185Y-111904742D01*
X161254814Y-111884105D01*
X163288747Y-109850171D01*
X163350068Y-109816688D01*
X163419760Y-109821672D01*
G37*
%TD.AperFunction*%
%TA.AperFunction,Conductor*%
G36*
X167668855Y-100488546D02*
G01*
X167685575Y-100507842D01*
X167815500Y-100693395D01*
X167815505Y-100693401D01*
X167982599Y-100860495D01*
X168052668Y-100909558D01*
X168176165Y-100996032D01*
X168176167Y-100996033D01*
X168176170Y-100996035D01*
X168181898Y-100998706D01*
X168234339Y-101044872D01*
X168253500Y-101111090D01*
X168253500Y-112729903D01*
X168233815Y-112796942D01*
X168217181Y-112817584D01*
X167126181Y-113908584D01*
X167064858Y-113942069D01*
X166995166Y-113937085D01*
X166939233Y-113895213D01*
X166914816Y-113829749D01*
X166914500Y-113820903D01*
X166914500Y-101111090D01*
X166934185Y-101044051D01*
X166986101Y-100998706D01*
X166991830Y-100996035D01*
X167185401Y-100860495D01*
X167352495Y-100693401D01*
X167482425Y-100507842D01*
X167537002Y-100464217D01*
X167606500Y-100457023D01*
X167668855Y-100488546D01*
G37*
%TD.AperFunction*%
%TA.AperFunction,Conductor*%
G36*
X170144942Y-98156185D02*
G01*
X170165584Y-98172819D01*
X170567304Y-98574539D01*
X170600789Y-98635862D01*
X170595805Y-98705554D01*
X170553933Y-98761487D01*
X170550748Y-98763794D01*
X170522601Y-98783502D01*
X170522597Y-98783506D01*
X170355505Y-98950597D01*
X170225575Y-99136158D01*
X170170998Y-99179783D01*
X170101500Y-99186977D01*
X170039145Y-99155454D01*
X170022425Y-99136158D01*
X169892494Y-98950597D01*
X169725402Y-98783506D01*
X169725396Y-98783502D01*
X169614076Y-98705554D01*
X169531834Y-98647967D01*
X169531830Y-98647965D01*
X169454499Y-98611905D01*
X169317663Y-98548097D01*
X169317659Y-98548096D01*
X169317655Y-98548094D01*
X169089413Y-98486938D01*
X169089403Y-98486936D01*
X168854001Y-98466341D01*
X168853999Y-98466341D01*
X168618596Y-98486936D01*
X168618586Y-98486938D01*
X168390344Y-98548094D01*
X168390335Y-98548098D01*
X168176171Y-98647964D01*
X168176169Y-98647965D01*
X167982597Y-98783505D01*
X167815505Y-98950597D01*
X167685575Y-99136158D01*
X167630998Y-99179783D01*
X167561500Y-99186977D01*
X167499145Y-99155454D01*
X167482425Y-99136158D01*
X167352494Y-98950597D01*
X167185402Y-98783506D01*
X167185396Y-98783502D01*
X167074076Y-98705554D01*
X166991834Y-98647967D01*
X166991830Y-98647965D01*
X166914499Y-98611905D01*
X166777663Y-98548097D01*
X166777659Y-98548096D01*
X166777655Y-98548094D01*
X166549413Y-98486938D01*
X166549403Y-98486936D01*
X166314001Y-98466341D01*
X166313999Y-98466341D01*
X166078596Y-98486936D01*
X166078586Y-98486938D01*
X165850344Y-98548094D01*
X165850335Y-98548098D01*
X165636171Y-98647964D01*
X165636169Y-98647965D01*
X165442597Y-98783505D01*
X165275505Y-98950597D01*
X165145575Y-99136158D01*
X165090998Y-99179783D01*
X165021500Y-99186977D01*
X164959145Y-99155454D01*
X164942425Y-99136158D01*
X164812494Y-98950597D01*
X164645402Y-98783506D01*
X164645396Y-98783502D01*
X164534076Y-98705554D01*
X164451834Y-98647967D01*
X164451830Y-98647965D01*
X164374499Y-98611905D01*
X164237663Y-98548097D01*
X164237659Y-98548096D01*
X164237655Y-98548094D01*
X164009413Y-98486938D01*
X164009403Y-98486936D01*
X163774001Y-98466341D01*
X163773999Y-98466341D01*
X163538596Y-98486936D01*
X163538586Y-98486938D01*
X163310344Y-98548094D01*
X163310335Y-98548098D01*
X163096171Y-98647964D01*
X163096169Y-98647965D01*
X162902597Y-98783505D01*
X162735505Y-98950597D01*
X162599965Y-99144169D01*
X162599964Y-99144171D01*
X162500098Y-99358335D01*
X162500094Y-99358344D01*
X162438938Y-99586586D01*
X162438936Y-99586596D01*
X162418341Y-99821999D01*
X162418341Y-99822000D01*
X162438936Y-100057403D01*
X162438938Y-100057413D01*
X162500094Y-100285655D01*
X162500096Y-100285659D01*
X162500097Y-100285663D01*
X162594703Y-100488546D01*
X162599965Y-100499830D01*
X162599967Y-100499834D01*
X162684118Y-100620013D01*
X162735501Y-100693396D01*
X162735506Y-100693402D01*
X162737181Y-100695077D01*
X162737682Y-100695995D01*
X162738982Y-100697544D01*
X162738670Y-100697805D01*
X162770666Y-100756400D01*
X162773500Y-100782758D01*
X162773500Y-107484217D01*
X162753815Y-107551256D01*
X162737181Y-107571898D01*
X159921681Y-110387398D01*
X159860358Y-110420883D01*
X159790666Y-110415899D01*
X159734733Y-110374027D01*
X159710316Y-110308563D01*
X159710000Y-110299717D01*
X159710000Y-106185103D01*
X159716959Y-106144148D01*
X159717187Y-106143499D01*
X159733368Y-106097255D01*
X159733368Y-106097253D01*
X159733369Y-106097251D01*
X159753565Y-105918003D01*
X159753565Y-105917996D01*
X159733369Y-105738750D01*
X159733367Y-105738742D01*
X159716958Y-105691846D01*
X159710000Y-105650892D01*
X159710000Y-100976597D01*
X159729685Y-100909558D01*
X159746319Y-100888916D01*
X162462416Y-98172819D01*
X162523739Y-98139334D01*
X162550097Y-98136500D01*
X170077903Y-98136500D01*
X170144942Y-98156185D01*
G37*
%TD.AperFunction*%
%TA.AperFunction,Conductor*%
G36*
X165128855Y-100488546D02*
G01*
X165145575Y-100507842D01*
X165275500Y-100693395D01*
X165275505Y-100693401D01*
X165442599Y-100860495D01*
X165512668Y-100909558D01*
X165636165Y-100996032D01*
X165636167Y-100996033D01*
X165636170Y-100996035D01*
X165641898Y-100998706D01*
X165694339Y-101044872D01*
X165713500Y-101111090D01*
X165713500Y-110010902D01*
X165693815Y-110077941D01*
X165641011Y-110123696D01*
X165571853Y-110133640D01*
X165508297Y-110104615D01*
X165501819Y-110098583D01*
X165310491Y-109907255D01*
X165112699Y-109709464D01*
X165079215Y-109648142D01*
X165077163Y-109635686D01*
X165067368Y-109548745D01*
X165007789Y-109378478D01*
X164911816Y-109225738D01*
X164784262Y-109098184D01*
X164631523Y-109002211D01*
X164454682Y-108940332D01*
X164455376Y-108938347D01*
X164403285Y-108909209D01*
X164370427Y-108847548D01*
X164376122Y-108777910D01*
X164404173Y-108734746D01*
X164551139Y-108587782D01*
X164654283Y-108433416D01*
X164660628Y-108423920D01*
X164660628Y-108423918D01*
X164660631Y-108423915D01*
X164660632Y-108423914D01*
X164707612Y-108310494D01*
X164736051Y-108241836D01*
X164774500Y-108048541D01*
X164774500Y-107851460D01*
X164774500Y-100782758D01*
X164794185Y-100715719D01*
X164810819Y-100695077D01*
X164811461Y-100694435D01*
X164812495Y-100693401D01*
X164942425Y-100507842D01*
X164997002Y-100464217D01*
X165066500Y-100457023D01*
X165128855Y-100488546D01*
G37*
%TD.AperFunction*%
%TA.AperFunction,Conductor*%
G36*
X161973087Y-96793685D02*
G01*
X162018842Y-96846489D01*
X162028786Y-96915647D01*
X161999761Y-96979203D01*
X161968047Y-97005387D01*
X161881290Y-97055475D01*
X161881282Y-97055481D01*
X159921681Y-99015083D01*
X159860358Y-99048568D01*
X159790666Y-99043584D01*
X159734733Y-99001712D01*
X159710316Y-98936248D01*
X159710000Y-98927402D01*
X159710000Y-98095362D01*
X159729685Y-98028323D01*
X159746319Y-98007681D01*
X160943681Y-96810319D01*
X161005004Y-96776834D01*
X161031362Y-96774000D01*
X161906048Y-96774000D01*
X161973087Y-96793685D01*
G37*
%TD.AperFunction*%
%TD*%
M02*
