%TF.GenerationSoftware,KiCad,Pcbnew,8.0.7-8.0.7-0~ubuntu24.04.1*%
%TF.CreationDate,2024-12-13T16:46:38+09:00*%
%TF.ProjectId,MRM5-tester,4d524d35-2d74-4657-9374-65722e6b6963,rev?*%
%TF.SameCoordinates,Original*%
%TF.FileFunction,Drillmap*%
%TF.FilePolarity,Positive*%
%FSLAX45Y45*%
G04 Gerber Fmt 4.5, Leading zero omitted, Abs format (unit mm)*
G04 Created by KiCad (PCBNEW 8.0.7-8.0.7-0~ubuntu24.04.1) date 2024-12-13 16:46:38*
%MOMM*%
%LPD*%
G01*
G04 APERTURE LIST*
%ADD10C,0.050000*%
%ADD11C,0.200000*%
%ADD12C,0.100000*%
%ADD13C,0.120000*%
%ADD14C,0.316000*%
%ADD15C,0.364000*%
G04 APERTURE END LIST*
D10*
X16250000Y-11690000D02*
G75*
G02*
X15850000Y-11690000I-200000J0D01*
G01*
X15850000Y-11690000D02*
G75*
G02*
X16250000Y-11690000I200000J0D01*
G01*
X15000000Y-6667500D02*
X14835000Y-6667500D01*
X16850000Y-15490000D02*
X16550000Y-15190000D01*
X14970000Y-7165000D02*
G75*
G02*
X14870000Y-7165000I-50000J0D01*
G01*
X14870000Y-7165000D02*
G75*
G02*
X14970000Y-7165000I50000J0D01*
G01*
X7735000Y-13640000D02*
X7735000Y-6240000D01*
X8485000Y-5940000D02*
X8035000Y-5940000D01*
X9285000Y-5140000D02*
G75*
G02*
X8485000Y-5940000I-800000J0D01*
G01*
X8985000Y-8190000D02*
G75*
G02*
X8585000Y-8190000I-200000J0D01*
G01*
X8585000Y-8190000D02*
G75*
G02*
X8985000Y-8190000I200000J0D01*
G01*
X15000000Y-13640000D02*
X15000000Y-11710000D01*
X16550000Y-5140000D02*
G75*
G02*
X15750000Y-5940000I-800000J0D01*
G01*
X14970000Y-11410000D02*
G75*
G02*
X14870000Y-11410000I-50000J0D01*
G01*
X14870000Y-11410000D02*
G75*
G02*
X14970000Y-11410000I50000J0D01*
G01*
X15750000Y-13940000D02*
G75*
G02*
X16550000Y-14740000I0J-800000D01*
G01*
X16250000Y-8190000D02*
G75*
G02*
X15850000Y-8190000I-200000J0D01*
G01*
X15850000Y-8190000D02*
G75*
G02*
X16250000Y-8190000I200000J0D01*
G01*
X20550000Y-5140000D02*
X20550000Y-4690000D01*
X14970000Y-11605000D02*
G75*
G02*
X14870000Y-11605000I-50000J0D01*
G01*
X14870000Y-11605000D02*
G75*
G02*
X14970000Y-11605000I50000J0D01*
G01*
X14535000Y-12410000D02*
X14835000Y-12110000D01*
X15000000Y-11110000D02*
X14835000Y-11110000D01*
X21250000Y-11690000D02*
G75*
G02*
X20850000Y-11690000I-200000J0D01*
G01*
X20850000Y-11690000D02*
G75*
G02*
X21250000Y-11690000I200000J0D01*
G01*
X15750000Y-13940000D02*
X15300000Y-13940000D01*
X15000000Y-6667500D02*
X15000000Y-6240000D01*
X18750000Y-14440000D02*
G75*
G02*
X18350000Y-14440000I-200000J0D01*
G01*
X18350000Y-14440000D02*
G75*
G02*
X18750000Y-14440000I200000J0D01*
G01*
X14085000Y-5940000D02*
X14535000Y-5940000D01*
X13285000Y-5140000D02*
X13285000Y-4690000D01*
X8985000Y-11690000D02*
G75*
G02*
X8585000Y-11690000I-200000J0D01*
G01*
X8585000Y-11690000D02*
G75*
G02*
X8985000Y-11690000I200000J0D01*
G01*
X14835000Y-6667500D02*
X14835000Y-6240000D01*
X9030000Y-13640000D02*
X9030000Y-12710000D01*
X9585000Y-4390000D02*
X12985000Y-4390000D01*
X14970000Y-11215000D02*
G75*
G02*
X14870000Y-11215000I-50000J0D01*
G01*
X14870000Y-11215000D02*
G75*
G02*
X14970000Y-11215000I50000J0D01*
G01*
X20550000Y-14740000D02*
X20550000Y-15190000D01*
X16550000Y-14740000D02*
X16550000Y-15190000D01*
X20550000Y-15190000D02*
X20250000Y-15490000D01*
X12985000Y-4390000D02*
X13285000Y-4690000D01*
X13985000Y-11690000D02*
G75*
G02*
X13585000Y-11690000I-200000J0D01*
G01*
X13585000Y-11690000D02*
G75*
G02*
X13985000Y-11690000I200000J0D01*
G01*
X16850000Y-4390000D02*
X20250000Y-4390000D01*
X21350000Y-5940000D02*
X21800000Y-5940000D01*
X14835000Y-12110000D02*
X14835000Y-11710000D01*
X14970000Y-6775000D02*
G75*
G02*
X14870000Y-6775000I-50000J0D01*
G01*
X14870000Y-6775000D02*
G75*
G02*
X14970000Y-6775000I50000J0D01*
G01*
X20250000Y-15490000D02*
X16850000Y-15490000D01*
X20250000Y-4390000D02*
X20550000Y-4690000D01*
X8035000Y-13940000D02*
X7735000Y-13640000D01*
X15000000Y-11110000D02*
X15000000Y-7267500D01*
X21800000Y-5940000D02*
X22100000Y-6240000D01*
X20550000Y-14740000D02*
G75*
G02*
X21350000Y-13940000I800000J0D01*
G01*
X15000000Y-7267500D02*
X14835000Y-7267500D01*
X15750000Y-5940000D02*
X15300000Y-5940000D01*
X9285000Y-4690000D02*
X9585000Y-4390000D01*
X21800000Y-13940000D02*
X22100000Y-13640000D01*
X15300000Y-13940000D02*
X15000000Y-13640000D01*
X14970000Y-6970000D02*
G75*
G02*
X14870000Y-6970000I-50000J0D01*
G01*
X14870000Y-6970000D02*
G75*
G02*
X14970000Y-6970000I50000J0D01*
G01*
X13985000Y-8190000D02*
G75*
G02*
X13585000Y-8190000I-200000J0D01*
G01*
X13585000Y-8190000D02*
G75*
G02*
X13985000Y-8190000I200000J0D01*
G01*
X21250000Y-8190000D02*
G75*
G02*
X20850000Y-8190000I-200000J0D01*
G01*
X20850000Y-8190000D02*
G75*
G02*
X21250000Y-8190000I200000J0D01*
G01*
X14085000Y-5940000D02*
G75*
G02*
X13285000Y-5140000I0J800000D01*
G01*
X7735000Y-6240000D02*
X8035000Y-5940000D01*
X11485000Y-5440000D02*
G75*
G02*
X11085000Y-5440000I-200000J0D01*
G01*
X11085000Y-5440000D02*
G75*
G02*
X11485000Y-5440000I200000J0D01*
G01*
X15000000Y-11710000D02*
X14835000Y-11710000D01*
X9285000Y-5140000D02*
X9285000Y-4690000D01*
X16550000Y-4690000D02*
X16850000Y-4390000D01*
X21350000Y-13940000D02*
X21800000Y-13940000D01*
X9330000Y-12410000D02*
X9030000Y-12710000D01*
X14535000Y-5940000D02*
X14835000Y-6240000D01*
X14835000Y-11110000D02*
X14835000Y-7267500D01*
X18750000Y-5440000D02*
G75*
G02*
X18350000Y-5440000I-200000J0D01*
G01*
X18350000Y-5440000D02*
G75*
G02*
X18750000Y-5440000I200000J0D01*
G01*
X22100000Y-13640000D02*
X22100000Y-6240000D01*
X8730000Y-13940000D02*
X8035000Y-13940000D01*
X15000000Y-6240000D02*
X15300000Y-5940000D01*
X21350000Y-5940000D02*
G75*
G02*
X20550000Y-5140000I0J800000D01*
G01*
X14535000Y-12410000D02*
X9330000Y-12410000D01*
X9030000Y-13640000D02*
G75*
G02*
X8730000Y-13940000I-300000J0D01*
G01*
X16550000Y-5140000D02*
X16550000Y-4690000D01*
D11*
D12*
X7935000Y-11315000D02*
X7965000Y-11345000D01*
X7965000Y-11315000D02*
X7935000Y-11345000D01*
X7940000Y-12430000D02*
X7970000Y-12460000D01*
X7970000Y-12430000D02*
X7940000Y-12460000D01*
X7960000Y-13540000D02*
X7990000Y-13570000D01*
X7990000Y-13540000D02*
X7960000Y-13570000D01*
X8155000Y-10765000D02*
X8185000Y-10795000D01*
X8185000Y-10765000D02*
X8155000Y-10795000D01*
X8205000Y-7425000D02*
X8235000Y-7455000D01*
X8235000Y-7425000D02*
X8205000Y-7455000D01*
X8225000Y-7875000D02*
X8255000Y-7905000D01*
X8255000Y-7875000D02*
X8225000Y-7905000D01*
X8230000Y-6310000D02*
X8260000Y-6340000D01*
X8260000Y-6310000D02*
X8230000Y-6340000D01*
X8235000Y-9625000D02*
X8265000Y-9655000D01*
X8265000Y-9625000D02*
X8235000Y-9655000D01*
X8255000Y-10185000D02*
X8285000Y-10215000D01*
X8285000Y-10185000D02*
X8255000Y-10215000D01*
X8270000Y-6840000D02*
X8300000Y-6870000D01*
X8300000Y-6840000D02*
X8270000Y-6870000D01*
X8285000Y-9095000D02*
X8315000Y-9125000D01*
X8315000Y-9095000D02*
X8285000Y-9125000D01*
X8320000Y-8760000D02*
X8350000Y-8790000D01*
X8350000Y-8760000D02*
X8320000Y-8790000D01*
X8345000Y-12145000D02*
X8375000Y-12175000D01*
X8375000Y-12145000D02*
X8345000Y-12175000D01*
X8740000Y-10150000D02*
X8770000Y-10180000D01*
X8770000Y-10150000D02*
X8740000Y-10180000D01*
X9075000Y-12255000D02*
X9105000Y-12285000D01*
X9105000Y-12255000D02*
X9075000Y-12285000D01*
X9725000Y-9515000D02*
X9755000Y-9545000D01*
X9755000Y-9515000D02*
X9725000Y-9545000D01*
X9855000Y-7605000D02*
X9885000Y-7635000D01*
X9885000Y-7605000D02*
X9855000Y-7635000D01*
X10025000Y-8465000D02*
X10055000Y-8495000D01*
X10055000Y-8465000D02*
X10025000Y-8495000D01*
X10310000Y-7580000D02*
X10340000Y-7610000D01*
X10340000Y-7580000D02*
X10310000Y-7610000D01*
X10410000Y-9080000D02*
X10440000Y-9110000D01*
X10440000Y-9080000D02*
X10410000Y-9110000D01*
X10675000Y-8485000D02*
X10705000Y-8515000D01*
X10705000Y-8485000D02*
X10675000Y-8515000D01*
X10710000Y-8620000D02*
X10740000Y-8650000D01*
X10740000Y-8620000D02*
X10710000Y-8650000D01*
X10865000Y-7445000D02*
X10895000Y-7475000D01*
X10895000Y-7445000D02*
X10865000Y-7475000D01*
X10925000Y-8565000D02*
X10955000Y-8595000D01*
X10955000Y-8565000D02*
X10925000Y-8595000D01*
X11115000Y-5965000D02*
X11145000Y-5995000D01*
X11145000Y-5965000D02*
X11115000Y-5995000D01*
X11235000Y-6075000D02*
X11265000Y-6105000D01*
X11265000Y-6075000D02*
X11235000Y-6105000D01*
X11555000Y-8615000D02*
X11585000Y-8645000D01*
X11585000Y-8615000D02*
X11555000Y-8645000D01*
X11675000Y-7085000D02*
X11705000Y-7115000D01*
X11705000Y-7085000D02*
X11675000Y-7115000D01*
X11685000Y-8475000D02*
X11715000Y-8505000D01*
X11715000Y-8475000D02*
X11685000Y-8505000D01*
X11895000Y-9315000D02*
X11925000Y-9345000D01*
X11925000Y-9315000D02*
X11895000Y-9345000D01*
X11905000Y-11395000D02*
X11935000Y-11425000D01*
X11935000Y-11395000D02*
X11905000Y-11425000D01*
X11915000Y-6815000D02*
X11945000Y-6845000D01*
X11945000Y-6815000D02*
X11915000Y-6845000D01*
X11955000Y-6655000D02*
X11985000Y-6685000D01*
X11985000Y-6655000D02*
X11955000Y-6685000D01*
X11995000Y-10405000D02*
X12025000Y-10435000D01*
X12025000Y-10405000D02*
X11995000Y-10435000D01*
X12025000Y-11495000D02*
X12055000Y-11525000D01*
X12055000Y-11495000D02*
X12025000Y-11525000D01*
X12135000Y-6745000D02*
X12165000Y-6775000D01*
X12165000Y-6745000D02*
X12135000Y-6775000D01*
X12135000Y-11315000D02*
X12165000Y-11345000D01*
X12165000Y-11315000D02*
X12135000Y-11345000D01*
X12185000Y-5315000D02*
X12215000Y-5345000D01*
X12215000Y-5315000D02*
X12185000Y-5345000D01*
X12325000Y-5405000D02*
X12355000Y-5435000D01*
X12355000Y-5405000D02*
X12325000Y-5435000D01*
X12325000Y-6355000D02*
X12355000Y-6385000D01*
X12355000Y-6355000D02*
X12325000Y-6385000D01*
X12385000Y-6815000D02*
X12415000Y-6845000D01*
X12415000Y-6815000D02*
X12385000Y-6845000D01*
X12440000Y-5140000D02*
X12470000Y-5170000D01*
X12470000Y-5140000D02*
X12440000Y-5170000D01*
X12545000Y-5615000D02*
X12575000Y-5645000D01*
X12575000Y-5615000D02*
X12545000Y-5645000D01*
X12545000Y-6985000D02*
X12575000Y-7015000D01*
X12575000Y-6985000D02*
X12545000Y-7015000D01*
X12565000Y-9155000D02*
X12595000Y-9185000D01*
X12595000Y-9155000D02*
X12565000Y-9185000D01*
X12585000Y-6775000D02*
X12615000Y-6805000D01*
X12615000Y-6775000D02*
X12585000Y-6805000D01*
X12645000Y-11485000D02*
X12675000Y-11515000D01*
X12675000Y-11485000D02*
X12645000Y-11515000D01*
X12745000Y-6025000D02*
X12775000Y-6055000D01*
X12775000Y-6025000D02*
X12745000Y-6055000D01*
X12755000Y-6765000D02*
X12785000Y-6795000D01*
X12785000Y-6765000D02*
X12755000Y-6795000D01*
X13015000Y-6765000D02*
X13045000Y-6795000D01*
X13045000Y-6765000D02*
X13015000Y-6795000D01*
X13055000Y-5685000D02*
X13085000Y-5715000D01*
X13085000Y-5685000D02*
X13055000Y-5715000D01*
X8085000Y-7170000D02*
G75*
G02*
X8035000Y-7170000I-25000J0D01*
G01*
X8035000Y-7170000D02*
G75*
G02*
X8085000Y-7170000I25000J0D01*
G01*
X8455000Y-7760000D02*
G75*
G02*
X8405000Y-7760000I-25000J0D01*
G01*
X8405000Y-7760000D02*
G75*
G02*
X8455000Y-7760000I25000J0D01*
G01*
X8535000Y-11140000D02*
G75*
G02*
X8485000Y-11140000I-25000J0D01*
G01*
X8485000Y-11140000D02*
G75*
G02*
X8535000Y-11140000I25000J0D01*
G01*
X8555000Y-10120000D02*
G75*
G02*
X8505000Y-10120000I-25000J0D01*
G01*
X8505000Y-10120000D02*
G75*
G02*
X8555000Y-10120000I25000J0D01*
G01*
X8615000Y-7050000D02*
G75*
G02*
X8565000Y-7050000I-25000J0D01*
G01*
X8565000Y-7050000D02*
G75*
G02*
X8615000Y-7050000I25000J0D01*
G01*
X8635000Y-12890000D02*
G75*
G02*
X8585000Y-12890000I-25000J0D01*
G01*
X8585000Y-12890000D02*
G75*
G02*
X8635000Y-12890000I25000J0D01*
G01*
X8655000Y-9140000D02*
G75*
G02*
X8605000Y-9140000I-25000J0D01*
G01*
X8605000Y-9140000D02*
G75*
G02*
X8655000Y-9140000I25000J0D01*
G01*
X8745000Y-9290000D02*
G75*
G02*
X8695000Y-9290000I-25000J0D01*
G01*
X8695000Y-9290000D02*
G75*
G02*
X8745000Y-9290000I25000J0D01*
G01*
X8865000Y-7080000D02*
G75*
G02*
X8815000Y-7080000I-25000J0D01*
G01*
X8815000Y-7080000D02*
G75*
G02*
X8865000Y-7080000I25000J0D01*
G01*
X8875000Y-7510000D02*
G75*
G02*
X8825000Y-7510000I-25000J0D01*
G01*
X8825000Y-7510000D02*
G75*
G02*
X8875000Y-7510000I25000J0D01*
G01*
X8965000Y-6610000D02*
G75*
G02*
X8915000Y-6610000I-25000J0D01*
G01*
X8915000Y-6610000D02*
G75*
G02*
X8965000Y-6610000I25000J0D01*
G01*
X9095000Y-9180000D02*
G75*
G02*
X9045000Y-9180000I-25000J0D01*
G01*
X9045000Y-9180000D02*
G75*
G02*
X9095000Y-9180000I25000J0D01*
G01*
X9585000Y-8700000D02*
G75*
G02*
X9535000Y-8700000I-25000J0D01*
G01*
X9535000Y-8700000D02*
G75*
G02*
X9585000Y-8700000I25000J0D01*
G01*
X9595000Y-9740000D02*
G75*
G02*
X9545000Y-9740000I-25000J0D01*
G01*
X9545000Y-9740000D02*
G75*
G02*
X9595000Y-9740000I25000J0D01*
G01*
X9725000Y-7580000D02*
G75*
G02*
X9675000Y-7580000I-25000J0D01*
G01*
X9675000Y-7580000D02*
G75*
G02*
X9725000Y-7580000I25000J0D01*
G01*
X9735000Y-7300000D02*
G75*
G02*
X9685000Y-7300000I-25000J0D01*
G01*
X9685000Y-7300000D02*
G75*
G02*
X9735000Y-7300000I25000J0D01*
G01*
X9830000Y-10355000D02*
G75*
G02*
X9780000Y-10355000I-25000J0D01*
G01*
X9780000Y-10355000D02*
G75*
G02*
X9830000Y-10355000I25000J0D01*
G01*
X9875000Y-8780000D02*
G75*
G02*
X9825000Y-8780000I-25000J0D01*
G01*
X9825000Y-8780000D02*
G75*
G02*
X9875000Y-8780000I25000J0D01*
G01*
X9995000Y-9560000D02*
G75*
G02*
X9945000Y-9560000I-25000J0D01*
G01*
X9945000Y-9560000D02*
G75*
G02*
X9995000Y-9560000I25000J0D01*
G01*
X10155000Y-9390000D02*
G75*
G02*
X10105000Y-9390000I-25000J0D01*
G01*
X10105000Y-9390000D02*
G75*
G02*
X10155000Y-9390000I25000J0D01*
G01*
X10485000Y-5220000D02*
G75*
G02*
X10435000Y-5220000I-25000J0D01*
G01*
X10435000Y-5220000D02*
G75*
G02*
X10485000Y-5220000I25000J0D01*
G01*
X10575000Y-9970000D02*
G75*
G02*
X10525000Y-9970000I-25000J0D01*
G01*
X10525000Y-9970000D02*
G75*
G02*
X10575000Y-9970000I25000J0D01*
G01*
X10855000Y-7750000D02*
G75*
G02*
X10805000Y-7750000I-25000J0D01*
G01*
X10805000Y-7750000D02*
G75*
G02*
X10855000Y-7750000I25000J0D01*
G01*
X11035000Y-10940000D02*
G75*
G02*
X10985000Y-10940000I-25000J0D01*
G01*
X10985000Y-10940000D02*
G75*
G02*
X11035000Y-10940000I25000J0D01*
G01*
X11165000Y-9510000D02*
G75*
G02*
X11115000Y-9510000I-25000J0D01*
G01*
X11115000Y-9510000D02*
G75*
G02*
X11165000Y-9510000I25000J0D01*
G01*
X11255000Y-9030000D02*
G75*
G02*
X11205000Y-9030000I-25000J0D01*
G01*
X11205000Y-9030000D02*
G75*
G02*
X11255000Y-9030000I25000J0D01*
G01*
X11355000Y-8460000D02*
G75*
G02*
X11305000Y-8460000I-25000J0D01*
G01*
X11305000Y-8460000D02*
G75*
G02*
X11355000Y-8460000I25000J0D01*
G01*
X11455000Y-8880000D02*
G75*
G02*
X11405000Y-8880000I-25000J0D01*
G01*
X11405000Y-8880000D02*
G75*
G02*
X11455000Y-8880000I25000J0D01*
G01*
X11495000Y-10830000D02*
G75*
G02*
X11445000Y-10830000I-25000J0D01*
G01*
X11445000Y-10830000D02*
G75*
G02*
X11495000Y-10830000I25000J0D01*
G01*
X11905000Y-7820000D02*
G75*
G02*
X11855000Y-7820000I-25000J0D01*
G01*
X11855000Y-7820000D02*
G75*
G02*
X11905000Y-7820000I25000J0D01*
G01*
X11945000Y-11140000D02*
G75*
G02*
X11895000Y-11140000I-25000J0D01*
G01*
X11895000Y-11140000D02*
G75*
G02*
X11945000Y-11140000I25000J0D01*
G01*
X11965000Y-8720000D02*
G75*
G02*
X11915000Y-8720000I-25000J0D01*
G01*
X11915000Y-8720000D02*
G75*
G02*
X11965000Y-8720000I25000J0D01*
G01*
X12005000Y-5670000D02*
G75*
G02*
X11955000Y-5670000I-25000J0D01*
G01*
X11955000Y-5670000D02*
G75*
G02*
X12005000Y-5670000I25000J0D01*
G01*
X12315000Y-11390000D02*
G75*
G02*
X12265000Y-11390000I-25000J0D01*
G01*
X12265000Y-11390000D02*
G75*
G02*
X12315000Y-11390000I25000J0D01*
G01*
X12435000Y-8240000D02*
G75*
G02*
X12385000Y-8240000I-25000J0D01*
G01*
X12385000Y-8240000D02*
G75*
G02*
X12435000Y-8240000I25000J0D01*
G01*
X12655000Y-11820000D02*
G75*
G02*
X12605000Y-11820000I-25000J0D01*
G01*
X12605000Y-11820000D02*
G75*
G02*
X12655000Y-11820000I25000J0D01*
G01*
X12715000Y-8520000D02*
G75*
G02*
X12665000Y-8520000I-25000J0D01*
G01*
X12665000Y-8520000D02*
G75*
G02*
X12715000Y-8520000I25000J0D01*
G01*
X12765000Y-8210000D02*
G75*
G02*
X12715000Y-8210000I-25000J0D01*
G01*
X12715000Y-8210000D02*
G75*
G02*
X12765000Y-8210000I25000J0D01*
G01*
X12795000Y-9180000D02*
G75*
G02*
X12745000Y-9180000I-25000J0D01*
G01*
X12745000Y-9180000D02*
G75*
G02*
X12795000Y-9180000I25000J0D01*
G01*
X12915000Y-4970000D02*
G75*
G02*
X12865000Y-4970000I-25000J0D01*
G01*
X12865000Y-4970000D02*
G75*
G02*
X12915000Y-4970000I25000J0D01*
G01*
X12935000Y-5430000D02*
G75*
G02*
X12885000Y-5430000I-25000J0D01*
G01*
X12885000Y-5430000D02*
G75*
G02*
X12935000Y-5430000I25000J0D01*
G01*
X12985000Y-9800000D02*
G75*
G02*
X12935000Y-9800000I-25000J0D01*
G01*
X12935000Y-9800000D02*
G75*
G02*
X12985000Y-9800000I25000J0D01*
G01*
X13095000Y-10570000D02*
G75*
G02*
X13045000Y-10570000I-25000J0D01*
G01*
X13045000Y-10570000D02*
G75*
G02*
X13095000Y-10570000I25000J0D01*
G01*
X13185000Y-11370000D02*
G75*
G02*
X13135000Y-11370000I-25000J0D01*
G01*
X13135000Y-11370000D02*
G75*
G02*
X13185000Y-11370000I25000J0D01*
G01*
X13245000Y-5650000D02*
G75*
G02*
X13195000Y-5650000I-25000J0D01*
G01*
X13195000Y-5650000D02*
G75*
G02*
X13245000Y-5650000I25000J0D01*
G01*
X13455000Y-12180000D02*
G75*
G02*
X13405000Y-12180000I-25000J0D01*
G01*
X13405000Y-12180000D02*
G75*
G02*
X13455000Y-12180000I25000J0D01*
G01*
X13585000Y-9790000D02*
G75*
G02*
X13535000Y-9790000I-25000J0D01*
G01*
X13535000Y-9790000D02*
G75*
G02*
X13585000Y-9790000I25000J0D01*
G01*
X13675000Y-6210000D02*
G75*
G02*
X13625000Y-6210000I-25000J0D01*
G01*
X13625000Y-6210000D02*
G75*
G02*
X13675000Y-6210000I25000J0D01*
G01*
X13765000Y-10350000D02*
G75*
G02*
X13715000Y-10350000I-25000J0D01*
G01*
X13715000Y-10350000D02*
G75*
G02*
X13765000Y-10350000I25000J0D01*
G01*
X13895000Y-9880000D02*
G75*
G02*
X13845000Y-9880000I-25000J0D01*
G01*
X13845000Y-9880000D02*
G75*
G02*
X13895000Y-9880000I25000J0D01*
G01*
X14350000Y-11455000D02*
G75*
G02*
X14300000Y-11455000I-25000J0D01*
G01*
X14300000Y-11455000D02*
G75*
G02*
X14350000Y-11455000I25000J0D01*
G01*
X17610000Y-5460000D02*
X17610000Y-5540000D01*
X17570000Y-5500000D02*
X17650000Y-5500000D01*
X17860000Y-5460000D02*
X17860000Y-5540000D01*
X17820000Y-5500000D02*
X17900000Y-5500000D01*
X18836637Y-12483363D02*
X18836637Y-12563363D01*
X18796637Y-12523363D02*
X18876637Y-12523363D01*
X20003363Y-11316637D02*
X20003363Y-11396637D01*
X19963363Y-11356637D02*
X20043363Y-11356637D01*
X17011820Y-11471820D02*
X17011820Y-11408180D01*
X16948180Y-11408180D01*
X16948180Y-11471820D01*
X17011820Y-11471820D01*
X17011820Y-12771820D02*
X17011820Y-12708180D01*
X16948180Y-12708180D01*
X16948180Y-12771820D01*
X17011820Y-12771820D01*
X18011820Y-11471820D02*
X18011820Y-11408180D01*
X17948180Y-11408180D01*
X17948180Y-11471820D01*
X18011820Y-11471820D01*
X18011820Y-12771820D02*
X18011820Y-12708180D01*
X17948180Y-12708180D01*
X17948180Y-12771820D01*
X18011820Y-12771820D01*
X10354729Y-4951804D02*
X10404729Y-4901804D01*
X10354729Y-4851804D01*
X10304729Y-4901804D01*
X10354729Y-4951804D01*
X10608729Y-4951804D02*
X10658729Y-4901804D01*
X10608729Y-4851804D01*
X10558729Y-4901804D01*
X10608729Y-4951804D01*
X12008000Y-7280000D02*
X12058000Y-7230000D01*
X12008000Y-7180000D01*
X11958000Y-7230000D01*
X12008000Y-7280000D01*
X12008000Y-7534000D02*
X12058000Y-7484000D01*
X12008000Y-7434000D01*
X11958000Y-7484000D01*
X12008000Y-7534000D01*
X12262000Y-7280000D02*
X12312000Y-7230000D01*
X12262000Y-7180000D01*
X12212000Y-7230000D01*
X12262000Y-7280000D01*
X12262000Y-7534000D02*
X12312000Y-7484000D01*
X12262000Y-7434000D01*
X12212000Y-7484000D01*
X12262000Y-7534000D01*
X12415000Y-10241000D02*
X12465000Y-10191000D01*
X12415000Y-10141000D01*
X12365000Y-10191000D01*
X12415000Y-10241000D01*
X12415000Y-10495000D02*
X12465000Y-10445000D01*
X12415000Y-10395000D01*
X12365000Y-10445000D01*
X12415000Y-10495000D01*
X12516000Y-7280000D02*
X12566000Y-7230000D01*
X12516000Y-7180000D01*
X12466000Y-7230000D01*
X12516000Y-7280000D01*
X12516000Y-7534000D02*
X12566000Y-7484000D01*
X12516000Y-7434000D01*
X12466000Y-7484000D01*
X12516000Y-7534000D01*
X12770000Y-7280000D02*
X12820000Y-7230000D01*
X12770000Y-7180000D01*
X12720000Y-7230000D01*
X12770000Y-7280000D01*
X12770000Y-7534000D02*
X12820000Y-7484000D01*
X12770000Y-7434000D01*
X12720000Y-7484000D01*
X12770000Y-7534000D01*
X13024000Y-7280000D02*
X13074000Y-7230000D01*
X13024000Y-7180000D01*
X12974000Y-7230000D01*
X13024000Y-7280000D01*
X13024000Y-7534000D02*
X13074000Y-7484000D01*
X13024000Y-7434000D01*
X12974000Y-7484000D01*
X13024000Y-7534000D01*
X14062500Y-9157500D02*
X14112500Y-9107500D01*
X14062500Y-9057500D01*
X14012500Y-9107500D01*
X14062500Y-9157500D01*
X14062500Y-9407500D02*
X14112500Y-9357500D01*
X14062500Y-9307500D01*
X14012500Y-9357500D01*
X14062500Y-9407500D01*
X14062500Y-9657500D02*
X14112500Y-9607500D01*
X14062500Y-9557500D01*
X14012500Y-9607500D01*
X14062500Y-9657500D01*
X14302500Y-6980000D02*
X14352500Y-6930000D01*
X14302500Y-6880000D01*
X14252500Y-6930000D01*
X14302500Y-6980000D01*
X14302500Y-7230000D02*
X14352500Y-7180000D01*
X14302500Y-7130000D01*
X14252500Y-7180000D01*
X14302500Y-7230000D01*
X14302500Y-7480000D02*
X14352500Y-7430000D01*
X14302500Y-7380000D01*
X14252500Y-7430000D01*
X14302500Y-7480000D01*
X14312500Y-9157500D02*
X14362500Y-9107500D01*
X14312500Y-9057500D01*
X14262500Y-9107500D01*
X14312500Y-9157500D01*
X14312500Y-9407500D02*
X14362500Y-9357500D01*
X14312500Y-9307500D01*
X14262500Y-9357500D01*
X14312500Y-9407500D01*
X14312500Y-9657500D02*
X14362500Y-9607500D01*
X14312500Y-9557500D01*
X14262500Y-9607500D01*
X14312500Y-9657500D01*
X14400000Y-10896000D02*
X14450000Y-10846000D01*
X14400000Y-10796000D01*
X14350000Y-10846000D01*
X14400000Y-10896000D01*
X14400000Y-11150000D02*
X14450000Y-11100000D01*
X14400000Y-11050000D01*
X14350000Y-11100000D01*
X14400000Y-11150000D01*
X17040000Y-6370000D02*
X17090000Y-6320000D01*
X17040000Y-6270000D01*
X16990000Y-6320000D01*
X17040000Y-6370000D01*
X17270000Y-10530000D02*
X17320000Y-10480000D01*
X17270000Y-10430000D01*
X17220000Y-10480000D01*
X17270000Y-10530000D01*
X17620000Y-4950000D02*
X17670000Y-4900000D01*
X17620000Y-4850000D01*
X17570000Y-4900000D01*
X17620000Y-4950000D01*
X17620000Y-13855000D02*
X17670000Y-13805000D01*
X17620000Y-13755000D01*
X17570000Y-13805000D01*
X17620000Y-13855000D01*
X17620000Y-14605000D02*
X17670000Y-14555000D01*
X17620000Y-14505000D01*
X17570000Y-14555000D01*
X17620000Y-14605000D01*
X17874000Y-4950000D02*
X17924000Y-4900000D01*
X17874000Y-4850000D01*
X17824000Y-4900000D01*
X17874000Y-4950000D01*
X18752500Y-13630000D02*
X18802500Y-13580000D01*
X18752500Y-13530000D01*
X18702500Y-13580000D01*
X18752500Y-13630000D01*
X19100000Y-6370000D02*
X19150000Y-6320000D01*
X19100000Y-6270000D01*
X19050000Y-6320000D01*
X19100000Y-6370000D01*
X19100000Y-10530000D02*
X19150000Y-10480000D01*
X19100000Y-10430000D01*
X19050000Y-10480000D01*
X19100000Y-10530000D01*
X19385000Y-14388000D02*
X19435000Y-14338000D01*
X19385000Y-14288000D01*
X19335000Y-14338000D01*
X19385000Y-14388000D01*
X20135000Y-14388000D02*
X20185000Y-14338000D01*
X20135000Y-14288000D01*
X20085000Y-14338000D01*
X20135000Y-14388000D01*
X20165000Y-9690000D02*
X20215000Y-9640000D01*
X20165000Y-9590000D01*
X20115000Y-9640000D01*
X20165000Y-9690000D01*
X20165000Y-10410000D02*
X20215000Y-10360000D01*
X20165000Y-10310000D01*
X20115000Y-10360000D01*
X20165000Y-10410000D01*
X20252500Y-13630000D02*
X20302500Y-13580000D01*
X20252500Y-13530000D01*
X20202500Y-13580000D01*
X20252500Y-13630000D01*
X21662672Y-10896884D02*
X21712672Y-10846884D01*
X21662672Y-10796884D01*
X21612672Y-10846884D01*
X21662672Y-10896884D01*
X21662672Y-11150884D02*
X21712672Y-11100884D01*
X21662672Y-11050884D01*
X21612672Y-11100884D01*
X21662672Y-11150884D01*
X21795000Y-9690000D02*
X21845000Y-9640000D01*
X21795000Y-9590000D01*
X21745000Y-9640000D01*
X21795000Y-9690000D01*
X21795000Y-10410000D02*
X21845000Y-10360000D01*
X21795000Y-10310000D01*
X21745000Y-10360000D01*
X21795000Y-10410000D01*
D13*
X9027000Y-10320000D02*
X9147000Y-10440000D01*
X9147000Y-10320000D02*
X9027000Y-10440000D01*
X9147000Y-10380000D02*
G75*
G02*
X9027000Y-10380000I-60000J0D01*
G01*
X9027000Y-10380000D02*
G75*
G02*
X9147000Y-10380000I60000J0D01*
G01*
X11313000Y-10320000D02*
X11433000Y-10440000D01*
X11433000Y-10320000D02*
X11313000Y-10440000D01*
X11433000Y-10380000D02*
G75*
G02*
X11313000Y-10380000I-60000J0D01*
G01*
X11313000Y-10380000D02*
G75*
G02*
X11433000Y-10380000I60000J0D01*
G01*
D11*
X10880000Y-11980000D02*
X11080000Y-12180000D01*
X11080000Y-11980000D02*
X10880000Y-12180000D01*
X10980000Y-11980000D02*
X10980000Y-12180000D01*
X10880000Y-12080000D02*
X11080000Y-12080000D01*
X12130000Y-11970000D02*
X12330000Y-12170000D01*
X12330000Y-11970000D02*
X12130000Y-12170000D01*
X12230000Y-11970000D02*
X12230000Y-12170000D01*
X12130000Y-12070000D02*
X12330000Y-12070000D01*
X16820000Y-14900000D02*
X17020000Y-15100000D01*
X17020000Y-14900000D02*
X16820000Y-15100000D01*
X16920000Y-14900000D02*
X16920000Y-15100000D01*
X16820000Y-15000000D02*
X17020000Y-15000000D01*
X20060000Y-14900000D02*
X20260000Y-15100000D01*
X20260000Y-14900000D02*
X20060000Y-15100000D01*
X20160000Y-14900000D02*
X20160000Y-15100000D01*
X20060000Y-15000000D02*
X20260000Y-15000000D01*
D14*
X19422000Y-4572000D02*
X19738000Y-4888000D01*
X19738000Y-4572000D02*
X19422000Y-4888000D01*
X19691724Y-4841724D02*
X19691724Y-4618276D01*
X19468276Y-4618276D01*
X19468276Y-4841724D01*
X19691724Y-4841724D01*
D15*
X19398000Y-5148000D02*
X19762000Y-5512000D01*
X19762000Y-5148000D02*
X19398000Y-5512000D01*
X19580000Y-5512000D02*
X19762000Y-5330000D01*
X19580000Y-5148000D01*
X19398000Y-5330000D01*
X19580000Y-5512000D01*
D11*
X7993277Y-15803984D02*
X7993277Y-15603984D01*
X7993277Y-15603984D02*
X8040896Y-15603984D01*
X8040896Y-15603984D02*
X8069467Y-15613508D01*
X8069467Y-15613508D02*
X8088515Y-15632555D01*
X8088515Y-15632555D02*
X8098039Y-15651603D01*
X8098039Y-15651603D02*
X8107562Y-15689698D01*
X8107562Y-15689698D02*
X8107562Y-15718269D01*
X8107562Y-15718269D02*
X8098039Y-15756365D01*
X8098039Y-15756365D02*
X8088515Y-15775412D01*
X8088515Y-15775412D02*
X8069467Y-15794460D01*
X8069467Y-15794460D02*
X8040896Y-15803984D01*
X8040896Y-15803984D02*
X7993277Y-15803984D01*
X8193277Y-15803984D02*
X8193277Y-15670650D01*
X8193277Y-15708746D02*
X8202801Y-15689698D01*
X8202801Y-15689698D02*
X8212324Y-15680174D01*
X8212324Y-15680174D02*
X8231372Y-15670650D01*
X8231372Y-15670650D02*
X8250420Y-15670650D01*
X8317086Y-15803984D02*
X8317086Y-15670650D01*
X8317086Y-15603984D02*
X8307562Y-15613508D01*
X8307562Y-15613508D02*
X8317086Y-15623031D01*
X8317086Y-15623031D02*
X8326610Y-15613508D01*
X8326610Y-15613508D02*
X8317086Y-15603984D01*
X8317086Y-15603984D02*
X8317086Y-15623031D01*
X8440896Y-15803984D02*
X8421848Y-15794460D01*
X8421848Y-15794460D02*
X8412324Y-15775412D01*
X8412324Y-15775412D02*
X8412324Y-15603984D01*
X8545658Y-15803984D02*
X8526610Y-15794460D01*
X8526610Y-15794460D02*
X8517086Y-15775412D01*
X8517086Y-15775412D02*
X8517086Y-15603984D01*
X8774229Y-15803984D02*
X8774229Y-15603984D01*
X8774229Y-15603984D02*
X8840896Y-15746841D01*
X8840896Y-15746841D02*
X8907563Y-15603984D01*
X8907563Y-15603984D02*
X8907563Y-15803984D01*
X9088515Y-15803984D02*
X9088515Y-15699222D01*
X9088515Y-15699222D02*
X9078991Y-15680174D01*
X9078991Y-15680174D02*
X9059944Y-15670650D01*
X9059944Y-15670650D02*
X9021848Y-15670650D01*
X9021848Y-15670650D02*
X9002801Y-15680174D01*
X9088515Y-15794460D02*
X9069467Y-15803984D01*
X9069467Y-15803984D02*
X9021848Y-15803984D01*
X9021848Y-15803984D02*
X9002801Y-15794460D01*
X9002801Y-15794460D02*
X8993277Y-15775412D01*
X8993277Y-15775412D02*
X8993277Y-15756365D01*
X8993277Y-15756365D02*
X9002801Y-15737317D01*
X9002801Y-15737317D02*
X9021848Y-15727793D01*
X9021848Y-15727793D02*
X9069467Y-15727793D01*
X9069467Y-15727793D02*
X9088515Y-15718269D01*
X9183753Y-15670650D02*
X9183753Y-15870650D01*
X9183753Y-15680174D02*
X9202801Y-15670650D01*
X9202801Y-15670650D02*
X9240896Y-15670650D01*
X9240896Y-15670650D02*
X9259944Y-15680174D01*
X9259944Y-15680174D02*
X9269467Y-15689698D01*
X9269467Y-15689698D02*
X9278991Y-15708746D01*
X9278991Y-15708746D02*
X9278991Y-15765888D01*
X9278991Y-15765888D02*
X9269467Y-15784936D01*
X9269467Y-15784936D02*
X9259944Y-15794460D01*
X9259944Y-15794460D02*
X9240896Y-15803984D01*
X9240896Y-15803984D02*
X9202801Y-15803984D01*
X9202801Y-15803984D02*
X9183753Y-15794460D01*
X9364705Y-15784936D02*
X9374229Y-15794460D01*
X9374229Y-15794460D02*
X9364705Y-15803984D01*
X9364705Y-15803984D02*
X9355182Y-15794460D01*
X9355182Y-15794460D02*
X9364705Y-15784936D01*
X9364705Y-15784936D02*
X9364705Y-15803984D01*
X9364705Y-15680174D02*
X9374229Y-15689698D01*
X9374229Y-15689698D02*
X9364705Y-15699222D01*
X9364705Y-15699222D02*
X9355182Y-15689698D01*
X9355182Y-15689698D02*
X9364705Y-15680174D01*
X9364705Y-15680174D02*
X9364705Y-15699222D01*
D12*
X7702500Y-16117500D02*
X7732500Y-16147500D01*
X7732500Y-16117500D02*
X7702500Y-16147500D01*
D11*
X8031372Y-16023984D02*
X8050420Y-16023984D01*
X8050420Y-16023984D02*
X8069467Y-16033508D01*
X8069467Y-16033508D02*
X8078991Y-16043031D01*
X8078991Y-16043031D02*
X8088515Y-16062079D01*
X8088515Y-16062079D02*
X8098039Y-16100174D01*
X8098039Y-16100174D02*
X8098039Y-16147793D01*
X8098039Y-16147793D02*
X8088515Y-16185888D01*
X8088515Y-16185888D02*
X8078991Y-16204936D01*
X8078991Y-16204936D02*
X8069467Y-16214460D01*
X8069467Y-16214460D02*
X8050420Y-16223984D01*
X8050420Y-16223984D02*
X8031372Y-16223984D01*
X8031372Y-16223984D02*
X8012324Y-16214460D01*
X8012324Y-16214460D02*
X8002801Y-16204936D01*
X8002801Y-16204936D02*
X7993277Y-16185888D01*
X7993277Y-16185888D02*
X7983753Y-16147793D01*
X7983753Y-16147793D02*
X7983753Y-16100174D01*
X7983753Y-16100174D02*
X7993277Y-16062079D01*
X7993277Y-16062079D02*
X8002801Y-16043031D01*
X8002801Y-16043031D02*
X8012324Y-16033508D01*
X8012324Y-16033508D02*
X8031372Y-16023984D01*
X8183753Y-16204936D02*
X8193277Y-16214460D01*
X8193277Y-16214460D02*
X8183753Y-16223984D01*
X8183753Y-16223984D02*
X8174229Y-16214460D01*
X8174229Y-16214460D02*
X8183753Y-16204936D01*
X8183753Y-16204936D02*
X8183753Y-16223984D01*
X8259943Y-16023984D02*
X8383753Y-16023984D01*
X8383753Y-16023984D02*
X8317086Y-16100174D01*
X8317086Y-16100174D02*
X8345658Y-16100174D01*
X8345658Y-16100174D02*
X8364705Y-16109698D01*
X8364705Y-16109698D02*
X8374229Y-16119222D01*
X8374229Y-16119222D02*
X8383753Y-16138269D01*
X8383753Y-16138269D02*
X8383753Y-16185888D01*
X8383753Y-16185888D02*
X8374229Y-16204936D01*
X8374229Y-16204936D02*
X8364705Y-16214460D01*
X8364705Y-16214460D02*
X8345658Y-16223984D01*
X8345658Y-16223984D02*
X8288515Y-16223984D01*
X8288515Y-16223984D02*
X8269467Y-16214460D01*
X8269467Y-16214460D02*
X8259943Y-16204936D01*
X8507563Y-16023984D02*
X8526610Y-16023984D01*
X8526610Y-16023984D02*
X8545658Y-16033508D01*
X8545658Y-16033508D02*
X8555182Y-16043031D01*
X8555182Y-16043031D02*
X8564705Y-16062079D01*
X8564705Y-16062079D02*
X8574229Y-16100174D01*
X8574229Y-16100174D02*
X8574229Y-16147793D01*
X8574229Y-16147793D02*
X8564705Y-16185888D01*
X8564705Y-16185888D02*
X8555182Y-16204936D01*
X8555182Y-16204936D02*
X8545658Y-16214460D01*
X8545658Y-16214460D02*
X8526610Y-16223984D01*
X8526610Y-16223984D02*
X8507563Y-16223984D01*
X8507563Y-16223984D02*
X8488515Y-16214460D01*
X8488515Y-16214460D02*
X8478991Y-16204936D01*
X8478991Y-16204936D02*
X8469467Y-16185888D01*
X8469467Y-16185888D02*
X8459944Y-16147793D01*
X8459944Y-16147793D02*
X8459944Y-16100174D01*
X8459944Y-16100174D02*
X8469467Y-16062079D01*
X8469467Y-16062079D02*
X8478991Y-16043031D01*
X8478991Y-16043031D02*
X8488515Y-16033508D01*
X8488515Y-16033508D02*
X8507563Y-16023984D01*
X8698039Y-16023984D02*
X8717086Y-16023984D01*
X8717086Y-16023984D02*
X8736134Y-16033508D01*
X8736134Y-16033508D02*
X8745658Y-16043031D01*
X8745658Y-16043031D02*
X8755182Y-16062079D01*
X8755182Y-16062079D02*
X8764705Y-16100174D01*
X8764705Y-16100174D02*
X8764705Y-16147793D01*
X8764705Y-16147793D02*
X8755182Y-16185888D01*
X8755182Y-16185888D02*
X8745658Y-16204936D01*
X8745658Y-16204936D02*
X8736134Y-16214460D01*
X8736134Y-16214460D02*
X8717086Y-16223984D01*
X8717086Y-16223984D02*
X8698039Y-16223984D01*
X8698039Y-16223984D02*
X8678991Y-16214460D01*
X8678991Y-16214460D02*
X8669467Y-16204936D01*
X8669467Y-16204936D02*
X8659944Y-16185888D01*
X8659944Y-16185888D02*
X8650420Y-16147793D01*
X8650420Y-16147793D02*
X8650420Y-16100174D01*
X8650420Y-16100174D02*
X8659944Y-16062079D01*
X8659944Y-16062079D02*
X8669467Y-16043031D01*
X8669467Y-16043031D02*
X8678991Y-16033508D01*
X8678991Y-16033508D02*
X8698039Y-16023984D01*
X8850420Y-16223984D02*
X8850420Y-16090650D01*
X8850420Y-16109698D02*
X8859944Y-16100174D01*
X8859944Y-16100174D02*
X8878991Y-16090650D01*
X8878991Y-16090650D02*
X8907563Y-16090650D01*
X8907563Y-16090650D02*
X8926610Y-16100174D01*
X8926610Y-16100174D02*
X8936134Y-16119222D01*
X8936134Y-16119222D02*
X8936134Y-16223984D01*
X8936134Y-16119222D02*
X8945658Y-16100174D01*
X8945658Y-16100174D02*
X8964705Y-16090650D01*
X8964705Y-16090650D02*
X8993277Y-16090650D01*
X8993277Y-16090650D02*
X9012325Y-16100174D01*
X9012325Y-16100174D02*
X9021848Y-16119222D01*
X9021848Y-16119222D02*
X9021848Y-16223984D01*
X9117086Y-16223984D02*
X9117086Y-16090650D01*
X9117086Y-16109698D02*
X9126610Y-16100174D01*
X9126610Y-16100174D02*
X9145658Y-16090650D01*
X9145658Y-16090650D02*
X9174229Y-16090650D01*
X9174229Y-16090650D02*
X9193277Y-16100174D01*
X9193277Y-16100174D02*
X9202801Y-16119222D01*
X9202801Y-16119222D02*
X9202801Y-16223984D01*
X9202801Y-16119222D02*
X9212325Y-16100174D01*
X9212325Y-16100174D02*
X9231372Y-16090650D01*
X9231372Y-16090650D02*
X9259944Y-16090650D01*
X9259944Y-16090650D02*
X9278991Y-16100174D01*
X9278991Y-16100174D02*
X9288515Y-16119222D01*
X9288515Y-16119222D02*
X9288515Y-16223984D01*
X9678991Y-16014460D02*
X9507563Y-16271603D01*
X9936134Y-16023984D02*
X9955182Y-16023984D01*
X9955182Y-16023984D02*
X9974229Y-16033508D01*
X9974229Y-16033508D02*
X9983753Y-16043031D01*
X9983753Y-16043031D02*
X9993277Y-16062079D01*
X9993277Y-16062079D02*
X10002801Y-16100174D01*
X10002801Y-16100174D02*
X10002801Y-16147793D01*
X10002801Y-16147793D02*
X9993277Y-16185888D01*
X9993277Y-16185888D02*
X9983753Y-16204936D01*
X9983753Y-16204936D02*
X9974229Y-16214460D01*
X9974229Y-16214460D02*
X9955182Y-16223984D01*
X9955182Y-16223984D02*
X9936134Y-16223984D01*
X9936134Y-16223984D02*
X9917087Y-16214460D01*
X9917087Y-16214460D02*
X9907563Y-16204936D01*
X9907563Y-16204936D02*
X9898039Y-16185888D01*
X9898039Y-16185888D02*
X9888515Y-16147793D01*
X9888515Y-16147793D02*
X9888515Y-16100174D01*
X9888515Y-16100174D02*
X9898039Y-16062079D01*
X9898039Y-16062079D02*
X9907563Y-16043031D01*
X9907563Y-16043031D02*
X9917087Y-16033508D01*
X9917087Y-16033508D02*
X9936134Y-16023984D01*
X10088515Y-16204936D02*
X10098039Y-16214460D01*
X10098039Y-16214460D02*
X10088515Y-16223984D01*
X10088515Y-16223984D02*
X10078991Y-16214460D01*
X10078991Y-16214460D02*
X10088515Y-16204936D01*
X10088515Y-16204936D02*
X10088515Y-16223984D01*
X10221848Y-16023984D02*
X10240896Y-16023984D01*
X10240896Y-16023984D02*
X10259944Y-16033508D01*
X10259944Y-16033508D02*
X10269468Y-16043031D01*
X10269468Y-16043031D02*
X10278991Y-16062079D01*
X10278991Y-16062079D02*
X10288515Y-16100174D01*
X10288515Y-16100174D02*
X10288515Y-16147793D01*
X10288515Y-16147793D02*
X10278991Y-16185888D01*
X10278991Y-16185888D02*
X10269468Y-16204936D01*
X10269468Y-16204936D02*
X10259944Y-16214460D01*
X10259944Y-16214460D02*
X10240896Y-16223984D01*
X10240896Y-16223984D02*
X10221848Y-16223984D01*
X10221848Y-16223984D02*
X10202801Y-16214460D01*
X10202801Y-16214460D02*
X10193277Y-16204936D01*
X10193277Y-16204936D02*
X10183753Y-16185888D01*
X10183753Y-16185888D02*
X10174229Y-16147793D01*
X10174229Y-16147793D02*
X10174229Y-16100174D01*
X10174229Y-16100174D02*
X10183753Y-16062079D01*
X10183753Y-16062079D02*
X10193277Y-16043031D01*
X10193277Y-16043031D02*
X10202801Y-16033508D01*
X10202801Y-16033508D02*
X10221848Y-16023984D01*
X10478991Y-16223984D02*
X10364706Y-16223984D01*
X10421848Y-16223984D02*
X10421848Y-16023984D01*
X10421848Y-16023984D02*
X10402801Y-16052555D01*
X10402801Y-16052555D02*
X10383753Y-16071603D01*
X10383753Y-16071603D02*
X10364706Y-16081127D01*
X10669468Y-16223984D02*
X10555182Y-16223984D01*
X10612325Y-16223984D02*
X10612325Y-16023984D01*
X10612325Y-16023984D02*
X10593277Y-16052555D01*
X10593277Y-16052555D02*
X10574229Y-16071603D01*
X10574229Y-16071603D02*
X10555182Y-16081127D01*
X10783753Y-16109698D02*
X10764706Y-16100174D01*
X10764706Y-16100174D02*
X10755182Y-16090650D01*
X10755182Y-16090650D02*
X10745658Y-16071603D01*
X10745658Y-16071603D02*
X10745658Y-16062079D01*
X10745658Y-16062079D02*
X10755182Y-16043031D01*
X10755182Y-16043031D02*
X10764706Y-16033508D01*
X10764706Y-16033508D02*
X10783753Y-16023984D01*
X10783753Y-16023984D02*
X10821849Y-16023984D01*
X10821849Y-16023984D02*
X10840896Y-16033508D01*
X10840896Y-16033508D02*
X10850420Y-16043031D01*
X10850420Y-16043031D02*
X10859944Y-16062079D01*
X10859944Y-16062079D02*
X10859944Y-16071603D01*
X10859944Y-16071603D02*
X10850420Y-16090650D01*
X10850420Y-16090650D02*
X10840896Y-16100174D01*
X10840896Y-16100174D02*
X10821849Y-16109698D01*
X10821849Y-16109698D02*
X10783753Y-16109698D01*
X10783753Y-16109698D02*
X10764706Y-16119222D01*
X10764706Y-16119222D02*
X10755182Y-16128746D01*
X10755182Y-16128746D02*
X10745658Y-16147793D01*
X10745658Y-16147793D02*
X10745658Y-16185888D01*
X10745658Y-16185888D02*
X10755182Y-16204936D01*
X10755182Y-16204936D02*
X10764706Y-16214460D01*
X10764706Y-16214460D02*
X10783753Y-16223984D01*
X10783753Y-16223984D02*
X10821849Y-16223984D01*
X10821849Y-16223984D02*
X10840896Y-16214460D01*
X10840896Y-16214460D02*
X10850420Y-16204936D01*
X10850420Y-16204936D02*
X10859944Y-16185888D01*
X10859944Y-16185888D02*
X10859944Y-16147793D01*
X10859944Y-16147793D02*
X10850420Y-16128746D01*
X10850420Y-16128746D02*
X10840896Y-16119222D01*
X10840896Y-16119222D02*
X10821849Y-16109698D01*
X10936134Y-16023984D02*
X10936134Y-16062079D01*
X11012325Y-16023984D02*
X11012325Y-16062079D01*
X11307563Y-16300174D02*
X11298039Y-16290650D01*
X11298039Y-16290650D02*
X11278991Y-16262079D01*
X11278991Y-16262079D02*
X11269468Y-16243031D01*
X11269468Y-16243031D02*
X11259944Y-16214460D01*
X11259944Y-16214460D02*
X11250420Y-16166841D01*
X11250420Y-16166841D02*
X11250420Y-16128746D01*
X11250420Y-16128746D02*
X11259944Y-16081127D01*
X11259944Y-16081127D02*
X11269468Y-16052555D01*
X11269468Y-16052555D02*
X11278991Y-16033508D01*
X11278991Y-16033508D02*
X11298039Y-16004936D01*
X11298039Y-16004936D02*
X11307563Y-15995412D01*
X11478991Y-16023984D02*
X11383753Y-16023984D01*
X11383753Y-16023984D02*
X11374229Y-16119222D01*
X11374229Y-16119222D02*
X11383753Y-16109698D01*
X11383753Y-16109698D02*
X11402801Y-16100174D01*
X11402801Y-16100174D02*
X11450420Y-16100174D01*
X11450420Y-16100174D02*
X11469468Y-16109698D01*
X11469468Y-16109698D02*
X11478991Y-16119222D01*
X11478991Y-16119222D02*
X11488515Y-16138269D01*
X11488515Y-16138269D02*
X11488515Y-16185888D01*
X11488515Y-16185888D02*
X11478991Y-16204936D01*
X11478991Y-16204936D02*
X11469468Y-16214460D01*
X11469468Y-16214460D02*
X11450420Y-16223984D01*
X11450420Y-16223984D02*
X11402801Y-16223984D01*
X11402801Y-16223984D02*
X11383753Y-16214460D01*
X11383753Y-16214460D02*
X11374229Y-16204936D01*
X11678991Y-16223984D02*
X11564706Y-16223984D01*
X11621848Y-16223984D02*
X11621848Y-16023984D01*
X11621848Y-16023984D02*
X11602801Y-16052555D01*
X11602801Y-16052555D02*
X11583753Y-16071603D01*
X11583753Y-16071603D02*
X11564706Y-16081127D01*
X11917087Y-16223984D02*
X11917087Y-16023984D01*
X12002801Y-16223984D02*
X12002801Y-16119222D01*
X12002801Y-16119222D02*
X11993277Y-16100174D01*
X11993277Y-16100174D02*
X11974230Y-16090650D01*
X11974230Y-16090650D02*
X11945658Y-16090650D01*
X11945658Y-16090650D02*
X11926610Y-16100174D01*
X11926610Y-16100174D02*
X11917087Y-16109698D01*
X12126610Y-16223984D02*
X12107563Y-16214460D01*
X12107563Y-16214460D02*
X12098039Y-16204936D01*
X12098039Y-16204936D02*
X12088515Y-16185888D01*
X12088515Y-16185888D02*
X12088515Y-16128746D01*
X12088515Y-16128746D02*
X12098039Y-16109698D01*
X12098039Y-16109698D02*
X12107563Y-16100174D01*
X12107563Y-16100174D02*
X12126610Y-16090650D01*
X12126610Y-16090650D02*
X12155182Y-16090650D01*
X12155182Y-16090650D02*
X12174230Y-16100174D01*
X12174230Y-16100174D02*
X12183753Y-16109698D01*
X12183753Y-16109698D02*
X12193277Y-16128746D01*
X12193277Y-16128746D02*
X12193277Y-16185888D01*
X12193277Y-16185888D02*
X12183753Y-16204936D01*
X12183753Y-16204936D02*
X12174230Y-16214460D01*
X12174230Y-16214460D02*
X12155182Y-16223984D01*
X12155182Y-16223984D02*
X12126610Y-16223984D01*
X12307563Y-16223984D02*
X12288515Y-16214460D01*
X12288515Y-16214460D02*
X12278991Y-16195412D01*
X12278991Y-16195412D02*
X12278991Y-16023984D01*
X12459944Y-16214460D02*
X12440896Y-16223984D01*
X12440896Y-16223984D02*
X12402801Y-16223984D01*
X12402801Y-16223984D02*
X12383753Y-16214460D01*
X12383753Y-16214460D02*
X12374230Y-16195412D01*
X12374230Y-16195412D02*
X12374230Y-16119222D01*
X12374230Y-16119222D02*
X12383753Y-16100174D01*
X12383753Y-16100174D02*
X12402801Y-16090650D01*
X12402801Y-16090650D02*
X12440896Y-16090650D01*
X12440896Y-16090650D02*
X12459944Y-16100174D01*
X12459944Y-16100174D02*
X12469468Y-16119222D01*
X12469468Y-16119222D02*
X12469468Y-16138269D01*
X12469468Y-16138269D02*
X12374230Y-16157317D01*
X12545658Y-16214460D02*
X12564706Y-16223984D01*
X12564706Y-16223984D02*
X12602801Y-16223984D01*
X12602801Y-16223984D02*
X12621849Y-16214460D01*
X12621849Y-16214460D02*
X12631372Y-16195412D01*
X12631372Y-16195412D02*
X12631372Y-16185888D01*
X12631372Y-16185888D02*
X12621849Y-16166841D01*
X12621849Y-16166841D02*
X12602801Y-16157317D01*
X12602801Y-16157317D02*
X12574230Y-16157317D01*
X12574230Y-16157317D02*
X12555182Y-16147793D01*
X12555182Y-16147793D02*
X12545658Y-16128746D01*
X12545658Y-16128746D02*
X12545658Y-16119222D01*
X12545658Y-16119222D02*
X12555182Y-16100174D01*
X12555182Y-16100174D02*
X12574230Y-16090650D01*
X12574230Y-16090650D02*
X12602801Y-16090650D01*
X12602801Y-16090650D02*
X12621849Y-16100174D01*
X12698039Y-16300174D02*
X12707563Y-16290650D01*
X12707563Y-16290650D02*
X12726611Y-16262079D01*
X12726611Y-16262079D02*
X12736134Y-16243031D01*
X12736134Y-16243031D02*
X12745658Y-16214460D01*
X12745658Y-16214460D02*
X12755182Y-16166841D01*
X12755182Y-16166841D02*
X12755182Y-16128746D01*
X12755182Y-16128746D02*
X12745658Y-16081127D01*
X12745658Y-16081127D02*
X12736134Y-16052555D01*
X12736134Y-16052555D02*
X12726611Y-16033508D01*
X12726611Y-16033508D02*
X12707563Y-16004936D01*
X12707563Y-16004936D02*
X12698039Y-15995412D01*
D12*
X7732500Y-16396500D02*
G75*
G02*
X7682500Y-16396500I-25000J0D01*
G01*
X7682500Y-16396500D02*
G75*
G02*
X7732500Y-16396500I25000J0D01*
G01*
D11*
X8031372Y-16287984D02*
X8050420Y-16287984D01*
X8050420Y-16287984D02*
X8069467Y-16297508D01*
X8069467Y-16297508D02*
X8078991Y-16307031D01*
X8078991Y-16307031D02*
X8088515Y-16326079D01*
X8088515Y-16326079D02*
X8098039Y-16364174D01*
X8098039Y-16364174D02*
X8098039Y-16411793D01*
X8098039Y-16411793D02*
X8088515Y-16449888D01*
X8088515Y-16449888D02*
X8078991Y-16468936D01*
X8078991Y-16468936D02*
X8069467Y-16478460D01*
X8069467Y-16478460D02*
X8050420Y-16487984D01*
X8050420Y-16487984D02*
X8031372Y-16487984D01*
X8031372Y-16487984D02*
X8012324Y-16478460D01*
X8012324Y-16478460D02*
X8002801Y-16468936D01*
X8002801Y-16468936D02*
X7993277Y-16449888D01*
X7993277Y-16449888D02*
X7983753Y-16411793D01*
X7983753Y-16411793D02*
X7983753Y-16364174D01*
X7983753Y-16364174D02*
X7993277Y-16326079D01*
X7993277Y-16326079D02*
X8002801Y-16307031D01*
X8002801Y-16307031D02*
X8012324Y-16297508D01*
X8012324Y-16297508D02*
X8031372Y-16287984D01*
X8183753Y-16468936D02*
X8193277Y-16478460D01*
X8193277Y-16478460D02*
X8183753Y-16487984D01*
X8183753Y-16487984D02*
X8174229Y-16478460D01*
X8174229Y-16478460D02*
X8183753Y-16468936D01*
X8183753Y-16468936D02*
X8183753Y-16487984D01*
X8374229Y-16287984D02*
X8278991Y-16287984D01*
X8278991Y-16287984D02*
X8269467Y-16383222D01*
X8269467Y-16383222D02*
X8278991Y-16373698D01*
X8278991Y-16373698D02*
X8298039Y-16364174D01*
X8298039Y-16364174D02*
X8345658Y-16364174D01*
X8345658Y-16364174D02*
X8364705Y-16373698D01*
X8364705Y-16373698D02*
X8374229Y-16383222D01*
X8374229Y-16383222D02*
X8383753Y-16402269D01*
X8383753Y-16402269D02*
X8383753Y-16449888D01*
X8383753Y-16449888D02*
X8374229Y-16468936D01*
X8374229Y-16468936D02*
X8364705Y-16478460D01*
X8364705Y-16478460D02*
X8345658Y-16487984D01*
X8345658Y-16487984D02*
X8298039Y-16487984D01*
X8298039Y-16487984D02*
X8278991Y-16478460D01*
X8278991Y-16478460D02*
X8269467Y-16468936D01*
X8507563Y-16287984D02*
X8526610Y-16287984D01*
X8526610Y-16287984D02*
X8545658Y-16297508D01*
X8545658Y-16297508D02*
X8555182Y-16307031D01*
X8555182Y-16307031D02*
X8564705Y-16326079D01*
X8564705Y-16326079D02*
X8574229Y-16364174D01*
X8574229Y-16364174D02*
X8574229Y-16411793D01*
X8574229Y-16411793D02*
X8564705Y-16449888D01*
X8564705Y-16449888D02*
X8555182Y-16468936D01*
X8555182Y-16468936D02*
X8545658Y-16478460D01*
X8545658Y-16478460D02*
X8526610Y-16487984D01*
X8526610Y-16487984D02*
X8507563Y-16487984D01*
X8507563Y-16487984D02*
X8488515Y-16478460D01*
X8488515Y-16478460D02*
X8478991Y-16468936D01*
X8478991Y-16468936D02*
X8469467Y-16449888D01*
X8469467Y-16449888D02*
X8459944Y-16411793D01*
X8459944Y-16411793D02*
X8459944Y-16364174D01*
X8459944Y-16364174D02*
X8469467Y-16326079D01*
X8469467Y-16326079D02*
X8478991Y-16307031D01*
X8478991Y-16307031D02*
X8488515Y-16297508D01*
X8488515Y-16297508D02*
X8507563Y-16287984D01*
X8698039Y-16287984D02*
X8717086Y-16287984D01*
X8717086Y-16287984D02*
X8736134Y-16297508D01*
X8736134Y-16297508D02*
X8745658Y-16307031D01*
X8745658Y-16307031D02*
X8755182Y-16326079D01*
X8755182Y-16326079D02*
X8764705Y-16364174D01*
X8764705Y-16364174D02*
X8764705Y-16411793D01*
X8764705Y-16411793D02*
X8755182Y-16449888D01*
X8755182Y-16449888D02*
X8745658Y-16468936D01*
X8745658Y-16468936D02*
X8736134Y-16478460D01*
X8736134Y-16478460D02*
X8717086Y-16487984D01*
X8717086Y-16487984D02*
X8698039Y-16487984D01*
X8698039Y-16487984D02*
X8678991Y-16478460D01*
X8678991Y-16478460D02*
X8669467Y-16468936D01*
X8669467Y-16468936D02*
X8659944Y-16449888D01*
X8659944Y-16449888D02*
X8650420Y-16411793D01*
X8650420Y-16411793D02*
X8650420Y-16364174D01*
X8650420Y-16364174D02*
X8659944Y-16326079D01*
X8659944Y-16326079D02*
X8669467Y-16307031D01*
X8669467Y-16307031D02*
X8678991Y-16297508D01*
X8678991Y-16297508D02*
X8698039Y-16287984D01*
X8850420Y-16487984D02*
X8850420Y-16354650D01*
X8850420Y-16373698D02*
X8859944Y-16364174D01*
X8859944Y-16364174D02*
X8878991Y-16354650D01*
X8878991Y-16354650D02*
X8907563Y-16354650D01*
X8907563Y-16354650D02*
X8926610Y-16364174D01*
X8926610Y-16364174D02*
X8936134Y-16383222D01*
X8936134Y-16383222D02*
X8936134Y-16487984D01*
X8936134Y-16383222D02*
X8945658Y-16364174D01*
X8945658Y-16364174D02*
X8964705Y-16354650D01*
X8964705Y-16354650D02*
X8993277Y-16354650D01*
X8993277Y-16354650D02*
X9012325Y-16364174D01*
X9012325Y-16364174D02*
X9021848Y-16383222D01*
X9021848Y-16383222D02*
X9021848Y-16487984D01*
X9117086Y-16487984D02*
X9117086Y-16354650D01*
X9117086Y-16373698D02*
X9126610Y-16364174D01*
X9126610Y-16364174D02*
X9145658Y-16354650D01*
X9145658Y-16354650D02*
X9174229Y-16354650D01*
X9174229Y-16354650D02*
X9193277Y-16364174D01*
X9193277Y-16364174D02*
X9202801Y-16383222D01*
X9202801Y-16383222D02*
X9202801Y-16487984D01*
X9202801Y-16383222D02*
X9212325Y-16364174D01*
X9212325Y-16364174D02*
X9231372Y-16354650D01*
X9231372Y-16354650D02*
X9259944Y-16354650D01*
X9259944Y-16354650D02*
X9278991Y-16364174D01*
X9278991Y-16364174D02*
X9288515Y-16383222D01*
X9288515Y-16383222D02*
X9288515Y-16487984D01*
X9678991Y-16278460D02*
X9507563Y-16535603D01*
X9936134Y-16287984D02*
X9955182Y-16287984D01*
X9955182Y-16287984D02*
X9974229Y-16297508D01*
X9974229Y-16297508D02*
X9983753Y-16307031D01*
X9983753Y-16307031D02*
X9993277Y-16326079D01*
X9993277Y-16326079D02*
X10002801Y-16364174D01*
X10002801Y-16364174D02*
X10002801Y-16411793D01*
X10002801Y-16411793D02*
X9993277Y-16449888D01*
X9993277Y-16449888D02*
X9983753Y-16468936D01*
X9983753Y-16468936D02*
X9974229Y-16478460D01*
X9974229Y-16478460D02*
X9955182Y-16487984D01*
X9955182Y-16487984D02*
X9936134Y-16487984D01*
X9936134Y-16487984D02*
X9917087Y-16478460D01*
X9917087Y-16478460D02*
X9907563Y-16468936D01*
X9907563Y-16468936D02*
X9898039Y-16449888D01*
X9898039Y-16449888D02*
X9888515Y-16411793D01*
X9888515Y-16411793D02*
X9888515Y-16364174D01*
X9888515Y-16364174D02*
X9898039Y-16326079D01*
X9898039Y-16326079D02*
X9907563Y-16307031D01*
X9907563Y-16307031D02*
X9917087Y-16297508D01*
X9917087Y-16297508D02*
X9936134Y-16287984D01*
X10088515Y-16468936D02*
X10098039Y-16478460D01*
X10098039Y-16478460D02*
X10088515Y-16487984D01*
X10088515Y-16487984D02*
X10078991Y-16478460D01*
X10078991Y-16478460D02*
X10088515Y-16468936D01*
X10088515Y-16468936D02*
X10088515Y-16487984D01*
X10221848Y-16287984D02*
X10240896Y-16287984D01*
X10240896Y-16287984D02*
X10259944Y-16297508D01*
X10259944Y-16297508D02*
X10269468Y-16307031D01*
X10269468Y-16307031D02*
X10278991Y-16326079D01*
X10278991Y-16326079D02*
X10288515Y-16364174D01*
X10288515Y-16364174D02*
X10288515Y-16411793D01*
X10288515Y-16411793D02*
X10278991Y-16449888D01*
X10278991Y-16449888D02*
X10269468Y-16468936D01*
X10269468Y-16468936D02*
X10259944Y-16478460D01*
X10259944Y-16478460D02*
X10240896Y-16487984D01*
X10240896Y-16487984D02*
X10221848Y-16487984D01*
X10221848Y-16487984D02*
X10202801Y-16478460D01*
X10202801Y-16478460D02*
X10193277Y-16468936D01*
X10193277Y-16468936D02*
X10183753Y-16449888D01*
X10183753Y-16449888D02*
X10174229Y-16411793D01*
X10174229Y-16411793D02*
X10174229Y-16364174D01*
X10174229Y-16364174D02*
X10183753Y-16326079D01*
X10183753Y-16326079D02*
X10193277Y-16307031D01*
X10193277Y-16307031D02*
X10202801Y-16297508D01*
X10202801Y-16297508D02*
X10221848Y-16287984D01*
X10478991Y-16487984D02*
X10364706Y-16487984D01*
X10421848Y-16487984D02*
X10421848Y-16287984D01*
X10421848Y-16287984D02*
X10402801Y-16316555D01*
X10402801Y-16316555D02*
X10383753Y-16335603D01*
X10383753Y-16335603D02*
X10364706Y-16345127D01*
X10574229Y-16487984D02*
X10612325Y-16487984D01*
X10612325Y-16487984D02*
X10631372Y-16478460D01*
X10631372Y-16478460D02*
X10640896Y-16468936D01*
X10640896Y-16468936D02*
X10659944Y-16440365D01*
X10659944Y-16440365D02*
X10669468Y-16402269D01*
X10669468Y-16402269D02*
X10669468Y-16326079D01*
X10669468Y-16326079D02*
X10659944Y-16307031D01*
X10659944Y-16307031D02*
X10650420Y-16297508D01*
X10650420Y-16297508D02*
X10631372Y-16287984D01*
X10631372Y-16287984D02*
X10593277Y-16287984D01*
X10593277Y-16287984D02*
X10574229Y-16297508D01*
X10574229Y-16297508D02*
X10564706Y-16307031D01*
X10564706Y-16307031D02*
X10555182Y-16326079D01*
X10555182Y-16326079D02*
X10555182Y-16373698D01*
X10555182Y-16373698D02*
X10564706Y-16392746D01*
X10564706Y-16392746D02*
X10574229Y-16402269D01*
X10574229Y-16402269D02*
X10593277Y-16411793D01*
X10593277Y-16411793D02*
X10631372Y-16411793D01*
X10631372Y-16411793D02*
X10650420Y-16402269D01*
X10650420Y-16402269D02*
X10659944Y-16392746D01*
X10659944Y-16392746D02*
X10669468Y-16373698D01*
X10736134Y-16287984D02*
X10869468Y-16287984D01*
X10869468Y-16287984D02*
X10783753Y-16487984D01*
X10936134Y-16287984D02*
X10936134Y-16326079D01*
X11012325Y-16287984D02*
X11012325Y-16326079D01*
X11307563Y-16564174D02*
X11298039Y-16554650D01*
X11298039Y-16554650D02*
X11278991Y-16526079D01*
X11278991Y-16526079D02*
X11269468Y-16507031D01*
X11269468Y-16507031D02*
X11259944Y-16478460D01*
X11259944Y-16478460D02*
X11250420Y-16430841D01*
X11250420Y-16430841D02*
X11250420Y-16392746D01*
X11250420Y-16392746D02*
X11259944Y-16345127D01*
X11259944Y-16345127D02*
X11269468Y-16316555D01*
X11269468Y-16316555D02*
X11278991Y-16297508D01*
X11278991Y-16297508D02*
X11298039Y-16268936D01*
X11298039Y-16268936D02*
X11307563Y-16259412D01*
X11478991Y-16287984D02*
X11383753Y-16287984D01*
X11383753Y-16287984D02*
X11374229Y-16383222D01*
X11374229Y-16383222D02*
X11383753Y-16373698D01*
X11383753Y-16373698D02*
X11402801Y-16364174D01*
X11402801Y-16364174D02*
X11450420Y-16364174D01*
X11450420Y-16364174D02*
X11469468Y-16373698D01*
X11469468Y-16373698D02*
X11478991Y-16383222D01*
X11478991Y-16383222D02*
X11488515Y-16402269D01*
X11488515Y-16402269D02*
X11488515Y-16449888D01*
X11488515Y-16449888D02*
X11478991Y-16468936D01*
X11478991Y-16468936D02*
X11469468Y-16478460D01*
X11469468Y-16478460D02*
X11450420Y-16487984D01*
X11450420Y-16487984D02*
X11402801Y-16487984D01*
X11402801Y-16487984D02*
X11383753Y-16478460D01*
X11383753Y-16478460D02*
X11374229Y-16468936D01*
X11678991Y-16487984D02*
X11564706Y-16487984D01*
X11621848Y-16487984D02*
X11621848Y-16287984D01*
X11621848Y-16287984D02*
X11602801Y-16316555D01*
X11602801Y-16316555D02*
X11583753Y-16335603D01*
X11583753Y-16335603D02*
X11564706Y-16345127D01*
X11917087Y-16487984D02*
X11917087Y-16287984D01*
X12002801Y-16487984D02*
X12002801Y-16383222D01*
X12002801Y-16383222D02*
X11993277Y-16364174D01*
X11993277Y-16364174D02*
X11974230Y-16354650D01*
X11974230Y-16354650D02*
X11945658Y-16354650D01*
X11945658Y-16354650D02*
X11926610Y-16364174D01*
X11926610Y-16364174D02*
X11917087Y-16373698D01*
X12126610Y-16487984D02*
X12107563Y-16478460D01*
X12107563Y-16478460D02*
X12098039Y-16468936D01*
X12098039Y-16468936D02*
X12088515Y-16449888D01*
X12088515Y-16449888D02*
X12088515Y-16392746D01*
X12088515Y-16392746D02*
X12098039Y-16373698D01*
X12098039Y-16373698D02*
X12107563Y-16364174D01*
X12107563Y-16364174D02*
X12126610Y-16354650D01*
X12126610Y-16354650D02*
X12155182Y-16354650D01*
X12155182Y-16354650D02*
X12174230Y-16364174D01*
X12174230Y-16364174D02*
X12183753Y-16373698D01*
X12183753Y-16373698D02*
X12193277Y-16392746D01*
X12193277Y-16392746D02*
X12193277Y-16449888D01*
X12193277Y-16449888D02*
X12183753Y-16468936D01*
X12183753Y-16468936D02*
X12174230Y-16478460D01*
X12174230Y-16478460D02*
X12155182Y-16487984D01*
X12155182Y-16487984D02*
X12126610Y-16487984D01*
X12307563Y-16487984D02*
X12288515Y-16478460D01*
X12288515Y-16478460D02*
X12278991Y-16459412D01*
X12278991Y-16459412D02*
X12278991Y-16287984D01*
X12459944Y-16478460D02*
X12440896Y-16487984D01*
X12440896Y-16487984D02*
X12402801Y-16487984D01*
X12402801Y-16487984D02*
X12383753Y-16478460D01*
X12383753Y-16478460D02*
X12374230Y-16459412D01*
X12374230Y-16459412D02*
X12374230Y-16383222D01*
X12374230Y-16383222D02*
X12383753Y-16364174D01*
X12383753Y-16364174D02*
X12402801Y-16354650D01*
X12402801Y-16354650D02*
X12440896Y-16354650D01*
X12440896Y-16354650D02*
X12459944Y-16364174D01*
X12459944Y-16364174D02*
X12469468Y-16383222D01*
X12469468Y-16383222D02*
X12469468Y-16402269D01*
X12469468Y-16402269D02*
X12374230Y-16421317D01*
X12545658Y-16478460D02*
X12564706Y-16487984D01*
X12564706Y-16487984D02*
X12602801Y-16487984D01*
X12602801Y-16487984D02*
X12621849Y-16478460D01*
X12621849Y-16478460D02*
X12631372Y-16459412D01*
X12631372Y-16459412D02*
X12631372Y-16449888D01*
X12631372Y-16449888D02*
X12621849Y-16430841D01*
X12621849Y-16430841D02*
X12602801Y-16421317D01*
X12602801Y-16421317D02*
X12574230Y-16421317D01*
X12574230Y-16421317D02*
X12555182Y-16411793D01*
X12555182Y-16411793D02*
X12545658Y-16392746D01*
X12545658Y-16392746D02*
X12545658Y-16383222D01*
X12545658Y-16383222D02*
X12555182Y-16364174D01*
X12555182Y-16364174D02*
X12574230Y-16354650D01*
X12574230Y-16354650D02*
X12602801Y-16354650D01*
X12602801Y-16354650D02*
X12621849Y-16364174D01*
X12698039Y-16564174D02*
X12707563Y-16554650D01*
X12707563Y-16554650D02*
X12726611Y-16526079D01*
X12726611Y-16526079D02*
X12736134Y-16507031D01*
X12736134Y-16507031D02*
X12745658Y-16478460D01*
X12745658Y-16478460D02*
X12755182Y-16430841D01*
X12755182Y-16430841D02*
X12755182Y-16392746D01*
X12755182Y-16392746D02*
X12745658Y-16345127D01*
X12745658Y-16345127D02*
X12736134Y-16316555D01*
X12736134Y-16316555D02*
X12726611Y-16297508D01*
X12726611Y-16297508D02*
X12707563Y-16268936D01*
X12707563Y-16268936D02*
X12698039Y-16259412D01*
D12*
X7692500Y-16620500D02*
X7692500Y-16700500D01*
X7652500Y-16660500D02*
X7732500Y-16660500D01*
D11*
X8031372Y-16551984D02*
X8050420Y-16551984D01*
X8050420Y-16551984D02*
X8069467Y-16561508D01*
X8069467Y-16561508D02*
X8078991Y-16571031D01*
X8078991Y-16571031D02*
X8088515Y-16590079D01*
X8088515Y-16590079D02*
X8098039Y-16628174D01*
X8098039Y-16628174D02*
X8098039Y-16675793D01*
X8098039Y-16675793D02*
X8088515Y-16713888D01*
X8088515Y-16713888D02*
X8078991Y-16732936D01*
X8078991Y-16732936D02*
X8069467Y-16742460D01*
X8069467Y-16742460D02*
X8050420Y-16751984D01*
X8050420Y-16751984D02*
X8031372Y-16751984D01*
X8031372Y-16751984D02*
X8012324Y-16742460D01*
X8012324Y-16742460D02*
X8002801Y-16732936D01*
X8002801Y-16732936D02*
X7993277Y-16713888D01*
X7993277Y-16713888D02*
X7983753Y-16675793D01*
X7983753Y-16675793D02*
X7983753Y-16628174D01*
X7983753Y-16628174D02*
X7993277Y-16590079D01*
X7993277Y-16590079D02*
X8002801Y-16571031D01*
X8002801Y-16571031D02*
X8012324Y-16561508D01*
X8012324Y-16561508D02*
X8031372Y-16551984D01*
X8183753Y-16732936D02*
X8193277Y-16742460D01*
X8193277Y-16742460D02*
X8183753Y-16751984D01*
X8183753Y-16751984D02*
X8174229Y-16742460D01*
X8174229Y-16742460D02*
X8183753Y-16732936D01*
X8183753Y-16732936D02*
X8183753Y-16751984D01*
X8307562Y-16637698D02*
X8288515Y-16628174D01*
X8288515Y-16628174D02*
X8278991Y-16618650D01*
X8278991Y-16618650D02*
X8269467Y-16599603D01*
X8269467Y-16599603D02*
X8269467Y-16590079D01*
X8269467Y-16590079D02*
X8278991Y-16571031D01*
X8278991Y-16571031D02*
X8288515Y-16561508D01*
X8288515Y-16561508D02*
X8307562Y-16551984D01*
X8307562Y-16551984D02*
X8345658Y-16551984D01*
X8345658Y-16551984D02*
X8364705Y-16561508D01*
X8364705Y-16561508D02*
X8374229Y-16571031D01*
X8374229Y-16571031D02*
X8383753Y-16590079D01*
X8383753Y-16590079D02*
X8383753Y-16599603D01*
X8383753Y-16599603D02*
X8374229Y-16618650D01*
X8374229Y-16618650D02*
X8364705Y-16628174D01*
X8364705Y-16628174D02*
X8345658Y-16637698D01*
X8345658Y-16637698D02*
X8307562Y-16637698D01*
X8307562Y-16637698D02*
X8288515Y-16647222D01*
X8288515Y-16647222D02*
X8278991Y-16656746D01*
X8278991Y-16656746D02*
X8269467Y-16675793D01*
X8269467Y-16675793D02*
X8269467Y-16713888D01*
X8269467Y-16713888D02*
X8278991Y-16732936D01*
X8278991Y-16732936D02*
X8288515Y-16742460D01*
X8288515Y-16742460D02*
X8307562Y-16751984D01*
X8307562Y-16751984D02*
X8345658Y-16751984D01*
X8345658Y-16751984D02*
X8364705Y-16742460D01*
X8364705Y-16742460D02*
X8374229Y-16732936D01*
X8374229Y-16732936D02*
X8383753Y-16713888D01*
X8383753Y-16713888D02*
X8383753Y-16675793D01*
X8383753Y-16675793D02*
X8374229Y-16656746D01*
X8374229Y-16656746D02*
X8364705Y-16647222D01*
X8364705Y-16647222D02*
X8345658Y-16637698D01*
X8507563Y-16551984D02*
X8526610Y-16551984D01*
X8526610Y-16551984D02*
X8545658Y-16561508D01*
X8545658Y-16561508D02*
X8555182Y-16571031D01*
X8555182Y-16571031D02*
X8564705Y-16590079D01*
X8564705Y-16590079D02*
X8574229Y-16628174D01*
X8574229Y-16628174D02*
X8574229Y-16675793D01*
X8574229Y-16675793D02*
X8564705Y-16713888D01*
X8564705Y-16713888D02*
X8555182Y-16732936D01*
X8555182Y-16732936D02*
X8545658Y-16742460D01*
X8545658Y-16742460D02*
X8526610Y-16751984D01*
X8526610Y-16751984D02*
X8507563Y-16751984D01*
X8507563Y-16751984D02*
X8488515Y-16742460D01*
X8488515Y-16742460D02*
X8478991Y-16732936D01*
X8478991Y-16732936D02*
X8469467Y-16713888D01*
X8469467Y-16713888D02*
X8459944Y-16675793D01*
X8459944Y-16675793D02*
X8459944Y-16628174D01*
X8459944Y-16628174D02*
X8469467Y-16590079D01*
X8469467Y-16590079D02*
X8478991Y-16571031D01*
X8478991Y-16571031D02*
X8488515Y-16561508D01*
X8488515Y-16561508D02*
X8507563Y-16551984D01*
X8698039Y-16551984D02*
X8717086Y-16551984D01*
X8717086Y-16551984D02*
X8736134Y-16561508D01*
X8736134Y-16561508D02*
X8745658Y-16571031D01*
X8745658Y-16571031D02*
X8755182Y-16590079D01*
X8755182Y-16590079D02*
X8764705Y-16628174D01*
X8764705Y-16628174D02*
X8764705Y-16675793D01*
X8764705Y-16675793D02*
X8755182Y-16713888D01*
X8755182Y-16713888D02*
X8745658Y-16732936D01*
X8745658Y-16732936D02*
X8736134Y-16742460D01*
X8736134Y-16742460D02*
X8717086Y-16751984D01*
X8717086Y-16751984D02*
X8698039Y-16751984D01*
X8698039Y-16751984D02*
X8678991Y-16742460D01*
X8678991Y-16742460D02*
X8669467Y-16732936D01*
X8669467Y-16732936D02*
X8659944Y-16713888D01*
X8659944Y-16713888D02*
X8650420Y-16675793D01*
X8650420Y-16675793D02*
X8650420Y-16628174D01*
X8650420Y-16628174D02*
X8659944Y-16590079D01*
X8659944Y-16590079D02*
X8669467Y-16571031D01*
X8669467Y-16571031D02*
X8678991Y-16561508D01*
X8678991Y-16561508D02*
X8698039Y-16551984D01*
X8850420Y-16751984D02*
X8850420Y-16618650D01*
X8850420Y-16637698D02*
X8859944Y-16628174D01*
X8859944Y-16628174D02*
X8878991Y-16618650D01*
X8878991Y-16618650D02*
X8907563Y-16618650D01*
X8907563Y-16618650D02*
X8926610Y-16628174D01*
X8926610Y-16628174D02*
X8936134Y-16647222D01*
X8936134Y-16647222D02*
X8936134Y-16751984D01*
X8936134Y-16647222D02*
X8945658Y-16628174D01*
X8945658Y-16628174D02*
X8964705Y-16618650D01*
X8964705Y-16618650D02*
X8993277Y-16618650D01*
X8993277Y-16618650D02*
X9012325Y-16628174D01*
X9012325Y-16628174D02*
X9021848Y-16647222D01*
X9021848Y-16647222D02*
X9021848Y-16751984D01*
X9117086Y-16751984D02*
X9117086Y-16618650D01*
X9117086Y-16637698D02*
X9126610Y-16628174D01*
X9126610Y-16628174D02*
X9145658Y-16618650D01*
X9145658Y-16618650D02*
X9174229Y-16618650D01*
X9174229Y-16618650D02*
X9193277Y-16628174D01*
X9193277Y-16628174D02*
X9202801Y-16647222D01*
X9202801Y-16647222D02*
X9202801Y-16751984D01*
X9202801Y-16647222D02*
X9212325Y-16628174D01*
X9212325Y-16628174D02*
X9231372Y-16618650D01*
X9231372Y-16618650D02*
X9259944Y-16618650D01*
X9259944Y-16618650D02*
X9278991Y-16628174D01*
X9278991Y-16628174D02*
X9288515Y-16647222D01*
X9288515Y-16647222D02*
X9288515Y-16751984D01*
X9678991Y-16542460D02*
X9507563Y-16799603D01*
X9936134Y-16551984D02*
X9955182Y-16551984D01*
X9955182Y-16551984D02*
X9974229Y-16561508D01*
X9974229Y-16561508D02*
X9983753Y-16571031D01*
X9983753Y-16571031D02*
X9993277Y-16590079D01*
X9993277Y-16590079D02*
X10002801Y-16628174D01*
X10002801Y-16628174D02*
X10002801Y-16675793D01*
X10002801Y-16675793D02*
X9993277Y-16713888D01*
X9993277Y-16713888D02*
X9983753Y-16732936D01*
X9983753Y-16732936D02*
X9974229Y-16742460D01*
X9974229Y-16742460D02*
X9955182Y-16751984D01*
X9955182Y-16751984D02*
X9936134Y-16751984D01*
X9936134Y-16751984D02*
X9917087Y-16742460D01*
X9917087Y-16742460D02*
X9907563Y-16732936D01*
X9907563Y-16732936D02*
X9898039Y-16713888D01*
X9898039Y-16713888D02*
X9888515Y-16675793D01*
X9888515Y-16675793D02*
X9888515Y-16628174D01*
X9888515Y-16628174D02*
X9898039Y-16590079D01*
X9898039Y-16590079D02*
X9907563Y-16571031D01*
X9907563Y-16571031D02*
X9917087Y-16561508D01*
X9917087Y-16561508D02*
X9936134Y-16551984D01*
X10088515Y-16732936D02*
X10098039Y-16742460D01*
X10098039Y-16742460D02*
X10088515Y-16751984D01*
X10088515Y-16751984D02*
X10078991Y-16742460D01*
X10078991Y-16742460D02*
X10088515Y-16732936D01*
X10088515Y-16732936D02*
X10088515Y-16751984D01*
X10221848Y-16551984D02*
X10240896Y-16551984D01*
X10240896Y-16551984D02*
X10259944Y-16561508D01*
X10259944Y-16561508D02*
X10269468Y-16571031D01*
X10269468Y-16571031D02*
X10278991Y-16590079D01*
X10278991Y-16590079D02*
X10288515Y-16628174D01*
X10288515Y-16628174D02*
X10288515Y-16675793D01*
X10288515Y-16675793D02*
X10278991Y-16713888D01*
X10278991Y-16713888D02*
X10269468Y-16732936D01*
X10269468Y-16732936D02*
X10259944Y-16742460D01*
X10259944Y-16742460D02*
X10240896Y-16751984D01*
X10240896Y-16751984D02*
X10221848Y-16751984D01*
X10221848Y-16751984D02*
X10202801Y-16742460D01*
X10202801Y-16742460D02*
X10193277Y-16732936D01*
X10193277Y-16732936D02*
X10183753Y-16713888D01*
X10183753Y-16713888D02*
X10174229Y-16675793D01*
X10174229Y-16675793D02*
X10174229Y-16628174D01*
X10174229Y-16628174D02*
X10183753Y-16590079D01*
X10183753Y-16590079D02*
X10193277Y-16571031D01*
X10193277Y-16571031D02*
X10202801Y-16561508D01*
X10202801Y-16561508D02*
X10221848Y-16551984D01*
X10355182Y-16551984D02*
X10478991Y-16551984D01*
X10478991Y-16551984D02*
X10412325Y-16628174D01*
X10412325Y-16628174D02*
X10440896Y-16628174D01*
X10440896Y-16628174D02*
X10459944Y-16637698D01*
X10459944Y-16637698D02*
X10469468Y-16647222D01*
X10469468Y-16647222D02*
X10478991Y-16666269D01*
X10478991Y-16666269D02*
X10478991Y-16713888D01*
X10478991Y-16713888D02*
X10469468Y-16732936D01*
X10469468Y-16732936D02*
X10459944Y-16742460D01*
X10459944Y-16742460D02*
X10440896Y-16751984D01*
X10440896Y-16751984D02*
X10383753Y-16751984D01*
X10383753Y-16751984D02*
X10364706Y-16742460D01*
X10364706Y-16742460D02*
X10355182Y-16732936D01*
X10669468Y-16751984D02*
X10555182Y-16751984D01*
X10612325Y-16751984D02*
X10612325Y-16551984D01*
X10612325Y-16551984D02*
X10593277Y-16580555D01*
X10593277Y-16580555D02*
X10574229Y-16599603D01*
X10574229Y-16599603D02*
X10555182Y-16609127D01*
X10850420Y-16551984D02*
X10755182Y-16551984D01*
X10755182Y-16551984D02*
X10745658Y-16647222D01*
X10745658Y-16647222D02*
X10755182Y-16637698D01*
X10755182Y-16637698D02*
X10774229Y-16628174D01*
X10774229Y-16628174D02*
X10821849Y-16628174D01*
X10821849Y-16628174D02*
X10840896Y-16637698D01*
X10840896Y-16637698D02*
X10850420Y-16647222D01*
X10850420Y-16647222D02*
X10859944Y-16666269D01*
X10859944Y-16666269D02*
X10859944Y-16713888D01*
X10859944Y-16713888D02*
X10850420Y-16732936D01*
X10850420Y-16732936D02*
X10840896Y-16742460D01*
X10840896Y-16742460D02*
X10821849Y-16751984D01*
X10821849Y-16751984D02*
X10774229Y-16751984D01*
X10774229Y-16751984D02*
X10755182Y-16742460D01*
X10755182Y-16742460D02*
X10745658Y-16732936D01*
X10936134Y-16551984D02*
X10936134Y-16590079D01*
X11012325Y-16551984D02*
X11012325Y-16590079D01*
X11307563Y-16828174D02*
X11298039Y-16818650D01*
X11298039Y-16818650D02*
X11278991Y-16790079D01*
X11278991Y-16790079D02*
X11269468Y-16771031D01*
X11269468Y-16771031D02*
X11259944Y-16742460D01*
X11259944Y-16742460D02*
X11250420Y-16694841D01*
X11250420Y-16694841D02*
X11250420Y-16656746D01*
X11250420Y-16656746D02*
X11259944Y-16609127D01*
X11259944Y-16609127D02*
X11269468Y-16580555D01*
X11269468Y-16580555D02*
X11278991Y-16561508D01*
X11278991Y-16561508D02*
X11298039Y-16532936D01*
X11298039Y-16532936D02*
X11307563Y-16523412D01*
X11469468Y-16618650D02*
X11469468Y-16751984D01*
X11421848Y-16542460D02*
X11374229Y-16685317D01*
X11374229Y-16685317D02*
X11498039Y-16685317D01*
X11726610Y-16751984D02*
X11726610Y-16551984D01*
X11812325Y-16751984D02*
X11812325Y-16647222D01*
X11812325Y-16647222D02*
X11802801Y-16628174D01*
X11802801Y-16628174D02*
X11783753Y-16618650D01*
X11783753Y-16618650D02*
X11755182Y-16618650D01*
X11755182Y-16618650D02*
X11736134Y-16628174D01*
X11736134Y-16628174D02*
X11726610Y-16637698D01*
X11936134Y-16751984D02*
X11917087Y-16742460D01*
X11917087Y-16742460D02*
X11907563Y-16732936D01*
X11907563Y-16732936D02*
X11898039Y-16713888D01*
X11898039Y-16713888D02*
X11898039Y-16656746D01*
X11898039Y-16656746D02*
X11907563Y-16637698D01*
X11907563Y-16637698D02*
X11917087Y-16628174D01*
X11917087Y-16628174D02*
X11936134Y-16618650D01*
X11936134Y-16618650D02*
X11964706Y-16618650D01*
X11964706Y-16618650D02*
X11983753Y-16628174D01*
X11983753Y-16628174D02*
X11993277Y-16637698D01*
X11993277Y-16637698D02*
X12002801Y-16656746D01*
X12002801Y-16656746D02*
X12002801Y-16713888D01*
X12002801Y-16713888D02*
X11993277Y-16732936D01*
X11993277Y-16732936D02*
X11983753Y-16742460D01*
X11983753Y-16742460D02*
X11964706Y-16751984D01*
X11964706Y-16751984D02*
X11936134Y-16751984D01*
X12117087Y-16751984D02*
X12098039Y-16742460D01*
X12098039Y-16742460D02*
X12088515Y-16723412D01*
X12088515Y-16723412D02*
X12088515Y-16551984D01*
X12269468Y-16742460D02*
X12250420Y-16751984D01*
X12250420Y-16751984D02*
X12212325Y-16751984D01*
X12212325Y-16751984D02*
X12193277Y-16742460D01*
X12193277Y-16742460D02*
X12183753Y-16723412D01*
X12183753Y-16723412D02*
X12183753Y-16647222D01*
X12183753Y-16647222D02*
X12193277Y-16628174D01*
X12193277Y-16628174D02*
X12212325Y-16618650D01*
X12212325Y-16618650D02*
X12250420Y-16618650D01*
X12250420Y-16618650D02*
X12269468Y-16628174D01*
X12269468Y-16628174D02*
X12278991Y-16647222D01*
X12278991Y-16647222D02*
X12278991Y-16666269D01*
X12278991Y-16666269D02*
X12183753Y-16685317D01*
X12355182Y-16742460D02*
X12374230Y-16751984D01*
X12374230Y-16751984D02*
X12412325Y-16751984D01*
X12412325Y-16751984D02*
X12431372Y-16742460D01*
X12431372Y-16742460D02*
X12440896Y-16723412D01*
X12440896Y-16723412D02*
X12440896Y-16713888D01*
X12440896Y-16713888D02*
X12431372Y-16694841D01*
X12431372Y-16694841D02*
X12412325Y-16685317D01*
X12412325Y-16685317D02*
X12383753Y-16685317D01*
X12383753Y-16685317D02*
X12364706Y-16675793D01*
X12364706Y-16675793D02*
X12355182Y-16656746D01*
X12355182Y-16656746D02*
X12355182Y-16647222D01*
X12355182Y-16647222D02*
X12364706Y-16628174D01*
X12364706Y-16628174D02*
X12383753Y-16618650D01*
X12383753Y-16618650D02*
X12412325Y-16618650D01*
X12412325Y-16618650D02*
X12431372Y-16628174D01*
X12507563Y-16828174D02*
X12517087Y-16818650D01*
X12517087Y-16818650D02*
X12536134Y-16790079D01*
X12536134Y-16790079D02*
X12545658Y-16771031D01*
X12545658Y-16771031D02*
X12555182Y-16742460D01*
X12555182Y-16742460D02*
X12564706Y-16694841D01*
X12564706Y-16694841D02*
X12564706Y-16656746D01*
X12564706Y-16656746D02*
X12555182Y-16609127D01*
X12555182Y-16609127D02*
X12545658Y-16580555D01*
X12545658Y-16580555D02*
X12536134Y-16561508D01*
X12536134Y-16561508D02*
X12517087Y-16532936D01*
X12517087Y-16532936D02*
X12507563Y-16523412D01*
D12*
X7719320Y-16956320D02*
X7719320Y-16892680D01*
X7655680Y-16892680D01*
X7655680Y-16956320D01*
X7719320Y-16956320D01*
D11*
X8031372Y-16815984D02*
X8050420Y-16815984D01*
X8050420Y-16815984D02*
X8069467Y-16825508D01*
X8069467Y-16825508D02*
X8078991Y-16835031D01*
X8078991Y-16835031D02*
X8088515Y-16854079D01*
X8088515Y-16854079D02*
X8098039Y-16892174D01*
X8098039Y-16892174D02*
X8098039Y-16939793D01*
X8098039Y-16939793D02*
X8088515Y-16977889D01*
X8088515Y-16977889D02*
X8078991Y-16996936D01*
X8078991Y-16996936D02*
X8069467Y-17006460D01*
X8069467Y-17006460D02*
X8050420Y-17015984D01*
X8050420Y-17015984D02*
X8031372Y-17015984D01*
X8031372Y-17015984D02*
X8012324Y-17006460D01*
X8012324Y-17006460D02*
X8002801Y-16996936D01*
X8002801Y-16996936D02*
X7993277Y-16977889D01*
X7993277Y-16977889D02*
X7983753Y-16939793D01*
X7983753Y-16939793D02*
X7983753Y-16892174D01*
X7983753Y-16892174D02*
X7993277Y-16854079D01*
X7993277Y-16854079D02*
X8002801Y-16835031D01*
X8002801Y-16835031D02*
X8012324Y-16825508D01*
X8012324Y-16825508D02*
X8031372Y-16815984D01*
X8183753Y-16996936D02*
X8193277Y-17006460D01*
X8193277Y-17006460D02*
X8183753Y-17015984D01*
X8183753Y-17015984D02*
X8174229Y-17006460D01*
X8174229Y-17006460D02*
X8183753Y-16996936D01*
X8183753Y-16996936D02*
X8183753Y-17015984D01*
X8288515Y-17015984D02*
X8326610Y-17015984D01*
X8326610Y-17015984D02*
X8345658Y-17006460D01*
X8345658Y-17006460D02*
X8355182Y-16996936D01*
X8355182Y-16996936D02*
X8374229Y-16968365D01*
X8374229Y-16968365D02*
X8383753Y-16930270D01*
X8383753Y-16930270D02*
X8383753Y-16854079D01*
X8383753Y-16854079D02*
X8374229Y-16835031D01*
X8374229Y-16835031D02*
X8364705Y-16825508D01*
X8364705Y-16825508D02*
X8345658Y-16815984D01*
X8345658Y-16815984D02*
X8307562Y-16815984D01*
X8307562Y-16815984D02*
X8288515Y-16825508D01*
X8288515Y-16825508D02*
X8278991Y-16835031D01*
X8278991Y-16835031D02*
X8269467Y-16854079D01*
X8269467Y-16854079D02*
X8269467Y-16901698D01*
X8269467Y-16901698D02*
X8278991Y-16920746D01*
X8278991Y-16920746D02*
X8288515Y-16930270D01*
X8288515Y-16930270D02*
X8307562Y-16939793D01*
X8307562Y-16939793D02*
X8345658Y-16939793D01*
X8345658Y-16939793D02*
X8364705Y-16930270D01*
X8364705Y-16930270D02*
X8374229Y-16920746D01*
X8374229Y-16920746D02*
X8383753Y-16901698D01*
X8507563Y-16815984D02*
X8526610Y-16815984D01*
X8526610Y-16815984D02*
X8545658Y-16825508D01*
X8545658Y-16825508D02*
X8555182Y-16835031D01*
X8555182Y-16835031D02*
X8564705Y-16854079D01*
X8564705Y-16854079D02*
X8574229Y-16892174D01*
X8574229Y-16892174D02*
X8574229Y-16939793D01*
X8574229Y-16939793D02*
X8564705Y-16977889D01*
X8564705Y-16977889D02*
X8555182Y-16996936D01*
X8555182Y-16996936D02*
X8545658Y-17006460D01*
X8545658Y-17006460D02*
X8526610Y-17015984D01*
X8526610Y-17015984D02*
X8507563Y-17015984D01*
X8507563Y-17015984D02*
X8488515Y-17006460D01*
X8488515Y-17006460D02*
X8478991Y-16996936D01*
X8478991Y-16996936D02*
X8469467Y-16977889D01*
X8469467Y-16977889D02*
X8459944Y-16939793D01*
X8459944Y-16939793D02*
X8459944Y-16892174D01*
X8459944Y-16892174D02*
X8469467Y-16854079D01*
X8469467Y-16854079D02*
X8478991Y-16835031D01*
X8478991Y-16835031D02*
X8488515Y-16825508D01*
X8488515Y-16825508D02*
X8507563Y-16815984D01*
X8698039Y-16815984D02*
X8717086Y-16815984D01*
X8717086Y-16815984D02*
X8736134Y-16825508D01*
X8736134Y-16825508D02*
X8745658Y-16835031D01*
X8745658Y-16835031D02*
X8755182Y-16854079D01*
X8755182Y-16854079D02*
X8764705Y-16892174D01*
X8764705Y-16892174D02*
X8764705Y-16939793D01*
X8764705Y-16939793D02*
X8755182Y-16977889D01*
X8755182Y-16977889D02*
X8745658Y-16996936D01*
X8745658Y-16996936D02*
X8736134Y-17006460D01*
X8736134Y-17006460D02*
X8717086Y-17015984D01*
X8717086Y-17015984D02*
X8698039Y-17015984D01*
X8698039Y-17015984D02*
X8678991Y-17006460D01*
X8678991Y-17006460D02*
X8669467Y-16996936D01*
X8669467Y-16996936D02*
X8659944Y-16977889D01*
X8659944Y-16977889D02*
X8650420Y-16939793D01*
X8650420Y-16939793D02*
X8650420Y-16892174D01*
X8650420Y-16892174D02*
X8659944Y-16854079D01*
X8659944Y-16854079D02*
X8669467Y-16835031D01*
X8669467Y-16835031D02*
X8678991Y-16825508D01*
X8678991Y-16825508D02*
X8698039Y-16815984D01*
X8850420Y-17015984D02*
X8850420Y-16882650D01*
X8850420Y-16901698D02*
X8859944Y-16892174D01*
X8859944Y-16892174D02*
X8878991Y-16882650D01*
X8878991Y-16882650D02*
X8907563Y-16882650D01*
X8907563Y-16882650D02*
X8926610Y-16892174D01*
X8926610Y-16892174D02*
X8936134Y-16911222D01*
X8936134Y-16911222D02*
X8936134Y-17015984D01*
X8936134Y-16911222D02*
X8945658Y-16892174D01*
X8945658Y-16892174D02*
X8964705Y-16882650D01*
X8964705Y-16882650D02*
X8993277Y-16882650D01*
X8993277Y-16882650D02*
X9012325Y-16892174D01*
X9012325Y-16892174D02*
X9021848Y-16911222D01*
X9021848Y-16911222D02*
X9021848Y-17015984D01*
X9117086Y-17015984D02*
X9117086Y-16882650D01*
X9117086Y-16901698D02*
X9126610Y-16892174D01*
X9126610Y-16892174D02*
X9145658Y-16882650D01*
X9145658Y-16882650D02*
X9174229Y-16882650D01*
X9174229Y-16882650D02*
X9193277Y-16892174D01*
X9193277Y-16892174D02*
X9202801Y-16911222D01*
X9202801Y-16911222D02*
X9202801Y-17015984D01*
X9202801Y-16911222D02*
X9212325Y-16892174D01*
X9212325Y-16892174D02*
X9231372Y-16882650D01*
X9231372Y-16882650D02*
X9259944Y-16882650D01*
X9259944Y-16882650D02*
X9278991Y-16892174D01*
X9278991Y-16892174D02*
X9288515Y-16911222D01*
X9288515Y-16911222D02*
X9288515Y-17015984D01*
X9678991Y-16806460D02*
X9507563Y-17063603D01*
X9936134Y-16815984D02*
X9955182Y-16815984D01*
X9955182Y-16815984D02*
X9974229Y-16825508D01*
X9974229Y-16825508D02*
X9983753Y-16835031D01*
X9983753Y-16835031D02*
X9993277Y-16854079D01*
X9993277Y-16854079D02*
X10002801Y-16892174D01*
X10002801Y-16892174D02*
X10002801Y-16939793D01*
X10002801Y-16939793D02*
X9993277Y-16977889D01*
X9993277Y-16977889D02*
X9983753Y-16996936D01*
X9983753Y-16996936D02*
X9974229Y-17006460D01*
X9974229Y-17006460D02*
X9955182Y-17015984D01*
X9955182Y-17015984D02*
X9936134Y-17015984D01*
X9936134Y-17015984D02*
X9917087Y-17006460D01*
X9917087Y-17006460D02*
X9907563Y-16996936D01*
X9907563Y-16996936D02*
X9898039Y-16977889D01*
X9898039Y-16977889D02*
X9888515Y-16939793D01*
X9888515Y-16939793D02*
X9888515Y-16892174D01*
X9888515Y-16892174D02*
X9898039Y-16854079D01*
X9898039Y-16854079D02*
X9907563Y-16835031D01*
X9907563Y-16835031D02*
X9917087Y-16825508D01*
X9917087Y-16825508D02*
X9936134Y-16815984D01*
X10088515Y-16996936D02*
X10098039Y-17006460D01*
X10098039Y-17006460D02*
X10088515Y-17015984D01*
X10088515Y-17015984D02*
X10078991Y-17006460D01*
X10078991Y-17006460D02*
X10088515Y-16996936D01*
X10088515Y-16996936D02*
X10088515Y-17015984D01*
X10221848Y-16815984D02*
X10240896Y-16815984D01*
X10240896Y-16815984D02*
X10259944Y-16825508D01*
X10259944Y-16825508D02*
X10269468Y-16835031D01*
X10269468Y-16835031D02*
X10278991Y-16854079D01*
X10278991Y-16854079D02*
X10288515Y-16892174D01*
X10288515Y-16892174D02*
X10288515Y-16939793D01*
X10288515Y-16939793D02*
X10278991Y-16977889D01*
X10278991Y-16977889D02*
X10269468Y-16996936D01*
X10269468Y-16996936D02*
X10259944Y-17006460D01*
X10259944Y-17006460D02*
X10240896Y-17015984D01*
X10240896Y-17015984D02*
X10221848Y-17015984D01*
X10221848Y-17015984D02*
X10202801Y-17006460D01*
X10202801Y-17006460D02*
X10193277Y-16996936D01*
X10193277Y-16996936D02*
X10183753Y-16977889D01*
X10183753Y-16977889D02*
X10174229Y-16939793D01*
X10174229Y-16939793D02*
X10174229Y-16892174D01*
X10174229Y-16892174D02*
X10183753Y-16854079D01*
X10183753Y-16854079D02*
X10193277Y-16835031D01*
X10193277Y-16835031D02*
X10202801Y-16825508D01*
X10202801Y-16825508D02*
X10221848Y-16815984D01*
X10355182Y-16815984D02*
X10478991Y-16815984D01*
X10478991Y-16815984D02*
X10412325Y-16892174D01*
X10412325Y-16892174D02*
X10440896Y-16892174D01*
X10440896Y-16892174D02*
X10459944Y-16901698D01*
X10459944Y-16901698D02*
X10469468Y-16911222D01*
X10469468Y-16911222D02*
X10478991Y-16930270D01*
X10478991Y-16930270D02*
X10478991Y-16977889D01*
X10478991Y-16977889D02*
X10469468Y-16996936D01*
X10469468Y-16996936D02*
X10459944Y-17006460D01*
X10459944Y-17006460D02*
X10440896Y-17015984D01*
X10440896Y-17015984D02*
X10383753Y-17015984D01*
X10383753Y-17015984D02*
X10364706Y-17006460D01*
X10364706Y-17006460D02*
X10355182Y-16996936D01*
X10659944Y-16815984D02*
X10564706Y-16815984D01*
X10564706Y-16815984D02*
X10555182Y-16911222D01*
X10555182Y-16911222D02*
X10564706Y-16901698D01*
X10564706Y-16901698D02*
X10583753Y-16892174D01*
X10583753Y-16892174D02*
X10631372Y-16892174D01*
X10631372Y-16892174D02*
X10650420Y-16901698D01*
X10650420Y-16901698D02*
X10659944Y-16911222D01*
X10659944Y-16911222D02*
X10669468Y-16930270D01*
X10669468Y-16930270D02*
X10669468Y-16977889D01*
X10669468Y-16977889D02*
X10659944Y-16996936D01*
X10659944Y-16996936D02*
X10650420Y-17006460D01*
X10650420Y-17006460D02*
X10631372Y-17015984D01*
X10631372Y-17015984D02*
X10583753Y-17015984D01*
X10583753Y-17015984D02*
X10564706Y-17006460D01*
X10564706Y-17006460D02*
X10555182Y-16996936D01*
X10840896Y-16882650D02*
X10840896Y-17015984D01*
X10793277Y-16806460D02*
X10745658Y-16949317D01*
X10745658Y-16949317D02*
X10869468Y-16949317D01*
X10936134Y-16815984D02*
X10936134Y-16854079D01*
X11012325Y-16815984D02*
X11012325Y-16854079D01*
X11307563Y-17092174D02*
X11298039Y-17082650D01*
X11298039Y-17082650D02*
X11278991Y-17054079D01*
X11278991Y-17054079D02*
X11269468Y-17035031D01*
X11269468Y-17035031D02*
X11259944Y-17006460D01*
X11259944Y-17006460D02*
X11250420Y-16958841D01*
X11250420Y-16958841D02*
X11250420Y-16920746D01*
X11250420Y-16920746D02*
X11259944Y-16873127D01*
X11259944Y-16873127D02*
X11269468Y-16844555D01*
X11269468Y-16844555D02*
X11278991Y-16825508D01*
X11278991Y-16825508D02*
X11298039Y-16796936D01*
X11298039Y-16796936D02*
X11307563Y-16787412D01*
X11469468Y-16882650D02*
X11469468Y-17015984D01*
X11421848Y-16806460D02*
X11374229Y-16949317D01*
X11374229Y-16949317D02*
X11498039Y-16949317D01*
X11726610Y-17015984D02*
X11726610Y-16815984D01*
X11812325Y-17015984D02*
X11812325Y-16911222D01*
X11812325Y-16911222D02*
X11802801Y-16892174D01*
X11802801Y-16892174D02*
X11783753Y-16882650D01*
X11783753Y-16882650D02*
X11755182Y-16882650D01*
X11755182Y-16882650D02*
X11736134Y-16892174D01*
X11736134Y-16892174D02*
X11726610Y-16901698D01*
X11936134Y-17015984D02*
X11917087Y-17006460D01*
X11917087Y-17006460D02*
X11907563Y-16996936D01*
X11907563Y-16996936D02*
X11898039Y-16977889D01*
X11898039Y-16977889D02*
X11898039Y-16920746D01*
X11898039Y-16920746D02*
X11907563Y-16901698D01*
X11907563Y-16901698D02*
X11917087Y-16892174D01*
X11917087Y-16892174D02*
X11936134Y-16882650D01*
X11936134Y-16882650D02*
X11964706Y-16882650D01*
X11964706Y-16882650D02*
X11983753Y-16892174D01*
X11983753Y-16892174D02*
X11993277Y-16901698D01*
X11993277Y-16901698D02*
X12002801Y-16920746D01*
X12002801Y-16920746D02*
X12002801Y-16977889D01*
X12002801Y-16977889D02*
X11993277Y-16996936D01*
X11993277Y-16996936D02*
X11983753Y-17006460D01*
X11983753Y-17006460D02*
X11964706Y-17015984D01*
X11964706Y-17015984D02*
X11936134Y-17015984D01*
X12117087Y-17015984D02*
X12098039Y-17006460D01*
X12098039Y-17006460D02*
X12088515Y-16987412D01*
X12088515Y-16987412D02*
X12088515Y-16815984D01*
X12269468Y-17006460D02*
X12250420Y-17015984D01*
X12250420Y-17015984D02*
X12212325Y-17015984D01*
X12212325Y-17015984D02*
X12193277Y-17006460D01*
X12193277Y-17006460D02*
X12183753Y-16987412D01*
X12183753Y-16987412D02*
X12183753Y-16911222D01*
X12183753Y-16911222D02*
X12193277Y-16892174D01*
X12193277Y-16892174D02*
X12212325Y-16882650D01*
X12212325Y-16882650D02*
X12250420Y-16882650D01*
X12250420Y-16882650D02*
X12269468Y-16892174D01*
X12269468Y-16892174D02*
X12278991Y-16911222D01*
X12278991Y-16911222D02*
X12278991Y-16930270D01*
X12278991Y-16930270D02*
X12183753Y-16949317D01*
X12355182Y-17006460D02*
X12374230Y-17015984D01*
X12374230Y-17015984D02*
X12412325Y-17015984D01*
X12412325Y-17015984D02*
X12431372Y-17006460D01*
X12431372Y-17006460D02*
X12440896Y-16987412D01*
X12440896Y-16987412D02*
X12440896Y-16977889D01*
X12440896Y-16977889D02*
X12431372Y-16958841D01*
X12431372Y-16958841D02*
X12412325Y-16949317D01*
X12412325Y-16949317D02*
X12383753Y-16949317D01*
X12383753Y-16949317D02*
X12364706Y-16939793D01*
X12364706Y-16939793D02*
X12355182Y-16920746D01*
X12355182Y-16920746D02*
X12355182Y-16911222D01*
X12355182Y-16911222D02*
X12364706Y-16892174D01*
X12364706Y-16892174D02*
X12383753Y-16882650D01*
X12383753Y-16882650D02*
X12412325Y-16882650D01*
X12412325Y-16882650D02*
X12431372Y-16892174D01*
X12507563Y-17092174D02*
X12517087Y-17082650D01*
X12517087Y-17082650D02*
X12536134Y-17054079D01*
X12536134Y-17054079D02*
X12545658Y-17035031D01*
X12545658Y-17035031D02*
X12555182Y-17006460D01*
X12555182Y-17006460D02*
X12564706Y-16958841D01*
X12564706Y-16958841D02*
X12564706Y-16920746D01*
X12564706Y-16920746D02*
X12555182Y-16873127D01*
X12555182Y-16873127D02*
X12545658Y-16844555D01*
X12545658Y-16844555D02*
X12536134Y-16825508D01*
X12536134Y-16825508D02*
X12517087Y-16796936D01*
X12517087Y-16796936D02*
X12507563Y-16787412D01*
D12*
X7682500Y-17238500D02*
X7732500Y-17188500D01*
X7682500Y-17138500D01*
X7632500Y-17188500D01*
X7682500Y-17238500D01*
D11*
X8098039Y-17279984D02*
X7983753Y-17279984D01*
X8040896Y-17279984D02*
X8040896Y-17079984D01*
X8040896Y-17079984D02*
X8021848Y-17108555D01*
X8021848Y-17108555D02*
X8002801Y-17127603D01*
X8002801Y-17127603D02*
X7983753Y-17137127D01*
X8183753Y-17260936D02*
X8193277Y-17270460D01*
X8193277Y-17270460D02*
X8183753Y-17279984D01*
X8183753Y-17279984D02*
X8174229Y-17270460D01*
X8174229Y-17270460D02*
X8183753Y-17260936D01*
X8183753Y-17260936D02*
X8183753Y-17279984D01*
X8317086Y-17079984D02*
X8336134Y-17079984D01*
X8336134Y-17079984D02*
X8355182Y-17089508D01*
X8355182Y-17089508D02*
X8364705Y-17099031D01*
X8364705Y-17099031D02*
X8374229Y-17118079D01*
X8374229Y-17118079D02*
X8383753Y-17156174D01*
X8383753Y-17156174D02*
X8383753Y-17203793D01*
X8383753Y-17203793D02*
X8374229Y-17241889D01*
X8374229Y-17241889D02*
X8364705Y-17260936D01*
X8364705Y-17260936D02*
X8355182Y-17270460D01*
X8355182Y-17270460D02*
X8336134Y-17279984D01*
X8336134Y-17279984D02*
X8317086Y-17279984D01*
X8317086Y-17279984D02*
X8298039Y-17270460D01*
X8298039Y-17270460D02*
X8288515Y-17260936D01*
X8288515Y-17260936D02*
X8278991Y-17241889D01*
X8278991Y-17241889D02*
X8269467Y-17203793D01*
X8269467Y-17203793D02*
X8269467Y-17156174D01*
X8269467Y-17156174D02*
X8278991Y-17118079D01*
X8278991Y-17118079D02*
X8288515Y-17099031D01*
X8288515Y-17099031D02*
X8298039Y-17089508D01*
X8298039Y-17089508D02*
X8317086Y-17079984D01*
X8507563Y-17079984D02*
X8526610Y-17079984D01*
X8526610Y-17079984D02*
X8545658Y-17089508D01*
X8545658Y-17089508D02*
X8555182Y-17099031D01*
X8555182Y-17099031D02*
X8564705Y-17118079D01*
X8564705Y-17118079D02*
X8574229Y-17156174D01*
X8574229Y-17156174D02*
X8574229Y-17203793D01*
X8574229Y-17203793D02*
X8564705Y-17241889D01*
X8564705Y-17241889D02*
X8555182Y-17260936D01*
X8555182Y-17260936D02*
X8545658Y-17270460D01*
X8545658Y-17270460D02*
X8526610Y-17279984D01*
X8526610Y-17279984D02*
X8507563Y-17279984D01*
X8507563Y-17279984D02*
X8488515Y-17270460D01*
X8488515Y-17270460D02*
X8478991Y-17260936D01*
X8478991Y-17260936D02*
X8469467Y-17241889D01*
X8469467Y-17241889D02*
X8459944Y-17203793D01*
X8459944Y-17203793D02*
X8459944Y-17156174D01*
X8459944Y-17156174D02*
X8469467Y-17118079D01*
X8469467Y-17118079D02*
X8478991Y-17099031D01*
X8478991Y-17099031D02*
X8488515Y-17089508D01*
X8488515Y-17089508D02*
X8507563Y-17079984D01*
X8698039Y-17079984D02*
X8717086Y-17079984D01*
X8717086Y-17079984D02*
X8736134Y-17089508D01*
X8736134Y-17089508D02*
X8745658Y-17099031D01*
X8745658Y-17099031D02*
X8755182Y-17118079D01*
X8755182Y-17118079D02*
X8764705Y-17156174D01*
X8764705Y-17156174D02*
X8764705Y-17203793D01*
X8764705Y-17203793D02*
X8755182Y-17241889D01*
X8755182Y-17241889D02*
X8745658Y-17260936D01*
X8745658Y-17260936D02*
X8736134Y-17270460D01*
X8736134Y-17270460D02*
X8717086Y-17279984D01*
X8717086Y-17279984D02*
X8698039Y-17279984D01*
X8698039Y-17279984D02*
X8678991Y-17270460D01*
X8678991Y-17270460D02*
X8669467Y-17260936D01*
X8669467Y-17260936D02*
X8659944Y-17241889D01*
X8659944Y-17241889D02*
X8650420Y-17203793D01*
X8650420Y-17203793D02*
X8650420Y-17156174D01*
X8650420Y-17156174D02*
X8659944Y-17118079D01*
X8659944Y-17118079D02*
X8669467Y-17099031D01*
X8669467Y-17099031D02*
X8678991Y-17089508D01*
X8678991Y-17089508D02*
X8698039Y-17079984D01*
X8850420Y-17279984D02*
X8850420Y-17146650D01*
X8850420Y-17165698D02*
X8859944Y-17156174D01*
X8859944Y-17156174D02*
X8878991Y-17146650D01*
X8878991Y-17146650D02*
X8907563Y-17146650D01*
X8907563Y-17146650D02*
X8926610Y-17156174D01*
X8926610Y-17156174D02*
X8936134Y-17175222D01*
X8936134Y-17175222D02*
X8936134Y-17279984D01*
X8936134Y-17175222D02*
X8945658Y-17156174D01*
X8945658Y-17156174D02*
X8964705Y-17146650D01*
X8964705Y-17146650D02*
X8993277Y-17146650D01*
X8993277Y-17146650D02*
X9012325Y-17156174D01*
X9012325Y-17156174D02*
X9021848Y-17175222D01*
X9021848Y-17175222D02*
X9021848Y-17279984D01*
X9117086Y-17279984D02*
X9117086Y-17146650D01*
X9117086Y-17165698D02*
X9126610Y-17156174D01*
X9126610Y-17156174D02*
X9145658Y-17146650D01*
X9145658Y-17146650D02*
X9174229Y-17146650D01*
X9174229Y-17146650D02*
X9193277Y-17156174D01*
X9193277Y-17156174D02*
X9202801Y-17175222D01*
X9202801Y-17175222D02*
X9202801Y-17279984D01*
X9202801Y-17175222D02*
X9212325Y-17156174D01*
X9212325Y-17156174D02*
X9231372Y-17146650D01*
X9231372Y-17146650D02*
X9259944Y-17146650D01*
X9259944Y-17146650D02*
X9278991Y-17156174D01*
X9278991Y-17156174D02*
X9288515Y-17175222D01*
X9288515Y-17175222D02*
X9288515Y-17279984D01*
X9678991Y-17070460D02*
X9507563Y-17327603D01*
X9936134Y-17079984D02*
X9955182Y-17079984D01*
X9955182Y-17079984D02*
X9974229Y-17089508D01*
X9974229Y-17089508D02*
X9983753Y-17099031D01*
X9983753Y-17099031D02*
X9993277Y-17118079D01*
X9993277Y-17118079D02*
X10002801Y-17156174D01*
X10002801Y-17156174D02*
X10002801Y-17203793D01*
X10002801Y-17203793D02*
X9993277Y-17241889D01*
X9993277Y-17241889D02*
X9983753Y-17260936D01*
X9983753Y-17260936D02*
X9974229Y-17270460D01*
X9974229Y-17270460D02*
X9955182Y-17279984D01*
X9955182Y-17279984D02*
X9936134Y-17279984D01*
X9936134Y-17279984D02*
X9917087Y-17270460D01*
X9917087Y-17270460D02*
X9907563Y-17260936D01*
X9907563Y-17260936D02*
X9898039Y-17241889D01*
X9898039Y-17241889D02*
X9888515Y-17203793D01*
X9888515Y-17203793D02*
X9888515Y-17156174D01*
X9888515Y-17156174D02*
X9898039Y-17118079D01*
X9898039Y-17118079D02*
X9907563Y-17099031D01*
X9907563Y-17099031D02*
X9917087Y-17089508D01*
X9917087Y-17089508D02*
X9936134Y-17079984D01*
X10088515Y-17260936D02*
X10098039Y-17270460D01*
X10098039Y-17270460D02*
X10088515Y-17279984D01*
X10088515Y-17279984D02*
X10078991Y-17270460D01*
X10078991Y-17270460D02*
X10088515Y-17260936D01*
X10088515Y-17260936D02*
X10088515Y-17279984D01*
X10221848Y-17079984D02*
X10240896Y-17079984D01*
X10240896Y-17079984D02*
X10259944Y-17089508D01*
X10259944Y-17089508D02*
X10269468Y-17099031D01*
X10269468Y-17099031D02*
X10278991Y-17118079D01*
X10278991Y-17118079D02*
X10288515Y-17156174D01*
X10288515Y-17156174D02*
X10288515Y-17203793D01*
X10288515Y-17203793D02*
X10278991Y-17241889D01*
X10278991Y-17241889D02*
X10269468Y-17260936D01*
X10269468Y-17260936D02*
X10259944Y-17270460D01*
X10259944Y-17270460D02*
X10240896Y-17279984D01*
X10240896Y-17279984D02*
X10221848Y-17279984D01*
X10221848Y-17279984D02*
X10202801Y-17270460D01*
X10202801Y-17270460D02*
X10193277Y-17260936D01*
X10193277Y-17260936D02*
X10183753Y-17241889D01*
X10183753Y-17241889D02*
X10174229Y-17203793D01*
X10174229Y-17203793D02*
X10174229Y-17156174D01*
X10174229Y-17156174D02*
X10183753Y-17118079D01*
X10183753Y-17118079D02*
X10193277Y-17099031D01*
X10193277Y-17099031D02*
X10202801Y-17089508D01*
X10202801Y-17089508D02*
X10221848Y-17079984D01*
X10355182Y-17079984D02*
X10478991Y-17079984D01*
X10478991Y-17079984D02*
X10412325Y-17156174D01*
X10412325Y-17156174D02*
X10440896Y-17156174D01*
X10440896Y-17156174D02*
X10459944Y-17165698D01*
X10459944Y-17165698D02*
X10469468Y-17175222D01*
X10469468Y-17175222D02*
X10478991Y-17194270D01*
X10478991Y-17194270D02*
X10478991Y-17241889D01*
X10478991Y-17241889D02*
X10469468Y-17260936D01*
X10469468Y-17260936D02*
X10459944Y-17270460D01*
X10459944Y-17270460D02*
X10440896Y-17279984D01*
X10440896Y-17279984D02*
X10383753Y-17279984D01*
X10383753Y-17279984D02*
X10364706Y-17270460D01*
X10364706Y-17270460D02*
X10355182Y-17260936D01*
X10574229Y-17279984D02*
X10612325Y-17279984D01*
X10612325Y-17279984D02*
X10631372Y-17270460D01*
X10631372Y-17270460D02*
X10640896Y-17260936D01*
X10640896Y-17260936D02*
X10659944Y-17232365D01*
X10659944Y-17232365D02*
X10669468Y-17194270D01*
X10669468Y-17194270D02*
X10669468Y-17118079D01*
X10669468Y-17118079D02*
X10659944Y-17099031D01*
X10659944Y-17099031D02*
X10650420Y-17089508D01*
X10650420Y-17089508D02*
X10631372Y-17079984D01*
X10631372Y-17079984D02*
X10593277Y-17079984D01*
X10593277Y-17079984D02*
X10574229Y-17089508D01*
X10574229Y-17089508D02*
X10564706Y-17099031D01*
X10564706Y-17099031D02*
X10555182Y-17118079D01*
X10555182Y-17118079D02*
X10555182Y-17165698D01*
X10555182Y-17165698D02*
X10564706Y-17184746D01*
X10564706Y-17184746D02*
X10574229Y-17194270D01*
X10574229Y-17194270D02*
X10593277Y-17203793D01*
X10593277Y-17203793D02*
X10631372Y-17203793D01*
X10631372Y-17203793D02*
X10650420Y-17194270D01*
X10650420Y-17194270D02*
X10659944Y-17184746D01*
X10659944Y-17184746D02*
X10669468Y-17165698D01*
X10840896Y-17146650D02*
X10840896Y-17279984D01*
X10793277Y-17070460D02*
X10745658Y-17213317D01*
X10745658Y-17213317D02*
X10869468Y-17213317D01*
X10936134Y-17079984D02*
X10936134Y-17118079D01*
X11012325Y-17079984D02*
X11012325Y-17118079D01*
X11307563Y-17356174D02*
X11298039Y-17346650D01*
X11298039Y-17346650D02*
X11278991Y-17318079D01*
X11278991Y-17318079D02*
X11269468Y-17299031D01*
X11269468Y-17299031D02*
X11259944Y-17270460D01*
X11259944Y-17270460D02*
X11250420Y-17222841D01*
X11250420Y-17222841D02*
X11250420Y-17184746D01*
X11250420Y-17184746D02*
X11259944Y-17137127D01*
X11259944Y-17137127D02*
X11269468Y-17108555D01*
X11269468Y-17108555D02*
X11278991Y-17089508D01*
X11278991Y-17089508D02*
X11298039Y-17060936D01*
X11298039Y-17060936D02*
X11307563Y-17051412D01*
X11469468Y-17146650D02*
X11469468Y-17279984D01*
X11421848Y-17070460D02*
X11374229Y-17213317D01*
X11374229Y-17213317D02*
X11498039Y-17213317D01*
X11555182Y-17079984D02*
X11678991Y-17079984D01*
X11678991Y-17079984D02*
X11612325Y-17156174D01*
X11612325Y-17156174D02*
X11640896Y-17156174D01*
X11640896Y-17156174D02*
X11659944Y-17165698D01*
X11659944Y-17165698D02*
X11669468Y-17175222D01*
X11669468Y-17175222D02*
X11678991Y-17194270D01*
X11678991Y-17194270D02*
X11678991Y-17241889D01*
X11678991Y-17241889D02*
X11669468Y-17260936D01*
X11669468Y-17260936D02*
X11659944Y-17270460D01*
X11659944Y-17270460D02*
X11640896Y-17279984D01*
X11640896Y-17279984D02*
X11583753Y-17279984D01*
X11583753Y-17279984D02*
X11564706Y-17270460D01*
X11564706Y-17270460D02*
X11555182Y-17260936D01*
X11917087Y-17279984D02*
X11917087Y-17079984D01*
X12002801Y-17279984D02*
X12002801Y-17175222D01*
X12002801Y-17175222D02*
X11993277Y-17156174D01*
X11993277Y-17156174D02*
X11974230Y-17146650D01*
X11974230Y-17146650D02*
X11945658Y-17146650D01*
X11945658Y-17146650D02*
X11926610Y-17156174D01*
X11926610Y-17156174D02*
X11917087Y-17165698D01*
X12126610Y-17279984D02*
X12107563Y-17270460D01*
X12107563Y-17270460D02*
X12098039Y-17260936D01*
X12098039Y-17260936D02*
X12088515Y-17241889D01*
X12088515Y-17241889D02*
X12088515Y-17184746D01*
X12088515Y-17184746D02*
X12098039Y-17165698D01*
X12098039Y-17165698D02*
X12107563Y-17156174D01*
X12107563Y-17156174D02*
X12126610Y-17146650D01*
X12126610Y-17146650D02*
X12155182Y-17146650D01*
X12155182Y-17146650D02*
X12174230Y-17156174D01*
X12174230Y-17156174D02*
X12183753Y-17165698D01*
X12183753Y-17165698D02*
X12193277Y-17184746D01*
X12193277Y-17184746D02*
X12193277Y-17241889D01*
X12193277Y-17241889D02*
X12183753Y-17260936D01*
X12183753Y-17260936D02*
X12174230Y-17270460D01*
X12174230Y-17270460D02*
X12155182Y-17279984D01*
X12155182Y-17279984D02*
X12126610Y-17279984D01*
X12307563Y-17279984D02*
X12288515Y-17270460D01*
X12288515Y-17270460D02*
X12278991Y-17251412D01*
X12278991Y-17251412D02*
X12278991Y-17079984D01*
X12459944Y-17270460D02*
X12440896Y-17279984D01*
X12440896Y-17279984D02*
X12402801Y-17279984D01*
X12402801Y-17279984D02*
X12383753Y-17270460D01*
X12383753Y-17270460D02*
X12374230Y-17251412D01*
X12374230Y-17251412D02*
X12374230Y-17175222D01*
X12374230Y-17175222D02*
X12383753Y-17156174D01*
X12383753Y-17156174D02*
X12402801Y-17146650D01*
X12402801Y-17146650D02*
X12440896Y-17146650D01*
X12440896Y-17146650D02*
X12459944Y-17156174D01*
X12459944Y-17156174D02*
X12469468Y-17175222D01*
X12469468Y-17175222D02*
X12469468Y-17194270D01*
X12469468Y-17194270D02*
X12374230Y-17213317D01*
X12545658Y-17270460D02*
X12564706Y-17279984D01*
X12564706Y-17279984D02*
X12602801Y-17279984D01*
X12602801Y-17279984D02*
X12621849Y-17270460D01*
X12621849Y-17270460D02*
X12631372Y-17251412D01*
X12631372Y-17251412D02*
X12631372Y-17241889D01*
X12631372Y-17241889D02*
X12621849Y-17222841D01*
X12621849Y-17222841D02*
X12602801Y-17213317D01*
X12602801Y-17213317D02*
X12574230Y-17213317D01*
X12574230Y-17213317D02*
X12555182Y-17203793D01*
X12555182Y-17203793D02*
X12545658Y-17184746D01*
X12545658Y-17184746D02*
X12545658Y-17175222D01*
X12545658Y-17175222D02*
X12555182Y-17156174D01*
X12555182Y-17156174D02*
X12574230Y-17146650D01*
X12574230Y-17146650D02*
X12602801Y-17146650D01*
X12602801Y-17146650D02*
X12621849Y-17156174D01*
X12698039Y-17356174D02*
X12707563Y-17346650D01*
X12707563Y-17346650D02*
X12726611Y-17318079D01*
X12726611Y-17318079D02*
X12736134Y-17299031D01*
X12736134Y-17299031D02*
X12745658Y-17270460D01*
X12745658Y-17270460D02*
X12755182Y-17222841D01*
X12755182Y-17222841D02*
X12755182Y-17184746D01*
X12755182Y-17184746D02*
X12745658Y-17137127D01*
X12745658Y-17137127D02*
X12736134Y-17108555D01*
X12736134Y-17108555D02*
X12726611Y-17089508D01*
X12726611Y-17089508D02*
X12707563Y-17060936D01*
X12707563Y-17060936D02*
X12698039Y-17051412D01*
D13*
X7612500Y-17392500D02*
X7732500Y-17512500D01*
X7732500Y-17392500D02*
X7612500Y-17512500D01*
X7732500Y-17452500D02*
G75*
G02*
X7612500Y-17452500I-60000J0D01*
G01*
X7612500Y-17452500D02*
G75*
G02*
X7732500Y-17452500I60000J0D01*
G01*
D11*
X8098039Y-17543984D02*
X7983753Y-17543984D01*
X8040896Y-17543984D02*
X8040896Y-17343984D01*
X8040896Y-17343984D02*
X8021848Y-17372555D01*
X8021848Y-17372555D02*
X8002801Y-17391603D01*
X8002801Y-17391603D02*
X7983753Y-17401127D01*
X8183753Y-17524936D02*
X8193277Y-17534460D01*
X8193277Y-17534460D02*
X8183753Y-17543984D01*
X8183753Y-17543984D02*
X8174229Y-17534460D01*
X8174229Y-17534460D02*
X8183753Y-17524936D01*
X8183753Y-17524936D02*
X8183753Y-17543984D01*
X8269467Y-17363031D02*
X8278991Y-17353508D01*
X8278991Y-17353508D02*
X8298039Y-17343984D01*
X8298039Y-17343984D02*
X8345658Y-17343984D01*
X8345658Y-17343984D02*
X8364705Y-17353508D01*
X8364705Y-17353508D02*
X8374229Y-17363031D01*
X8374229Y-17363031D02*
X8383753Y-17382079D01*
X8383753Y-17382079D02*
X8383753Y-17401127D01*
X8383753Y-17401127D02*
X8374229Y-17429698D01*
X8374229Y-17429698D02*
X8259943Y-17543984D01*
X8259943Y-17543984D02*
X8383753Y-17543984D01*
X8507563Y-17343984D02*
X8526610Y-17343984D01*
X8526610Y-17343984D02*
X8545658Y-17353508D01*
X8545658Y-17353508D02*
X8555182Y-17363031D01*
X8555182Y-17363031D02*
X8564705Y-17382079D01*
X8564705Y-17382079D02*
X8574229Y-17420174D01*
X8574229Y-17420174D02*
X8574229Y-17467793D01*
X8574229Y-17467793D02*
X8564705Y-17505889D01*
X8564705Y-17505889D02*
X8555182Y-17524936D01*
X8555182Y-17524936D02*
X8545658Y-17534460D01*
X8545658Y-17534460D02*
X8526610Y-17543984D01*
X8526610Y-17543984D02*
X8507563Y-17543984D01*
X8507563Y-17543984D02*
X8488515Y-17534460D01*
X8488515Y-17534460D02*
X8478991Y-17524936D01*
X8478991Y-17524936D02*
X8469467Y-17505889D01*
X8469467Y-17505889D02*
X8459944Y-17467793D01*
X8459944Y-17467793D02*
X8459944Y-17420174D01*
X8459944Y-17420174D02*
X8469467Y-17382079D01*
X8469467Y-17382079D02*
X8478991Y-17363031D01*
X8478991Y-17363031D02*
X8488515Y-17353508D01*
X8488515Y-17353508D02*
X8507563Y-17343984D01*
X8698039Y-17343984D02*
X8717086Y-17343984D01*
X8717086Y-17343984D02*
X8736134Y-17353508D01*
X8736134Y-17353508D02*
X8745658Y-17363031D01*
X8745658Y-17363031D02*
X8755182Y-17382079D01*
X8755182Y-17382079D02*
X8764705Y-17420174D01*
X8764705Y-17420174D02*
X8764705Y-17467793D01*
X8764705Y-17467793D02*
X8755182Y-17505889D01*
X8755182Y-17505889D02*
X8745658Y-17524936D01*
X8745658Y-17524936D02*
X8736134Y-17534460D01*
X8736134Y-17534460D02*
X8717086Y-17543984D01*
X8717086Y-17543984D02*
X8698039Y-17543984D01*
X8698039Y-17543984D02*
X8678991Y-17534460D01*
X8678991Y-17534460D02*
X8669467Y-17524936D01*
X8669467Y-17524936D02*
X8659944Y-17505889D01*
X8659944Y-17505889D02*
X8650420Y-17467793D01*
X8650420Y-17467793D02*
X8650420Y-17420174D01*
X8650420Y-17420174D02*
X8659944Y-17382079D01*
X8659944Y-17382079D02*
X8669467Y-17363031D01*
X8669467Y-17363031D02*
X8678991Y-17353508D01*
X8678991Y-17353508D02*
X8698039Y-17343984D01*
X8850420Y-17543984D02*
X8850420Y-17410650D01*
X8850420Y-17429698D02*
X8859944Y-17420174D01*
X8859944Y-17420174D02*
X8878991Y-17410650D01*
X8878991Y-17410650D02*
X8907563Y-17410650D01*
X8907563Y-17410650D02*
X8926610Y-17420174D01*
X8926610Y-17420174D02*
X8936134Y-17439222D01*
X8936134Y-17439222D02*
X8936134Y-17543984D01*
X8936134Y-17439222D02*
X8945658Y-17420174D01*
X8945658Y-17420174D02*
X8964705Y-17410650D01*
X8964705Y-17410650D02*
X8993277Y-17410650D01*
X8993277Y-17410650D02*
X9012325Y-17420174D01*
X9012325Y-17420174D02*
X9021848Y-17439222D01*
X9021848Y-17439222D02*
X9021848Y-17543984D01*
X9117086Y-17543984D02*
X9117086Y-17410650D01*
X9117086Y-17429698D02*
X9126610Y-17420174D01*
X9126610Y-17420174D02*
X9145658Y-17410650D01*
X9145658Y-17410650D02*
X9174229Y-17410650D01*
X9174229Y-17410650D02*
X9193277Y-17420174D01*
X9193277Y-17420174D02*
X9202801Y-17439222D01*
X9202801Y-17439222D02*
X9202801Y-17543984D01*
X9202801Y-17439222D02*
X9212325Y-17420174D01*
X9212325Y-17420174D02*
X9231372Y-17410650D01*
X9231372Y-17410650D02*
X9259944Y-17410650D01*
X9259944Y-17410650D02*
X9278991Y-17420174D01*
X9278991Y-17420174D02*
X9288515Y-17439222D01*
X9288515Y-17439222D02*
X9288515Y-17543984D01*
X9678991Y-17334460D02*
X9507563Y-17591603D01*
X9936134Y-17343984D02*
X9955182Y-17343984D01*
X9955182Y-17343984D02*
X9974229Y-17353508D01*
X9974229Y-17353508D02*
X9983753Y-17363031D01*
X9983753Y-17363031D02*
X9993277Y-17382079D01*
X9993277Y-17382079D02*
X10002801Y-17420174D01*
X10002801Y-17420174D02*
X10002801Y-17467793D01*
X10002801Y-17467793D02*
X9993277Y-17505889D01*
X9993277Y-17505889D02*
X9983753Y-17524936D01*
X9983753Y-17524936D02*
X9974229Y-17534460D01*
X9974229Y-17534460D02*
X9955182Y-17543984D01*
X9955182Y-17543984D02*
X9936134Y-17543984D01*
X9936134Y-17543984D02*
X9917087Y-17534460D01*
X9917087Y-17534460D02*
X9907563Y-17524936D01*
X9907563Y-17524936D02*
X9898039Y-17505889D01*
X9898039Y-17505889D02*
X9888515Y-17467793D01*
X9888515Y-17467793D02*
X9888515Y-17420174D01*
X9888515Y-17420174D02*
X9898039Y-17382079D01*
X9898039Y-17382079D02*
X9907563Y-17363031D01*
X9907563Y-17363031D02*
X9917087Y-17353508D01*
X9917087Y-17353508D02*
X9936134Y-17343984D01*
X10088515Y-17524936D02*
X10098039Y-17534460D01*
X10098039Y-17534460D02*
X10088515Y-17543984D01*
X10088515Y-17543984D02*
X10078991Y-17534460D01*
X10078991Y-17534460D02*
X10088515Y-17524936D01*
X10088515Y-17524936D02*
X10088515Y-17543984D01*
X10221848Y-17343984D02*
X10240896Y-17343984D01*
X10240896Y-17343984D02*
X10259944Y-17353508D01*
X10259944Y-17353508D02*
X10269468Y-17363031D01*
X10269468Y-17363031D02*
X10278991Y-17382079D01*
X10278991Y-17382079D02*
X10288515Y-17420174D01*
X10288515Y-17420174D02*
X10288515Y-17467793D01*
X10288515Y-17467793D02*
X10278991Y-17505889D01*
X10278991Y-17505889D02*
X10269468Y-17524936D01*
X10269468Y-17524936D02*
X10259944Y-17534460D01*
X10259944Y-17534460D02*
X10240896Y-17543984D01*
X10240896Y-17543984D02*
X10221848Y-17543984D01*
X10221848Y-17543984D02*
X10202801Y-17534460D01*
X10202801Y-17534460D02*
X10193277Y-17524936D01*
X10193277Y-17524936D02*
X10183753Y-17505889D01*
X10183753Y-17505889D02*
X10174229Y-17467793D01*
X10174229Y-17467793D02*
X10174229Y-17420174D01*
X10174229Y-17420174D02*
X10183753Y-17382079D01*
X10183753Y-17382079D02*
X10193277Y-17363031D01*
X10193277Y-17363031D02*
X10202801Y-17353508D01*
X10202801Y-17353508D02*
X10221848Y-17343984D01*
X10459944Y-17410650D02*
X10459944Y-17543984D01*
X10412325Y-17334460D02*
X10364706Y-17477317D01*
X10364706Y-17477317D02*
X10488515Y-17477317D01*
X10545658Y-17343984D02*
X10678991Y-17343984D01*
X10678991Y-17343984D02*
X10593277Y-17543984D01*
X10745658Y-17363031D02*
X10755182Y-17353508D01*
X10755182Y-17353508D02*
X10774229Y-17343984D01*
X10774229Y-17343984D02*
X10821849Y-17343984D01*
X10821849Y-17343984D02*
X10840896Y-17353508D01*
X10840896Y-17353508D02*
X10850420Y-17363031D01*
X10850420Y-17363031D02*
X10859944Y-17382079D01*
X10859944Y-17382079D02*
X10859944Y-17401127D01*
X10859944Y-17401127D02*
X10850420Y-17429698D01*
X10850420Y-17429698D02*
X10736134Y-17543984D01*
X10736134Y-17543984D02*
X10859944Y-17543984D01*
X10936134Y-17343984D02*
X10936134Y-17382079D01*
X11012325Y-17343984D02*
X11012325Y-17382079D01*
X11307563Y-17620174D02*
X11298039Y-17610650D01*
X11298039Y-17610650D02*
X11278991Y-17582079D01*
X11278991Y-17582079D02*
X11269468Y-17563031D01*
X11269468Y-17563031D02*
X11259944Y-17534460D01*
X11259944Y-17534460D02*
X11250420Y-17486841D01*
X11250420Y-17486841D02*
X11250420Y-17448746D01*
X11250420Y-17448746D02*
X11259944Y-17401127D01*
X11259944Y-17401127D02*
X11269468Y-17372555D01*
X11269468Y-17372555D02*
X11278991Y-17353508D01*
X11278991Y-17353508D02*
X11298039Y-17324936D01*
X11298039Y-17324936D02*
X11307563Y-17315412D01*
X11374229Y-17363031D02*
X11383753Y-17353508D01*
X11383753Y-17353508D02*
X11402801Y-17343984D01*
X11402801Y-17343984D02*
X11450420Y-17343984D01*
X11450420Y-17343984D02*
X11469468Y-17353508D01*
X11469468Y-17353508D02*
X11478991Y-17363031D01*
X11478991Y-17363031D02*
X11488515Y-17382079D01*
X11488515Y-17382079D02*
X11488515Y-17401127D01*
X11488515Y-17401127D02*
X11478991Y-17429698D01*
X11478991Y-17429698D02*
X11364706Y-17543984D01*
X11364706Y-17543984D02*
X11488515Y-17543984D01*
X11726610Y-17543984D02*
X11726610Y-17343984D01*
X11812325Y-17543984D02*
X11812325Y-17439222D01*
X11812325Y-17439222D02*
X11802801Y-17420174D01*
X11802801Y-17420174D02*
X11783753Y-17410650D01*
X11783753Y-17410650D02*
X11755182Y-17410650D01*
X11755182Y-17410650D02*
X11736134Y-17420174D01*
X11736134Y-17420174D02*
X11726610Y-17429698D01*
X11936134Y-17543984D02*
X11917087Y-17534460D01*
X11917087Y-17534460D02*
X11907563Y-17524936D01*
X11907563Y-17524936D02*
X11898039Y-17505889D01*
X11898039Y-17505889D02*
X11898039Y-17448746D01*
X11898039Y-17448746D02*
X11907563Y-17429698D01*
X11907563Y-17429698D02*
X11917087Y-17420174D01*
X11917087Y-17420174D02*
X11936134Y-17410650D01*
X11936134Y-17410650D02*
X11964706Y-17410650D01*
X11964706Y-17410650D02*
X11983753Y-17420174D01*
X11983753Y-17420174D02*
X11993277Y-17429698D01*
X11993277Y-17429698D02*
X12002801Y-17448746D01*
X12002801Y-17448746D02*
X12002801Y-17505889D01*
X12002801Y-17505889D02*
X11993277Y-17524936D01*
X11993277Y-17524936D02*
X11983753Y-17534460D01*
X11983753Y-17534460D02*
X11964706Y-17543984D01*
X11964706Y-17543984D02*
X11936134Y-17543984D01*
X12117087Y-17543984D02*
X12098039Y-17534460D01*
X12098039Y-17534460D02*
X12088515Y-17515412D01*
X12088515Y-17515412D02*
X12088515Y-17343984D01*
X12269468Y-17534460D02*
X12250420Y-17543984D01*
X12250420Y-17543984D02*
X12212325Y-17543984D01*
X12212325Y-17543984D02*
X12193277Y-17534460D01*
X12193277Y-17534460D02*
X12183753Y-17515412D01*
X12183753Y-17515412D02*
X12183753Y-17439222D01*
X12183753Y-17439222D02*
X12193277Y-17420174D01*
X12193277Y-17420174D02*
X12212325Y-17410650D01*
X12212325Y-17410650D02*
X12250420Y-17410650D01*
X12250420Y-17410650D02*
X12269468Y-17420174D01*
X12269468Y-17420174D02*
X12278991Y-17439222D01*
X12278991Y-17439222D02*
X12278991Y-17458270D01*
X12278991Y-17458270D02*
X12183753Y-17477317D01*
X12355182Y-17534460D02*
X12374230Y-17543984D01*
X12374230Y-17543984D02*
X12412325Y-17543984D01*
X12412325Y-17543984D02*
X12431372Y-17534460D01*
X12431372Y-17534460D02*
X12440896Y-17515412D01*
X12440896Y-17515412D02*
X12440896Y-17505889D01*
X12440896Y-17505889D02*
X12431372Y-17486841D01*
X12431372Y-17486841D02*
X12412325Y-17477317D01*
X12412325Y-17477317D02*
X12383753Y-17477317D01*
X12383753Y-17477317D02*
X12364706Y-17467793D01*
X12364706Y-17467793D02*
X12355182Y-17448746D01*
X12355182Y-17448746D02*
X12355182Y-17439222D01*
X12355182Y-17439222D02*
X12364706Y-17420174D01*
X12364706Y-17420174D02*
X12383753Y-17410650D01*
X12383753Y-17410650D02*
X12412325Y-17410650D01*
X12412325Y-17410650D02*
X12431372Y-17420174D01*
X12507563Y-17620174D02*
X12517087Y-17610650D01*
X12517087Y-17610650D02*
X12536134Y-17582079D01*
X12536134Y-17582079D02*
X12545658Y-17563031D01*
X12545658Y-17563031D02*
X12555182Y-17534460D01*
X12555182Y-17534460D02*
X12564706Y-17486841D01*
X12564706Y-17486841D02*
X12564706Y-17448746D01*
X12564706Y-17448746D02*
X12555182Y-17401127D01*
X12555182Y-17401127D02*
X12545658Y-17372555D01*
X12545658Y-17372555D02*
X12536134Y-17353508D01*
X12536134Y-17353508D02*
X12517087Y-17324936D01*
X12517087Y-17324936D02*
X12507563Y-17315412D01*
X7532500Y-17616500D02*
X7732500Y-17816500D01*
X7732500Y-17616500D02*
X7532500Y-17816500D01*
X7632500Y-17616500D02*
X7632500Y-17816500D01*
X7532500Y-17716500D02*
X7732500Y-17716500D01*
X7983753Y-17627031D02*
X7993277Y-17617508D01*
X7993277Y-17617508D02*
X8012324Y-17607984D01*
X8012324Y-17607984D02*
X8059943Y-17607984D01*
X8059943Y-17607984D02*
X8078991Y-17617508D01*
X8078991Y-17617508D02*
X8088515Y-17627031D01*
X8088515Y-17627031D02*
X8098039Y-17646079D01*
X8098039Y-17646079D02*
X8098039Y-17665127D01*
X8098039Y-17665127D02*
X8088515Y-17693698D01*
X8088515Y-17693698D02*
X7974229Y-17807984D01*
X7974229Y-17807984D02*
X8098039Y-17807984D01*
X8183753Y-17788936D02*
X8193277Y-17798460D01*
X8193277Y-17798460D02*
X8183753Y-17807984D01*
X8183753Y-17807984D02*
X8174229Y-17798460D01*
X8174229Y-17798460D02*
X8183753Y-17788936D01*
X8183753Y-17788936D02*
X8183753Y-17807984D01*
X8317086Y-17607984D02*
X8336134Y-17607984D01*
X8336134Y-17607984D02*
X8355182Y-17617508D01*
X8355182Y-17617508D02*
X8364705Y-17627031D01*
X8364705Y-17627031D02*
X8374229Y-17646079D01*
X8374229Y-17646079D02*
X8383753Y-17684174D01*
X8383753Y-17684174D02*
X8383753Y-17731793D01*
X8383753Y-17731793D02*
X8374229Y-17769889D01*
X8374229Y-17769889D02*
X8364705Y-17788936D01*
X8364705Y-17788936D02*
X8355182Y-17798460D01*
X8355182Y-17798460D02*
X8336134Y-17807984D01*
X8336134Y-17807984D02*
X8317086Y-17807984D01*
X8317086Y-17807984D02*
X8298039Y-17798460D01*
X8298039Y-17798460D02*
X8288515Y-17788936D01*
X8288515Y-17788936D02*
X8278991Y-17769889D01*
X8278991Y-17769889D02*
X8269467Y-17731793D01*
X8269467Y-17731793D02*
X8269467Y-17684174D01*
X8269467Y-17684174D02*
X8278991Y-17646079D01*
X8278991Y-17646079D02*
X8288515Y-17627031D01*
X8288515Y-17627031D02*
X8298039Y-17617508D01*
X8298039Y-17617508D02*
X8317086Y-17607984D01*
X8507563Y-17607984D02*
X8526610Y-17607984D01*
X8526610Y-17607984D02*
X8545658Y-17617508D01*
X8545658Y-17617508D02*
X8555182Y-17627031D01*
X8555182Y-17627031D02*
X8564705Y-17646079D01*
X8564705Y-17646079D02*
X8574229Y-17684174D01*
X8574229Y-17684174D02*
X8574229Y-17731793D01*
X8574229Y-17731793D02*
X8564705Y-17769889D01*
X8564705Y-17769889D02*
X8555182Y-17788936D01*
X8555182Y-17788936D02*
X8545658Y-17798460D01*
X8545658Y-17798460D02*
X8526610Y-17807984D01*
X8526610Y-17807984D02*
X8507563Y-17807984D01*
X8507563Y-17807984D02*
X8488515Y-17798460D01*
X8488515Y-17798460D02*
X8478991Y-17788936D01*
X8478991Y-17788936D02*
X8469467Y-17769889D01*
X8469467Y-17769889D02*
X8459944Y-17731793D01*
X8459944Y-17731793D02*
X8459944Y-17684174D01*
X8459944Y-17684174D02*
X8469467Y-17646079D01*
X8469467Y-17646079D02*
X8478991Y-17627031D01*
X8478991Y-17627031D02*
X8488515Y-17617508D01*
X8488515Y-17617508D02*
X8507563Y-17607984D01*
X8698039Y-17607984D02*
X8717086Y-17607984D01*
X8717086Y-17607984D02*
X8736134Y-17617508D01*
X8736134Y-17617508D02*
X8745658Y-17627031D01*
X8745658Y-17627031D02*
X8755182Y-17646079D01*
X8755182Y-17646079D02*
X8764705Y-17684174D01*
X8764705Y-17684174D02*
X8764705Y-17731793D01*
X8764705Y-17731793D02*
X8755182Y-17769889D01*
X8755182Y-17769889D02*
X8745658Y-17788936D01*
X8745658Y-17788936D02*
X8736134Y-17798460D01*
X8736134Y-17798460D02*
X8717086Y-17807984D01*
X8717086Y-17807984D02*
X8698039Y-17807984D01*
X8698039Y-17807984D02*
X8678991Y-17798460D01*
X8678991Y-17798460D02*
X8669467Y-17788936D01*
X8669467Y-17788936D02*
X8659944Y-17769889D01*
X8659944Y-17769889D02*
X8650420Y-17731793D01*
X8650420Y-17731793D02*
X8650420Y-17684174D01*
X8650420Y-17684174D02*
X8659944Y-17646079D01*
X8659944Y-17646079D02*
X8669467Y-17627031D01*
X8669467Y-17627031D02*
X8678991Y-17617508D01*
X8678991Y-17617508D02*
X8698039Y-17607984D01*
X8850420Y-17807984D02*
X8850420Y-17674650D01*
X8850420Y-17693698D02*
X8859944Y-17684174D01*
X8859944Y-17684174D02*
X8878991Y-17674650D01*
X8878991Y-17674650D02*
X8907563Y-17674650D01*
X8907563Y-17674650D02*
X8926610Y-17684174D01*
X8926610Y-17684174D02*
X8936134Y-17703222D01*
X8936134Y-17703222D02*
X8936134Y-17807984D01*
X8936134Y-17703222D02*
X8945658Y-17684174D01*
X8945658Y-17684174D02*
X8964705Y-17674650D01*
X8964705Y-17674650D02*
X8993277Y-17674650D01*
X8993277Y-17674650D02*
X9012325Y-17684174D01*
X9012325Y-17684174D02*
X9021848Y-17703222D01*
X9021848Y-17703222D02*
X9021848Y-17807984D01*
X9117086Y-17807984D02*
X9117086Y-17674650D01*
X9117086Y-17693698D02*
X9126610Y-17684174D01*
X9126610Y-17684174D02*
X9145658Y-17674650D01*
X9145658Y-17674650D02*
X9174229Y-17674650D01*
X9174229Y-17674650D02*
X9193277Y-17684174D01*
X9193277Y-17684174D02*
X9202801Y-17703222D01*
X9202801Y-17703222D02*
X9202801Y-17807984D01*
X9202801Y-17703222D02*
X9212325Y-17684174D01*
X9212325Y-17684174D02*
X9231372Y-17674650D01*
X9231372Y-17674650D02*
X9259944Y-17674650D01*
X9259944Y-17674650D02*
X9278991Y-17684174D01*
X9278991Y-17684174D02*
X9288515Y-17703222D01*
X9288515Y-17703222D02*
X9288515Y-17807984D01*
X9678991Y-17598460D02*
X9507563Y-17855603D01*
X9936134Y-17607984D02*
X9955182Y-17607984D01*
X9955182Y-17607984D02*
X9974229Y-17617508D01*
X9974229Y-17617508D02*
X9983753Y-17627031D01*
X9983753Y-17627031D02*
X9993277Y-17646079D01*
X9993277Y-17646079D02*
X10002801Y-17684174D01*
X10002801Y-17684174D02*
X10002801Y-17731793D01*
X10002801Y-17731793D02*
X9993277Y-17769889D01*
X9993277Y-17769889D02*
X9983753Y-17788936D01*
X9983753Y-17788936D02*
X9974229Y-17798460D01*
X9974229Y-17798460D02*
X9955182Y-17807984D01*
X9955182Y-17807984D02*
X9936134Y-17807984D01*
X9936134Y-17807984D02*
X9917087Y-17798460D01*
X9917087Y-17798460D02*
X9907563Y-17788936D01*
X9907563Y-17788936D02*
X9898039Y-17769889D01*
X9898039Y-17769889D02*
X9888515Y-17731793D01*
X9888515Y-17731793D02*
X9888515Y-17684174D01*
X9888515Y-17684174D02*
X9898039Y-17646079D01*
X9898039Y-17646079D02*
X9907563Y-17627031D01*
X9907563Y-17627031D02*
X9917087Y-17617508D01*
X9917087Y-17617508D02*
X9936134Y-17607984D01*
X10088515Y-17788936D02*
X10098039Y-17798460D01*
X10098039Y-17798460D02*
X10088515Y-17807984D01*
X10088515Y-17807984D02*
X10078991Y-17798460D01*
X10078991Y-17798460D02*
X10088515Y-17788936D01*
X10088515Y-17788936D02*
X10088515Y-17807984D01*
X10221848Y-17607984D02*
X10240896Y-17607984D01*
X10240896Y-17607984D02*
X10259944Y-17617508D01*
X10259944Y-17617508D02*
X10269468Y-17627031D01*
X10269468Y-17627031D02*
X10278991Y-17646079D01*
X10278991Y-17646079D02*
X10288515Y-17684174D01*
X10288515Y-17684174D02*
X10288515Y-17731793D01*
X10288515Y-17731793D02*
X10278991Y-17769889D01*
X10278991Y-17769889D02*
X10269468Y-17788936D01*
X10269468Y-17788936D02*
X10259944Y-17798460D01*
X10259944Y-17798460D02*
X10240896Y-17807984D01*
X10240896Y-17807984D02*
X10221848Y-17807984D01*
X10221848Y-17807984D02*
X10202801Y-17798460D01*
X10202801Y-17798460D02*
X10193277Y-17788936D01*
X10193277Y-17788936D02*
X10183753Y-17769889D01*
X10183753Y-17769889D02*
X10174229Y-17731793D01*
X10174229Y-17731793D02*
X10174229Y-17684174D01*
X10174229Y-17684174D02*
X10183753Y-17646079D01*
X10183753Y-17646079D02*
X10193277Y-17627031D01*
X10193277Y-17627031D02*
X10202801Y-17617508D01*
X10202801Y-17617508D02*
X10221848Y-17607984D01*
X10355182Y-17607984D02*
X10488515Y-17607984D01*
X10488515Y-17607984D02*
X10402801Y-17807984D01*
X10593277Y-17693698D02*
X10574229Y-17684174D01*
X10574229Y-17684174D02*
X10564706Y-17674650D01*
X10564706Y-17674650D02*
X10555182Y-17655603D01*
X10555182Y-17655603D02*
X10555182Y-17646079D01*
X10555182Y-17646079D02*
X10564706Y-17627031D01*
X10564706Y-17627031D02*
X10574229Y-17617508D01*
X10574229Y-17617508D02*
X10593277Y-17607984D01*
X10593277Y-17607984D02*
X10631372Y-17607984D01*
X10631372Y-17607984D02*
X10650420Y-17617508D01*
X10650420Y-17617508D02*
X10659944Y-17627031D01*
X10659944Y-17627031D02*
X10669468Y-17646079D01*
X10669468Y-17646079D02*
X10669468Y-17655603D01*
X10669468Y-17655603D02*
X10659944Y-17674650D01*
X10659944Y-17674650D02*
X10650420Y-17684174D01*
X10650420Y-17684174D02*
X10631372Y-17693698D01*
X10631372Y-17693698D02*
X10593277Y-17693698D01*
X10593277Y-17693698D02*
X10574229Y-17703222D01*
X10574229Y-17703222D02*
X10564706Y-17712746D01*
X10564706Y-17712746D02*
X10555182Y-17731793D01*
X10555182Y-17731793D02*
X10555182Y-17769889D01*
X10555182Y-17769889D02*
X10564706Y-17788936D01*
X10564706Y-17788936D02*
X10574229Y-17798460D01*
X10574229Y-17798460D02*
X10593277Y-17807984D01*
X10593277Y-17807984D02*
X10631372Y-17807984D01*
X10631372Y-17807984D02*
X10650420Y-17798460D01*
X10650420Y-17798460D02*
X10659944Y-17788936D01*
X10659944Y-17788936D02*
X10669468Y-17769889D01*
X10669468Y-17769889D02*
X10669468Y-17731793D01*
X10669468Y-17731793D02*
X10659944Y-17712746D01*
X10659944Y-17712746D02*
X10650420Y-17703222D01*
X10650420Y-17703222D02*
X10631372Y-17693698D01*
X10736134Y-17607984D02*
X10869468Y-17607984D01*
X10869468Y-17607984D02*
X10783753Y-17807984D01*
X10936134Y-17607984D02*
X10936134Y-17646079D01*
X11012325Y-17607984D02*
X11012325Y-17646079D01*
X11307563Y-17884174D02*
X11298039Y-17874650D01*
X11298039Y-17874650D02*
X11278991Y-17846079D01*
X11278991Y-17846079D02*
X11269468Y-17827031D01*
X11269468Y-17827031D02*
X11259944Y-17798460D01*
X11259944Y-17798460D02*
X11250420Y-17750841D01*
X11250420Y-17750841D02*
X11250420Y-17712746D01*
X11250420Y-17712746D02*
X11259944Y-17665127D01*
X11259944Y-17665127D02*
X11269468Y-17636555D01*
X11269468Y-17636555D02*
X11278991Y-17617508D01*
X11278991Y-17617508D02*
X11298039Y-17588936D01*
X11298039Y-17588936D02*
X11307563Y-17579412D01*
X11469468Y-17674650D02*
X11469468Y-17807984D01*
X11421848Y-17598460D02*
X11374229Y-17741317D01*
X11374229Y-17741317D02*
X11498039Y-17741317D01*
X11726610Y-17807984D02*
X11726610Y-17607984D01*
X11812325Y-17807984D02*
X11812325Y-17703222D01*
X11812325Y-17703222D02*
X11802801Y-17684174D01*
X11802801Y-17684174D02*
X11783753Y-17674650D01*
X11783753Y-17674650D02*
X11755182Y-17674650D01*
X11755182Y-17674650D02*
X11736134Y-17684174D01*
X11736134Y-17684174D02*
X11726610Y-17693698D01*
X11936134Y-17807984D02*
X11917087Y-17798460D01*
X11917087Y-17798460D02*
X11907563Y-17788936D01*
X11907563Y-17788936D02*
X11898039Y-17769889D01*
X11898039Y-17769889D02*
X11898039Y-17712746D01*
X11898039Y-17712746D02*
X11907563Y-17693698D01*
X11907563Y-17693698D02*
X11917087Y-17684174D01*
X11917087Y-17684174D02*
X11936134Y-17674650D01*
X11936134Y-17674650D02*
X11964706Y-17674650D01*
X11964706Y-17674650D02*
X11983753Y-17684174D01*
X11983753Y-17684174D02*
X11993277Y-17693698D01*
X11993277Y-17693698D02*
X12002801Y-17712746D01*
X12002801Y-17712746D02*
X12002801Y-17769889D01*
X12002801Y-17769889D02*
X11993277Y-17788936D01*
X11993277Y-17788936D02*
X11983753Y-17798460D01*
X11983753Y-17798460D02*
X11964706Y-17807984D01*
X11964706Y-17807984D02*
X11936134Y-17807984D01*
X12117087Y-17807984D02*
X12098039Y-17798460D01*
X12098039Y-17798460D02*
X12088515Y-17779412D01*
X12088515Y-17779412D02*
X12088515Y-17607984D01*
X12269468Y-17798460D02*
X12250420Y-17807984D01*
X12250420Y-17807984D02*
X12212325Y-17807984D01*
X12212325Y-17807984D02*
X12193277Y-17798460D01*
X12193277Y-17798460D02*
X12183753Y-17779412D01*
X12183753Y-17779412D02*
X12183753Y-17703222D01*
X12183753Y-17703222D02*
X12193277Y-17684174D01*
X12193277Y-17684174D02*
X12212325Y-17674650D01*
X12212325Y-17674650D02*
X12250420Y-17674650D01*
X12250420Y-17674650D02*
X12269468Y-17684174D01*
X12269468Y-17684174D02*
X12278991Y-17703222D01*
X12278991Y-17703222D02*
X12278991Y-17722270D01*
X12278991Y-17722270D02*
X12183753Y-17741317D01*
X12355182Y-17798460D02*
X12374230Y-17807984D01*
X12374230Y-17807984D02*
X12412325Y-17807984D01*
X12412325Y-17807984D02*
X12431372Y-17798460D01*
X12431372Y-17798460D02*
X12440896Y-17779412D01*
X12440896Y-17779412D02*
X12440896Y-17769889D01*
X12440896Y-17769889D02*
X12431372Y-17750841D01*
X12431372Y-17750841D02*
X12412325Y-17741317D01*
X12412325Y-17741317D02*
X12383753Y-17741317D01*
X12383753Y-17741317D02*
X12364706Y-17731793D01*
X12364706Y-17731793D02*
X12355182Y-17712746D01*
X12355182Y-17712746D02*
X12355182Y-17703222D01*
X12355182Y-17703222D02*
X12364706Y-17684174D01*
X12364706Y-17684174D02*
X12383753Y-17674650D01*
X12383753Y-17674650D02*
X12412325Y-17674650D01*
X12412325Y-17674650D02*
X12431372Y-17684174D01*
X12507563Y-17884174D02*
X12517087Y-17874650D01*
X12517087Y-17874650D02*
X12536134Y-17846079D01*
X12536134Y-17846079D02*
X12545658Y-17827031D01*
X12545658Y-17827031D02*
X12555182Y-17798460D01*
X12555182Y-17798460D02*
X12564706Y-17750841D01*
X12564706Y-17750841D02*
X12564706Y-17712746D01*
X12564706Y-17712746D02*
X12555182Y-17665127D01*
X12555182Y-17665127D02*
X12545658Y-17636555D01*
X12545658Y-17636555D02*
X12536134Y-17617508D01*
X12536134Y-17617508D02*
X12517087Y-17588936D01*
X12517087Y-17588936D02*
X12507563Y-17579412D01*
X7532500Y-17936500D02*
X7732500Y-18136500D01*
X7732500Y-17936500D02*
X7532500Y-18136500D01*
X7703211Y-18107211D02*
X7703211Y-17965789D01*
X7561789Y-17965789D01*
X7561789Y-18107211D01*
X7703211Y-18107211D01*
X7974229Y-17927984D02*
X8098039Y-17927984D01*
X8098039Y-17927984D02*
X8031372Y-18004174D01*
X8031372Y-18004174D02*
X8059943Y-18004174D01*
X8059943Y-18004174D02*
X8078991Y-18013698D01*
X8078991Y-18013698D02*
X8088515Y-18023222D01*
X8088515Y-18023222D02*
X8098039Y-18042270D01*
X8098039Y-18042270D02*
X8098039Y-18089889D01*
X8098039Y-18089889D02*
X8088515Y-18108936D01*
X8088515Y-18108936D02*
X8078991Y-18118460D01*
X8078991Y-18118460D02*
X8059943Y-18127984D01*
X8059943Y-18127984D02*
X8002801Y-18127984D01*
X8002801Y-18127984D02*
X7983753Y-18118460D01*
X7983753Y-18118460D02*
X7974229Y-18108936D01*
X8183753Y-18108936D02*
X8193277Y-18118460D01*
X8193277Y-18118460D02*
X8183753Y-18127984D01*
X8183753Y-18127984D02*
X8174229Y-18118460D01*
X8174229Y-18118460D02*
X8183753Y-18108936D01*
X8183753Y-18108936D02*
X8183753Y-18127984D01*
X8383753Y-18127984D02*
X8269467Y-18127984D01*
X8326610Y-18127984D02*
X8326610Y-17927984D01*
X8326610Y-17927984D02*
X8307562Y-17956555D01*
X8307562Y-17956555D02*
X8288515Y-17975603D01*
X8288515Y-17975603D02*
X8269467Y-17985127D01*
X8555182Y-17927984D02*
X8517086Y-17927984D01*
X8517086Y-17927984D02*
X8498039Y-17937508D01*
X8498039Y-17937508D02*
X8488515Y-17947031D01*
X8488515Y-17947031D02*
X8469467Y-17975603D01*
X8469467Y-17975603D02*
X8459944Y-18013698D01*
X8459944Y-18013698D02*
X8459944Y-18089889D01*
X8459944Y-18089889D02*
X8469467Y-18108936D01*
X8469467Y-18108936D02*
X8478991Y-18118460D01*
X8478991Y-18118460D02*
X8498039Y-18127984D01*
X8498039Y-18127984D02*
X8536134Y-18127984D01*
X8536134Y-18127984D02*
X8555182Y-18118460D01*
X8555182Y-18118460D02*
X8564705Y-18108936D01*
X8564705Y-18108936D02*
X8574229Y-18089889D01*
X8574229Y-18089889D02*
X8574229Y-18042270D01*
X8574229Y-18042270D02*
X8564705Y-18023222D01*
X8564705Y-18023222D02*
X8555182Y-18013698D01*
X8555182Y-18013698D02*
X8536134Y-18004174D01*
X8536134Y-18004174D02*
X8498039Y-18004174D01*
X8498039Y-18004174D02*
X8478991Y-18013698D01*
X8478991Y-18013698D02*
X8469467Y-18023222D01*
X8469467Y-18023222D02*
X8459944Y-18042270D01*
X8698039Y-17927984D02*
X8717086Y-17927984D01*
X8717086Y-17927984D02*
X8736134Y-17937508D01*
X8736134Y-17937508D02*
X8745658Y-17947031D01*
X8745658Y-17947031D02*
X8755182Y-17966079D01*
X8755182Y-17966079D02*
X8764705Y-18004174D01*
X8764705Y-18004174D02*
X8764705Y-18051793D01*
X8764705Y-18051793D02*
X8755182Y-18089889D01*
X8755182Y-18089889D02*
X8745658Y-18108936D01*
X8745658Y-18108936D02*
X8736134Y-18118460D01*
X8736134Y-18118460D02*
X8717086Y-18127984D01*
X8717086Y-18127984D02*
X8698039Y-18127984D01*
X8698039Y-18127984D02*
X8678991Y-18118460D01*
X8678991Y-18118460D02*
X8669467Y-18108936D01*
X8669467Y-18108936D02*
X8659944Y-18089889D01*
X8659944Y-18089889D02*
X8650420Y-18051793D01*
X8650420Y-18051793D02*
X8650420Y-18004174D01*
X8650420Y-18004174D02*
X8659944Y-17966079D01*
X8659944Y-17966079D02*
X8669467Y-17947031D01*
X8669467Y-17947031D02*
X8678991Y-17937508D01*
X8678991Y-17937508D02*
X8698039Y-17927984D01*
X8850420Y-18127984D02*
X8850420Y-17994650D01*
X8850420Y-18013698D02*
X8859944Y-18004174D01*
X8859944Y-18004174D02*
X8878991Y-17994650D01*
X8878991Y-17994650D02*
X8907563Y-17994650D01*
X8907563Y-17994650D02*
X8926610Y-18004174D01*
X8926610Y-18004174D02*
X8936134Y-18023222D01*
X8936134Y-18023222D02*
X8936134Y-18127984D01*
X8936134Y-18023222D02*
X8945658Y-18004174D01*
X8945658Y-18004174D02*
X8964705Y-17994650D01*
X8964705Y-17994650D02*
X8993277Y-17994650D01*
X8993277Y-17994650D02*
X9012325Y-18004174D01*
X9012325Y-18004174D02*
X9021848Y-18023222D01*
X9021848Y-18023222D02*
X9021848Y-18127984D01*
X9117086Y-18127984D02*
X9117086Y-17994650D01*
X9117086Y-18013698D02*
X9126610Y-18004174D01*
X9126610Y-18004174D02*
X9145658Y-17994650D01*
X9145658Y-17994650D02*
X9174229Y-17994650D01*
X9174229Y-17994650D02*
X9193277Y-18004174D01*
X9193277Y-18004174D02*
X9202801Y-18023222D01*
X9202801Y-18023222D02*
X9202801Y-18127984D01*
X9202801Y-18023222D02*
X9212325Y-18004174D01*
X9212325Y-18004174D02*
X9231372Y-17994650D01*
X9231372Y-17994650D02*
X9259944Y-17994650D01*
X9259944Y-17994650D02*
X9278991Y-18004174D01*
X9278991Y-18004174D02*
X9288515Y-18023222D01*
X9288515Y-18023222D02*
X9288515Y-18127984D01*
X9678991Y-17918460D02*
X9507563Y-18175603D01*
X9936134Y-17927984D02*
X9955182Y-17927984D01*
X9955182Y-17927984D02*
X9974229Y-17937508D01*
X9974229Y-17937508D02*
X9983753Y-17947031D01*
X9983753Y-17947031D02*
X9993277Y-17966079D01*
X9993277Y-17966079D02*
X10002801Y-18004174D01*
X10002801Y-18004174D02*
X10002801Y-18051793D01*
X10002801Y-18051793D02*
X9993277Y-18089889D01*
X9993277Y-18089889D02*
X9983753Y-18108936D01*
X9983753Y-18108936D02*
X9974229Y-18118460D01*
X9974229Y-18118460D02*
X9955182Y-18127984D01*
X9955182Y-18127984D02*
X9936134Y-18127984D01*
X9936134Y-18127984D02*
X9917087Y-18118460D01*
X9917087Y-18118460D02*
X9907563Y-18108936D01*
X9907563Y-18108936D02*
X9898039Y-18089889D01*
X9898039Y-18089889D02*
X9888515Y-18051793D01*
X9888515Y-18051793D02*
X9888515Y-18004174D01*
X9888515Y-18004174D02*
X9898039Y-17966079D01*
X9898039Y-17966079D02*
X9907563Y-17947031D01*
X9907563Y-17947031D02*
X9917087Y-17937508D01*
X9917087Y-17937508D02*
X9936134Y-17927984D01*
X10088515Y-18108936D02*
X10098039Y-18118460D01*
X10098039Y-18118460D02*
X10088515Y-18127984D01*
X10088515Y-18127984D02*
X10078991Y-18118460D01*
X10078991Y-18118460D02*
X10088515Y-18108936D01*
X10088515Y-18108936D02*
X10088515Y-18127984D01*
X10288515Y-18127984D02*
X10174229Y-18127984D01*
X10231372Y-18127984D02*
X10231372Y-17927984D01*
X10231372Y-17927984D02*
X10212325Y-17956555D01*
X10212325Y-17956555D02*
X10193277Y-17975603D01*
X10193277Y-17975603D02*
X10174229Y-17985127D01*
X10364706Y-17947031D02*
X10374229Y-17937508D01*
X10374229Y-17937508D02*
X10393277Y-17927984D01*
X10393277Y-17927984D02*
X10440896Y-17927984D01*
X10440896Y-17927984D02*
X10459944Y-17937508D01*
X10459944Y-17937508D02*
X10469468Y-17947031D01*
X10469468Y-17947031D02*
X10478991Y-17966079D01*
X10478991Y-17966079D02*
X10478991Y-17985127D01*
X10478991Y-17985127D02*
X10469468Y-18013698D01*
X10469468Y-18013698D02*
X10355182Y-18127984D01*
X10355182Y-18127984D02*
X10478991Y-18127984D01*
X10650420Y-17994650D02*
X10650420Y-18127984D01*
X10602801Y-17918460D02*
X10555182Y-18061317D01*
X10555182Y-18061317D02*
X10678991Y-18061317D01*
X10840896Y-17994650D02*
X10840896Y-18127984D01*
X10793277Y-17918460D02*
X10745658Y-18061317D01*
X10745658Y-18061317D02*
X10869468Y-18061317D01*
X10936134Y-17927984D02*
X10936134Y-17966079D01*
X11012325Y-17927984D02*
X11012325Y-17966079D01*
X11307563Y-18204174D02*
X11298039Y-18194650D01*
X11298039Y-18194650D02*
X11278991Y-18166079D01*
X11278991Y-18166079D02*
X11269468Y-18147031D01*
X11269468Y-18147031D02*
X11259944Y-18118460D01*
X11259944Y-18118460D02*
X11250420Y-18070841D01*
X11250420Y-18070841D02*
X11250420Y-18032746D01*
X11250420Y-18032746D02*
X11259944Y-17985127D01*
X11259944Y-17985127D02*
X11269468Y-17956555D01*
X11269468Y-17956555D02*
X11278991Y-17937508D01*
X11278991Y-17937508D02*
X11298039Y-17908936D01*
X11298039Y-17908936D02*
X11307563Y-17899412D01*
X11488515Y-18127984D02*
X11374229Y-18127984D01*
X11431372Y-18127984D02*
X11431372Y-17927984D01*
X11431372Y-17927984D02*
X11412325Y-17956555D01*
X11412325Y-17956555D02*
X11393277Y-17975603D01*
X11393277Y-17975603D02*
X11374229Y-17985127D01*
X11726610Y-18127984D02*
X11726610Y-17927984D01*
X11812325Y-18127984D02*
X11812325Y-18023222D01*
X11812325Y-18023222D02*
X11802801Y-18004174D01*
X11802801Y-18004174D02*
X11783753Y-17994650D01*
X11783753Y-17994650D02*
X11755182Y-17994650D01*
X11755182Y-17994650D02*
X11736134Y-18004174D01*
X11736134Y-18004174D02*
X11726610Y-18013698D01*
X11936134Y-18127984D02*
X11917087Y-18118460D01*
X11917087Y-18118460D02*
X11907563Y-18108936D01*
X11907563Y-18108936D02*
X11898039Y-18089889D01*
X11898039Y-18089889D02*
X11898039Y-18032746D01*
X11898039Y-18032746D02*
X11907563Y-18013698D01*
X11907563Y-18013698D02*
X11917087Y-18004174D01*
X11917087Y-18004174D02*
X11936134Y-17994650D01*
X11936134Y-17994650D02*
X11964706Y-17994650D01*
X11964706Y-17994650D02*
X11983753Y-18004174D01*
X11983753Y-18004174D02*
X11993277Y-18013698D01*
X11993277Y-18013698D02*
X12002801Y-18032746D01*
X12002801Y-18032746D02*
X12002801Y-18089889D01*
X12002801Y-18089889D02*
X11993277Y-18108936D01*
X11993277Y-18108936D02*
X11983753Y-18118460D01*
X11983753Y-18118460D02*
X11964706Y-18127984D01*
X11964706Y-18127984D02*
X11936134Y-18127984D01*
X12117087Y-18127984D02*
X12098039Y-18118460D01*
X12098039Y-18118460D02*
X12088515Y-18099412D01*
X12088515Y-18099412D02*
X12088515Y-17927984D01*
X12269468Y-18118460D02*
X12250420Y-18127984D01*
X12250420Y-18127984D02*
X12212325Y-18127984D01*
X12212325Y-18127984D02*
X12193277Y-18118460D01*
X12193277Y-18118460D02*
X12183753Y-18099412D01*
X12183753Y-18099412D02*
X12183753Y-18023222D01*
X12183753Y-18023222D02*
X12193277Y-18004174D01*
X12193277Y-18004174D02*
X12212325Y-17994650D01*
X12212325Y-17994650D02*
X12250420Y-17994650D01*
X12250420Y-17994650D02*
X12269468Y-18004174D01*
X12269468Y-18004174D02*
X12278991Y-18023222D01*
X12278991Y-18023222D02*
X12278991Y-18042270D01*
X12278991Y-18042270D02*
X12183753Y-18061317D01*
X12345658Y-18204174D02*
X12355182Y-18194650D01*
X12355182Y-18194650D02*
X12374230Y-18166079D01*
X12374230Y-18166079D02*
X12383753Y-18147031D01*
X12383753Y-18147031D02*
X12393277Y-18118460D01*
X12393277Y-18118460D02*
X12402801Y-18070841D01*
X12402801Y-18070841D02*
X12402801Y-18032746D01*
X12402801Y-18032746D02*
X12393277Y-17985127D01*
X12393277Y-17985127D02*
X12383753Y-17956555D01*
X12383753Y-17956555D02*
X12374230Y-17937508D01*
X12374230Y-17937508D02*
X12355182Y-17908936D01*
X12355182Y-17908936D02*
X12345658Y-17899412D01*
X7532500Y-18256500D02*
X7732500Y-18456500D01*
X7732500Y-18256500D02*
X7532500Y-18456500D01*
X7632500Y-18456500D02*
X7732500Y-18356500D01*
X7632500Y-18256500D01*
X7532500Y-18356500D01*
X7632500Y-18456500D01*
X7974229Y-18247984D02*
X8098039Y-18247984D01*
X8098039Y-18247984D02*
X8031372Y-18324174D01*
X8031372Y-18324174D02*
X8059943Y-18324174D01*
X8059943Y-18324174D02*
X8078991Y-18333698D01*
X8078991Y-18333698D02*
X8088515Y-18343222D01*
X8088515Y-18343222D02*
X8098039Y-18362270D01*
X8098039Y-18362270D02*
X8098039Y-18409889D01*
X8098039Y-18409889D02*
X8088515Y-18428936D01*
X8088515Y-18428936D02*
X8078991Y-18438460D01*
X8078991Y-18438460D02*
X8059943Y-18447984D01*
X8059943Y-18447984D02*
X8002801Y-18447984D01*
X8002801Y-18447984D02*
X7983753Y-18438460D01*
X7983753Y-18438460D02*
X7974229Y-18428936D01*
X8183753Y-18428936D02*
X8193277Y-18438460D01*
X8193277Y-18438460D02*
X8183753Y-18447984D01*
X8183753Y-18447984D02*
X8174229Y-18438460D01*
X8174229Y-18438460D02*
X8183753Y-18428936D01*
X8183753Y-18428936D02*
X8183753Y-18447984D01*
X8364705Y-18247984D02*
X8326610Y-18247984D01*
X8326610Y-18247984D02*
X8307562Y-18257508D01*
X8307562Y-18257508D02*
X8298039Y-18267031D01*
X8298039Y-18267031D02*
X8278991Y-18295603D01*
X8278991Y-18295603D02*
X8269467Y-18333698D01*
X8269467Y-18333698D02*
X8269467Y-18409889D01*
X8269467Y-18409889D02*
X8278991Y-18428936D01*
X8278991Y-18428936D02*
X8288515Y-18438460D01*
X8288515Y-18438460D02*
X8307562Y-18447984D01*
X8307562Y-18447984D02*
X8345658Y-18447984D01*
X8345658Y-18447984D02*
X8364705Y-18438460D01*
X8364705Y-18438460D02*
X8374229Y-18428936D01*
X8374229Y-18428936D02*
X8383753Y-18409889D01*
X8383753Y-18409889D02*
X8383753Y-18362270D01*
X8383753Y-18362270D02*
X8374229Y-18343222D01*
X8374229Y-18343222D02*
X8364705Y-18333698D01*
X8364705Y-18333698D02*
X8345658Y-18324174D01*
X8345658Y-18324174D02*
X8307562Y-18324174D01*
X8307562Y-18324174D02*
X8288515Y-18333698D01*
X8288515Y-18333698D02*
X8278991Y-18343222D01*
X8278991Y-18343222D02*
X8269467Y-18362270D01*
X8555182Y-18314650D02*
X8555182Y-18447984D01*
X8507563Y-18238460D02*
X8459944Y-18381317D01*
X8459944Y-18381317D02*
X8583753Y-18381317D01*
X8698039Y-18247984D02*
X8717086Y-18247984D01*
X8717086Y-18247984D02*
X8736134Y-18257508D01*
X8736134Y-18257508D02*
X8745658Y-18267031D01*
X8745658Y-18267031D02*
X8755182Y-18286079D01*
X8755182Y-18286079D02*
X8764705Y-18324174D01*
X8764705Y-18324174D02*
X8764705Y-18371793D01*
X8764705Y-18371793D02*
X8755182Y-18409889D01*
X8755182Y-18409889D02*
X8745658Y-18428936D01*
X8745658Y-18428936D02*
X8736134Y-18438460D01*
X8736134Y-18438460D02*
X8717086Y-18447984D01*
X8717086Y-18447984D02*
X8698039Y-18447984D01*
X8698039Y-18447984D02*
X8678991Y-18438460D01*
X8678991Y-18438460D02*
X8669467Y-18428936D01*
X8669467Y-18428936D02*
X8659944Y-18409889D01*
X8659944Y-18409889D02*
X8650420Y-18371793D01*
X8650420Y-18371793D02*
X8650420Y-18324174D01*
X8650420Y-18324174D02*
X8659944Y-18286079D01*
X8659944Y-18286079D02*
X8669467Y-18267031D01*
X8669467Y-18267031D02*
X8678991Y-18257508D01*
X8678991Y-18257508D02*
X8698039Y-18247984D01*
X8850420Y-18447984D02*
X8850420Y-18314650D01*
X8850420Y-18333698D02*
X8859944Y-18324174D01*
X8859944Y-18324174D02*
X8878991Y-18314650D01*
X8878991Y-18314650D02*
X8907563Y-18314650D01*
X8907563Y-18314650D02*
X8926610Y-18324174D01*
X8926610Y-18324174D02*
X8936134Y-18343222D01*
X8936134Y-18343222D02*
X8936134Y-18447984D01*
X8936134Y-18343222D02*
X8945658Y-18324174D01*
X8945658Y-18324174D02*
X8964705Y-18314650D01*
X8964705Y-18314650D02*
X8993277Y-18314650D01*
X8993277Y-18314650D02*
X9012325Y-18324174D01*
X9012325Y-18324174D02*
X9021848Y-18343222D01*
X9021848Y-18343222D02*
X9021848Y-18447984D01*
X9117086Y-18447984D02*
X9117086Y-18314650D01*
X9117086Y-18333698D02*
X9126610Y-18324174D01*
X9126610Y-18324174D02*
X9145658Y-18314650D01*
X9145658Y-18314650D02*
X9174229Y-18314650D01*
X9174229Y-18314650D02*
X9193277Y-18324174D01*
X9193277Y-18324174D02*
X9202801Y-18343222D01*
X9202801Y-18343222D02*
X9202801Y-18447984D01*
X9202801Y-18343222D02*
X9212325Y-18324174D01*
X9212325Y-18324174D02*
X9231372Y-18314650D01*
X9231372Y-18314650D02*
X9259944Y-18314650D01*
X9259944Y-18314650D02*
X9278991Y-18324174D01*
X9278991Y-18324174D02*
X9288515Y-18343222D01*
X9288515Y-18343222D02*
X9288515Y-18447984D01*
X9678991Y-18238460D02*
X9507563Y-18495603D01*
X9936134Y-18247984D02*
X9955182Y-18247984D01*
X9955182Y-18247984D02*
X9974229Y-18257508D01*
X9974229Y-18257508D02*
X9983753Y-18267031D01*
X9983753Y-18267031D02*
X9993277Y-18286079D01*
X9993277Y-18286079D02*
X10002801Y-18324174D01*
X10002801Y-18324174D02*
X10002801Y-18371793D01*
X10002801Y-18371793D02*
X9993277Y-18409889D01*
X9993277Y-18409889D02*
X9983753Y-18428936D01*
X9983753Y-18428936D02*
X9974229Y-18438460D01*
X9974229Y-18438460D02*
X9955182Y-18447984D01*
X9955182Y-18447984D02*
X9936134Y-18447984D01*
X9936134Y-18447984D02*
X9917087Y-18438460D01*
X9917087Y-18438460D02*
X9907563Y-18428936D01*
X9907563Y-18428936D02*
X9898039Y-18409889D01*
X9898039Y-18409889D02*
X9888515Y-18371793D01*
X9888515Y-18371793D02*
X9888515Y-18324174D01*
X9888515Y-18324174D02*
X9898039Y-18286079D01*
X9898039Y-18286079D02*
X9907563Y-18267031D01*
X9907563Y-18267031D02*
X9917087Y-18257508D01*
X9917087Y-18257508D02*
X9936134Y-18247984D01*
X10088515Y-18428936D02*
X10098039Y-18438460D01*
X10098039Y-18438460D02*
X10088515Y-18447984D01*
X10088515Y-18447984D02*
X10078991Y-18438460D01*
X10078991Y-18438460D02*
X10088515Y-18428936D01*
X10088515Y-18428936D02*
X10088515Y-18447984D01*
X10288515Y-18447984D02*
X10174229Y-18447984D01*
X10231372Y-18447984D02*
X10231372Y-18247984D01*
X10231372Y-18247984D02*
X10212325Y-18276555D01*
X10212325Y-18276555D02*
X10193277Y-18295603D01*
X10193277Y-18295603D02*
X10174229Y-18305127D01*
X10459944Y-18314650D02*
X10459944Y-18447984D01*
X10412325Y-18238460D02*
X10364706Y-18381317D01*
X10364706Y-18381317D02*
X10488515Y-18381317D01*
X10545658Y-18247984D02*
X10669468Y-18247984D01*
X10669468Y-18247984D02*
X10602801Y-18324174D01*
X10602801Y-18324174D02*
X10631372Y-18324174D01*
X10631372Y-18324174D02*
X10650420Y-18333698D01*
X10650420Y-18333698D02*
X10659944Y-18343222D01*
X10659944Y-18343222D02*
X10669468Y-18362270D01*
X10669468Y-18362270D02*
X10669468Y-18409889D01*
X10669468Y-18409889D02*
X10659944Y-18428936D01*
X10659944Y-18428936D02*
X10650420Y-18438460D01*
X10650420Y-18438460D02*
X10631372Y-18447984D01*
X10631372Y-18447984D02*
X10574229Y-18447984D01*
X10574229Y-18447984D02*
X10555182Y-18438460D01*
X10555182Y-18438460D02*
X10545658Y-18428936D01*
X10736134Y-18247984D02*
X10859944Y-18247984D01*
X10859944Y-18247984D02*
X10793277Y-18324174D01*
X10793277Y-18324174D02*
X10821849Y-18324174D01*
X10821849Y-18324174D02*
X10840896Y-18333698D01*
X10840896Y-18333698D02*
X10850420Y-18343222D01*
X10850420Y-18343222D02*
X10859944Y-18362270D01*
X10859944Y-18362270D02*
X10859944Y-18409889D01*
X10859944Y-18409889D02*
X10850420Y-18428936D01*
X10850420Y-18428936D02*
X10840896Y-18438460D01*
X10840896Y-18438460D02*
X10821849Y-18447984D01*
X10821849Y-18447984D02*
X10764706Y-18447984D01*
X10764706Y-18447984D02*
X10745658Y-18438460D01*
X10745658Y-18438460D02*
X10736134Y-18428936D01*
X10936134Y-18247984D02*
X10936134Y-18286079D01*
X11012325Y-18247984D02*
X11012325Y-18286079D01*
X11307563Y-18524174D02*
X11298039Y-18514650D01*
X11298039Y-18514650D02*
X11278991Y-18486079D01*
X11278991Y-18486079D02*
X11269468Y-18467031D01*
X11269468Y-18467031D02*
X11259944Y-18438460D01*
X11259944Y-18438460D02*
X11250420Y-18390841D01*
X11250420Y-18390841D02*
X11250420Y-18352746D01*
X11250420Y-18352746D02*
X11259944Y-18305127D01*
X11259944Y-18305127D02*
X11269468Y-18276555D01*
X11269468Y-18276555D02*
X11278991Y-18257508D01*
X11278991Y-18257508D02*
X11298039Y-18228936D01*
X11298039Y-18228936D02*
X11307563Y-18219412D01*
X11488515Y-18447984D02*
X11374229Y-18447984D01*
X11431372Y-18447984D02*
X11431372Y-18247984D01*
X11431372Y-18247984D02*
X11412325Y-18276555D01*
X11412325Y-18276555D02*
X11393277Y-18295603D01*
X11393277Y-18295603D02*
X11374229Y-18305127D01*
X11726610Y-18447984D02*
X11726610Y-18247984D01*
X11812325Y-18447984D02*
X11812325Y-18343222D01*
X11812325Y-18343222D02*
X11802801Y-18324174D01*
X11802801Y-18324174D02*
X11783753Y-18314650D01*
X11783753Y-18314650D02*
X11755182Y-18314650D01*
X11755182Y-18314650D02*
X11736134Y-18324174D01*
X11736134Y-18324174D02*
X11726610Y-18333698D01*
X11936134Y-18447984D02*
X11917087Y-18438460D01*
X11917087Y-18438460D02*
X11907563Y-18428936D01*
X11907563Y-18428936D02*
X11898039Y-18409889D01*
X11898039Y-18409889D02*
X11898039Y-18352746D01*
X11898039Y-18352746D02*
X11907563Y-18333698D01*
X11907563Y-18333698D02*
X11917087Y-18324174D01*
X11917087Y-18324174D02*
X11936134Y-18314650D01*
X11936134Y-18314650D02*
X11964706Y-18314650D01*
X11964706Y-18314650D02*
X11983753Y-18324174D01*
X11983753Y-18324174D02*
X11993277Y-18333698D01*
X11993277Y-18333698D02*
X12002801Y-18352746D01*
X12002801Y-18352746D02*
X12002801Y-18409889D01*
X12002801Y-18409889D02*
X11993277Y-18428936D01*
X11993277Y-18428936D02*
X11983753Y-18438460D01*
X11983753Y-18438460D02*
X11964706Y-18447984D01*
X11964706Y-18447984D02*
X11936134Y-18447984D01*
X12117087Y-18447984D02*
X12098039Y-18438460D01*
X12098039Y-18438460D02*
X12088515Y-18419412D01*
X12088515Y-18419412D02*
X12088515Y-18247984D01*
X12269468Y-18438460D02*
X12250420Y-18447984D01*
X12250420Y-18447984D02*
X12212325Y-18447984D01*
X12212325Y-18447984D02*
X12193277Y-18438460D01*
X12193277Y-18438460D02*
X12183753Y-18419412D01*
X12183753Y-18419412D02*
X12183753Y-18343222D01*
X12183753Y-18343222D02*
X12193277Y-18324174D01*
X12193277Y-18324174D02*
X12212325Y-18314650D01*
X12212325Y-18314650D02*
X12250420Y-18314650D01*
X12250420Y-18314650D02*
X12269468Y-18324174D01*
X12269468Y-18324174D02*
X12278991Y-18343222D01*
X12278991Y-18343222D02*
X12278991Y-18362270D01*
X12278991Y-18362270D02*
X12183753Y-18381317D01*
X12345658Y-18524174D02*
X12355182Y-18514650D01*
X12355182Y-18514650D02*
X12374230Y-18486079D01*
X12374230Y-18486079D02*
X12383753Y-18467031D01*
X12383753Y-18467031D02*
X12393277Y-18438460D01*
X12393277Y-18438460D02*
X12402801Y-18390841D01*
X12402801Y-18390841D02*
X12402801Y-18352746D01*
X12402801Y-18352746D02*
X12393277Y-18305127D01*
X12393277Y-18305127D02*
X12383753Y-18276555D01*
X12383753Y-18276555D02*
X12374230Y-18257508D01*
X12374230Y-18257508D02*
X12355182Y-18228936D01*
X12355182Y-18228936D02*
X12345658Y-18219412D01*
M02*
