M48
; DRILL file {KiCad 8.0.7-8.0.7-0~ubuntu24.04.1} date 2024-12-13T16:46:38+0900
; FORMAT={-:-/ absolute / inch / decimal}
; #@! TF.CreationDate,2024-12-13T16:46:38+09:00
; #@! TF.GenerationSoftware,Kicad,Pcbnew,8.0.7-8.0.7-0~ubuntu24.04.1
; #@! TF.FileFunction,Plated,1,2,PTH
FMAT,2
INCH
; #@! TA.AperFunction,Plated,PTH,ViaDrill
T1C0.0118
; #@! TA.AperFunction,Plated,PTH,ViaDrill
T2C0.0197
; #@! TA.AperFunction,Plated,PTH,ComponentDrill
T3C0.0315
; #@! TA.AperFunction,Plated,PTH,ComponentDrill
T4C0.0354
; #@! TA.AperFunction,Plated,PTH,ComponentDrill
T5C0.0394
; #@! TA.AperFunction,Plated,PTH,ComponentDrill
T6C0.0472
; #@! TA.AperFunction,Plated,PTH,ComponentDrill
T7C0.0787
; #@! TA.AperFunction,Plated,PTH,ComponentDrill
T8C0.1244
; #@! TA.AperFunction,Plated,PTH,ComponentDrill
T9C0.1433
%
G90
G05
T1
X3.1299Y-4.4606
X3.1319Y-4.8996
X3.1398Y-5.3366
X3.2165Y-4.2441
X3.2362Y-2.9291
X3.2441Y-3.1063
X3.2461Y-2.4902
X3.248Y-3.7953
X3.2559Y-4.0157
X3.2618Y-2.6988
X3.2677Y-3.5866
X3.2815Y-3.4547
X3.2913Y-4.7874
X3.4469Y-4.002
X3.5787Y-4.8307
X3.8346Y-3.752
X3.8858Y-3.0
X3.9528Y-3.3386
X4.065Y-2.9902
X4.1043Y-3.5807
X4.2087Y-3.3465
X4.2224Y-3.3996
X4.2835Y-2.937
X4.3071Y-3.378
X4.3819Y-2.3543
X4.4291Y-2.3976
X4.5551Y-3.3976
X4.6024Y-2.7953
X4.6063Y-3.3425
X4.689Y-3.6732
X4.6929Y-4.4921
X4.6969Y-2.689
X4.7126Y-2.626
X4.7283Y-4.1024
X4.7402Y-4.5315
X4.7835Y-2.6614
X4.7835Y-4.4606
X4.8031Y-2.0984
X4.8583Y-2.1339
X4.8583Y-2.5079
X4.8819Y-2.689
X4.9035Y-2.0295
X4.9449Y-2.2165
X4.9449Y-2.7559
X4.9528Y-3.6102
X4.9606Y-2.6732
X4.9843Y-4.5276
X5.0236Y-2.378
X5.0276Y-2.6693
X5.1299Y-2.6693
X5.1457Y-2.2441
T2
X3.1732Y-2.8228
X3.3189Y-3.0551
X3.3504Y-4.3858
X3.3583Y-3.9843
X3.3819Y-2.7756
X3.3898Y-5.0748
X3.3976Y-3.5984
X3.4331Y-3.6575
X3.4803Y-2.7874
X3.4843Y-2.9567
X3.5197Y-2.6024
X3.5709Y-3.6142
X3.7638Y-3.4252
X3.7677Y-3.8346
X3.8189Y-2.9843
X3.8228Y-2.874
X3.8602Y-4.0768
X3.878Y-3.4567
X3.9252Y-3.7638
X3.9882Y-3.6969
X4.1181Y-2.0551
X4.1535Y-3.9252
X4.2638Y-3.0512
X4.3346Y-4.3071
X4.3858Y-3.7441
X4.4213Y-3.5551
X4.4606Y-3.3307
X4.5Y-3.4961
X4.5157Y-4.2638
X4.6772Y-3.0787
X4.6929Y-4.3858
X4.7008Y-3.4331
X4.7165Y-2.2323
X4.8386Y-4.4843
X4.8858Y-3.2441
X4.9724Y-4.6535
X4.9961Y-3.3543
X5.0157Y-3.2323
X5.0276Y-3.6142
X5.0748Y-1.9567
X5.0827Y-2.1378
X5.1024Y-3.8583
X5.1457Y-4.1614
X5.1811Y-4.4764
X5.2047Y-2.2244
X5.2874Y-4.7953
X5.3386Y-3.8543
X5.374Y-2.4449
X5.4094Y-4.0748
X5.4606Y-3.8898
X5.6398Y-4.5098
T3
X6.9331Y-2.1654
X7.0315Y-2.1654
X7.416Y-4.9305
X7.8753Y-4.4711
T4
X6.685Y-4.5039
X6.685Y-5.0157
X7.0787Y-4.5039
X7.0787Y-5.0157
T5
X4.0767Y-1.9298
X4.1767Y-1.9298
X4.7276Y-2.8465
X4.7276Y-2.9465
X4.8276Y-2.8465
X4.8276Y-2.9465
X4.8878Y-4.0122
X4.8878Y-4.1122
X4.9276Y-2.8465
X4.9276Y-2.9465
X5.0276Y-2.8465
X5.0276Y-2.9465
X5.1276Y-2.8465
X5.1276Y-2.9465
X5.5364Y-3.5856
X5.5364Y-3.6841
X5.5364Y-3.7825
X5.6309Y-2.7283
X5.6309Y-2.8268
X5.6309Y-2.9252
X5.6348Y-3.5856
X5.6348Y-3.6841
X5.6348Y-3.7825
X5.6693Y-4.2701
X5.6693Y-4.3701
X6.7087Y-2.4882
X6.7992Y-4.126
X6.937Y-1.9291
X6.937Y-5.435
X6.937Y-5.7303
X7.037Y-1.9291
X7.3829Y-5.3465
X7.5197Y-2.4882
X7.5197Y-4.126
X7.6319Y-5.6449
X7.9272Y-5.6449
X7.939Y-3.7953
X7.939Y-4.0787
X7.9734Y-5.3465
X8.5286Y-4.2704
X8.5286Y-4.3704
X8.5807Y-3.7953
X8.5807Y-4.0787
T6
X3.5776Y-4.0866
X4.4776Y-4.0866
T7
X4.3228Y-4.7559
X4.815Y-4.752
X6.6614Y-5.9055
X7.937Y-5.9055
T8
X7.7087Y-1.8622
T9
X7.7087Y-2.0984
M30
