%TF.GenerationSoftware,KiCad,Pcbnew,8.0.7-8.0.7-0~ubuntu24.04.1*%
%TF.CreationDate,2024-12-13T16:46:42+09:00*%
%TF.ProjectId,MRM5-tester,4d524d35-2d74-4657-9374-65722e6b6963,rev?*%
%TF.SameCoordinates,Original*%
%TF.FileFunction,Paste,Bot*%
%TF.FilePolarity,Positive*%
%FSLAX46Y46*%
G04 Gerber Fmt 4.6, Leading zero omitted, Abs format (unit mm)*
G04 Created by KiCad (PCBNEW 8.0.7-8.0.7-0~ubuntu24.04.1) date 2024-12-13 16:46:42*
%MOMM*%
%LPD*%
G01*
G04 APERTURE LIST*
G04 Aperture macros list*
%AMRoundRect*
0 Rectangle with rounded corners*
0 $1 Rounding radius*
0 $2 $3 $4 $5 $6 $7 $8 $9 X,Y pos of 4 corners*
0 Add a 4 corners polygon primitive as box body*
4,1,4,$2,$3,$4,$5,$6,$7,$8,$9,$2,$3,0*
0 Add four circle primitives for the rounded corners*
1,1,$1+$1,$2,$3*
1,1,$1+$1,$4,$5*
1,1,$1+$1,$6,$7*
1,1,$1+$1,$8,$9*
0 Add four rect primitives between the rounded corners*
20,1,$1+$1,$2,$3,$4,$5,0*
20,1,$1+$1,$4,$5,$6,$7,0*
20,1,$1+$1,$6,$7,$8,$9,0*
20,1,$1+$1,$8,$9,$2,$3,0*%
G04 Aperture macros list end*
%ADD10RoundRect,0.225000X-0.225000X-0.250000X0.225000X-0.250000X0.225000X0.250000X-0.225000X0.250000X0*%
%ADD11R,2.900000X5.400000*%
%ADD12RoundRect,0.225000X0.250000X-0.225000X0.250000X0.225000X-0.250000X0.225000X-0.250000X-0.225000X0*%
%ADD13RoundRect,0.135000X-0.185000X0.135000X-0.185000X-0.135000X0.185000X-0.135000X0.185000X0.135000X0*%
%ADD14RoundRect,0.225000X0.225000X0.250000X-0.225000X0.250000X-0.225000X-0.250000X0.225000X-0.250000X0*%
%ADD15RoundRect,0.250000X0.325000X0.650000X-0.325000X0.650000X-0.325000X-0.650000X0.325000X-0.650000X0*%
%ADD16RoundRect,0.135000X0.135000X0.185000X-0.135000X0.185000X-0.135000X-0.185000X0.135000X-0.185000X0*%
%ADD17RoundRect,0.135000X-0.135000X-0.185000X0.135000X-0.185000X0.135000X0.185000X-0.135000X0.185000X0*%
%ADD18R,1.150000X0.600000*%
%ADD19R,0.300000X1.050000*%
%ADD20R,1.050000X0.300000*%
%ADD21R,3.220000X3.220000*%
%ADD22RoundRect,0.160000X0.160000X0.340000X-0.160000X0.340000X-0.160000X-0.340000X0.160000X-0.340000X0*%
%ADD23RoundRect,0.062500X0.287500X0.062500X-0.287500X0.062500X-0.287500X-0.062500X0.287500X-0.062500X0*%
%ADD24RoundRect,0.250000X-0.650000X0.325000X-0.650000X-0.325000X0.650000X-0.325000X0.650000X0.325000X0*%
%ADD25RoundRect,0.250000X-0.600000X-0.250000X0.600000X-0.250000X0.600000X0.250000X-0.600000X0.250000X0*%
%ADD26RoundRect,0.150000X-0.700000X-0.150000X0.700000X-0.150000X0.700000X0.150000X-0.700000X0.150000X0*%
%ADD27RoundRect,0.135000X0.185000X-0.135000X0.185000X0.135000X-0.185000X0.135000X-0.185000X-0.135000X0*%
%ADD28R,1.000000X0.700000*%
%ADD29R,1.600000X3.500000*%
%ADD30R,12.200000X9.750000*%
%ADD31R,0.600000X1.040000*%
%ADD32R,0.300000X1.150000*%
%ADD33R,0.600000X1.065000*%
%ADD34R,1.500000X1.500000*%
%ADD35RoundRect,0.250000X0.650000X-0.325000X0.650000X0.325000X-0.650000X0.325000X-0.650000X-0.325000X0*%
%ADD36RoundRect,0.225000X-0.250000X0.225000X-0.250000X-0.225000X0.250000X-0.225000X0.250000X0.225000X0*%
%ADD37R,0.300000X0.300000*%
%ADD38R,0.300000X0.900000*%
%ADD39R,0.900000X0.300000*%
%ADD40R,1.800000X1.800000*%
%ADD41R,0.600000X1.200000*%
G04 APERTURE END LIST*
D10*
%TO.C,C3*%
X121609000Y-55630000D03*
X123159000Y-55630000D03*
%TD*%
D11*
%TO.C,L1*%
X94650000Y-115700000D03*
X104550000Y-115700000D03*
%TD*%
D12*
%TO.C,C12*%
X102700000Y-95475000D03*
X102700000Y-93925000D03*
%TD*%
D13*
%TO.C,R23*%
X118400000Y-115280000D03*
X118400000Y-116300000D03*
%TD*%
D10*
%TO.C,C9*%
X130250000Y-117900000D03*
X131800000Y-117900000D03*
%TD*%
D14*
%TO.C,C24*%
X92500000Y-70900000D03*
X90950000Y-70900000D03*
%TD*%
D15*
%TO.C,C16*%
X116975000Y-110800000D03*
X114025000Y-110800000D03*
%TD*%
D16*
%TO.C,R20*%
X128820000Y-111900000D03*
X127800000Y-111900000D03*
%TD*%
D17*
%TO.C,R29*%
X129640000Y-100550000D03*
X130660000Y-100550000D03*
%TD*%
D14*
%TO.C,C5*%
X129045000Y-55594000D03*
X127495000Y-55594000D03*
%TD*%
D17*
%TO.C,R13*%
X80580000Y-124800000D03*
X81600000Y-124800000D03*
%TD*%
%TO.C,R18*%
X132090000Y-111900000D03*
X133110000Y-111900000D03*
%TD*%
D18*
%TO.C,Q4*%
X86200000Y-97050000D03*
X86200000Y-98950000D03*
X84000000Y-98000000D03*
%TD*%
D12*
%TO.C,C10*%
X93942000Y-94585738D03*
X93942000Y-93035738D03*
%TD*%
D19*
%TO.C,IC2*%
X98900000Y-94450000D03*
X97900000Y-94450000D03*
X96900000Y-94450000D03*
D20*
X95550000Y-93100000D03*
X95550000Y-92100000D03*
X95550000Y-91100000D03*
D19*
X96900000Y-89750000D03*
X97900000Y-89750000D03*
X98900000Y-89750000D03*
D20*
X100250000Y-91100000D03*
X100250000Y-92100000D03*
X100250000Y-93100000D03*
D21*
X97900000Y-92100000D03*
%TD*%
D22*
%TO.C,U2*%
X124100000Y-117090000D03*
X124100000Y-115900000D03*
X123270000Y-117090000D03*
X123270000Y-115900000D03*
D23*
X125085000Y-115745000D03*
X125085000Y-116245000D03*
X125085000Y-116745000D03*
X125085000Y-117245000D03*
X122285000Y-117245000D03*
X122285000Y-116745000D03*
X122285000Y-116245000D03*
X122285000Y-115745000D03*
%TD*%
D16*
%TO.C,R5*%
X88710000Y-87600000D03*
X87690000Y-87600000D03*
%TD*%
D17*
%TO.C,R15*%
X80580000Y-113680000D03*
X81600000Y-113680000D03*
%TD*%
D16*
%TO.C,R10*%
X134988000Y-62145000D03*
X133968000Y-62145000D03*
%TD*%
D14*
%TO.C,C7*%
X131800000Y-115300000D03*
X130250000Y-115300000D03*
%TD*%
%TO.C,C18*%
X124400000Y-109700000D03*
X122850000Y-109700000D03*
%TD*%
D16*
%TO.C,R22*%
X124220000Y-111900000D03*
X123200000Y-111900000D03*
%TD*%
D18*
%TO.C,Q2*%
X86200000Y-74200000D03*
X86200000Y-76100000D03*
X84000000Y-75150000D03*
%TD*%
D14*
%TO.C,C19*%
X102200000Y-52400000D03*
X100650000Y-52400000D03*
%TD*%
D12*
%TO.C,C17*%
X118400000Y-120200000D03*
X118400000Y-118650000D03*
%TD*%
D16*
%TO.C,R7*%
X88910000Y-96800000D03*
X87890000Y-96800000D03*
%TD*%
D24*
%TO.C,C15*%
X104900000Y-94025000D03*
X104900000Y-96975000D03*
%TD*%
D16*
%TO.C,R1*%
X88820000Y-63400000D03*
X87800000Y-63400000D03*
%TD*%
D25*
%TO.C,D1*%
X123349000Y-59494000D03*
D26*
X123349000Y-57794000D03*
X126349000Y-57794000D03*
X126349000Y-59694000D03*
%TD*%
D16*
%TO.C,R8*%
X81600000Y-102560000D03*
X80580000Y-102560000D03*
%TD*%
D14*
%TO.C,C13*%
X129400000Y-109700000D03*
X127850000Y-109700000D03*
%TD*%
D27*
%TO.C,R30*%
X136200000Y-106310000D03*
X136200000Y-105290000D03*
%TD*%
D28*
%TO.C,D2*%
X138750000Y-102500000D03*
X138750000Y-100600000D03*
X141150000Y-101550000D03*
%TD*%
D17*
%TO.C,R21*%
X92704000Y-90990738D03*
X93724000Y-90990738D03*
%TD*%
%TO.C,R16*%
X80580000Y-135800000D03*
X81600000Y-135800000D03*
%TD*%
D29*
%TO.C,IC3*%
X98320000Y-56325000D03*
X103400000Y-56325000D03*
D30*
X100860000Y-66600000D03*
%TD*%
D10*
%TO.C,C14*%
X115525000Y-113200000D03*
X117075000Y-113200000D03*
%TD*%
D16*
%TO.C,R6*%
X81600000Y-91440000D03*
X80580000Y-91440000D03*
%TD*%
%TO.C,R3*%
X88800000Y-73800000D03*
X87780000Y-73800000D03*
%TD*%
D31*
%TO.C,J3*%
X118480000Y-50230000D03*
X119280000Y-50230000D03*
D32*
X120430000Y-50175000D03*
X121430000Y-50175000D03*
X121930000Y-50175000D03*
X122930000Y-50175000D03*
D33*
X124080000Y-50217500D03*
X124880000Y-50217500D03*
D32*
X123430000Y-50175000D03*
X122430000Y-50175000D03*
X120930000Y-50175000D03*
X119930000Y-50175000D03*
D34*
X116560000Y-49600000D03*
X126800000Y-49600000D03*
X116560000Y-45670000D03*
X126800000Y-45670000D03*
%TD*%
D16*
%TO.C,R19*%
X133126383Y-109694166D03*
X132106383Y-109694166D03*
%TD*%
D35*
%TO.C,C8*%
X91792000Y-95681738D03*
X91792000Y-92731738D03*
%TD*%
D18*
%TO.C,Q3*%
X86200000Y-87600000D03*
X86200000Y-89500000D03*
X84000000Y-88550000D03*
%TD*%
D15*
%TO.C,C27*%
X92400000Y-68600000D03*
X89450000Y-68600000D03*
%TD*%
D16*
%TO.C,R4*%
X81600000Y-80320000D03*
X80580000Y-80320000D03*
%TD*%
D17*
%TO.C,R9*%
X133968000Y-60873000D03*
X134988000Y-60873000D03*
%TD*%
D14*
%TO.C,C6*%
X129045000Y-53000000D03*
X127495000Y-53000000D03*
%TD*%
D17*
%TO.C,R11*%
X133968000Y-63423000D03*
X134988000Y-63423000D03*
%TD*%
D13*
%TO.C,R31*%
X134000000Y-105290000D03*
X134000000Y-106310000D03*
%TD*%
D15*
%TO.C,C11*%
X131800000Y-120900000D03*
X128850000Y-120900000D03*
%TD*%
D17*
%TO.C,R28*%
X129640000Y-102750000D03*
X130660000Y-102750000D03*
%TD*%
D16*
%TO.C,R2*%
X81600000Y-69200000D03*
X80580000Y-69200000D03*
%TD*%
D18*
%TO.C,Q6*%
X86200000Y-108050000D03*
X86200000Y-109950000D03*
X84000000Y-109000000D03*
%TD*%
%TO.C,Q1*%
X86200000Y-63400000D03*
X86200000Y-65300000D03*
X84000000Y-64350000D03*
%TD*%
D36*
%TO.C,C4*%
X132400000Y-58425000D03*
X132400000Y-59975000D03*
%TD*%
D37*
%TO.C,U1*%
X126270000Y-63038000D03*
D38*
X126770000Y-62738000D03*
X127270000Y-62738000D03*
X127770000Y-62738000D03*
X128270000Y-62738000D03*
D37*
X128770000Y-63038000D03*
D39*
X129070000Y-63538000D03*
X129070000Y-64038000D03*
X129070000Y-64538000D03*
X129070000Y-65038000D03*
D37*
X128770000Y-65538000D03*
D38*
X128270000Y-65838000D03*
X127770000Y-65838000D03*
X127270000Y-65838000D03*
X126770000Y-65838000D03*
D37*
X126270000Y-65538000D03*
D39*
X125970000Y-65038000D03*
X125970000Y-64538000D03*
X125970000Y-64038000D03*
X125970000Y-63538000D03*
D40*
X127520000Y-64288000D03*
%TD*%
D17*
%TO.C,R12*%
X87580000Y-123600000D03*
X88600000Y-123600000D03*
%TD*%
%TO.C,R14*%
X87780000Y-107800000D03*
X88800000Y-107800000D03*
%TD*%
D18*
%TO.C,Q5*%
X86200000Y-124000000D03*
X86200000Y-125900000D03*
X84000000Y-124950000D03*
%TD*%
D41*
%TO.C,IC5*%
X135250000Y-102850000D03*
X134300000Y-102850000D03*
X133350000Y-102850000D03*
X133350000Y-100350000D03*
X135250000Y-100350000D03*
%TD*%
M02*
